<?xml version="1.0" encoding="utf-8"?>
<!-- Generator: Adobe Illustrator 16.0.0, SVG Export Plug-In . SVG Version: 6.00 Build 0)  -->
<!DOCTYPE svg PUBLIC "-//W3C//DTD SVG 1.1//EN" "http://www.w3.org/Graphics/SVG/1.1/DTD/svg11.dtd">
<svg version="1.1" id="Layer_1" xmlns="http://www.w3.org/2000/svg" xmlns:xlink="http://www.w3.org/1999/xlink" x="0px" y="0px"
	 width="30px" height="30px" viewBox="0 0 30 30" enable-background="new 0 0 30 30" xml:space="preserve">
<g>
	<path fill="#BFA430" d="M17.841,14.427V5.499h8.245v7.05c0,3.814-0.456,6.578-1.367,8.285c-1.196,2.279-3.091,4.002-5.683,5.17
		l-1.88-2.99c1.567-0.654,2.72-1.631,3.461-2.926c0.741-1.297,1.153-3.184,1.239-5.662L17.841,14.427L17.841,14.427z M4.599,14.427
		V5.499h8.244v7.05c0,3.814-0.456,6.578-1.366,8.285c-1.196,2.279-3.091,4.002-5.684,5.17l-1.879-2.99
		c1.566-0.656,2.719-1.633,3.461-2.926c0.741-1.297,1.154-3.184,1.238-5.662L4.599,14.427L4.599,14.427z"/>
</g>
</svg>
