<?xml version="1.0" encoding="utf-8"?>
<!-- Generator: Adobe Illustrator 16.0.0, SVG Export Plug-In . SVG Version: 6.00 Build 0)  -->
<!DOCTYPE svg PUBLIC "-//W3C//DTD SVG 1.1//EN" "http://www.w3.org/Graphics/SVG/1.1/DTD/svg11.dtd">
<svg version="1.1" id="Layer_1" xmlns="http://www.w3.org/2000/svg" xmlns:xlink="http://www.w3.org/1999/xlink" x="0px" y="0px"
	 width="180px" height="74.75px" viewBox="0 0 180 74.75" enable-background="new 0 0 180 74.75" xml:space="preserve">
<g>
	<ellipse fill="#1A4A9C" cx="89.572" cy="31.168" rx="89.574" ry="0.317"/>
	<rect x="66.96" y="28.719" fill="#FFFFFF" width="45.226" height="6.84"/>
	<g>
		<polygon fill="#BEA630" points="109.729,32.158 69.807,32.158 89.58,21.846 		"/>
		<polygon fill="#DFC024" points="109.729,32.158 122.593,5.473 89.58,21.846 		"/>
		<polygon fill="#BEA630" points="69.807,32.158 56.581,5.473 89.591,21.846 		"/>
		<polygon fill="#DFC024" points="89.653,21.846 77.627,15.868 89.653,0 101.655,15.803 		"/>
		<polygon fill="#BEA630" points="89.653,21.846 89.653,0 101.655,15.803 		"/>
	</g>
	<g>
		<path fill="#1A4A9C" d="M7.684,46.223c0-4.448,0-5.258-0.069-6.168c-0.065-0.978-0.234-1.447-1.212-1.583
			c-0.235-0.035-0.74-0.067-1.01-0.067c-0.103,0-0.235-0.136-0.235-0.235c0-0.169,0.134-0.234,0.471-0.234
			c1.35,0,3.168,0.065,3.337,0.065c0.271,0,2.056-0.065,2.933-0.065c0.336,0,0.472,0.065,0.472,0.234c0,0.1-0.103,0.235-0.236,0.235
			c-0.202,0-0.37,0-0.74,0.067c-0.776,0.17-0.979,0.571-1.045,1.583c-0.067,0.91-0.067,1.72-0.067,6.168v1.719h0.135
			c0.473-0.538,5.764-5.765,6.875-6.911c0.844-0.84,1.618-1.584,1.618-2.055c0-0.368-0.133-0.539-0.369-0.571
			c-0.169-0.033-0.27-0.167-0.27-0.271c0-0.134,0.134-0.199,0.336-0.199c0.606,0,1.517,0.065,2.224,0.065
			c0.169,0,2.124-0.065,2.865-0.065c0.302,0,0.438,0.065,0.438,0.199c0,0.135-0.067,0.235-0.304,0.235
			c-0.438,0-1.08,0.171-1.651,0.404c-1.212,0.539-1.786,1.181-3.101,2.427c-0.741,0.674-5.796,5.526-6.437,6.235
			c0.775,0.842,6.942,7.007,8.155,8.124c2.494,2.223,2.831,2.594,4.247,3.164c0.775,0.307,1.618,0.403,1.82,0.403
			s0.371,0.103,0.371,0.236c0,0.136-0.135,0.237-0.641,0.237h-1.516c-0.843,0-1.381,0-2.056-0.066
			c-1.55-0.136-2.325-0.776-3.606-1.754c-1.348-1.045-7.583-7.617-8.999-9.303h-0.135v2.798c0,2.765,0,5.023,0.135,6.201
			c0.102,0.844,0.236,1.383,1.146,1.517c0.404,0.066,0.875,0.134,1.146,0.134c0.168,0,0.234,0.136,0.234,0.236
			c0,0.136-0.134,0.234-0.471,0.234c-1.449,0-3.235-0.1-3.471-0.1c-0.237,0-2.021,0.1-2.933,0.1c-0.305,0-0.472-0.063-0.472-0.234
			c0-0.103,0.068-0.236,0.235-0.236c0.271,0,0.642-0.065,0.909-0.134c0.574-0.134,0.642-0.673,0.776-1.517
			c0.17-1.178,0.17-3.437,0.17-6.201v-5.053H7.684z"/>
		<path fill="#1A4A9C" d="M32.825,51.277c0,2.764,0,5.023,0.134,6.201c0.102,0.844,0.203,1.384,1.08,1.517
			c0.438,0.066,1.078,0.134,1.348,0.134c0.168,0,0.235,0.137,0.235,0.236c0,0.136-0.134,0.235-0.471,0.235
			c-1.651,0-3.573-0.102-3.708-0.102c-0.168,0-2.021,0.102-2.932,0.102c-0.304,0-0.473-0.064-0.473-0.235
			c0-0.103,0.068-0.236,0.234-0.236c0.271,0,0.642-0.065,0.911-0.134c0.572-0.133,0.673-0.673,0.775-1.517
			c0.135-1.178,0.168-3.438,0.168-6.201v-5.055c0-4.448,0-5.258-0.067-6.168c-0.067-0.978-0.303-1.413-0.943-1.549
			c-0.338-0.069-0.708-0.102-0.91-0.102c-0.135,0-0.235-0.136-0.235-0.235c0-0.169,0.135-0.234,0.472-0.234
			c0.979,0,2.832,0.065,3,0.065c0.136,0,2.056-0.065,2.965-0.065c0.337,0,0.472,0.065,0.472,0.234c0,0.1-0.135,0.235-0.235,0.235
			c-0.201,0-0.403,0-0.741,0.067c-0.81,0.17-0.978,0.571-1.045,1.583c-0.032,0.91-0.032,1.72-0.032,6.168v5.055H32.825z"/>
		<path fill="#1A4A9C" d="M43.813,55.693c0.067,2.359,0.338,3.066,1.145,3.268c0.54,0.137,1.214,0.168,1.484,0.168
			c0.136,0,0.235,0.104,0.235,0.236c0,0.171-0.201,0.235-0.539,0.235c-1.687,0-2.865-0.102-3.135-0.102s-1.516,0.102-2.864,0.102
			c-0.303,0-0.471-0.033-0.471-0.235c0-0.136,0.101-0.236,0.235-0.236c0.235,0,0.775-0.031,1.213-0.168
			c0.742-0.201,0.842-0.977,0.842-3.571V38.978c0-1.146,0.169-1.448,0.404-1.448c0.336,0,0.842,0.572,1.147,0.875
			c0.472,0.473,4.786,5.056,9.37,9.774c2.932,3.033,6.099,6.435,7.009,7.381l-0.302-14.358c-0.033-1.854-0.202-2.494-1.113-2.661
			c-0.54-0.104-1.213-0.136-1.45-0.136c-0.201,0-0.235-0.167-0.235-0.271c0-0.168,0.235-0.199,0.573-0.199
			c1.347,0,2.764,0.065,3.1,0.065c0.337,0,1.314-0.065,2.528-0.065c0.304,0,0.54,0.031,0.54,0.199c0,0.104-0.136,0.271-0.337,0.271
			c-0.135,0-0.371,0-0.708,0.067c-0.978,0.203-1.045,0.774-1.045,2.493l-0.066,16.784c0,1.886-0.034,2.054-0.235,2.054
			c-0.304,0-0.608-0.235-2.259-1.75c-0.304-0.272-4.584-4.485-7.719-7.755c-3.437-3.604-6.774-7.109-7.684-8.121L43.813,55.693z"/>
		<path fill="#1A4A9C" d="M84.12,52.29c0-2.325-0.066-2.665-1.28-2.898c-0.236-0.035-0.742-0.069-1.011-0.069
			c-0.103,0-0.236-0.132-0.236-0.234c0-0.201,0.134-0.234,0.472-0.234c1.348,0,3.336,0.066,3.504,0.066
			c0.136,0,1.989-0.066,2.9-0.066c0.336,0,0.472,0.033,0.472,0.234c0,0.103-0.136,0.234-0.236,0.234c-0.201,0-0.404,0-0.74,0.069
			c-0.81,0.134-1.045,0.573-1.114,1.584c-0.034,0.909-0.034,1.752-0.034,2.965v3.204c0,1.313-0.034,1.347-0.404,1.548
			c-1.886,0.977-4.583,1.281-6.301,1.281c-2.259,0-6.471-0.269-9.775-3.067c-1.819-1.517-3.537-4.582-3.537-8.155
			c0-4.584,2.326-7.82,4.955-9.403c2.663-1.619,5.628-1.818,7.887-1.818c1.887,0,3.975,0.336,4.549,0.471
			c0.607,0.134,1.651,0.305,2.392,0.305c0.304,0,0.371,0.132,0.371,0.269c0,0.404-0.17,1.179-0.17,4.043
			c0,0.474-0.134,0.608-0.336,0.608c-0.168,0-0.202-0.169-0.202-0.439c-0.034-0.371-0.202-1.213-0.674-1.887
			c-0.741-1.078-2.999-2.223-6.841-2.223c-1.787,0-3.943,0.135-6.201,1.851c-1.719,1.316-2.933,3.878-2.933,7.214
			c0,4.044,2.091,6.943,3.136,7.922c2.357,2.189,4.852,2.997,7.583,2.997c1.045,0,2.427-0.1,3.201-0.539
			c0.37-0.201,0.606-0.336,0.606-0.876V52.29H84.12z"/>
		<path fill="#1A4A9C" d="M93.253,59.198c-0.402-0.203-0.438-0.305-0.438-1.08c0-1.417,0.134-2.559,0.17-3.032
			c0-0.303,0.065-0.473,0.232-0.473c0.169,0,0.271,0.104,0.271,0.339c0,0.236,0,0.641,0.102,1.044
			c0.474,2.09,2.696,2.831,4.685,2.831c2.933,0,4.449-1.652,4.449-3.808c0-2.059-1.112-3.033-3.741-4.989l-1.348-1.013
			c-3.199-2.39-4.248-4.144-4.248-6.131c0-3.37,2.663-5.393,6.572-5.393c1.18,0,2.359,0.169,3.07,0.338
			c0.57,0.134,0.808,0.134,1.045,0.134c0.233,0,0.3,0.034,0.3,0.203c0,0.136-0.133,1.077-0.133,3.031
			c0,0.438-0.036,0.641-0.236,0.641c-0.202,0-0.234-0.137-0.269-0.37c-0.033-0.338-0.269-1.113-0.438-1.416
			c-0.204-0.337-1.183-1.415-3.845-1.415c-2.157,0-3.942,1.078-3.942,3.099c0,1.822,0.909,2.866,3.841,4.854l0.843,0.573
			c3.607,2.457,4.853,4.448,4.853,6.905c0,1.687-0.64,3.506-2.766,4.888c-1.246,0.811-3.099,1.013-4.718,1.013
			C96.188,59.974,94.467,59.771,93.253,59.198z"/>
		<path fill="#BEA630" d="M115.43,51.347c0,4.213,0.066,5.93,0.607,6.436c0.471,0.472,1.616,0.674,3.941,0.674
			c1.552,0,2.866-0.034,3.574-0.876c0.372-0.439,0.606-1.043,0.71-1.616c0.03-0.204,0.132-0.371,0.3-0.371
			c0.138,0,0.202,0.134,0.202,0.438c0,0.302-0.202,2.022-0.438,2.862c-0.202,0.676-0.304,0.775-1.886,0.775
			c-2.124,0-3.774-0.033-5.158-0.1c-1.349-0.033-2.358-0.068-3.233-0.068c-0.136,0-0.642,0-1.215,0.035
			c-0.608,0.033-1.247,0.067-1.719,0.067c-0.303,0-0.472-0.067-0.472-0.238c0-0.1,0.07-0.236,0.237-0.236
			c0.269,0,0.638-0.065,0.907-0.134c0.576-0.133,0.642-0.671,0.778-1.515c0.17-1.18,0.17-3.439,0.17-6.203v-5.055
			c0-4.448,0-5.258-0.068-6.166c-0.069-0.978-0.236-1.449-1.215-1.585c-0.235-0.035-0.738-0.067-1.009-0.067
			c-0.104,0-0.237-0.136-0.237-0.233c0-0.169,0.136-0.234,0.475-0.234c1.347,0,3.2,0.065,3.369,0.065
			c0.134,0,2.357-0.065,3.267-0.065c0.306,0,0.475,0.065,0.475,0.234c0,0.101-0.138,0.2-0.235,0.2c-0.201,0-0.643,0.033-0.978,0.065
			c-0.877,0.171-1.046,0.608-1.114,1.62c-0.032,0.91-0.032,1.718-0.032,6.166v5.124H115.43z"/>
		<path fill="#BEA630" d="M138.416,37.529c6.673,0,11.728,4.078,11.728,10.751c0,6.4-4.754,11.693-11.896,11.693
			c-8.121,0-11.595-6.1-11.595-11.255C126.652,44.099,130.227,37.529,138.416,37.529z M139.088,58.793
			c2.661,0,8.022-1.415,8.022-9.707c0-6.874-4.18-10.479-8.865-10.479c-4.954,0-8.526,3.099-8.526,9.334
			C129.719,54.613,133.729,58.793,139.088,58.793z"/>
		<path fill="#BEA630" d="M171.209,52.29c0-2.325-0.071-2.665-1.282-2.898c-0.234-0.035-0.742-0.069-1.014-0.069
			c-0.1,0-0.232-0.132-0.232-0.234c0-0.201,0.135-0.234,0.472-0.234c1.349,0,3.336,0.066,3.505,0.066
			c0.136,0,1.989-0.066,2.897-0.066c0.337,0,0.474,0.033,0.474,0.234c0,0.103-0.137,0.234-0.234,0.234c-0.206,0-0.405,0-0.743,0.069
			c-0.81,0.134-1.044,0.573-1.113,1.584c-0.033,0.909-0.033,1.752-0.033,2.965v3.204c0,1.313-0.032,1.347-0.402,1.548
			c-1.89,0.977-4.585,1.281-6.304,1.281c-2.258,0-6.469-0.269-9.771-3.067c-1.822-1.517-3.542-4.582-3.542-8.155
			c0-4.584,2.327-7.82,4.956-9.403c2.662-1.619,5.627-1.818,7.886-1.818c1.889,0,3.977,0.336,4.55,0.471
			c0.607,0.134,1.65,0.305,2.395,0.305c0.302,0,0.371,0.132,0.371,0.269c0,0.404-0.171,1.179-0.171,4.043
			c0,0.474-0.137,0.608-0.336,0.608c-0.169,0-0.202-0.169-0.202-0.439c-0.036-0.371-0.202-1.213-0.675-1.887
			c-0.743-1.078-2.999-2.223-6.841-2.223c-1.787,0-3.942,0.135-6.201,1.851c-1.719,1.316-2.934,3.878-2.934,7.214
			c0,4.044,2.093,6.943,3.138,7.922c2.357,2.189,4.852,2.997,7.582,2.997c1.043,0,2.425-0.1,3.2-0.539
			c0.369-0.201,0.607-0.336,0.607-0.876V52.29H171.209z"/>
	</g>
</g>
<g>
	<path fill="#1A4A9C" d="M8.454,71.834c0.429,0.264,1.056,0.484,1.716,0.484c0.979,0,1.551-0.518,1.551-1.266
		c0-0.693-0.396-1.089-1.397-1.475c-1.21-0.429-1.958-1.056-1.958-2.101c0-1.155,0.957-2.014,2.398-2.014
		c0.759,0,1.309,0.176,1.639,0.363l-0.264,0.781c-0.242-0.133-0.737-0.353-1.408-0.353c-1.012,0-1.397,0.605-1.397,1.111
		c0,0.693,0.451,1.034,1.475,1.431c1.254,0.483,1.892,1.089,1.892,2.178c0,1.145-0.847,2.135-2.596,2.135
		c-0.715,0-1.497-0.209-1.893-0.474L8.454,71.834z"/>
	<path fill="#1A4A9C" d="M16.154,65.585v4.39c0,1.661,0.737,2.365,1.727,2.365c1.1,0,1.804-0.726,1.804-2.365v-4.39h0.968v4.323
		c0,2.277-1.199,3.213-2.806,3.213c-1.518,0-2.662-0.869-2.662-3.169v-4.367H16.154z"/>
	<path fill="#1A4A9C" d="M23.502,65.673c0.462-0.077,1.067-0.143,1.837-0.143c0.946,0,1.639,0.22,2.08,0.616
		c0.407,0.352,0.649,0.891,0.649,1.551c0,0.671-0.198,1.199-0.572,1.584c-0.506,0.539-1.331,0.814-2.266,0.814
		c-0.286,0-0.55-0.011-0.77-0.066V73h-0.958V65.673z M24.459,69.248c0.209,0.056,0.473,0.077,0.792,0.077
		c1.155,0,1.859-0.561,1.859-1.584c0-0.979-0.693-1.452-1.75-1.452c-0.418,0-0.737,0.033-0.902,0.077V69.248z"/>
	<path fill="#1A4A9C" d="M30.542,65.673c0.462-0.077,1.067-0.143,1.837-0.143c0.946,0,1.639,0.22,2.079,0.616
		c0.407,0.352,0.649,0.891,0.649,1.551c0,0.671-0.198,1.199-0.572,1.584c-0.506,0.539-1.331,0.814-2.266,0.814
		c-0.286,0-0.55-0.011-0.77-0.066V73h-0.958V65.673z M31.499,69.248c0.209,0.056,0.473,0.077,0.792,0.077
		c1.155,0,1.859-0.561,1.859-1.584c0-0.979-0.693-1.452-1.75-1.452c-0.418,0-0.737,0.033-0.902,0.077V69.248z"/>
	<path fill="#1A4A9C" d="M37.582,65.585h0.958v6.612h3.168V73h-4.126V65.585z"/>
	<path fill="#1A4A9C" d="M44.688,73v-3.146l-2.343-4.269h1.089l1.045,2.046c0.286,0.562,0.506,1.013,0.737,1.529h0.022
		c0.209-0.483,0.462-0.968,0.748-1.529l1.067-2.046h1.089l-2.486,4.258V73H44.688z"/>
	<path fill="#1A4A9C" d="M53.564,71.834c0.429,0.264,1.056,0.484,1.716,0.484c0.979,0,1.551-0.518,1.551-1.266
		c0-0.693-0.396-1.089-1.397-1.475c-1.21-0.429-1.958-1.056-1.958-2.101c0-1.155,0.957-2.014,2.398-2.014
		c0.759,0,1.309,0.176,1.639,0.363l-0.264,0.781c-0.242-0.133-0.737-0.353-1.408-0.353c-1.012,0-1.397,0.605-1.397,1.111
		c0,0.693,0.451,1.034,1.475,1.431c1.254,0.483,1.892,1.089,1.892,2.178c0,1.145-0.847,2.135-2.596,2.135
		c-0.715,0-1.497-0.209-1.893-0.474L53.564,71.834z"/>
	<path fill="#1A4A9C" d="M66.644,69.216c0,2.552-1.551,3.905-3.443,3.905c-1.958,0-3.333-1.519-3.333-3.763
		c0-2.354,1.463-3.895,3.443-3.895C65.335,65.464,66.644,67.016,66.644,69.216z M60.891,69.337c0,1.584,0.858,3.003,2.365,3.003
		c1.518,0,2.376-1.397,2.376-3.08c0-1.475-0.77-3.015-2.365-3.015C61.683,66.245,60.891,67.708,60.891,69.337z"/>
	<path fill="#1A4A9C" d="M69.074,65.585h0.958v6.612H73.2V73h-4.126V65.585z"/>
	<path fill="#1A4A9C" d="M76.016,65.585v4.39c0,1.661,0.737,2.365,1.727,2.365c1.1,0,1.804-0.726,1.804-2.365v-4.39h0.968v4.323
		c0,2.277-1.199,3.213-2.806,3.213c-1.518,0-2.662-0.869-2.662-3.169v-4.367H76.016z"/>
	<path fill="#1A4A9C" d="M84.771,66.399h-2.255v-0.814h5.49v0.814h-2.267V73h-0.968V66.399z"/>
	<path fill="#1A4A9C" d="M90.975,65.585V73h-0.957v-7.415H90.975z"/>
	<path fill="#1A4A9C" d="M100.172,69.216c0,2.552-1.551,3.905-3.443,3.905c-1.958,0-3.333-1.519-3.333-3.763
		c0-2.354,1.463-3.895,3.443-3.895C98.863,65.464,100.172,67.016,100.172,69.216z M94.418,69.337c0,1.584,0.858,3.003,2.365,3.003
		c1.519,0,2.377-1.397,2.377-3.08c0-1.475-0.771-3.015-2.365-3.015C95.21,66.245,94.418,67.708,94.418,69.337z"/>
	<path fill="#1A4A9C" d="M102.602,73v-7.415h1.045l2.377,3.752c0.55,0.869,0.979,1.649,1.331,2.409l0.021-0.012
		c-0.088-0.989-0.109-1.892-0.109-3.047v-3.103h0.902V73H107.2l-2.354-3.763c-0.517-0.825-1.012-1.672-1.386-2.476l-0.033,0.012
		c0.055,0.935,0.077,1.826,0.077,3.059V73H102.602z"/>
	<path fill="#1A4A9C" d="M110.896,71.834c0.429,0.264,1.056,0.484,1.716,0.484c0.979,0,1.552-0.518,1.552-1.266
		c0-0.693-0.396-1.089-1.397-1.475c-1.21-0.429-1.958-1.056-1.958-2.101c0-1.155,0.957-2.014,2.398-2.014
		c0.759,0,1.309,0.176,1.639,0.363l-0.264,0.781c-0.242-0.133-0.737-0.353-1.408-0.353c-1.012,0-1.397,0.605-1.397,1.111
		c0,0.693,0.451,1.034,1.475,1.431c1.254,0.483,1.893,1.089,1.893,2.178c0,1.145-0.848,2.135-2.597,2.135
		c-0.715,0-1.496-0.209-1.893-0.474L110.896,71.834z"/>
	<path fill="#1A4A9C" d="M123.227,64.925c-0.803,1.089-1.386,2.509-1.386,4.511c0,1.958,0.604,3.355,1.386,4.456h-0.759
		c-0.693-0.914-1.441-2.322-1.441-4.467c0.011-2.156,0.748-3.576,1.441-4.5H123.227z"/>
	<path fill="#1A4A9C" d="M125.471,65.673c0.462-0.077,1.067-0.143,1.838-0.143c0.945,0,1.639,0.22,2.079,0.616
		c0.407,0.352,0.648,0.891,0.648,1.551c0,0.671-0.197,1.199-0.571,1.584c-0.507,0.539-1.332,0.814-2.267,0.814
		c-0.286,0-0.55-0.011-0.771-0.066V73h-0.957V65.673z M126.428,69.248c0.209,0.056,0.474,0.077,0.792,0.077
		c1.155,0,1.859-0.561,1.859-1.584c0-0.979-0.692-1.452-1.749-1.452c-0.418,0-0.737,0.033-0.902,0.077V69.248z"/>
	<path fill="#1A4A9C" d="M134.139,73l-2.42-7.415h1.034l1.155,3.652c0.319,1.001,0.594,1.903,0.792,2.772h0.022
		c0.209-0.858,0.517-1.793,0.847-2.762l1.254-3.663h1.023L135.195,73H134.139z"/>
	<path fill="#1A4A9C" d="M141.607,66.399h-2.255v-0.814h5.489v0.814h-2.266V73h-0.969V66.399z"/>
	<path fill="#1A4A9C" d="M146.238,73.892c0.781-1.09,1.387-2.509,1.387-4.489s-0.595-3.377-1.387-4.478h0.748
		c0.704,0.902,1.441,2.321,1.441,4.478s-0.737,3.564-1.441,4.489H146.238z"/>
	<path fill="#1A4A9C" d="M154.687,65.585h0.957v6.612h3.169V73h-4.126V65.585z"/>
	<path fill="#1A4A9C" d="M161.506,66.399h-2.255v-0.814h5.489v0.814h-2.266V73h-0.969V66.399z"/>
	<path fill="#1A4A9C" d="M166.753,65.684c0.583-0.088,1.276-0.153,2.035-0.153c1.376,0,2.354,0.318,3.004,0.924
		c0.66,0.605,1.045,1.463,1.045,2.662c0,1.21-0.374,2.2-1.067,2.883c-0.692,0.693-1.837,1.067-3.278,1.067
		c-0.682,0-1.254-0.033-1.738-0.089V65.684z M167.71,72.241c0.242,0.044,0.595,0.055,0.969,0.055c2.046,0,3.157-1.145,3.157-3.146
		c0.011-1.749-0.979-2.86-3.004-2.86c-0.495,0-0.869,0.044-1.122,0.099V72.241z"/>
</g>
</svg>
