<?xml version="1.0" encoding="utf-8"?>
<!-- Generator: Adobe Illustrator 16.0.0, SVG Export Plug-In . SVG Version: 6.00 Build 0)  -->
<!DOCTYPE svg PUBLIC "-//W3C//DTD SVG 1.1//EN" "http://www.w3.org/Graphics/SVG/1.1/DTD/svg11.dtd">
<svg version="1.1" id="Layer_1" xmlns="http://www.w3.org/2000/svg" xmlns:xlink="http://www.w3.org/1999/xlink" x="0px" y="0px"
	 width="25px" height="50px" viewBox="0 0 25 50" enable-background="new 0 0 25 50" xml:space="preserve">
<g>
	<path fill="#4B3013" d="M11.828,6.889c-1.656,0-3.002-1.323-3.002-2.951c0-1.625,1.346-2.947,3.002-2.947c1.655,0,3,1.323,3,2.947
		C14.828,5.566,13.483,6.889,11.828,6.889 M11.828,2.028c-1.073,0-1.945,0.857-1.945,1.91c0,1.056,0.872,1.913,1.945,1.913
		s1.944-0.856,1.944-1.913C13.772,2.885,12.901,2.028,11.828,2.028"/>
	<path fill="#4B3013" d="M11.828,23.648c-0.29,0-0.528-0.231-0.528-0.519V6.754c0-0.285,0.238-0.52,0.528-0.52
		c0.293,0,0.528,0.234,0.528,0.52v16.375C12.356,23.417,12.121,23.648,11.828,23.648"/>
	<path fill="#4B3013" d="M11.828,23.648c-5.292,0-9.596-4.229-9.596-9.43c0-0.286,0.236-0.52,0.528-0.52h1.974
		c0.29,0,0.526,0.234,0.526,0.52c0,0.287-0.236,0.518-0.526,0.518H3.304c0.273,4.389,3.993,7.875,8.524,7.875
		c4.535,0,8.25-3.486,8.525-7.875h-1.402c-0.292,0-0.528-0.231-0.528-0.518c0-0.286,0.236-0.52,0.528-0.52h1.947
		c0.289,0,0.527,0.234,0.527,0.52C21.426,19.418,17.118,23.648,11.828,23.648"/>
	<path fill="#4B3013" d="M14.837,10.749H8.818c-0.291,0-0.529-0.23-0.529-0.518c0-0.287,0.238-0.519,0.529-0.519h6.019
		c0.294,0,0.529,0.232,0.529,0.519C15.366,10.519,15.131,10.749,14.837,10.749"/>
</g>
<g>
	<path fill="#FCF6B4" d="M11.997,31.979c-1.656,0-3.002-1.323-3.002-2.951c0-1.624,1.346-2.947,3.002-2.947c1.655,0,3,1.323,3,2.947
		C14.997,30.656,13.652,31.979,11.997,31.979 M11.997,27.119c-1.073,0-1.945,0.856-1.945,1.909c0,1.056,0.872,1.913,1.945,1.913
		s1.944-0.857,1.944-1.913C13.941,27.976,13.07,27.119,11.997,27.119"/>
	<path fill="#FCF6B4" d="M11.997,48.738c-0.29,0-0.528-0.231-0.528-0.52V31.845c0-0.285,0.238-0.52,0.528-0.52
		c0.293,0,0.528,0.234,0.528,0.52v16.374C12.525,48.507,12.29,48.738,11.997,48.738"/>
	<path fill="#FCF6B4" d="M11.997,48.738c-5.292,0-9.596-4.229-9.596-9.43c0-0.285,0.236-0.52,0.528-0.52h1.974
		c0.29,0,0.526,0.234,0.526,0.52c0,0.287-0.236,0.518-0.526,0.518H3.473c0.273,4.389,3.993,7.875,8.524,7.875
		c4.535,0,8.25-3.486,8.525-7.875H19.12c-0.292,0-0.528-0.23-0.528-0.518c0-0.285,0.236-0.52,0.528-0.52h1.947
		c0.289,0,0.527,0.234,0.527,0.52C21.595,44.509,17.287,48.738,11.997,48.738"/>
	<path fill="#FCF6B4" d="M15.006,35.84H8.987c-0.291,0-0.529-0.23-0.529-0.519c0-0.286,0.238-0.519,0.529-0.519h6.019
		c0.294,0,0.529,0.232,0.529,0.519C15.535,35.609,15.3,35.84,15.006,35.84"/>
</g>
</svg>
