<?xml version="1.0" encoding="utf-8"?>
<!-- Generator: Adobe Illustrator 16.0.0, SVG Export Plug-In . SVG Version: 6.00 Build 0)  -->
<!DOCTYPE svg PUBLIC "-//W3C//DTD SVG 1.1//EN" "http://www.w3.org/Graphics/SVG/1.1/DTD/svg11.dtd">
<svg version="1.1" id="Layer_1" xmlns="http://www.w3.org/2000/svg" xmlns:xlink="http://www.w3.org/1999/xlink" x="0px" y="0px"
	 width="30.125px" height="59.875px" viewBox="0 0 30.125 59.875" enable-background="new 0 0 30.125 59.875" xml:space="preserve">
<g display="none">
	<path display="inline" fill="#4B3013" d="M11.828,6.889c-1.656,0-3.002-1.323-3.002-2.951c0-1.625,1.346-2.947,3.002-2.947
		c1.655,0,3,1.323,3,2.947C14.828,5.566,13.483,6.889,11.828,6.889 M11.828,2.028c-1.073,0-1.945,0.857-1.945,1.91
		c0,1.056,0.872,1.913,1.945,1.913s1.944-0.856,1.944-1.913C13.772,2.885,12.901,2.028,11.828,2.028"/>
	<path display="inline" fill="#4B3013" d="M11.828,23.648c-0.29,0-0.528-0.231-0.528-0.519V6.754c0-0.285,0.238-0.52,0.528-0.52
		c0.293,0,0.528,0.234,0.528,0.52v16.375C12.356,23.417,12.121,23.648,11.828,23.648"/>
	<path display="inline" fill="#4B3013" d="M11.828,23.648c-5.292,0-9.596-4.229-9.596-9.43c0-0.286,0.236-0.52,0.528-0.52h1.974
		c0.29,0,0.526,0.234,0.526,0.52c0,0.287-0.236,0.518-0.526,0.518H3.304c0.273,4.389,3.993,7.875,8.524,7.875
		c4.535,0,8.25-3.486,8.525-7.875h-1.402c-0.292,0-0.528-0.231-0.528-0.518c0-0.286,0.236-0.52,0.528-0.52h1.947
		c0.289,0,0.527,0.234,0.527,0.52C21.426,19.418,17.118,23.648,11.828,23.648"/>
	<path display="inline" fill="#4B3013" d="M14.837,10.749H8.818c-0.291,0-0.529-0.23-0.529-0.518c0-0.287,0.238-0.519,0.529-0.519
		h6.019c0.294,0,0.529,0.232,0.529,0.519C15.366,10.519,15.131,10.749,14.837,10.749"/>
</g>
<g display="none">
	<path display="inline" fill="#FCF6B4" d="M11.997,31.979c-1.656,0-3.002-1.323-3.002-2.951c0-1.624,1.346-2.947,3.002-2.947
		c1.655,0,3,1.323,3,2.947C14.997,30.656,13.652,31.979,11.997,31.979 M11.997,27.119c-1.073,0-1.945,0.856-1.945,1.909
		c0,1.056,0.872,1.913,1.945,1.913s1.944-0.857,1.944-1.913C13.941,27.976,13.07,27.119,11.997,27.119"/>
	<path display="inline" fill="#FCF6B4" d="M11.997,48.738c-0.29,0-0.528-0.231-0.528-0.52V31.845c0-0.285,0.238-0.52,0.528-0.52
		c0.293,0,0.528,0.234,0.528,0.52v16.374C12.525,48.507,12.29,48.738,11.997,48.738"/>
	<path display="inline" fill="#FCF6B4" d="M11.997,48.738c-5.292,0-9.596-4.229-9.596-9.43c0-0.285,0.236-0.52,0.528-0.52h1.974
		c0.29,0,0.526,0.234,0.526,0.52c0,0.287-0.236,0.518-0.526,0.518H3.473c0.273,4.389,3.993,7.875,8.524,7.875
		c4.535,0,8.25-3.486,8.525-7.875H19.12c-0.292,0-0.528-0.23-0.528-0.518c0-0.285,0.236-0.52,0.528-0.52h1.947
		c0.289,0,0.527,0.234,0.527,0.52C21.595,44.509,17.287,48.738,11.997,48.738"/>
	<path display="inline" fill="#FCF6B4" d="M15.006,35.84H8.987c-0.291,0-0.529-0.23-0.529-0.519c0-0.286,0.238-0.519,0.529-0.519
		h6.019c0.294,0,0.529,0.232,0.529,0.519C15.535,35.609,15.3,35.84,15.006,35.84"/>
</g>
<g display="none">
	<path display="inline" d="M-19.944,6.296h-1.948c-0.104-0.778-0.412-1.492-0.867-2.088l1.379-1.379
		c0.209-0.209,0.209-0.549,0-0.758l-0.081-0.081c-0.101-0.101-0.236-0.157-0.379-0.157c-0.144,0-0.278,0.056-0.379,0.157
		l-1.379,1.379c-0.596-0.455-1.31-0.763-2.088-0.867V0.554c0-0.295-0.241-0.536-0.536-0.536h-0.114c-0.295,0-0.536,0.24-0.536,0.536
		v1.948c-0.778,0.104-1.492,0.412-2.088,0.867l-1.379-1.379c-0.101-0.101-0.236-0.157-0.379-0.157c-0.144,0-0.278,0.056-0.379,0.157
		l-0.08,0.081c-0.102,0.102-0.157,0.236-0.157,0.379c0,0.144,0.056,0.278,0.157,0.379l1.379,1.379
		c-0.455,0.596-0.762,1.31-0.867,2.088h-1.948c-0.295,0-0.536,0.24-0.536,0.536v0.114c0,0.295,0.24,0.536,0.536,0.536h1.948
		c0.104,0.778,0.412,1.493,0.867,2.088l-1.378,1.378c-0.209,0.209-0.209,0.549,0,0.758l0.08,0.081
		c0.102,0.101,0.236,0.157,0.379,0.157c0.143,0,0.278-0.056,0.379-0.157l1.379-1.379c0.596,0.455,1.31,0.762,2.088,0.867v1.948
		c0,0.295,0.24,0.536,0.536,0.536h0.114c0.295,0,0.536-0.241,0.536-0.536v-1.948c0.778-0.105,1.492-0.412,2.088-0.867l1.379,1.379
		c0.101,0.101,0.235,0.157,0.379,0.157c0.143,0,0.278-0.056,0.379-0.157l0.081-0.081c0.209-0.209,0.209-0.549,0-0.758l-1.379-1.378
		c0.455-0.596,0.762-1.31,0.867-2.088h1.948c0.295,0,0.536-0.24,0.536-0.536V6.832C-19.408,6.536-19.649,6.296-19.944,6.296
		 M-21.855,6.748h1.911c0.046,0,0.084,0.038,0.084,0.084v0.114c0,0.046-0.038,0.084-0.084,0.084h-1.911
		c0.001-0.047,0.002-0.094,0.002-0.142S-21.854,6.794-21.855,6.748 M-21.7,11.387l-0.081,0.081c-0.021,0.021-0.047,0.025-0.06,0.025
		c-0.013,0-0.038-0.003-0.06-0.025l-1.352-1.353c0.069-0.064,0.135-0.131,0.2-0.2l1.353,1.353
		C-21.667,11.301-21.667,11.354-21.7,11.387 M-26.137,13.223c0,0.046-0.038,0.084-0.084,0.084h-0.114
		c-0.046,0-0.084-0.038-0.084-0.084v-1.911c0.047,0.001,0.094,0.002,0.141,0.002s0.095-0.001,0.142-0.002V13.223z M-30.658,11.468
		c-0.021,0.021-0.047,0.025-0.06,0.025c-0.013,0-0.039-0.003-0.06-0.025l-0.08-0.081c-0.033-0.033-0.033-0.086,0-0.119l1.352-1.353
		c0.064,0.069,0.131,0.135,0.2,0.2L-30.658,11.468z M-29.305,3.662c-0.069,0.065-0.136,0.131-0.2,0.2l-1.352-1.353
		c-0.022-0.021-0.025-0.047-0.025-0.06c0-0.013,0.003-0.039,0.025-0.06l0.08-0.08c0.021-0.022,0.047-0.025,0.06-0.025
		c0.013,0,0.038,0.003,0.06,0.025 M-26.42,0.554c0-0.046,0.038-0.084,0.084-0.084h0.114c0.046,0,0.084,0.038,0.084,0.084v1.911
		c-0.046-0.001-0.094-0.002-0.141-0.002s-0.094,0.001-0.141,0.002V0.554z M-32.698,6.832c0-0.046,0.038-0.084,0.084-0.084h1.911
		c-0.001,0.047-0.002,0.094-0.002,0.141s0.001,0.095,0.002,0.142h-1.911c-0.046,0-0.084-0.038-0.084-0.084V6.832z M-26.279,10.863
		c-2.191,0-3.975-1.783-3.975-3.975c0-2.191,1.783-3.975,3.975-3.975s3.975,1.783,3.975,3.975
		C-22.304,9.081-24.087,10.863-26.279,10.863 M-21.84,2.285c0.013,0,0.038,0.003,0.06,0.025l0.081,0.08
		c0.033,0.033,0.033,0.087,0,0.12l-1.353,1.353c-0.064-0.069-0.131-0.135-0.2-0.2L-21.9,2.31
		C-21.878,2.288-21.853,2.285-21.84,2.285"/>
	<path display="inline" d="M-26.278,3.198L-26.278,3.198c-2.036,0-3.691,1.656-3.691,3.691c0,2.035,1.656,3.691,3.691,3.691
		c2.036,0,3.691-1.656,3.691-3.691C-22.587,4.854-24.243,3.198-26.278,3.198 M-26.504,3.657v2.352
		c-0.083,0.021-0.161,0.054-0.233,0.096l-1.666-1.66C-27.887,3.996-27.228,3.707-26.504,3.657 M-27.058,6.423
		c-0.044,0.074-0.079,0.155-0.101,0.24h-2.352c0.05-0.724,0.339-1.383,0.788-1.899L-27.058,6.423z M-27.159,7.115
		c0.021,0.084,0.055,0.164,0.098,0.236l-1.662,1.662c-0.449-0.516-0.738-1.175-0.788-1.898H-27.159z M-26.504,10.121
		c-0.724-0.05-1.383-0.339-1.899-0.788l1.662-1.662c0.073,0.043,0.152,0.077,0.237,0.099V10.121z M-26.707,6.889
		c0-0.236,0.191-0.428,0.428-0.428s0.428,0.191,0.428,0.428c0,0.236-0.192,0.428-0.428,0.428S-26.707,7.125-26.707,6.889
		 M-24.154,4.445l-1.662,1.662c-0.073-0.043-0.152-0.077-0.236-0.098V3.657C-25.329,3.707-24.67,3.996-24.154,4.445 M-26.053,10.121
		V7.769c0.086-0.022,0.168-0.057,0.243-0.102l1.664,1.658C-24.663,9.778-25.325,10.07-26.053,10.121 M-25.493,7.345
		c0.042-0.071,0.074-0.148,0.095-0.23h2.352c-0.05,0.72-0.336,1.375-0.78,1.89L-25.493,7.345z M-25.398,6.663
		c-0.022-0.084-0.055-0.164-0.099-0.237l1.662-1.662c0.449,0.516,0.738,1.175,0.788,1.899H-25.398z"/>
</g>
<g display="none">
	<path display="inline" fill="#FCF6B4" d="M21.911,37.455h-2.978c-0.159-1.188-0.632-2.28-1.326-3.193l2.111-2.108
		c0.314-0.319,0.314-0.84,0-1.159l-0.123-0.123c-0.155-0.154-0.36-0.24-0.584-0.24c-0.216,0-0.421,0.086-0.577,0.24l-2.109,2.109
		c-0.914-0.697-2.003-1.166-3.194-1.326v-2.979c0-0.453-0.368-0.82-0.82-0.82h-0.175c-0.449,0-0.82,0.367-0.82,0.82v2.979
		c-1.188,0.16-2.28,0.629-3.191,1.326l-2.109-2.109c-0.155-0.154-0.361-0.24-0.58-0.24c-0.22,0-0.425,0.086-0.58,0.24l-0.122,0.123
		c-0.155,0.154-0.242,0.361-0.242,0.58s0.086,0.425,0.242,0.579l2.106,2.108c-0.694,0.913-1.166,2.006-1.324,3.193H2.535
		c-0.453,0-0.819,0.369-0.819,0.821v0.173c0,0.453,0.366,0.821,0.819,0.821h2.981c0.159,1.188,0.63,2.282,1.324,3.193l-2.106,2.109
		c-0.322,0.319-0.322,0.839,0,1.158l0.122,0.124c0.155,0.154,0.36,0.24,0.58,0.24c0.219,0,0.424-0.086,0.58-0.24l2.109-2.109
		c0.912,0.697,2.004,1.165,3.191,1.326v2.98c0,0.45,0.371,0.818,0.82,0.818h0.175c0.452,0,0.82-0.368,0.82-0.818v-2.98
		c1.191-0.161,2.282-0.629,3.194-1.326l2.109,2.109c0.156,0.154,0.361,0.24,0.577,0.24c0.218,0,0.429-0.086,0.584-0.24l0.123-0.124
		c0.314-0.319,0.314-0.839,0-1.158l-2.111-2.109c0.694-0.911,1.167-2.005,1.326-3.193h2.978c0.454,0,0.821-0.368,0.821-0.821v-0.173
		C22.732,37.824,22.365,37.455,21.911,37.455 M18.992,38.147h2.919c0.072,0,0.132,0.058,0.132,0.129v0.173
		c0,0.073-0.06,0.129-0.132,0.129h-2.919c0-0.071,0.003-0.143,0.003-0.215S18.992,38.22,18.992,38.147 M19.229,45.244l-0.122,0.123
		c-0.033,0.033-0.071,0.037-0.096,0.037c-0.017,0-0.054-0.004-0.087-0.037l-2.072-2.07c0.106-0.098,0.206-0.199,0.307-0.305
		l2.07,2.069C19.279,45.111,19.279,45.193,19.229,45.244 M12.44,48.053c0,0.07-0.058,0.127-0.129,0.127h-0.175
		c-0.068,0-0.127-0.057-0.127-0.127v-2.924c0.072,0.004,0.145,0.005,0.216,0.005c0.073,0,0.145-0.001,0.216-0.005V48.053z
		 M5.527,45.367c-0.033,0.033-0.072,0.037-0.091,0.037c-0.02,0-0.059-0.004-0.092-0.037l-0.122-0.123
		c-0.053-0.051-0.053-0.133,0-0.183l2.068-2.069c0.097,0.105,0.199,0.207,0.305,0.305L5.527,45.367z M7.595,33.429
		c-0.106,0.099-0.208,0.198-0.305,0.306l-2.068-2.07c-0.034-0.031-0.038-0.07-0.038-0.09c0-0.021,0.004-0.059,0.038-0.092
		l0.122-0.123c0.034-0.033,0.073-0.037,0.092-0.037c0.019,0,0.058,0.004,0.091,0.037 M12.009,28.676
		c0-0.072,0.059-0.131,0.127-0.131h0.175c0.072,0,0.129,0.059,0.129,0.131v2.921c-0.071-0.002-0.143-0.003-0.216-0.003
		c-0.074,0-0.144,0.001-0.216,0.003V28.676z M2.407,38.276c0-0.071,0.059-0.129,0.128-0.129h2.923
		c-0.003,0.072-0.003,0.144-0.003,0.216s0,0.144,0.003,0.215H2.535c-0.07,0-0.128-0.056-0.128-0.129V38.276z M12.225,44.443
		c-3.354,0-6.078-2.729-6.078-6.08s2.725-6.08,6.078-6.08c3.352,0,6.077,2.729,6.077,6.08S15.576,44.443,12.225,44.443
		 M19.012,31.322c0.024,0,0.063,0.004,0.096,0.037l0.122,0.123c0.05,0.051,0.05,0.132,0,0.184l-2.07,2.068
		c-0.101-0.107-0.2-0.207-0.307-0.306l2.072-2.069C18.958,31.326,18.995,31.322,19.012,31.322"/>
	<path display="inline" fill="#FCF6B4" d="M12.225,32.718L12.225,32.718c-3.114,0-5.646,2.532-5.646,5.646s2.531,5.646,5.646,5.646
		c3.113,0,5.645-2.533,5.645-5.646S15.338,32.718,12.225,32.718 M11.878,33.42v3.598c-0.125,0.031-0.245,0.082-0.355,0.146
		l-2.548-2.539C9.766,33.938,10.773,33.497,11.878,33.42 M11.031,37.65c-0.066,0.113-0.119,0.237-0.151,0.367H7.281
		c0.076-1.107,0.52-2.115,1.205-2.904L11.031,37.65z M10.88,38.708c0.032,0.13,0.082,0.251,0.148,0.362l-2.542,2.542
		c-0.685-0.789-1.129-1.797-1.205-2.904H10.88z M11.878,43.307c-1.108-0.077-2.116-0.519-2.903-1.205l2.542-2.543
		c0.112,0.066,0.234,0.117,0.362,0.149V43.307z M11.57,38.363c0-0.361,0.292-0.655,0.655-0.655c0.361,0,0.656,0.294,0.656,0.655
		s-0.294,0.654-0.656,0.654C11.862,39.018,11.57,38.725,11.57,38.363 M15.474,34.625l-2.544,2.543
		c-0.11-0.067-0.231-0.117-0.36-0.15V33.42C13.678,33.497,14.685,33.938,15.474,34.625 M12.569,43.307v-3.599
		c0.134-0.033,0.257-0.085,0.373-0.155l2.545,2.537C14.695,42.782,13.681,43.229,12.569,43.307 M13.427,39.061
		c0.063-0.108,0.111-0.228,0.145-0.353h3.593c-0.072,1.103-0.511,2.104-1.192,2.893L13.427,39.061z M13.571,38.018
		c-0.033-0.129-0.082-0.25-0.15-0.361l2.54-2.543c0.687,0.789,1.131,1.797,1.203,2.904H13.571z"/>
</g>
<g display="none">
	<path display="inline" fill="#4B3013" d="M21.911,12.431h-2.978c-0.159-1.188-0.632-2.28-1.326-3.193l2.111-2.108
		c0.314-0.319,0.314-0.84,0-1.159l-0.123-0.123c-0.155-0.154-0.36-0.24-0.584-0.24c-0.216,0-0.421,0.086-0.577,0.24l-2.109,2.109
		c-0.914-0.697-2.003-1.166-3.194-1.326V3.651c0-0.453-0.368-0.82-0.82-0.82h-0.175c-0.449,0-0.82,0.367-0.82,0.82V6.63
		c-1.188,0.16-2.28,0.629-3.191,1.326L6.016,5.847c-0.155-0.154-0.361-0.24-0.58-0.24c-0.22,0-0.425,0.086-0.58,0.24L4.734,5.97
		C4.579,6.124,4.492,6.331,4.492,6.55s0.086,0.425,0.242,0.579L6.84,9.237c-0.694,0.913-1.166,2.006-1.324,3.193H2.535
		c-0.453,0-0.819,0.369-0.819,0.821v0.173c0,0.453,0.366,0.821,0.819,0.821h2.981c0.159,1.188,0.63,2.282,1.324,3.193l-2.106,2.109
		c-0.322,0.319-0.322,0.839,0,1.158l0.122,0.124c0.155,0.154,0.36,0.24,0.58,0.24c0.219,0,0.424-0.086,0.58-0.24l2.109-2.109
		c0.912,0.697,2.004,1.165,3.191,1.326v2.98c0,0.45,0.371,0.818,0.82,0.818h0.175c0.452,0,0.82-0.368,0.82-0.818v-2.98
		c1.191-0.161,2.282-0.629,3.194-1.326l2.109,2.109c0.156,0.154,0.361,0.24,0.577,0.24c0.218,0,0.429-0.086,0.584-0.24l0.123-0.124
		c0.314-0.319,0.314-0.839,0-1.158l-2.111-2.109c0.694-0.911,1.167-2.005,1.326-3.193h2.978c0.454,0,0.821-0.368,0.821-0.821v-0.173
		C22.732,12.8,22.365,12.431,21.911,12.431 M18.992,13.123h2.919c0.072,0,0.132,0.058,0.132,0.129v0.173
		c0,0.073-0.06,0.129-0.132,0.129h-2.919c0-0.071,0.003-0.143,0.003-0.215S18.992,13.195,18.992,13.123 M19.229,20.22l-0.122,0.123
		c-0.033,0.033-0.071,0.037-0.096,0.037c-0.017,0-0.054-0.004-0.087-0.037l-2.072-2.07c0.106-0.098,0.206-0.199,0.307-0.305
		l2.07,2.069C19.279,20.087,19.279,20.169,19.229,20.22 M12.44,23.028c0,0.07-0.058,0.127-0.129,0.127h-0.175
		c-0.068,0-0.127-0.057-0.127-0.127v-2.924c0.072,0.004,0.145,0.005,0.216,0.005c0.073,0,0.145-0.001,0.216-0.005V23.028z
		 M5.527,20.343c-0.033,0.033-0.072,0.037-0.091,0.037c-0.02,0-0.059-0.004-0.092-0.037L5.222,20.22
		c-0.053-0.051-0.053-0.133,0-0.183l2.068-2.069c0.097,0.105,0.199,0.207,0.305,0.305L5.527,20.343z M7.595,8.404
		C7.489,8.503,7.387,8.603,7.29,8.71L5.222,6.64c-0.034-0.031-0.038-0.07-0.038-0.09c0-0.021,0.004-0.059,0.038-0.092l0.122-0.123
		c0.034-0.033,0.073-0.037,0.092-0.037c0.019,0,0.058,0.004,0.091,0.037 M12.009,3.651c0-0.072,0.059-0.131,0.127-0.131h0.175
		c0.072,0,0.129,0.059,0.129,0.131v2.921c-0.071-0.002-0.143-0.003-0.216-0.003c-0.074,0-0.144,0.001-0.216,0.003V3.651z
		 M2.407,13.252c0-0.071,0.059-0.129,0.128-0.129h2.923c-0.003,0.072-0.003,0.144-0.003,0.216s0,0.144,0.003,0.215H2.535
		c-0.07,0-0.128-0.056-0.128-0.129V13.252z M12.225,19.419c-3.354,0-6.078-2.729-6.078-6.08s2.725-6.08,6.078-6.08
		c3.352,0,6.077,2.729,6.077,6.08S15.576,19.419,12.225,19.419 M19.012,6.298c0.024,0,0.063,0.004,0.096,0.037l0.122,0.123
		c0.05,0.051,0.05,0.132,0,0.184l-2.07,2.068c-0.101-0.107-0.2-0.207-0.307-0.306l2.072-2.069
		C18.958,6.302,18.995,6.298,19.012,6.298"/>
	<path display="inline" fill="#4B3013" d="M12.225,7.693L12.225,7.693c-3.114,0-5.646,2.532-5.646,5.646s2.531,5.646,5.646,5.646
		c3.113,0,5.645-2.533,5.645-5.646S15.338,7.693,12.225,7.693 M11.878,8.396v3.598c-0.125,0.031-0.245,0.082-0.355,0.146
		L8.975,9.601C9.766,8.913,10.773,8.473,11.878,8.396 M11.031,12.626c-0.066,0.113-0.119,0.237-0.151,0.367H7.281
		c0.076-1.107,0.52-2.115,1.205-2.904L11.031,12.626z M10.88,13.684c0.032,0.13,0.082,0.251,0.148,0.362l-2.542,2.542
		c-0.685-0.789-1.129-1.797-1.205-2.904H10.88z M11.878,18.282c-1.108-0.077-2.116-0.519-2.903-1.205l2.542-2.543
		c0.112,0.066,0.234,0.117,0.362,0.149V18.282z M11.57,13.339c0-0.361,0.292-0.655,0.655-0.655c0.361,0,0.656,0.294,0.656,0.655
		s-0.294,0.654-0.656,0.654C11.862,13.993,11.57,13.7,11.57,13.339 M15.474,9.601l-2.544,2.543c-0.11-0.067-0.231-0.117-0.36-0.15
		V8.396C13.678,8.473,14.685,8.913,15.474,9.601 M12.569,18.282v-3.599c0.134-0.033,0.257-0.085,0.373-0.155l2.545,2.537
		C14.695,17.758,13.681,18.205,12.569,18.282 M13.427,14.036c0.063-0.108,0.111-0.228,0.145-0.353h3.593
		c-0.072,1.103-0.511,2.104-1.192,2.893L13.427,14.036z M13.571,12.993c-0.033-0.129-0.082-0.25-0.15-0.361l2.54-2.543
		c0.687,0.789,1.131,1.797,1.203,2.904H13.571z"/>
</g>
<path fill="#4B3013" d="M29.108,14.664c-0.101-0.158-0.272-0.237-0.441-0.203l-4.019,0.831v-1.195c0-0.28-0.199-0.506-0.445-0.506
	h-0.611v-1.987c0-0.279-0.2-0.507-0.447-0.507h-2.748c-0.244,0-0.444,0.228-0.444,0.507v4.997l-0.639,2.167h-0.563V15.82
	c0-0.278-0.198-0.505-0.444-0.505H16.85v-4.525c0-0.279-0.202-0.505-0.445-0.505h-2.723c-0.145,0-0.281,0.08-0.365,0.214
	l-3.025,4.864V8.477c0-0.278-0.198-0.504-0.445-0.504H1.998c-0.246,0-0.445,0.226-0.445,0.504v3.856
	c0,0.278,0.199,0.504,0.445,0.504h1.045v3.34H1.37c-0.248,0-0.446,0.227-0.446,0.505s0.198,0.505,0.446,0.505h0.455l1.121,5.42
	c0.218,1.163,1.135,2.004,2.182,2.004h17.766c0.974,0,1.865-0.557,2.385-1.488c0.004-0.008,0.011-0.018,0.016-0.027l3.845-7.894
	C29.22,15.03,29.208,14.822,29.108,14.664 M23.756,15.476l-2.912,0.601v-1.476h2.912V15.476z M20.844,12.109h1.855v1.481h-1.855
	V12.109z M17.859,18.767h-2.915v-2.44h2.915V18.767z M14.499,15.315c-0.245,0-0.445,0.227-0.445,0.505v2.947h-1.967v-1.638
	l2.891-4.292h0.977v2.478H14.499z M13.913,11.296h2.041v0.531h-1.196c-0.001,0-0.005,0-0.007,0c-0.009,0-0.016,0-0.024,0.001
	c-0.009,0-0.015,0.001-0.021,0.002c-0.009,0.002-0.015,0.002-0.02,0.003c-0.01,0.001-0.019,0.004-0.025,0.005
	c-0.005,0.001-0.011,0.003-0.018,0.004c-0.008,0.003-0.018,0.005-0.026,0.01c-0.005,0-0.008,0.003-0.015,0.005
	c-0.007,0.003-0.016,0.008-0.022,0.011c-0.005,0.003-0.013,0.006-0.02,0.01c-0.006,0.003-0.013,0.008-0.019,0.011
	c-0.008,0.005-0.016,0.009-0.02,0.014c-0.007,0.004-0.011,0.007-0.018,0.011c-0.006,0.005-0.014,0.011-0.019,0.017
	c-0.006,0.005-0.01,0.009-0.016,0.014c-0.005,0.006-0.012,0.012-0.019,0.017c-0.003,0.006-0.01,0.012-0.016,0.018
	c-0.003,0.003-0.006,0.011-0.013,0.016c-0.007,0.006-0.009,0.016-0.015,0.021c-0.003,0.002-0.004,0.005-0.004,0.007l-2.986,4.426
	h-0.713L13.913,11.296z M3.934,15.151h2.265c0.247,0,0.446-0.226,0.446-0.505c0-0.279-0.199-0.505-0.446-0.505H3.934v-1.303h4.494
	c0.248,0,0.449-0.226,0.449-0.504c0-0.281-0.201-0.506-0.449-0.506H2.444V8.984H9.4v9.014c0,0.281,0.199,0.507,0.446,0.507
	c0.248,0,0.445-0.226,0.445-0.507v-0.534h0.903v1.304H7.021l-0.637-2.233c0-0.001-0.002-0.001-0.002-0.003v-0.003
	c0,0-0.001,0-0.001-0.002c-0.006-0.023-0.016-0.044-0.023-0.067c-0.001-0.002-0.001-0.006-0.004-0.009
	c-0.009-0.02-0.021-0.04-0.032-0.061c-0.002-0.003-0.006-0.008-0.008-0.011c-0.011-0.018-0.024-0.036-0.04-0.051
	c0-0.002,0-0.002,0-0.002c-0.016-0.016-0.031-0.032-0.049-0.046c-0.001-0.002-0.005-0.003-0.008-0.008
	c-0.017-0.012-0.035-0.024-0.051-0.036c-0.004-0.002-0.007-0.003-0.008-0.004c-0.018-0.01-0.037-0.019-0.056-0.025
	c-0.002-0.001-0.003-0.002-0.006-0.004c-0.019-0.006-0.039-0.011-0.06-0.016c-0.004,0-0.009-0.002-0.013-0.002
	c-0.021-0.003-0.042-0.006-0.064-0.006H3.934V15.151z M24.52,22.596c-0.358,0.631-0.964,1.007-1.626,1.007H5.127
	c-0.629,0-1.18-0.507-1.311-1.206c0-0.004,0-0.009-0.001-0.014L3.632,21.5h19.809c0.247,0,0.447-0.225,0.447-0.504
	c0-0.28-0.2-0.506-0.447-0.506H3.424l-0.683-3.303h2.894l0.639,2.239c0.059,0.208,0.231,0.35,0.424,0.35h12.937
	c0.191,0,0.362-0.139,0.424-0.347l0.677-2.303l7.168-1.48L24.52,22.596z M3.484,9.586h1.347v1.525H3.484V9.586z M5.525,9.586h1.346
	v1.525H5.525V9.586z M8.912,11.111H7.566V9.586h1.346V11.111z"/>
<path fill="#FCF6B4" d="M29.413,44.259c-0.102-0.16-0.274-0.238-0.444-0.203l-4.051,0.836v-1.204c0-0.282-0.2-0.51-0.448-0.51
	h-0.616v-2.003c0-0.281-0.202-0.511-0.451-0.511h-2.769c-0.247,0-0.448,0.229-0.448,0.511v5.037l-0.644,2.183h-0.566v-2.97
	c0-0.28-0.201-0.509-0.448-0.509h-1.469v-4.561c0-0.281-0.203-0.509-0.448-0.509h-2.744c-0.146,0-0.284,0.08-0.368,0.216
	l-3.048,4.901v-6.939c0-0.28-0.2-0.508-0.449-0.508H2.091c-0.249,0-0.449,0.228-0.449,0.508v3.887c0,0.28,0.2,0.508,0.449,0.508
	h1.053v3.366H1.458c-0.25,0-0.45,0.229-0.45,0.509c0,0.281,0.2,0.51,0.45,0.51h0.458l1.13,5.462c0.22,1.171,1.144,2.02,2.199,2.02
	H23.15c0.981,0,1.879-0.561,2.402-1.498c0.005-0.009,0.011-0.019,0.016-0.029l3.875-7.955
	C29.525,44.628,29.514,44.419,29.413,44.259 M24.02,45.078l-2.936,0.605v-1.488h2.936V45.078z M21.084,41.684h1.87v1.494h-1.87
	V41.684z M18.076,48.395h-2.938v-2.458h2.938V48.395z M14.69,44.916c-0.247,0-0.449,0.229-0.449,0.509v2.97h-1.983v-1.651
	l2.914-4.324h0.985v2.497H14.69z M14.1,40.864h2.058v0.537H14.95c-0.001,0-0.005,0-0.007,0c-0.009,0-0.016,0-0.024,0
	c-0.008,0-0.015,0.002-0.021,0.002c-0.009,0.003-0.015,0.003-0.02,0.004c-0.01,0.001-0.019,0.004-0.025,0.006
	c-0.005,0.001-0.011,0.003-0.019,0.005c-0.007,0.003-0.017,0.005-0.025,0.01c-0.005,0-0.009,0.003-0.015,0.005
	c-0.008,0.002-0.016,0.007-0.023,0.011c-0.005,0.004-0.013,0.006-0.02,0.01c-0.006,0.004-0.013,0.009-0.019,0.011
	c-0.008,0.005-0.016,0.01-0.021,0.015c-0.006,0.005-0.011,0.007-0.017,0.012s-0.015,0.012-0.02,0.018
	c-0.006,0.005-0.01,0.008-0.016,0.013c-0.005,0.007-0.012,0.011-0.019,0.018c-0.003,0.006-0.01,0.012-0.016,0.018
	c-0.003,0.004-0.006,0.011-0.013,0.018c-0.007,0.006-0.01,0.014-0.016,0.021c-0.002,0.002-0.003,0.005-0.003,0.007l-3.009,4.46
	h-0.719L14.1,40.864z M4.042,44.75h2.282c0.249,0,0.449-0.229,0.449-0.509c0-0.281-0.201-0.51-0.449-0.51H4.042v-1.313h4.529
	c0.25,0,0.452-0.228,0.452-0.508c0-0.282-0.203-0.51-0.452-0.51H2.541v-2.867h7.011v9.084c0,0.283,0.2,0.512,0.449,0.512
	c0.25,0,0.449-0.229,0.449-0.512v-0.537h0.91v1.313H7.154l-0.642-2.251c0-0.001-0.001-0.002-0.001-0.002v-0.005
	c0,0-0.002,0-0.002-0.001c-0.006-0.023-0.016-0.045-0.023-0.068c-0.001-0.002-0.001-0.006-0.004-0.008
	c-0.01-0.021-0.021-0.041-0.033-0.061c-0.001-0.004-0.006-0.009-0.008-0.012C6.429,45.97,6.416,45.95,6.4,45.937
	c0-0.003,0-0.003,0-0.003c-0.016-0.017-0.031-0.031-0.049-0.046c-0.001-0.002-0.005-0.005-0.008-0.009
	c-0.018-0.013-0.035-0.023-0.051-0.036c-0.004-0.002-0.007-0.003-0.009-0.003c-0.018-0.01-0.037-0.02-0.056-0.027
	c-0.002,0-0.003-0.001-0.006-0.002c-0.02-0.008-0.04-0.013-0.061-0.018c-0.004,0-0.01-0.002-0.013-0.002
	c-0.021-0.002-0.043-0.006-0.065-0.006H4.042V44.75z M24.789,52.253c-0.361,0.636-0.972,1.015-1.639,1.015H5.245
	c-0.634,0-1.189-0.51-1.32-1.215c0-0.005,0-0.01-0.002-0.015L3.738,51.15h19.964c0.249,0,0.451-0.228,0.451-0.509
	c0-0.282-0.202-0.509-0.451-0.509H3.528L2.84,46.804h2.916L6.4,49.06c0.06,0.21,0.233,0.353,0.427,0.353h13.039
	c0.192,0,0.365-0.141,0.427-0.35l0.682-2.321l7.224-1.491L24.789,52.253z M3.589,39.141h1.357v1.538H3.589V39.141z M5.646,39.141
	h1.356v1.538H5.646V39.141z M9.06,40.679H7.703v-1.538H9.06V40.679z"/>
<g display="none">
	<defs>
		<rect id="SVGID_1_" x="1.275" y="4.041" width="22.45" height="15.751"/>
	</defs>
	<clipPath id="SVGID_2_" display="inline">
		<use xlink:href="#SVGID_1_"  overflow="visible"/>
	</clipPath>
	<path display="inline" clip-path="url(#SVGID_2_)" fill="#4B3013" d="M23.624,8.86L18.88,4.114c-0.109-0.107-0.281-0.107-0.389,0
		L17.4,5.202c-0.054,0.053-0.08,0.123-0.08,0.194c0,0.074,0.026,0.143,0.08,0.193l0.479,0.482l-1.135,1.136l-4.244,0.506
		L8.259,7.208l-1.14-1.14L7.599,5.59c0.05-0.051,0.081-0.119,0.081-0.193c0-0.072-0.029-0.142-0.081-0.194L6.507,4.115
		c-0.106-0.107-0.28-0.107-0.387,0L1.355,8.861c-0.107,0.106-0.107,0.28,0,0.385l1.087,1.091c0.011,0.011,0.022,0.021,0.034,0.031
		l2.266,3.569c0.128,0.239,0.364,0.657,0.476,0.768l4.741,4.742c0.218,0.218,0.501,0.345,0.779,0.345
		c0.216,0,0.416-0.079,0.559-0.223l0.07-0.068l0.003,0.003c0.28,0.28,0.752,0.327,1.128,0.125c0.377,0.202,0.851,0.155,1.128-0.124
		l0.004-0.005l0.07,0.068c0.142,0.144,0.341,0.222,0.56,0.222c0.275,0,0.56-0.125,0.778-0.344l4.742-4.741l2.694-4.314l1.147-1.146
		c0.051-0.051,0.08-0.12,0.08-0.192C23.704,8.979,23.676,8.911,23.624,8.86 M18.761,5.065c0.212,0,0.382,0.173,0.382,0.384
		c0,0.212-0.171,0.385-0.382,0.385c-0.214,0-0.388-0.174-0.388-0.385S18.546,5.066,18.761,5.065 M5.808,5.415
		c0.043-0.207,0.25-0.339,0.458-0.296c0.206,0.044,0.34,0.249,0.295,0.454C6.518,5.78,6.313,5.914,6.106,5.871
		C5.899,5.826,5.765,5.62,5.808,5.415 M15.383,17.423c0.065,0.069,0.095,0.142,0.038,0.198l-0.57,0.57
		c-0.017,0.017-0.045,0.022-0.063,0.022c-0.048,0-0.097-0.024-0.136-0.063l-0.688-0.696l-2.111-2.108l-0.585,0.583
		c0.002,0.001,0.003,0.003,0.005,0.004l2.269,2.27c0.021,0.022,0.076,0.086,0.028,0.132c0,0-0.457,0.459-0.552,0.552
		c-0.094,0.095-0.198-0.04-0.198-0.04l-2.338-2.34H9.328c0.008,0.013,0.018,0.025,0.03,0.037l1.745,1.744
		c0.057,0.056,0.122,0.131,0.067,0.185l-0.454,0.452c-0.046,0.045-0.121,0.03-0.191-0.042l-4.732-4.73
		c-0.141-0.203-1.288-2.139-2.102-3.518l3.387-3.387l0.734,0.747c0.048,0.049,0.112,0.078,0.18,0.083l1.884,0.203
		C9.66,8.514,9.542,8.851,9.588,9.208l0.13,1.024c0.078,0.598,0.588,1.038,1.153,0.97l1.238-0.116l4.065,4.095
		c0.064,0.066,0.064,0.174,0,0.239l-0.655,0.657c-0.064,0.063-0.177,0.063-0.24,0l-2.594-2.595v1.243L15.383,17.423z M19.207,14.156
		l-3.001,3.002l-0.267-0.283l0.842-0.846c0.573-0.572,0.4-1.155-0.366-1.919l-3.294-3.248c0,0,0.18-0.153,0.191-0.163l-0.184-0.601
		l-2.338,0.214c-0.006,0-0.031,0-0.038,0.001c-0.085,0-0.164-0.085-0.178-0.193L10.443,9.1c-0.009-0.065,0.006-0.13,0.043-0.177
		c0.019-0.023,0.05-0.052,0.096-0.06l6.43-0.782c0.068-0.004,0.132-0.034,0.179-0.082l0.735-0.747l3.387,3.387
		C20.499,12.019,19.352,13.953,19.207,14.156"/>
</g>
<g display="none">
	<defs>
		<rect id="SVGID_3_" x="1.275" y="30.915" width="22.45" height="15.752"/>
	</defs>
	<clipPath id="SVGID_4_" display="inline">
		<use xlink:href="#SVGID_3_"  overflow="visible"/>
	</clipPath>
	<path display="inline" clip-path="url(#SVGID_4_)" fill="#FCF6B4" d="M23.624,35.734l-4.744-4.746
		c-0.109-0.106-0.281-0.106-0.389,0L17.4,32.076c-0.054,0.053-0.08,0.122-0.08,0.194c0,0.074,0.026,0.143,0.08,0.193l0.479,0.482
		l-1.135,1.136l-4.244,0.506l-4.242-0.505l-1.14-1.14l0.479-0.479c0.05-0.052,0.081-0.119,0.081-0.193
		c0-0.072-0.029-0.142-0.081-0.194l-1.091-1.088c-0.106-0.107-0.28-0.107-0.387,0l-4.765,4.746c-0.107,0.106-0.107,0.279,0,0.385
		l1.087,1.092c0.011,0.01,0.022,0.021,0.034,0.03l2.266,3.569c0.128,0.238,0.364,0.656,0.476,0.768l4.741,4.742
		c0.218,0.219,0.501,0.345,0.779,0.345c0.216,0,0.416-0.079,0.559-0.224l0.07-0.067l0.003,0.003c0.28,0.28,0.752,0.328,1.128,0.125
		c0.377,0.203,0.851,0.155,1.128-0.123l0.004-0.006l0.07,0.068c0.142,0.145,0.341,0.223,0.56,0.223c0.275,0,0.56-0.125,0.778-0.344
		l4.742-4.741l2.694-4.313l1.147-1.146c0.051-0.052,0.08-0.12,0.08-0.193C23.704,35.854,23.676,35.786,23.624,35.734 M18.761,31.939
		c0.212,0,0.382,0.173,0.382,0.384c0,0.212-0.171,0.385-0.382,0.385c-0.214,0-0.388-0.174-0.388-0.385S18.546,31.94,18.761,31.939
		 M5.808,32.289c0.043-0.206,0.25-0.339,0.458-0.296c0.206,0.044,0.34,0.248,0.295,0.453c-0.043,0.208-0.248,0.342-0.455,0.299
		C5.899,32.7,5.765,32.495,5.808,32.289 M15.383,44.298c0.065,0.068,0.095,0.142,0.038,0.197l-0.57,0.57
		c-0.017,0.017-0.045,0.022-0.063,0.022c-0.048,0-0.097-0.024-0.136-0.063l-0.688-0.696l-2.111-2.107l-0.585,0.582
		c0.002,0.002,0.003,0.004,0.005,0.005l2.269,2.27c0.021,0.022,0.076,0.086,0.028,0.132c0,0-0.457,0.459-0.552,0.553
		c-0.094,0.095-0.198-0.04-0.198-0.04l-2.338-2.34H9.328c0.008,0.013,0.018,0.025,0.03,0.036l1.745,1.744
		c0.057,0.057,0.122,0.131,0.067,0.186L10.716,45.8c-0.046,0.046-0.121,0.031-0.191-0.041l-4.732-4.73
		c-0.141-0.203-1.288-2.139-2.102-3.518l3.387-3.387l0.734,0.746c0.048,0.049,0.112,0.078,0.18,0.082l1.884,0.203
		c-0.217,0.233-0.335,0.57-0.289,0.927l0.13,1.024c0.078,0.598,0.588,1.037,1.153,0.969l1.238-0.115l4.065,4.095
		c0.064,0.066,0.064,0.174,0,0.239l-0.655,0.656c-0.064,0.063-0.177,0.063-0.24,0l-2.594-2.595v1.243L15.383,44.298z M19.207,41.03
		l-3.001,3.003l-0.267-0.283l0.842-0.847c0.573-0.571,0.4-1.154-0.366-1.919l-3.294-3.247c0,0,0.18-0.154,0.191-0.163l-0.184-0.601
		l-2.338,0.215c-0.006,0-0.031,0-0.038,0.001c-0.085,0-0.164-0.085-0.178-0.192l-0.131-1.022c-0.009-0.065,0.006-0.13,0.043-0.177
		c0.019-0.023,0.05-0.053,0.096-0.061l6.43-0.782c0.068-0.004,0.132-0.034,0.179-0.081l0.735-0.748l3.387,3.387
		C20.499,38.894,19.352,40.827,19.207,41.03"/>
</g>
<g display="none">
	<defs>
		<rect id="SVGID_5_" x="1.41" y="26.733" width="22.181" height="22.348"/>
	</defs>
	<clipPath id="SVGID_6_" display="inline">
		<use xlink:href="#SVGID_5_"  overflow="visible"/>
	</clipPath>
	<path display="inline" clip-path="url(#SVGID_6_)" fill="#FCF6B4" stroke="#FBF6B5" stroke-width="0.5" stroke-miterlimit="10" d="
		M13.905,42.844c-0.354,0-0.689,0.077-1.008,0.235c-1.133,0.554-1.6,1.927-1.045,3.06c0.389,0.79,1.175,1.28,2.055,1.28
		c0.352,0,0.688-0.078,1.006-0.234c1.133-0.558,1.602-1.929,1.045-3.063C15.571,43.334,14.784,42.844,13.905,42.844 M14.688,46.727
		c-0.246,0.119-0.51,0.181-0.781,0.181c-0.686,0-1.295-0.38-1.596-0.992c-0.432-0.88-0.067-1.948,0.813-2.379
		c0.244-0.12,0.51-0.183,0.781-0.183c0.682,0,1.293,0.382,1.596,0.995C15.933,45.227,15.569,46.293,14.688,46.727"/>
	<path display="inline" clip-path="url(#SVGID_6_)" fill="#FCF6B4" stroke="#FBF6B5" stroke-width="0.5" stroke-miterlimit="10" d="
		M23.567,40.386c-0.059-0.127-0.215-0.179-0.338-0.116l-1.738,0.852l-3.434-6.996c-0.031-0.062-0.084-0.108-0.146-0.13
		c-0.066-0.021-0.139-0.017-0.197,0.013l-1.473,0.724l-3.587-7.302c-0.18-0.368-0.545-0.595-0.952-0.595
		c-0.163,0-0.32,0.036-0.467,0.108l-2.879,1.414c-0.524,0.257-0.742,0.895-0.484,1.419l0.852,1.735l-0.983,0.483l-1.841-3.75
		c-0.029-0.061-0.083-0.106-0.147-0.131L1.749,26.75c-0.135-0.046-0.28,0.022-0.325,0.157c-0.046,0.134,0.025,0.28,0.158,0.326
		l3.906,1.333l6.472,13.18c-1.767,1.016-2.471,3.249-1.559,5.106c0.662,1.348,2.005,2.184,3.507,2.184c0.6,0,1.18-0.134,1.719-0.4
		c1.857-0.91,2.668-3.11,1.889-4.992l4.891-2.4l0.383,0.784c0.045,0.088,0.137,0.142,0.229,0.142c0.039,0,0.076-0.01,0.113-0.027
		c0.127-0.063,0.18-0.214,0.119-0.342l-0.387-0.783l0.59-0.289C23.579,40.666,23.632,40.513,23.567,40.386 M21.034,41.347
		l-3.744,1.838c-0.668-1.169-1.875-1.902-3.227-1.957l-1.922-3.914l5.569-2.732L21.034,41.347z M8.581,28.816l2.88-1.414
		c0.074-0.038,0.156-0.058,0.241-0.058c0.211,0,0.4,0.117,0.494,0.309l3.586,7.303l-3.866,1.898L8.33,29.55
		C8.196,29.28,8.309,28.948,8.581,28.816 M8.948,31.97l4.555,9.276c-0.373,0.039-0.735,0.131-1.085,0.274l-4.452-9.066L8.948,31.97z
		 M15.401,48.177c-0.471,0.23-0.973,0.349-1.494,0.349c-1.304,0-2.474-0.726-3.047-1.9c-0.826-1.679-0.13-3.717,1.55-4.542
		c0.47-0.229,0.972-0.347,1.492-0.347c1.307,0,2.475,0.728,3.051,1.898C17.774,45.314,17.083,47.352,15.401,48.177"/>
</g>
<g display="none">
	<defs>
		<rect id="SVGID_7_" x="1.41" y="1.321" width="22.181" height="22.347"/>
	</defs>
	<clipPath id="SVGID_8_" display="inline">
		<use xlink:href="#SVGID_7_"  overflow="visible"/>
	</clipPath>
	<path display="inline" clip-path="url(#SVGID_8_)" fill="#4B3013" stroke="#4A3016" stroke-width="0.5" stroke-miterlimit="10" d="
		M13.906,17.431c-0.353,0-0.69,0.078-1.008,0.234c-1.132,0.555-1.601,1.927-1.044,3.06c0.387,0.792,1.174,1.281,2.055,1.281
		c0.351,0,0.689-0.078,1.005-0.234c1.133-0.556,1.603-1.929,1.046-3.062C15.572,17.921,14.784,17.431,13.906,17.431 M14.688,21.313
		c-0.245,0.121-0.508,0.181-0.78,0.181c-0.685,0-1.296-0.38-1.596-0.993c-0.433-0.88-0.069-1.947,0.811-2.378
		c0.246-0.122,0.511-0.182,0.783-0.182c0.68,0,1.293,0.381,1.596,0.993C15.933,19.813,15.569,20.88,14.688,21.313"/>
	<path display="inline" clip-path="url(#SVGID_8_)" fill="#4B3013" stroke="#4A3016" stroke-width="0.5" stroke-miterlimit="10" d="
		M23.569,14.973c-0.061-0.127-0.215-0.18-0.34-0.117l-1.738,0.852l-3.435-6.996c-0.03-0.061-0.082-0.109-0.146-0.129
		c-0.064-0.023-0.137-0.017-0.197,0.011L16.24,9.318l-3.585-7.303c-0.181-0.365-0.545-0.593-0.953-0.593
		c-0.163,0-0.319,0.036-0.466,0.107l-2.88,1.414C7.831,3.201,7.614,3.838,7.872,4.362l0.853,1.737L7.74,6.582l-1.841-3.75
		c-0.03-0.059-0.083-0.106-0.146-0.13L1.749,1.336C1.615,1.29,1.469,1.361,1.424,1.495C1.377,1.627,1.449,1.773,1.583,1.82
		l3.904,1.333l6.473,13.18c-1.769,1.017-2.47,3.25-1.559,5.106c0.662,1.348,2.005,2.184,3.508,2.184c0.599,0,1.178-0.132,1.717-0.4
		c1.857-0.911,2.668-3.109,1.89-4.992l4.89-2.401l0.383,0.783c0.045,0.088,0.136,0.143,0.23,0.143c0.038,0,0.075-0.008,0.113-0.027
		c0.126-0.062,0.179-0.214,0.115-0.34l-0.384-0.785l0.587-0.29C23.58,15.252,23.634,15.1,23.569,14.973 M21.033,15.933l-3.743,1.838
		c-0.667-1.168-1.875-1.901-3.226-1.957L12.142,11.9l5.568-2.733L21.033,15.933z M8.582,3.402l2.879-1.413
		c0.075-0.039,0.157-0.057,0.241-0.057c0.211,0,0.401,0.118,0.494,0.307l3.586,7.303l-3.866,1.898L8.33,4.137
		C8.197,3.866,8.309,3.536,8.582,3.402 M8.949,6.557l4.556,9.276c-0.376,0.04-0.737,0.13-1.088,0.275L7.966,7.041L8.949,6.557z
		 M15.403,22.764c-0.473,0.232-0.975,0.348-1.494,0.348c-1.306,0-2.475-0.727-3.05-1.899c-0.824-1.68-0.128-3.718,1.551-4.542
		c0.472-0.23,0.974-0.348,1.494-0.348c1.304,0,2.476,0.729,3.05,1.899C17.775,19.902,17.082,21.939,15.403,22.764"/>
</g>
<g display="none">
	<defs>
		<rect id="SVGID_9_" x="1.188" y="6.207" width="22.625" height="13.953"/>
	</defs>
	<clipPath id="SVGID_10_" display="inline">
		<use xlink:href="#SVGID_9_"  overflow="visible"/>
	</clipPath>
	<path display="inline" clip-path="url(#SVGID_10_)" fill="#4B3013" d="M23.819,14.128c0-0.02-0.002-0.04-0.005-0.059l-0.798-4.802
		c-0.03-0.173-0.181-0.301-0.355-0.301h-4.66V8.27c0-0.206-0.122-0.383-0.299-0.463V6.567c0-0.199-0.159-0.36-0.359-0.36H1.548
		c-0.095,0-0.187,0.038-0.254,0.105C1.226,6.38,1.188,6.472,1.188,6.567v8.221c0,0.42,0.143,0.809,0.38,1.118h-0.02
		c-0.199,0-0.36,0.161-0.36,0.359v0.664c0,0.522,0.425,0.948,0.948,0.948h2.332c-0.003,0.048-0.005,0.097-0.005,0.145
		c0,1.167,0.949,2.116,2.116,2.116c1.167,0,2.116-0.949,2.116-2.116c0-0.048-0.001-0.097-0.005-0.145h0.716h7.985
		c-0.003,0.048-0.005,0.097-0.005,0.145c0,1.167,0.947,2.116,2.115,2.116c1.166,0,2.117-0.949,2.117-2.116
		c0-0.048-0.004-0.097-0.007-0.145h0.599h1.249c0.199,0,0.36-0.161,0.36-0.36V14.128z M22.355,9.687l0.744,4.471v1.749h-5.099v-6.22
		H22.355z M1.908,6.927h15.076v8.979H3.027c-0.617,0-1.119-0.502-1.119-1.118V6.927z M2.136,17.158
		c-0.125,0-0.228-0.103-0.228-0.229v-0.303h3.083c-0.14,0.158-0.255,0.337-0.343,0.531H2.136z M6.579,19.417L6.579,19.417
		c-0.769,0-1.396-0.625-1.396-1.396s0.625-1.396,1.396-1.396s1.396,0.625,1.396,1.396S7.349,19.417,6.579,19.417 M9.528,17.158
		l-0.694-0.531h9.077c-0.137,0.158-0.253,0.337-0.342,0.531H9.528z M19.501,19.417L19.501,19.417c-0.77,0-1.397-0.625-1.397-1.396
		s0.628-1.396,1.397-1.396s1.395,0.625,1.395,1.396S20.271,19.417,19.501,19.417 M23.1,17.158h-0.77l-0.691-0.531H23.1V17.158z"/>
</g>
<g display="none">
	<defs>
		<rect id="SVGID_11_" x="1.188" y="31.705" width="22.625" height="13.953"/>
	</defs>
	<clipPath id="SVGID_12_" display="inline">
		<use xlink:href="#SVGID_11_"  overflow="visible"/>
	</clipPath>
	<path display="inline" clip-path="url(#SVGID_12_)" fill="#FCF6B4" d="M23.819,39.626c0-0.021-0.002-0.04-0.005-0.06l-0.798-4.801
		c-0.03-0.174-0.181-0.302-0.355-0.302h-4.66v-0.696c0-0.205-0.122-0.383-0.299-0.463v-1.239c0-0.199-0.159-0.36-0.359-0.36H1.548
		c-0.095,0-0.187,0.038-0.254,0.105c-0.068,0.067-0.106,0.16-0.106,0.255v8.221c0,0.42,0.143,0.809,0.38,1.118h-0.02
		c-0.199,0-0.36,0.161-0.36,0.359v0.664c0,0.521,0.425,0.947,0.948,0.947h2.332c-0.003,0.049-0.005,0.098-0.005,0.145
		c0,1.167,0.949,2.116,2.116,2.116c1.167,0,2.116-0.949,2.116-2.116c0-0.047-0.001-0.097-0.005-0.145h0.716h7.985
		c-0.003,0.049-0.005,0.098-0.005,0.145c0,1.167,0.947,2.116,2.115,2.116c1.166,0,2.117-0.949,2.117-2.116
		c0-0.047-0.004-0.097-0.007-0.145h0.599h1.249c0.199,0,0.36-0.16,0.36-0.359V39.626z M22.355,35.185l0.744,4.472v1.748h-5.099
		v-6.22H22.355z M1.908,32.426h15.076v8.979H3.027c-0.617,0-1.119-0.502-1.119-1.118V32.426z M2.136,42.656
		c-0.125,0-0.228-0.104-0.228-0.229v-0.303h3.083c-0.14,0.158-0.255,0.336-0.343,0.531H2.136z M6.579,44.916L6.579,44.916
		c-0.769,0-1.396-0.626-1.396-1.396c0-0.77,0.625-1.395,1.396-1.395s1.396,0.625,1.396,1.395C7.975,44.29,7.349,44.916,6.579,44.916
		 M9.528,42.656l-0.694-0.531h9.077c-0.137,0.158-0.253,0.336-0.342,0.531H9.528z M19.501,44.916L19.501,44.916
		c-0.77,0-1.397-0.626-1.397-1.396c0-0.77,0.628-1.395,1.397-1.395s1.395,0.625,1.395,1.395
		C20.896,44.29,20.271,44.916,19.501,44.916 M23.1,42.656h-0.77l-0.691-0.531H23.1V42.656z"/>
</g>
</svg>
