<?xml version="1.0" encoding="utf-8"?>
<!-- Generator: Adobe Illustrator 18.1.1, SVG Export Plug-In . SVG Version: 6.00 Build 0)  -->
<svg version="1.0" id="Layer_1" xmlns="http://www.w3.org/2000/svg" xmlns:xlink="http://www.w3.org/1999/xlink" x="0px" y="0px"
	 width="20px" height="20px" viewBox="0 0 20 20" enable-background="new 0 0 20 20" xml:space="preserve">
<g>
	<path fill="#49B3CC" d="M10.1,1c3,2.5,4.2,6.7,2.8,10.6c-1.4,3.9-5.1,6.3-8.9,6.3c-0.1,0-0.3,0.1-0.3,0.2c0,0.1,0,0.3,0.2,0.3
		c0.3,0.2,0.6,0.3,0.9,0.4c5,1.8,10.5-0.8,12.4-5.8c1.8-5-0.8-10.5-5.8-12.4c-0.3-0.1-0.7-0.2-1-0.3c-0.1,0-0.3,0-0.3,0.2
		C9.9,0.8,10,0.9,10.1,1L10.1,1z M10.1,1"/>
	<path fill="#49B3CC" d="M4.9,11.4c0.1,0.1,0.1,0.3,0,0.4l-1.1,1.4c0,0.1,0,0.1,0,0.2c0,0.1,0.1,0.1,0.2,0.1L5.7,13
		c0.2,0,0.3,0,0.4,0.1l1,1.5c0,0.1,0.1,0.1,0.2,0.1c0.1,0,0.1-0.1,0.1-0.2l0.1-1.8c0-0.2,0.1-0.3,0.3-0.3L9.4,12
		c0.1,0,0.1-0.1,0.1-0.2c0-0.1,0-0.1-0.1-0.2L7.7,11c-0.1-0.1-0.2-0.2-0.2-0.4l0.1-1.8c0-0.1,0-0.1-0.1-0.2c-0.1,0-0.1,0-0.2,0.1
		l-1.1,1.4c-0.1,0.1-0.3,0.2-0.4,0.1L4.1,9.7c-0.1,0-0.1,0-0.2,0.1c0,0.1,0,0.1,0,0.2L4.9,11.4z M3.9,10"/>
	<path fill="#49B3CC" d="M3,3.9C3.1,4,3,4.1,3,4.2L2.4,5c0,0,0,0.1,0,0.1c0,0,0.1,0.1,0.1,0l1-0.3c0.1,0,0.2,0,0.2,0.1l0.6,0.9
		c0,0,0.1,0.1,0.1,0c0,0,0.1,0,0.1-0.1l0-1c0-0.1,0.1-0.2,0.2-0.2l1-0.3c0,0,0.1,0,0.1-0.1c0,0,0-0.1-0.1-0.1l-1-0.4
		c-0.1,0-0.1-0.1-0.1-0.2l0-1c0,0,0-0.1-0.1-0.1c0,0-0.1,0-0.1,0L3.8,3.2C3.7,3.3,3.6,3.3,3.5,3.3l-1-0.4c0,0-0.1,0-0.1,0
		c0,0,0,0.1,0,0.1L3,3.9z M2.4,3"/>
</g>
</svg>
