<?xml version="1.0" encoding="utf-8"?>
<!-- Generator: Adobe Illustrator 16.0.0, SVG Export Plug-In . SVG Version: 6.00 Build 0)  -->
<!DOCTYPE svg PUBLIC "-//W3C//DTD SVG 1.1//EN" "http://www.w3.org/Graphics/SVG/1.1/DTD/svg11.dtd">
<svg version="1.1" id="Layer_1" xmlns="http://www.w3.org/2000/svg" xmlns:xlink="http://www.w3.org/1999/xlink" x="0px" y="0px"
	 width="30px" height="30px" viewBox="0 0 30 30" enable-background="new 0 0 30 30" xml:space="preserve">
<g>
	<path fill="#BFA430" d="M12.16,17.074v8.929H3.915v-7.05c0-3.815,0.456-6.579,1.367-8.286c1.196-2.279,3.091-4.002,5.683-5.17
		l1.88,2.99c-1.567,0.654-2.72,1.631-3.461,2.926c-0.741,1.297-1.153,3.184-1.239,5.662L12.16,17.074L12.16,17.074z M25.402,17.074
		v8.929h-8.244v-7.05c0-3.815,0.455-6.579,1.366-8.286c1.196-2.279,3.091-4.002,5.684-5.17l1.879,2.99
		c-1.566,0.656-2.719,1.633-3.461,2.926c-0.74,1.297-1.153,3.184-1.237,5.662L25.402,17.074L25.402,17.074z"/>
</g>
</svg>
