<?xml version="1.0" encoding="utf-8"?>
<!-- Generator: Adobe Illustrator 16.0.0, SVG Export Plug-In . SVG Version: 6.00 Build 0)  -->
<!DOCTYPE svg PUBLIC "-//W3C//DTD SVG 1.1//EN" "http://www.w3.org/Graphics/SVG/1.1/DTD/svg11.dtd">
<svg version="1.1" id="Layer_1" xmlns="http://www.w3.org/2000/svg" xmlns:xlink="http://www.w3.org/1999/xlink" x="0px" y="0px"
	 width="180px" height="62.192px" viewBox="0 0 180 62.192" enable-background="new 0 0 180 62.192" xml:space="preserve">
<g>
	<ellipse fill="#1A4A9C" cx="90.21" cy="31.693" rx="88.209" ry="0.312"/>
	<rect x="67.943" y="29.281" fill="#FFFFFF" width="44.535" height="6.736"/>
	<g>
		<polygon fill="#BEA630" points="110.061,32.668 70.746,32.668 90.219,22.513 		"/>
		<polygon fill="#DFC024" points="110.061,32.668 122.729,6.39 90.219,22.513 		"/>
		<polygon fill="#BEA630" points="70.746,32.668 57.723,6.39 90.229,22.513 		"/>
		<polygon fill="#DFC024" points="90.29,22.513 78.447,16.626 90.29,1 102.109,16.562 		"/>
		<polygon fill="#BEA630" points="90.29,22.513 90.29,1 102.109,16.562 		"/>
	</g>
	<g>
		<path fill="#1A4A9C" d="M9.569,46.519c0-4.381,0-5.178-0.067-6.074c-0.065-0.963-0.231-1.426-1.194-1.559
			c-0.232-0.033-0.73-0.066-0.995-0.066c-0.1,0-0.232-0.133-0.232-0.232c0-0.166,0.133-0.232,0.464-0.232
			c1.328,0,3.12,0.066,3.286,0.066c0.266,0,2.024-0.066,2.888-0.066c0.331,0,0.464,0.066,0.464,0.232c0,0.1-0.1,0.232-0.232,0.232
			c-0.198,0-0.364,0-0.729,0.066c-0.764,0.166-0.963,0.563-1.029,1.559c-0.066,0.896-0.066,1.693-0.066,6.074v1.691h0.133
			c0.465-0.529,5.676-5.676,6.771-6.805c0.83-0.828,1.593-1.559,1.593-2.023c0-0.363-0.132-0.529-0.364-0.563
			c-0.166-0.033-0.266-0.166-0.266-0.266c0-0.133,0.133-0.199,0.332-0.199c0.597,0,1.493,0.066,2.19,0.066
			c0.166,0,2.091-0.066,2.82-0.066c0.299,0,0.432,0.066,0.432,0.199s-0.066,0.23-0.299,0.23c-0.431,0-1.062,0.166-1.626,0.398
			c-1.194,0.531-1.759,1.162-3.054,2.389c-0.729,0.664-5.708,5.443-6.339,6.143c0.764,0.828,6.837,6.9,8.032,7.998
			c2.456,2.189,2.787,2.555,4.182,3.117c0.763,0.301,1.593,0.398,1.792,0.398c0.199,0,0.365,0.1,0.365,0.232
			s-0.133,0.232-0.631,0.232h-1.493c-0.83,0-1.361,0-2.024-0.066c-1.527-0.133-2.29-0.764-3.552-1.727
			c-1.327-1.029-7.467-7.5-8.861-9.16h-0.133v2.756c0,2.721,0,4.945,0.133,6.105c0.1,0.83,0.232,1.361,1.129,1.494
			c0.398,0.064,0.862,0.133,1.128,0.133c0.166,0,0.232,0.133,0.232,0.232c0,0.133-0.133,0.23-0.465,0.23
			c-1.427,0-3.186-0.1-3.418-0.1c-0.232,0-1.991,0.1-2.888,0.1c-0.299,0-0.465-0.064-0.465-0.23c0-0.102,0.066-0.232,0.232-0.232
			c0.266,0,0.631-0.066,0.896-0.133c0.564-0.133,0.631-0.664,0.764-1.494c0.166-1.16,0.166-3.385,0.166-6.105v-4.977H9.569z"/>
		<path fill="#1A4A9C" d="M34.328,51.497c0,2.721,0,4.945,0.133,6.105c0.1,0.83,0.199,1.361,1.063,1.494
			c0.431,0.064,1.062,0.133,1.327,0.133c0.166,0,0.232,0.133,0.232,0.232c0,0.133-0.133,0.23-0.465,0.23
			c-1.626,0-3.518-0.1-3.65-0.1c-0.166,0-1.991,0.1-2.888,0.1c-0.299,0-0.465-0.064-0.465-0.23c0-0.102,0.066-0.232,0.232-0.232
			c0.266,0,0.631-0.066,0.896-0.133c0.564-0.133,0.663-0.664,0.763-1.494c0.133-1.16,0.166-3.385,0.166-6.105v-4.979
			c0-4.381,0-5.178-0.066-6.074c-0.066-0.963-0.298-1.393-0.929-1.525c-0.332-0.066-0.697-0.1-0.896-0.1
			c-0.133,0-0.232-0.133-0.232-0.232c0-0.166,0.133-0.232,0.465-0.232c0.963,0,2.788,0.066,2.954,0.066
			c0.133,0,2.024-0.066,2.92-0.066c0.332,0,0.465,0.066,0.465,0.232c0,0.1-0.133,0.232-0.232,0.232c-0.198,0-0.397,0-0.729,0.066
			c-0.797,0.166-0.963,0.563-1.029,1.559c-0.033,0.896-0.033,1.693-0.033,6.074v4.979H34.328z"/>
		<path fill="#1A4A9C" d="M45.148,55.845c0.066,2.322,0.332,3.02,1.128,3.219c0.531,0.133,1.195,0.166,1.461,0.166
			c0.133,0,0.232,0.1,0.232,0.232c0,0.166-0.199,0.23-0.531,0.23c-1.66,0-2.821-0.1-3.087-0.1s-1.493,0.1-2.821,0.1
			c-0.298,0-0.464-0.033-0.464-0.23c0-0.135,0.1-0.232,0.232-0.232c0.231,0,0.763-0.033,1.194-0.166
			c0.73-0.199,0.83-0.963,0.83-3.518V39.384c0-1.129,0.165-1.428,0.397-1.428c0.332,0,0.83,0.564,1.129,0.863
			c0.465,0.465,4.713,4.979,9.227,9.623c2.887,2.988,6.007,6.34,6.903,7.27l-0.298-14.139c-0.033-1.826-0.199-2.455-1.096-2.621
			c-0.531-0.1-1.194-0.133-1.427-0.133c-0.199,0-0.232-0.166-0.232-0.266c0-0.166,0.232-0.199,0.564-0.199
			c1.327,0,2.721,0.066,3.053,0.066s1.295-0.066,2.489-0.066c0.299,0,0.531,0.033,0.531,0.199c0,0.1-0.133,0.266-0.332,0.266
			c-0.133,0-0.365,0-0.697,0.066c-0.962,0.199-1.028,0.762-1.028,2.455l-0.066,16.527c0,1.857-0.033,2.023-0.232,2.023
			c-0.299,0-0.598-0.232-2.224-1.725c-0.299-0.268-4.514-4.416-7.601-7.635c-3.385-3.551-6.671-7.002-7.566-7.998L45.148,55.845z"/>
		<path fill="#1A4A9C" d="M84.841,52.493c0-2.291-0.066-2.623-1.261-2.854c-0.232-0.035-0.73-0.068-0.996-0.068
			c-0.1,0-0.232-0.131-0.232-0.23c0-0.199,0.133-0.232,0.465-0.232c1.327,0,3.285,0.066,3.452,0.066
			c0.132,0,1.958-0.066,2.854-0.066c0.332,0,0.465,0.033,0.465,0.232c0,0.1-0.133,0.23-0.232,0.23c-0.199,0-0.398,0-0.729,0.068
			c-0.797,0.131-1.029,0.563-1.096,1.559c-0.033,0.896-0.033,1.727-0.033,2.92v3.154c0,1.295-0.033,1.326-0.398,1.525
			c-1.858,0.963-4.514,1.262-6.206,1.262c-2.224,0-6.372-0.266-9.625-3.021c-1.792-1.492-3.484-4.512-3.484-8.029
			c0-4.516,2.29-7.701,4.879-9.262c2.622-1.592,5.542-1.791,7.766-1.791c1.859,0,3.916,0.332,4.48,0.465
			c0.598,0.133,1.627,0.299,2.356,0.299c0.299,0,0.365,0.133,0.365,0.266c0,0.398-0.166,1.162-0.166,3.982
			c0,0.465-0.133,0.598-0.332,0.598c-0.166,0-0.199-0.166-0.199-0.432c-0.033-0.365-0.199-1.195-0.663-1.859
			c-0.73-1.061-2.954-2.188-6.737-2.188c-1.759,0-3.884,0.133-6.106,1.822c-1.693,1.295-2.888,3.818-2.888,7.104
			c0,3.982,2.058,6.838,3.087,7.801c2.322,2.156,4.778,2.953,7.467,2.953c1.029,0,2.39-0.1,3.152-0.531
			c0.365-0.199,0.598-0.332,0.598-0.863v-4.879H84.841z"/>
		<path fill="#1A4A9C" d="M93.836,59.296c-0.396-0.199-0.432-0.299-0.432-1.063c0-1.395,0.133-2.521,0.166-2.986
			c0-0.299,0.066-0.465,0.23-0.465c0.166,0,0.268,0.1,0.268,0.332s0,0.631,0.1,1.029c0.465,2.057,2.654,2.787,4.613,2.787
			c2.887,0,4.381-1.627,4.381-3.75c0-2.025-1.096-2.986-3.684-4.912l-1.328-0.996c-3.152-2.355-4.184-4.082-4.184-6.039
			c0-3.32,2.623-5.311,6.473-5.311c1.162,0,2.322,0.166,3.021,0.332c0.564,0.133,0.797,0.133,1.029,0.133
			c0.23,0,0.297,0.033,0.297,0.199c0,0.133-0.131,1.061-0.131,2.984c0,0.434-0.035,0.631-0.234,0.631
			c-0.197,0-0.23-0.133-0.264-0.363c-0.033-0.332-0.266-1.096-0.432-1.395c-0.199-0.332-1.162-1.395-3.783-1.395
			c-2.125,0-3.883,1.063-3.883,3.053c0,1.793,0.895,2.822,3.781,4.779l0.83,0.564c3.553,2.422,4.779,4.381,4.779,6.803
			c0,1.66-0.631,3.451-2.723,4.813c-1.229,0.797-3.053,0.996-4.646,0.996C96.725,60.06,95.031,59.86,93.836,59.296z"/>
		<path fill="#BEA630" d="M115.674,51.563c0,4.148,0.066,5.84,0.598,6.338c0.465,0.465,1.594,0.664,3.883,0.664
			c1.527,0,2.822-0.033,3.52-0.863c0.365-0.432,0.598-1.027,0.697-1.592c0.031-0.199,0.131-0.365,0.297-0.365
			c0.133,0,0.199,0.133,0.199,0.432s-0.199,1.992-0.43,2.82c-0.199,0.664-0.301,0.764-1.859,0.764c-2.09,0-3.717-0.033-5.078-0.1
			c-1.328-0.033-2.322-0.066-3.186-0.066c-0.133,0-0.631,0-1.195,0.033c-0.598,0.033-1.229,0.066-1.693,0.066
			c-0.297,0-0.463-0.066-0.463-0.232c0-0.1,0.066-0.232,0.232-0.232c0.264,0,0.629-0.066,0.895-0.133
			c0.564-0.133,0.631-0.662,0.766-1.492c0.166-1.162,0.166-3.387,0.166-6.107v-4.979c0-4.381,0-5.178-0.066-6.072
			c-0.066-0.963-0.232-1.428-1.195-1.561c-0.232-0.033-0.729-0.066-0.994-0.066c-0.102,0-0.232-0.133-0.232-0.23
			c0-0.166,0.133-0.232,0.465-0.232c1.326,0,3.152,0.066,3.318,0.066c0.133,0,2.322-0.066,3.219-0.066
			c0.299,0,0.465,0.066,0.465,0.232c0,0.1-0.133,0.197-0.23,0.197c-0.199,0-0.633,0.033-0.963,0.066
			c-0.863,0.166-1.029,0.598-1.098,1.594c-0.031,0.896-0.031,1.691-0.031,6.072v5.045H115.674z"/>
		<path fill="#BEA630" d="M138.311,37.956c6.57,0,11.549,4.016,11.549,10.588c0,6.305-4.682,11.516-11.715,11.516
			c-8,0-11.418-6.008-11.418-11.084C126.727,44.427,130.244,37.956,138.311,37.956z M138.973,58.897
			c2.621,0,7.898-1.395,7.898-9.559c0-6.771-4.115-10.32-8.729-10.32c-4.879,0-8.396,3.053-8.396,9.191
			C129.746,54.782,133.695,58.897,138.973,58.897z"/>
		<path fill="#BEA630" d="M170.604,52.493c0-2.291-0.068-2.623-1.264-2.854c-0.23-0.035-0.729-0.068-0.996-0.068
			c-0.1,0-0.23-0.131-0.23-0.23c0-0.199,0.133-0.232,0.465-0.232c1.328,0,3.285,0.066,3.451,0.066c0.133,0,1.959-0.066,2.854-0.066
			c0.332,0,0.467,0.033,0.467,0.232c0,0.1-0.135,0.23-0.232,0.23c-0.199,0-0.398,0-0.73,0.068c-0.797,0.131-1.027,0.563-1.096,1.559
			c-0.033,0.896-0.033,1.727-0.033,2.92v3.154c0,1.295-0.031,1.326-0.396,1.525c-1.859,0.963-4.514,1.262-6.207,1.262
			c-2.223,0-6.371-0.266-9.623-3.021c-1.793-1.492-3.486-4.512-3.486-8.029c0-4.516,2.291-7.701,4.879-9.262
			c2.623-1.592,5.543-1.791,7.768-1.791c1.857,0,3.916,0.332,4.479,0.465c0.6,0.133,1.627,0.299,2.357,0.299
			c0.299,0,0.365,0.133,0.365,0.266c0,0.398-0.166,1.162-0.166,3.982c0,0.465-0.135,0.598-0.332,0.598
			c-0.166,0-0.199-0.166-0.199-0.432c-0.033-0.365-0.199-1.195-0.664-1.859c-0.73-1.061-2.953-2.188-6.736-2.188
			c-1.76,0-3.883,0.133-6.105,1.822c-1.693,1.295-2.889,3.818-2.889,7.104c0,3.982,2.059,6.838,3.088,7.801
			c2.322,2.156,4.777,2.953,7.467,2.953c1.027,0,2.389-0.1,3.152-0.531c0.363-0.199,0.598-0.332,0.598-0.863v-4.879H170.604z"/>
	</g>
</g>
</svg>
