<?xml version="1.0" encoding="utf-8"?>
<!-- Generator: Adobe Illustrator 16.0.0, SVG Export Plug-In . SVG Version: 6.00 Build 0)  -->
<!DOCTYPE svg PUBLIC "-//W3C//DTD SVG 1.1//EN" "http://www.w3.org/Graphics/SVG/1.1/DTD/svg11.dtd">
<svg version="1.1" id="Layer_1" xmlns="http://www.w3.org/2000/svg" xmlns:xlink="http://www.w3.org/1999/xlink" x="0px" y="0px"
	 width="30px" height="30px" viewBox="0 0 30 30" enable-background="new 0 0 30 30" xml:space="preserve">
<g>
	<g>
		<path stroke="#000000" stroke-width="0.3" stroke-miterlimit="10" d="M26.345,7.84h-0.203c-0.234-0.433-0.691-0.727-1.218-0.727
			h-3.735V6.487c0-0.803-0.651-1.457-1.457-1.457h-9.463c-0.804,0-1.458,0.654-1.458,1.457v0.626H5.074
			c-0.525,0-0.981,0.294-1.216,0.727H3.653c-1.066,0-1.935,0.868-1.935,1.935v13.259c0,1.067,0.868,1.936,1.935,1.936h22.691
			c1.068,0,1.937-0.868,1.937-1.936V9.775C28.281,8.708,27.413,7.84,26.345,7.84L26.345,7.84z M9.659,6.487
			c0-0.335,0.274-0.607,0.609-0.607h9.463c0.336,0,0.607,0.272,0.607,0.607v0.626H9.659V6.487z M4.541,8.496
			c0-0.293,0.239-0.533,0.533-0.533h19.85c0.295,0,0.534,0.24,0.534,0.533v10.088c0,1.402-1.139,2.543-2.541,2.543h-5.019
			l0.269-1.541h-6.335l0.267,1.541H7.083c-1.402,0-2.543-1.141-2.543-2.543V8.496L4.541,8.496z M17.158,20.436l-0.326,1.87h-3.666
			l-0.326-1.87H17.158z M27.432,23.034c0,0.6-0.487,1.086-1.087,1.086H3.653c-0.599,0-1.086-0.486-1.086-1.086V9.775
			c0-0.597,0.487-1.084,1.086-1.084h0.038v9.894c0,1.871,1.522,3.393,3.393,3.393h5.163l0.205,1.178h5.096l0.206-1.178h5.164
			c1.869,0,3.392-1.521,3.392-3.393V8.69h0.036c0.6,0,1.087,0.486,1.087,1.084V23.034z M27.432,23.034"/>
	</g>
</g>
<g display="none">
	<g display="inline">
		<path d="M27.257,20.586l-1.648-4.416V9.291c-0.002-0.172-0.087-0.333-0.227-0.434L14.489,1.02l0,0
			C14.303,0.878,14.04,0.868,13.84,1.01L2.937,8.857c-0.142,0.1-0.225,0.262-0.228,0.434c-0.002,0.172,0.078,0.337,0.216,0.44
			l5.508,4.191v1.641c0,2.436,0.979,4.591,2.471,5.882v1.601c-1.521,0.354-6.378,1.763-7.257,5.372
			c-0.04,0.164-0.002,0.335,0.101,0.468c0.104,0.129,0.261,0.207,0.428,0.207h19.965c0.168,0,0.324-0.078,0.43-0.207
			c0.102-0.134,0.139-0.304,0.101-0.468c-0.88-3.609-5.736-5.019-7.258-5.372v-1.601c1.492-1.292,2.471-3.446,2.471-5.882v-1.641
			l4.636-3.525v5.773l-1.648,4.416c-0.104,0.283,0.038,0.597,0.319,0.701c0.063,0.024,0.127,0.033,0.19,0.033
			c0.222,0,0.428-0.134,0.511-0.354l0.628-1.683v1.492c0,0.301,0.244,0.544,0.545,0.544c0.3,0,0.544-0.243,0.544-0.544v-1.492
			l0.629,1.683c0.08,0.22,0.288,0.354,0.511,0.354c0.062,0,0.128-0.01,0.188-0.033C27.219,21.183,27.362,20.869,27.257,20.586
			L27.257,20.586z M4.941,28.002c0.279-0.601,0.709-1.119,1.221-1.568l1.262,1.568H4.941z M8.823,28.002l-1.788-2.219
			c0.824-0.531,1.736-0.925,2.521-1.202l2.719,3.421H8.823z M14.743,28.002h-1.076l-0.514-0.648h2.105L14.743,28.002z
			 M23.378,28.002h-2.395l1.227-1.521C22.697,26.917,23.108,27.422,23.378,28.002L23.378,28.002z M21.344,25.819l-1.759,2.183
			h-3.451l2.699-3.397C19.623,24.886,20.527,25.283,21.344,25.819L21.344,25.819z M17.724,24.251l-1.602,2.014h-3.835L10.67,24.23
			c0.523-0.141,0.862-0.206,0.876-0.209c0.259-0.047,0.446-0.272,0.446-0.536v-1.3c0.669,0.344,1.4,0.53,2.166,0.53
			c0.767,0,1.499-0.187,2.167-0.53v1.3c0,0.264,0.188,0.489,0.447,0.536C16.786,24.024,17.159,24.094,17.724,24.251L17.724,24.251z
			 M14.158,21.629c-2.349,0-4.294-2.299-4.594-5.267c0.915-0.58,4.05-2.461,7.075-3.055c0.204,0.937,0.756,2.803,2.03,3.658
			C18.183,19.638,16.346,21.629,14.158,21.629L14.158,21.629z M9.522,15.106v-0.364c0.504-1.157,2.512-2.052,4.641-2.052
			c0.166,0,0.33,0.006,0.492,0.017C12.523,13.4,10.581,14.47,9.522,15.106L9.522,15.106z M18.797,15.563c0,0.02,0,0.039-0.001,0.057
			c-0.438-0.531-0.744-1.276-0.938-1.926c0.44,0.303,0.771,0.659,0.938,1.048V15.563L18.797,15.563z M18.797,13.05
			c-1.087-0.886-2.79-1.449-4.634-1.449c-1.847,0-3.554,0.564-4.641,1.451v-0.997c0-1.44,2.126-2.659,4.641-2.659
			c2.512,0,4.634,1.219,4.634,2.659V13.05z M19.884,12.554v-0.498c0-2.101-2.512-3.747-5.721-3.747c-1.482,0-2.886,0.362-3.95,1.019
			c-1.148,0.708-1.78,1.677-1.78,2.728v0.498L4.169,9.311l9.989-7.188l9.991,7.188L19.884,12.554z M19.884,12.554"/>
	</g>
</g>
<g display="none">
	<path display="inline" stroke="#000000" stroke-width="0.3" stroke-miterlimit="10" d="M7.593,14.806
		c0.129,0,0.233-0.104,0.233-0.232c0-0.129-0.104-0.233-0.233-0.233c-2.774,0-5.031,2.283-5.031,5.088
		c0,0.128,0.104,0.233,0.232,0.233s0.232-0.105,0.232-0.233C3.026,16.88,5.075,14.806,7.593,14.806L7.593,14.806z M7.593,14.806"/>
	<path display="inline" stroke="#000000" stroke-width="0.3" stroke-miterlimit="10" d="M7.485,15.551
		c-2.115,0-3.837,1.74-3.837,3.878s1.722,3.878,3.837,3.878c2.116,0,3.837-1.74,3.837-3.878S9.602,15.551,7.485,15.551L7.485,15.551
		z M7.485,22.841c-1.858,0-3.371-1.53-3.371-3.412s1.513-3.413,3.371-3.413c1.859,0,3.371,1.531,3.371,3.413
		S9.345,22.841,7.485,22.841L7.485,22.841z M7.485,22.841"/>
	<path display="inline" stroke="#000000" stroke-width="0.3" stroke-miterlimit="10" d="M22.487,14.374
		c-0.128,0-0.232,0.104-0.232,0.233c0,0.128,0.104,0.231,0.232,0.231c2.518,0,4.565,2.075,4.565,4.623
		c0,0.129,0.104,0.231,0.233,0.231c0.127,0,0.232-0.103,0.232-0.231C27.519,16.656,25.261,14.374,22.487,14.374L22.487,14.374z
		 M22.487,14.374"/>
	<g display="inline">
		<path stroke="#000000" stroke-width="0.3" stroke-miterlimit="10" d="M22.358,15.551c-2.115,0-3.837,1.74-3.837,3.878
			s1.722,3.878,3.837,3.878c2.114,0,3.836-1.74,3.836-3.878S24.473,15.551,22.358,15.551L22.358,15.551z M22.358,22.841
			c-1.859,0-3.372-1.53-3.372-3.412s1.513-3.413,3.372-3.413c1.857,0,3.369,1.531,3.369,3.413S24.216,22.841,22.358,22.841
			L22.358,22.841z M22.358,22.841"/>
		<path stroke="#000000" stroke-width="0.3" stroke-miterlimit="10" d="M27.317,15.901c-0.007-0.012-0.012-0.022-0.021-0.033
			l-5.119-7.013c-0.034-0.047-0.066-0.093-0.102-0.136l-0.754-1.034c-0.003-0.004-0.006-0.008-0.009-0.012
			c-0.399-0.607-0.976-1.052-1.635-1.287l-0.811-1.108c-0.491-0.646-0.85-0.767-1.463-0.796c-0.509-0.024-1.022,0.192-1.374,0.577
			c-0.319,0.349-0.466,0.8-0.406,1.239l0.032,0.339l0.126,1.156c0.001,0.009,0.003,0.016,0.005,0.022
			c-0.189,0.32-0.325,0.674-0.398,1.052c-0.116-0.065-0.249-0.104-0.39-0.104l0,0c-0.141,0-0.274,0.038-0.391,0.104
			c-0.068-0.361-0.196-0.7-0.373-1.009l0.133-1.224l0.033-0.337c0.06-0.438-0.089-0.89-0.406-1.239
			c-0.353-0.385-0.867-0.602-1.375-0.577c-0.614,0.029-0.97,0.15-1.465,0.8l-0.798,1.092c-0.674,0.232-1.265,0.681-1.672,1.3
			C8.683,7.677,8.68,7.681,8.677,7.685L2.7,15.869c-0.01,0.013-0.02,0.029-0.024,0.045c-0.697,0.994-1.107,2.207-1.107,3.515
			c0,3.359,2.703,6.092,6.024,6.092c2.946,0,5.405-2.149,5.924-4.98c0.338,0.457,0.877,0.755,1.483,0.755
			c0.607,0,1.146-0.298,1.484-0.755c0.518,2.829,2.977,4.98,5.924,4.98c3.32,0,6.023-2.732,6.023-6.092
			C28.432,18.115,28.019,16.896,27.317,15.901L27.317,15.901z M16.663,17.594l-0.713-6.656c0.001-1.785,1.431-3.236,3.191-3.236
			c0.992,0,1.937,0.48,2.562,1.298l0.096,0.128c0.011,0.017,0.023,0.033,0.034,0.051c0.005,0.007,0.013,0.012,0.017,0.02l3.661,5.01
			c-0.908-0.553-1.97-0.871-3.103-0.871C19.718,13.336,17.435,15.127,16.663,17.594L16.663,17.594z M20.638,7.564
			c-0.468-0.214-0.976-0.33-1.496-0.33c-0.986,0-1.905,0.385-2.593,1.083c-0.323,0.327-0.576,0.707-0.755,1.118
			c0.035-1.532,1.276-2.77,2.799-2.77C19.378,6.666,20.111,6.994,20.638,7.564L20.638,7.564z M16.119,6.589l-0.032-0.342
			c0-0.003-0.003-0.007-0.003-0.01c-0.042-0.306,0.061-0.613,0.29-0.864c0.26-0.286,0.637-0.446,1.008-0.427
			c0.479,0.022,0.712,0.084,1.112,0.61l0.488,0.667c-0.129-0.016-0.258-0.022-0.39-0.022c-0.948,0-1.802,0.409-2.4,1.064
			L16.119,6.589z M14.999,9.23L14.999,9.23c0.169,0,0.309,0.126,0.329,0.296c0,0,0,0,0,0.001l0.073,0.659
			c0,0.005,0.002,0.01,0.002,0.014l0.84,7.85c-0.327-0.303-0.765-0.487-1.243-0.487s-0.914,0.184-1.242,0.486l0.846-7.851
			l0.065-0.67C14.689,9.356,14.83,9.23,14.999,9.23L14.999,9.23z M8.132,9.222C8.145,9.208,8.158,9.194,8.17,9.178
			c0.621-0.926,1.629-1.477,2.693-1.477c1.759,0,3.189,1.452,3.189,3.238c0,0.007,0.001,0.012,0.002,0.019l-0.717,6.637
			c-0.771-2.467-3.055-4.259-5.745-4.259c-1.136,0-2.198,0.319-3.105,0.875L8.132,9.222z M11.527,5.56
			c0.404-0.529,0.639-0.591,1.115-0.614c0.372-0.019,0.748,0.142,1.008,0.427c0.229,0.25,0.333,0.558,0.289,0.864
			c0,0.003,0,0.007-0.001,0.01l-0.033,0.339l-0.076,0.705c-0.599-0.669-1.463-1.09-2.425-1.09c-0.121,0-0.24,0.007-0.359,0.019
			L11.527,5.56z M11.404,6.666c1.52,0,2.76,1.232,2.8,2.761c-0.18-0.409-0.431-0.785-0.751-1.109
			c-0.687-0.698-1.605-1.083-2.59-1.083c-0.524,0-1.037,0.118-1.506,0.333C9.883,6.996,10.619,6.666,11.404,6.666L11.404,6.666z
			 M7.593,25.055c-3.064,0-5.56-2.523-5.56-5.626c0-3.104,2.495-5.627,5.56-5.627c3.066,0,5.56,2.523,5.56,5.627
			C13.152,22.531,10.659,25.055,7.593,25.055L7.593,25.055z M15,20.83c-0.762,0-1.383-0.629-1.383-1.401s0.621-1.401,1.383-1.401
			c0.763,0,1.382,0.629,1.382,1.401S15.763,20.83,15,20.83L15,20.83z M22.408,25.055c-3.066,0-5.561-2.523-5.561-5.626
			c0-3.104,2.494-5.627,5.561-5.627c3.063,0,5.559,2.523,5.559,5.627C27.967,22.531,25.472,25.055,22.408,25.055L22.408,25.055z
			 M22.408,25.055"/>
	</g>
</g>
</svg>
