<?xml version="1.0" encoding="utf-8"?>
<!-- Generator: Adobe Illustrator 17.0.0, SVG Export Plug-In . SVG Version: 6.00 Build 0)  -->
<!DOCTYPE svg PUBLIC "-//W3C//DTD SVG 1.1//EN" "http://www.w3.org/Graphics/SVG/1.1/DTD/svg11.dtd">
<svg version="1.1" id="Layer_1" xmlns="http://www.w3.org/2000/svg" xmlns:xlink="http://www.w3.org/1999/xlink" x="0px" y="0px"
	 width="30px" height="30px" viewBox="0 0 30 30" enable-background="new 0 0 30 30" xml:space="preserve">
<g>
	<g>
		<defs>
			<rect id="SVGID_1_" x="1.754" y="3.137" width="26.493" height="23.726"/>
		</defs>
		<clipPath id="SVGID_2_">
			<use xlink:href="#SVGID_1_"  overflow="visible"/>
		</clipPath>
		<path clip-path="url(#SVGID_2_)" d="M2.536,20.454c5.883,0.168,9.922,2.252,11.829,3.499c0,0,0.177,0.099,0.63,0.432
			c0.468-0.333,0.63-0.432,0.63-0.432c1.907-1.247,5.946-3.328,11.829-3.499c0.426-0.012,0.765-0.36,0.765-0.786V3.923
			c0-0.441-0.366-0.798-0.807-0.786c-6.615,0.201-10.888,2.819-12.414,3.928c-1.532-1.11-5.808-3.727-12.42-3.928
			C2.137,3.125,1.772,3.479,1.772,3.923v15.745C1.772,20.094,2.111,20.442,2.536,20.454L2.536,20.454z M15.673,8.19
			c0.525-0.39,1.514-1.056,2.93-1.712c1.274-0.594,2.645-1.067,4.066-1.406c1.367-0.327,2.789-0.528,4.237-0.606v14.696
			c-1.685,0.081-3.337,0.315-4.93,0.699c-1.604,0.39-3.151,0.933-4.594,1.613c-0.648,0.306-1.221,0.615-1.709,0.903V8.19z
			 M3.079,4.468C4.53,4.543,5.952,4.747,7.316,5.074c1.421,0.339,2.789,0.813,4.066,1.406c1.415,0.66,2.405,1.322,2.93,1.712v14.189
			c-0.492-0.288-1.061-0.597-1.709-0.903c-1.442-0.681-2.99-1.223-4.594-1.613c-1.589-0.384-3.242-0.618-4.93-0.699V4.468z
			 M3.079,4.468"/>
		<path clip-path="url(#SVGID_2_)" d="M27.599,21.441h-0.027c-1.898,0-3.76,0.219-5.535,0.648c-1.421,0.345-2.789,0.825-4.066,1.427
			c-1.322,0.624-2.363,1.415-2.981,1.943c-0.618-0.528-1.658-1.319-2.981-1.943c-1.274-0.603-2.642-1.082-4.063-1.427
			c-1.772-0.429-3.634-0.648-5.535-0.648H2.383c-0.348,0-0.63,0.282-0.63,0.63v0.051c0,0.348,0.282,0.63,0.63,0.63H2.41
			c1.781,0,3.526,0.201,5.188,0.603c1.328,0.321,2.609,0.765,3.802,1.325c0.471,0.222,0.894,0.444,1.262,0.654
			c0.561,0.321,1.415,0.977,1.919,1.376c0.24,0.192,0.579,0.192,0.819,0c0.504-0.399,1.355-1.056,1.913-1.373
			c0.369-0.213,0.795-0.435,1.268-0.657c1.193-0.558,2.471-1.004,3.802-1.325c1.661-0.399,3.407-0.603,5.188-0.603h0.027
			c0.348,0,0.63-0.282,0.63-0.63V22.07C28.228,21.722,27.946,21.441,27.599,21.441L27.599,21.441z M27.599,21.441"/>
	</g>
	<path d="M5.457,8.175c0.033,0.003,3.337,0.456,6.594,2.126c0.093,0.048,0.189,0.069,0.285,0.069c0.228,0,0.447-0.126,0.561-0.342
		c0.159-0.309,0.036-0.687-0.273-0.846C9.166,7.407,5.763,6.948,5.619,6.93c-0.345-0.045-0.66,0.198-0.705,0.54
		C4.869,7.815,5.112,8.13,5.457,8.175L5.457,8.175z M5.457,8.175"/>
	<path d="M12.336,13.497c0.228,0,0.447-0.126,0.561-0.342c0.156-0.309,0.036-0.687-0.273-0.846
		c-3.457-1.775-6.861-2.234-7.005-2.252c-0.345-0.045-0.66,0.198-0.705,0.54c-0.045,0.345,0.198,0.66,0.54,0.705
		c0.033,0.003,3.338,0.456,6.594,2.126C12.141,13.473,12.24,13.497,12.336,13.497L12.336,13.497z M12.336,13.497"/>
	<path d="M17.079,10.028c0.111,0.216,0.333,0.342,0.561,0.342c0.096,0,0.195-0.021,0.285-0.069c3.25-1.667,6.543-2.12,6.594-2.126
		c0.345-0.045,0.588-0.36,0.543-0.705c-0.045-0.345-0.36-0.588-0.705-0.543c-0.144,0.018-3.544,0.48-7.005,2.252
		C17.044,9.341,16.924,9.719,17.079,10.028L17.079,10.028z M17.079,10.028"/>
	<path d="M24.357,10.058c-0.144,0.018-3.544,0.48-7.005,2.252c-0.309,0.159-0.432,0.537-0.273,0.846
		c0.111,0.216,0.333,0.342,0.561,0.342c0.096,0,0.195-0.021,0.285-0.069c3.256-1.67,6.561-2.12,6.594-2.126
		c0.345-0.045,0.585-0.36,0.54-0.705C25.017,10.253,24.702,10.013,24.357,10.058L24.357,10.058z M24.357,10.058"/>
</g>
</svg>
