<?xml version="1.0" encoding="utf-8"?>
<!-- Generator: Adobe Illustrator 16.0.0, SVG Export Plug-In . SVG Version: 6.00 Build 0)  -->
<!DOCTYPE svg PUBLIC "-//W3C//DTD SVG 1.1//EN" "http://www.w3.org/Graphics/SVG/1.1/DTD/svg11.dtd">
<svg version="1.1" id="Layer_1" xmlns="http://www.w3.org/2000/svg" xmlns:xlink="http://www.w3.org/1999/xlink" x="0px" y="0px"
	 width="30px" height="30px" viewBox="0 0 30 30" enable-background="new 0 0 30 30" xml:space="preserve">
<g display="none">
	<g display="inline">
		<g>
			<defs>
				<rect id="SVGID_1_" x="1.754" y="3.137" width="26.493" height="23.726"/>
			</defs>
			<clipPath id="SVGID_2_">
				<use xlink:href="#SVGID_1_"  overflow="visible"/>
			</clipPath>
			<path clip-path="url(#SVGID_2_)" d="M2.536,20.454c5.883,0.168,9.922,2.252,11.829,3.499c0,0,0.177,0.099,0.63,0.432
				c0.468-0.333,0.63-0.432,0.63-0.432c1.907-1.247,5.945-3.328,11.829-3.499c0.426-0.013,0.765-0.36,0.765-0.786V3.923
				c0-0.441-0.365-0.798-0.807-0.786c-6.615,0.201-10.889,2.819-12.414,3.928c-1.532-1.11-5.808-3.727-12.42-3.928
				C2.137,3.125,1.772,3.479,1.772,3.923v15.745C1.772,20.094,2.111,20.441,2.536,20.454L2.536,20.454z M15.673,8.19
				c0.525-0.39,1.515-1.056,2.931-1.712c1.273-0.594,2.645-1.067,4.065-1.406c1.367-0.327,2.789-0.528,4.237-0.606v14.696
				c-1.686,0.081-3.338,0.314-4.93,0.699c-1.604,0.39-3.151,0.933-4.595,1.613c-0.647,0.305-1.221,0.614-1.709,0.902V8.19z
				 M3.079,4.468C4.53,4.543,5.952,4.747,7.316,5.074c1.421,0.339,2.789,0.813,4.066,1.406c1.415,0.66,2.405,1.322,2.93,1.712
				v14.189c-0.492-0.288-1.061-0.597-1.709-0.902c-1.442-0.682-2.99-1.224-4.594-1.613c-1.589-0.385-3.242-0.618-4.93-0.699V4.468z"
				/>
		</g>
		<g>
			<defs>
				<rect id="SVGID_3_" x="1.754" y="3.137" width="26.493" height="23.726"/>
			</defs>
			<clipPath id="SVGID_4_">
				<use xlink:href="#SVGID_3_"  overflow="visible"/>
			</clipPath>
			<path clip-path="url(#SVGID_4_)" d="M27.6,21.441h-0.027c-1.898,0-3.76,0.219-5.535,0.647c-1.421,0.345-2.789,0.825-4.066,1.427
				c-1.322,0.625-2.363,1.416-2.98,1.943c-0.618-0.527-1.658-1.318-2.981-1.943c-1.274-0.603-2.642-1.082-4.063-1.427
				c-1.772-0.429-3.634-0.647-5.535-0.647H2.383c-0.348,0-0.63,0.281-0.63,0.629v0.052c0,0.349,0.282,0.63,0.63,0.63H2.41
				c1.781,0,3.526,0.201,5.188,0.604c1.328,0.32,2.609,0.765,3.802,1.324c0.471,0.223,0.894,0.444,1.262,0.654
				c0.561,0.32,1.415,0.977,1.919,1.376c0.24,0.192,0.579,0.192,0.819,0c0.504-0.399,1.355-1.056,1.913-1.373
				c0.369-0.213,0.795-0.435,1.269-0.657c1.192-0.558,2.471-1.004,3.802-1.324c1.661-0.399,3.407-0.604,5.188-0.604h0.027
				c0.348,0,0.631-0.281,0.631-0.63V22.07C28.229,21.723,27.945,21.441,27.6,21.441L27.6,21.441z"/>
		</g>
	</g>
	<path display="inline" d="M5.457,8.175c0.033,0.003,3.337,0.456,6.594,2.126c0.093,0.048,0.189,0.069,0.285,0.069
		c0.228,0,0.447-0.126,0.561-0.342c0.159-0.309,0.036-0.687-0.273-0.846C9.166,7.407,5.763,6.948,5.619,6.93
		c-0.345-0.045-0.66,0.198-0.705,0.54C4.869,7.815,5.112,8.13,5.457,8.175L5.457,8.175z"/>
	<path display="inline" d="M12.336,13.497c0.228,0,0.447-0.126,0.561-0.342c0.156-0.309,0.036-0.687-0.273-0.846
		c-3.457-1.775-6.861-2.234-7.005-2.252c-0.345-0.045-0.66,0.198-0.705,0.54c-0.045,0.345,0.198,0.66,0.54,0.705
		c0.033,0.003,3.338,0.456,6.594,2.126C12.141,13.473,12.24,13.497,12.336,13.497L12.336,13.497z"/>
	<path display="inline" d="M17.079,10.028c0.11,0.216,0.333,0.342,0.562,0.342c0.096,0,0.194-0.021,0.284-0.069
		c3.25-1.667,6.543-2.12,6.595-2.126c0.345-0.045,0.588-0.36,0.543-0.705c-0.045-0.345-0.36-0.588-0.705-0.543
		c-0.145,0.018-3.545,0.48-7.006,2.252C17.044,9.341,16.924,9.719,17.079,10.028L17.079,10.028z"/>
	<path display="inline" d="M24.357,10.058c-0.145,0.018-3.545,0.48-7.006,2.252c-0.309,0.159-0.432,0.537-0.272,0.846
		c0.11,0.216,0.333,0.342,0.562,0.342c0.096,0,0.194-0.021,0.284-0.069c3.257-1.67,6.562-2.12,6.595-2.126
		c0.345-0.045,0.584-0.36,0.539-0.705C25.018,10.253,24.702,10.013,24.357,10.058L24.357,10.058z"/>
</g>
<g display="none">
	<path display="inline" stroke="#000000" stroke-width="0.2" stroke-miterlimit="10" d="M15,24.541c1.119,0,2.029-0.911,2.029-2.03
		v-0.405c0-1.119-0.91-2.03-2.029-2.03s-2.03,0.911-2.03,2.03v0.405C12.97,23.631,13.881,24.541,15,24.541L15,24.541z
		 M13.782,22.105c0-0.672,0.546-1.219,1.218-1.219s1.218,0.547,1.218,1.219v0.405c0,0.673-0.546,1.218-1.218,1.218
		s-1.218-0.545-1.218-1.218V22.105z"/>
	<path display="inline" stroke="#000000" stroke-width="0.2" stroke-miterlimit="10" d="M16.628,24.555h-0.344
		c-0.142,0-0.272,0.073-0.347,0.193c-0.236,0.385-0.578,0.605-0.937,0.605s-0.701-0.221-0.938-0.605
		c-0.074-0.12-0.205-0.193-0.346-0.193h-0.345c-0.912,0-1.62,0.866-1.62,1.611v0.879c0,0.411,0.334,0.745,0.744,0.745h5.009
		c0.41,0,0.743-0.333,0.743-0.743v-0.881c0-0.354-0.165-0.749-0.439-1.059C17.49,24.751,17.07,24.555,16.628,24.555L16.628,24.555z
		 M17.436,26.977h-4.872v-0.812c0-0.274,0.315-0.799,0.808-0.799h0.13c0.384,0.511,0.92,0.799,1.498,0.799s1.113-0.288,1.497-0.799
		h0.13c0.494,0,0.809,0.524,0.809,0.799V26.977L17.436,26.977z"/>
	<path display="inline" stroke="#000000" stroke-width="0.2" stroke-miterlimit="10" d="M15,6.677c1.119,0,2.029-0.911,2.029-2.03
		V4.241c0-1.119-0.91-2.03-2.029-2.03s-2.03,0.911-2.03,2.03v0.406C12.97,5.766,13.881,6.677,15,6.677L15,6.677z M13.782,4.241
		c0-0.672,0.546-1.218,1.218-1.218s1.218,0.546,1.218,1.218v0.406c0,0.672-0.546,1.218-1.218,1.218s-1.218-0.546-1.218-1.218V4.241z
		"/>
	<path display="inline" stroke="#000000" stroke-width="0.2" stroke-miterlimit="10" d="M16.628,6.69h-0.344
		c-0.142,0-0.272,0.073-0.347,0.193C15.701,7.268,15.359,7.489,15,7.489s-0.701-0.221-0.938-0.605
		c-0.074-0.12-0.205-0.193-0.346-0.193h-0.345c-0.912,0-1.62,0.866-1.62,1.611V9.18c0,0.411,0.334,0.745,0.744,0.745h5.009
		c0.41,0,0.743-0.333,0.743-0.743V8.301c0-0.353-0.165-0.749-0.44-1.058C17.49,6.886,17.07,6.69,16.628,6.69L16.628,6.69z
		 M17.436,9.113h-4.872V8.301c0-0.274,0.315-0.799,0.808-0.799h0.13c0.384,0.51,0.92,0.799,1.498,0.799s1.113-0.288,1.497-0.799
		h0.13c0.494,0,0.809,0.524,0.809,0.799V9.113L17.436,9.113z"/>
	<path display="inline" stroke="#000000" stroke-width="0.2" stroke-miterlimit="10" d="M22.714,13.173v0.406
		c0,1.119,0.911,2.03,2.03,2.03s2.029-0.911,2.029-2.03v-0.406c0-1.119-0.91-2.03-2.029-2.03S22.714,12.054,22.714,13.173
		L22.714,13.173z M23.525,13.173c0-0.672,0.547-1.218,1.219-1.218s1.218,0.546,1.218,1.218v0.406c0,0.672-0.546,1.218-1.218,1.218
		s-1.219-0.546-1.219-1.218V13.173z"/>
	<path display="inline" stroke="#000000" stroke-width="0.2" stroke-miterlimit="10" d="M27.552,16.175
		c-0.317-0.356-0.737-0.553-1.18-0.553h-0.345c-0.142,0-0.272,0.073-0.346,0.192c-0.238,0.386-0.578,0.605-0.938,0.605
		c-0.359,0-0.7-0.221-0.937-0.605c-0.074-0.119-0.205-0.192-0.347-0.192h-0.345c-0.912,0-1.62,0.866-1.62,1.61v0.879
		c0,0.41,0.334,0.744,0.745,0.744h5.009c0.409,0,0.743-0.332,0.743-0.742v-0.881C27.993,16.88,27.828,16.484,27.552,16.175
		L27.552,16.175z M27.182,18.045h-4.873v-0.813c0-0.273,0.315-0.799,0.809-0.799h0.13c0.384,0.51,0.919,0.799,1.497,0.799
		s1.113-0.287,1.498-0.799h0.13c0.493,0,0.808,0.524,0.808,0.799v0.813H27.182z"/>
	<path display="inline" stroke="#000000" stroke-width="0.2" stroke-miterlimit="10" d="M5.256,15.609c1.119,0,2.03-0.911,2.03-2.03
		v-0.406c0-1.119-0.911-2.03-2.03-2.03c-1.119,0-2.03,0.911-2.03,2.03v0.406C3.226,14.698,4.136,15.609,5.256,15.609L5.256,15.609z
		 M4.038,13.173c0-0.672,0.546-1.218,1.218-1.218c0.672,0,1.218,0.546,1.218,1.218v0.406c0,0.672-0.546,1.218-1.218,1.218
		c-0.672,0-1.218-0.546-1.218-1.218V13.173z"/>
	<path display="inline" stroke="#000000" stroke-width="0.2" stroke-miterlimit="10" d="M8.504,18.114v-0.882
		c0-0.353-0.165-0.748-0.44-1.058c-0.318-0.356-0.737-0.553-1.18-0.553H6.539c-0.141,0-0.272,0.073-0.346,0.192
		C5.956,16.2,5.615,16.42,5.255,16.42c-0.359,0-0.701-0.221-0.937-0.605c-0.074-0.119-0.205-0.192-0.346-0.192H3.628
		c-0.913,0-1.62,0.866-1.62,1.61v0.879c0,0.41,0.334,0.744,0.745,0.744h5.009C8.17,18.857,8.504,18.523,8.504,18.114L8.504,18.114z
		 M7.692,18.045H2.82v-0.813c0-0.273,0.315-0.799,0.808-0.799h0.13c0.384,0.51,0.919,0.799,1.497,0.799s1.113-0.287,1.497-0.799
		h0.13c0.494,0,0.808,0.524,0.808,0.799L7.692,18.045L7.692,18.045z"/>
	<path display="inline" stroke="#000000" stroke-width="0.2" stroke-miterlimit="10" d="M11.176,24.168
		c-2.001-0.854-3.679-2.377-4.727-4.289c-0.108-0.197-0.354-0.27-0.551-0.161c-0.196,0.108-0.269,0.355-0.161,0.552
		c1.134,2.069,2.953,3.72,5.12,4.645c0.052,0.021,0.106,0.033,0.159,0.033c0.158,0,0.308-0.092,0.374-0.247
		C11.478,24.495,11.382,24.256,11.176,24.168L11.176,24.168z"/>
	<path display="inline" stroke="#000000" stroke-width="0.2" stroke-miterlimit="10" d="M24.102,19.719
		c-0.197-0.107-0.443-0.035-0.551,0.161c-1.047,1.911-2.726,3.433-4.726,4.288c-0.206,0.088-0.302,0.327-0.214,0.533
		c0.065,0.154,0.216,0.247,0.373,0.247c0.054,0,0.107-0.011,0.16-0.033c2.166-0.926,3.983-2.575,5.119-4.644
		C24.371,20.074,24.298,19.827,24.102,19.719L24.102,19.719z"/>
	<path display="inline" stroke="#000000" stroke-width="0.2" stroke-miterlimit="10" d="M18.119,5.969
		c2.163,0.73,4.012,2.21,5.206,4.168c0.075,0.125,0.21,0.195,0.347,0.195c0.072,0,0.145-0.019,0.211-0.06
		c0.191-0.117,0.252-0.367,0.135-0.558c-1.293-2.12-3.295-3.723-5.639-4.514c-0.212-0.072-0.443,0.042-0.514,0.255
		C17.793,5.666,17.907,5.897,18.119,5.969L18.119,5.969z"/>
	<path display="inline" stroke="#000000" stroke-width="0.2" stroke-miterlimit="10" d="M6.117,10.271
		c0.066,0.04,0.139,0.06,0.211,0.06c0.137,0,0.271-0.069,0.347-0.195c1.194-1.958,3.043-3.438,5.207-4.168
		c0.213-0.072,0.327-0.302,0.255-0.514c-0.072-0.213-0.302-0.327-0.514-0.255C9.278,5.99,7.275,7.593,5.982,9.714
		C5.865,9.905,5.925,10.155,6.117,10.271L6.117,10.271z"/>
</g>
<g>
	<g>
		<defs>
			<rect id="SVGID_5_" x="1.39" y="2.524" width="27.219" height="24.951"/>
		</defs>
		<clipPath id="SVGID_6_">
			<use xlink:href="#SVGID_5_"  overflow="visible"/>
		</clipPath>
		<path clip-path="url(#SVGID_6_)" d="M7.27,14.279c1.247,0,2.44-0.389,3.451-1.123c1.04-0.755,1.738-1.717,2.135-2.938v-0.001
			c0.198-0.612,0.288-1.172,0.288-1.815c0-3.241-2.636-5.877-5.877-5.877c-1.285,0-2.415,0.366-3.455,1.122
			c-2.622,1.905-3.205,5.588-1.301,8.21C3.613,13.373,5.392,14.279,7.27,14.279L7.27,14.279z M10.529,12.067l-1.422-1.958
			l-0.57-0.783l3.223,1.047C11.477,11.04,11.076,11.592,10.529,12.067L10.529,12.067z M12.171,8.401c0,0.375-0.034,0.707-0.11,1.047
			L7.752,8.049V3.521C10.229,3.765,12.171,5.86,12.171,8.401L12.171,8.401z M4.382,4.433C5.128,3.892,5.899,3.595,6.78,3.518v4.884
			c0,0.025,0.001,0.051,0.005,0.075v0.002C6.787,8.489,6.791,8.5,6.794,8.511c0.003,0.014,0.004,0.026,0.009,0.04
			c0,0.001,0,0.001,0,0.002c0.005,0.013,0.012,0.026,0.017,0.04c0.004,0.009,0.007,0.019,0.012,0.028c0,0.001,0,0.001,0,0.001
			c0.012,0.022,0.025,0.044,0.04,0.065l2.869,3.949c-0.75,0.439-1.595,0.67-2.472,0.67c-1.567,0-3.052-0.756-3.973-2.021
			C1.707,9.097,2.194,6.022,4.382,4.433L4.382,4.433z M4.382,4.433"/>
	</g>
	<path d="M17.111,15.193h2.621c0.268,0,0.484-0.217,0.484-0.485V3.01c0-0.269-0.217-0.485-0.484-0.485h-2.621
		c-0.268,0-0.486,0.217-0.486,0.485v11.698C16.625,14.977,16.844,15.193,17.111,15.193L17.111,15.193z M17.598,3.496h1.648v10.726
		h-1.648V3.496z M17.598,3.496"/>
	<path d="M21.303,15.193h2.619c0.268,0,0.486-0.217,0.486-0.485V8.921c0-0.268-0.219-0.486-0.486-0.486h-2.619
		c-0.27,0-0.486,0.219-0.486,0.486v5.787C20.816,14.977,21.033,15.193,21.303,15.193L21.303,15.193z M21.787,9.407h1.648v4.814
		h-1.648V9.407z M21.787,9.407"/>
	<path d="M28.113,5.717h-2.621c-0.268,0-0.486,0.218-0.486,0.486v8.505c0,0.269,0.219,0.485,0.486,0.485h2.621
		c0.268,0,0.484-0.217,0.484-0.485V6.203C28.598,5.935,28.381,5.717,28.113,5.717L28.113,5.717z M27.627,14.222h-1.648V6.688h1.648
		V14.222z M27.627,14.222"/>
	<path d="M27.73,20.046c-0.42,0-0.762,0.34-0.762,0.76c0,0.038,0.004,0.076,0.01,0.11l-4.238,5.007
		c-0.025-0.002-0.053-0.004-0.078-0.004c-0.031,0-0.063,0.002-0.092,0.006l-4.186-3.329c-0.049-0.326-0.305-0.585-0.631-0.636
		l-4.259-5.031c0-0.002,0-0.004,0-0.008c0-0.42-0.341-0.76-0.76-0.76c-0.37,0-0.679,0.266-0.746,0.615l-3.992,2.638
		c-0.088-0.036-0.186-0.058-0.289-0.058c-0.12,0-0.231,0.029-0.333,0.078l-3.854-1.522c-0.107-0.291-0.385-0.498-0.713-0.498
		c-0.42,0-0.761,0.34-0.761,0.76s0.341,0.762,0.761,0.762c0.141,0,0.274-0.04,0.387-0.108l3.781,1.496
		c0.089,0.319,0.383,0.555,0.731,0.555c0.365,0,0.668-0.257,0.743-0.599l4.01-2.648c0.084,0.032,0.177,0.052,0.273,0.052
		c0.039,0,0.078-0.004,0.115-0.01l4.064,4.8c-0.027,0.074-0.041,0.153-0.041,0.237c0,0.42,0.342,0.76,0.762,0.76
		c0.084,0,0.164-0.014,0.24-0.038l4.029,3.205c-0.002,0.013-0.004,0.028-0.004,0.041c0,0.42,0.342,0.762,0.762,0.762
		c0.418,0,0.758-0.34,0.758-0.762c0-0.017,0-0.034-0.002-0.051l4.285-5.062c0.008,0,0.018,0.002,0.025,0.002
		c0.422,0,0.762-0.341,0.762-0.762C28.49,20.386,28.15,20.046,27.73,20.046L27.73,20.046z M27.73,20.046"/>
</g>
</svg>
