<?xml version="1.0" encoding="utf-8"?>
<!-- Generator: Adobe Illustrator 16.0.0, SVG Export Plug-In . SVG Version: 6.00 Build 0)  -->
<!DOCTYPE svg PUBLIC "-//W3C//DTD SVG 1.1//EN" "http://www.w3.org/Graphics/SVG/1.1/DTD/svg11.dtd">
<svg version="1.1" id="Layer_1" xmlns="http://www.w3.org/2000/svg" xmlns:xlink="http://www.w3.org/1999/xlink" x="0px" y="0px"
	 width="30px" height="30px" viewBox="0 0 30 30" enable-background="new 0 0 30 30" xml:space="preserve">
<g display="none">
	<g display="inline">
		<path d="M26.345,7.84h-0.203c-0.234-0.433-0.691-0.727-1.218-0.727h-3.735V6.487c0-0.803-0.651-1.457-1.457-1.457h-9.463
			c-0.804,0-1.458,0.654-1.458,1.457v0.626H5.074c-0.525,0-0.981,0.294-1.216,0.727H3.653c-1.066,0-1.935,0.868-1.935,1.935v13.259
			c0,1.067,0.868,1.936,1.935,1.936h22.691c1.068,0,1.937-0.868,1.937-1.936V9.775C28.281,8.708,27.413,7.84,26.345,7.84
			L26.345,7.84z M9.659,6.487c0-0.335,0.274-0.607,0.609-0.607h9.463c0.336,0,0.607,0.272,0.607,0.607v0.626H9.659V6.487z
			 M4.541,8.496c0-0.293,0.239-0.533,0.533-0.533h19.85c0.295,0,0.534,0.24,0.534,0.533v10.088c0,1.402-1.139,2.543-2.541,2.543
			h-5.019l0.269-1.541h-6.335l0.267,1.541H7.083c-1.402,0-2.543-1.141-2.543-2.543V8.496L4.541,8.496z M17.158,20.436l-0.326,1.87
			h-3.666l-0.326-1.87H17.158z M27.432,23.034c0,0.6-0.487,1.086-1.087,1.086H3.653c-0.599,0-1.086-0.486-1.086-1.086V9.775
			c0-0.597,0.487-1.084,1.086-1.084h0.038v9.894c0,1.871,1.522,3.393,3.393,3.393h5.163l0.205,1.178h5.096l0.206-1.178h5.164
			c1.869,0,3.392-1.521,3.392-3.393V8.69h0.036c0.6,0,1.087,0.486,1.087,1.084V23.034z M27.432,23.034"/>
	</g>
</g>
<g>
	<g>
		<path d="M27.257,20.586l-1.648-4.416V9.291c-0.002-0.172-0.087-0.333-0.227-0.434L14.489,1.02l0,0
			C14.303,0.878,14.04,0.868,13.84,1.01L2.937,8.857c-0.142,0.1-0.225,0.262-0.228,0.434c-0.002,0.172,0.078,0.337,0.216,0.44
			l5.508,4.191v1.641c0,2.436,0.979,4.591,2.471,5.882v1.601c-1.521,0.354-6.378,1.763-7.257,5.372
			c-0.04,0.164-0.002,0.335,0.101,0.468c0.104,0.129,0.261,0.207,0.428,0.207h19.965c0.168,0,0.324-0.078,0.43-0.207
			c0.102-0.134,0.139-0.304,0.101-0.468c-0.88-3.609-5.736-5.019-7.258-5.372v-1.601c1.492-1.292,2.471-3.446,2.471-5.882v-1.641
			l4.636-3.525v5.773l-1.648,4.416c-0.104,0.283,0.038,0.597,0.319,0.701c0.063,0.024,0.127,0.033,0.19,0.033
			c0.222,0,0.428-0.134,0.511-0.354l0.628-1.683v1.492c0,0.301,0.244,0.544,0.545,0.544c0.3,0,0.544-0.243,0.544-0.544v-1.492
			l0.629,1.683c0.08,0.22,0.288,0.354,0.511,0.354c0.062,0,0.128-0.01,0.188-0.033C27.219,21.183,27.362,20.869,27.257,20.586
			L27.257,20.586z M4.941,28.002c0.279-0.601,0.709-1.119,1.221-1.568l1.262,1.568H4.941z M8.823,28.002l-1.788-2.219
			c0.824-0.531,1.736-0.925,2.521-1.202l2.719,3.421H8.823z M14.743,28.002h-1.076l-0.514-0.648h2.105L14.743,28.002z
			 M23.378,28.002h-2.395l1.227-1.521C22.697,26.917,23.108,27.422,23.378,28.002L23.378,28.002z M21.344,25.819l-1.759,2.183
			h-3.451l2.699-3.397C19.623,24.886,20.527,25.283,21.344,25.819L21.344,25.819z M17.724,24.251l-1.602,2.014h-3.835L10.67,24.23
			c0.523-0.141,0.862-0.206,0.876-0.209c0.259-0.047,0.446-0.272,0.446-0.536v-1.3c0.669,0.344,1.4,0.53,2.166,0.53
			c0.767,0,1.499-0.187,2.167-0.53v1.3c0,0.264,0.188,0.489,0.447,0.536C16.786,24.024,17.159,24.094,17.724,24.251L17.724,24.251z
			 M14.158,21.629c-2.349,0-4.294-2.299-4.594-5.267c0.915-0.58,4.05-2.461,7.075-3.055c0.204,0.937,0.756,2.803,2.03,3.658
			C18.183,19.638,16.346,21.629,14.158,21.629L14.158,21.629z M9.522,15.106v-0.364c0.504-1.157,2.512-2.052,4.641-2.052
			c0.166,0,0.33,0.006,0.492,0.017C12.523,13.4,10.581,14.47,9.522,15.106L9.522,15.106z M18.797,15.563c0,0.02,0,0.039-0.001,0.057
			c-0.438-0.531-0.744-1.276-0.938-1.926c0.44,0.303,0.771,0.659,0.938,1.048V15.563L18.797,15.563z M18.797,13.05
			c-1.087-0.886-2.79-1.449-4.634-1.449c-1.847,0-3.554,0.564-4.641,1.451v-0.997c0-1.44,2.126-2.659,4.641-2.659
			c2.512,0,4.634,1.219,4.634,2.659V13.05z M19.884,12.554v-0.498c0-2.101-2.512-3.747-5.721-3.747c-1.482,0-2.886,0.362-3.95,1.019
			c-1.148,0.708-1.78,1.677-1.78,2.728v0.498L4.169,9.311l9.989-7.188l9.991,7.188L19.884,12.554z M19.884,12.554"/>
	</g>
</g>
</svg>
