<?xml version="1.0" encoding="utf-8"?>
<!-- Generator: Adobe Illustrator 18.1.1, SVG Export Plug-In . SVG Version: 6.00 Build 0)  -->
<svg version="1.0" id="Layer_1" xmlns="http://www.w3.org/2000/svg" xmlns:xlink="http://www.w3.org/1999/xlink" x="0px" y="0px"
	 width="30px" height="60px" viewBox="0 0 30 60" enable-background="new 0 0 30 60" xml:space="preserve">
<rect opacity="0" width="30" height="60"/>
<g opacity="0.56">
	<path fill="#333333" d="M15,17.9l-8.4-2.6v4.3c0,2,3.8,3.6,8.4,3.6c4.6,0,8.4-1.6,8.4-3.6c0,0,0,0,0,0v-4.3L15,17.9z M15,17.9"/>
	<path fill="#333333" d="M0.9,12.3l3,1.1l0.3-0.5l1.1-0.1l0.2,0.2l-0.9,0.2l-0.1,0.4c0,0-2.1,4.5-1.8,6.7c0,0,1.3,0.8,2.7,0l0.4-6
		v-0.5l2-0.4l-0.1,0.3l-1.5,0.5l0.7,0.2l8.4,2.6l8.4-2.6l5.7-2L15,6.9L0.9,12.3z M0.9,12.3"/>
</g>
<g>
	<path fill="#333333" d="M15,47.8l-8.4-2.6v4.3c0,2,3.8,3.6,8.4,3.6c4.6,0,8.4-1.6,8.4-3.6c0,0,0,0,0,0v-4.3L15,47.8z M15,47.8"/>
	<path fill="#333333" d="M0.9,42.3l3,1.1l0.3-0.5l1.1-0.1l0.2,0.2l-0.9,0.2l-0.1,0.4c0,0-2.1,4.5-1.8,6.7c0,0,1.3,0.8,2.7,0l0.4-6
		v-0.5l2-0.4l-0.1,0.3L5.9,44l0.7,0.2l8.4,2.6l8.4-2.6l5.7-2L15,36.8L0.9,42.3z M0.9,42.3"/>
</g>
<g display="none">
	<g display="inline" opacity="0.56">
		<path fill="#333333" d="M16,17v-0.5c0-0.6-0.5-1-1-1c-0.6,0-1,0.5-1,1V17c0,0.6,0.5,1,1,1C15.6,18,16,17.5,16,17L16,17z M16,17"/>
		<g>
			<path fill="#333333" d="M16.8,17.6c-0.2,0.8-0.9,1.3-1.8,1.3c-0.8,0-1.5-0.6-1.8-1.3H6.1c-0.5,0-0.9-0.1-1.3-0.3V22
				c0,0.9,0.8,1.7,1.7,1.7h17c0.9,0,1.7-0.8,1.7-1.7v-4.8c-0.4,0.2-0.8,0.3-1.3,0.3H16.8z M16.8,17.6"/>
			<path fill="#333333" d="M23.9,9h-4.1c-0.2-1.5-1.6-2.7-3.2-2.7h-3.3c-1.6,0-2.9,1.2-3.2,2.7H6.1c-1,0-1.8,0.8-1.8,1.7v3.9
				c0,0.9,0.8,1.7,1.7,1.7h7.1c0-0.5,0.2-0.9,0.6-1.2c0,0,0,0,0,0c0.1-0.1,0.2-0.1,0.2-0.2c0,0,0.1,0,0.1-0.1c0.1,0,0.1-0.1,0.2-0.1
				c0.1,0,0.1,0,0.2-0.1c0.1,0,0.1,0,0.2,0c0.1,0,0.2,0,0.4,0c0.1,0,0.2,0,0.4,0c0.1,0,0.1,0,0.2,0c0.1,0,0.1,0,0.2,0.1
				c0.1,0,0.1,0.1,0.2,0.1c0,0,0.1,0,0.1,0.1c0.1,0.1,0.2,0.1,0.2,0.2c0,0,0,0,0,0c0.3,0.3,0.5,0.8,0.6,1.2h7.1
				c0.9,0,1.7-0.8,1.7-1.7v-3.9C25.6,9.7,24.8,9,23.9,9L23.9,9z M11.8,9c0.2-0.7,0.8-1.1,1.5-1.1h3.3c0.7,0,1.3,0.5,1.5,1.1H11.8z
				 M11.8,9"/>
		</g>
	</g>
	<g display="inline">
		<path fill="#333333" d="M16,47v-0.5c0-0.6-0.5-1-1-1c-0.6,0-1,0.5-1,1V47c0,0.6,0.5,1,1,1C15.6,48,16,47.5,16,47L16,47z M16,47"/>
		<g>
			<path fill="#333333" d="M16.8,47.6c-0.2,0.8-0.9,1.3-1.8,1.3c-0.8,0-1.5-0.6-1.8-1.3H6.1c-0.5,0-0.9-0.1-1.3-0.3V52
				c0,0.9,0.8,1.7,1.7,1.7h17c0.9,0,1.7-0.8,1.7-1.7v-4.8c-0.4,0.2-0.8,0.3-1.3,0.3H16.8z M16.8,47.6"/>
			<path fill="#333333" d="M23.9,39h-4.1c-0.2-1.5-1.6-2.7-3.2-2.7h-3.3c-1.6,0-2.9,1.2-3.2,2.7H6.1c-1,0-1.8,0.8-1.8,1.7v3.9
				c0,0.9,0.8,1.7,1.7,1.7h7.1c0-0.5,0.2-0.9,0.6-1.2c0,0,0,0,0,0c0.1-0.1,0.2-0.1,0.2-0.2c0,0,0.1,0,0.1-0.1c0.1,0,0.1-0.1,0.2-0.1
				c0.1,0,0.1,0,0.2-0.1c0.1,0,0.1,0,0.2,0c0.1,0,0.2,0,0.4,0c0.1,0,0.2,0,0.4,0c0.1,0,0.1,0,0.2,0c0.1,0,0.1,0,0.2,0.1
				c0.1,0,0.1,0.1,0.2,0.1c0,0,0.1,0,0.1,0.1c0.1,0.1,0.2,0.1,0.2,0.2c0,0,0,0,0,0c0.3,0.3,0.5,0.8,0.6,1.2h7.1
				c0.9,0,1.7-0.8,1.7-1.7v-3.9C25.6,39.7,24.8,39,23.9,39L23.9,39z M11.8,39c0.2-0.7,0.8-1.1,1.5-1.1h3.3c0.7,0,1.3,0.5,1.5,1.1
				H11.8z M11.8,39"/>
		</g>
	</g>
</g>
<g display="none">
	<g display="inline" opacity="0.56">
		<path fill="#333333" d="M17.6,7.8c0.7-0.3,1.4-0.5,2.1-0.5c0.4,0,0.8,0.1,1.2,0.1c0.2,0,0.3-0.1,0.3-0.3l-0.1-0.4
			c0-0.7-0.9-1.3-1.9-1.3c-1,0-2,0.6-2,1.4l0,0.7C17.3,7.8,17.4,7.9,17.6,7.8L17.6,7.8z M17.6,7.8"/>
		<path fill="#333333" d="M26.3,20.6l0-0.1c0,0,0,0,0,0l-0.9-4.4c-0.1-1-0.8-1.9-1.9-2.4l-0.4-3.2c0-1.3-1.5-2.4-3.3-2.4
			c-1.8,0-3.6,1.1-3.6,2.4c0,0.1,0,0.1,0,0.2l0,0.3c-0.4-0.1-0.8-0.2-1.2-0.2c-0.4,0-0.9,0.1-1.2,0.2l0-0.3c0-0.1,0-0.1,0-0.2
			c0-1.3-1.7-2.4-3.6-2.4c-1.8,0-3.3,1.1-3.3,2.4l-0.4,3.2c-1.1,0.5-1.8,1.4-1.9,2.4l-0.9,4.4c0,0,0,0,0,0l0,0.1c0,0.1,0,0.3,0,0.4
			c0,2.1,2.2,3.8,4.8,3.8s4.8-1.7,4.8-3.8v-1.7c0.5,0.2,1,0.3,1.7,0.3c0.6,0,1.2-0.1,1.7-0.3V21c0,2.1,2.2,3.8,4.8,3.8
			c2.7,0,4.8-1.7,4.8-3.8C26.3,20.9,26.3,20.7,26.3,20.6L26.3,20.6z M8.5,23.4C6.6,23.4,5,22.3,5,21c0-1.3,1.6-2.4,3.5-2.4
			c1.9,0,3.5,1.1,3.5,2.4C12,22.3,10.4,23.4,8.5,23.4L8.5,23.4z M15,18.5c-0.8,0-1.4-0.5-1.4-1c0-0.6,0.6-1,1.4-1
			c0.8,0,1.4,0.5,1.4,1C16.4,18,15.8,18.5,15,18.5L15,18.5z M21.5,23.4c-1.9,0-3.5-1.1-3.5-2.4c0-1.3,1.6-2.4,3.5-2.4
			c1.9,0,3.5,1.1,3.5,2.4C25,22.3,23.4,23.4,21.5,23.4L21.5,23.4z M21.5,23.4"/>
		<path fill="#333333" d="M9,7.5c0.4-0.1,0.8-0.1,1.2-0.1c0.7,0,1.5,0.2,2.1,0.5c0.1,0.1,0.3,0,0.3-0.2l0-0.7c0-0.8-1-1.4-2-1.4
			c-1,0-1.9,0.6-1.9,1.3L8.7,7.3C8.7,7.4,8.9,7.6,9,7.5L9,7.5z M9,7.5"/>
	</g>
	<g display="inline">
		<path fill="#333333" d="M17.6,37.8c0.7-0.3,1.4-0.5,2.1-0.5c0.4,0,0.8,0.1,1.2,0.1c0.2,0,0.3-0.1,0.3-0.3l-0.1-0.4
			c0-0.7-0.9-1.3-1.9-1.3c-1,0-2,0.6-2,1.4l0,0.7C17.3,37.8,17.4,37.9,17.6,37.8L17.6,37.8z M17.6,37.8"/>
		<path fill="#333333" d="M26.3,50.6l0-0.1c0,0,0,0,0,0l-0.9-4.4c-0.1-1-0.8-1.9-1.9-2.4l-0.4-3.2c0-1.3-1.5-2.4-3.3-2.4
			c-1.8,0-3.6,1.1-3.6,2.4c0,0.1,0,0.1,0,0.2l0,0.3c-0.4-0.1-0.8-0.2-1.2-0.2c-0.4,0-0.9,0.1-1.2,0.2l0-0.3c0-0.1,0-0.1,0-0.2
			c0-1.3-1.7-2.4-3.6-2.4c-1.8,0-3.3,1.1-3.3,2.4l-0.4,3.2c-1.1,0.5-1.8,1.4-1.9,2.4l-0.9,4.4c0,0,0,0,0,0l0,0.1c0,0.1,0,0.3,0,0.4
			c0,2.1,2.2,3.8,4.8,3.8s4.8-1.7,4.8-3.8v-1.7c0.5,0.2,1,0.3,1.7,0.3c0.6,0,1.2-0.1,1.7-0.3V51c0,2.1,2.2,3.8,4.8,3.8
			c2.7,0,4.8-1.7,4.8-3.8C26.3,50.9,26.3,50.8,26.3,50.6L26.3,50.6z M8.5,53.4C6.6,53.4,5,52.3,5,51c0-1.3,1.6-2.4,3.5-2.4
			c1.9,0,3.5,1.1,3.5,2.4C12,52.3,10.4,53.4,8.5,53.4L8.5,53.4z M15,48.5c-0.8,0-1.4-0.5-1.4-1c0-0.6,0.6-1,1.4-1
			c0.8,0,1.4,0.5,1.4,1C16.4,48,15.8,48.5,15,48.5L15,48.5z M21.5,53.4c-1.9,0-3.5-1.1-3.5-2.4c0-1.3,1.6-2.4,3.5-2.4
			c1.9,0,3.5,1.1,3.5,2.4C25,52.3,23.4,53.4,21.5,53.4L21.5,53.4z M21.5,53.4"/>
		<path fill="#333333" d="M9,37.5c0.4-0.1,0.8-0.1,1.2-0.1c0.7,0,1.5,0.2,2.1,0.5c0.1,0.1,0.3,0,0.3-0.2l0-0.7c0-0.8-1-1.4-2-1.4
			c-1,0-1.9,0.6-1.9,1.3l-0.1,0.4C8.7,37.4,8.9,37.6,9,37.5L9,37.5z M9,37.5"/>
	</g>
</g>
<g display="none">
	<g display="inline" opacity="0.56">
		<path fill="#333333" d="M4.5,24.3h3.8V12.9H4.5V24.3z M25.5,13.9c0-1-0.9-1.9-1.9-1.9h-6l1-4.4V7.3c0-0.4-0.2-0.8-0.4-1l-1-1
			l-6.3,6.3c-0.4,0.3-0.6,0.8-0.6,1.3v9.5c0,1,0.9,1.9,1.9,1.9h8.6c0.8,0,1.4-0.5,1.7-1.1l2.9-6.8c0.1-0.2,0.1-0.5,0.1-0.7
			L25.5,13.9L25.5,13.9C25.5,14,25.5,13.9,25.5,13.9L25.5,13.9z M25.5,13.9"/>
	</g>
	<g display="inline">
		<path fill="#333333" d="M4.5,54.5h3.8V43.1H4.5V54.5z M25.5,44c0-1-0.9-1.9-1.9-1.9h-6l1-4.4v-0.3c0-0.4-0.2-0.8-0.4-1l-1-1
			l-6.3,6.3c-0.4,0.3-0.6,0.8-0.6,1.3v9.5c0,1,0.9,1.9,1.9,1.9h8.6c0.8,0,1.4-0.5,1.7-1.1l2.9-6.8c0.1-0.2,0.1-0.5,0.1-0.7L25.5,44
			L25.5,44C25.5,44.1,25.5,44,25.5,44L25.5,44z M25.5,44"/>
	</g>
</g>
</svg>
