<?xml version="1.0" encoding="utf-8"?>
<!-- Generator: Adobe Illustrator 18.1.1, SVG Export Plug-In . SVG Version: 6.00 Build 0)  -->
<svg version="1.0" id="Layer_1" xmlns="http://www.w3.org/2000/svg" xmlns:xlink="http://www.w3.org/1999/xlink" x="0px" y="0px"
	 width="20px" height="20px" viewBox="0 0 20 20" enable-background="new 0 0 20 20" xml:space="preserve">
<g display="none">
	<path display="inline" fill="#F26B55" d="M10.8,14.4l1.4-1.4c0.1-0.1,0.2-0.2,0.2-0.4c0-0.1-0.1-0.3-0.2-0.4
		c-0.2-0.2-0.6-0.2-0.8,0L10,13.7l-1.4-1.4c-0.2-0.2-0.6-0.2-0.8,0c-0.1,0.1-0.2,0.2-0.2,0.4c0,0.1,0.1,0.3,0.2,0.4l1.4,1.4
		l-1.4,1.4c-0.1,0.1-0.2,0.2-0.2,0.4c0,0.1,0.1,0.3,0.2,0.4c0.2,0.2,0.6,0.2,0.8,0l1.4-1.4l1.4,1.4c0.1,0.1,0.2,0.2,0.4,0.2
		c0.1,0,0.3-0.1,0.4-0.2c0.2-0.2,0.2-0.5,0-0.8L10.8,14.4z"/>
	<path display="inline" fill="#F26B55" d="M18.9,1.4h-3.8V0.8c0-0.3-0.3-0.6-0.6-0.6c-0.3,0-0.6,0.3-0.6,0.6v0.6h-3.4V0.8
		c0-0.3-0.3-0.6-0.6-0.6c-0.3,0-0.6,0.3-0.6,0.6v0.6H6.2V0.8c0-0.3-0.3-0.6-0.6-0.6c-0.3,0-0.6,0.3-0.6,0.6v0.6H1.1
		C0.8,1.4,0.6,1.6,0.6,2v13c0,0.3,0.3,0.6,0.6,0.6h3.5c0.6,2.4,2.7,4.2,5.3,4.2c2.6,0,4.8-1.8,5.3-4.2h3.5c0.3,0,0.6-0.3,0.6-0.6V2
		C19.4,1.6,19.2,1.4,18.9,1.4L18.9,1.4z M5.1,2.5v0.5c0,0.3,0.3,0.6,0.6,0.6c0.3,0,0.6-0.3,0.6-0.6V2.5h3.2v0.5
		c0,0.3,0.3,0.6,0.6,0.6c0.3,0,0.6-0.3,0.6-0.6V2.5h3.4v0.5c0,0.3,0.3,0.6,0.6,0.6c0.3,0,0.6-0.3,0.6-0.6V2.5h3.2v2.4H1.7V2.5H5.1z
		 M10,18.6c-2.4,0-4.3-1.9-4.3-4.3c0-2.4,1.9-4.3,4.3-4.3c2.4,0,4.3,1.9,4.3,4.3S12.4,18.6,10,18.6L10,18.6z M15.5,14.4
		C15.5,14.4,15.5,14.3,15.5,14.4c0-3.1-2.5-5.6-5.5-5.6c-3,0-5.5,2.5-5.5,5.5c0,0,0,0.1,0,0.1H1.7V6h16.6v8.4H15.5z M15.5,14.4"/>
</g>
<g>
	<path fill="#F26B55" d="M10,0.3c-5.4,0-9.7,4.4-9.7,9.7c0,5.4,4.4,9.7,9.7,9.7c5.4,0,9.7-4.4,9.7-9.7C19.7,4.6,15.4,0.3,10,0.3
		L10,0.3z M2.1,10c0-4.4,3.6-7.9,7.9-7.9c2,0,3.8,0.7,5.2,1.9L4,15.2C2.8,13.8,2.1,12,2.1,10L2.1,10z M10,17.9
		c-1.8,0-3.4-0.6-4.7-1.6L16.4,5.3c1,1.3,1.6,2.9,1.6,4.7C17.9,14.4,14.4,17.9,10,17.9L10,17.9z M10,17.9"/>
</g>
</svg>
