<?xml version="1.0" encoding="utf-8"?>
<!-- Generator: Adobe Illustrator 16.0.0, SVG Export Plug-In . SVG Version: 6.00 Build 0)  -->
<!DOCTYPE svg PUBLIC "-//W3C//DTD SVG 1.1//EN" "http://www.w3.org/Graphics/SVG/1.1/DTD/svg11.dtd">
<svg version="1.1" id="Layer_1" xmlns="http://www.w3.org/2000/svg" xmlns:xlink="http://www.w3.org/1999/xlink" x="0px" y="0px"
	 width="55px" height="55px" viewBox="0 0 55 55" enable-background="new 0 0 55 55" xml:space="preserve">
<rect display="none" width="55" height="55"/>
<g>
	<g>
		<defs>
			<rect id="SVGID_1_" x="3.156" y="1.933" width="48.688" height="51.135"/>
		</defs>
		<clipPath id="SVGID_2_">
			<use xlink:href="#SVGID_1_"  overflow="visible"/>
		</clipPath>
		<path clip-path="url(#SVGID_2_)" fill="#99DFF9" d="M47.518,9.094h-5.073V3.126c0-1.591-2.485-1.591-2.485,0v5.968H14.893V3.126
			c0-1.591-2.486-1.591-2.486,0v5.968H7.333c-2.287,0-4.177,1.891-4.177,4.178v35.51c0,2.286,1.89,4.176,4.177,4.176h40.284
			c2.287,0,4.178-1.89,4.178-4.176v-35.51C51.694,10.984,49.805,9.094,47.518,9.094L47.518,9.094z M7.235,11.58h5.072v4.377
			c0,1.592,2.488,1.592,2.488,0V11.58h25.063v4.377c0,1.592,2.486,1.592,2.486,0V11.58h5.072c0.996,0,1.791,0.796,1.791,1.791v8.355
			H5.444v-8.355C5.444,12.376,6.24,11.58,7.235,11.58L7.235,11.58z M47.518,50.57H7.235c-0.995,0-1.791-0.795-1.791-1.789V24.212
			h43.764v24.569C49.208,49.775,48.413,50.57,47.518,50.57L47.518,50.57z M47.518,50.57"/>
	</g>
	<path fill="#99DFF9" d="M16.186,32.965c0,1.154-0.935,2.09-2.089,2.09c-1.153,0-2.088-0.936-2.088-2.09
		c0-1.152,0.935-2.088,2.088-2.088C15.251,30.877,16.186,31.813,16.186,32.965L16.186,32.965z M16.186,32.965"/>
	<path fill="#99DFF9" d="M16.186,42.812c0,1.154-0.935,2.09-2.089,2.09c-1.153,0-2.088-0.936-2.088-2.09
		c0-1.152,0.935-2.088,2.088-2.088C15.251,40.724,16.186,41.659,16.186,42.812L16.186,42.812z M16.186,42.812"/>
	<path fill="#99DFF9" d="M42.743,32.965c0,1.154-0.935,2.09-2.09,2.09c-1.153,0-2.088-0.936-2.088-2.09
		c0-1.152,0.935-2.088,2.088-2.088C41.809,30.877,42.743,31.813,42.743,32.965L42.743,32.965z M42.743,32.965"/>
	<path fill="#99DFF9" d="M42.743,42.812c0,1.154-0.935,2.09-2.09,2.09c-1.153,0-2.088-0.936-2.088-2.09
		c0-1.152,0.935-2.088,2.088-2.088C41.809,40.724,42.743,41.659,42.743,42.812L42.743,42.812z M42.743,42.812"/>
	<path fill="#99DFF9" d="M29.414,32.965c0,1.154-0.935,2.09-2.087,2.09c-1.153,0-2.089-0.936-2.089-2.09
		c0-1.152,0.936-2.088,2.089-2.088C28.479,30.877,29.414,31.813,29.414,32.965L29.414,32.965z M29.414,32.965"/>
	<path fill="#99DFF9" d="M29.414,42.812c0,1.154-0.935,2.09-2.087,2.09c-1.153,0-2.089-0.936-2.089-2.09
		c0-1.152,0.936-2.088,2.089-2.088C28.479,40.724,29.414,41.659,29.414,42.812L29.414,42.812z M29.414,42.812"/>
</g>
</svg>
