<?xml version="1.0" encoding="utf-8"?>
<!-- Generator: Adobe Illustrator 16.0.0, SVG Export Plug-In . SVG Version: 6.00 Build 0)  -->
<!DOCTYPE svg PUBLIC "-//W3C//DTD SVG 1.1//EN" "http://www.w3.org/Graphics/SVG/1.1/DTD/svg11.dtd">
<svg version="1.1" id="Layer_1" xmlns="http://www.w3.org/2000/svg" xmlns:xlink="http://www.w3.org/1999/xlink" x="0px" y="0px"
	 width="30px" height="30px" viewBox="0 0 30 30" enable-background="new 0 0 30 30" xml:space="preserve">
<g>
	<path fill="#FFFFFF" d="M21.021,15.529c0.249-0.249,0.249-0.64,0-0.889c-0.241-0.25-0.643-0.25-0.884,0l-4.513,4.506V4.256
		c0-0.348-0.277-0.632-0.622-0.632c-0.348,0-0.633,0.285-0.633,0.632v14.889L9.861,14.64c-0.249-0.25-0.648-0.25-0.889,0
		c-0.25,0.25-0.25,0.64,0,0.889l5.583,5.584c0.242,0.239,0.641,0.239,0.891,0L21.021,15.529z M25.444,19.617
		c0-0.349,0.276-0.623,0.624-0.623s0.633,0.274,0.633,0.623v6.127c0,0.347-0.285,0.632-0.633,0.632H3.923
		c-0.348,0-0.625-0.285-0.625-0.632v-6.127c0-0.349,0.277-0.623,0.625-0.623c0.345,0,0.63,0.274,0.63,0.623v5.502h20.891V19.617z
		 M25.444,19.617"/>
</g>
</svg>
