<?xml version="1.0" encoding="utf-8"?>
<!-- Generator: Adobe Illustrator 16.0.0, SVG Export Plug-In . SVG Version: 6.00 Build 0)  -->
<!DOCTYPE svg PUBLIC "-//W3C//DTD SVG 1.1//EN" "http://www.w3.org/Graphics/SVG/1.1/DTD/svg11.dtd">
<svg version="1.1" id="Layer_1" xmlns="http://www.w3.org/2000/svg" xmlns:xlink="http://www.w3.org/1999/xlink" x="0px" y="0px"
	 width="60px" height="60px" viewBox="0 0 60 60" enable-background="new 0 0 60 60" xml:space="preserve">
<g>
	<path fill="#2AACE3" d="M18.058,38.336c0-0.967-0.67-1.542-1.853-1.542c-0.482,0-0.809,0.047-0.98,0.092v3.097
		c0.203,0.048,0.452,0.063,0.796,0.063C17.278,40.046,18.058,39.407,18.058,38.336L18.058,38.336z M18.058,38.336"/>
	<path fill="#2AACE3" d="M25.374,36.825c-0.529,0-0.872,0.045-1.073,0.095v6.859c0.202,0.047,0.529,0.047,0.824,0.047
		c2.147,0.016,3.548-1.167,3.548-3.67C28.688,37.979,27.412,36.825,25.374,36.825L25.374,36.825z M25.374,36.825"/>
	<path fill="#2AACE3" d="M38.969,0.934H15.621c-3.411,0-6.188,2.778-6.188,6.188V30H8.829c-1.377,0-2.493,1.116-2.493,2.493v15.12
		c0,1.378,1.116,2.492,2.493,2.492h0.604v2.773c0,3.412,2.777,6.188,6.188,6.188h31.856c3.409,0,6.187-2.775,6.187-6.188V15.577
		L38.969,0.934z M12.876,35.223c0.731-0.124,1.758-0.218,3.205-0.218c1.462,0,2.505,0.278,3.205,0.84
		c0.669,0.528,1.12,1.4,1.12,2.426c0,1.027-0.342,1.898-0.964,2.49c-0.81,0.762-2.007,1.105-3.408,1.105
		c-0.312,0-0.591-0.016-0.81-0.047v3.749h-2.349V35.223z M47.478,55.277H15.621c-1.321,0-2.396-1.077-2.396-2.398v-2.773h29.698
		c1.377,0,2.493-1.114,2.493-2.492v-15.12c0-1.377-1.116-2.493-2.493-2.493H13.225V7.121c0-1.319,1.075-2.395,2.396-2.395
		l21.931-0.023v8.107c0,2.367,1.92,4.29,4.29,4.29l7.94-0.022l0.09,35.801C49.872,54.2,48.799,55.277,47.478,55.277L47.478,55.277z
		 M21.921,45.521V35.223c0.87-0.14,2.007-0.218,3.204-0.218c1.991,0,3.283,0.357,4.295,1.119c1.089,0.809,1.773,2.102,1.773,3.953
		c0,2.007-0.73,3.392-1.743,4.246c-1.104,0.919-2.785,1.353-4.839,1.353C23.383,45.676,22.512,45.6,21.921,45.521L21.921,45.521z
		 M38.901,39.423v1.929h-3.766v4.217h-2.381V35.083h6.41v1.944h-4.029v2.396H38.901z M38.901,39.423"/>
</g>
</svg>
