<?xml version="1.0" encoding="utf-8"?>
<!-- Generator: Adobe Illustrator 16.0.0, SVG Export Plug-In . SVG Version: 6.00 Build 0)  -->
<!DOCTYPE svg PUBLIC "-//W3C//DTD SVG 1.1//EN" "http://www.w3.org/Graphics/SVG/1.1/DTD/svg11.dtd">
<svg version="1.1" id="Layer_1" xmlns="http://www.w3.org/2000/svg" xmlns:xlink="http://www.w3.org/1999/xlink" x="0px" y="0px"
	 width="20px" height="20px" viewBox="0 0 20 20" enable-background="new 0 0 20 20" xml:space="preserve">
<g display="none">
	<path display="inline" fill="#101124" d="M16.044,10.005c-0.243,0-0.48,0.034-0.713,0.094V9.984c0-0.559-0.453-1.014-1.013-1.014
		H2.587c-0.56,0-1.014,0.455-1.014,1.014v4.83c0,1.405,0.657,2.773,1.725,3.611v0.53c0,0.558,0.455,1.013,1.014,1.013h8.281
		c0.56,0,1.014-0.455,1.014-1.013v-0.53c0.755-0.591,1.304-1.448,1.561-2.396c0.281,0.095,0.575,0.143,0.877,0.143
		c1.509,0,2.738-1.229,2.738-2.738v-0.69C18.782,11.233,17.553,10.005,16.044,10.005L16.044,10.005z M15.331,12.744
		c0-0.394,0.32-0.711,0.713-0.711s0.712,0.317,0.712,0.711v0.69c0,0.391-0.319,0.712-0.712,0.712s-0.713-0.321-0.713-0.712V12.744z
		 M12.593,19.321H4.312c-0.202,0-0.366-0.164-0.366-0.365v-0.367h9.014v0.367C12.959,19.157,12.794,19.321,12.593,19.321
		L12.593,19.321z M14.685,14.814c0,1.225-0.575,2.412-1.509,3.128H3.729c-0.933-0.716-1.508-1.903-1.508-3.128v-4.83
		c0-0.202,0.163-0.367,0.366-0.367h11.731c0.202,0,0.366,0.166,0.366,0.367V14.814z M18.136,13.435c0,1.152-0.939,2.093-2.092,2.093
		c-0.26,0-0.511-0.047-0.748-0.139c0.023-0.19,0.035-0.382,0.035-0.574v-0.224c0.208,0.129,0.452,0.202,0.713,0.202
		c0.75,0,1.358-0.61,1.358-1.358v-0.69c0-0.749-0.608-1.358-1.358-1.358c-0.261,0-0.505,0.075-0.713,0.202v-0.811
		c0.229-0.083,0.466-0.124,0.713-0.124c1.152,0,2.092,0.939,2.092,2.091V13.435z M18.136,13.435"/>
	<path display="inline" fill="#101124" d="M8.233,6.411C7.88,6.735,7.439,7.14,7.439,7.915c0,0.178,0.145,0.324,0.324,0.324
		c0.177,0,0.324-0.146,0.324-0.324c0-0.491,0.257-0.728,0.584-1.026c0.354-0.325,0.794-0.729,0.794-1.503
		c0-0.776-0.44-1.179-0.794-1.504C8.344,3.582,8.087,3.344,8.087,2.854c0-0.489,0.257-0.727,0.584-1.027
		c0.354-0.325,0.794-0.729,0.794-1.504C9.466,0.144,9.32,0,9.144,0c-0.18,0-0.324,0.144-0.324,0.323
		c0,0.491-0.259,0.727-0.586,1.027C7.88,1.675,7.439,2.079,7.439,2.854s0.44,1.18,0.794,1.503C8.56,4.658,8.819,4.895,8.819,5.385
		S8.56,6.111,8.233,6.411L8.233,6.411z M8.233,6.411"/>
	<path display="inline" fill="#101124" d="M10.305,6.411C9.95,6.735,9.51,7.14,9.51,7.915c0,0.178,0.145,0.324,0.324,0.324
		c0.177,0,0.322-0.146,0.322-0.324c0-0.491,0.259-0.728,0.585-1.026c0.354-0.325,0.795-0.729,0.795-1.503
		c0-0.776-0.44-1.179-0.795-1.504c-0.326-0.299-0.585-0.537-0.585-1.027c0-0.179-0.145-0.323-0.322-0.323
		c-0.18,0-0.324,0.145-0.324,0.323c0,0.775,0.44,1.18,0.795,1.503c0.327,0.301,0.585,0.538,0.585,1.028S10.632,6.111,10.305,6.411
		L10.305,6.411z M10.305,6.411"/>
	<path display="inline" fill="#101124" d="M6.164,6.411C5.81,6.735,5.369,7.14,5.369,7.915c0,0.178,0.144,0.324,0.323,0.324
		c0.179,0,0.325-0.146,0.325-0.324c0-0.491,0.256-0.728,0.584-1.026c0.354-0.325,0.795-0.729,0.795-1.503
		c0-0.776-0.44-1.179-0.795-1.504C6.273,3.582,6.017,3.344,6.017,2.854c0-0.179-0.146-0.323-0.325-0.323
		c-0.179,0-0.323,0.145-0.323,0.323c0,0.775,0.441,1.18,0.795,1.503c0.328,0.301,0.585,0.538,0.585,1.028S6.491,6.111,6.164,6.411
		L6.164,6.411z M6.164,6.411"/>
</g>
<g display="none">
	<path display="inline" fill="#101124" d="M9.081,6.091c-0.17,0-0.307-0.138-0.307-0.307c0-0.466,0.127-0.71,0.239-0.925
		c0.094-0.181,0.17-0.325,0.17-0.641c0-0.317-0.076-0.46-0.17-0.642C8.901,3.362,8.774,3.119,8.774,2.651
		c0-0.466,0.127-0.71,0.239-0.925c0.094-0.182,0.17-0.326,0.17-0.642c0-0.169,0.136-0.307,0.306-0.307
		c0.169,0,0.307,0.138,0.307,0.307c0,0.466-0.128,0.71-0.239,0.925C9.462,2.191,9.388,2.335,9.388,2.651
		c0,0.317,0.074,0.46,0.169,0.642c0.111,0.215,0.239,0.458,0.239,0.926c0,0.466-0.128,0.71-0.239,0.924
		C9.462,5.325,9.388,5.469,9.388,5.785C9.388,5.954,9.25,6.091,9.081,6.091L9.081,6.091z M9.081,6.091"/>
	<path display="inline" fill="#101124" d="M11.532,6.091c-0.169,0-0.307-0.138-0.307-0.307c0-0.466,0.128-0.71,0.24-0.925
		c0.094-0.181,0.169-0.325,0.169-0.641c0-0.317-0.075-0.46-0.169-0.642c-0.112-0.215-0.24-0.458-0.24-0.926
		c0-0.466,0.128-0.71,0.24-0.925c0.094-0.182,0.169-0.326,0.169-0.642c0-0.169,0.137-0.307,0.306-0.307
		c0.17,0,0.307,0.138,0.307,0.307c0,0.466-0.127,0.71-0.238,0.925c-0.095,0.181-0.17,0.325-0.17,0.641
		c0,0.317,0.075,0.46,0.17,0.642c0.111,0.215,0.238,0.458,0.238,0.926c0,0.466-0.127,0.71-0.238,0.924
		c-0.095,0.182-0.17,0.326-0.17,0.642C11.839,5.954,11.702,6.091,11.532,6.091L11.532,6.091z M11.532,6.091"/>
	<path display="inline" fill="#101124" d="M15.313,16.565H5.709c-0.846,0-1.532-0.688-1.532-1.534v-2.159
		c-2.087-0.014-3.781-1.716-3.781-3.805c0-0.81,0.252-1.583,0.729-2.237c0.058-0.079,0.15-0.126,0.248-0.126h15.167
		c0.169,0,0.307,0.138,0.307,0.307v8.02C16.846,15.877,16.159,16.565,15.313,16.565L15.313,16.565z M1.532,7.317
		c-0.343,0.52-0.523,1.122-0.523,1.75c0,1.759,1.432,3.191,3.191,3.191h0.283c0.168,0,0.306,0.137,0.306,0.307v2.466
		c0,0.509,0.412,0.922,0.92,0.922h9.604c0.506,0,0.919-0.413,0.919-0.922V7.317H1.532z M4.483,11.646H4.2
		c-1.422,0-2.578-1.158-2.578-2.579c0-0.326,0.06-0.643,0.178-0.943c0.046-0.117,0.158-0.194,0.285-0.194h2.398
		c0.168,0,0.306,0.137,0.306,0.307v3.103C4.789,11.509,4.651,11.646,4.483,11.646L4.483,11.646z M2.306,8.544
		c-0.048,0.169-0.07,0.344-0.07,0.523c0,1.075,0.868,1.952,1.941,1.964V8.544H2.306z M2.306,8.544"/>
	<path display="inline" fill="#101124" d="M14.904,14.931c-0.169,0-0.306-0.138-0.306-0.308v-4.75c0-0.17,0.137-0.307,0.306-0.307
		s0.307,0.137,0.307,0.307v4.75C15.211,14.793,15.073,14.931,14.904,14.931L14.904,14.931z M14.904,14.931"/>
	<path display="inline" fill="#101124" d="M14.904,8.952c-0.169,0-0.306-0.136-0.306-0.306V7.011c0-0.169,0.137-0.307,0.306-0.307
		s0.307,0.138,0.307,0.307v1.635C15.211,8.816,15.073,8.952,14.904,8.952L14.904,8.952z M14.904,8.952"/>
	<g display="inline">
		<path fill="#101124" d="M17.868,19.222H3.154c-0.474,0-0.946-0.356-1.076-0.813l-0.24-0.84c-0.047-0.163,0.047-0.334,0.211-0.38
			c0.162-0.046,0.332,0.049,0.379,0.211l0.239,0.842c0.056,0.19,0.287,0.366,0.487,0.366h14.714c0.2,0,0.431-0.176,0.486-0.366
			l0.239-0.842c0.047-0.162,0.217-0.257,0.38-0.211c0.162,0.046,0.257,0.217,0.21,0.38l-0.241,0.84
			C18.814,18.865,18.34,19.222,17.868,19.222L17.868,19.222z M17.868,19.222"/>
		<path fill="#101124" d="M19.298,17.791H1.725c-0.17,0-0.308-0.137-0.308-0.308c0-0.168,0.138-0.305,0.308-0.305h17.573
			c0.17,0,0.307,0.137,0.307,0.305C19.604,17.654,19.468,17.791,19.298,17.791L19.298,17.791z M19.298,17.791"/>
	</g>
</g>
<g display="none">
	<g display="inline">
		<path fill="#101124" stroke="#090924" stroke-width="0.5" stroke-miterlimit="10" d="M4.54,19.275
			c-0.662,0-1.276-0.277-1.826-0.828c-1.249-1.249-1.583-3.246-0.943-5.626c0.628-2.326,2.121-4.755,4.203-6.837
			C6.35,5.608,6.737,5.251,7.133,4.916c0.013-0.022,0.029-0.042,0.048-0.061C7.208,4.83,7.239,4.811,7.272,4.799
			c1.76-1.463,3.683-2.516,5.541-3.018c2.379-0.641,4.377-0.306,5.626,0.942c0.556,0.556,0.834,1.177,0.828,1.847
			c-0.016,1.827-2.088,3.829-4.712,6.363c-0.596,0.575-1.211,1.168-1.836,1.793c-0.625,0.626-1.219,1.241-1.795,1.837
			c-2.534,2.624-4.536,4.697-6.363,4.712C4.554,19.275,4.547,19.275,4.54,19.275L4.54,19.275z M2.455,12.379
			c-0.064,0.194-0.123,0.389-0.174,0.581c-0.59,2.188-0.304,4.006,0.806,5.115c0.458,0.457,0.94,0.677,1.469,0.673
			c1.606-0.013,3.637-2.115,5.99-4.551c0.576-0.598,1.172-1.213,1.801-1.842c0.628-0.629,1.245-1.225,1.842-1.801
			c2.435-2.352,4.537-4.383,4.551-5.989c0.005-0.53-0.215-1.011-0.674-1.469c-1.109-1.11-2.927-1.396-5.115-0.806
			c-0.192,0.052-0.386,0.11-0.58,0.174c0.573,0.483,1.894,1.647,2.211,2.349c0.243,0.534,0.151,1.143-0.225,1.482
			c-0.175,0.157-0.664,0.471-1.451,0.009c-0.988-0.579-2.837-2.207-3.245-2.569C9.013,4.127,8.374,4.58,7.755,5.084
			c0.606,0.664,2.375,2.665,2.763,3.829c0.164,0.493,0.007,1.122-0.373,1.495c-0.222,0.219-0.715,0.54-1.53,0.253
			c-1.142-0.403-3.008-2.329-3.541-2.897C4.57,8.384,4.118,9.022,3.726,9.67c0.362,0.408,1.991,2.256,2.57,3.244
			c0.462,0.787,0.147,1.277-0.009,1.451c-0.338,0.376-0.948,0.468-1.482,0.226C4.102,14.271,2.938,12.952,2.455,12.379L2.455,12.379
			z M2.662,11.805c0.449,0.551,1.736,2.022,2.36,2.306c0.322,0.147,0.689,0.105,0.873-0.098c0.17-0.189,0.15-0.483-0.054-0.833
			c-0.501-0.854-1.894-2.461-2.395-3.03C3.14,10.699,2.877,11.254,2.662,11.805L2.662,11.805z M5.416,7.357
			c0.444,0.474,2.325,2.437,3.375,2.807c0.41,0.145,0.751,0.1,0.985-0.131c0.264-0.259,0.331-0.688,0.242-0.953
			C9.663,8.015,7.92,6.048,7.351,5.423C7.009,5.719,6.673,6.03,6.347,6.356C6.021,6.682,5.711,7.016,5.416,7.357L5.416,7.357z
			 M10.141,3.456c0.568,0.5,2.176,1.893,3.03,2.395c0.349,0.204,0.645,0.224,0.833,0.054c0.203-0.184,0.244-0.55,0.099-0.873
			c-0.284-0.625-1.756-1.911-2.308-2.36C11.244,2.887,10.689,3.15,10.141,3.456L10.141,3.456z M10.141,3.456"/>
	</g>
</g>
<g display="none">
	<g display="inline">
		<path fill="#090924" stroke="#090924" stroke-width="0.5" stroke-miterlimit="10" d="M12.578,5.024
			c0-0.771,0.629-1.397,1.396-1.397h1.748c0.254,0,0.461-0.207,0.461-0.462c0-0.259,0.207-0.469,0.467-0.469s0.469,0.21,0.469,0.469
			c0,0.771-0.629,1.397-1.396,1.397h-1.748c-0.252,0-0.461,0.207-0.461,0.462c0,0.254,0.209,0.461,0.461,0.461h4.227
			c0.771,0,1.398,0.627,1.398,1.397c0,0.772-0.627,1.398-1.398,1.398h-3.258c-0.256,0-0.461,0.207-0.461,0.462v0.93
			c0,0.258-0.209,0.468-0.469,0.468c-0.258,0-0.469-0.21-0.469-0.468v-0.93c0-0.771,0.627-1.398,1.398-1.398h3.258
			c0.254,0,0.463-0.206,0.463-0.462c0-0.253-0.209-0.46-0.463-0.46h-4.227C13.207,6.423,12.578,5.795,12.578,5.024L12.578,5.024z
			 M19.51,16.836c0,0.257-0.209,0.468-0.467,0.468h-1.074c-0.006,0-0.01,0-0.012,0c-0.004,0-0.01,0-0.014,0H2.019
			c-0.007,0-0.016,0-0.023,0H0.868c-0.259,0-0.468-0.211-0.468-0.468c0-0.259,0.208-0.469,0.468-0.469h0.671v-1.446
			c0-2.04,0.8-3.964,2.252-5.416c1.253-1.253,2.856-2.02,4.583-2.206V6.583c0-0.888,0.722-1.608,1.608-1.608
			c0.887,0,1.606,0.721,1.606,1.608v0.716c0.295,0.031,0.582,0.081,0.865,0.146c0.254,0.058,0.412,0.308,0.354,0.561
			c-0.057,0.252-0.309,0.409-0.561,0.353c-0.486-0.11-0.986-0.168-1.489-0.168H9.205c-3.71,0-6.729,3.019-6.729,6.731v1.446h15.013
			v-1.446c0-1.834-0.732-3.552-2.063-4.837c-0.186-0.179-0.191-0.476-0.012-0.662c0.178-0.186,0.475-0.19,0.662-0.012
			c1.514,1.464,2.348,3.419,2.348,5.511v1.446h0.619C19.301,16.367,19.51,16.577,19.51,16.836L19.51,16.836z M9.31,7.254h1.342
			V6.583c0-0.37-0.3-0.672-0.67-0.672S9.31,6.213,9.31,6.583V7.254z M3.362,14.843c-0.018,0.26,0.177,0.483,0.435,0.501
			c0.011,0,0.022,0,0.033,0c0.244,0,0.45-0.188,0.467-0.437c0.191-2.753,2.423-4.912,5.081-4.912c0.259,0,0.469-0.21,0.469-0.469
			S9.636,9.059,9.377,9.059C6.229,9.059,3.586,11.599,3.362,14.843L3.362,14.843z M3.362,14.843"/>
	</g>
</g>
<g>
	<g>
		<path fill="#090924" d="M13.686,0.549H4.173c-0.638,0-1.158,0.52-1.158,1.158v16.585c0,0.637,0.52,1.158,1.158,1.158h11.653
			c0.639,0,1.158-0.521,1.158-1.158V4.133L13.686,0.549z M13.961,2.284l1.445,1.571h-1.445V2.284z M16.012,18.291
			c0,0.104-0.082,0.186-0.186,0.186H4.173c-0.102,0-0.185-0.082-0.185-0.186V1.708c0-0.102,0.083-0.185,0.185-0.185h8.813v2.819
			c0,0.269,0.219,0.486,0.488,0.486h2.537V18.291z M5.706,5.726h8.265c0.201,0,0.365,0.164,0.365,0.364
			c0,0.202-0.164,0.366-0.365,0.366H5.706c-0.202,0-0.366-0.164-0.366-0.366C5.34,5.89,5.504,5.726,5.706,5.726L5.706,5.726z
			 M14.336,8.542c0,0.2-0.164,0.364-0.365,0.364H5.706c-0.202,0-0.366-0.164-0.366-0.364c0-0.202,0.164-0.365,0.366-0.365h8.265
			C14.172,8.177,14.336,8.34,14.336,8.542L14.336,8.542z M14.336,10.912c0,0.201-0.164,0.365-0.365,0.365H5.706
			c-0.202,0-0.366-0.164-0.366-0.365c0-0.202,0.164-0.366,0.366-0.366h8.265C14.172,10.546,14.336,10.71,14.336,10.912
			L14.336,10.912z M14.336,13.322c0,0.201-0.164,0.365-0.365,0.365H5.706c-0.202,0-0.366-0.164-0.366-0.365s0.164-0.365,0.366-0.365
			h8.265C14.172,12.957,14.336,13.121,14.336,13.322L14.336,13.322z M14.336,13.322"/>
	</g>
</g>
</svg>
