<?xml version="1.0" encoding="utf-8"?>
<!-- Generator: Adobe Illustrator 16.0.0, SVG Export Plug-In . SVG Version: 6.00 Build 0)  -->
<!DOCTYPE svg PUBLIC "-//W3C//DTD SVG 1.1//EN" "http://www.w3.org/Graphics/SVG/1.1/DTD/svg11.dtd">
<svg version="1.1" id="Layer_1" xmlns="http://www.w3.org/2000/svg" xmlns:xlink="http://www.w3.org/1999/xlink" x="0px" y="0px"
	 width="20px" height="20px" viewBox="0 0 20 20" enable-background="new 0 0 20 20" xml:space="preserve">
<g display="none">
	<path display="inline" fill="#101124" d="M16.044,10.005c-0.243,0-0.479,0.034-0.713,0.094V9.984c0-0.559-0.453-1.014-1.013-1.014
		H2.587c-0.56,0-1.014,0.455-1.014,1.014v4.831c0,1.404,0.657,2.772,1.725,3.61v0.53c0,0.559,0.455,1.013,1.014,1.013h8.281
		c0.56,0,1.015-0.454,1.015-1.013v-0.53c0.754-0.591,1.304-1.448,1.561-2.396c0.281,0.095,0.575,0.143,0.877,0.143
		c1.51,0,2.738-1.229,2.738-2.738v-0.689C18.782,11.232,17.553,10.005,16.044,10.005L16.044,10.005z M15.331,12.744
		c0-0.395,0.319-0.711,0.713-0.711s0.712,0.316,0.712,0.711v0.689c0,0.392-0.318,0.713-0.712,0.713s-0.713-0.321-0.713-0.713V12.744
		z M12.593,19.32H4.312c-0.202,0-0.366-0.163-0.366-0.364v-0.367h9.014v0.367C12.959,19.157,12.794,19.32,12.593,19.32L12.593,19.32
		z M14.686,14.814c0,1.225-0.576,2.412-1.51,3.127H3.729c-0.933-0.715-1.508-1.902-1.508-3.127V9.984
		c0-0.202,0.163-0.367,0.366-0.367h11.731c0.201,0,0.365,0.166,0.365,0.367v4.831H14.686z M18.136,13.436
		c0,1.151-0.938,2.092-2.092,2.092c-0.26,0-0.511-0.047-0.748-0.139c0.022-0.189,0.035-0.382,0.035-0.574v-0.224
		c0.208,0.13,0.452,0.202,0.713,0.202c0.75,0,1.358-0.609,1.358-1.357v-0.69c0-0.749-0.608-1.358-1.358-1.358
		c-0.261,0-0.505,0.075-0.713,0.202v-0.812c0.229-0.082,0.466-0.123,0.713-0.123c1.151,0,2.092,0.938,2.092,2.091V13.436z"/>
	<path display="inline" fill="#101124" d="M8.233,6.411C7.88,6.735,7.439,7.14,7.439,7.915c0,0.178,0.145,0.324,0.324,0.324
		c0.177,0,0.324-0.146,0.324-0.324c0-0.491,0.257-0.728,0.584-1.026C9.025,6.564,9.465,6.16,9.465,5.386
		c0-0.776-0.44-1.179-0.794-1.504c-0.327-0.3-0.584-0.538-0.584-1.028c0-0.489,0.257-0.727,0.584-1.027
		c0.354-0.325,0.794-0.729,0.794-1.504C9.466,0.144,9.32,0,9.144,0C8.964,0,8.82,0.144,8.82,0.323c0,0.491-0.259,0.727-0.586,1.027
		C7.88,1.675,7.439,2.079,7.439,2.854s0.44,1.18,0.794,1.503C8.56,4.658,8.819,4.895,8.819,5.385
		C8.819,5.875,8.56,6.111,8.233,6.411L8.233,6.411z"/>
	<path display="inline" fill="#101124" d="M10.305,6.411C9.95,6.735,9.51,7.14,9.51,7.915c0,0.178,0.145,0.324,0.324,0.324
		c0.177,0,0.322-0.146,0.322-0.324c0-0.491,0.259-0.728,0.585-1.026c0.354-0.325,0.795-0.729,0.795-1.503
		c0-0.776-0.44-1.179-0.795-1.504c-0.326-0.299-0.585-0.537-0.585-1.027c0-0.179-0.146-0.323-0.322-0.323
		c-0.18,0-0.324,0.145-0.324,0.323c0,0.775,0.44,1.18,0.795,1.503c0.327,0.301,0.585,0.538,0.585,1.028
		C10.891,5.876,10.632,6.111,10.305,6.411L10.305,6.411z"/>
	<path display="inline" fill="#101124" d="M6.164,6.411C5.81,6.735,5.369,7.14,5.369,7.915c0,0.178,0.144,0.324,0.323,0.324
		c0.179,0,0.325-0.146,0.325-0.324c0-0.491,0.256-0.728,0.584-1.026C6.955,6.564,7.396,6.16,7.396,5.386
		c0-0.776-0.44-1.179-0.795-1.504c-0.328-0.3-0.584-0.538-0.584-1.028c0-0.179-0.146-0.323-0.325-0.323
		c-0.179,0-0.323,0.145-0.323,0.323c0,0.775,0.441,1.18,0.795,1.503c0.328,0.301,0.585,0.538,0.585,1.028
		C6.749,5.875,6.491,6.111,6.164,6.411L6.164,6.411z"/>
</g>
<g display="none">
	<path display="inline" fill="#101124" d="M9.081,6.091c-0.17,0-0.307-0.138-0.307-0.307c0-0.466,0.127-0.71,0.239-0.925
		c0.094-0.181,0.17-0.325,0.17-0.641c0-0.317-0.076-0.46-0.17-0.642C8.901,3.362,8.774,3.119,8.774,2.651
		c0-0.466,0.127-0.71,0.239-0.925c0.094-0.182,0.17-0.326,0.17-0.642c0-0.169,0.136-0.307,0.306-0.307
		c0.169,0,0.307,0.138,0.307,0.307c0,0.466-0.128,0.71-0.239,0.925C9.462,2.191,9.388,2.335,9.388,2.651
		c0,0.317,0.074,0.46,0.169,0.642c0.111,0.215,0.239,0.458,0.239,0.926c0,0.466-0.128,0.71-0.239,0.924
		C9.462,5.325,9.388,5.469,9.388,5.785C9.388,5.954,9.25,6.091,9.081,6.091L9.081,6.091z"/>
	<path display="inline" fill="#101124" d="M11.532,6.091c-0.169,0-0.308-0.138-0.308-0.307c0-0.466,0.129-0.71,0.24-0.925
		c0.094-0.181,0.169-0.325,0.169-0.641c0-0.317-0.075-0.46-0.169-0.642c-0.111-0.215-0.24-0.458-0.24-0.926
		c0-0.466,0.129-0.71,0.24-0.925c0.094-0.182,0.169-0.326,0.169-0.642c0-0.169,0.138-0.307,0.306-0.307
		c0.17,0,0.308,0.138,0.308,0.307c0,0.466-0.127,0.71-0.238,0.925c-0.095,0.181-0.17,0.325-0.17,0.641
		c0,0.317,0.075,0.46,0.17,0.642c0.111,0.215,0.238,0.458,0.238,0.926c0,0.466-0.127,0.71-0.238,0.924
		c-0.095,0.182-0.17,0.326-0.17,0.642C11.839,5.954,11.702,6.091,11.532,6.091L11.532,6.091z"/>
	<path display="inline" fill="#101124" d="M15.313,16.564H5.709c-0.846,0-1.532-0.688-1.532-1.533v-2.159
		c-2.087-0.015-3.781-1.716-3.781-3.805c0-0.81,0.252-1.583,0.729-2.237c0.058-0.079,0.15-0.126,0.248-0.126H16.54
		c0.169,0,0.308,0.138,0.308,0.307v8.021C16.846,15.877,16.159,16.564,15.313,16.564L15.313,16.564z M1.532,7.317
		c-0.343,0.52-0.523,1.122-0.523,1.75c0,1.759,1.432,3.191,3.191,3.191h0.283c0.168,0,0.306,0.137,0.306,0.307v2.467
		c0,0.509,0.412,0.922,0.92,0.922h9.604c0.506,0,0.92-0.413,0.92-0.922V7.317H1.532z M4.483,11.646H4.2
		c-1.422,0-2.578-1.159-2.578-2.58c0-0.326,0.06-0.643,0.178-0.943C1.846,8.007,1.958,7.93,2.085,7.93h2.398
		c0.168,0,0.306,0.137,0.306,0.307v3.103C4.789,11.509,4.651,11.646,4.483,11.646L4.483,11.646z M2.306,8.544
		c-0.048,0.169-0.07,0.344-0.07,0.523c0,1.075,0.868,1.953,1.941,1.964V8.544H2.306z"/>
	<path display="inline" fill="#101124" d="M14.904,14.932c-0.17,0-0.307-0.139-0.307-0.309v-4.75c0-0.17,0.137-0.307,0.307-0.307
		c0.169,0,0.307,0.137,0.307,0.307v4.75C15.211,14.793,15.073,14.932,14.904,14.932L14.904,14.932z"/>
	<path display="inline" fill="#101124" d="M14.904,8.952c-0.17,0-0.307-0.136-0.307-0.306V7.011c0-0.169,0.137-0.307,0.307-0.307
		c0.169,0,0.307,0.138,0.307,0.307v1.635C15.211,8.816,15.073,8.952,14.904,8.952L14.904,8.952z"/>
	<g display="inline">
		<path fill="#101124" d="M17.868,19.223H3.154c-0.474,0-0.946-0.356-1.076-0.813l-0.24-0.841c-0.047-0.162,0.047-0.334,0.211-0.379
			c0.162-0.047,0.332,0.049,0.379,0.211l0.239,0.842c0.056,0.189,0.287,0.365,0.487,0.365h14.714c0.2,0,0.431-0.176,0.485-0.365
			l0.239-0.842c0.048-0.162,0.218-0.258,0.38-0.211c0.162,0.045,0.258,0.217,0.211,0.379l-0.242,0.841
			C18.814,18.865,18.34,19.223,17.868,19.223L17.868,19.223z"/>
		<path fill="#101124" d="M19.298,17.791H1.725c-0.17,0-0.308-0.137-0.308-0.309c0-0.168,0.138-0.305,0.308-0.305h17.573
			c0.17,0,0.308,0.137,0.308,0.305C19.604,17.654,19.468,17.791,19.298,17.791L19.298,17.791z"/>
	</g>
</g>
<g display="none">
	<g display="inline">
		<path fill="#101124" stroke="#090924" stroke-width="0.5" stroke-miterlimit="10" d="M4.54,19.275
			c-0.662,0-1.276-0.277-1.826-0.828c-1.249-1.249-1.583-3.246-0.943-5.627c0.628-2.325,2.121-4.754,4.203-6.836
			C6.35,5.608,6.737,5.251,7.133,4.916c0.013-0.022,0.029-0.042,0.048-0.061C7.208,4.83,7.239,4.811,7.272,4.799
			c1.76-1.463,3.683-2.516,5.541-3.018c2.379-0.641,4.377-0.306,5.627,0.942c0.556,0.556,0.834,1.177,0.828,1.847
			c-0.017,1.827-2.088,3.829-4.713,6.364c-0.596,0.574-1.211,1.168-1.836,1.793s-1.219,1.24-1.795,1.836
			c-2.534,2.625-4.536,4.697-6.363,4.713C4.554,19.275,4.547,19.275,4.54,19.275L4.54,19.275z M2.455,12.379
			c-0.064,0.194-0.123,0.389-0.174,0.581c-0.59,2.188-0.304,4.006,0.806,5.115c0.458,0.457,0.94,0.677,1.469,0.673
			c1.606-0.014,3.637-2.115,5.99-4.551c0.576-0.598,1.172-1.213,1.802-1.842c0.627-0.629,1.244-1.226,1.842-1.801
			c2.435-2.353,4.537-4.384,4.551-5.99c0.005-0.53-0.215-1.011-0.674-1.469c-1.109-1.11-2.928-1.396-5.115-0.806
			c-0.192,0.052-0.387,0.11-0.58,0.174c0.572,0.483,1.895,1.647,2.211,2.349c0.243,0.534,0.15,1.143-0.225,1.482
			c-0.176,0.157-0.664,0.471-1.451,0.009c-0.988-0.579-2.837-2.207-3.245-2.569C9.013,4.127,8.374,4.58,7.755,5.084
			c0.606,0.664,2.375,2.665,2.763,3.829c0.164,0.493,0.008,1.122-0.373,1.495c-0.222,0.219-0.715,0.54-1.53,0.253
			c-1.142-0.403-3.008-2.329-3.541-2.897C4.57,8.384,4.118,9.022,3.726,9.67c0.362,0.408,1.991,2.256,2.57,3.244
			c0.462,0.787,0.147,1.277-0.009,1.451c-0.338,0.376-0.948,0.468-1.482,0.226C4.102,14.271,2.938,12.952,2.455,12.379L2.455,12.379
			z M2.662,11.805c0.449,0.551,1.736,2.022,2.36,2.307c0.322,0.146,0.689,0.104,0.873-0.098c0.17-0.189,0.15-0.484-0.054-0.834
			c-0.501-0.854-1.894-2.461-2.395-3.03C3.14,10.699,2.877,11.254,2.662,11.805L2.662,11.805z M5.416,7.357
			c0.444,0.474,2.325,2.437,3.375,2.807c0.41,0.145,0.751,0.1,0.985-0.131c0.264-0.259,0.331-0.688,0.242-0.953
			C9.663,8.015,7.92,6.048,7.351,5.423C7.009,5.719,6.673,6.03,6.347,6.356C6.021,6.682,5.711,7.016,5.416,7.357L5.416,7.357z
			 M10.141,3.456c0.568,0.5,2.175,1.893,3.03,2.395c0.349,0.204,0.646,0.224,0.833,0.054c0.203-0.184,0.244-0.55,0.1-0.873
			c-0.285-0.625-1.756-1.911-2.309-2.36C11.244,2.887,10.689,3.15,10.141,3.456L10.141,3.456z"/>
	</g>
</g>
<g display="none">
	<path display="inline" fill="#090924" d="M1.827,12.756v1.479c0,1.463,1.463,2.652,3.265,2.652h9.816
		c1.802,0,3.265-1.189,3.265-2.652v-1.479c0.856-0.27,1.48-1.072,1.48-2.018c0-0.955-0.64-1.765-1.511-2.025
		c-0.169-1.471-1.02-2.825-2.438-3.861C14.174,3.73,12.147,3.114,10,3.114S5.827,3.73,4.296,4.852
		c-1.419,1.036-2.27,2.391-2.439,3.861c-0.871,0.261-1.511,1.07-1.511,2.025C0.347,11.684,0.97,12.486,1.827,12.756L1.827,12.756z
		 M16.903,14.234c0,0.748-0.912,1.381-1.995,1.381H5.092c-1.081,0-1.995-0.633-1.995-1.381v-1.379h13.807V14.234z M10,4.384
		c3.502,0,6.401,1.853,6.846,4.24H3.155C3.598,6.236,6.498,4.384,10,4.384L10,4.384z M2.46,9.896h15.08
		c0.464,0,0.844,0.379,0.844,0.843c0,0.469-0.38,0.846-0.844,0.846H2.46c-0.464,0-0.844-0.377-0.844-0.846
		C1.617,10.274,1.997,9.896,2.46,9.896L2.46,9.896z M2.46,9.896"/>
	<path display="inline" fill="#090924" d="M11.711,5.522c-0.342,0-0.624,0.28-0.624,0.623c0,0.342,0.282,0.619,0.624,0.619
		c0.346,0,0.626-0.277,0.626-0.619C12.337,5.803,12.057,5.522,11.711,5.522L11.711,5.522z M11.711,5.522"/>
	<path display="inline" fill="#090924" d="M8.29,5.522c-0.346,0-0.624,0.28-0.624,0.623c0,0.342,0.278,0.619,0.624,0.619
		c0.342,0,0.624-0.277,0.624-0.619C8.913,5.803,8.631,5.522,8.29,5.522L8.29,5.522z M8.29,5.522"/>
	<path display="inline" fill="#090924" d="M13.425,6.453c-0.346,0-0.624,0.281-0.624,0.624c0,0.345,0.278,0.623,0.624,0.623
		c0.342,0,0.622-0.278,0.622-0.623C14.047,6.734,13.767,6.453,13.425,6.453L13.425,6.453z M13.425,6.453"/>
	<path display="inline" fill="#090924" d="M10,6.453c-0.345,0-0.623,0.281-0.623,0.624C9.377,7.422,9.655,7.7,10,7.7
		c0.342,0,0.622-0.278,0.622-0.623C10.622,6.734,10.342,6.453,10,6.453L10,6.453z M10,6.453"/>
	<path display="inline" fill="#090924" d="M6.575,6.453c-0.342,0-0.623,0.281-0.623,0.624c0,0.345,0.281,0.623,0.623,0.623
		c0.346,0,0.627-0.278,0.627-0.623C7.202,6.734,6.921,6.453,6.575,6.453L6.575,6.453z M6.575,6.453"/>
</g>
<g display="none">
	<g display="inline">
		<path fill="#090924" stroke="#090924" stroke-width="0.5" stroke-miterlimit="10" d="M18.309,17.933h-6.17
			c2.117-0.813,3.676-2.756,3.925-5.088h0.604c1.218,0,2.209-0.99,2.209-2.207c0-1.218-0.991-2.21-2.209-2.21H4.233
			c-0.249,0-0.45,0.203-0.45,0.45v3.31c0,2.618,1.648,4.857,3.959,5.745H1.573c-0.249,0-0.45,0.2-0.45,0.449s0.201,0.45,0.45,0.45
			h16.736c0.249,0,0.449-0.201,0.449-0.45S18.558,17.933,18.309,17.933L18.309,17.933z M17.977,10.638
			c0,0.721-0.587,1.308-1.309,1.308H16.1V9.328h0.568C17.389,9.328,17.977,9.915,17.977,10.638L17.977,10.638z M4.683,12.188V9.329
			h10.517v2.859c0,2.898-2.359,5.257-5.258,5.257C7.041,17.444,4.683,15.086,4.683,12.188L4.683,12.188z M4.683,12.188"/>
		<path fill="#090924" stroke="#090924" stroke-width="0.5" stroke-miterlimit="10" d="M6.465,3.909
			C6.989,4.13,7.292,4.385,7.317,4.63c0.038,0.362-0.46,0.835-0.708,1.006C6.405,5.778,6.354,6.058,6.496,6.262
			c0.086,0.127,0.227,0.194,0.37,0.194c0.089,0,0.178-0.026,0.255-0.08c0.121-0.083,1.192-0.853,1.091-1.837
			C8.15,3.936,7.681,3.444,6.827,3.084c-0.225-0.1-0.475-0.317-0.472-0.406c0-0.002,0.05-0.272,1.01-0.64
			c0.232-0.089,0.348-0.349,0.26-0.582C7.537,1.226,7.277,1.109,7.044,1.198C5.992,1.6,5.472,2.075,5.456,2.651
			C5.432,3.418,6.35,3.856,6.465,3.909L6.465,3.909z M6.465,3.909"/>
		<path fill="#090924" stroke="#090924" stroke-width="0.5" stroke-miterlimit="10" d="M9.569,3.909
			c0.523,0.221,0.826,0.476,0.852,0.721c0.037,0.362-0.461,0.835-0.708,1.006C9.509,5.778,9.458,6.058,9.599,6.262
			c0.088,0.127,0.229,0.194,0.372,0.194c0.088,0,0.175-0.026,0.255-0.08c0.122-0.083,1.193-0.853,1.09-1.837
			c-0.062-0.604-0.531-1.095-1.385-1.455c-0.223-0.1-0.474-0.317-0.471-0.406c0-0.002,0.05-0.272,1.01-0.64
			c0.231-0.089,0.347-0.349,0.261-0.582c-0.09-0.231-0.35-0.348-0.583-0.259C9.096,1.6,8.576,2.075,8.561,2.651
			C8.537,3.418,9.454,3.856,9.569,3.909L9.569,3.909z M9.569,3.909"/>
		<path fill="#090924" stroke="#090924" stroke-width="0.5" stroke-miterlimit="10" d="M12.588,3.909
			c0.522,0.221,0.826,0.476,0.852,0.721c0.038,0.362-0.46,0.835-0.708,1.006c-0.203,0.142-0.254,0.422-0.112,0.626
			c0.087,0.127,0.228,0.194,0.371,0.194c0.088,0,0.176-0.026,0.254-0.08c0.122-0.083,1.193-0.853,1.092-1.837
			c-0.063-0.604-0.533-1.095-1.386-1.455c-0.224-0.1-0.475-0.317-0.472-0.406c0-0.002,0.05-0.272,1.012-0.64
			c0.23-0.089,0.347-0.349,0.258-0.582c-0.089-0.231-0.348-0.348-0.581-0.259c-1.053,0.402-1.572,0.877-1.588,1.453
			C11.556,3.418,12.473,3.856,12.588,3.909L12.588,3.909z M12.588,3.909"/>
	</g>
</g>
<g display="none">
	<g display="inline">
		<defs>
			<rect id="SVGID_1_" x="0.518" y="5.226" width="18.965" height="10.516"/>
		</defs>
		<clipPath id="SVGID_2_">
			<use xlink:href="#SVGID_1_"  overflow="visible"/>
		</clipPath>
		<path clip-path="url(#SVGID_2_)" fill="#090924" stroke="#090924" stroke-width="0.1" stroke-miterlimit="10" d="M19.435,12.502
			c-0.019-0.082-0.094-0.274-0.413-0.274h-0.714c-0.164,0-0.293,0.132-0.293,0.293c0,0.162,0.129,0.293,0.293,0.293h0.008
			c-0.647,0.355-1.717,0.874-2.697,1.313h-1.219c-0.163,0-0.294,0.131-0.294,0.293c0,0.161,0.131,0.292,0.294,0.292h0.669
			l-0.329,0.429H5.175l-0.298-0.429h7.713c0.162,0,0.294-0.131,0.294-0.292c0-0.162-0.132-0.293-0.294-0.293H4.32
			c-0.975-0.438-2.041-0.957-2.683-1.313h15.217c0.159,0,0.293-0.131,0.293-0.293c0-0.161-0.134-0.293-0.293-0.293H0.938
			c-0.32,0-0.396,0.192-0.412,0.274c-0.057,0.259,0.165,0.439,0.65,0.723c0.289,0.17,0.694,0.383,1.205,0.635
			c0.864,0.425,1.746,0.822,1.755,0.825c0.004,0.004,0.009,0.004,0.014,0.005l0.631,0.91c0.055,0.078,0.146,0.127,0.239,0.127h9.865
			c0.091,0,0.177-0.044,0.232-0.116l0.718-0.939c0.173-0.079,0.958-0.434,1.73-0.812c0.515-0.252,0.921-0.466,1.214-0.635
			C19.269,12.941,19.491,12.761,19.435,12.502L19.435,12.502z M19.435,12.502"/>
	</g>
	<path display="inline" fill="#090924" stroke="#090924" stroke-width="0.1" stroke-miterlimit="10" d="M7.283,10.025
		c-0.088,0.136-0.048,0.317,0.087,0.405c0.048,0.031,0.104,0.047,0.158,0.047c0.097,0,0.19-0.047,0.246-0.134
		c0.047-0.072,1.138-1.793,0.114-3.098C7.178,6.339,8.186,5.103,8.196,5.09C8.3,4.967,8.284,4.782,8.158,4.679
		C8.034,4.575,7.85,4.591,7.747,4.715c-0.014,0.017-0.33,0.397-0.532,0.931C6.932,6.39,7.006,7.068,7.43,7.607
		C8.193,8.582,7.292,10.012,7.283,10.025L7.283,10.025z M7.283,10.025"/>
	<g display="inline">
		<path fill="#090924" stroke="#090924" stroke-width="0.1" stroke-miterlimit="10" d="M11.397,10.025
			c-0.089,0.136-0.049,0.317,0.088,0.405c0.048,0.031,0.104,0.047,0.157,0.047c0.096,0,0.19-0.047,0.247-0.134
			c0.046-0.072,1.138-1.793,0.114-3.098c-0.711-0.905,0.292-2.139,0.307-2.156c0.103-0.123,0.086-0.308-0.037-0.411
			c-0.124-0.104-0.31-0.087-0.413,0.036c-0.014,0.017-0.329,0.397-0.531,0.931c-0.283,0.744-0.208,1.423,0.214,1.962
			C12.308,8.582,11.405,10.012,11.397,10.025L11.397,10.025z M11.397,10.025"/>
		<path fill="#090924" stroke="#090924" stroke-width="0.1" stroke-miterlimit="10" d="M9.28,10.35
			c-0.104,0.126-0.085,0.31,0.04,0.412c0.054,0.046,0.12,0.067,0.186,0.067c0.084,0,0.17-0.036,0.228-0.107
			c0.015-0.019,0.376-0.465,0.574-1.109c0.275-0.881,0.119-1.707-0.446-2.389c-0.826-0.996,0.303-2.473,0.317-2.492
			c0.1-0.126,0.077-0.311-0.049-0.411c-0.129-0.099-0.313-0.078-0.412,0.05C9.659,4.447,8.28,6.237,9.41,7.598
			C10.462,8.864,9.328,10.291,9.28,10.35L9.28,10.35z M9.28,10.35"/>
	</g>
</g>
<g display="none">
	<g display="inline">
		<defs>
			<rect id="SVGID_3_" x="3.629" y="1" width="12.149" height="18"/>
		</defs>
		<clipPath id="SVGID_4_">
			<use xlink:href="#SVGID_3_"  overflow="visible"/>
		</clipPath>
		<path clip-path="url(#SVGID_4_)" d="M6.007,1.332l-2.25,1.48C3.626,2.898,3.59,3.073,3.675,3.203
			C3.729,3.286,3.82,3.331,3.912,3.331c0.053,0,0.107-0.015,0.155-0.046l2.251-1.48c0.13-0.085,0.167-0.261,0.081-0.391
			C6.313,1.282,6.137,1.246,6.007,1.332L6.007,1.332z M6.007,1.332"/>
	</g>
	<path display="inline" d="M7.166,1.657V1.282C7.166,1.126,7.04,1,6.883,1C6.728,1,6.601,1.126,6.601,1.282v0.375
		c0,0.156,0.126,0.283,0.282,0.283C7.04,1.94,7.166,1.813,7.166,1.657L7.166,1.657z M7.166,1.657"/>
	<path display="inline" fill="#090924" stroke="#090924" stroke-width="0.1" stroke-miterlimit="10" d="M15.763,4.187
		c0-1.658-1.35-3.007-3.008-3.007c-1.518,0-2.776,1.122-2.976,2.599H8.641L7.903,1.481c-0.048-0.148-0.207-0.23-0.355-0.183
		c-0.148,0.048-0.23,0.207-0.183,0.355l0.682,2.125H7.351c-0.156,0-0.282,0.126-0.282,0.282c0,0,0,8.061,0,8.066
		c0.078,1.487,1.24,2.672,2.698,2.809v2.297l-2.299,1.202c-0.115,0.061-0.175,0.191-0.144,0.317
		c0.031,0.127,0.144,0.215,0.274,0.215H12.5c0.129,0,0.242-0.088,0.273-0.215c0.031-0.126-0.027-0.257-0.143-0.317l-2.299-1.202
		v-2.297c1.458-0.137,2.62-1.321,2.698-2.809c0-0.005,0-4.945,0-4.945C14.56,7.042,15.763,5.753,15.763,4.187L15.763,4.187z
		 M7.633,4.343h0.595l0.489,1.525H7.633V4.343z M11.35,18.402H8.748l1.301-0.681L11.35,18.402z M12.465,6.846v5.258
		c-0.072,1.278-1.131,2.279-2.416,2.279c-0.569,0-1.093-0.196-1.508-0.525c-0.521-0.415-0.868-1.041-0.908-1.754V6.433h4.832V6.846z
		 M12.465,5.868H9.31C9.308,5.859,9.305,5.85,9.302,5.841l-0.48-1.498h3.643V5.868z M13.031,6.614V4.06
		c0-0.156-0.127-0.282-0.283-0.282H10.35c0.195-1.161,1.199-2.033,2.405-2.033c0.696,0,1.324,0.293,1.77,0.761
		c0.417,0.438,0.673,1.031,0.673,1.682C15.197,5.441,14.249,6.477,13.031,6.614L13.031,6.614z M13.031,6.614"/>
	<path display="inline" d="M11.291,2.72c-0.078,0.078-0.101,0.19-0.068,0.288c0.014,0.041,0.036,0.079,0.068,0.111l0.396,0.396
		c0.056,0.055,0.128,0.083,0.2,0.083s0.145-0.028,0.199-0.083c0.11-0.11,0.11-0.289,0-0.399L11.69,2.72
		c-0.032-0.033-0.071-0.056-0.112-0.069C11.48,2.62,11.369,2.643,11.291,2.72L11.291,2.72z M11.291,2.72"/>
	<path display="inline" d="M13.83,4.859c-0.111-0.11-0.289-0.11-0.4,0c-0.109,0.11-0.109,0.289,0,0.399l0.396,0.396
		c0.055,0.055,0.127,0.083,0.199,0.083s0.145-0.027,0.199-0.083c0.111-0.11,0.111-0.289,0-0.399L13.83,4.859z M13.83,4.859"/>
	<path display="inline" d="M13.826,2.72L13.43,3.116c-0.109,0.11-0.109,0.289,0,0.399c0.056,0.055,0.128,0.083,0.2,0.083
		s0.145-0.028,0.2-0.083l0.395-0.396c0.111-0.11,0.111-0.289,0-0.399C14.115,2.61,13.936,2.61,13.826,2.72L13.826,2.72z
		 M13.826,2.72"/>
	<path display="inline" d="M8.626,13.39c0.358,0.374,0.849,0.569,1.457,0.579c0.002,0.001,0.003,0.001,0.005,0.001
		c0.153,0,0.279-0.124,0.282-0.278c0.003-0.155-0.122-0.284-0.277-0.287c-0.451-0.008-0.806-0.143-1.057-0.402
		c-0.448-0.465-0.44-1.192-0.44-1.199c0-0.003,0-0.005,0-0.007V11.11c0-0.155-0.126-0.281-0.282-0.281
		c-0.139,0-0.254,0.1-0.277,0.232c-0.003,0.016-0.005,0.032-0.005,0.049v0.683C8.03,11.872,8.029,12.768,8.626,13.39L8.626,13.39z
		 M8.626,13.39"/>
</g>
<g>
	<path fill="#090924" stroke="#090924" stroke-width="0.4" stroke-miterlimit="10" d="M14.493,19.435H5.506
		c-0.124,0-0.229-0.092-0.246-0.215c-0.017-0.124,0.059-0.24,0.177-0.272l4.314-1.236v-6.772c-2.723-0.16-4.896-2.97-4.896-6.401
		c0-1.402,0.356-2.734,1.032-3.852C5.932,0.611,6.012,0.564,6.1,0.564h7.801c0.087,0,0.167,0.047,0.212,0.121
		c0.676,1.117,1.032,2.449,1.032,3.852c0,3.431-2.175,6.241-4.896,6.401v6.771l4.313,1.237c0.121,0.032,0.198,0.148,0.179,0.272
		C14.724,19.343,14.617,19.435,14.493,19.435L14.493,19.435z M7.276,18.938h5.45l-2.715-0.78c-0.007,0-0.015,0-0.021,0L7.276,18.938
		z M5.82,7.117C6.574,9.087,8.164,10.45,10,10.45c1.837,0,3.427-1.362,4.182-3.333H5.82z M5.65,6.62h8.701
		c0.191-0.649,0.297-1.349,0.297-2.083c0-1.262-0.308-2.46-0.891-3.475H6.242c-0.582,1.015-0.89,2.213-0.89,3.475
		C5.352,5.271,5.458,5.971,5.65,6.62L5.65,6.62z M6.279,4.232"/>
</g>
</svg>
