<?xml version="1.0" encoding="utf-8"?>
<!-- Generator: Adobe Illustrator 16.0.0, SVG Export Plug-In . SVG Version: 6.00 Build 0)  -->
<!DOCTYPE svg PUBLIC "-//W3C//DTD SVG 1.1//EN" "http://www.w3.org/Graphics/SVG/1.1/DTD/svg11.dtd">
<svg version="1.1" id="Layer_1" xmlns="http://www.w3.org/2000/svg" xmlns:xlink="http://www.w3.org/1999/xlink" x="0px" y="0px"
	 width="25px" height="25px" viewBox="0 0 25 25" enable-background="new 0 0 25 25" xml:space="preserve">
<g>
	<path fill="#FFFFFF" stroke="#FFFFFF" stroke-width="0.5" stroke-miterlimit="10" d="M12.5,1c6.438,0,11.676,5.238,11.676,11.676
		c0,6.439-5.238,11.678-11.676,11.678c-6.439,0-11.677-5.238-11.677-11.678C0.823,6.238,6.061,1,12.5,1L12.5,1z M12.5,23.563
		c6,0,10.885-4.881,10.885-10.886c0-6-4.885-10.883-10.885-10.883c-6.001,0-10.885,4.882-10.885,10.883
		C1.615,18.68,6.499,23.563,12.5,23.563L12.5,23.563z"/>
	<path fill="#FFFFFF" stroke="#FFFFFF" stroke-width="0.5" stroke-miterlimit="10" d="M11.155,8.579c0.103,0,0.203,0.038,0.28,0.115
		l3.87,3.872c0.151,0.154,0.151,0.404,0,0.559l-3.87,3.871c-0.154,0.154-0.405,0.154-0.559,0c-0.155-0.154-0.155-0.405,0-0.559
		l3.588-3.591l-3.59-3.593c-0.152-0.154-0.152-0.404,0-0.56C10.954,8.617,11.054,8.579,11.155,8.579L11.155,8.579z"/>
</g>
</svg>
