<?xml version="1.0" encoding="utf-8"?>
<!-- Generator: Adobe Illustrator 18.1.1, SVG Export Plug-In . SVG Version: 6.00 Build 0)  -->
<svg version="1.0" id="Layer_1" xmlns="http://www.w3.org/2000/svg" xmlns:xlink="http://www.w3.org/1999/xlink" x="0px" y="0px"
	 width="32px" height="32px" viewBox="0 0 32 32" enable-background="new 0 0 32 32" xml:space="preserve">
<rect opacity="0" fill="#49B3CC" width="32" height="32"/>
<g display="none">
	<path display="inline" fill="#49B3CC" d="M20.3,18.9c2.4-1.5,3.9-4.1,3.9-7.1c0-4.6-3.7-8.3-8.3-8.3c-4.6,0-8.3,3.8-8.3,8.3
		c0,3,1.5,5.6,3.9,7.1c-4.1,1.6-7.2,5.2-8.1,9.6h2.1c1-4.8,5.3-8.3,10.3-8.3c5.1,0,9.3,3.5,10.3,8.3h2.1
		C27.6,24,24.5,20.4,20.3,18.9 M9.8,11.8c0-3.4,2.8-6.3,6.2-6.3c3.4,0,6.2,2.8,6.2,6.3c0,3.4-2.8,6.3-6.2,6.3
		C12.6,18.1,9.8,15.3,9.8,11.8"/>
	<path display="inline" fill="#49B3CC" d="M29,29h-3l-0.1-0.4c-1-4.7-5.1-8-9.9-8s-8.9,3.3-9.9,8L6,29H3l0.1-0.6
		c0.8-4.2,3.6-7.8,7.5-9.6c-2.2-1.6-3.4-4.2-3.4-7C7.2,7,11.2,3,16,3s8.8,4,8.8,8.8c0,2.8-1.3,5.3-3.4,7c3.9,1.7,6.7,5.3,7.5,9.6
		L29,29z M26.7,28h1.1c-0.9-4-3.8-7.3-7.6-8.6l-1-0.3l0.9-0.5c2.3-1.4,3.7-3.9,3.7-6.7C23.8,7.5,20.3,4,16,4s-7.8,3.5-7.8,7.9
		c0,2.8,1.4,5.3,3.7,6.7l0.8,0.5l-0.9,0.4C8,20.8,5.1,24.1,4.2,28h1.1c1.2-4.9,5.7-8.3,10.7-8.3C21.1,19.7,25.5,23.1,26.7,28z
		 M16,18.6c-3.7,0-6.7-3-6.7-6.7s3-6.7,6.7-6.7s6.7,3,6.7,6.7C22.7,15.5,19.7,18.6,16,18.6z M16,6.1c-3.2,0-5.7,2.6-5.7,5.8
		s2.6,5.8,5.7,5.8s5.7-2.6,5.7-5.8C21.7,8.6,19.2,6.1,16,6.1z"/>
</g>
<path display="none" fill="#FFFFFF" stroke="#FFFFFF" stroke-miterlimit="10" d="M27.2,5H4.8C3.5,5,2.5,6.1,2.5,7.5v16.9
	c0,1.4,1,2.5,2.3,2.5h22.4c1.3,0,2.3-1.1,2.3-2.5V7.5C29.5,6.1,28.5,5,27.2,5z M28.6,24.5c0,0.9-0.6,1.6-1.4,1.6H4.8
	c-0.8,0-1.4-0.7-1.4-1.6v-8.9c1.1,1.9,3,3.2,5.2,3.2h5.6v1.6c0,0.8,0.6,1.5,1.4,1.5h0.9c0.8,0,1.4-0.7,1.4-1.5v-1.6h5.6
	c2.2,0,4.1-1.3,5.2-3.2L28.6,24.5L28.6,24.5z M15.5,19.8h0.9c0.2,0,0.3,0,0.5-0.1v0.6c0,0.3-0.2,0.5-0.5,0.5h-0.9
	c-0.3,0-0.5-0.2-0.5-0.5v-0.6C15.2,19.8,15.4,19.8,15.5,19.8z M15,18.3v-1c0-0.3,0.2-0.5,0.5-0.5h0.9c0.3,0,0.5,0.2,0.5,0.5v1
	c0,0.3-0.2,0.5-0.5,0.5h-0.9C15.3,18.9,15,18.6,15,18.3z M28.6,12.2c0,3.1-2.3,5.7-5.2,5.7h-5.6v-0.5c0-0.8-0.6-1.5-1.4-1.5h-0.9
	c-0.8,0-1.4,0.7-1.4,1.5v0.5H8.5c-2.8,0-5.2-2.5-5.2-5.7V7.5C3.4,6.7,4,6,4.8,6h22.4c0.8,0,1.4,0.7,1.4,1.6V12.2z"/>
<g>
	<g>
		<g>
			<path fill="#49B3CC" d="M27.7,23.4l-3.7-3.6c-0.5-0.5-1.2-0.7-1.9-0.7c-0.7,0-1.5,0.3-2,0.8l-1.5,1.4c-1.1-0.6-2.6-1.4-4.2-2.9
				c-1.6-1.5-2.4-2.9-3.1-4l1.5-1.4c1.1-1,1.1-2.7,0-3.7L9.1,5.7C8.6,5.2,7.9,5,7.2,5c-0.7,0-1.4,0.3-2,0.8C4.9,6,3.3,7.3,2.7,10.1
				c-0.8,3.9,1.1,7.7,6.7,13c6.2,5.9,11.6,6.4,13,6.4c0.3,0,0.5,0,0.5,0c2.9-0.3,4-1.6,4.7-2.4C28.7,25.8,28.7,24.3,27.7,23.4
				 M26.4,26.1c-0.7,0.8-1.4,1.6-3.6,1.9c0,0-0.1,0-0.4,0c-1.3,0-6.1-0.4-11.9-5.9c-5.1-4.9-7-8.3-6.2-11.6C4.8,8,6.2,7,6.3,6.9l0,0
				l0,0c0.2-0.2,0.5-0.3,0.9-0.3c0.3,0,0.6,0.1,0.8,0.3l3.7,3.6c0.4,0.4,0.4,1.1,0,1.5L10,13.5l0,0c-0.4,0.5-0.4,1.1-0.1,1.5
				c0.7,1.2,1.6,2.8,3.4,4.5c1.8,1.7,3.5,2.6,4.7,3.2c0.1,0.1,0.4,0.2,0.7,0.2c0.4,0,0.7-0.1,1-0.4l1.5-1.5c0.2-0.2,0.5-0.3,0.9-0.3
				c0.3,0,0.6,0.1,0.8,0.3l3.7,3.6C27,24.9,26.8,25.6,26.4,26.1"/>
			<path fill="#49B3CC" d="M22.4,30c-1.5,0-7-0.5-13.4-6.5C3.3,18,1.3,14.1,2.2,10c0.6-3,2.4-4.4,2.7-4.7c1.2-1.1,3.3-1.1,4.5,0
				l3.7,3.6c0.6,0.6,0.9,1.3,0.9,2.2c0,0.9-0.3,1.7-1,2.3L12,14.4c0.6,1.1,1.5,2.3,2.8,3.5c1.3,1.3,2.6,2,3.7,2.6l1.2-1.1
				c1.2-1.2,3.4-1.2,4.6-0.1L28,23c1.2,1.1,1.2,3,0,4.3c-0.8,0.9-1.9,2.3-5.1,2.6C23,30,22.8,30,22.4,30z M7.2,5.5
				C6.6,5.5,6,5.7,5.6,6.1c-0.3,0.3-1.8,1.5-2.4,4.1c-0.8,3.7,1.1,7.3,6.5,12.5C15.9,28.5,21,29,22.4,29c0.3,0,0.4,0,0.5,0
				c2.7-0.3,3.6-1.4,4.4-2.3c0.8-1,0.8-2.2,0-2.9l-3.7-3.6c-0.8-0.8-2.3-0.8-3.2,0.1l-1.7,1.6l-0.3-0.2c-1.3-0.7-2.8-1.5-4.3-3
				c-1.6-1.5-2.4-2.9-3.1-4.1l-0.2-0.3l1.8-1.7c0.4-0.4,0.7-1,0.7-1.5c0-0.5-0.2-1.1-0.6-1.4L8.7,6.1C8.3,5.7,7.8,5.5,7.2,5.5z
				 M22.4,28.5c-1.4,0-6.3-0.4-12.3-6.1c-5.3-5-7.1-8.5-6.4-12.1c0.6-2.6,2-3.7,2.2-3.8c0.7-0.7,1.8-0.7,2.4-0.1l3.7,3.6
				c0.3,0.3,0.5,0.7,0.5,1.1c0,0.4-0.2,0.9-0.5,1.2l-1.7,1.6c-0.3,0.3-0.2,0.7-0.1,0.9c0.7,1.2,1.6,2.7,3.3,4.4
				c1.7,1.7,3.4,2.5,4.6,3.2c0.1,0.1,0.7,0.2,1-0.1l1.6-1.5c0.6-0.6,1.7-0.6,2.3-0.1l3.7,3.6c0.7,0.7,0.5,1.6-0.1,2.3
				c-0.8,0.9-1.5,1.8-4,2.1C22.8,28.5,22.7,28.5,22.4,28.5z M7.2,7C7,7,6.8,7.1,6.7,7.2L6.6,7.3c0,0-1.3,1-1.8,3.2
				c-0.7,3.1,1.1,6.4,6.1,11.1c5.7,5.4,10.3,5.8,11.5,5.8c0.2,0,0.3,0,0.3,0c2-0.2,2.6-0.9,3.3-1.7c0.2-0.2,0.4-0.7,0.1-0.9
				l-3.7-3.6c-0.2-0.2-0.6-0.2-0.9,0L20,22.8c-0.3,0.4-0.8,0.6-1.3,0.6c-0.4,0-0.8-0.2-0.9-0.2c-1.3-0.7-3-1.6-4.8-3.3
				c-1.9-1.8-2.8-3.4-3.5-4.6c-0.3-0.6-0.4-1.4,0.2-2.1l1.7-1.6c0.1-0.1,0.2-0.3,0.2-0.4c0-0.1,0-0.2-0.1-0.3L7.6,7.2
				C7.5,7.1,7.4,7,7.2,7z"/>
		</g>
	</g>
	<g>
		<g>
			<path fill="#49B3CC" d="M19.2,4.7c1.8,0.2,4,1.4,5.5,3.1c1.5,1.6,2.6,4,2.8,6c0.1,0.6,0.5,1,1.1,1c0,0,0.1,0,0.1,0
				c0.6-0.1,1-0.6,0.9-1.3c-0.3-2.5-1.6-5.4-3.5-7.4c-1.9-2-4.5-3.4-6.8-3.7c-0.6-0.1-1.1,0.4-1.2,1C18.1,4,18.6,4.6,19.2,4.7"/>
			<path fill="#49B3CC" d="M28.6,15.1c-0.7,0-1.3-0.6-1.4-1.4c-0.2-1.9-1.3-4.2-2.7-5.8c-1.5-1.6-3.5-2.7-5.3-2.9
				c-0.8-0.1-1.3-0.8-1.3-1.7c0.1-0.8,0.8-1.4,1.6-1.3c2.4,0.3,5.1,1.8,7,3.8c1.9,2.1,3.3,5,3.5,7.6c0.1,0.8-0.5,1.6-1.3,1.7
				C28.7,15.1,28.6,15.1,28.6,15.1z M19.3,2.7c-0.4,0-0.7,0.3-0.8,0.7c0,0.4,0.2,0.8,0.6,0.9c1.9,0.2,4.2,1.5,5.7,3.2
				c1.6,1.7,2.7,4.1,2.9,6.2c0,0.4,0.3,0.7,0.7,0.7l0.1,0c0.4,0,0.7-0.4,0.6-0.9C29,11,27.7,8.3,25.9,6.3C24.1,4.4,21.6,3,19.3,2.7
				C19.3,2.7,19.3,2.7,19.3,2.7z"/>
		</g>
		<g>
			<path fill="#49B3CC" d="M18.2,9.5c1,0.1,2.4,0.9,3.3,1.9c0.9,1,1.6,2.5,1.8,3.6c0.1,0.6,0.5,1,1.1,1c0,0,0.1,0,0.1,0
				c0.6-0.1,1-0.6,0.9-1.3c-0.2-1.8-1.3-3.8-2.4-4.9c-1-1.1-2.8-2.3-4.5-2.6c-0.6-0.1-1.1,0.4-1.2,1C17.1,8.8,17.6,9.4,18.2,9.5"/>
			<path fill="#49B3CC" d="M24.2,16.3c-0.7,0-1.3-0.6-1.4-1.4c-0.1-1-0.8-2.4-1.7-3.4c-0.8-0.9-2.1-1.7-3-1.8
				c-0.8-0.1-1.3-0.8-1.3-1.7c0.1-0.8,0.8-1.4,1.6-1.3c1.8,0.2,3.7,1.5,4.8,2.7c1.1,1.2,2.3,3.2,2.5,5.2c0.1,0.8-0.5,1.6-1.3,1.7
				C24.3,16.3,24.3,16.3,24.2,16.3z M18.3,7.6c-0.4,0-0.7,0.3-0.8,0.7c0,0.4,0.2,0.8,0.6,0.9c1.1,0.1,2.5,1,3.5,2
				c1,1,1.7,2.6,1.8,3.8c0,0.4,0.3,0.7,0.7,0.7l0.1,0c0.4,0,0.7-0.4,0.6-0.9c-0.2-1.8-1.3-3.7-2.3-4.7C21.7,8.9,20,7.8,18.3,7.6
				C18.3,7.6,18.3,7.6,18.3,7.6z"/>
		</g>
	</g>
</g>
</svg>
