<?xml version="1.0" encoding="utf-8"?>
<!-- Generator: Adobe Illustrator 18.1.1, SVG Export Plug-In . SVG Version: 6.00 Build 0)  -->
<svg version="1.0" id="Layer_1" xmlns="http://www.w3.org/2000/svg" xmlns:xlink="http://www.w3.org/1999/xlink" x="0px" y="0px"
	 width="32px" height="32px" viewBox="0 0 32 32" enable-background="new 0 0 32 32" xml:space="preserve">
<rect opacity="0" fill="#49B3CC" width="32" height="32"/>
<g display="none">
	<path display="inline" fill="#49B3CC" d="M20,18.7c2.2-1.3,3.6-3.8,3.6-6.5c0-4.2-3.4-7.7-7.6-7.7c-4.2,0-7.6,3.5-7.6,7.7
		c0,2.8,1.4,5.2,3.6,6.5c-3.8,1.4-6.7,4.8-7.4,8.9h1.9c1-4.4,4.9-7.7,9.6-7.7c4.7,0,8.6,3.3,9.6,7.7h1.9C26.7,23.4,23.8,20,20,18.7
		 M10.3,12.1c0-3.2,2.6-5.8,5.7-5.8c3.2,0,5.7,2.6,5.7,5.8c0,3.2-2.6,5.8-5.7,5.8C12.8,17.9,10.3,15.3,10.3,12.1"/>
	<path display="inline" fill="#49B3CC" d="M28,28h-2.8l-0.1-0.4c-0.9-4.3-4.7-7.3-9.1-7.3s-8.2,3-9.1,7.3L6.8,28H4l0.1-0.5
		c0.7-3.9,3.4-7.2,7-8.9c-2-1.5-3.1-3.9-3.1-6.4C7.9,7.7,11.5,4,16,4s8.1,3.7,8.1,8.1c0,2.6-1.2,4.9-3.1,6.4
		c3.6,1.6,6.2,4.9,6.9,8.9L28,28z M25.9,27.1h1c-0.9-3.7-3.5-6.7-7-8L19,18.8l0.8-0.5c2.1-1.3,3.4-3.6,3.4-6.2c0-4-3.2-7.3-7.2-7.3
		s-7.2,3.3-7.2,7.3c0,2.5,1.3,4.8,3.4,6.2l0.8,0.5l-0.9,0.3c-3.5,1.3-6.2,4.4-7.1,8h1c1.1-4.5,5.2-7.7,9.9-7.7
		C20.7,19.4,24.8,22.5,25.9,27.1z M16,18.4c-3.4,0-6.2-2.8-6.2-6.2s2.8-6.2,6.2-6.2s6.2,2.8,6.2,6.2C22.2,15.6,19.4,18.4,16,18.4z
		 M16,6.8c-2.9,0-5.3,2.4-5.3,5.3s2.4,5.3,5.3,5.3s5.3-2.4,5.3-5.3C21.3,9.2,18.9,6.8,16,6.8z"/>
</g>
</svg>
