<?xml version="1.0" encoding="utf-8"?>
<!-- Generator: Adobe Illustrator 18.1.1, SVG Export Plug-In . SVG Version: 6.00 Build 0)  -->
<svg version="1.0" id="Layer_1" xmlns="http://www.w3.org/2000/svg" xmlns:xlink="http://www.w3.org/1999/xlink" x="0px" y="0px"
	 width="32px" height="32px" viewBox="0 0 32 32" enable-background="new 0 0 32 32" xml:space="preserve">
<rect opacity="0" fill="#49B3CC" width="32" height="32"/>
<g display="none">
	<path display="inline" fill="#49B3CC" d="M20.3,18.9c2.4-1.5,3.9-4.1,3.9-7.1c0-4.6-3.7-8.3-8.3-8.3c-4.6,0-8.3,3.8-8.3,8.3
		c0,3,1.5,5.6,3.9,7.1c-4.1,1.6-7.2,5.2-8.1,9.6h2.1c1-4.8,5.3-8.3,10.3-8.3c5.1,0,9.3,3.5,10.3,8.3h2.1
		C27.6,24,24.5,20.4,20.3,18.9 M9.8,11.8c0-3.4,2.8-6.3,6.2-6.3c3.4,0,6.2,2.8,6.2,6.3c0,3.4-2.8,6.3-6.2,6.3
		C12.6,18.1,9.8,15.3,9.8,11.8"/>
	<path display="inline" fill="#49B3CC" d="M29,29h-3l-0.1-0.4c-1-4.7-5.1-8-9.9-8s-8.9,3.3-9.9,8L6,29H3l0.1-0.6
		c0.8-4.2,3.6-7.8,7.5-9.6c-2.2-1.6-3.4-4.2-3.4-7C7.2,7,11.2,3,16,3s8.8,4,8.8,8.8c0,2.8-1.3,5.3-3.4,7c3.9,1.7,6.7,5.3,7.5,9.6
		L29,29z M26.7,28h1.1c-0.9-4-3.8-7.3-7.6-8.6l-1-0.3l0.9-0.5c2.3-1.4,3.7-3.9,3.7-6.7C23.8,7.5,20.3,4,16,4s-7.8,3.5-7.8,7.9
		c0,2.8,1.4,5.3,3.7,6.7l0.8,0.5l-0.9,0.4C8,20.8,5.1,24.1,4.2,28h1.1c1.2-4.9,5.7-8.3,10.7-8.3C21.1,19.7,25.5,23.1,26.7,28z
		 M16,18.6c-3.7,0-6.7-3-6.7-6.7s3-6.7,6.7-6.7s6.7,3,6.7,6.7C22.7,15.5,19.7,18.6,16,18.6z M16,6.1c-3.2,0-5.7,2.6-5.7,5.8
		s2.6,5.8,5.7,5.8s5.7-2.6,5.7-5.8C21.7,8.6,19.2,6.1,16,6.1z"/>
</g>
<path fill="#49B3CC" stroke="#49B3CC" stroke-miterlimit="10" d="M27.2,5H4.8C3.5,5,2.5,6.1,2.5,7.5v16.9c0,1.4,1,2.5,2.3,2.5h22.4
	c1.3,0,2.3-1.1,2.3-2.5V7.5C29.5,6.1,28.5,5,27.2,5z M28.6,24.5c0,0.9-0.6,1.6-1.4,1.6H4.8c-0.8,0-1.4-0.7-1.4-1.6v-8.9
	c1.1,1.9,3,3.2,5.2,3.2h5.6v1.6c0,0.8,0.6,1.5,1.4,1.5h0.9c0.8,0,1.4-0.7,1.4-1.5v-1.6h5.6c2.2,0,4.1-1.3,5.2-3.2L28.6,24.5
	L28.6,24.5z M15.5,19.8h0.9c0.2,0,0.3,0,0.5-0.1v0.6c0,0.3-0.2,0.5-0.5,0.5h-0.9c-0.3,0-0.5-0.2-0.5-0.5v-0.6
	C15.2,19.8,15.4,19.8,15.5,19.8z M15,18.3v-1c0-0.3,0.2-0.5,0.5-0.5h0.9c0.3,0,0.5,0.2,0.5,0.5v1c0,0.3-0.2,0.5-0.5,0.5h-0.9
	C15.3,18.9,15,18.6,15,18.3z M28.6,12.2c0,3.1-2.3,5.7-5.2,5.7h-5.6v-0.5c0-0.8-0.6-1.5-1.4-1.5h-0.9c-0.8,0-1.4,0.7-1.4,1.5v0.5
	H8.5c-2.8,0-5.2-2.5-5.2-5.7V7.5C3.4,6.7,4,6,4.8,6h22.4c0.8,0,1.4,0.7,1.4,1.6V12.2z"/>
<g display="none">
	<g display="inline">
		<g>
			<path fill="#49B3CC" d="M26.9,22.9l-3.5-3.3c-0.5-0.4-1.1-0.7-1.8-0.7c-0.7,0-1.4,0.3-1.8,0.7l-1.4,1.3c-1.1-0.6-2.5-1.3-3.9-2.7
				c-1.4-1.4-2.3-2.7-2.8-3.7l1.4-1.3c1-1,1-2.5,0-3.4L9.6,6.5C9.1,6,8.5,5.8,7.8,5.8C7.2,5.8,6.5,6,6,6.5C5.7,6.7,4.2,8,3.7,10.5
				c-0.8,3.6,1,7.1,6.2,12c5.8,5.5,10.7,5.9,12.1,5.9c0.3,0,0.5,0,0.5,0c2.7-0.3,3.7-1.4,4.4-2.3C27.8,25.1,27.8,23.7,26.9,22.9
				 M25.7,25.3c-0.7,0.8-1.3,1.5-3.4,1.8c0,0-0.1,0-0.3,0c-1.2,0-5.7-0.4-11.1-5.5C6.1,17,4.5,13.9,5.1,10.8C5.6,8.6,6.9,7.6,7,7.6
				l0,0l0,0c0.2-0.2,0.5-0.3,0.8-0.3c0.3,0,0.5,0.1,0.7,0.3l3.5,3.3c0.4,0.4,0.4,1,0,1.4l-1.5,1.5l0,0c-0.4,0.4-0.4,1-0.1,1.3
				c0.6,1.1,1.5,2.6,3.2,4.2c1.7,1.6,3.2,2.4,4.4,3c0.1,0.1,0.3,0.2,0.6,0.2c0.3,0,0.7-0.1,0.9-0.4l1.4-1.4c0.2-0.2,0.5-0.3,0.8-0.3
				c0.3,0,0.5,0.1,0.7,0.3l3.5,3.3C26.2,24.3,26.1,24.9,25.7,25.3"/>
			<path fill="#49B3CC" d="M22,29c-1.4,0-6.5-0.4-12.5-6.1c-5.3-5.1-7.2-8.7-6.3-12.5c0.6-2.8,2.2-4.1,2.5-4.4c1.1-1,3.1-1,4.2,0
				l3.5,3.3c0.6,0.5,0.9,1.2,0.9,2c0,0.8-0.3,1.5-0.9,2.1l-1.1,1c0.6,1,1.3,2.1,2.6,3.3c1.2,1.2,2.4,1.9,3.5,2.5l1.1-1
				c1.2-1.1,3.2-1.1,4.3,0l3.5,3.3c1.1,1.1,1.1,2.7,0,4c-0.7,0.8-1.8,2.1-4.7,2.4C22.5,29,22.3,29,22,29z M7.8,6.2
				c-0.6,0-1.1,0.2-1.5,0.6C6,7.1,4.7,8.2,4.1,10.6c-0.7,3.4,1,6.8,6.1,11.6C15.9,27.6,20.6,28,22,28c0.3,0,0.4,0,0.4,0
				c2.5-0.3,3.4-1.3,4.1-2.1c0.7-0.9,0.8-2,0-2.7L23,19.9c-0.8-0.7-2.1-0.7-2.9,0l-1.6,1.5l-0.3-0.2c-1.2-0.6-2.6-1.4-4-2.8
				c-1.4-1.4-2.3-2.7-2.9-3.8l-0.2-0.3l1.6-1.5c0.4-0.4,0.6-0.9,0.6-1.4c0-0.5-0.2-1-0.6-1.3L9.3,6.8C8.9,6.4,8.4,6.2,7.8,6.2z
				 M22,27.6c-1.3,0-5.9-0.4-11.4-5.6C5.7,17.3,3.9,14,4.6,10.7c0.5-2.4,1.9-3.4,2-3.5c0.7-0.6,1.6-0.6,2.2-0.1l3.5,3.3
				c0.3,0.3,0.4,0.6,0.4,1c0,0.4-0.2,0.8-0.5,1.1L10.8,14c-0.3,0.3-0.2,0.6-0.1,0.8c0.6,1.1,1.5,2.5,3.1,4.1
				c1.6,1.5,3.2,2.3,4.3,2.9c0.1,0.1,0.7,0.2,1-0.1l1.5-1.4c0.6-0.6,1.6-0.6,2.2,0l3.5,3.3c0.6,0.6,0.5,1.5-0.1,2.1
				c-0.7,0.8-1.4,1.7-3.7,1.9C22.4,27.6,22.2,27.6,22,27.6z M7.8,7.7c-0.2,0-0.3,0.1-0.5,0.2L7.3,7.9c0,0-1.2,0.9-1.7,3
				c-0.6,2.9,1,5.9,5.7,10.3c5.3,5,9.5,5.4,10.7,5.4c0.2,0,0.3,0,0.3,0c1.9-0.2,2.4-0.8,3.1-1.6c0.2-0.2,0.4-0.6,0.1-0.8L22,20.9
				c-0.2-0.2-0.6-0.2-0.8,0l-1.4,1.4c-0.3,0.3-0.8,0.5-1.2,0.5c-0.4,0-0.7-0.1-0.9-0.2c-1.2-0.6-2.8-1.5-4.5-3.1
				c-1.7-1.6-2.6-3.2-3.3-4.3c-0.3-0.5-0.4-1.3,0.2-1.9l1.6-1.5c0.1-0.1,0.2-0.3,0.2-0.4c0-0.1,0-0.2-0.1-0.3L8.2,7.8
				C8.1,7.7,8,7.7,7.8,7.7z"/>
		</g>
	</g>
	<g display="inline">
		<g>
			<path fill="#49B3CC" d="M18.9,5.5c1.7,0.2,3.7,1.3,5.1,2.8c1.4,1.5,2.4,3.7,2.6,5.6c0.1,0.5,0.5,1,1,1c0,0,0.1,0,0.1,0
				c0.5-0.1,0.9-0.6,0.9-1.2c-0.2-2.4-1.5-5-3.2-6.9c-1.7-1.9-4.1-3.2-6.3-3.5c-0.5-0.1-1,0.4-1.1,0.9C18,4.9,18.4,5.4,18.9,5.5"/>
			<path fill="#49B3CC" d="M27.7,15.2c-0.7,0-1.3-0.5-1.3-1.3c-0.2-1.8-1.2-3.9-2.5-5.4c-1.4-1.5-3.3-2.5-4.9-2.7
				c-0.7-0.1-1.2-0.8-1.2-1.6c0.1-0.8,0.7-1.3,1.5-1.2c2.2,0.3,4.7,1.6,6.5,3.6c1.8,1.9,3.1,4.6,3.3,7.1c0.1,0.8-0.5,1.5-1.2,1.5
				C27.8,15.2,27.7,15.2,27.7,15.2z M19.1,3.7c-0.4,0-0.7,0.3-0.7,0.6c0,0.4,0.2,0.8,0.6,0.8c1.8,0.2,3.9,1.4,5.3,2.9
				c1.5,1.6,2.5,3.8,2.7,5.8c0,0.4,0.3,0.7,0.6,0.7l0.1,0c0.4,0,0.6-0.4,0.6-0.8c-0.2-2.3-1.4-4.8-3.1-6.7
				C23.5,5.2,21.2,3.9,19.1,3.7C19.1,3.7,19.1,3.7,19.1,3.7z"/>
		</g>
		<g>
			<path fill="#49B3CC" d="M18,10c0.9,0.1,2.2,0.9,3,1.8c0.8,0.9,1.5,2.3,1.6,3.3c0.1,0.5,0.5,1,1,1c0,0,0.1,0,0.1,0
				c0.5-0.1,0.9-0.6,0.9-1.2c-0.2-1.7-1.2-3.5-2.2-4.6c-1-1-2.6-2.2-4.2-2.4c-0.5-0.1-1,0.4-1.1,0.9C17.1,9.4,17.5,9.9,18,10"/>
			<path fill="#49B3CC" d="M23.6,16.3c-0.7,0-1.3-0.5-1.3-1.3c-0.1-0.9-0.7-2.3-1.5-3.1c-0.8-0.8-2-1.5-2.8-1.6
				c-0.7-0.1-1.3-0.8-1.2-1.6c0.1-0.8,0.7-1.3,1.5-1.2c1.7,0.2,3.4,1.4,4.4,2.5c1,1.1,2.1,3,2.3,4.8c0.1,0.8-0.5,1.5-1.2,1.5
				C23.7,16.3,23.7,16.3,23.6,16.3z M18.2,8.2c-0.4,0-0.7,0.3-0.7,0.6c0,0.4,0.2,0.8,0.6,0.8c1,0.1,2.3,0.9,3.2,1.9
				c0.9,1,1.6,2.4,1.7,3.5c0,0.4,0.3,0.7,0.6,0.7l0.1,0c0.4,0,0.6-0.4,0.6-0.8c-0.2-1.6-1.2-3.4-2.1-4.4C21.3,9.4,19.7,8.3,18.2,8.2
				C18.2,8.2,18.2,8.2,18.2,8.2z"/>
		</g>
	</g>
</g>
</svg>
