<?xml version="1.0" encoding="utf-8"?>
<!-- Generator: Adobe Illustrator 18.1.1, SVG Export Plug-In . SVG Version: 6.00 Build 0)  -->
<svg version="1.1" id="Layer_1" xmlns="http://www.w3.org/2000/svg" xmlns:xlink="http://www.w3.org/1999/xlink" x="0px" y="0px"
	 viewBox="-1 3.1 27.4 27.9" enable-background="new -1 3.1 27.4 27.9" xml:space="preserve">
<rect x="27.3" y="2.5" fill="#FFFFFF" fill-opacity="0" width="33" height="24"/>
<path display="none" fill="none" stroke="#FFFFFF" stroke-width="1.5" stroke-miterlimit="10" d="M48.2,3.5H23.4
	c-1.4,0-2.5,1.1-2.5,2.5v17c0,1.4,1.1,2.5,2.5,2.5h24.7c1.4,0,2.5-1.1,2.5-2.5V6C50.7,4.6,49.6,3.5,48.2,3.5z M49.7,23
	c0,0.9-0.7,1.6-1.6,1.6H23.4c-0.9,0-1.6-0.7-1.6-1.6v-8.9c1.2,1.9,3.3,3.2,5.7,3.2h6.2v1.6c0,0.8,0.7,1.5,1.5,1.5h1
	c0.8,0,1.5-0.7,1.5-1.5v-1.6H44c2.4,0,4.5-1.3,5.7-3.2L49.7,23L49.7,23z M35.3,18.3h1c0.2,0,0.4,0,0.5-0.1v0.6
	c0,0.3-0.2,0.5-0.5,0.5h-1c-0.3,0-0.5-0.2-0.5-0.5v-0.6C34.9,18.3,35.1,18.3,35.3,18.3z M34.7,16.8v-1c0-0.3,0.2-0.5,0.5-0.5h1
	c0.3,0,0.5,0.2,0.5,0.5v1c0,0.3-0.2,0.5-0.5,0.5h-1C35,17.4,34.7,17.1,34.7,16.8z M49.7,10.6c0,3.1-2.6,5.7-5.7,5.7h-6.2v-0.6
	c0-0.8-0.7-1.5-1.5-1.5h-1c-0.8,0-1.5,0.7-1.5,1.5v0.6h-6.2c-3.1,0-5.7-2.6-5.7-5.7V6c0-0.9,0.7-1.6,1.6-1.6h24.7
	c0.9,0,1.6,0.7,1.6,1.6L49.7,10.6L49.7,10.6z"/>
<g display="none">
	<g display="inline">
		<g>
			<line fill="none" stroke="#FFFFFF" stroke-width="2.3" stroke-miterlimit="10" x1="23.1" y1="12.1" x2="30.1" y2="12.1"/>
			<line fill="none" stroke="#FFFFFF" stroke-width="2.3" stroke-miterlimit="10" x1="23.1" y1="16.9" x2="34.8" y2="16.9"/>
			<line fill="none" stroke="#FFFFFF" stroke-width="2.3" stroke-miterlimit="10" x1="23.1" y1="21.6" x2="34.8" y2="21.6"/>
		</g>
		<g>
			<ellipse fill="none" stroke="#FFFFFF" stroke-width="2.3" stroke-miterlimit="10" cx="11.5" cy="13.4" rx="3.4" ry="3.6"/>
			<path fill="none" stroke="#FFFFFF" stroke-width="2.3" stroke-miterlimit="10" d="M5.9,22.7c0-3.2,2.5-5.8,5.6-5.8
				c3.1,0,5.6,2.6,5.6,5.8"/>
		</g>
	</g>
	<path display="inline" fill="none" stroke="#FFFFFF" stroke-width="2.3" stroke-miterlimit="10" d="M37.5,25.5
		c0,0.7-0.6,1.3-1.3,1.3H3.8c-0.7,0-1.3-0.6-1.3-1.3v-19c0-0.7,0.6-1.3,1.3-1.3h32.5c0.7,0,1.3,0.6,1.3,1.3L37.5,25.5L37.5,25.5z"/>
</g>
<path display="none" fill="#FFFFFF" stroke="#FFFFFF" stroke-width="0.5" stroke-miterlimit="10" d="M35.9,26.3V15.9
	c0-1.4-1.1-2.5-2.5-2.5h-0.1v-2.8c0-4-3.3-7.3-7.3-7.3s-7.3,3.3-7.3,7.3v2.8h-0.1c-1.4,0-2.5,1.1-2.5,2.5v10.4
	c0,1.4,1.1,2.5,2.5,2.5h14.7C34.8,28.8,35.9,27.7,35.9,26.3 M20.4,10.5c0-3.1,2.5-5.6,5.6-5.6c3.1,0,5.6,2.5,5.6,5.6v2.8H20.4V10.5z
	 M17.8,26.3V15.9c0-0.5,0.4-0.8,0.8-0.8h14.7c0.5,0,0.8,0.4,0.8,0.8v10.4c0,0.5-0.4,0.8-0.8,0.8H18.7C18.2,27.1,17.8,26.7,17.8,26.3
	"/>
<g display="none">
	<g display="inline">
		<g>
			<path fill="#FFFFFF" d="M23.8,24.4L20.2,21c-0.5-0.5-1.1-0.7-1.8-0.7c-0.7,0-1.4,0.3-1.9,0.8l-1.4,1.3c-1.1-0.6-2.5-1.4-4-2.8
				c-1.5-1.4-2.3-2.8-2.9-3.9l1.4-1.3c1-1,1.1-2.6,0-3.6L6,7.3C5.6,6.8,4.9,6.5,4.2,6.5c-0.7,0-1.4,0.3-1.9,0.7
				c-0.3,0.2-1.8,1.6-2.4,4.3c-0.8,3.8,1,7.4,6.4,12.6c6,5.8,11,6.2,12.5,6.2c0.3,0,0.5,0,0.5,0c2.8-0.3,3.8-1.5,4.5-2.4
				C24.7,26.8,24.7,25.3,23.8,24.4 M22.6,27c-0.7,0.8-1.3,1.6-3.5,1.8c0,0-0.1,0-0.3,0c-1.3,0-5.8-0.4-11.4-5.8
				c-4.9-4.8-6.6-8-6-11.3C2,9.5,3.3,8.5,3.3,8.4l0,0l0,0C3.6,8.1,3.9,8,4.2,8C4.5,8,4.8,8.1,5,8.3l3.6,3.5c0.4,0.4,0.4,1.1,0,1.5
				l-1.6,1.5l0,0c-0.4,0.4-0.4,1-0.1,1.4c0.7,1.1,1.5,2.7,3.3,4.4c1.7,1.7,3.3,2.5,4.5,3.2c0.1,0.1,0.4,0.2,0.7,0.2
				c0.4,0,0.7-0.1,0.9-0.4l1.5-1.4c0.2-0.2,0.5-0.3,0.8-0.3c0.3,0,0.5,0.1,0.7,0.3l3.6,3.5C23.2,25.9,23,26.6,22.6,27"/>
			<path fill="#FFFFFF" d="M18.8,30.9c-1.5,0-6.7-0.5-12.8-6.4c-5.5-5.3-7.4-9.1-6.5-13.1c0.6-2.9,2.3-4.3,2.6-4.6
				c1.1-1.1,3.2-1.1,4.3,0l3.6,3.5c0.6,0.6,0.9,1.3,0.9,2.1c0,0.8-0.3,1.6-0.9,2.2l-1.1,1.1c0.6,1,1.4,2.2,2.6,3.4
				c1.3,1.2,2.5,2,3.6,2.6l1.1-1.1c1.2-1.1,3.2-1.2,4.4-0.1l3.6,3.5c1.1,1.1,1.2,2.9,0,4.2c-0.7,0.9-1.9,2.2-4.8,2.6
				C19.3,30.8,19.1,30.9,18.8,30.9z M4.2,7C3.7,7,3.1,7.3,2.7,7.6c-0.3,0.2-1.7,1.5-2.3,4c-0.8,3.6,1,7.1,6.2,12.1
				c5.8,5.6,10.7,6.1,12.1,6.1c0.3,0,0.4,0,0.5,0c2.6-0.3,3.5-1.4,4.2-2.2c0.8-0.9,0.8-2.1,0-2.9l-3.6-3.5c-0.8-0.8-2.2-0.7-3,0.1
				L15.2,23l-0.3-0.2c-1.2-0.6-2.6-1.5-4.1-2.9c-1.5-1.4-2.3-2.8-3-4l-0.2-0.3L9.2,14c0.4-0.4,0.6-0.9,0.6-1.5c0-0.5-0.2-1-0.6-1.4
				L5.7,7.6C5.3,7.3,4.8,7,4.2,7z M18.8,29.4c-1.3,0-6-0.4-11.7-5.9C2,18.6,0.2,15.2,1,11.7C1.5,9.2,2.9,8.2,3,8
				C3.7,7.4,4.7,7.4,5.3,8l3.6,3.5c0.3,0.3,0.4,0.7,0.4,1.1c0,0.4-0.2,0.8-0.5,1.1l-1.6,1.5C7,15.4,7.1,15.8,7.2,16
				c0.6,1.1,1.5,2.6,3.2,4.3c1.7,1.6,3.2,2.5,4.4,3.1c0.1,0.1,0.7,0.2,1-0.1l1.5-1.5c0.6-0.6,1.6-0.6,2.2,0l3.6,3.5
				c0.7,0.6,0.5,1.6-0.1,2.2c-0.7,0.9-1.5,1.7-3.8,2C19.2,29.4,19,29.4,18.8,29.4z M4.2,8.5c-0.2,0-0.3,0.1-0.5,0.2L3.7,8.8
				c0,0-1.3,1-1.7,3.1c-0.6,3,1,6.2,5.8,10.8c5.4,5.2,9.8,5.6,11,5.6c0.2,0,0.3,0,0.3,0c2-0.2,2.5-0.9,3.1-1.7
				c0.2-0.2,0.4-0.6,0.1-0.9l-3.6-3.5c-0.2-0.2-0.6-0.2-0.8,0l-1.5,1.4c-0.3,0.3-0.8,0.6-1.3,0.6c-0.4,0-0.7-0.1-0.9-0.2
				c-1.2-0.6-2.8-1.5-4.6-3.2c-1.8-1.7-2.7-3.3-3.4-4.5c-0.3-0.5-0.4-1.4,0.2-2l1.6-1.6c0.1-0.1,0.2-0.3,0.2-0.4
				c0-0.1,0-0.2-0.1-0.3L4.6,8.7C4.5,8.6,4.4,8.5,4.2,8.5z"/>
		</g>
	</g>
	<g display="inline">
		<g>
			<path fill="#FFFFFF" d="M15.6,6.2c1.8,0.2,3.8,1.4,5.3,3c1.5,1.6,2.5,3.9,2.7,5.8c0.1,0.6,0.5,1,1,1c0,0,0.1,0,0.1,0
				c0.6-0.1,1-0.6,0.9-1.2c-0.2-2.5-1.5-5.2-3.3-7.2c-1.8-2-4.3-3.3-6.5-3.6c-0.6-0.1-1.1,0.4-1.1,1C14.7,5.6,15.1,6.2,15.6,6.2"/>
			<path fill="#FFFFFF" d="M24.6,16.4c-0.7,0-1.3-0.6-1.4-1.3c-0.2-1.9-1.2-4.1-2.6-5.6c-1.4-1.5-3.4-2.6-5-2.9
				c-0.7-0.1-1.3-0.8-1.2-1.6c0.1-0.8,0.8-1.4,1.5-1.3c2.3,0.3,4.9,1.7,6.7,3.7c1.8,2,3.1,4.9,3.4,7.4c0.1,0.8-0.5,1.5-1.2,1.6
				C24.7,16.4,24.7,16.4,24.6,16.4z M15.8,4.4c-0.4,0-0.7,0.3-0.7,0.7c0,0.4,0.2,0.8,0.6,0.9c1.8,0.2,4,1.4,5.5,3.1
				c1.5,1.7,2.6,4,2.8,6c0,0.4,0.3,0.7,0.7,0.7l0.1,0c0.4,0,0.6-0.4,0.6-0.9c-0.2-2.4-1.5-5.1-3.2-7C20.4,6,18,4.6,15.8,4.4
				C15.8,4.4,15.8,4.4,15.8,4.4z"/>
		</g>
		<g>
			<path fill="#FFFFFF" d="M14.7,10.9c0.9,0.1,2.3,0.9,3.1,1.8c0.9,1,1.6,2.4,1.7,3.5c0.1,0.6,0.5,1,1,1c0,0,0.1,0,0.1,0
				c0.6-0.1,1-0.6,0.9-1.2c-0.2-1.8-1.3-3.7-2.3-4.8c-1-1.1-2.7-2.3-4.3-2.5c-0.6-0.1-1.1,0.4-1.1,1C13.7,10.3,14.1,10.9,14.7,10.9"
				/>
			<path fill="#FFFFFF" d="M20.5,17.6c-0.7,0-1.3-0.6-1.4-1.3c-0.1-1-0.8-2.4-1.6-3.3c-0.8-0.9-2-1.6-2.9-1.7
				c-0.7-0.1-1.3-0.8-1.2-1.6c0.1-0.8,0.8-1.4,1.5-1.3c1.7,0.2,3.5,1.5,4.5,2.6c1,1.1,2.2,3.1,2.4,5c0.1,0.8-0.5,1.5-1.2,1.6
				C20.6,17.6,20.5,17.6,20.5,17.6z M14.9,9c-0.4,0-0.7,0.3-0.7,0.7c0,0.4,0.2,0.8,0.6,0.9c1,0.1,2.4,0.9,3.3,1.9
				c0.9,1,1.7,2.5,1.8,3.7c0,0.4,0.3,0.7,0.7,0.7l0.1,0c0.4,0,0.6-0.4,0.6-0.9c-0.2-1.7-1.2-3.6-2.2-4.6C18,10.4,16.4,9.2,14.9,9
				C14.9,9,14.9,9,14.9,9z"/>
		</g>
	</g>
</g>
<g>
	<path fill="#49B3CC" d="M17.2,20.5c2.5-1.5,4.1-4.2,4.1-7.3c0-4.7-3.9-8.6-8.6-8.6c-4.7,0-8.6,3.9-8.6,8.6c0,3.1,1.6,5.8,4.1,7.3
		c-4.3,1.6-7.5,5.4-8.4,9.9H2c1.1-4.9,5.5-8.6,10.7-8.6c5.3,0,9.6,3.6,10.7,8.6h2.1C24.7,25.8,21.5,22,17.2,20.5 M6.2,13.2
		c0-3.5,2.9-6.4,6.4-6.4c3.5,0,6.4,2.9,6.4,6.4c0,3.5-2.9,6.4-6.4,6.4C9.1,19.7,6.2,16.8,6.2,13.2"/>
	<path fill="#49B3CC" d="M26.1,30.9H23l-0.1-0.4c-1-4.8-5.3-8.2-10.2-8.2s-9.2,3.4-10.2,8.2l-0.1,0.4h-3.2l0.1-0.6
		c0.8-4.3,3.8-8,7.8-9.9c-2.2-1.7-3.5-4.3-3.5-7.2c0-5,4.1-9.1,9.1-9.1s9.1,4.1,9.1,9.1c0,2.9-1.3,5.5-3.5,7.2c4,1.8,7,5.5,7.8,9.9
		L26.1,30.9z M23.8,29.9h1.1c-1-4.1-4-7.5-7.9-8.9l-1-0.4l0.9-0.5c2.4-1.5,3.8-4,3.8-6.9c0-4.5-3.6-8.1-8.1-8.1s-8.1,3.6-8.1,8.1
		c0,2.8,1.4,5.4,3.8,6.9l0.9,0.5l-1,0.4c-4,1.5-6.9,4.9-7.9,8.9h1.1c1.3-5,5.9-8.6,11.1-8.6C18,21.3,22.5,24.8,23.8,29.9z
		 M12.7,20.2c-3.8,0-6.9-3.1-6.9-6.9s3.1-6.9,6.9-6.9s6.9,3.1,6.9,6.9C19.6,17.1,16.5,20.2,12.7,20.2z M12.7,7.3
		c-3.3,0-5.9,2.7-5.9,5.9s2.7,5.9,5.9,5.9s5.9-2.7,5.9-5.9C18.6,10,15.9,7.3,12.7,7.3z"/>
</g>
</svg>
