<?xml version="1.0" encoding="utf-8"?>
<!-- Generator: Adobe Illustrator 18.1.1, SVG Export Plug-In . SVG Version: 6.00 Build 0)  -->
<svg version="1.0" id="Layer_1" xmlns="http://www.w3.org/2000/svg" xmlns:xlink="http://www.w3.org/1999/xlink" x="0px" y="0px"
	 width="32px" height="32px" viewBox="0 0 32 32" enable-background="new 0 0 32 32" xml:space="preserve">
<rect opacity="0" fill="#49B3CC" width="32" height="32"/>
<g display="none">
	<path display="inline" fill="#49B3CC" d="M20.3,18.9c2.4-1.5,3.9-4.1,3.9-7.1c0-4.6-3.7-8.3-8.3-8.3c-4.6,0-8.3,3.8-8.3,8.3
		c0,3,1.5,5.6,3.9,7.1c-4.1,1.6-7.2,5.2-8.1,9.6h2.1c1-4.8,5.3-8.3,10.3-8.3c5.1,0,9.3,3.5,10.3,8.3h2.1
		C27.6,24,24.5,20.4,20.3,18.9 M9.8,11.8c0-3.4,2.8-6.3,6.2-6.3c3.4,0,6.2,2.8,6.2,6.3c0,3.4-2.8,6.3-6.2,6.3
		C12.6,18.1,9.8,15.3,9.8,11.8"/>
	<path display="inline" fill="#49B3CC" d="M29,29h-3l-0.1-0.4c-1-4.7-5.1-8-9.9-8s-8.9,3.3-9.9,8L6,29H3l0.1-0.6
		c0.8-4.2,3.6-7.8,7.5-9.6c-2.2-1.6-3.4-4.2-3.4-7C7.2,7,11.2,3,16,3s8.8,4,8.8,8.8c0,2.8-1.3,5.3-3.4,7c3.9,1.7,6.7,5.3,7.5,9.6
		L29,29z M26.7,28h1.1c-0.9-4-3.8-7.3-7.6-8.6l-1-0.3l0.9-0.5c2.3-1.4,3.7-3.9,3.7-6.7C23.8,7.5,20.3,4,16,4s-7.8,3.5-7.8,7.9
		c0,2.8,1.4,5.3,3.7,6.7l0.8,0.5l-0.9,0.4C8,20.8,5.1,24.1,4.2,28h1.1c1.2-4.9,5.7-8.3,10.7-8.3C21.1,19.7,25.5,23.1,26.7,28z
		 M16,18.6c-3.7,0-6.7-3-6.7-6.7s3-6.7,6.7-6.7s6.7,3,6.7,6.7C22.7,15.5,19.7,18.6,16,18.6z M16,6.1c-3.2,0-5.7,2.6-5.7,5.8
		s2.6,5.8,5.7,5.8s5.7-2.6,5.7-5.8C21.7,8.6,19.2,6.1,16,6.1z"/>
</g>
<path display="none" fill="#FFFFFF" stroke="#FFFFFF" stroke-miterlimit="10" d="M27.2,5H4.8C3.5,5,2.5,6.1,2.5,7.5v16.9
	c0,1.4,1,2.5,2.3,2.5h22.4c1.3,0,2.3-1.1,2.3-2.5V7.5C29.5,6.1,28.5,5,27.2,5z M28.6,24.5c0,0.9-0.6,1.6-1.4,1.6H4.8
	c-0.8,0-1.4-0.7-1.4-1.6v-8.9c1.1,1.9,3,3.2,5.2,3.2h5.6v1.6c0,0.8,0.6,1.5,1.4,1.5h0.9c0.8,0,1.4-0.7,1.4-1.5v-1.6h5.6
	c2.2,0,4.1-1.3,5.2-3.2L28.6,24.5L28.6,24.5z M15.5,19.8h0.9c0.2,0,0.3,0,0.5-0.1v0.6c0,0.3-0.2,0.5-0.5,0.5h-0.9
	c-0.3,0-0.5-0.2-0.5-0.5v-0.6C15.2,19.8,15.4,19.8,15.5,19.8z M15,18.3v-1c0-0.3,0.2-0.5,0.5-0.5h0.9c0.3,0,0.5,0.2,0.5,0.5v1
	c0,0.3-0.2,0.5-0.5,0.5h-0.9C15.3,18.9,15,18.6,15,18.3z M28.6,12.2c0,3.1-2.3,5.7-5.2,5.7h-5.6v-0.5c0-0.8-0.6-1.5-1.4-1.5h-0.9
	c-0.8,0-1.4,0.7-1.4,1.5v0.5H8.5c-2.8,0-5.2-2.5-5.2-5.7V7.5C3.4,6.7,4,6,4.8,6h22.4c0.8,0,1.4,0.7,1.4,1.6V12.2z"/>
<g display="none">
	<g display="inline">
		<g>
			<path fill="#FFFFFF" d="M27.7,23.4l-3.7-3.6c-0.5-0.5-1.2-0.7-1.9-0.7c-0.7,0-1.5,0.3-2,0.8l-1.5,1.4c-1.1-0.6-2.6-1.4-4.2-2.9
				c-1.6-1.5-2.4-2.9-3.1-4l1.5-1.4c1.1-1,1.1-2.7,0-3.7L9.1,5.7C8.6,5.2,7.9,5,7.2,5c-0.7,0-1.4,0.3-2,0.8C4.9,6,3.3,7.3,2.7,10.1
				c-0.8,3.9,1.1,7.7,6.7,13c6.2,5.9,11.6,6.4,13,6.4c0.3,0,0.5,0,0.5,0c2.9-0.3,4-1.6,4.7-2.4C28.7,25.8,28.7,24.3,27.7,23.4
				 M26.4,26.1c-0.7,0.8-1.4,1.6-3.6,1.9c0,0-0.1,0-0.4,0c-1.3,0-6.1-0.4-11.9-5.9c-5.1-4.9-7-8.3-6.2-11.6C4.8,8,6.2,7,6.3,6.9l0,0
				l0,0c0.2-0.2,0.5-0.3,0.9-0.3c0.3,0,0.6,0.1,0.8,0.3l3.7,3.6c0.4,0.4,0.4,1.1,0,1.5L10,13.5l0,0c-0.4,0.5-0.4,1.1-0.1,1.5
				c0.7,1.2,1.6,2.8,3.4,4.5c1.8,1.7,3.5,2.6,4.7,3.2c0.1,0.1,0.4,0.2,0.7,0.2c0.4,0,0.7-0.1,1-0.4l1.5-1.5c0.2-0.2,0.5-0.3,0.9-0.3
				c0.3,0,0.6,0.1,0.8,0.3l3.7,3.6C27,24.9,26.8,25.6,26.4,26.1"/>
			<path fill="#FFFFFF" d="M22.4,30c-1.5,0-7-0.5-13.4-6.5C3.3,18,1.3,14.1,2.2,10c0.6-3,2.4-4.4,2.7-4.7c1.2-1.1,3.3-1.1,4.5,0
				l3.7,3.6c0.6,0.6,0.9,1.3,0.9,2.2c0,0.9-0.3,1.7-1,2.3L12,14.4c0.6,1.1,1.5,2.3,2.8,3.5c1.3,1.3,2.6,2,3.7,2.6l1.2-1.1
				c1.2-1.2,3.4-1.2,4.6-0.1L28,23c1.2,1.1,1.2,3,0,4.3c-0.8,0.9-1.9,2.3-5.1,2.6C23,30,22.8,30,22.4,30z M7.2,5.5
				C6.6,5.5,6,5.7,5.6,6.1c-0.3,0.3-1.8,1.5-2.4,4.1c-0.8,3.7,1.1,7.3,6.5,12.5C15.9,28.5,21,29,22.4,29c0.3,0,0.4,0,0.5,0
				c2.7-0.3,3.6-1.4,4.4-2.3c0.8-1,0.8-2.2,0-2.9l-3.7-3.6c-0.8-0.8-2.3-0.8-3.2,0.1l-1.7,1.6l-0.3-0.2c-1.3-0.7-2.8-1.5-4.3-3
				c-1.6-1.5-2.4-2.9-3.1-4.1l-0.2-0.3l1.8-1.7c0.4-0.4,0.7-1,0.7-1.5c0-0.5-0.2-1.1-0.6-1.4L8.7,6.1C8.3,5.7,7.8,5.5,7.2,5.5z
				 M22.4,28.5c-1.4,0-6.3-0.4-12.3-6.1c-5.3-5-7.1-8.5-6.4-12.1c0.6-2.6,2-3.7,2.2-3.8c0.7-0.7,1.8-0.7,2.4-0.1l3.7,3.6
				c0.3,0.3,0.5,0.7,0.5,1.1c0,0.4-0.2,0.9-0.5,1.2l-1.7,1.6c-0.3,0.3-0.2,0.7-0.1,0.9c0.7,1.2,1.6,2.7,3.3,4.4
				c1.7,1.7,3.4,2.5,4.6,3.2c0.1,0.1,0.7,0.2,1-0.1l1.6-1.5c0.6-0.6,1.7-0.6,2.3-0.1l3.7,3.6c0.7,0.7,0.5,1.6-0.1,2.3
				c-0.8,0.9-1.5,1.8-4,2.1C22.8,28.5,22.7,28.5,22.4,28.5z M7.2,7C7,7,6.8,7.1,6.7,7.2L6.6,7.3c0,0-1.3,1-1.8,3.2
				c-0.7,3.1,1.1,6.4,6.1,11.1c5.7,5.4,10.3,5.8,11.5,5.8c0.2,0,0.3,0,0.3,0c2-0.2,2.6-0.9,3.3-1.7c0.2-0.2,0.4-0.7,0.1-0.9
				l-3.7-3.6c-0.2-0.2-0.6-0.2-0.9,0L20,22.8c-0.3,0.4-0.8,0.6-1.3,0.6c-0.4,0-0.8-0.2-0.9-0.2c-1.3-0.7-3-1.6-4.8-3.3
				c-1.9-1.8-2.8-3.4-3.5-4.6c-0.3-0.6-0.4-1.4,0.2-2.1l1.7-1.6c0.1-0.1,0.2-0.3,0.2-0.4c0-0.1,0-0.2-0.1-0.3L7.6,7.2
				C7.5,7.1,7.4,7,7.2,7z"/>
		</g>
	</g>
	<g display="inline">
		<g>
			<path fill="#FFFFFF" d="M19.2,4.7c1.8,0.2,4,1.4,5.5,3.1c1.5,1.6,2.6,4,2.8,6c0.1,0.6,0.5,1,1.1,1c0,0,0.1,0,0.1,0
				c0.6-0.1,1-0.6,0.9-1.3c-0.3-2.5-1.6-5.4-3.5-7.4c-1.9-2-4.5-3.4-6.8-3.7c-0.6-0.1-1.1,0.4-1.2,1C18.1,4,18.6,4.6,19.2,4.7"/>
			<path fill="#FFFFFF" d="M28.6,15.1c-0.7,0-1.3-0.6-1.4-1.4c-0.2-1.9-1.3-4.2-2.7-5.8c-1.5-1.6-3.5-2.7-5.3-2.9
				c-0.8-0.1-1.3-0.8-1.3-1.7c0.1-0.8,0.8-1.4,1.6-1.3c2.4,0.3,5.1,1.8,7,3.8c1.9,2.1,3.3,5,3.5,7.6c0.1,0.8-0.5,1.6-1.3,1.7
				C28.7,15.1,28.6,15.1,28.6,15.1z M19.3,2.7c-0.4,0-0.7,0.3-0.8,0.7c0,0.4,0.2,0.8,0.6,0.9c1.9,0.2,4.2,1.5,5.7,3.2
				c1.6,1.7,2.7,4.1,2.9,6.2c0,0.4,0.3,0.7,0.7,0.7l0.1,0c0.4,0,0.7-0.4,0.6-0.9C29,11,27.7,8.3,25.9,6.3C24.1,4.4,21.6,3,19.3,2.7
				C19.3,2.7,19.3,2.7,19.3,2.7z"/>
		</g>
		<g>
			<path fill="#FFFFFF" d="M18.2,9.5c1,0.1,2.4,0.9,3.3,1.9c0.9,1,1.6,2.5,1.8,3.6c0.1,0.6,0.5,1,1.1,1c0,0,0.1,0,0.1,0
				c0.6-0.1,1-0.6,0.9-1.3c-0.2-1.8-1.3-3.8-2.4-4.9c-1-1.1-2.8-2.3-4.5-2.6c-0.6-0.1-1.1,0.4-1.2,1C17.1,8.8,17.6,9.4,18.2,9.5"/>
			<path fill="#FFFFFF" d="M24.2,16.3c-0.7,0-1.3-0.6-1.4-1.4c-0.1-1-0.8-2.4-1.7-3.4c-0.8-0.9-2.1-1.7-3-1.8
				c-0.8-0.1-1.3-0.8-1.3-1.7c0.1-0.8,0.8-1.4,1.6-1.3c1.8,0.2,3.7,1.5,4.8,2.7c1.1,1.2,2.3,3.2,2.5,5.2c0.1,0.8-0.5,1.6-1.3,1.7
				C24.3,16.3,24.3,16.3,24.2,16.3z M18.3,7.6c-0.4,0-0.7,0.3-0.8,0.7c0,0.4,0.2,0.8,0.6,0.9c1.1,0.1,2.5,1,3.5,2
				c1,1,1.7,2.6,1.8,3.8c0,0.4,0.3,0.7,0.7,0.7l0.1,0c0.4,0,0.7-0.4,0.6-0.9c-0.2-1.8-1.3-3.7-2.3-4.7C21.7,8.9,20,7.8,18.3,7.6
				C18.3,7.6,18.3,7.6,18.3,7.6z"/>
		</g>
	</g>
</g>
<g display="none">
	<g display="inline">
		<g>
			<g>
				<rect x="18.5" y="11.3" fill="#FFFFFF" width="5.6" height="2.1"/>
			</g>
			<g>
				<rect x="18.5" y="15.7" fill="#FFFFFF" width="9.4" height="2.1"/>
			</g>
			<g>
				<rect x="18.5" y="20.1" fill="#FFFFFF" width="9.4" height="2.1"/>
			</g>
		</g>
		<g>
			<g>
				<path fill="#FFFFFF" d="M9.2,17.9c-2,0-3.7-1.9-3.7-4.3s1.7-4.3,3.7-4.3s3.7,1.9,3.7,4.3S11.2,17.9,9.2,17.9z M9.2,11.3
					c-1,0-1.8,1-1.8,2.2s0.8,2.2,1.8,2.2s1.8-1,1.8-2.2C11,12.3,10.2,11.3,9.2,11.3z"/>
			</g>
			<g>
				<path fill="#FFFFFF" d="M14.6,22.2h-1.8c0-2.4-1.6-4.3-3.6-4.3s-3.6,1.9-3.6,4.3H3.7c0-3.6,2.4-6.4,5.4-6.4S14.6,18.6,14.6,22.2
					z"/>
			</g>
		</g>
	</g>
	<g display="inline">
		<path fill="#FFFFFF" d="M29,27H3c-1.1,0-2-1-2-2.2V7.2C1,6,1.9,5,3,5H29c1.1,0,2,1,2,2.2v17.6C31,26,30.1,27,29,27z M3,7.1
			c-0.1,0-0.1,0.1-0.1,0.1v17.6c0,0,0,0.1,0.1,0.1H29c0.1,0,0.1,0,0.1-0.1l0-17.6c0,0,0-0.1-0.1-0.1H3z"/>
	</g>
</g>
<g display="none">
	<path display="inline" fill="#FFFFFF" d="M27.7,27.8v-12c0-1.6-1.3-2.9-3-2.9h-0.1V9.7c0-4.6-3.9-8.4-8.6-8.4
		c-4.8,0-8.6,3.8-8.6,8.4v3.3H7.3c-1.7,0-3,1.3-3,2.9v12c0,1.6,1.3,2.9,3,2.9h17.4C26.4,30.7,27.7,29.4,27.7,27.8 M9.4,9.7
		c0-3.6,3-6.5,6.6-6.5c3.7,0,6.6,2.9,6.6,6.5v3.3H9.4V9.7z M6.3,27.8v-12c0-0.5,0.4-1,1-1h17.4c0.6,0,1,0.4,1,1v12c0,0.5-0.4,1-1,1
		H7.3C6.7,28.8,6.3,28.3,6.3,27.8"/>
	<path display="inline" fill="#FFFFFF" d="M24.7,31H7.3C5.5,31,4,29.6,4,27.8v-12c0-1.7,1.4-3.1,3.1-3.2v-3c0-4.8,4-8.7,8.9-8.7
		c4.9,0,8.9,3.9,8.9,8.7v3c1.7,0.1,3.1,1.5,3.1,3.2v12C28,29.6,26.5,31,24.7,31z M7.4,13.2c-1.6,0-2.8,1.2-2.8,2.6v12
		c0,1.4,1.2,2.6,2.7,2.6h17.4c1.5,0,2.7-1.2,2.7-2.6v-12c0-1.4-1.2-2.6-2.7-2.6h-0.3l-0.1-0.3V9.7c0-4.5-3.7-8.1-8.3-8.1
		c-4.6,0-8.3,3.6-8.3,8.1v3.5H7.4z M24.7,29.1H7.3c-0.7,0-1.3-0.6-1.3-1.3v-12c0-0.7,0.6-1.3,1.3-1.3h17.4c0.7,0,1.3,0.6,1.3,1.3v12
		C26,28.5,25.4,29.1,24.7,29.1z M7.3,15.2c-0.4,0-0.7,0.3-0.7,0.7v12c0,0.4,0.3,0.7,0.7,0.7h17.4c0.4,0,0.7-0.3,0.7-0.7v-12
		c0-0.4-0.3-0.7-0.7-0.7L7.3,15.2z M22.9,13.2H9.1V9.7c0-3.7,3.1-6.7,6.9-6.7s6.9,3,6.9,6.7V13.2z M9.7,12.7h12.7v-3
		c0-3.4-2.8-6.2-6.3-6.2S9.7,6.3,9.7,9.7V12.7z"/>
</g>
<g display="none">
	<path display="inline" fill="#FFFFFF" d="M16,1C7.7,1,1,7.7,1,16c0,8.3,6.7,15,15,15c8.3,0,15-6.7,15-15C31,7.7,24.3,1,16,1L16,1z
		 M16,29.1C8.8,29.1,2.9,23.2,2.9,16S8.8,2.9,16,2.9S29.1,8.8,29.1,16S23.2,29.1,16,29.1L16,29.1z M20.7,16.6
		c0.4,0.6,0.5,1.3,0.5,2.1c0,1.2-0.4,2.3-1.1,3.1c-0.7,0.8-1.8,1.3-3.2,1.5v2.1h-1.8v-2.1c-2.3-0.2-3.8-1.6-4.3-4.1l2.7-0.7
		c0.3,1.5,1.1,2.3,2.5,2.3c0.7,0,1.2-0.2,1.5-0.5c0.3-0.3,0.5-0.7,0.5-1.2c0-0.5-0.2-0.9-0.5-1.1c-0.3-0.3-1-0.6-2.1-1
		c-1-0.3-1.7-0.7-2.3-1c-0.5-0.3-1-0.8-1.3-1.4c-0.3-0.6-0.5-1.3-0.5-2.1c0-1,0.3-2,0.9-2.8c0.6-0.8,1.6-1.3,2.9-1.5V6.6h1.8v1.6
		c2,0.2,3.3,1.4,3.9,3.4l-2.4,1c-0.5-1.4-1.2-2.1-2.2-2.1c-0.5,0-0.9,0.2-1.2,0.5c-0.3,0.3-0.5,0.7-0.5,1.1c0,0.4,0.1,0.8,0.4,1
		c0.3,0.2,0.9,0.5,1.9,0.9c1.1,0.4,1.9,0.7,2.5,1.1C19.8,15.5,20.3,16,20.7,16.6L20.7,16.6z M20.7,16.6"/>
</g>
<g display="none">
	<g display="inline">
		<rect x="2.4" y="26.5" fill="#49B3CC" stroke="#49B3CC" stroke-width="0.5" stroke-miterlimit="10" width="27.2" height="1.7"/>
		<path fill="#49B3CC" stroke="#49B3CC" stroke-width="0.5" stroke-miterlimit="10" d="M27.9,18.7v2.7L17.8,11.3L14.2,15L3.8,4.6
			L2.6,5.8l11.5,11.5l3.6-3.6l8.9,8.9H24v1.7h5.6v-5.6H27.9z M27.9,18.7"/>
	</g>
</g>
<g display="none">
	<path display="inline" fill="#49B3CC" d="M3,30h26c0.6,0,1-0.5,1-1.1V5.1C30,4.5,29.6,4,29,4h-4.9V3.1c0-0.6-0.4-1.1-1-1.1
		c-0.6,0-1,0.5-1,1.1V4H10V3.1C10,2.5,9.6,2,9,2c-0.6,0-1,0.5-1,1.1V4H3C2.4,4,2,4.5,2,5.1V29C2,29.5,2.5,30,3,30L3,30z M4,6.1h4.1
		v0.6c0,0.6,0.4,1.1,1,1.1c0.6,0,1-0.5,1-1.1V6.1h12.1v0.6c0,0.6,0.4,1.1,1,1.1c0.6,0,1-0.5,1-1.1V6.1H28v2.8H4V6.1z M4,11h24v16.9
		H4V11z M4,11"/>
	<path display="inline" fill="#49B3CC" d="M23.1,15.9H8.9c-0.6,0-1,0.5-1,1.1c0,0.6,0.4,1.1,1,1.1h14.2c0.6,0,1-0.5,1-1.1
		C24.1,16.4,23.7,15.9,23.1,15.9L23.1,15.9z M23.1,15.9"/>
	<path display="inline" fill="#49B3CC" d="M16,21.1H8.9c-0.6,0-1,0.5-1,1.1c0,0.6,0.4,1.1,1,1.1H16c0.6,0,1-0.5,1-1.1
		C17,21.6,16.6,21.1,16,21.1L16,21.1z M16,21.1"/>
</g>
<g display="none">
	<g display="inline">
		<path fill="#FFFFFF" d="M15.1,15.2l-14.4-5l14.9-5.5l14.4,5L15.1,15.2z M6.6,10.1l8.5,3l9-3.3l-8.5-3L6.6,10.1z"/>
	</g>
	<g display="inline">
		<path fill="#FFFFFF" d="M15.3,27c-1.1,0-2.3-0.1-3.4-0.4l-1.1-0.3C8.3,25.5,7,24.1,7,22V11.3h2V22c0,0.7,0.3,1.7,2.4,2.4l1,0.3
			c1.9,0.5,3.9,0.5,5.8,0l1.1-0.3c2-0.7,2.4-1.4,2.4-2.3V11.3h2V22c0,2.6-2,3.6-3.8,4.3l-1.1,0.3C17.6,26.9,16.5,27,15.3,27z"/>
	</g>
	<g display="inline">
		<rect x="26.9" y="9.6" fill="#FFFFFF" width="0.9" height="7.6"/>
	</g>
	<g display="inline">
		<rect x="26.2" y="16.7" fill="#FFFFFF" width="2.2" height="2.5"/>
	</g>
</g>
<g display="none">
	<g display="inline">
		<defs>
			<rect id="SVGID_1_" x="2" y="3" width="28" height="26"/>
		</defs>
		<clipPath id="SVGID_2_">
			<use xlink:href="#SVGID_1_"  overflow="visible"/>
		</clipPath>
		<path clip-path="url(#SVGID_2_)" fill="#FDFFFF" d="M16,29c0.1,0,0.2,0,0.3-0.1c0.1,0,2.3-1.2,5-3.2c3.6-2.7,6.1-5.6,7.5-8.6
			c0,0,0,0,0,0c0,0,0.4-1,0.6-1.6c0.4-1.3,0.6-2.5,0.6-3.7C30,6.9,26.2,3,21.6,3c-2.1,0-4.1,0.8-5.6,2.2C14.5,3.8,12.5,3,10.4,3
			C5.8,3,2,6.9,2,11.8c0,1.2,0.2,2.4,0.6,3.7c0,0,0.3,1,0.6,1.6c1.4,3,3.9,5.9,7.5,8.6c2.6,2,4.9,3.2,5,3.2C15.8,28.9,15.9,29,16,29
			L16,29z M10.4,4.5c1.9,0,3.7,0.8,5,2.3C15.6,7,15.8,7.1,16,7.1c0.2,0,0.4-0.1,0.6-0.3c1.3-1.5,3.1-2.3,5-2.3
			c3.8,0,6.9,3.3,6.9,7.3c0,0.9-0.1,1.9-0.4,2.9c-0.1,0-0.2,0-0.2,0h-7.3c-0.3,0-0.6,0.2-0.7,0.5l-1.6,3.8l-3.9-9.3
			c-0.1-0.3-0.4-0.5-0.7-0.5c-0.3,0-0.6,0.2-0.7,0.5l-2.1,5H3.9c-0.3-0.9-0.4-1.9-0.4-2.8C3.5,7.8,6.6,4.5,10.4,4.5L10.4,4.5z
			 M4.6,16.4C4.6,16.4,4.6,16.4,4.6,16.4c-0.1-0.1-0.1-0.2-0.2-0.3h7c0.3,0,0.6-0.2,0.7-0.5l1.6-3.8l3.9,9.3
			c0.1,0.3,0.4,0.5,0.7,0.5c0.3,0,0.6-0.2,0.7-0.5l2.1-5h6.5c-0.1,0.1-0.1,0.2-0.1,0.3c-1.6,3.4-4.7,6.3-7,8c-2,1.5-3.7,2.5-4.4,2.9
			c-0.7-0.4-2.5-1.4-4.4-2.9C9.3,22.7,6.2,19.9,4.6,16.4L4.6,16.4z M4.6,16.4"/>
	</g>
</g>
<g display="none">
	<defs>
		<rect id="SVGID_3_" x="2" width="28" height="26"/>
	</defs>
	<clipPath id="SVGID_4_" display="inline">
		<use xlink:href="#SVGID_3_"  overflow="visible"/>
	</clipPath>
	<path display="inline" clip-path="url(#SVGID_4_)" fill="#FFFFFF" d="M14.3,2"/>
	<path display="inline" clip-path="url(#SVGID_4_)" fill="#FFFFFF" d="M30,22.7c0-3.7-2.5-6.8-5.9-7.8c1.5-0.8,2.5-2.4,2.5-4.2
		c0-2.7-2.2-4.8-4.9-4.8c-2.7,0-4.9,2.2-4.9,4.8c0,1.8,1,3.4,2.5,4.2c-0.3,0.1-0.5,0.2-0.7,0.3c-0.6-0.9-1.6-1.4-2.7-1.4
		c-1.1,0-2.1,0.6-2.7,1.4c-0.2-0.1-0.5-0.2-0.7-0.3c1.5-0.8,2.5-2.4,2.5-4.2c0-2.7-2.2-4.8-4.9-4.8c-2.7,0-4.9,2.2-4.9,4.8
		c0,1.8,1,3.4,2.5,4.2c-3.4,1-5.9,4.1-5.9,7.8c0,0.5,0.4,0.9,0.9,0.9h7.8c-0.1,0.4-0.2,0.9-0.2,1.4c0,0.5,0.4,0.9,0.9,0.9h9
		c0,0,0,0,0,0c0.5,0,0.9-0.4,0.9-0.9c0,0,0,0,0-0.1c0-0.5-0.1-0.9-0.2-1.3H29C29.5,23.7,30,23.3,30,22.7C30,22.7,30,22.7,30,22.7
		L30,22.7z M21.8,7.7c1.6,0,3,1.3,3,3c0,1.6-1.3,3-3,3c-1.6,0-3-1.3-3-3C18.8,9.1,20.1,7.7,21.8,7.7L21.8,7.7z M16,15.6
		c0.8,0,1.5,0.7,1.5,1.5c0,0.8-0.7,1.5-1.5,1.5c-0.8,0-1.5-0.7-1.5-1.5C14.5,16.3,15.2,15.6,16,15.6L16,15.6z M10.2,7.7
		c1.6,0,3,1.3,3,3c0,1.6-1.3,3-3,3c-1.6,0-3-1.3-3-3C7.2,9.1,8.5,7.7,10.2,7.7L10.2,7.7z M3.9,21.8c0.5-3,3.1-5.4,6.2-5.4
		c0.9,0,1.7,0.2,2.4,0.5c0,0.1,0,0.1,0,0.2c0,1.2,0.6,2.2,1.6,2.8c-1,0.4-1.9,1-2.6,1.9H3.9z M12.5,24.1c0.4-1.5,1.8-2.6,3.4-2.6
		c1.6,0,3,1.1,3.4,2.6H12.5z M20.3,21.8c-0.6-0.9-1.5-1.5-2.6-1.9c1-0.6,1.6-1.6,1.6-2.8c0-0.1,0-0.1,0-0.2c0.7-0.3,1.6-0.5,2.4-0.5
		c3.2,0,5.8,2.3,6.2,5.4H20.3z M20.3,21.8"/>
</g>
<g display="none">
	<path display="inline" fill="#FFFFFF" stroke="#FFFFFF" stroke-miterlimit="10" d="M10.1,11.2H8.2c-0.4,0-0.7,0.3-0.7,0.7
		c0,0.4,0.3,0.7,0.7,0.7h1.9c0.4,0,0.7-0.3,0.7-0.7C10.8,11.5,10.5,11.2,10.1,11.2L10.1,11.2z M10.1,11.2"/>
	<path display="inline" fill="#FFFFFF" stroke="#FFFFFF" stroke-miterlimit="10" d="M13.1,12.6h6.3c0.4,0,0.7-0.3,0.7-0.7
		c0-0.4-0.3-0.7-0.7-0.7h-6.3c-0.4,0-0.7,0.3-0.7,0.7C12.4,12.3,12.7,12.6,13.1,12.6L13.1,12.6z M13.1,12.6"/>
	<path display="inline" fill="#FFFFFF" stroke="#FFFFFF" stroke-miterlimit="10" d="M10.1,15.3H8.2c-0.4,0-0.7,0.3-0.7,0.7
		c0,0.4,0.3,0.7,0.7,0.7h1.9c0.4,0,0.7-0.3,0.7-0.7C10.8,15.6,10.5,15.3,10.1,15.3L10.1,15.3z M10.1,15.3"/>
	<path display="inline" fill="#FFFFFF" stroke="#FFFFFF" stroke-miterlimit="10" d="M13.1,16.7h6.3c0.4,0,0.7-0.3,0.7-0.7
		c0-0.4-0.3-0.7-0.7-0.7h-6.3c-0.4,0-0.7,0.3-0.7,0.7C12.4,16.4,12.7,16.7,13.1,16.7L13.1,16.7z M13.1,16.7"/>
	<path display="inline" fill="#FFFFFF" stroke="#FFFFFF" stroke-miterlimit="10" d="M10.1,19.4H8.2c-0.4,0-0.7,0.3-0.7,0.7
		c0,0.4,0.3,0.7,0.7,0.7h1.9c0.4,0,0.7-0.3,0.7-0.7C10.8,19.7,10.5,19.4,10.1,19.4L10.1,19.4z M10.1,19.4"/>
	<path display="inline" fill="#FFFFFF" stroke="#FFFFFF" stroke-miterlimit="10" d="M20.1,20.1c0-0.4-0.3-0.7-0.7-0.7h-6.3
		c-0.4,0-0.7,0.3-0.7,0.7c0,0.4,0.3,0.7,0.7,0.7h6.3C19.8,20.8,20.1,20.5,20.1,20.1L20.1,20.1z M20.1,20.1"/>
	<path display="inline" fill="#FFFFFF" stroke="#FFFFFF" stroke-width="0.5" stroke-miterlimit="10" d="M25.6,18.2V4.7
		c0-0.4-0.3-0.7-0.7-0.7H2.7C2.3,4,2,4.3,2,4.7v22.6C2,27.7,2.3,28,2.7,28h22.2c2.8,0,5.1-2.2,5.1-4.9C30,20.6,28.1,18.5,25.6,18.2
		L25.6,18.2z M3.4,26.6V5.4h20.8v12.8c-4.1,0.6-5.9,5.6-2.8,8.4H3.4z M24.9,26.6c-2,0-3.7-1.6-3.7-3.6c0-2,1.6-3.6,3.7-3.6
		c2,0,3.7,1.6,3.7,3.6C28.6,25,27,26.6,24.9,26.6L24.9,26.6z M24.9,26.6"/>
	<path display="inline" fill="#FFFFFF" stroke="#FFFFFF" stroke-miterlimit="10" d="M27.1,21.4c-0.3-0.2-0.8-0.1-1,0.2l-1.4,2.2
		l-1.1-0.9c-0.3-0.2-0.7-0.2-1,0.1c-0.3,0.3-0.2,0.7,0.1,1l1.7,1.4c0.3,0.3,0.8,0.2,1.1-0.2l1.8-2.9C27.5,22,27.4,21.5,27.1,21.4
		L27.1,21.4z M27.1,21.4"/>
</g>
<path display="none" fill="#49B3CC" stroke="#49B3CC" stroke-width="0.5" stroke-miterlimit="10" d="M24.9,30H7.1
	C5.4,30,4,28.6,4,26.9V5.1C4,3.4,5.4,2,7.1,2h17.8C26.6,2,28,3.4,28,5.1v21.8C28,28.6,26.6,30,24.9,30z M26.6,26.5v-21
	c0-1-0.8-1.9-1.9-1.9H7.3c-1,0-1.9,0.8-1.9,1.9v21c0,1,0.8,1.9,1.9,1.9h17.4C25.7,28.3,26.6,27.5,26.6,26.5z M23.8,8.5h-11v1h11V8.5
	z M9.4,7.8C8.8,7.8,8.2,8.3,8.2,9s0.5,1.2,1.2,1.2c0.7,0,1.2-0.5,1.2-1.2S10.1,7.8,9.4,7.8z M23.8,15.5h-11v1h11V15.5z M9.4,14.8
	c-0.7,0-1.2,0.5-1.2,1.2c0,0.7,0.5,1.2,1.2,1.2c0.7,0,1.2-0.5,1.2-1.2C10.7,15.3,10.1,14.8,9.4,14.8z M23.8,22.5h-11v1h11V22.5z
	 M9.4,21.8c-0.7,0-1.2,0.5-1.2,1.2s0.5,1.2,1.2,1.2c0.7,0,1.2-0.5,1.2-1.2S10.1,21.8,9.4,21.8z"/>
<g display="none">
	<path display="inline" fill="#FFFFFF" stroke="#FFFFFF" stroke-width="0.5" stroke-miterlimit="10" d="M16.5,19.3
		c0.7,0,1.2-0.6,1.2-1.2c0-0.7-0.5-1.2-1.2-1.2l-5.6-4.1l4.3,5.4C15.3,18.8,15.8,19.3,16.5,19.3L16.5,19.3z M16.5,19.3"/>
	<path display="inline" fill="#FFFFFF" stroke="#FFFFFF" stroke-width="0.5" stroke-miterlimit="10" d="M16,3.4
		C8.5,3.4,2.4,9.5,2.4,17.1c0,2.8,0.8,5.4,2.3,7.6h1.7l0,0l0,0h0.1c0,0,0,0,0,0l2.4-2.1l-1.1-1.3l-2.2,1.9c-1-1.8-1.7-3.9-1.7-6.1
		c0-0.1,0-0.2,0-0.3l2.7,0V15H4.1c0.4-2.1,1.3-4,2.5-5.6l1.9,1.9l1.2-1.2L7.8,8.1c1.9-1.7,4.3-2.9,7-3.1v3.1h1.7V5
		c3,0.1,5.7,1.4,7.8,3.3l-2,2l1.2,1.2l1.9-1.9c1.2,1.6,2.1,3.4,2.4,5.4h-2.6v1.7h2.8c0,0.1,0,0.2,0,0.3c0,2.2-0.6,4.3-1.6,6.1
		L24.4,21l-1.2,1.2l2.3,2.3c0,0,0,0,0,0h1.8c1.4-2.2,2.3-4.8,2.3-7.6C29.6,9.5,23.5,3.4,16,3.4L16,3.4z M16,3.4"/>
	
		<rect x="9.8" y="25.4" display="inline" fill="#FFFFFF" stroke="#FFFFFF" stroke-width="0.5" stroke-miterlimit="10" width="12.3" height="3.2"/>
</g>
<g display="none">
	<g display="inline">
		<path fill="#FFFFFF" d="M16,2.6C8.6,2.6,2.6,8.6,2.6,16c0,7.4,6,13.4,13.4,13.4c7.4,0,13.4-6,13.4-13.4C29.4,8.6,23.4,2.6,16,2.6
			L16,2.6z M16,28.5C9.1,28.5,3.5,22.9,3.5,16C3.5,9.1,9.1,3.5,16,3.5c6.9,0,12.5,5.6,12.5,12.5C28.5,22.9,22.9,28.5,16,28.5
			L16,28.5z M16,28.5"/>
		<path fill="#FFFFFF" d="M16,29.8C8.4,29.8,2.2,23.6,2.2,16S8.4,2.2,16,2.2S29.8,8.4,29.8,16S23.6,29.8,16,29.8z M16,4
			C9.4,4,4,9.4,4,16s5.4,12,12,12s12-5.4,12-12S22.6,4,16,4z"/>
	</g>
	<g display="inline">
		<path fill="#FFFFFF" d="M16,5.3c-0.2,0-0.4,0.2-0.4,0.4V16H8.9c-0.2,0-0.4,0.2-0.4,0.4c0,0.2,0.2,0.4,0.4,0.4H16
			c0.2,0,0.4-0.2,0.4-0.4V5.8C16.4,5.5,16.2,5.3,16,5.3L16,5.3z M16,5.3"/>
		<path fill="#FFFFFF" d="M16,17.4H8.9C8.4,17.4,8,17,8,16.4c0-0.5,0.4-0.9,0.9-0.9h6.2V5.8c0-0.5,0.4-0.9,0.9-0.9s0.9,0.4,0.9,0.9
			v10.7C16.9,17,16.5,17.4,16,17.4z"/>
	</g>
</g>
<g>
	<g>
		<g>
			<path fill="#49B3CC" stroke="#49B3CC" stroke-width="0.5" stroke-miterlimit="10" d="M25.4,4.1c-0.2-0.1-5-2-8.8,0
				c-3,1.6-8.2,0.4-9.5,0v-1C7.2,3,7,2.8,6.7,2.8C6.5,2.8,6.3,3,6.3,3.2v1.3c0,0,0,0,0,0c0,0,0,0,0,0v24.2c0,0.2,0.2,0.4,0.4,0.4
				c0.2,0,0.4-0.2,0.4-0.4V18.4c1,0.2,3.2,0.7,5.5,0.7c1.6,0,3.2-0.2,4.5-0.9c3.4-1.8,8,0,8,0c0.1,0.1,0.3,0,0.4,0
				c0.1-0.1,0.2-0.2,0.2-0.4V4.6C25.7,4.4,25.6,4.2,25.4,4.1L25.4,4.1z M24.8,17.2c-1.4-0.5-5.1-1.4-8.2,0.2c-3,1.6-8.2,0.4-9.5,0.1
				V5.1c1.7,0.4,6.8,1.5,9.9-0.2c2.9-1.5,6.7-0.4,7.7-0.1V17.2z M24.8,17.2"/>
			<path fill="#49B3CC" stroke="#49B3CC" stroke-width="0.5" stroke-miterlimit="10" d="M6.7,29.7c-0.5,0-0.9-0.4-0.9-0.9V3.2
				c0-0.5,0.4-0.9,0.9-0.9c0.5,0,0.9,0.4,0.9,0.9v0.6c1,0.2,3,0.6,5,0.6c1.6,0,2.9-0.2,3.8-0.7c1.2-0.6,2.6-1,4.2-1
				c2.6,0,4.9,0.9,4.9,0.9c0.4,0.1,0.6,0.5,0.6,0.9v13.2c0,0.3-0.2,0.6-0.4,0.8c-0.2,0.1-0.3,0.2-0.5,0.2l0,0c-0.1,0-0.2,0-0.3-0.1
				c0,0-2-0.8-4.3-0.8c-1.3,0-2.4,0.2-3.3,0.7c-1.2,0.6-2.8,1-4.7,1c-1.9,0-3.8-0.3-5-0.6v9.8C7.7,29.3,7.3,29.7,6.7,29.7z
				 M7.7,17.1c1,0.2,3,0.6,5,0.6c1.6,0,2.9-0.2,3.8-0.7c1.2-0.6,2.6-1,4.2-1c1.4,0,2.8,0.3,3.7,0.5V5.2c-0.8-0.2-2.2-0.6-3.7-0.6
				c-1.3,0-2.4,0.2-3.3,0.7c-1.2,0.6-2.8,1-4.7,1c-1.9,0-3.8-0.3-5-0.6V17.1z"/>
		</g>
	</g>
</g>
</svg>
