<?xml version="1.0" encoding="utf-8"?>
<!-- Generator: Adobe Illustrator 16.0.0, SVG Export Plug-In . SVG Version: 6.00 Build 0)  -->
<!DOCTYPE svg PUBLIC "-//W3C//DTD SVG 1.1//EN" "http://www.w3.org/Graphics/SVG/1.1/DTD/svg11.dtd">
<svg version="1.1" id="Layer_1" xmlns="http://www.w3.org/2000/svg" xmlns:xlink="http://www.w3.org/1999/xlink" x="0px" y="0px"
	 width="30.125px" height="59.875px" viewBox="0 0 30.125 59.875" enable-background="new 0 0 30.125 59.875" xml:space="preserve">
<g display="none">
	<path display="inline" fill="#4B3013" d="M15.061,8.842c-1.974,0-3.578-1.578-3.578-3.518c0-1.937,1.604-3.513,3.578-3.513
		s3.576,1.577,3.576,3.513C18.637,7.265,17.034,8.842,15.061,8.842 M15.061,3.048c-1.279,0-2.319,1.021-2.319,2.276
		c0,1.259,1.04,2.28,2.319,2.28c1.28,0,2.318-1.021,2.318-2.28C17.379,4.069,16.341,3.048,15.061,3.048"/>
	<path display="inline" fill="#4B3013" d="M15.061,28.82c-0.346,0-0.629-0.276-0.629-0.619V8.682c0-0.34,0.283-0.619,0.629-0.619
		c0.35,0,0.631,0.279,0.631,0.619v19.52C15.691,28.544,15.41,28.82,15.061,28.82"/>
	<path display="inline" fill="#4B3013" d="M15.061,28.82c-6.309,0-11.438-5.042-11.438-11.241c0-0.34,0.282-0.619,0.629-0.619h2.353
		c0.345,0,0.627,0.279,0.627,0.619c0,0.342-0.282,0.617-0.627,0.617H4.899c0.326,5.231,4.759,9.388,10.162,9.388
		c5.406,0,9.835-4.156,10.163-9.388h-1.671c-0.35,0-0.631-0.275-0.631-0.617c0-0.34,0.281-0.619,0.631-0.619h2.32
		c0.345,0,0.629,0.279,0.629,0.619C26.502,23.778,21.367,28.82,15.061,28.82"/>
	<path display="inline" fill="#4B3013" d="M18.647,13.443h-7.175c-0.347,0-0.63-0.274-0.63-0.617c0-0.342,0.284-0.619,0.63-0.619
		h7.175c0.351,0,0.631,0.276,0.631,0.619C19.278,13.169,18.998,13.443,18.647,13.443"/>
</g>
<g display="none">
	<path display="inline" fill="#FCF6B4" d="M14.818,38.561c-1.921,0-3.483-1.536-3.483-3.425c0-1.883,1.562-3.418,3.483-3.418
		c1.919,0,3.479,1.535,3.479,3.418C18.298,37.024,16.737,38.561,14.818,38.561 M14.818,32.922c-1.246,0-2.258,0.993-2.258,2.214
		c0,1.226,1.012,2.22,2.258,2.22c1.244,0,2.255-0.994,2.255-2.22C17.073,33.915,16.063,32.922,14.818,32.922"/>
	<path display="inline" fill="#FCF6B4" d="M14.818,58c-0.337,0-0.613-0.269-0.613-0.603V38.403c0-0.331,0.276-0.602,0.613-0.602
		c0.339,0,0.612,0.271,0.612,0.602v18.994C15.431,57.731,15.157,58,14.818,58"/>
	<path display="inline" fill="#FCF6B4" d="M14.818,58c-6.14,0-11.132-4.906-11.132-10.938c0-0.331,0.274-0.603,0.612-0.603h2.29
		c0.335,0,0.61,0.271,0.61,0.603c0,0.334-0.275,0.6-0.61,0.6h-1.66c0.317,5.092,4.632,9.136,9.889,9.136
		c5.26,0,9.568-4.044,9.888-9.136H23.08c-0.339,0-0.612-0.266-0.612-0.6c0-0.331,0.273-0.603,0.612-0.603h2.259
		c0.335,0,0.612,0.271,0.612,0.603C25.951,53.094,20.953,58,14.818,58"/>
	<path display="inline" fill="#FCF6B4" d="M18.308,43.038h-6.982c-0.338,0-0.613-0.268-0.613-0.602c0-0.332,0.275-0.602,0.613-0.602
		h6.982c0.341,0,0.614,0.27,0.614,0.602C18.922,42.771,18.648,43.038,18.308,43.038"/>
</g>
<g display="none">
	<path display="inline" d="M-19.944,6.296h-1.948c-0.104-0.778-0.412-1.492-0.867-2.088l1.379-1.379
		c0.209-0.209,0.209-0.549,0-0.758l-0.081-0.081c-0.101-0.101-0.236-0.157-0.379-0.157c-0.144,0-0.278,0.056-0.379,0.157
		l-1.379,1.379c-0.596-0.455-1.31-0.763-2.088-0.867V0.554c0-0.295-0.241-0.536-0.536-0.536h-0.114c-0.295,0-0.536,0.24-0.536,0.536
		v1.948c-0.778,0.104-1.492,0.412-2.088,0.867l-1.379-1.379c-0.101-0.101-0.236-0.157-0.379-0.157c-0.144,0-0.278,0.056-0.379,0.157
		l-0.08,0.081c-0.102,0.102-0.157,0.236-0.157,0.379c0,0.144,0.056,0.278,0.157,0.379l1.379,1.379
		c-0.455,0.596-0.762,1.31-0.867,2.088h-1.948c-0.295,0-0.536,0.24-0.536,0.536v0.114c0,0.295,0.24,0.536,0.536,0.536h1.948
		c0.104,0.778,0.412,1.493,0.867,2.088l-1.378,1.378c-0.209,0.209-0.209,0.549,0,0.758l0.08,0.081
		c0.102,0.101,0.236,0.157,0.379,0.157c0.143,0,0.278-0.056,0.379-0.157l1.379-1.379c0.596,0.455,1.31,0.762,2.088,0.867v1.948
		c0,0.295,0.24,0.536,0.536,0.536h0.114c0.295,0,0.536-0.241,0.536-0.536v-1.948c0.778-0.105,1.492-0.412,2.088-0.867l1.379,1.379
		c0.101,0.101,0.235,0.157,0.379,0.157c0.143,0,0.278-0.056,0.379-0.157l0.081-0.081c0.209-0.209,0.209-0.549,0-0.758l-1.379-1.378
		c0.455-0.596,0.762-1.31,0.867-2.088h1.948c0.295,0,0.536-0.24,0.536-0.536V6.832C-19.408,6.536-19.649,6.296-19.944,6.296
		 M-21.855,6.748h1.911c0.046,0,0.084,0.038,0.084,0.084v0.114c0,0.046-0.038,0.084-0.084,0.084h-1.911
		c0.001-0.047,0.002-0.094,0.002-0.142S-21.854,6.794-21.855,6.748 M-21.7,11.387l-0.081,0.081c-0.021,0.021-0.047,0.025-0.06,0.025
		c-0.013,0-0.038-0.003-0.06-0.025l-1.352-1.353c0.069-0.064,0.135-0.131,0.2-0.2l1.353,1.353
		C-21.667,11.301-21.667,11.354-21.7,11.387 M-26.137,13.223c0,0.046-0.038,0.084-0.084,0.084h-0.114
		c-0.046,0-0.084-0.038-0.084-0.084v-1.911c0.047,0.001,0.094,0.002,0.141,0.002s0.095-0.001,0.142-0.002V13.223z M-30.658,11.468
		c-0.021,0.021-0.047,0.025-0.06,0.025c-0.013,0-0.039-0.003-0.06-0.025l-0.08-0.081c-0.033-0.033-0.033-0.086,0-0.119l1.352-1.353
		c0.064,0.069,0.131,0.135,0.2,0.2L-30.658,11.468z M-29.305,3.662c-0.069,0.065-0.136,0.131-0.2,0.2l-1.352-1.353
		c-0.022-0.021-0.025-0.047-0.025-0.06c0-0.013,0.003-0.039,0.025-0.06l0.08-0.08c0.021-0.022,0.047-0.025,0.06-0.025
		c0.013,0,0.038,0.003,0.06,0.025 M-26.42,0.554c0-0.046,0.038-0.084,0.084-0.084h0.114c0.046,0,0.084,0.038,0.084,0.084v1.911
		c-0.046-0.001-0.094-0.002-0.141-0.002s-0.094,0.001-0.141,0.002V0.554z M-32.698,6.832c0-0.046,0.038-0.084,0.084-0.084h1.911
		c-0.001,0.047-0.002,0.094-0.002,0.141s0.001,0.095,0.002,0.142h-1.911c-0.046,0-0.084-0.038-0.084-0.084V6.832z M-26.279,10.863
		c-2.191,0-3.975-1.783-3.975-3.975c0-2.191,1.783-3.975,3.975-3.975s3.975,1.783,3.975,3.975
		C-22.304,9.081-24.087,10.863-26.279,10.863 M-21.84,2.285c0.013,0,0.038,0.003,0.06,0.025l0.081,0.08
		c0.033,0.033,0.033,0.087,0,0.12l-1.353,1.353c-0.064-0.069-0.131-0.135-0.2-0.2L-21.9,2.31
		C-21.878,2.288-21.853,2.285-21.84,2.285"/>
	<path display="inline" d="M-26.278,3.198L-26.278,3.198c-2.036,0-3.691,1.656-3.691,3.691c0,2.035,1.656,3.691,3.691,3.691
		c2.036,0,3.691-1.656,3.691-3.691C-22.587,4.854-24.243,3.198-26.278,3.198 M-26.504,3.657v2.352
		c-0.083,0.021-0.161,0.054-0.233,0.096l-1.666-1.66C-27.887,3.996-27.228,3.707-26.504,3.657 M-27.058,6.423
		c-0.044,0.074-0.079,0.155-0.101,0.24h-2.352c0.05-0.724,0.339-1.383,0.788-1.899L-27.058,6.423z M-27.159,7.115
		c0.021,0.084,0.055,0.164,0.098,0.236l-1.662,1.662c-0.449-0.516-0.738-1.175-0.788-1.898H-27.159z M-26.504,10.121
		c-0.724-0.05-1.383-0.339-1.899-0.788l1.662-1.662c0.073,0.043,0.152,0.077,0.237,0.099V10.121z M-26.707,6.889
		c0-0.236,0.191-0.428,0.428-0.428s0.428,0.191,0.428,0.428c0,0.236-0.192,0.428-0.428,0.428S-26.707,7.125-26.707,6.889
		 M-24.154,4.445l-1.662,1.662c-0.073-0.043-0.152-0.077-0.236-0.098V3.657C-25.329,3.707-24.67,3.996-24.154,4.445 M-26.053,10.121
		V7.769c0.086-0.022,0.168-0.057,0.243-0.102l1.664,1.658C-24.663,9.778-25.325,10.07-26.053,10.121 M-25.493,7.345
		c0.042-0.071,0.074-0.148,0.095-0.23h2.352c-0.05,0.72-0.336,1.375-0.78,1.89L-25.493,7.345z M-25.398,6.663
		c-0.022-0.084-0.055-0.164-0.099-0.237l1.662-1.662c0.449,0.516,0.738,1.175,0.788,1.899H-25.398z"/>
</g>
<g display="none">
	<path display="inline" fill="#4B3013" d="M28.07,13.925h-3.808c-0.203-1.519-0.808-2.916-1.695-4.083l2.699-2.696
		c0.402-0.408,0.402-1.074,0-1.481L25.11,5.507c-0.199-0.197-0.461-0.308-0.747-0.308c-0.275,0-0.538,0.11-0.739,0.308l-2.697,2.697
		c-1.167-0.892-2.56-1.49-4.084-1.695V2.7c0-0.58-0.47-1.049-1.047-1.049h-0.225c-0.573,0-1.049,0.469-1.049,1.049v3.809
		c-1.517,0.205-2.914,0.804-4.08,1.695L7.746,5.507C7.547,5.31,7.284,5.199,7.004,5.199c-0.281,0-0.543,0.11-0.741,0.308
		L6.106,5.665C5.908,5.861,5.798,6.126,5.798,6.406c0,0.279,0.11,0.543,0.309,0.74L8.8,9.842c-0.888,1.167-1.49,2.564-1.693,4.083
		H3.295c-0.579,0-1.047,0.472-1.047,1.05v0.221c0,0.58,0.468,1.05,1.047,1.05h3.812c0.203,1.52,0.806,2.918,1.693,4.083
		l-2.694,2.697c-0.412,0.408-0.412,1.072,0,1.48l0.157,0.159c0.198,0.197,0.46,0.308,0.741,0.308c0.28,0,0.543-0.11,0.741-0.308
		l2.697-2.697c1.166,0.892,2.563,1.489,4.08,1.695v3.811c0,0.574,0.476,1.047,1.049,1.047h0.225c0.577,0,1.047-0.473,1.047-1.047
		v-3.811c1.524-0.206,2.918-0.804,4.084-1.695l2.697,2.697c0.201,0.197,0.464,0.308,0.739,0.308c0.277,0,0.548-0.11,0.747-0.308
		l0.156-0.159c0.402-0.408,0.402-1.072,0-1.48l-2.699-2.697c0.888-1.165,1.492-2.563,1.695-4.083h3.808c0.58,0,1.05-0.471,1.05-1.05
		v-0.221C29.12,14.397,28.65,13.925,28.07,13.925 M24.338,14.811h3.732c0.092,0,0.168,0.074,0.168,0.165v0.221
		c0,0.094-0.076,0.165-0.168,0.165h-3.732c0-0.091,0.004-0.182,0.004-0.274S24.338,14.903,24.338,14.811 M24.641,23.884
		l-0.156,0.157c-0.042,0.042-0.09,0.047-0.121,0.047c-0.021,0-0.069-0.005-0.112-0.047l-2.648-2.647
		c0.136-0.125,0.263-0.255,0.392-0.389l2.646,2.646C24.704,23.715,24.704,23.82,24.641,23.884 M15.96,27.476
		c0,0.09-0.073,0.163-0.164,0.163h-0.225c-0.087,0-0.162-0.073-0.162-0.163v-3.738c0.091,0.004,0.185,0.006,0.275,0.006
		c0.093,0,0.187-0.002,0.275-0.006V27.476z M7.121,24.042c-0.042,0.042-0.091,0.047-0.116,0.047s-0.075-0.005-0.118-0.047
		L6.73,23.884c-0.067-0.064-0.067-0.169,0-0.233l2.645-2.646c0.125,0.134,0.253,0.265,0.39,0.389L7.121,24.042z M9.765,8.777
		C9.629,8.903,9.5,9.03,9.375,9.167L6.73,6.521C6.688,6.48,6.682,6.431,6.682,6.406c0-0.026,0.005-0.075,0.048-0.117l0.156-0.157
		C6.93,6.089,6.979,6.084,7.004,6.084s0.074,0.005,0.116,0.047 M15.409,2.7c0-0.093,0.075-0.167,0.162-0.167h0.225
		c0.091,0,0.164,0.074,0.164,0.167v3.735c-0.089-0.002-0.183-0.003-0.275-0.003c-0.095,0-0.185,0.001-0.275,0.003V2.7z
		 M3.131,14.975c0-0.091,0.075-0.165,0.164-0.165h3.737c-0.003,0.092-0.003,0.183-0.003,0.276s0,0.184,0.003,0.274H3.295
		c-0.089,0-0.164-0.071-0.164-0.165V14.975z M15.685,22.861c-4.288,0-7.772-3.489-7.772-7.774s3.484-7.774,7.772-7.774
		c4.286,0,7.771,3.489,7.771,7.774S19.971,22.861,15.685,22.861 M24.363,6.084c0.031,0,0.079,0.005,0.121,0.047l0.156,0.157
		c0.063,0.064,0.063,0.168,0,0.234l-2.646,2.645c-0.129-0.137-0.256-0.265-0.392-0.39l2.648-2.646
		C24.294,6.089,24.342,6.084,24.363,6.084"/>
	<path display="inline" fill="#4B3013" d="M15.685,7.868L15.685,7.868c-3.982,0-7.218,3.237-7.218,7.218s3.236,7.22,7.218,7.22
		c3.98,0,7.218-3.239,7.218-7.22S19.665,7.868,15.685,7.868 M15.242,8.766v4.6c-0.16,0.04-0.313,0.104-0.454,0.188l-3.258-3.247
		C12.541,9.427,13.828,8.864,15.242,8.766 M14.159,14.175c-0.085,0.145-0.153,0.304-0.194,0.47H9.364
		c0.097-1.416,0.665-2.705,1.541-3.713L14.159,14.175z M13.965,15.527c0.041,0.166,0.105,0.32,0.19,0.463l-3.25,3.251
		c-0.876-1.01-1.444-2.298-1.541-3.714H13.965z M15.242,21.407c-1.417-0.099-2.705-0.663-3.712-1.541l3.25-3.252
		c0.143,0.085,0.299,0.15,0.463,0.191V21.407z M14.848,15.086c0-0.462,0.373-0.838,0.837-0.838c0.462,0,0.839,0.375,0.839,0.838
		s-0.377,0.836-0.839,0.836C15.221,15.923,14.848,15.549,14.848,15.086 M19.839,10.306l-3.253,3.252
		c-0.14-0.086-0.295-0.15-0.461-0.192v-4.6C17.543,8.864,18.83,9.427,19.839,10.306 M16.125,21.407v-4.601
		c0.172-0.042,0.328-0.109,0.477-0.199l3.255,3.244C18.844,20.737,17.546,21.309,16.125,21.407 M17.222,15.978
		c0.081-0.138,0.143-0.291,0.185-0.451H22c-0.092,1.41-0.653,2.69-1.524,3.698L17.222,15.978z M17.406,14.645
		c-0.042-0.165-0.104-0.319-0.192-0.462l3.248-3.251c0.878,1.008,1.446,2.297,1.538,3.713H17.406z"/>
</g>
<g display="none">
	<path display="inline" fill="#FCF6B4" d="M28.07,44.004h-3.808c-0.203-1.519-0.808-2.916-1.695-4.083l2.699-2.696
		c0.402-0.408,0.402-1.074,0-1.481l-0.156-0.157c-0.199-0.197-0.461-0.309-0.747-0.309c-0.275,0-0.538,0.111-0.739,0.309
		l-2.697,2.696c-1.167-0.892-2.56-1.49-4.084-1.695v-3.809c0-0.579-0.47-1.049-1.047-1.049h-0.225c-0.573,0-1.049,0.47-1.049,1.049
		v3.809c-1.517,0.205-2.914,0.804-4.08,1.695l-2.697-2.696c-0.198-0.197-0.461-0.309-0.741-0.309c-0.281,0-0.543,0.111-0.741,0.309
		l-0.157,0.157c-0.198,0.196-0.309,0.462-0.309,0.741s0.11,0.543,0.309,0.74L8.8,39.921c-0.888,1.167-1.49,2.564-1.693,4.083H3.295
		c-0.579,0-1.047,0.472-1.047,1.05v0.222c0,0.579,0.468,1.05,1.047,1.05h3.812c0.203,1.52,0.806,2.918,1.693,4.083l-2.694,2.697
		c-0.412,0.408-0.412,1.072,0,1.48l0.157,0.158c0.198,0.197,0.46,0.309,0.741,0.309c0.28,0,0.543-0.111,0.741-0.309l2.697-2.696
		c1.166,0.892,2.563,1.489,4.08,1.695v3.812c0,0.574,0.476,1.047,1.049,1.047h0.225c0.577,0,1.047-0.473,1.047-1.047v-3.812
		c1.524-0.206,2.918-0.804,4.084-1.695l2.697,2.696c0.201,0.197,0.464,0.309,0.739,0.309c0.277,0,0.548-0.111,0.747-0.309
		l0.156-0.158c0.402-0.408,0.402-1.072,0-1.48l-2.699-2.697c0.888-1.165,1.492-2.563,1.695-4.083h3.808c0.58,0,1.05-0.471,1.05-1.05
		v-0.222C29.12,44.476,28.65,44.004,28.07,44.004 M24.338,44.889h3.732c0.092,0,0.168,0.074,0.168,0.165v0.222
		c0,0.094-0.076,0.164-0.168,0.164h-3.732c0-0.091,0.004-0.182,0.004-0.274S24.338,44.981,24.338,44.889 M24.641,53.963
		l-0.156,0.157c-0.042,0.042-0.09,0.048-0.121,0.048c-0.021,0-0.069-0.006-0.112-0.048l-2.648-2.647
		c0.136-0.124,0.263-0.254,0.392-0.389l2.646,2.646C24.704,53.793,24.704,53.898,24.641,53.963 M15.96,57.555
		c0,0.09-0.073,0.162-0.164,0.162h-0.225c-0.087,0-0.162-0.072-0.162-0.162v-3.738c0.091,0.004,0.185,0.006,0.275,0.006
		c0.093,0,0.187-0.002,0.275-0.006V57.555z M7.121,54.12c-0.042,0.042-0.091,0.048-0.116,0.048S6.93,54.162,6.887,54.12L6.73,53.963
		c-0.067-0.064-0.067-0.17,0-0.233l2.645-2.646c0.125,0.135,0.253,0.265,0.39,0.389L7.121,54.12z M9.765,38.855
		c-0.136,0.126-0.265,0.254-0.39,0.391L6.73,36.6c-0.043-0.041-0.048-0.09-0.048-0.115s0.005-0.075,0.048-0.117l0.156-0.157
		c0.043-0.042,0.093-0.048,0.118-0.048s0.074,0.006,0.116,0.048 M15.409,32.778c0-0.093,0.075-0.167,0.162-0.167h0.225
		c0.091,0,0.164,0.074,0.164,0.167v3.735c-0.089-0.003-0.183-0.004-0.275-0.004c-0.095,0-0.185,0.001-0.275,0.004V32.778z
		 M3.131,45.054c0-0.091,0.075-0.165,0.164-0.165h3.737c-0.003,0.093-0.003,0.184-0.003,0.276s0,0.184,0.003,0.274H3.295
		c-0.089,0-0.164-0.07-0.164-0.164V45.054z M15.685,52.939c-4.288,0-7.772-3.488-7.772-7.774s3.484-7.774,7.772-7.774
		c4.286,0,7.771,3.488,7.771,7.774S19.971,52.939,15.685,52.939 M24.363,36.162c0.031,0,0.079,0.006,0.121,0.048l0.156,0.157
		c0.063,0.064,0.063,0.168,0,0.234l-2.646,2.645c-0.129-0.137-0.256-0.265-0.392-0.391l2.648-2.646
		C24.294,36.168,24.342,36.162,24.363,36.162"/>
	<path display="inline" fill="#FCF6B4" d="M15.685,37.947L15.685,37.947c-3.982,0-7.218,3.236-7.218,7.218s3.236,7.22,7.218,7.22
		c3.98,0,7.218-3.238,7.218-7.22S19.665,37.947,15.685,37.947 M15.242,38.844v4.601c-0.16,0.04-0.313,0.104-0.454,0.188
		l-3.258-3.247C12.541,39.506,13.828,38.943,15.242,38.844 M14.159,44.254c-0.085,0.145-0.153,0.303-0.194,0.469H9.364
		c0.097-1.416,0.665-2.705,1.541-3.713L14.159,44.254z M13.965,45.605c0.041,0.166,0.105,0.32,0.19,0.463l-3.25,3.252
		c-0.876-1.01-1.444-2.299-1.541-3.715H13.965z M15.242,51.486c-1.417-0.1-2.705-0.664-3.712-1.541l3.25-3.252
		c0.143,0.085,0.299,0.15,0.463,0.191V51.486z M14.848,45.165c0-0.462,0.373-0.838,0.837-0.838c0.462,0,0.839,0.376,0.839,0.838
		s-0.377,0.837-0.839,0.837C15.221,46.002,14.848,45.627,14.848,45.165 M19.839,40.385l-3.253,3.252
		c-0.14-0.086-0.295-0.15-0.461-0.192v-4.601C17.543,38.943,18.83,39.506,19.839,40.385 M16.125,51.486v-4.602
		c0.172-0.043,0.328-0.109,0.477-0.199l3.255,3.244C18.844,50.815,17.546,51.387,16.125,51.486 M17.222,46.057
		c0.081-0.139,0.143-0.291,0.185-0.451H22c-0.092,1.41-0.653,2.69-1.524,3.699L17.222,46.057z M17.406,44.723
		c-0.042-0.164-0.104-0.318-0.192-0.461l3.248-3.252c0.878,1.008,1.446,2.297,1.538,3.713H17.406z"/>
</g>
<path display="none" fill="#4B3013" d="M29.108,14.664c-0.101-0.158-0.272-0.237-0.441-0.203l-4.019,0.831v-1.195
	c0-0.28-0.199-0.506-0.445-0.506h-0.611v-1.987c0-0.279-0.2-0.507-0.447-0.507h-2.748c-0.244,0-0.444,0.228-0.444,0.507v4.997
	l-0.639,2.167h-0.563V15.82c0-0.278-0.198-0.505-0.444-0.505H16.85v-4.525c0-0.279-0.202-0.505-0.445-0.505h-2.723
	c-0.145,0-0.281,0.08-0.365,0.214l-3.025,4.864V8.477c0-0.278-0.198-0.504-0.445-0.504H1.998c-0.246,0-0.445,0.226-0.445,0.504
	v3.856c0,0.278,0.199,0.504,0.445,0.504h1.045v3.34H1.37c-0.248,0-0.446,0.227-0.446,0.505s0.198,0.505,0.446,0.505h0.455
	l1.121,5.42c0.218,1.163,1.135,2.004,2.182,2.004h17.766c0.974,0,1.865-0.557,2.385-1.488c0.004-0.008,0.011-0.018,0.016-0.027
	l3.845-7.894C29.22,15.03,29.208,14.822,29.108,14.664 M23.756,15.476l-2.912,0.601v-1.476h2.912V15.476z M20.844,12.109h1.855
	v1.481h-1.855V12.109z M17.859,18.767h-2.915v-2.44h2.915V18.767z M14.499,15.315c-0.245,0-0.445,0.227-0.445,0.505v2.947h-1.967
	v-1.638l2.891-4.292h0.977v2.478H14.499z M13.913,11.296h2.041v0.531h-1.196c-0.001,0-0.005,0-0.007,0c-0.009,0-0.016,0-0.024,0.001
	c-0.009,0-0.015,0.001-0.021,0.002c-0.009,0.002-0.015,0.002-0.02,0.003c-0.01,0.001-0.019,0.004-0.025,0.005
	c-0.005,0.001-0.011,0.003-0.018,0.004c-0.008,0.003-0.018,0.005-0.026,0.01c-0.005,0-0.008,0.003-0.015,0.005
	c-0.007,0.003-0.016,0.008-0.022,0.011c-0.005,0.003-0.013,0.006-0.02,0.01c-0.006,0.003-0.013,0.008-0.019,0.011
	c-0.008,0.005-0.016,0.009-0.02,0.014c-0.007,0.004-0.011,0.007-0.018,0.011c-0.006,0.005-0.014,0.011-0.019,0.017
	c-0.006,0.005-0.01,0.009-0.016,0.014c-0.005,0.006-0.012,0.012-0.019,0.017c-0.003,0.006-0.01,0.012-0.016,0.018
	c-0.003,0.003-0.006,0.011-0.013,0.016c-0.007,0.006-0.009,0.016-0.015,0.021c-0.003,0.002-0.004,0.005-0.004,0.007l-2.986,4.426
	h-0.713L13.913,11.296z M3.934,15.151h2.265c0.247,0,0.446-0.226,0.446-0.505c0-0.279-0.199-0.505-0.446-0.505H3.934v-1.303h4.494
	c0.248,0,0.449-0.226,0.449-0.504c0-0.281-0.201-0.506-0.449-0.506H2.444V8.984H9.4v9.014c0,0.281,0.199,0.507,0.446,0.507
	c0.248,0,0.445-0.226,0.445-0.507v-0.534h0.903v1.304H7.021l-0.637-2.233c0-0.001-0.002-0.001-0.002-0.003v-0.003
	c0,0-0.001,0-0.001-0.002c-0.006-0.023-0.016-0.044-0.023-0.067c-0.001-0.002-0.001-0.006-0.004-0.009
	c-0.009-0.02-0.021-0.04-0.032-0.061c-0.002-0.003-0.006-0.008-0.008-0.011c-0.011-0.018-0.024-0.036-0.04-0.051
	c0-0.002,0-0.002,0-0.002c-0.016-0.016-0.031-0.032-0.049-0.046c-0.001-0.002-0.005-0.003-0.008-0.008
	c-0.017-0.012-0.035-0.024-0.051-0.036c-0.004-0.002-0.007-0.003-0.008-0.004c-0.018-0.01-0.037-0.019-0.056-0.025
	c-0.002-0.001-0.003-0.002-0.006-0.004c-0.019-0.006-0.039-0.011-0.06-0.016c-0.004,0-0.009-0.002-0.013-0.002
	c-0.021-0.003-0.042-0.006-0.064-0.006H3.934V15.151z M24.52,22.596c-0.358,0.631-0.964,1.007-1.626,1.007H5.127
	c-0.629,0-1.18-0.507-1.311-1.206c0-0.004,0-0.009-0.001-0.014L3.632,21.5h19.809c0.247,0,0.447-0.225,0.447-0.504
	c0-0.28-0.2-0.506-0.447-0.506H3.424l-0.683-3.303h2.894l0.639,2.239c0.059,0.208,0.231,0.35,0.424,0.35h12.937
	c0.191,0,0.362-0.139,0.424-0.347l0.677-2.303l7.168-1.48L24.52,22.596z M3.484,9.586h1.347v1.525H3.484V9.586z M5.525,9.586h1.346
	v1.525H5.525V9.586z M8.912,11.111H7.566V9.586h1.346V11.111z"/>
<path display="none" fill="#FCF6B4" d="M29.413,44.259c-0.102-0.16-0.274-0.238-0.444-0.203l-4.051,0.836v-1.204
	c0-0.282-0.2-0.51-0.448-0.51h-0.616v-2.003c0-0.281-0.202-0.511-0.451-0.511h-2.769c-0.247,0-0.448,0.229-0.448,0.511v5.037
	l-0.644,2.183h-0.566v-2.97c0-0.28-0.201-0.509-0.448-0.509h-1.469v-4.561c0-0.281-0.203-0.509-0.448-0.509h-2.744
	c-0.146,0-0.284,0.08-0.368,0.216l-3.048,4.901v-6.939c0-0.28-0.2-0.508-0.449-0.508H2.091c-0.249,0-0.449,0.228-0.449,0.508v3.887
	c0,0.28,0.2,0.508,0.449,0.508h1.053v3.366H1.458c-0.25,0-0.45,0.229-0.45,0.509c0,0.281,0.2,0.51,0.45,0.51h0.458l1.13,5.462
	c0.22,1.171,1.144,2.02,2.199,2.02H23.15c0.981,0,1.879-0.561,2.402-1.498c0.005-0.009,0.011-0.019,0.016-0.029l3.875-7.955
	C29.525,44.628,29.514,44.419,29.413,44.259 M24.02,45.078l-2.936,0.605v-1.488h2.936V45.078z M21.084,41.684h1.87v1.494h-1.87
	V41.684z M18.076,48.395h-2.938v-2.458h2.938V48.395z M14.69,44.916c-0.247,0-0.449,0.229-0.449,0.509v2.97h-1.983v-1.651
	l2.914-4.324h0.985v2.497H14.69z M14.1,40.864h2.058v0.537H14.95c-0.001,0-0.005,0-0.007,0c-0.009,0-0.016,0-0.024,0
	c-0.008,0-0.015,0.002-0.021,0.002c-0.009,0.003-0.015,0.003-0.02,0.004c-0.01,0.001-0.019,0.004-0.025,0.006
	c-0.005,0.001-0.011,0.003-0.019,0.005c-0.007,0.003-0.017,0.005-0.025,0.01c-0.005,0-0.009,0.003-0.015,0.005
	c-0.008,0.002-0.016,0.007-0.023,0.011c-0.005,0.004-0.013,0.006-0.02,0.01c-0.006,0.004-0.013,0.009-0.019,0.011
	c-0.008,0.005-0.016,0.01-0.021,0.015c-0.006,0.005-0.011,0.007-0.017,0.012s-0.015,0.012-0.02,0.018
	c-0.006,0.005-0.01,0.008-0.016,0.013c-0.005,0.007-0.012,0.011-0.019,0.018c-0.003,0.006-0.01,0.012-0.016,0.018
	c-0.003,0.004-0.006,0.011-0.013,0.018c-0.007,0.006-0.01,0.014-0.016,0.021c-0.002,0.002-0.003,0.005-0.003,0.007l-3.009,4.46
	h-0.719L14.1,40.864z M4.042,44.75h2.282c0.249,0,0.449-0.229,0.449-0.509c0-0.281-0.201-0.51-0.449-0.51H4.042v-1.313h4.529
	c0.25,0,0.452-0.228,0.452-0.508c0-0.282-0.203-0.51-0.452-0.51H2.541v-2.867h7.011v9.084c0,0.283,0.2,0.512,0.449,0.512
	c0.25,0,0.449-0.229,0.449-0.512v-0.537h0.91v1.313H7.154l-0.642-2.251c0-0.001-0.001-0.002-0.001-0.002v-0.005
	c0,0-0.002,0-0.002-0.001c-0.006-0.023-0.016-0.045-0.023-0.068c-0.001-0.002-0.001-0.006-0.004-0.008
	c-0.01-0.021-0.021-0.041-0.033-0.061c-0.001-0.004-0.006-0.009-0.008-0.012C6.429,45.97,6.416,45.95,6.4,45.937
	c0-0.003,0-0.003,0-0.003c-0.016-0.017-0.031-0.031-0.049-0.046c-0.001-0.002-0.005-0.005-0.008-0.009
	c-0.018-0.013-0.035-0.023-0.051-0.036c-0.004-0.002-0.007-0.003-0.009-0.003c-0.018-0.01-0.037-0.02-0.056-0.027
	c-0.002,0-0.003-0.001-0.006-0.002c-0.02-0.008-0.04-0.013-0.061-0.018c-0.004,0-0.01-0.002-0.013-0.002
	c-0.021-0.002-0.043-0.006-0.065-0.006H4.042V44.75z M24.789,52.253c-0.361,0.636-0.972,1.015-1.639,1.015H5.245
	c-0.634,0-1.189-0.51-1.32-1.215c0-0.005,0-0.01-0.002-0.015L3.738,51.15h19.964c0.249,0,0.451-0.228,0.451-0.509
	c0-0.282-0.202-0.509-0.451-0.509H3.528L2.84,46.804h2.916L6.4,49.06c0.06,0.21,0.233,0.353,0.427,0.353h13.039
	c0.192,0,0.365-0.141,0.427-0.35l0.682-2.321l7.224-1.491L24.789,52.253z M3.589,39.141h1.357v1.538H3.589V39.141z M5.646,39.141
	h1.356v1.538H5.646V39.141z M9.06,40.679H7.703v-1.538H9.06V40.679z"/>
<g display="none">
	<defs>
		<rect id="SVGID_1_" x="1.275" y="4.041" width="27.975" height="19.627"/>
	</defs>
	<clipPath id="SVGID_2_" display="inline">
		<use xlink:href="#SVGID_1_"  overflow="visible"/>
	</clipPath>
	<path display="inline" clip-path="url(#SVGID_2_)" fill="#4B3013" d="M29.125,10.046l-5.912-5.914
		c-0.137-0.133-0.351-0.133-0.484,0l-1.359,1.355c-0.066,0.066-0.1,0.153-0.1,0.242c0,0.092,0.033,0.178,0.1,0.24l0.598,0.601
		l-1.414,1.416l-5.288,0.63L9.979,7.988l-1.421-1.42l0.598-0.596c0.063-0.064,0.1-0.148,0.1-0.241c0-0.09-0.037-0.177-0.1-0.241
		l-1.36-1.356C7.663,4,7.446,4,7.313,4.133l-5.938,5.914c-0.134,0.133-0.134,0.349,0,0.48l1.355,1.359
		c0.013,0.013,0.028,0.026,0.042,0.038l2.824,4.447c0.16,0.297,0.454,0.819,0.593,0.957l5.908,5.909
		c0.272,0.272,0.625,0.43,0.97,0.43c0.27,0,0.519-0.099,0.696-0.278l0.088-0.084l0.004,0.004c0.35,0.349,0.938,0.408,1.406,0.156
		c0.47,0.252,1.06,0.193,1.405-0.154l0.005-0.006l0.088,0.085c0.177,0.179,0.425,0.277,0.697,0.277c0.343,0,0.697-0.157,0.97-0.429
		l5.909-5.908l3.357-5.376l1.431-1.429c0.063-0.064,0.1-0.149,0.1-0.24C29.225,10.195,29.189,10.11,29.125,10.046 M23.064,5.317
		c0.264,0,0.476,0.215,0.476,0.479c0,0.264-0.213,0.479-0.476,0.479c-0.267,0-0.483-0.217-0.483-0.479
		C22.581,5.532,22.797,5.318,23.064,5.317 M6.924,5.752c0.054-0.257,0.311-0.423,0.57-0.369c0.256,0.055,0.423,0.31,0.368,0.566
		C7.809,6.208,7.554,6.375,7.295,6.321C7.037,6.266,6.87,6.009,6.924,5.752 M18.855,20.716c0.081,0.086,0.117,0.177,0.047,0.247
		l-0.711,0.71c-0.021,0.021-0.056,0.028-0.077,0.028c-0.06,0-0.121-0.03-0.169-0.078l-0.857-0.867l-2.631-2.627l-0.729,0.727
		c0.002,0.001,0.004,0.004,0.006,0.005l2.827,2.828c0.025,0.028,0.095,0.107,0.035,0.165c0,0-0.569,0.572-0.688,0.688
		c-0.117,0.118-0.247-0.05-0.247-0.05l-2.914-2.916H11.31c0.01,0.017,0.022,0.032,0.038,0.046l2.174,2.173
		c0.071,0.07,0.151,0.163,0.084,0.23l-0.565,0.563c-0.057,0.057-0.151,0.038-0.238-0.052l-5.896-5.895
		c-0.175-0.253-1.604-2.666-2.619-4.384l4.221-4.22l0.915,0.93c0.06,0.062,0.139,0.097,0.224,0.103l2.348,0.252
		c-0.271,0.291-0.417,0.71-0.36,1.155l0.162,1.276c0.097,0.745,0.733,1.293,1.437,1.208l1.542-0.144l5.066,5.103
		c0.08,0.083,0.08,0.216,0,0.297l-0.816,0.818c-0.08,0.079-0.221,0.079-0.3,0l-3.232-3.233v1.549L18.855,20.716z M23.62,16.646
		l-3.739,3.741l-0.332-0.353l1.049-1.054c0.715-0.712,0.499-1.439-0.456-2.392l-4.104-4.047c0,0,0.224-0.191,0.238-0.203
		l-0.229-0.748l-2.914,0.267c-0.008,0-0.039,0-0.048,0.001c-0.106,0-0.204-0.105-0.221-0.24L12.7,10.345
		c-0.011-0.082,0.007-0.163,0.054-0.221c0.023-0.029,0.062-0.065,0.119-0.075l8.012-0.975c0.085-0.005,0.164-0.042,0.223-0.102
		l0.917-0.931l4.22,4.22C25.23,13.982,23.801,16.392,23.62,16.646"/>
</g>
<g display="none">
	<defs>
		<rect id="SVGID_3_" x="1.275" y="35.689" width="27.975" height="19.629"/>
	</defs>
	<clipPath id="SVGID_4_" display="inline">
		<use xlink:href="#SVGID_3_"  overflow="visible"/>
	</clipPath>
	<path display="inline" clip-path="url(#SVGID_4_)" fill="#FCF6B4" d="M29.125,41.695l-5.912-5.915
		c-0.137-0.132-0.351-0.132-0.484,0l-1.359,1.356c-0.066,0.065-0.1,0.151-0.1,0.242c0,0.092,0.033,0.178,0.1,0.24l0.598,0.602
		l-1.414,1.415l-5.288,0.631l-5.286-0.63l-1.421-1.42l0.598-0.596c0.063-0.064,0.1-0.148,0.1-0.241c0-0.09-0.037-0.177-0.1-0.242
		l-1.36-1.355c-0.132-0.134-0.349-0.134-0.481,0l-5.938,5.914c-0.134,0.133-0.134,0.348,0,0.479l1.355,1.36
		c0.013,0.012,0.028,0.025,0.042,0.038l2.824,4.447c0.16,0.297,0.454,0.818,0.593,0.957l5.908,5.909
		c0.272,0.272,0.625,0.43,0.97,0.43c0.27,0,0.519-0.099,0.696-0.279l0.088-0.084l0.004,0.004c0.35,0.35,0.938,0.409,1.406,0.156
		c0.47,0.253,1.06,0.193,1.405-0.153l0.005-0.008l0.088,0.085c0.177,0.181,0.425,0.277,0.697,0.277c0.343,0,0.697-0.155,0.97-0.428
		l5.909-5.908l3.357-5.375l1.431-1.429c0.063-0.064,0.1-0.149,0.1-0.241C29.225,41.845,29.189,41.76,29.125,41.695 M23.064,36.966
		c0.264,0,0.476,0.216,0.476,0.479c0,0.264-0.213,0.479-0.476,0.479c-0.267,0-0.483-0.217-0.483-0.479S22.797,36.967,23.064,36.966
		 M6.924,37.401c0.054-0.257,0.311-0.422,0.57-0.368c0.256,0.055,0.423,0.309,0.368,0.564c-0.054,0.259-0.309,0.426-0.567,0.372
		C7.037,37.914,6.87,37.658,6.924,37.401 M18.855,52.366c0.081,0.085,0.117,0.177,0.047,0.246l-0.711,0.71
		c-0.021,0.021-0.056,0.028-0.077,0.028c-0.06,0-0.121-0.03-0.169-0.078l-0.857-0.867l-2.631-2.626l-0.729,0.725
		c0.002,0.003,0.004,0.005,0.006,0.007l2.827,2.828c0.025,0.027,0.095,0.106,0.035,0.164c0,0-0.569,0.571-0.688,0.688
		c-0.117,0.118-0.247-0.05-0.247-0.05l-2.914-2.916H11.31c0.01,0.016,0.022,0.032,0.038,0.045l2.174,2.174
		c0.071,0.07,0.151,0.163,0.084,0.231l-0.565,0.562c-0.057,0.058-0.151,0.039-0.238-0.051l-5.896-5.895
		c-0.175-0.253-1.604-2.665-2.619-4.384l4.221-4.22l0.915,0.93c0.06,0.061,0.139,0.097,0.224,0.102l2.348,0.254
		c-0.271,0.29-0.417,0.71-0.36,1.154l0.162,1.276c0.097,0.745,0.733,1.293,1.437,1.208l1.542-0.144l5.066,5.103
		c0.08,0.082,0.08,0.216,0,0.298l-0.816,0.817c-0.08,0.078-0.221,0.078-0.3,0l-3.232-3.233v1.55L18.855,52.366z M23.62,48.294
		l-3.739,3.742l-0.332-0.353l1.049-1.056c0.715-0.712,0.499-1.438-0.456-2.391l-4.104-4.047c0,0,0.224-0.191,0.238-0.203
		l-0.229-0.748l-2.914,0.268c-0.008,0-0.039,0-0.048,0.001c-0.106,0-0.204-0.105-0.221-0.239L12.7,41.994
		c-0.011-0.081,0.007-0.162,0.054-0.22c0.023-0.029,0.062-0.066,0.119-0.076l8.012-0.975c0.085-0.005,0.164-0.042,0.223-0.101
		l0.917-0.933l4.22,4.221C25.23,45.632,23.801,48.041,23.62,48.294"/>
</g>
<g>
	<defs>
		<rect id="SVGID_5_" x="1.41" y="31.125" width="27.543" height="27.75"/>
	</defs>
	<clipPath id="SVGID_6_">
		<use xlink:href="#SVGID_5_"  overflow="visible"/>
	</clipPath>
	<path clip-path="url(#SVGID_6_)" fill="#FCF6B4" stroke="#FBF6B5" stroke-width="0.5" stroke-miterlimit="10" d="M16.926,51.13
		c-0.438,0-0.856,0.096-1.252,0.292c-1.406,0.688-1.987,2.393-1.298,3.8c0.483,0.98,1.46,1.59,2.553,1.59
		c0.437,0,0.854-0.098,1.249-0.291c1.406-0.692,1.988-2.396,1.297-3.805C18.994,51.738,18.018,51.13,16.926,51.13 M17.898,55.951
		c-0.306,0.148-0.633,0.225-0.97,0.225c-0.852,0-1.609-0.472-1.982-1.232c-0.536-1.093-0.084-2.419,1.01-2.954
		c0.303-0.148,0.633-0.227,0.97-0.227c0.847,0,1.605,0.475,1.981,1.236C19.443,54.089,18.992,55.413,17.898,55.951"/>
	<path clip-path="url(#SVGID_6_)" fill="#FCF6B4" stroke="#FBF6B5" stroke-width="0.5" stroke-miterlimit="10" d="M28.924,48.078
		c-0.073-0.158-0.267-0.223-0.42-0.145l-2.158,1.058l-4.264-8.688c-0.039-0.076-0.104-0.135-0.182-0.161
		c-0.083-0.027-0.173-0.021-0.245,0.016l-1.829,0.898l-4.454-9.067c-0.224-0.457-0.677-0.738-1.183-0.738
		c-0.202,0-0.397,0.045-0.579,0.135l-3.575,1.756c-0.651,0.319-0.922,1.11-0.601,1.762l1.058,2.155l-1.221,0.6l-2.286-4.656
		c-0.037-0.075-0.103-0.132-0.183-0.162l-4.971-1.694c-0.167-0.057-0.348,0.028-0.404,0.195c-0.057,0.166,0.031,0.348,0.196,0.405
		l4.85,1.655l8.036,16.365c-2.194,1.262-3.068,4.035-1.936,6.341c0.822,1.674,2.49,2.712,4.355,2.712
		c0.744,0,1.465-0.166,2.134-0.497c2.307-1.131,3.313-3.862,2.346-6.199l6.072-2.98l0.476,0.974c0.056,0.109,0.17,0.176,0.284,0.176
		c0.048,0,0.094-0.012,0.141-0.034c0.157-0.077,0.223-0.266,0.147-0.424l-0.48-0.973l0.732-0.359
		C28.938,48.426,29.004,48.235,28.924,48.078 M25.778,49.271l-4.649,2.282c-0.829-1.451-2.328-2.362-4.007-2.43l-2.387-4.86
		l6.915-3.393L25.778,49.271z M10.314,33.712l3.576-1.756c0.092-0.048,0.193-0.072,0.299-0.072c0.263,0,0.497,0.146,0.613,0.384
		l4.454,9.067l-4.801,2.357l-4.454-9.07C9.837,34.287,9.977,33.875,10.314,33.712 M10.771,37.627l5.655,11.52
		c-0.463,0.048-0.913,0.162-1.348,0.34L9.55,38.229L10.771,37.627z M18.783,57.752c-0.584,0.286-1.207,0.433-1.854,0.433
		c-1.62,0-3.072-0.9-3.784-2.359c-1.026-2.085-0.162-4.615,1.924-5.64c0.584-0.285,1.208-0.431,1.853-0.431
		c1.623,0,3.073,0.903,3.788,2.357C21.73,54.198,20.872,56.728,18.783,57.752"/>
</g>
<g>
	<defs>
		<rect id="SVGID_7_" x="1.41" y="1.321" width="27.349" height="27.554"/>
	</defs>
	<clipPath id="SVGID_8_">
		<use xlink:href="#SVGID_7_"  overflow="visible"/>
	</clipPath>
	<path clip-path="url(#SVGID_8_)" fill="#4B3013" stroke="#4A3016" stroke-width="0.5" stroke-miterlimit="10" d="M16.818,21.185
		c-0.436,0-0.852,0.096-1.244,0.289c-1.396,0.684-1.974,2.376-1.287,3.772c0.478,0.976,1.447,1.58,2.533,1.58
		c0.433,0,0.851-0.096,1.239-0.288c1.396-0.686,1.976-2.379,1.289-3.776C18.872,21.789,17.9,21.185,16.818,21.185 M17.782,25.971
		c-0.302,0.149-0.626,0.223-0.962,0.223c-0.844,0-1.598-0.468-1.968-1.224c-0.533-1.085-0.085-2.401,1-2.932
		c0.303-0.15,0.63-0.224,0.966-0.224c0.838,0,1.594,0.47,1.967,1.224C19.316,24.123,18.868,25.438,17.782,25.971"/>
	<path clip-path="url(#SVGID_8_)" fill="#4B3013" stroke="#4A3016" stroke-width="0.5" stroke-miterlimit="10" d="M28.732,18.154
		c-0.074-0.157-0.265-0.222-0.419-0.145l-2.144,1.051l-4.234-8.626c-0.037-0.075-0.102-0.134-0.18-0.16
		c-0.079-0.028-0.169-0.021-0.243,0.014l-1.817,0.893l-4.421-9.005c-0.223-0.45-0.672-0.731-1.175-0.731
		c-0.2,0-0.394,0.044-0.575,0.132L9.974,3.321c-0.646,0.318-0.915,1.103-0.597,1.75l1.051,2.142L9.215,7.808l-2.27-4.625
		c-0.037-0.073-0.102-0.131-0.181-0.16L1.827,1.34c-0.164-0.057-0.344,0.031-0.4,0.196C1.37,1.699,1.458,1.879,1.623,1.937
		L6.438,3.58l7.98,16.251c-2.181,1.253-3.045,4.008-1.922,6.295c0.816,1.662,2.472,2.692,4.326,2.692
		c0.738,0,1.452-0.163,2.117-0.493c2.29-1.123,3.289-3.833,2.33-6.155l6.028-2.96l0.473,0.965c0.055,0.109,0.167,0.176,0.284,0.176
		c0.047,0,0.093-0.01,0.14-0.034c0.155-0.076,0.22-0.264,0.142-0.419l-0.473-0.968l0.724-0.357
		C28.746,18.499,28.813,18.31,28.732,18.154 M25.605,19.337l-4.615,2.266c-0.822-1.44-2.312-2.344-3.978-2.413l-2.37-4.826
		l6.865-3.37L25.605,19.337z M10.252,3.887l3.55-1.742c0.092-0.048,0.193-0.07,0.297-0.07c0.261,0,0.494,0.146,0.609,0.378
		l4.422,9.005l-4.767,2.341L9.942,4.793C9.778,4.459,9.917,4.052,10.252,3.887 M10.706,7.777l5.617,11.438
		c-0.464,0.049-0.909,0.161-1.342,0.339L9.494,8.373L10.706,7.777z M18.664,27.76c-0.583,0.287-1.202,0.43-1.843,0.43
		c-1.61,0-3.051-0.896-3.761-2.342c-1.016-2.071-0.158-4.584,1.912-5.601c0.582-0.284,1.201-0.429,1.842-0.429
		c1.607,0,3.053,0.898,3.761,2.341C21.589,24.231,20.733,26.743,18.664,27.76"/>
</g>
<g display="none">
	<defs>
		<rect id="SVGID_9_" x="1.188" y="7.523" width="27.937" height="17.229"/>
	</defs>
	<clipPath id="SVGID_10_" display="inline">
		<use xlink:href="#SVGID_9_"  overflow="visible"/>
	</clipPath>
	<path display="inline" clip-path="url(#SVGID_10_)" fill="#4B3013" d="M29.134,17.304c0-0.025-0.003-0.049-0.007-0.073
		l-0.984-5.929c-0.038-0.214-0.224-0.372-0.439-0.372h-5.754v-0.859c0-0.254-0.151-0.473-0.369-0.572v-1.53
		c0-0.246-0.196-0.445-0.444-0.445H1.632c-0.117,0-0.231,0.047-0.313,0.13C1.234,7.737,1.188,7.851,1.188,7.968V18.12
		c0,0.519,0.176,0.998,0.469,1.38H1.632c-0.246,0-0.444,0.199-0.444,0.444v0.819c0,0.645,0.525,1.171,1.171,1.171h2.879
		c-0.004,0.059-0.006,0.12-0.006,0.179c0,1.44,1.171,2.612,2.612,2.612c1.44,0,2.613-1.171,2.613-2.612
		c0-0.059-0.002-0.12-0.006-0.179h0.885h9.86c-0.004,0.059-0.006,0.12-0.006,0.179c0,1.44,1.169,2.612,2.611,2.612
		c1.44,0,2.614-1.171,2.614-2.612c0-0.059-0.005-0.12-0.008-0.179h0.739h1.542c0.246,0,0.445-0.198,0.445-0.444V17.304z
		 M27.326,11.82l0.919,5.521V19.5h-6.296v-7.68H27.326z M2.077,8.413h18.616V19.5H3.458c-0.762,0-1.381-0.62-1.381-1.38V8.413z
		 M2.359,21.045c-0.155,0-0.282-0.126-0.282-0.282V20.39h3.807c-0.173,0.195-0.315,0.416-0.423,0.656H2.359z M7.844,23.836
		L7.844,23.836c-0.95,0-1.723-0.772-1.723-1.723c0-0.951,0.772-1.723,1.723-1.723c0.951,0,1.724,0.772,1.724,1.723
		C9.568,23.063,8.795,23.836,7.844,23.836 M11.487,21.045L10.63,20.39h11.208c-0.169,0.195-0.313,0.416-0.422,0.656H11.487z
		 M23.801,23.836L23.801,23.836c-0.95,0-1.726-0.772-1.726-1.723c0-0.951,0.775-1.723,1.726-1.723s1.723,0.772,1.723,1.723
		C25.523,23.063,24.751,23.836,23.801,23.836 M28.245,21.045h-0.95L26.44,20.39h1.805V21.045z"/>
</g>
<g display="none">
	<defs>
		<rect id="SVGID_11_" x="1.094" y="37.603" width="27.937" height="17.229"/>
	</defs>
	<clipPath id="SVGID_12_" display="inline">
		<use xlink:href="#SVGID_11_"  overflow="visible"/>
	</clipPath>
	<path display="inline" clip-path="url(#SVGID_12_)" fill="#FCF6B4" d="M29.04,47.384c0-0.025-0.003-0.05-0.007-0.074l-0.984-5.928
		c-0.038-0.215-0.224-0.373-0.439-0.373h-5.754v-0.859c0-0.253-0.151-0.473-0.369-0.571v-1.53c0-0.246-0.196-0.445-0.444-0.445
		H1.539c-0.117,0-0.231,0.047-0.313,0.13c-0.084,0.084-0.131,0.198-0.131,0.315v10.15c0,0.519,0.176,0.999,0.469,1.381H1.539
		c-0.246,0-0.444,0.199-0.444,0.444v0.819c0,0.645,0.525,1.17,1.171,1.17h2.879c-0.004,0.061-0.006,0.12-0.006,0.179
		c0,1.44,1.171,2.613,2.612,2.613c1.44,0,2.613-1.173,2.613-2.613c0-0.059-0.002-0.119-0.006-0.179h0.885h9.86
		c-0.004,0.061-0.006,0.12-0.006,0.179c0,1.44,1.169,2.613,2.611,2.613c1.44,0,2.614-1.173,2.614-2.613
		c0-0.059-0.005-0.119-0.008-0.179h0.739h1.542c0.246,0,0.445-0.198,0.445-0.443V47.384z M27.232,41.899l0.919,5.521v2.158h-6.296
		v-7.68H27.232z M1.983,38.492H20.6v11.087H3.365c-0.762,0-1.381-0.62-1.381-1.381V38.492z M2.265,51.125
		c-0.155,0-0.282-0.128-0.282-0.282v-0.374H5.79c-0.173,0.195-0.315,0.415-0.423,0.656H2.265z M7.75,53.916L7.75,53.916
		c-0.95,0-1.723-0.773-1.723-1.725c0-0.95,0.772-1.723,1.723-1.723c0.951,0,1.724,0.772,1.724,1.723
		C9.475,53.143,8.702,53.916,7.75,53.916 M11.393,51.125l-0.857-0.656h11.208c-0.169,0.195-0.313,0.415-0.422,0.656H11.393z
		 M23.707,53.916L23.707,53.916c-0.95,0-1.726-0.773-1.726-1.725c0-0.95,0.775-1.723,1.726-1.723s1.723,0.772,1.723,1.723
		C25.43,53.143,24.657,53.916,23.707,53.916 M28.151,51.125h-0.95l-0.854-0.656h1.805V51.125z"/>
</g>
</svg>
