<?xml version="1.0" encoding="utf-8"?>
<!-- Generator: Adobe Illustrator 16.0.0, SVG Export Plug-In . SVG Version: 6.00 Build 0)  -->
<!DOCTYPE svg PUBLIC "-//W3C//DTD SVG 1.1//EN" "http://www.w3.org/Graphics/SVG/1.1/DTD/svg11.dtd">
<svg version="1.1" id="Layer_1" xmlns="http://www.w3.org/2000/svg" xmlns:xlink="http://www.w3.org/1999/xlink" x="0px" y="0px"
	 width="130.5px" height="80.167px" viewBox="0 0 130.5 80.167" enable-background="new 0 0 130.5 80.167" xml:space="preserve">
<g>
	<g>
		<path d="M3.826,78.563v-5.831h0.792v5.831H3.826z"/>
		<path d="M8.633,78.563v-2.61c0-0.416-0.063-0.704-0.191-0.864c-0.129-0.159-0.348-0.238-0.66-0.238
			c-0.398,0-0.707,0.113-0.928,0.338c-0.219,0.226-0.33,0.546-0.33,0.959v2.416H5.811v-4.239h0.681v0.618
			c0.162-0.247,0.357-0.428,0.582-0.547c0.223-0.12,0.484-0.178,0.779-0.178c0.321,0,0.59,0.047,0.808,0.144
			c0.22,0.097,0.389,0.241,0.507,0.433c0.066,0.104,0.114,0.225,0.143,0.363c0.029,0.137,0.044,0.358,0.044,0.658v0.204v2.544H8.633
			z"/>
		<path d="M10.134,77.186h0.684c0.026,0.29,0.13,0.506,0.311,0.654c0.181,0.147,0.438,0.221,0.771,0.221
			c0.305,0,0.548-0.061,0.723-0.18c0.178-0.121,0.266-0.285,0.266-0.494c0-0.153-0.044-0.275-0.133-0.356
			c-0.088-0.084-0.261-0.155-0.517-0.216l-0.796-0.209c-0.448-0.105-0.762-0.249-0.936-0.427c-0.176-0.18-0.263-0.432-0.263-0.763
			c0-0.375,0.143-0.673,0.426-0.893c0.283-0.22,0.672-0.328,1.166-0.328c0.503,0,0.905,0.114,1.203,0.351
			c0.298,0.234,0.447,0.549,0.447,0.945v0.018h-0.692c-0.016-0.226-0.108-0.399-0.274-0.522c-0.169-0.123-0.396-0.184-0.684-0.184
			c-0.287,0-0.507,0.05-0.655,0.15c-0.148,0.1-0.224,0.246-0.224,0.438c0,0.139,0.047,0.246,0.14,0.323
			c0.094,0.079,0.269,0.146,0.526,0.205l0.688,0.161c0.491,0.116,0.828,0.267,1.014,0.445c0.185,0.181,0.276,0.44,0.276,0.773
			c0,0.442-0.154,0.784-0.465,1.028c-0.309,0.245-0.744,0.366-1.3,0.366c-0.542,0-0.961-0.13-1.253-0.389
			C10.292,78.048,10.142,77.674,10.134,77.186z"/>
		<path d="M15.149,74.324v2.602c0,0.417,0.065,0.705,0.197,0.868c0.13,0.164,0.352,0.244,0.662,0.244
			c0.412,0,0.724-0.121,0.935-0.362c0.212-0.242,0.317-0.598,0.317-1.07v-2.281h0.713v4.239h-0.681v-0.633
			c-0.148,0.245-0.339,0.43-0.575,0.554c-0.234,0.124-0.51,0.187-0.827,0.187c-0.296,0-0.553-0.051-0.771-0.151
			c-0.22-0.101-0.387-0.241-0.504-0.426c-0.065-0.104-0.113-0.226-0.143-0.362c-0.028-0.14-0.043-0.36-0.043-0.662V76.87v-2.546
			H15.149z"/>
		<path d="M19.057,78.563v-4.239h0.689v0.76c0.113-0.288,0.268-0.499,0.461-0.64c0.194-0.141,0.433-0.211,0.715-0.211
			c0.053,0,0.091,0,0.115,0.001c0.023,0.001,0.048,0.005,0.072,0.009v0.755c-0.019-0.004-0.04-0.008-0.064-0.009
			c-0.023-0.001-0.059-0.001-0.107-0.001c-0.379,0-0.669,0.104-0.869,0.313c-0.199,0.206-0.298,0.509-0.298,0.902v2.36H19.057z"/>
		<path d="M24.371,77.996c-0.222,0.233-0.458,0.408-0.708,0.523c-0.249,0.118-0.513,0.175-0.792,0.175
			c-0.434,0-0.771-0.112-1.015-0.339c-0.243-0.226-0.363-0.538-0.363-0.936c0-0.385,0.118-0.687,0.357-0.907
			c0.238-0.22,0.603-0.36,1.091-0.424c0.124-0.014,0.292-0.03,0.503-0.054c0.361-0.039,0.583-0.073,0.664-0.106
			c0.083-0.034,0.136-0.074,0.163-0.126c0.027-0.051,0.04-0.163,0.04-0.336c0-0.216-0.079-0.378-0.237-0.486
			c-0.159-0.108-0.397-0.161-0.717-0.161c-0.33,0-0.578,0.066-0.747,0.198c-0.167,0.131-0.252,0.326-0.252,0.583h-0.671v-0.03
			c0-0.428,0.149-0.765,0.451-1.014c0.301-0.248,0.715-0.372,1.244-0.372c0.566,0,0.984,0.106,1.253,0.319
			c0.268,0.213,0.402,0.543,0.402,0.995v2.121c0,0.184,0.02,0.301,0.059,0.354c0.039,0.054,0.111,0.08,0.213,0.08
			c0.021,0,0.047-0.003,0.078-0.006c0.03-0.005,0.066-0.01,0.108-0.019v0.551c-0.086,0.023-0.163,0.039-0.227,0.05
			c-0.064,0.01-0.126,0.013-0.184,0.013c-0.238,0-0.416-0.051-0.535-0.155c-0.119-0.102-0.178-0.258-0.178-0.465V77.996z
			 M24.304,76.405c-0.191,0.103-0.517,0.185-0.979,0.242c-0.164,0.021-0.288,0.039-0.368,0.051c-0.26,0.043-0.446,0.12-0.559,0.229
			c-0.112,0.113-0.17,0.272-0.17,0.483s0.066,0.374,0.199,0.488c0.132,0.114,0.32,0.17,0.566,0.17c0.382,0,0.697-0.096,0.943-0.288
			c0.245-0.194,0.368-0.44,0.368-0.74V76.405z"/>
		<path d="M28.974,78.563v-2.61c0-0.416-0.063-0.704-0.191-0.864c-0.128-0.159-0.348-0.238-0.658-0.238
			c-0.398,0-0.708,0.113-0.93,0.338c-0.221,0.226-0.33,0.546-0.33,0.959v2.416h-0.712v-4.239h0.681v0.618
			c0.163-0.247,0.357-0.428,0.581-0.547c0.225-0.12,0.484-0.178,0.781-0.178c0.319,0,0.588,0.047,0.808,0.144
			c0.218,0.097,0.388,0.241,0.507,0.433c0.065,0.104,0.114,0.225,0.142,0.363c0.029,0.137,0.044,0.358,0.044,0.658v0.204v2.544
			H28.974z"/>
		<path d="M33.58,75.733c-0.022-0.29-0.126-0.514-0.314-0.671c-0.19-0.157-0.448-0.236-0.775-0.236c-0.386,0-0.682,0.14-0.893,0.417
			c-0.208,0.277-0.314,0.671-0.314,1.187c0,0.517,0.1,0.916,0.302,1.195c0.203,0.28,0.487,0.42,0.858,0.42
			c0.332,0,0.598-0.085,0.797-0.257c0.2-0.172,0.323-0.42,0.371-0.747h0.681c-0.037,0.52-0.22,0.924-0.55,1.217
			c-0.33,0.29-0.772,0.437-1.329,0.437c-0.581,0-1.038-0.199-1.369-0.598c-0.331-0.398-0.498-0.943-0.498-1.64
			c0-0.709,0.174-1.266,0.52-1.669c0.346-0.401,0.82-0.604,1.424-0.604c0.534,0,0.962,0.141,1.281,0.419
			c0.32,0.278,0.493,0.655,0.513,1.13H33.58z"/>
		<path d="M37.874,77.193h0.706c-0.077,0.467-0.28,0.836-0.61,1.104c-0.329,0.271-0.745,0.404-1.246,0.404
			c-0.589,0-1.053-0.199-1.394-0.593c-0.342-0.396-0.511-0.937-0.511-1.62c0-0.724,0.168-1.288,0.506-1.695
			c0.337-0.406,0.804-0.609,1.398-0.609c0.609,0,1.08,0.187,1.415,0.564c0.334,0.372,0.501,0.901,0.501,1.585
			c0,0.087-0.001,0.152-0.002,0.195c-0.001,0.042-0.006,0.083-0.01,0.121h-3.061c0.009,0.446,0.119,0.791,0.333,1.036
			c0.213,0.245,0.511,0.367,0.891,0.367c0.29,0,0.528-0.074,0.718-0.224C37.697,77.681,37.819,77.468,37.874,77.193z M35.563,76.059
			h2.328c-0.002-0.396-0.103-0.704-0.3-0.917c-0.198-0.216-0.479-0.322-0.844-0.322c-0.351,0-0.627,0.105-0.83,0.316
			C35.715,75.346,35.597,75.653,35.563,76.059z"/>
		<path d="M41.11,78.563l2.165-5.831h0.875l2.174,5.831h-0.859l-0.618-1.74h-2.296l-0.622,1.74H41.11z M42.796,76.14h1.816
			l-0.901-2.573L42.796,76.14z"/>
		<path d="M46.554,77.186h0.684c0.027,0.29,0.131,0.506,0.312,0.654c0.18,0.147,0.437,0.221,0.77,0.221
			c0.306,0,0.547-0.061,0.724-0.18c0.178-0.121,0.266-0.285,0.266-0.494c0-0.153-0.045-0.275-0.133-0.356
			c-0.088-0.084-0.261-0.155-0.517-0.216l-0.795-0.209c-0.449-0.105-0.761-0.249-0.937-0.427c-0.176-0.18-0.264-0.432-0.264-0.763
			c0-0.375,0.142-0.673,0.426-0.893s0.672-0.328,1.167-0.328c0.504,0,0.904,0.114,1.203,0.351c0.298,0.234,0.448,0.549,0.448,0.945
			v0.018h-0.694c-0.014-0.226-0.105-0.399-0.274-0.522c-0.167-0.123-0.395-0.184-0.682-0.184c-0.288,0-0.506,0.05-0.655,0.15
			c-0.15,0.1-0.225,0.246-0.225,0.438c0,0.139,0.046,0.246,0.141,0.323c0.093,0.079,0.269,0.146,0.525,0.205l0.689,0.161
			c0.491,0.116,0.827,0.267,1.013,0.445c0.185,0.181,0.278,0.44,0.278,0.773c0,0.442-0.155,0.784-0.467,1.028
			c-0.31,0.245-0.743,0.366-1.299,0.366c-0.543,0-0.961-0.13-1.254-0.389C46.711,78.048,46.562,77.674,46.554,77.186z"/>
		<path d="M50.576,77.186h0.685c0.026,0.29,0.131,0.506,0.312,0.654c0.18,0.147,0.438,0.221,0.77,0.221
			c0.305,0,0.549-0.061,0.726-0.18c0.177-0.121,0.265-0.285,0.265-0.494c0-0.153-0.045-0.275-0.135-0.356
			c-0.086-0.084-0.258-0.155-0.515-0.216l-0.796-0.209c-0.449-0.105-0.761-0.249-0.938-0.427c-0.174-0.18-0.263-0.432-0.263-0.763
			c0-0.375,0.143-0.673,0.427-0.893c0.282-0.22,0.671-0.328,1.164-0.328c0.505,0,0.906,0.114,1.205,0.351
			c0.298,0.234,0.447,0.549,0.447,0.945v0.018h-0.691c-0.017-0.226-0.108-0.399-0.277-0.522s-0.395-0.184-0.684-0.184
			c-0.287,0-0.505,0.05-0.653,0.15c-0.15,0.1-0.224,0.246-0.224,0.438c0,0.139,0.045,0.246,0.14,0.323
			c0.092,0.079,0.269,0.146,0.525,0.205l0.689,0.161c0.489,0.116,0.827,0.267,1.012,0.445c0.185,0.181,0.277,0.44,0.277,0.773
			c0,0.442-0.155,0.784-0.466,1.028c-0.309,0.245-0.743,0.366-1.301,0.366c-0.541,0-0.962-0.13-1.252-0.389
			C50.733,78.048,50.583,77.674,50.576,77.186z"/>
		<path d="M54.669,76.438c0-0.712,0.179-1.265,0.532-1.659c0.355-0.397,0.854-0.595,1.496-0.595c0.646,0,1.142,0.197,1.501,0.593
			c0.357,0.394,0.533,0.946,0.533,1.661c0,0.712-0.176,1.267-0.533,1.662c-0.355,0.396-0.852,0.594-1.493,0.594
			c-0.646,0-1.145-0.198-1.502-0.593C54.85,77.708,54.669,77.153,54.669,76.438z M55.398,76.438c0,0.523,0.111,0.926,0.337,1.205
			c0.227,0.278,0.549,0.417,0.97,0.417c0.415,0,0.738-0.139,0.956-0.417c0.223-0.279,0.335-0.682,0.335-1.205
			c0-0.524-0.112-0.924-0.335-1.202c-0.218-0.279-0.541-0.417-0.956-0.417c-0.423,0-0.745,0.138-0.97,0.414
			C55.51,75.512,55.398,75.912,55.398,76.438z"/>
		<path d="M62.414,75.733c-0.022-0.29-0.127-0.514-0.315-0.671s-0.447-0.236-0.773-0.236c-0.385,0-0.684,0.14-0.893,0.417
			c-0.21,0.277-0.316,0.671-0.316,1.187c0,0.517,0.103,0.916,0.303,1.195c0.202,0.28,0.489,0.42,0.858,0.42
			c0.335,0,0.6-0.085,0.797-0.257c0.2-0.172,0.323-0.42,0.371-0.747h0.682c-0.035,0.52-0.22,0.924-0.552,1.217
			c-0.33,0.29-0.772,0.437-1.328,0.437c-0.581,0-1.038-0.199-1.369-0.598s-0.495-0.943-0.495-1.64c0-0.709,0.17-1.266,0.518-1.669
			c0.344-0.401,0.819-0.604,1.425-0.604c0.533,0,0.96,0.141,1.281,0.419c0.32,0.278,0.491,0.655,0.511,1.13H62.414z"/>
		<path d="M63.854,73.543v-0.811h0.714v0.811H63.854z M63.854,78.563v-4.239h0.714v4.239H63.854z"/>
		<path d="M68.276,77.996c-0.221,0.233-0.455,0.408-0.706,0.523c-0.25,0.118-0.515,0.175-0.796,0.175
			c-0.431,0-0.769-0.112-1.012-0.339c-0.242-0.226-0.364-0.538-0.364-0.936c0-0.385,0.12-0.687,0.36-0.907
			c0.236-0.22,0.6-0.36,1.091-0.424c0.122-0.014,0.288-0.03,0.501-0.054c0.36-0.039,0.583-0.073,0.664-0.106
			c0.081-0.034,0.138-0.074,0.161-0.126c0.028-0.051,0.04-0.163,0.04-0.336c0-0.216-0.078-0.378-0.236-0.486
			s-0.397-0.161-0.716-0.161c-0.33,0-0.579,0.066-0.745,0.198c-0.169,0.131-0.253,0.326-0.253,0.583h-0.674v-0.03
			c0-0.428,0.151-0.765,0.451-1.014c0.303-0.248,0.716-0.372,1.243-0.372c0.567,0,0.986,0.106,1.253,0.319
			c0.27,0.213,0.403,0.543,0.403,0.995v2.121c0,0.184,0.02,0.301,0.06,0.354c0.04,0.054,0.109,0.08,0.212,0.08
			c0.022,0,0.049-0.003,0.078-0.006c0.03-0.005,0.066-0.01,0.11-0.019v0.551c-0.088,0.023-0.166,0.039-0.23,0.05
			c-0.064,0.01-0.124,0.013-0.183,0.013c-0.236,0-0.416-0.051-0.532-0.155c-0.12-0.102-0.181-0.258-0.181-0.465V77.996z
			 M68.21,76.405c-0.188,0.103-0.518,0.185-0.976,0.242c-0.167,0.021-0.289,0.039-0.371,0.051c-0.259,0.043-0.444,0.12-0.557,0.229
			c-0.115,0.113-0.171,0.272-0.171,0.483s0.065,0.374,0.196,0.488c0.132,0.114,0.322,0.17,0.566,0.17
			c0.386,0,0.698-0.096,0.943-0.288c0.246-0.194,0.368-0.44,0.368-0.74V76.405z"/>
		<path d="M70.894,77.494c0,0.19,0.028,0.316,0.083,0.38c0.053,0.065,0.151,0.097,0.298,0.097c0.042,0,0.093-0.002,0.152-0.005
			c0.061-0.001,0.137-0.007,0.231-0.017v0.605c-0.119,0.022-0.226,0.038-0.32,0.049c-0.091,0.011-0.175,0.016-0.25,0.016
			c-0.334,0-0.571-0.065-0.705-0.194c-0.134-0.13-0.2-0.358-0.2-0.688V74.89h-0.636v-0.565h0.636V73.14h0.711v1.185h0.765v0.565
			h-0.765V77.494z"/>
		<path d="M72.335,73.543v-0.811h0.713v0.811H72.335z M72.335,78.563v-4.239h0.713v4.239H72.335z"/>
		<path d="M73.918,76.438c0-0.712,0.179-1.265,0.533-1.659c0.355-0.397,0.854-0.595,1.493-0.595c0.645,0,1.146,0.197,1.502,0.593
			c0.356,0.394,0.534,0.946,0.534,1.661c0,0.712-0.178,1.267-0.532,1.662c-0.356,0.396-0.852,0.594-1.496,0.594
			c-0.643,0-1.142-0.198-1.499-0.593C74.097,77.708,73.918,77.153,73.918,76.438z M74.647,76.438c0,0.523,0.112,0.926,0.34,1.205
			c0.226,0.278,0.547,0.417,0.965,0.417c0.417,0,0.738-0.139,0.959-0.417c0.223-0.279,0.334-0.682,0.334-1.205
			c0-0.524-0.111-0.924-0.334-1.202c-0.221-0.279-0.542-0.417-0.959-0.417c-0.42,0-0.745,0.138-0.969,0.414
			C74.76,75.512,74.647,75.912,74.647,76.438z"/>
		<path d="M81.671,78.563v-2.61c0-0.416-0.064-0.704-0.192-0.864c-0.13-0.159-0.349-0.238-0.659-0.238
			c-0.396,0-0.707,0.113-0.929,0.338c-0.22,0.226-0.33,0.546-0.33,0.959v2.416h-0.714v-4.239h0.682v0.618
			c0.164-0.247,0.356-0.428,0.584-0.547c0.223-0.12,0.482-0.178,0.777-0.178c0.32,0,0.589,0.047,0.81,0.144
			c0.219,0.097,0.389,0.241,0.505,0.433c0.068,0.104,0.114,0.225,0.143,0.363c0.03,0.137,0.044,0.358,0.044,0.658v0.204v2.544
			H81.671z"/>
		<path d="M85.464,76.438c0-0.712,0.178-1.265,0.532-1.659c0.354-0.397,0.854-0.595,1.496-0.595c0.641,0,1.142,0.197,1.499,0.593
			c0.356,0.394,0.535,0.946,0.535,1.661c0,0.712-0.177,1.267-0.533,1.662c-0.355,0.396-0.854,0.594-1.493,0.594
			c-0.644,0-1.146-0.198-1.502-0.593C85.642,77.708,85.464,77.153,85.464,76.438z M86.193,76.438c0,0.523,0.111,0.926,0.338,1.205
			c0.226,0.278,0.548,0.417,0.969,0.417c0.417,0,0.735-0.139,0.955-0.417c0.224-0.279,0.334-0.682,0.334-1.205
			c0-0.524-0.11-0.924-0.334-1.202c-0.22-0.279-0.538-0.417-0.955-0.417c-0.423,0-0.747,0.138-0.973,0.414
			C86.305,75.512,86.193,75.912,86.193,76.438z"/>
		<path d="M90.546,78.563V74.89h-0.695v-0.565h0.695v-0.627c0-0.351,0.081-0.614,0.243-0.789c0.158-0.176,0.397-0.265,0.716-0.265
			c0.05,0,0.114,0.005,0.19,0.014c0.075,0.008,0.188,0.022,0.336,0.043v0.641c-0.078-0.013-0.14-0.023-0.192-0.029
			c-0.052-0.006-0.092-0.01-0.124-0.01c-0.166,0-0.282,0.047-0.349,0.139c-0.063,0.093-0.101,0.27-0.101,0.527v0.356h0.766v0.565
			h-0.766v3.674H90.546z"/>
		<path d="M94.569,76.644h0.766c0.006,0.421,0.147,0.759,0.421,1.01c0.272,0.249,0.639,0.376,1.095,0.376
			c0.45,0,0.806-0.095,1.067-0.285c0.259-0.189,0.387-0.448,0.387-0.775c0-0.447-0.487-0.786-1.462-1.018
			c-0.059-0.014-0.103-0.022-0.136-0.031c-0.79-0.188-1.314-0.397-1.568-0.628c-0.257-0.23-0.383-0.56-0.383-0.984
			c0-0.521,0.19-0.938,0.571-1.253c0.378-0.316,0.883-0.473,1.516-0.473c0.643,0,1.149,0.164,1.519,0.495
			c0.37,0.333,0.557,0.787,0.563,1.366l-0.755,0.003c-0.027-0.392-0.158-0.69-0.398-0.899c-0.238-0.207-0.566-0.312-0.98-0.312
			c-0.39,0-0.698,0.085-0.93,0.255c-0.232,0.171-0.347,0.397-0.347,0.68c0,0.45,0.479,0.787,1.44,1.01
			c0.141,0.034,0.25,0.06,0.327,0.079c0.016,0.001,0.043,0.008,0.084,0.019c0.627,0.152,1.046,0.313,1.25,0.487
			c0.157,0.132,0.275,0.294,0.357,0.481c0.082,0.189,0.122,0.399,0.122,0.631c0,0.562-0.2,1.009-0.604,1.342
			c-0.402,0.333-0.945,0.499-1.631,0.499c-0.708,0-1.26-0.179-1.656-0.537C94.813,77.824,94.599,77.312,94.569,76.644z"/>
		<path d="M99.995,78.563v-4.239h0.688v0.76c0.114-0.288,0.268-0.499,0.462-0.64c0.193-0.141,0.432-0.211,0.715-0.211
			c0.052,0,0.091,0,0.114,0.001s0.046,0.005,0.071,0.009v0.755c-0.02-0.004-0.04-0.008-0.063-0.009
			c-0.024-0.001-0.061-0.001-0.106-0.001c-0.381,0-0.67,0.104-0.87,0.313c-0.198,0.206-0.301,0.509-0.301,0.902v2.36H99.995z"/>
		<path d="M102.687,73.543v-0.811h0.712v0.811H102.687z M102.687,78.563v-4.239h0.712v4.239H102.687z"/>
		<path d="M106.791,78.563v-5.831h0.8v5.097h2.906v0.734H106.791z"/>
		<path d="M113.669,77.996c-0.223,0.233-0.46,0.408-0.708,0.523c-0.249,0.118-0.513,0.175-0.794,0.175
			c-0.433,0-0.77-0.112-1.012-0.339c-0.245-0.226-0.365-0.538-0.365-0.936c0-0.385,0.118-0.687,0.359-0.907
			c0.238-0.22,0.602-0.36,1.089-0.424c0.126-0.014,0.293-0.03,0.505-0.054c0.36-0.039,0.582-0.073,0.665-0.106
			c0.078-0.034,0.135-0.074,0.16-0.126c0.026-0.051,0.04-0.163,0.04-0.336c0-0.216-0.081-0.378-0.236-0.486
			c-0.161-0.108-0.397-0.161-0.72-0.161c-0.329,0-0.577,0.066-0.744,0.198c-0.168,0.131-0.252,0.326-0.252,0.583h-0.672v-0.03
			c0-0.428,0.149-0.765,0.451-1.014c0.299-0.248,0.716-0.372,1.243-0.372c0.569,0,0.986,0.106,1.252,0.319
			c0.269,0.213,0.403,0.543,0.403,0.995v2.121c0,0.184,0.019,0.301,0.058,0.354c0.04,0.054,0.112,0.08,0.215,0.08
			c0.021,0,0.047-0.003,0.078-0.006c0.03-0.005,0.065-0.01,0.108-0.019v0.551c-0.088,0.023-0.163,0.039-0.227,0.05
			c-0.066,0.01-0.129,0.013-0.185,0.013c-0.239,0-0.416-0.051-0.534-0.155c-0.119-0.102-0.179-0.258-0.179-0.465V77.996z
			 M113.603,76.405c-0.192,0.103-0.518,0.185-0.98,0.242c-0.162,0.021-0.284,0.039-0.366,0.051c-0.261,0.043-0.447,0.12-0.56,0.229
			c-0.112,0.113-0.168,0.272-0.168,0.483s0.063,0.374,0.195,0.488c0.133,0.114,0.321,0.17,0.565,0.17
			c0.384,0,0.698-0.096,0.942-0.288c0.247-0.194,0.371-0.44,0.371-0.74V76.405z"/>
		<path d="M118.274,78.563v-2.61c0-0.416-0.066-0.704-0.194-0.864c-0.129-0.159-0.347-0.238-0.657-0.238
			c-0.399,0-0.71,0.113-0.928,0.338c-0.223,0.226-0.331,0.546-0.331,0.959v2.416h-0.714v-4.239h0.68v0.618
			c0.166-0.247,0.359-0.428,0.583-0.547c0.225-0.12,0.483-0.178,0.78-0.178c0.318,0,0.587,0.047,0.808,0.144
			c0.218,0.097,0.389,0.241,0.507,0.433c0.065,0.104,0.112,0.225,0.142,0.363c0.028,0.137,0.045,0.358,0.045,0.658v0.204v2.544
			H118.274z"/>
		<path d="M120.061,78.563v-5.831h0.715v3.497l1.914-1.905h0.9l-1.587,1.548l1.563,2.691h-0.804l-1.238-2.197l-0.748,0.722v1.476
			H120.061z"/>
		<path d="M126.877,77.996c-0.224,0.233-0.459,0.408-0.707,0.523c-0.249,0.118-0.516,0.175-0.794,0.175
			c-0.435,0-0.772-0.112-1.015-0.339c-0.242-0.226-0.365-0.538-0.365-0.936c0-0.385,0.121-0.687,0.359-0.907
			c0.238-0.22,0.604-0.36,1.091-0.424c0.124-0.014,0.293-0.03,0.503-0.054c0.362-0.039,0.583-0.073,0.665-0.106
			c0.082-0.034,0.135-0.074,0.163-0.126c0.027-0.051,0.039-0.163,0.039-0.336c0-0.216-0.079-0.378-0.238-0.486
			c-0.158-0.108-0.396-0.161-0.715-0.161c-0.331,0-0.578,0.066-0.748,0.198c-0.168,0.131-0.25,0.326-0.25,0.583h-0.674v-0.03
			c0-0.428,0.152-0.765,0.453-1.014c0.301-0.248,0.714-0.372,1.242-0.372c0.565,0,0.984,0.106,1.253,0.319s0.4,0.543,0.4,0.995
			v2.121c0,0.184,0.022,0.301,0.063,0.354c0.038,0.054,0.108,0.08,0.21,0.08c0.022,0,0.047-0.003,0.079-0.006
			c0.031-0.005,0.068-0.01,0.107-0.019v0.551c-0.086,0.023-0.162,0.039-0.228,0.05c-0.064,0.01-0.124,0.013-0.183,0.013
			c-0.236,0-0.415-0.051-0.535-0.155c-0.119-0.102-0.177-0.258-0.177-0.465V77.996z M126.809,76.405
			c-0.19,0.103-0.515,0.185-0.978,0.242c-0.164,0.021-0.286,0.039-0.369,0.051c-0.259,0.043-0.445,0.12-0.558,0.229
			c-0.114,0.113-0.17,0.272-0.17,0.483s0.063,0.374,0.197,0.488c0.132,0.114,0.32,0.17,0.564,0.17c0.385,0,0.697-0.096,0.944-0.288
			c0.244-0.194,0.368-0.44,0.368-0.74V76.405z"/>
	</g>
	<path fill="#E3B58F" d="M60.902,29.97c0,15.765-12.778,28.545-28.55,28.545c-15.763,0-28.543-12.78-28.543-28.545
		c0-15.765,12.781-28.546,28.543-28.546C48.124,1.424,60.902,14.206,60.902,29.97z"/>
	<polygon fill="#FFFFFF" points="11.833,47.652 16.518,42.965 6.433,32.781 20.184,32.066 15.396,15.772 28.229,25.347 32.914,9.56 
		37.907,24.938 50.229,15.059 45.749,32.272 59.397,32.375 48.498,43.169 59.802,55.086 45.925,57.626 44.527,58.955 20.896,58.955 
		19.611,56.148 7.757,57.732 	"/>
	<path fill="#2C3987" d="M37.19,34.429c0,2.718-2.202,4.921-4.917,4.921c-2.72,0-4.921-2.203-4.921-4.921
		c0-2.715,2.201-4.919,4.921-4.919C34.988,29.51,37.19,31.714,37.19,34.429z"/>
	<g>
		<path fill="#E3B58F" d="M32.758,69.022v-23.39c0,0,6.172-10.639,17.775-7.027c0-0.102-9.75,1.205-10.984,7.127
			c-0.25,0,0,17.468,0,17.468L32.758,69.022z"/>
		<path fill="#2C3987" d="M31.783,69.022v-23.39c0,0-6.172-10.639-17.775-7.027c0-0.102,9.75,1.205,10.984,7.127
			c0.25,0,0,17.468,0,17.468L31.783,69.022z"/>
	</g>
	<g>
		<path fill="#2C3987" d="M47.874,70.118V42.157H51.8v27.961H47.874z"/>
		<path fill="#2C3987" d="M54.903,70.118l10.739-27.961h4.339l10.777,27.961h-4.261l-3.063-8.354H62.049l-3.082,8.354H54.903z
			 M63.265,58.5h9.013l-4.477-12.338L63.265,58.5z"/>
		<path fill="#2C3987" d="M82.408,60.91h3.789c0.039,2.027,0.737,3.639,2.093,4.84c1.353,1.203,3.162,1.804,5.426,1.804
			c2.238,0,4.004-0.455,5.293-1.366c1.289-0.912,1.934-2.15,1.934-3.72c0-2.139-2.421-3.765-7.266-4.88
			c-0.287-0.063-0.511-0.111-0.665-0.152c-3.928-0.896-6.522-1.9-7.787-3.009c-1.263-1.106-1.892-2.678-1.892-4.717
			c0-2.491,0.939-4.495,2.826-6.007c1.884-1.511,4.389-2.268,7.518-2.268c3.193,0,5.707,0.794,7.539,2.381
			c1.833,1.59,2.764,3.77,2.79,6.539l-3.75,0.021c-0.133-1.875-0.79-3.31-1.975-4.309c-1.185-1.001-2.805-1.501-4.856-1.501
			c-1.926,0-3.464,0.407-4.616,1.226c-1.153,0.815-1.728,1.899-1.728,3.255c0,2.163,2.381,3.777,7.146,4.84
			c0.708,0.163,1.25,0.293,1.63,0.38c0.08,0.014,0.218,0.045,0.412,0.097c3.115,0.719,5.183,1.496,6.204,2.332
			c0.775,0.635,1.36,1.401,1.768,2.309c0.406,0.902,0.609,1.912,0.609,3.025c0,2.694-0.999,4.841-2.995,6.436
			c-1.995,1.593-4.695,2.39-8.1,2.39c-3.505,0-6.241-0.856-8.195-2.571C83.604,66.571,82.554,64.111,82.408,60.91z"/>
		<path fill="#2C3987" d="M109.719,70.118V42.157h3.966v24.43h14.411v3.531H109.719z"/>
	</g>
</g>
</svg>
