<?xml version="1.0" encoding="utf-8"?>
<!-- Generator: Adobe Illustrator 18.1.1, SVG Export Plug-In . SVG Version: 6.00 Build 0)  -->
<svg version="1.0" id="Layer_1" xmlns="http://www.w3.org/2000/svg" xmlns:xlink="http://www.w3.org/1999/xlink" x="0px" y="0px"
	 viewBox="0 0 32 32" enable-background="new 0 0 32 32" xml:space="preserve">
<rect opacity="0.58" fill="#49B3CC" width="32" height="32"/>
<g display="none">
	<path display="inline" fill="#FFFFFF" stroke="#FFFFFF" stroke-width="0.25" stroke-miterlimit="10" d="M24.2,5.4
		c-0.1,0-0.2,0-0.3-0.1c-2.7-1.4-5-2-7.8-2c-2.8,0-5.4,0.7-7.8,2c-0.3,0.2-0.8,0.1-1-0.3c-0.2-0.3-0.1-0.8,0.3-1C10.1,2.7,13,2,16,2
		c3,0,5.6,0.7,8.5,2.1c0.3,0.2,0.5,0.6,0.3,0.9C24.6,5.3,24.4,5.4,24.2,5.4z"/>
	<path display="inline" fill="#FFFFFF" stroke="#FFFFFF" stroke-width="0.25" stroke-miterlimit="10" d="M4.1,12.8
		c-0.1,0-0.3,0-0.4-0.1c-0.3-0.2-0.4-0.7-0.2-1c1.4-2,3.2-3.5,5.3-4.6c4.4-2.3,10.1-2.3,14.5,0c2.1,1.1,3.9,2.6,5.3,4.6
		c0.2,0.3,0.2,0.8-0.2,1s-0.8,0.2-1-0.2c-1.3-1.8-2.9-3.2-4.8-4.1c-4-2.1-9.2-2.1-13.2,0c-1.9,1-3.5,2.4-4.8,4.2
		C4.5,12.7,4.3,12.8,4.1,12.8z"/>
	<path display="inline" fill="#FFFFFF" stroke="#FFFFFF" stroke-width="0.25" stroke-miterlimit="10" d="M12.8,29.7
		c-0.2,0-0.4-0.1-0.5-0.2c-1.2-1.2-1.9-2-2.8-3.7c-1-1.7-1.5-3.8-1.5-6.1c0-4.2,3.6-7.6,7.9-7.6s7.9,3.4,7.9,7.6
		c0,0.4-0.3,0.7-0.7,0.7s-0.7-0.3-0.7-0.7c0-3.4-2.9-6.2-6.5-6.2c-3.6,0-6.5,2.8-6.5,6.2c0,2,0.4,3.9,1.3,5.4
		c0.9,1.6,1.5,2.3,2.6,3.4c0.3,0.3,0.3,0.7,0,1C13.2,29.7,13,29.7,12.8,29.7z"/>
	<path display="inline" fill="#FFFFFF" stroke="#FFFFFF" stroke-width="0.25" stroke-miterlimit="10" d="M22.9,27.1
		c-1.7,0-3.1-0.4-4.3-1.2c-2.1-1.4-3.3-3.7-3.3-6.2c0-0.4,0.3-0.7,0.7-0.7c0.4,0,0.7,0.3,0.7,0.7c0,2,1,3.8,2.7,5c1,0.7,2.2,1,3.6,1
		c0.3,0,0.9,0,1.5-0.1c0.4-0.1,0.7,0.2,0.8,0.6S25,26.9,24.6,27C23.8,27.1,23.1,27.1,22.9,27.1z"/>
	<path display="inline" fill="#FFFFFF" stroke="#FFFFFF" stroke-width="0.25" stroke-miterlimit="10" d="M20.1,30
		c-0.1,0-0.1,0-0.2,0c-2.2-0.6-3.7-1.4-5.2-2.9c-2-2-3-4.6-3-7.3c0-2.3,1.9-4.1,4.3-4.1s4.3,1.9,4.3,4.1c0,1.5,1.3,2.7,2.9,2.7
		c1.6,0,2.9-1.2,2.9-2.7c0-5.3-4.6-9.6-10.2-9.6c-4,0-7.6,2.2-9.3,5.7c-0.5,1.1-0.8,2.5-0.8,3.9c0,1.1,0.1,2.8,0.9,5.1
		c0.1,0.4,0,0.8-0.4,0.9c-0.4,0.1-0.8,0-0.9-0.4c-0.7-1.8-1-3.7-1-5.5c0-1.7,0.3-3.2,1-4.5c1.9-3.9,6-6.4,10.5-6.4
		c6.4,0,11.6,4.9,11.6,11c0,2.3-1.9,4.1-4.3,4.1s-4.3-1.9-4.3-4.1c0-1.5-1.3-2.7-2.9-2.7S13,18.2,13,19.7c0,2.4,0.9,4.6,2.6,6.3
		c1.3,1.3,2.6,2,4.6,2.6c0.4,0.1,0.6,0.5,0.5,0.9C20.7,29.8,20.4,30,20.1,30z"/>
</g>
<g display="none">
	<path display="inline" fill="#FFFFFF" stroke="#FFFFFF" stroke-miterlimit="10" d="M27.3,5.9H4.7c-1.3,0-2.3,1-2.3,2.3v15.6
		c0,1.3,1,2.3,2.3,2.3h22.7c1.3,0,2.3-1,2.3-2.3V8.2C29.7,6.9,28.6,5.9,27.3,5.9z M28.8,23.8c0,0.8-0.6,1.4-1.4,1.4H4.7
		c-0.8,0-1.4-0.6-1.4-1.4v-8.2c1.1,1.8,3,2.9,5.2,2.9h5.7V20c0,0.8,0.6,1.4,1.4,1.4h0.9c0.8,0,1.4-0.6,1.4-1.4v-1.4h5.7
		c2.2,0,4.2-1.2,5.2-2.9V23.8z M15.5,19.5h0.9c0.2,0,0.3,0,0.5-0.1V20c0,0.3-0.2,0.5-0.5,0.5h-0.9c-0.3,0-0.5-0.2-0.5-0.5v-0.6
		C15.2,19.5,15.3,19.5,15.5,19.5z M15,18.1v-0.9c0-0.3,0.2-0.5,0.5-0.5h0.9c0.3,0,0.5,0.2,0.5,0.5v0.9c0,0.3-0.2,0.5-0.5,0.5h-0.9
		C15.3,18.6,15,18.4,15,18.1z M28.8,12.5c0,2.9-2.3,5.2-5.2,5.2h-5.7v-0.5c0-0.8-0.6-1.4-1.4-1.4h-0.9c-0.8,0-1.4,0.6-1.4,1.4v0.5
		H8.4c-2.9,0-5.2-2.3-5.2-5.2V8.2c0-0.8,0.6-1.4,1.4-1.4h22.7c0.8,0,1.4,0.7,1.4,1.4V12.5z"/>
</g>
<path display="none" fill="#FFFFFF" d="M31,12.5c-1.9-1.9-4.1-3.4-6.5-4.4c-2.4-1-5-1.6-7.7-1.8h-1.8C9.8,6.5,4.8,8.7,1,12.5
	c-0.2,0.2-0.3,0.4-0.3,0.6c0,0.2,0.1,0.5,0.3,0.6l9.2,9.2c0.2,0.2,0.4,0.3,0.6,0.3c0.2,0,0.5-0.1,0.6-0.3c0.6-0.6,1.3-1,2-1.4l1,1.6
	c-0.1,0.3-0.2,0.6-0.2,0.9c0,1,0.8,1.8,1.8,1.8c1,0,1.8-0.8,1.8-1.8c0-1-0.8-1.8-1.8-1.8c0,0-0.1,0-0.1,0L15.1,21
	c0.3,0,0.6-0.1,0.9-0.1c1.7,0,3.4,0.7,4.6,1.9c0.2,0.2,0.4,0.3,0.6,0.3c0.2,0,0.5-0.1,0.6-0.3l9.2-9.2c0.2-0.2,0.3-0.4,0.3-0.6
	C31.3,12.9,31.2,12.6,31,12.5z M16.9,8c4.6,0.2,8.9,2,12.3,5.1L21.2,21c-1.5-1.2-3.3-1.8-5.2-1.8c-0.6,0-1.3,0.1-1.9,0.2L9.5,12
	c-0.3-0.4-0.8-0.5-1.2-0.3C7.8,12,7.7,12.5,8,13l4.7,7.4c-0.6,0.3-1.3,0.7-1.8,1.1l-8-8.3C6.2,10,10.5,8.2,15.1,8 M21.2,21"/>
<g display="none">
	<path display="inline" fill="#FFFFFF" stroke="#FFFFFF" stroke-width="0.25" stroke-miterlimit="10" d="M15.7,23.1
		c0.2,0,0.3-0.1,0.4-0.2c0.3-0.3,7.1-7.5,7.1-13.2c0-4.3-3.4-7.8-7.5-7.8c-4.1,0-7.5,3.5-7.5,7.8c0,5.7,6.8,12.9,7.1,13.2
		C15.4,23.1,15.6,23.1,15.7,23.1L15.7,23.1z M15.7,3.1c3.5,0,6.4,3,6.4,6.7c0,4.5-4.9,10.3-6.4,12c-1.5-1.6-6.4-7.5-6.4-12
		C9.3,6.1,12.2,3.1,15.7,3.1L15.7,3.1z M15.7,3.1"/>
	<path display="inline" fill="#FFFFFF" d="M19.3,10.1c0-2-1.6-3.6-3.6-3.6c-2,0-3.6,1.6-3.6,3.6c0,2,1.6,3.6,3.6,3.6
		C17.7,13.7,19.3,12.1,19.3,10.1L19.3,10.1z M13.2,10.1c0-1.4,1.1-2.5,2.5-2.5s2.5,1.1,2.5,2.5c0,1.4-1.1,2.5-2.5,2.5
		S13.2,11.5,13.2,10.1L13.2,10.1z M13.2,10.1"/>
	<path display="inline" fill="#FFFFFF" stroke="#FFFFFF" stroke-width="0.25" stroke-miterlimit="10" d="M29.8,27.9l-3.9-8.3
		c-0.1-0.2-0.3-0.3-0.5-0.3h-5c-0.3,0-0.5,0.2-0.6,0.5c0,0.3,0.2,0.6,0.5,0.6h4.7l3.4,7.2h-3.6c-0.2-1.3-1.1-2.3-2.8-2.8
		c-1.6-0.5-3.9-0.6-6.2-0.7c-0.9,0-1.8-0.1-2.7-0.1c-1.1-0.1-2.6-0.4-3.1-1.3c-0.4-0.8,0-1.8,0.2-2.3H11c0.3,0,0.5-0.2,0.6-0.5
		c0-0.3-0.2-0.6-0.5-0.6h-5c-0.2,0-0.4,0.1-0.5,0.4l-3.3,8.3c-0.1,0.3,0,0.6,0.3,0.7c0.1,0,0.1,0,0.2,0h26.6c0.3,0,0.6-0.2,0.6-0.6
		C29.9,28,29.8,28,29.8,27.9L29.8,27.9z M3.5,27.6l2.8-7.2H9c-0.3,0.7-0.5,1.8,0,2.8c0.6,1.1,1.9,1.8,4,1.9c0.9,0.1,1.8,0.1,2.7,0.1
		c2.3,0.1,4.5,0.2,6,0.7c1.2,0.4,1.9,0.9,2,1.7H3.5z M3.5,27.6"/>
</g>
<path display="none" fill="#FFFFFF" stroke="#FFFFFF" stroke-width="0.25" stroke-miterlimit="10" d="M29.6,12.1L16.3,5.5
	c-0.2-0.1-0.4-0.1-0.5,0L2.4,12.1c-0.2,0.1-0.3,0.3-0.3,0.5s0.1,0.4,0.3,0.5l4.3,2.1V19c0,0.6,0.3,1.2,0.7,1.5
	c2.4,2.1,5.5,3.3,8.7,3.3c3.2,0,6.3-1.2,8.7-3.3c0.4-0.4,0.7-1,0.7-1.5v-3.7l1.4-0.7v4.6c-0.6,0.2-1.1,0.9-1.1,1.6
	c0,0.7,0.4,1.2,0.9,1.5l-1,3.5c-0.1,0.2,0,0.4,0.1,0.5c0.1,0.1,0.3,0.2,0.5,0.2h2.4c0.2,0,0.4-0.1,0.5-0.2c0.1-0.1,0.1-0.3,0.1-0.5
	l-1-3.5c0.6-0.3,0.9-0.9,0.9-1.5c0-0.7-0.5-1.3-1.1-1.6V14l1.7-0.8c0.2-0.1,0.3-0.3,0.3-0.5S29.8,12.2,29.6,12.1L29.6,12.1z
	 M24.2,19c0,0.3-0.1,0.5-0.3,0.7c-2.2,1.9-5,3-7.9,3c-2.9,0-5.7-1.1-7.9-3c-0.2-0.2-0.3-0.4-0.3-0.7v-3.1l7.9,3.9
	c0.1,0,0.2,0.1,0.3,0.1c0.1,0,0.2,0,0.3-0.1l7.9-3.9V19z M27,25.4l0.4-1.4l0.4,1.4H27z M27.4,21.3c-0.3,0-0.5-0.2-0.5-0.5
	c0-0.3,0.2-0.5,0.5-0.5c0.3,0,0.5,0.2,0.5,0.5C27.9,21.1,27.6,21.3,27.4,21.3L27.4,21.3z M27.2,13.1l-11.2-1c-0.3,0-0.6,0.2-0.6,0.5
	c0,0.3,0.2,0.6,0.5,0.6l9.3,0.8L16,18.7l-12-6l12-6l12,6L27.2,13.1z M27.2,13.1"/>
<g display="none">
	<path display="inline" fill="#FFFFFF" stroke="#FFFFFF" stroke-width="0.25" stroke-miterlimit="10" d="M29.8,16
		c0,7.6-6.2,13.8-13.8,13.8S2.2,23.6,2.2,16S8.4,2.2,16,2.2S29.8,8.4,29.8,16z M16,3.3C9,3.3,3.3,9,3.3,16S9,28.7,16,28.7
		S28.7,23,28.7,16S23,3.3,16,3.3z"/>
	<path display="inline" fill="#FFFFFF" d="M20,12.3c0,0.4,0.3,0.7,0.7,0.7c0.4,0,0.7-0.3,0.7-0.7c0-1.2-0.6-2.3-1.6-3.1
		c-0.8-0.7-1.9-1.1-3.1-1.2V6.7C16.7,6.3,16.4,6,16,6c-0.4,0-0.7,0.3-0.7,0.7v1.2c-1.1,0.1-2.2,0.5-3.1,1.2c-1,0.8-1.6,1.9-1.6,3.1
		s0.6,2.3,1.6,3.1c0.8,0.7,1.9,1.1,3.1,1.2v6.2c-1.9-0.2-3.4-1.5-3.4-3c0-0.4-0.3-0.7-0.7-0.7c-0.4,0-0.7,0.3-0.7,0.7
		c0,1.2,0.6,2.3,1.6,3.1c0.8,0.7,1.9,1.1,3.1,1.2v1.2c0,0.4,0.3,0.7,0.7,0.7c0.4,0,0.7-0.3,0.7-0.7v-1.2c1.1-0.1,2.2-0.5,3.1-1.2
		c1-0.8,1.6-1.9,1.6-3.1c0-1.2-0.6-2.3-1.6-3.1c-0.8-0.7-1.9-1.1-3.1-1.2V9.2C18.6,9.5,20,10.7,20,12.3L20,12.3z M12,12.3
		c0-1.5,1.5-2.8,3.4-3v6.1C13.4,15.1,12,13.8,12,12.3L12,12.3z M20,19.7c0,1.5-1.5,2.8-3.4,3v-6.1C18.6,16.9,20,18.2,20,19.7
		L20,19.7z M20,19.7"/>
</g>
<g display="none">
	<g display="inline">
		<path fill="#FFFFFF" d="M14,22.5c1,0,1.7-0.3,2.2-0.8c0.5-0.6,0.8-1.2,0.8-1.9c0-0.7-0.2-1.2-0.6-1.6c-0.1-0.1-0.2-0.2-0.3-0.3
			c-0.2-0.1-0.2-0.2,0-0.3c0.1-0.1,0.2-0.2,0.3-0.3c0.3-0.4,0.5-0.8,0.5-1.3c0-0.7-0.3-1.3-0.8-1.7c-0.5-0.4-1.2-0.6-2-0.6
			c-0.4,0-0.8,0.1-1.1,0.2c-0.3,0.1-0.6,0.3-0.8,0.5c-0.3,0.3-0.5,0.6-0.7,0.9c-0.1,0.3-0.2,0.5-0.2,0.8c0,0.2,0.1,0.4,0.4,0.4h0.8
			c0.2,0,0.4-0.2,0.4-0.4c0-0.3,0.1-0.5,0.2-0.6c0.2-0.3,0.5-0.4,0.9-0.4c0.3,0,0.6,0.1,0.8,0.3c0.2,0.2,0.3,0.5,0.3,0.8
			c0,0.5-0.2,0.8-0.6,1c-0.2,0.1-0.4,0.1-0.8,0.1c-0.2,0-0.4,0.2-0.4,0.4v0.5c0,0.2,0.2,0.4,0.4,0.4c0.4,0,0.7,0.1,0.9,0.2
			c0.5,0.2,0.7,0.6,0.7,1.1c0,0.4-0.1,0.8-0.4,1c-0.2,0.2-0.5,0.3-0.9,0.3c-0.5,0-0.9-0.2-1.1-0.6c-0.1-0.1-0.1-0.3-0.1-0.5
			c0-0.2-0.2-0.4-0.4-0.4h-0.9c-0.2,0-0.4,0.2-0.4,0.4c0.1,0.5,0.2,0.9,0.4,1.3C11.9,22.1,12.8,22.5,14,22.5L14,22.5z M14,22.5"/>
		<path fill="#FFFFFF" d="M17.6,16.4h1.3c0.2,0,0.4,0.2,0.4,0.4V22c0,0.2,0.2,0.4,0.4,0.4h1c0.2,0,0.4-0.2,0.4-0.4v-7.9
			c0-0.2-0.2-0.4-0.4-0.4h-0.7c-0.2,0-0.4,0.1-0.4,0.2c0,0.1,0,0.1,0,0.2c-0.1,0.3-0.2,0.5-0.3,0.6c-0.2,0.2-0.5,0.4-0.8,0.5
			c-0.2,0-0.4,0.1-0.7,0.1c-0.2,0-0.4,0.2-0.4,0.4V16C17.2,16.3,17.3,16.4,17.6,16.4L17.6,16.4z M17.6,16.4"/>
	</g>
	<g display="inline">
		<path fill="none" d="M21.3,8.7h-0.1c-0.4,0-0.7-0.3-0.7-0.7V6.4h-9.1v1.7c0,0.4-0.3,0.7-0.7,0.7h-0.1c-0.4,0-0.7-0.3-0.7-0.7V6.4
			H8.2c-1.6,0-3,1.3-3,3v16.2c0,1.6,1.3,3,3,3h15.6c1.6,0,3-1.3,3-3V9.4c0-1.6-1.3-3-3-3H22v1.7C22,8.4,21.7,8.7,21.3,8.7z"/>
		<path fill="#FFFFFF" stroke="#FFFFFF" stroke-width="0.25" stroke-miterlimit="10" d="M23.5,5h-0.4c-0.4,0-0.7,0.3-0.7,0.7v0.1
			c0,0.4,0.3,0.7,0.7,0.7h0c2,0,3.6,1.6,3.6,3.6v14.9c0,2-1.6,3.6-3.6,3.6H8.9c-2,0-3.6-1.6-3.6-3.6V10c0-2,1.6-3.6,3.6-3.6h0
			c0.4,0,0.7-0.3,0.7-0.7V5.6C9.5,5.3,9.3,5,8.9,5H8.5C5.9,5,3.8,7.1,3.8,9.6v15.8c0,2.5,2.1,4.6,4.6,4.6h15.1
			c2.5,0,4.6-2.1,4.6-4.6V9.6C28.2,7.1,26.1,5,23.5,5z"/>
		<path fill="#FFFFFF" stroke="#FFFFFF" stroke-width="0.25" stroke-miterlimit="10" d="M19.5,5.7L19.5,5.7c0-0.4-0.3-0.7-0.6-0.7
			h-5.7c-0.3,0-0.6,0.3-0.6,0.7v0c0,0.4,0.3,0.7,0.6,0.7h5.7C19.2,6.4,19.5,6.1,19.5,5.7z"/>
		<path fill="#FFFFFF" stroke="#FFFFFF" stroke-width="0.25" stroke-miterlimit="10" d="M20.4,8.1c0,0.4,0.3,0.7,0.7,0.7h0.1
			c0.4,0,0.7-0.3,0.7-0.7V6.4V5V2.7c0-0.4-0.3-0.7-0.7-0.7H21c-0.4,0-0.7,0.3-0.7,0.7V5v1.4V8.1z"/>
		<path fill="#FFFFFF" stroke="#FFFFFF" stroke-width="0.25" stroke-miterlimit="10" d="M10.3,8.1c0,0.4,0.3,0.7,0.7,0.7h0.1
			c0.4,0,0.7-0.3,0.7-0.7V6.4V5V2.7c0-0.4-0.3-0.7-0.7-0.7H11c-0.4,0-0.7,0.3-0.7,0.7V5v1.4V8.1z"/>
	</g>
</g>
<g display="none">
	<path display="inline" fill="#FFFFFF" stroke="#FFFFFF" stroke-width="0.25" stroke-miterlimit="10" d="M16.3,26.3
		C16.2,26.3,16.2,26.2,16.3,26.3c-0.1-0.1-0.1-0.1-0.1-0.2c0,0,0,0-0.1-0.1c0,0-0.1,0-0.1,0c0,0-0.1,0-0.1,0c-0.1,0-0.1,0-0.2,0
		c0,0-0.1,0-0.1,0c0,0-0.1,0-0.1,0c0,0-0.1,0-0.1,0.1c0,0,0,0-0.1,0.1c0,0,0,0.1,0,0.1c0,0,0,0.1,0,0.1c0,0,0,0.1,0,0.1
		c0,0,0,0.1,0,0.1c0,0,0,0.1,0,0.1c0,0,0,0.1,0,0.1c0,0,0,0.1,0.1,0.1c0,0,0,0,0.1,0.1c0,0,0.1,0,0.1,0c0,0,0.1,0,0.1,0
		c0,0,0.1,0,0.1,0c0,0,0.1,0,0.1,0c0,0,0.1,0,0.1,0c0,0,0.1,0,0.1,0c0,0,0.1,0,0.1-0.1c0,0,0,0,0.1-0.1c0,0,0-0.1,0-0.1
		c0,0,0-0.1,0-0.1c0,0,0-0.1,0-0.1C16.3,26.5,16.3,26.4,16.3,26.3C16.3,26.4,16.3,26.3,16.3,26.3L16.3,26.3z M16.3,26.3"/>
	<g display="inline">
		<g>
			<path fill="#FFFFFF" stroke="#FFFFFF" stroke-width="0.5" stroke-miterlimit="10" d="M16,2.6C8.6,2.6,2.6,8.6,2.6,16
				c0,7.4,6,13.4,13.4,13.4c7.4,0,13.4-6,13.4-13.4C29.4,8.6,23.4,2.6,16,2.6L16,2.6z M23.7,6.3c0.7,0.5,1.3,1.1,1.8,1.8
				c-0.3-0.1-0.6,0-0.8,0c-0.5,0.1-0.9,0.4-1.1,0.9c-0.1,0.1-0.2,0.2-0.3,0.2c-0.2,0-0.3-0.1-0.3-0.3C22.9,7.9,23.4,6.9,23.7,6.3
				L23.7,6.3z M7.5,7c1.1-1,2.3-1.8,3.7-2.4c0.6,0.4,2.1,1.5,3.3,3.1c0.1,0.2,0.2,0.4,0.1,0.7c-0.1,0.2-0.2,0.4-0.4,0.5
				c-1.2,0.6-2.8,1.4-3.6,2.4c-0.2,0.2-0.5,0.3-0.7,0.3c-1-0.3-1.9,0.1-2.3,0.9c-0.6,1,0.2,2.1,1,3c0.1,0.1,0.2,0.2,0.2,0.3
				c-0.8-0.5-1.4-1-1.8-1.8C6.3,12.6,5.8,10.4,7.5,7L7.5,7z M3.6,16c0-2.4,0.7-4.7,1.9-6.6c-0.5,2.3-0.1,3.9,0.5,5
				c0.6,1.1,1.6,2,3,2.6c0.3,0.1,0.5,0.4,0.6,0.6c0,0,0,0.1,0,0.2c0.1,0.5,0.2,1.2,0.1,2c-0.2,1.3,0.4,2.6,1.5,3.3l1,0.7
				c-0.1,0.7-0.2,2.5,0.4,4C7.4,26.4,3.6,21.6,3.6,16L3.6,16z M28,18.1c0-0.5-0.3-1-0.7-1.4c-0.4-0.3-0.9-0.5-1.5-0.4l0,0
				c-0.4,0.1-0.8,0-1.1-0.3c-0.3-0.2-0.5-0.6-0.6-1c-0.1-0.4-0.1-0.9-0.1-1.3c0-0.3-0.2-0.5-0.5-0.5c-0.3,0-0.5,0.2-0.5,0.5
				c0,0.5,0,0.9,0.1,1.5c0.1,0.7,0.4,1.3,1,1.7c0.5,0.4,1.2,0.6,1.9,0.5l0.1,0c0.2,0,0.5,0,0.7,0.2c0.2,0.2,0.3,0.4,0.3,0.6
				c0,0.9,0.2,1.6,0.6,2.3c-1.8,4.7-6.3,8-11.6,8c-0.5,0-1,0-1.4-0.1c0.2-0.2,0.4-0.4,0.6-0.6c0.2-0.2,0.2-0.5,0-0.7
				c-0.2-0.2-0.5-0.2-0.7,0c-0.4,0.4-0.6,0.6-0.8,0.8c-0.7-1.6-0.4-4.1-0.4-4.1c0-0.2-0.1-0.4-0.2-0.5l-1.3-0.9
				c-0.8-0.5-1.2-1.5-1.1-2.4c0.1-0.7,0.1-1.4,0-2.1c0.9-0.2,1.8-0.4,2.4-0.4c0.4,0,0.9,0.1,1.2,0.4c0.7,0.7,1.9,1.5,3.4,2.4
				c0.4,0.3,0.8,0.7,0.8,1.2c0.1,0.5-0.1,1-0.4,1.4c-0.5,0.6-1,1.2-1.6,1.9c-0.2,0.2-0.2,0.5,0,0.7c0.1,0.1,0.2,0.1,0.3,0.1
				c0.1,0,0.3-0.1,0.4-0.2c0.6-0.7,1.2-1.4,1.7-1.9c0.5-0.6,0.7-1.5,0.6-2.3c-0.1-0.8-0.6-1.5-1.3-1.9c-1.4-0.9-2.5-1.7-3.2-2.3
				c-0.5-0.5-1.3-0.8-2-0.7c-0.6,0.1-1.5,0.2-2.4,0.4c-0.2-0.8-0.8-1.5-1.3-2.1c-0.7-0.8-1.1-1.4-0.9-1.8c0.2-0.3,0.4-0.6,1.2-0.4
				c0.7,0.2,1.3-0.1,1.8-0.6c0.5-0.6,1.7-1.4,3.2-2.1c0.5-0.2,0.9-0.7,1-1.2c0.1-0.5,0-1.1-0.3-1.5c-1-1.3-2.2-2.3-3-2.9
				c1.2-0.4,2.4-0.6,3.7-0.6c2.5,0,4.9,0.8,6.8,2.1c-0.3,0.6-0.9,1.9-0.9,3.3c0,0.7,0.5,1.2,1.2,1.3c0,0,0.1,0,0.1,0
				c0.5,0,1-0.3,1.2-0.7c0.2-0.3,0.4-0.4,0.5-0.4c0.2-0.1,0.7,0,1.7,0.6c-0.2,0-0.4,0-0.7,0c-0.4,0-0.8,0-1.1,0.3
				c-0.2,0.1-0.4,0.3-0.6,0.5c-0.2,0.2-0.2,0.5,0,0.7c0.1,0.1,0.2,0.1,0.3,0.1c0.1,0,0.3-0.1,0.4-0.2c0.1-0.1,0.3-0.3,0.4-0.4
				c0.1-0.1,0.2-0.1,0.4-0.1c0.6,0.1,1.1,0,1.4,0c0.8,1.6,1.2,3.4,1.2,5.3c0,0.9-0.1,1.8-0.3,2.7C28.1,18.5,28,18.3,28,18.1L28,18.1
				z M28,18.1"/>
		</g>
		<path fill="#FFFFFF" stroke="#FFFFFF" stroke-width="0.25" stroke-miterlimit="10" d="M18.4,5.1c-0.1-0.1-0.9-0.7-3.4-0.9
			c-0.4,0-0.5,0.2-0.6,0.3c-0.2,0.4,0,0.6,0.4,1C15.2,6,15.9,6.8,16,7.6C16,7.8,16.1,8,16.3,8c0,0,0.1,0,0.1,0
			c0.2,0,0.3-0.1,0.4-0.2l1.6-2C18.6,5.6,18.6,5.3,18.4,5.1L18.4,5.1z M16.7,6.5c-0.2-0.4-0.5-0.8-0.7-1.1c0.6,0.1,1,0.2,1.3,0.3
			L16.7,6.5z M16.7,6.5"/>
		<path fill="#FFFFFF" stroke="#FFFFFF" stroke-width="0.25" stroke-miterlimit="10" d="M24,12C24,12,24,12,24,12
			C23.9,12,23.9,12,23.9,12c-0.1,0-0.1,0-0.2,0c0,0-0.1,0-0.1,0c0,0-0.1,0-0.1,0c0,0-0.1,0-0.1,0.1c0,0,0,0-0.1,0.1c0,0,0,0.1,0,0.1
			c0,0,0,0.1,0,0.1c0,0,0,0.1,0,0.1c0,0,0,0.1,0,0.1c0,0,0,0.1,0,0.1c0,0,0,0.1,0,0.1c0,0,0,0.1,0.1,0.1c0.1,0.1,0.2,0.1,0.4,0.1
			c0,0,0.1,0,0.1,0c0,0,0.1,0,0.1,0c0,0,0.1,0,0.1,0c0,0,0.1,0,0.1-0.1c0,0,0,0,0.1-0.1c0,0,0-0.1,0-0.1c0,0,0-0.1,0-0.1
			c0,0,0-0.1,0-0.1C24.3,12.3,24.2,12.2,24,12C24.1,12.1,24.1,12.1,24,12L24,12z M24,12"/>
	</g>
</g>
<rect x="2" y="2" fill="none" width="27.9" height="28"/>
<g display="none">
	<path display="inline" fill="#FFFFFF" stroke="#FFFFFF" stroke-width="0.5" stroke-miterlimit="10" d="M10.2,10.1V8.2 M10.2,12.1
		v-1.9 M10.2,16V14h2.4c0.3,0,0.5-0.2,0.5-0.5c0-0.3-0.2-0.5-0.5-0.5h-2.4v-1 M10.2,17.9V16 M10.2,19.9v-1.9 M10.2,8.2V6.3h2.4
		c0.3,0,0.5-0.2,0.5-0.5c0-0.3-0.2-0.5-0.5-0.5h-2.4V3.8c0-0.8,0.7-1.5,1.5-1.5h6.8c0.8,0,1.5,0.7,1.5,1.5v24.3
		c0,0.8-0.7,1.5-1.5,1.5h-6.8c-0.8,0-1.5-0.7-1.5-1.5v-4.9c0-0.3-0.2-0.5-0.5-0.5c-0.3,0-0.5,0.2-0.5,0.5v4.9c0,1.3,1.1,2.4,2.4,2.4
		h6.8c1.3,0,2.4-1.1,2.4-2.4V3.8c0-1.3-1.1-2.4-2.4-2.4l0,0h-6.8c-1.3,0-2.4,1.1-2.4,2.4v17.5c0,0.3,0.2,0.5,0.5,0.5h2.9
		c0.3,0,0.5-0.2,0.5-0.5c0-0.3-0.2-0.5-0.5-0.5h-2.4v-1 M18.4,1.4"/>
	<path display="inline" fill="#FFFFFF" stroke="#FFFFFF" stroke-width="0.5" stroke-miterlimit="10" d="M5.3,5.9l0,22.2 M5.3,28.1
		c0,0.8-0.7,1.5-1.5,1.5c-0.8,0-1.5-0.7-1.5-1.5V5.9L3.9,3l1.4,2.9 M6.3,27.5V5.8c0-0.1,0-0.2-0.1-0.2L4.3,1.7
		c-0.2-0.3-0.7-0.3-0.9,0L1.5,5.6c0,0.1-0.1,0.1-0.1,0.2v22.3c0,1.3,1.1,2.4,2.4,2.4c1.3,0,2.4-1.1,2.4-2.4v-1 M4.3,1.7"/>
	<path display="inline" fill="#FFFFFF" stroke="#FFFFFF" stroke-width="0.5" stroke-miterlimit="10" d="M26.2,24.7
		c-0.3,0-0.5,0.2-0.5,0.5c0,0.3,0.2,0.5,0.5,0.5h3.9c0.3,0,0.5-0.2,0.5-0.5v-2.9c0-1.3-1.1-2.4-2.4-2.4h-1.9c-1.3,0-2.4,1.1-2.4,2.4
		v5.8c0,1.3,1.1,2.4,2.4,2.4h1.9c1.3,0,2.4-1.1,2.4-2.4v-1c0-0.3-0.2-0.5-0.5-0.5c-0.3,0-0.5,0.2-0.5,0.5v1c0,0.8-0.7,1.5-1.5,1.5
		h-1.9c-0.8,0-1.5-0.7-1.5-1.5v-5.8c0-0.8,0.7-1.5,1.5-1.5h1.9c0.8,0,1.5,0.7,1.5,1.5v2.4H26.2z M26.2,24.7"/>
</g>
<g display="none">
	<path display="inline" fill="#231F20" d="M1.1,16.4c0.1,0.1,0.2,0.3,0.4,0.3L5.3,18c0.1,0,0.1,0,0.2,0c0.3,0,0.5-0.2,0.6-0.4l3-8.8
		l0.2,0.1c0.8,0.3,1.7,0.2,2.4-0.1L12,8.5c0.4-0.2,1-0.3,1.4-0.1l7,2.4c-0.1,0.3-0.2,0.6-0.5,0.8c-0.3,0.2-0.7,0.2-1.3,0l-3.1-1.1
		c-0.2-0.1-0.3,0-0.5,0c-0.1,0.1-0.3,0.2-0.3,0.4c0,0-0.4,1.6-1.8,2.4c-0.9,0.5-1.9,0.5-3.2,0c-0.3-0.1-0.7,0.1-0.8,0.4
		c-0.1,0.3,0.1,0.7,0.4,0.8c0.7,0.3,1.4,0.4,2.1,0.4c0.8,0,1.5-0.2,2.1-0.5c1.2-0.7,1.9-1.8,2.2-2.5l2.6,0.9c1,0.3,1.8,0.3,2.4-0.2
		c1-0.7,1-2,1.1-2.1c0-0.3-0.2-0.5-0.4-0.6l-7.5-2.6C13,7,12.2,7.1,11.4,7.5l-0.4,0.2c-0.5,0.2-1,0.3-1.5,0.1L9,7.5
		c0,0-0.1,0-0.1-0.1L5,6.1C4.7,6,4.4,6.2,4.3,6.5L1,15.9C1,16,1,16.2,1.1,16.4L1.1,16.4z M5.2,7.5l2.7,0.9l-2.8,8.3l-2.7-0.9
		L5.2,7.5z M5.2,7.5"/>
	<path display="inline" fill="#231F20" d="M7.4,21.9c0.3,0.6,0.9,1,1.5,1c0,0.3,0.1,0.5,0.2,0.8c0.2,0.4,0.6,0.7,1,0.9
		c0.2,0.1,0.4,0.1,0.6,0.1c0.3,0,0.5-0.1,0.8-0.2l0.3-0.2c0,0.2,0.1,0.4,0.2,0.6c0.2,0.4,0.6,0.7,1,0.9c0.2,0.1,0.4,0.1,0.6,0.1
		c0.3,0,0.5-0.1,0.8-0.2l7-3.4c1.6-0.8,3-1.7,4.3-2.9l1.6-1.4l3.6-1.7c0.3-0.1,0.4-0.5,0.3-0.8l-4.3-8.9c-0.1-0.1-0.2-0.3-0.4-0.3
		c-0.2-0.1-0.3,0-0.5,0L22.2,8c-0.3,0.1-0.4,0.5-0.3,0.8l4.2,8.5l-1.3,1.2c-1.2,1.1-2.5,2-4,2.7l-7,3.4c-0.1,0.1-0.3,0.1-0.4,0
		c-0.1,0-0.3-0.2-0.3-0.3c-0.1-0.1-0.1-0.3,0-0.4c0-0.1,0.2-0.3,0.3-0.3l3.9-1.9c0.3-0.1,0.4-0.5,0.3-0.8c-0.1-0.3-0.5-0.4-0.8-0.3
		l-3.9,1.9L11,23.4c-0.1,0.1-0.3,0.1-0.4,0c-0.1,0-0.3-0.2-0.3-0.3c-0.1-0.1-0.1-0.3,0-0.4c0-0.1,0.2-0.3,0.3-0.3l5.6-2.7
		c0.3-0.1,0.4-0.5,0.3-0.8c-0.1-0.3-0.5-0.4-0.8-0.3l-6.3,3.1c-0.3,0.1-0.6,0-0.8-0.3c-0.1-0.1-0.1-0.3,0-0.4c0-0.1,0.2-0.3,0.3-0.3
		l2.5-1.2l3.2-1.6c0.3-0.1,0.4-0.5,0.3-0.8c-0.1-0.3-0.5-0.4-0.8-0.3l-5,2.5c-0.3,0.1-0.6,0-0.8-0.3c-0.1-0.3,0-0.6,0.3-0.8l2.7-1.3
		c0.3-0.1,0.4-0.5,0.3-0.8c-0.1-0.3-0.5-0.4-0.8-0.3l-2.7,1.3C7,17.5,6.6,18.6,7,19.5c0.1,0.3,0.3,0.5,0.5,0.6
		C7.2,20.6,7.1,21.3,7.4,21.9L7.4,21.9z M23.3,8.8l2.6-1.3l3.8,7.8l-2.6,1.3L23.3,8.8z M23.3,8.8"/>
</g>
<g display="none">
	<path display="inline" fill="#FFFFFF" d="M45,15.8c0.5-5.4-1.4-10.9-5.3-14.8c-0.2-0.2-0.7-0.2-0.9,0c-3.9,3.9-5.8,9.4-5.3,14.8
		c-1.4,1.5-2.1,3.4-2.1,5.4c0,2,0.8,4,2.2,5.4c0.3,0.4,1.2,0.2,1.1-0.6c-0.1-0.4-0.2-0.8-0.2-1.2c0-1,0.3-1.9,0.9-2.7
		c0.1,0,0.2,0.1,0.3,0.1h7.3c0.1,0,0.2,0,0.3-0.1c0.6,0.8,0.9,1.7,0.9,2.7c0,0.4-0.1,0.8-0.2,1.2c-0.1,0.9,0.8,0.9,1.1,0.6
		c1.4-1.5,2.2-3.4,2.2-5.4C47.1,19.2,46.4,17.3,45,15.8L45,15.8z M39.2,2.4C40.4,3.6,41.3,5,42,6.5h-5.6C37.1,5,38.1,3.6,39.2,2.4
		L39.2,2.4z M33.2,24c-0.4-0.9-0.6-1.8-0.6-2.8c0-1.3,0.4-2.6,1.1-3.6c0,0,0.7,2.6,0.9,3.3C33.8,21.7,33.4,22.8,33.2,24L33.2,24z
		 M42.4,20.9H36c-1.8-4.2-1.8-9-0.1-13.1h6.7C44.2,11.9,44.3,16.6,42.4,20.9L42.4,20.9z M43.8,20.9c0.4-0.9,0.9-3.2,0.9-3.3
		c0.7,1.1,1.1,2.3,1.1,3.6c0,1-0.2,1.9-0.6,2.8C45.1,22.8,44.6,21.7,43.8,20.9L43.8,20.9z M43.8,20.9"/>
	<path display="inline" fill="#FFFFFF" d="M36.6,23.2c-0.4,0-0.6,0.3-0.6,0.6v3.2c0,0.4,0.3,0.6,0.6,0.6c0.4,0,0.6-0.3,0.6-0.6v-3.2
		C37.3,23.5,37,23.2,36.6,23.2L36.6,23.2z M36.6,23.2"/>
	<path display="inline" fill="#FFFFFF" d="M39.2,23.2c-0.2,0-0.3,0.1-0.5,0.2l0,0c-0.1,0.1-0.1,0.2-0.2,0.3c0,0.1,0,0.1,0,0.2v6.4
		c0,0,0,0.1,0,0.1c0.1,0.3,0.3,0.5,0.6,0.5c0.3,0,0.6-0.2,0.6-0.5c0,0,0-0.1,0-0.1v-6.4c0-0.1,0-0.1,0-0.2
		C39.8,23.4,39.5,23.2,39.2,23.2L39.2,23.2z M39.2,23.2"/>
	<path display="inline" fill="#FFFFFF" d="M41.8,23.2c-0.4,0-0.6,0.3-0.6,0.6v3.2c0,0.4,0.3,0.6,0.6,0.6c0.4,0,0.6-0.3,0.6-0.6v-3.2
		C42.5,23.5,42.2,23.2,41.8,23.2L41.8,23.2z M41.8,23.2"/>
</g>
<g>
	<g>
		<defs>
			<rect id="SVGID_1_" x="2" y="2" width="27.9" height="27.9"/>
		</defs>
		<clipPath id="SVGID_2_">
			<use xlink:href="#SVGID_1_"  overflow="visible"/>
		</clipPath>
		<path clip-path="url(#SVGID_2_)" fill="#FFFFFF" d="M22.2,26.1c-0.3,0.3-0.3,0.7,0,0.9l1.4,1.4c0.3,0.3,0.7,0.3,0.9,0
			c0.1-0.1,0.2-0.3,0.2-0.5c0-0.2-0.1-0.3-0.2-0.5l-1.4-1.4C22.9,25.8,22.5,25.8,22.2,26.1L22.2,26.1z M22.2,26.1"/>
		<path clip-path="url(#SVGID_2_)" fill="#FFFFFF" d="M24.1,24.1c-0.3,0.3-0.3,0.7,0,0.9l4.6,4.6c0.3,0.3,0.7,0.3,0.9,0
			c0.1-0.1,0.2-0.3,0.2-0.5c0-0.2-0.1-0.3-0.2-0.5l-4.6-4.6C24.8,23.9,24.4,23.9,24.1,24.1L24.1,24.1z M24.1,24.1"/>
	</g>
	<path fill="#FFFFFF" d="M26.1,22.2c-0.3,0.3-0.3,0.7,0,0.9l2.3,2.3c0.3,0.3,0.7,0.3,0.9,0c0.1-0.1,0.2-0.3,0.2-0.5
		c0-0.2-0.1-0.3-0.2-0.5L27,22.2C26.8,21.9,26.4,21.9,26.1,22.2L26.1,22.2z M26.1,22.2"/>
	<g>
		<path fill="#FFFFFF" d="M9.6,9.6c-0.8,0.8-1.2,1.8-1.2,2.9c0,1.1,0.4,2.1,1.2,2.9c0.8,0.8,1.8,1.2,2.9,1.2s2.1-0.4,2.9-1.2
			c0.8-0.8,1.2-1.8,1.2-2.9c0-1.1-0.4-2.1-1.2-2.9C13.8,8,11.2,8,9.6,9.6L9.6,9.6z M14.5,10.5c0.5,0.5,0.8,1.2,0.8,2
			c0,0.7-0.3,1.4-0.8,2c-0.5,0.5-1.2,0.8-2,0.8c-0.7,0-1.4-0.3-2-0.8c-0.5-0.5-0.8-1.2-0.8-2c0-0.7,0.3-1.4,0.8-2
			C11.6,9.5,13.4,9.5,14.5,10.5L14.5,10.5z M14.5,10.5"/>
		<path fill="#FFFFFF" d="M3,2.5C2.7,2.5,2.6,2.7,2.5,3c-0.6,2.3-0.6,4.7,0,7c0.1,0.4,0.2,0.7,0.3,1.1c0,0,0,0.1,0,0.1
			C3.5,13,4.6,14.8,6,16.2c0,0,0,0,0,0c0,0,0,0,0,0c0,0,0,0,0,0c0,0,0,0,0,0l2.4,2c0,3.2,1.2,6.4,3.5,8.6c0.7,0.7,1.6,1.4,2.5,1.9
			c0.2,0.1,0.4,0.1,0.6,0c0.2-0.1,0.3-0.2,0.4-0.5l0.9-3.7l2,0.7c1,0.4,2.1,0.1,2.8-0.6l3.6-3.6c0.5-0.5,0.8-1.2,0.8-1.9
			c0-0.3-0.1-0.6-0.2-0.9l-0.7-2l3.7-0.9c0.2-0.1,0.4-0.2,0.5-0.4c0-0.1,0.1-0.2,0.1-0.3c0-0.1,0-0.2-0.1-0.3
			c-0.5-0.9-1.2-1.7-1.9-2.5c-2.3-2.3-5.4-3.6-8.6-3.5l-2-2.4c0,0,0,0,0,0c0,0,0,0,0,0c0,0,0,0,0,0c0,0,0,0,0,0
			c-1.4-1.4-3.2-2.5-5.1-3.2c0,0-0.1,0-0.1,0c-0.3-0.1-0.7-0.2-1.1-0.3C7.7,1.9,5.2,1.9,3,2.5L3,2.5z M14.4,27.2
			c-0.5-0.4-1-0.8-1.4-1.2c-1.7-1.7-2.8-4.1-3.1-6.5l5.3,4.6L14.4,27.2z M18.8,24.2l-1.7-0.6l0.9-0.9l2.1,1.3
			C19.7,24.3,19.3,24.3,18.8,24.2L18.8,24.2z M21.1,23L19,21.7l0.9-0.9l1.7,1.7L21.1,23z M22.5,21.6l-1.7-1.7l0.9-0.9l1.3,2.1
			L22.5,21.6z M24.2,18.8c0.2,0.4,0.1,0.9-0.2,1.3L22.7,18l0.9-0.9L24.2,18.8z M26,12.9c0.4,0.4,0.9,0.9,1.2,1.4l-3.1,0.8l-4.6-5.3
			C21.9,10.1,24.3,11.2,26,12.9L26,12.9z M15.3,7l7.7,8.9l-7,7l-6.3-5.4c0,0,0,0,0,0L7,15.3C5.8,14,4.8,12.6,4.2,11L11,4.2
			C12.6,4.8,14,5.8,15.3,7L15.3,7z M9.6,3.7L3.7,9.6c-0.5-1.9-0.5-4-0.1-5.9C5.6,3.2,7.7,3.3,9.6,3.7L9.6,3.7z M9.6,3.7"/>
	</g>
</g>
</svg>
