<?xml version="1.0" encoding="utf-8"?>
<!-- Generator: Adobe Illustrator 18.1.1, SVG Export Plug-In . SVG Version: 6.00 Build 0)  -->
<svg version="1.1" id="Layer_1" xmlns="http://www.w3.org/2000/svg" xmlns:xlink="http://www.w3.org/1999/xlink" x="0px" y="0px"
	 viewBox="0 0 32 32" enable-background="new 0 0 32 32" xml:space="preserve">
<rect opacity="0" fill="#49B3CC" width="32" height="32"/>
<g>
	<path fill="#FFFFFF" stroke="#FFFFFF" stroke-width="0.25" stroke-miterlimit="10" d="M24.2,5.4c-0.1,0-0.2,0-0.3-0.1
		c-2.7-1.4-5-2-7.8-2c-2.8,0-5.4,0.7-7.8,2c-0.3,0.2-0.8,0.1-1-0.3c-0.2-0.3-0.1-0.8,0.3-1C10.1,2.7,13,2,16,2c3,0,5.6,0.7,8.5,2.1
		c0.3,0.2,0.5,0.6,0.3,0.9C24.6,5.3,24.4,5.4,24.2,5.4z"/>
	<path fill="#FFFFFF" stroke="#FFFFFF" stroke-width="0.25" stroke-miterlimit="10" d="M4.1,12.8c-0.1,0-0.3,0-0.4-0.1
		c-0.3-0.2-0.4-0.7-0.2-1c1.4-2,3.2-3.5,5.3-4.6c4.4-2.3,10.1-2.3,14.5,0c2.1,1.1,3.9,2.6,5.3,4.6c0.2,0.3,0.2,0.8-0.2,1
		s-0.8,0.2-1-0.2c-1.3-1.8-2.9-3.2-4.8-4.1c-4-2.1-9.2-2.1-13.2,0c-1.9,1-3.5,2.4-4.8,4.2C4.5,12.7,4.3,12.8,4.1,12.8z"/>
	<path fill="#FFFFFF" stroke="#FFFFFF" stroke-width="0.25" stroke-miterlimit="10" d="M12.8,29.7c-0.2,0-0.4-0.1-0.5-0.2
		c-1.2-1.2-1.9-2-2.8-3.7c-1-1.7-1.5-3.8-1.5-6.1c0-4.2,3.6-7.6,7.9-7.6s7.9,3.4,7.9,7.6c0,0.4-0.3,0.7-0.7,0.7s-0.7-0.3-0.7-0.7
		c0-3.4-2.9-6.2-6.5-6.2c-3.6,0-6.5,2.8-6.5,6.2c0,2,0.4,3.9,1.3,5.4c0.9,1.6,1.5,2.3,2.6,3.4c0.3,0.3,0.3,0.7,0,1
		C13.2,29.7,13,29.7,12.8,29.7z"/>
	<path fill="#FFFFFF" stroke="#FFFFFF" stroke-width="0.25" stroke-miterlimit="10" d="M22.9,27.1c-1.7,0-3.1-0.4-4.3-1.2
		c-2.1-1.4-3.3-3.7-3.3-6.2c0-0.4,0.3-0.7,0.7-0.7c0.4,0,0.7,0.3,0.7,0.7c0,2,1,3.8,2.7,5c1,0.7,2.2,1,3.6,1c0.3,0,0.9,0,1.5-0.1
		c0.4-0.1,0.7,0.2,0.8,0.6S25,26.9,24.6,27C23.8,27.1,23.1,27.1,22.9,27.1z"/>
	<path fill="#FFFFFF" stroke="#FFFFFF" stroke-width="0.25" stroke-miterlimit="10" d="M20.1,30c-0.1,0-0.1,0-0.2,0
		c-2.2-0.6-3.7-1.4-5.2-2.9c-2-2-3-4.6-3-7.3c0-2.3,1.9-4.1,4.3-4.1s4.3,1.9,4.3,4.1c0,1.5,1.3,2.7,2.9,2.7c1.6,0,2.9-1.2,2.9-2.7
		c0-5.3-4.6-9.6-10.2-9.6c-4,0-7.6,2.2-9.3,5.7c-0.5,1.1-0.8,2.5-0.8,3.9c0,1.1,0.1,2.8,0.9,5.1c0.1,0.4,0,0.8-0.4,0.9
		c-0.4,0.1-0.8,0-0.9-0.4c-0.7-1.8-1-3.7-1-5.5c0-1.7,0.3-3.2,1-4.5c1.9-3.9,6-6.4,10.5-6.4c6.4,0,11.6,4.9,11.6,11
		c0,2.3-1.9,4.1-4.3,4.1s-4.3-1.9-4.3-4.1c0-1.5-1.3-2.7-2.9-2.7S13,18.2,13,19.7c0,2.4,0.9,4.6,2.6,6.3c1.3,1.3,2.6,2,4.6,2.6
		c0.4,0.1,0.6,0.5,0.5,0.9C20.7,29.8,20.4,30,20.1,30z"/>
</g>
</svg>
