<?xml version="1.0" encoding="utf-8"?>
<!-- Generator: Adobe Illustrator 17.0.0, SVG Export Plug-In . SVG Version: 6.00 Build 0)  -->
<!DOCTYPE svg PUBLIC "-//W3C//DTD SVG 1.1//EN" "http://www.w3.org/Graphics/SVG/1.1/DTD/svg11.dtd">
<svg version="1.1" id="Layer_1" xmlns="http://www.w3.org/2000/svg" xmlns:xlink="http://www.w3.org/1999/xlink" x="0px" y="0px"
	 width="30px" height="30px" viewBox="0 0 30 30" enable-background="new 0 0 30 30" xml:space="preserve">
<path fill="#FFFFFF" d="M2.522,5.652h9.362v9.362c0,2.59-0.918,4.793-2.753,6.609c-1.835,1.817-4.038,2.725-6.609,2.725v-3.102
	c1.733,0,3.205-0.61,4.416-1.831c1.211-1.22,1.817-2.688,1.817-4.402H2.522V5.652z M18.116,5.652h9.362v9.362
	c0,2.59-0.913,4.793-2.739,6.609c-1.826,1.817-4.034,2.725-6.623,2.725v-3.102c1.733,0,3.205-0.61,4.416-1.831
	c1.211-1.22,1.817-2.688,1.817-4.402h-6.232V5.652z"/>
</svg>
