<?xml version="1.0" encoding="utf-8"?>
<!-- Generator: Adobe Illustrator 18.1.1, SVG Export Plug-In . SVG Version: 6.00 Build 0)  -->
<svg version="1.0" id="Layer_1" xmlns="http://www.w3.org/2000/svg" xmlns:xlink="http://www.w3.org/1999/xlink" x="0px" y="0px"
	 width="15px" height="15px" viewBox="0 0 15 15" enable-background="new 0 0 15 15" xml:space="preserve">
<g>
	<g>
		<path fill="#168CA8" d="M14.7,13.9l-3.6-3.6c0.9-1.1,1.4-2.5,1.4-4c0-3.4-2.8-6.2-6.2-6.2c-3.5,0-6.2,2.8-6.2,6.2s2.8,6.2,6.2,6.2
			c1.5,0,2.9-0.5,4-1.4l3.6,3.6c0.2,0.2,0.6,0.2,0.9,0C15,14.5,15,14.1,14.7,13.9L14.7,13.9z M6.3,11.3c-2.8,0-5-2.2-5-5s2.2-5,5-5
			c2.8,0,5,2.2,5,5S9.1,11.3,6.3,11.3L6.3,11.3z M6.3,11.3"/>
	</g>
</g>
</svg>
