<?xml version="1.0" encoding="utf-8"?>
<!-- Generator: Adobe Illustrator 18.1.1, SVG Export Plug-In . SVG Version: 6.00 Build 0)  -->
<svg version="1.0" id="Layer_1" xmlns="http://www.w3.org/2000/svg" xmlns:xlink="http://www.w3.org/1999/xlink" x="0px" y="0px"
	 width="35px" height="35px" viewBox="0 0 35 35" enable-background="new 0 0 35 35" xml:space="preserve">
<g>
	<path d="M32.9,16.1h-1.7c-0.9,0-1.7,0.6-1.7,1.4c0,0.8,0.8,1.4,1.7,1.4h1.7c0.9,0,1.7-0.6,1.7-1.4C34.6,16.7,33.8,16.1,32.9,16.1
		L32.9,16.1z M17.5,8.1c-5.2,0-9.4,4.2-9.4,9.4c0,5.2,4.2,9.4,9.4,9.4c5.2,0,9.4-4.2,9.4-9.4C26.9,12.3,22.7,8.1,17.5,8.1L17.5,8.1z
		 M17.7,24.3c-4,0-7-3.1-7-6.8s3.1-6.8,7-6.8V24.3z M5.5,17.5c0-0.8-0.7-1.4-1.7-1.4H2.1c-0.9,0-1.7,0.6-1.7,1.4
		c0,0.8,0.8,1.4,1.7,1.4h1.7C4.8,18.9,5.5,18.3,5.5,17.5L5.5,17.5z M17.5,5.5c0.8,0,1.4-0.8,1.4-1.7V2.1c0-0.9-0.6-1.7-1.4-1.7
		c-0.8,0-1.4,0.8-1.4,1.7v1.7C16.1,4.8,16.7,5.5,17.5,5.5L17.5,5.5z M17.5,29.5c-0.8,0-1.4,0.8-1.4,1.7v1.7c0,0.9,0.6,1.7,1.4,1.7
		c0.8,0,1.4-0.8,1.4-1.7v-1.7C18.9,30.2,18.3,29.5,17.5,29.5L17.5,29.5z M30.1,6.8c0.7-0.7,0.8-1.6,0.2-2.2
		c-0.5-0.5-1.5-0.4-2.2,0.2L27,6.1c-0.7,0.7-0.8,1.6-0.2,2.2c0.5,0.5,1.5,0.4,2.2-0.2C29.1,7.9,29.9,7,30.1,6.8L30.1,6.8z M6.1,27
		c-0.2,0.2-1,1-1.2,1.2c-0.7,0.7-0.8,1.6-0.2,2.2c0.5,0.5,1.5,0.4,2.2-0.2c0.2-0.2,1-1,1.2-1.2c0.7-0.7,0.8-1.6,0.2-2.2
		C7.7,26.2,6.8,26.3,6.1,27L6.1,27z M6.8,4.9C6.2,4.2,5.2,4.1,4.7,4.7C4.1,5.2,4.2,6.2,4.9,6.8c0.2,0.2,1,1,1.2,1.2
		c0.7,0.7,1.6,0.8,2.2,0.2C8.8,7.7,8.7,6.8,8,6.1L6.8,4.9z M27,28.9c0.2,0.2,1,1,1.2,1.2c0.7,0.7,1.6,0.8,2.2,0.2
		c0.5-0.5,0.4-1.5-0.2-2.2c-0.2-0.2-1-1-1.2-1.2c-0.7-0.7-1.6-0.8-2.2-0.2C26.2,27.3,26.3,28.2,27,28.9L27,28.9z M27,28.9"/>
</g>
</svg>
