<?xml version="1.0" encoding="utf-8"?>
<!-- Generator: Adobe Illustrator 18.1.1, SVG Export Plug-In . SVG Version: 6.00 Build 0)  -->
<svg version="1.0" id="Layer_1" xmlns="http://www.w3.org/2000/svg" xmlns:xlink="http://www.w3.org/1999/xlink" x="0px" y="0px"
	 width="70px" height="35px" viewBox="0 0 70 35" enable-background="new 0 0 70 35" xml:space="preserve">
<rect x="0" display="none" opacity="0.23" width="35" height="35"/>
<rect x="35" display="none" opacity="0.23" width="35" height="35"/>
<g display="none">
	<path display="inline" fill="#434849" d="M33.3,16.1h-1.7c-0.9,0-1.7,0.6-1.7,1.4c0,0.8,0.8,1.4,1.7,1.4h1.7c0.9,0,1.7-0.6,1.7-1.4
		C35,16.7,34.2,16.1,33.3,16.1L33.3,16.1z M17.9,8.1c-5.2,0-9.4,4.2-9.4,9.4c0,5.2,4.2,9.4,9.4,9.4c5.2,0,9.4-4.2,9.4-9.4
		C27.3,12.3,23.1,8.1,17.9,8.1L17.9,8.1z M18.1,24.3c-4,0-7-3.1-7-6.8s3.1-6.8,7-6.8V24.3z M5.9,17.5c0-0.8-0.7-1.4-1.7-1.4H2.5
		c-0.9,0-1.7,0.6-1.7,1.4c0,0.8,0.8,1.4,1.7,1.4h1.7C5.2,18.9,5.9,18.3,5.9,17.5L5.9,17.5z M17.9,5.5c0.8,0,1.4-0.8,1.4-1.7V2.1
		c0-0.9-0.6-1.7-1.4-1.7c-0.8,0-1.4,0.8-1.4,1.7v1.7C16.5,4.8,17.1,5.5,17.9,5.5L17.9,5.5z M17.9,29.5c-0.8,0-1.4,0.8-1.4,1.7v1.7
		c0,0.9,0.6,1.7,1.4,1.7c0.8,0,1.4-0.8,1.4-1.7v-1.7C19.3,30.2,18.7,29.5,17.9,29.5L17.9,29.5z M30.5,6.8c0.7-0.7,0.8-1.6,0.2-2.2
		c-0.5-0.5-1.5-0.4-2.2,0.2l-1.2,1.2c-0.7,0.7-0.8,1.6-0.2,2.2c0.5,0.5,1.5,0.4,2.2-0.2C29.5,7.9,30.3,7,30.5,6.8L30.5,6.8z M6.5,27
		c-0.2,0.2-1,1-1.2,1.2c-0.7,0.7-0.8,1.6-0.2,2.2c0.5,0.5,1.5,0.4,2.2-0.2c0.2-0.2,1-1,1.2-1.2c0.7-0.7,0.8-1.6,0.2-2.2
		C8.1,26.2,7.2,26.3,6.5,27L6.5,27z M7.2,4.9C6.6,4.2,5.6,4.1,5.1,4.7C4.5,5.2,4.6,6.2,5.3,6.8c0.2,0.2,1,1,1.2,1.2
		c0.7,0.7,1.6,0.8,2.2,0.2c0.5-0.5,0.4-1.5-0.2-2.2L7.2,4.9z M27.4,28.9c0.2,0.2,1,1,1.2,1.2c0.7,0.7,1.6,0.8,2.2,0.2
		c0.5-0.5,0.4-1.5-0.2-2.2c-0.2-0.2-1-1-1.2-1.2c-0.7-0.7-1.6-0.8-2.2-0.2C26.6,27.3,26.7,28.2,27.4,28.9L27.4,28.9z M27.4,28.9"/>
	<path display="inline" fill="#434849" d="M67.9,16.1h-1.7c-0.9,0-1.7,0.6-1.7,1.4c0,0.8,0.8,1.4,1.7,1.4h1.7c0.9,0,1.7-0.6,1.7-1.4
		C69.6,16.7,68.8,16.1,67.9,16.1L67.9,16.1z M52.5,8.1c-5.2,0-9.4,4.2-9.4,9.4c0,5.2,4.2,9.4,9.4,9.4c5.2,0,9.4-4.2,9.4-9.4
		C61.9,12.3,57.7,8.1,52.5,8.1L52.5,8.1z M52.7,24.3c-4,0-7-3.1-7-6.8s3.1-6.8,7-6.8V24.3z M40.5,17.5c0-0.8-0.7-1.4-1.7-1.4h-1.7
		c-0.9,0-1.7,0.6-1.7,1.4c0,0.8,0.8,1.4,1.7,1.4h1.7C39.8,18.9,40.5,18.3,40.5,17.5L40.5,17.5z M52.5,5.5c0.8,0,1.4-0.8,1.4-1.7V2.1
		c0-0.9-0.6-1.7-1.4-1.7c-0.8,0-1.4,0.8-1.4,1.7v1.7C51.1,4.8,51.7,5.5,52.5,5.5L52.5,5.5z M52.5,29.5c-0.8,0-1.4,0.8-1.4,1.7v1.7
		c0,0.9,0.6,1.7,1.4,1.7c0.8,0,1.4-0.8,1.4-1.7v-1.7C53.9,30.2,53.3,29.5,52.5,29.5L52.5,29.5z M65.1,6.8c0.7-0.7,0.8-1.6,0.2-2.2
		s-1.5-0.4-2.2,0.2L62,6.1c-0.7,0.7-0.8,1.6-0.2,2.2c0.5,0.5,1.5,0.4,2.2-0.2C64.1,7.9,64.9,7,65.1,6.8L65.1,6.8z M41.1,27
		c-0.2,0.2-1,1-1.2,1.2c-0.7,0.7-0.8,1.6-0.2,2.2c0.5,0.5,1.5,0.4,2.2-0.2c0.2-0.2,1-1,1.2-1.2c0.7-0.7,0.8-1.6,0.2-2.2
		C42.7,26.2,41.8,26.3,41.1,27L41.1,27z M41.8,4.9c-0.7-0.7-1.6-0.8-2.2-0.2c-0.5,0.5-0.4,1.5,0.2,2.2c0.2,0.2,1,1,1.2,1.2
		c0.7,0.7,1.6,0.8,2.2,0.2c0.5-0.5,0.4-1.5-0.2-2.2L41.8,4.9z M62,28.9c0.2,0.2,1,1,1.2,1.2c0.7,0.7,1.6,0.8,2.2,0.2
		c0.5-0.5,0.4-1.5-0.2-2.2c-0.2-0.2-1-1-1.2-1.2c-0.7-0.7-1.6-0.8-2.2-0.2C61.2,27.3,61.3,28.2,62,28.9L62,28.9z M62,28.9"/>
</g>
<g display="none">
	<g display="inline">
		<path fill="#F26B55" d="M10.2,8.5c-0.5,0-1.1,0-1.6,0.1c0,0-0.2,0-0.2,0v17.8c0,0,0.1,0,0.2,0c0.5,0.1,1,0.1,1.5,0.1c5,0,9-4,9-9
			C19.2,12.5,15.2,8.5,10.2,8.5z"/>
		<path fill="#F26B55" d="M10,6.5c0.8,0,1.5-0.6,1.5-1.5V1.9c0-0.8-0.7-1.5-1.5-1.5S8.5,1.1,8.5,1.9v3.2C8.5,5.9,9.2,6.5,10,6.5z"/>
		<path fill="#F26B55" d="M10,28.5c-0.8,0-1.5,0.7-1.5,1.5v3.2c0,0.8,0.7,1.5,1.5,1.5s1.5-0.7,1.5-1.5v-3.2
			C11.5,29.1,10.8,28.5,10,28.5z"/>
		<path fill="#F26B55" d="M20,25.3c-0.6-0.6-1.5-0.6-2,0c-0.6,0.6-0.6,1.5,0,2l2,2c0.3,0.3,0.6,0.4,1,0.4c0.4,0,0.7-0.1,1-0.4
			c0.6-0.6,0.6-1.5,0-2L20,25.3z"/>
		<path fill="#F26B55" d="M25.8,16h-3.2c-0.8,0-1.4,0.7-1.4,1.5s0.6,1.5,1.4,1.5h3.2c0.8,0,1.5-0.7,1.5-1.5S26.6,16,25.8,16z"/>
		<path fill="#F26B55" d="M19,10.2c0.4,0,0.8-0.1,1-0.4l2-2c0.6-0.6,0.6-1.5,0-2c-0.6-0.6-1.5-0.6-2,0l-2,2c-0.6,0.6-0.6,1.5,0,2
			C18.3,10,18.6,10.2,19,10.2z"/>
	</g>
	<g display="inline">
		<path fill="#FFFFFF" d="M45.2,8.5c-0.5,0-1.1,0-1.6,0.1c0,0-0.2,0-0.2,0v17.8c0,0,0.1,0,0.2,0c0.5,0.1,1,0.1,1.5,0.1c5,0,9-4,9-9
			C54.2,12.5,50.2,8.5,45.2,8.5z"/>
		<path fill="#FFFFFF" d="M45,6.5c0.8,0,1.5-0.6,1.5-1.5V1.9c0-0.8-0.7-1.5-1.5-1.5s-1.5,0.6-1.5,1.5v3.2C43.5,5.9,44.2,6.5,45,6.5z
			"/>
		<path fill="#FFFFFF" d="M45,28.5c-0.8,0-1.5,0.7-1.5,1.5v3.2c0,0.8,0.7,1.5,1.5,1.5s1.5-0.7,1.5-1.5v-3.2
			C46.5,29.1,45.8,28.5,45,28.5z"/>
		<path fill="#FFFFFF" d="M55,25.3c-0.6-0.6-1.5-0.6-2,0c-0.6,0.6-0.6,1.5,0,2l2,2c0.3,0.3,0.6,0.4,1,0.4c0.4,0,0.7-0.1,1-0.4
			c0.6-0.6,0.6-1.5,0-2L55,25.3z"/>
		<path fill="#FFFFFF" d="M60.8,16h-3.2c-0.8,0-1.4,0.7-1.4,1.5s0.6,1.5,1.4,1.5h3.2c0.8,0,1.5-0.7,1.5-1.5S61.6,16,60.8,16z"/>
		<path fill="#FFFFFF" d="M54,10.2c0.4,0,0.8-0.1,1-0.4l2-2c0.6-0.6,0.6-1.5,0-2c-0.6-0.6-1.5-0.6-2,0l-2,2c-0.6,0.6-0.6,1.5,0,2
			C53.3,10,53.6,10.2,54,10.2z"/>
	</g>
</g>
<g>
	<path fill="#434849" d="M26.8,10.1V8.2c-0.4-0.1-0.8-0.1-1.2-0.1c-5.2,0-9.4,4.2-9.4,9.4c0,5.2,4.2,9.4,9.4,9.4
		c0.4,0,0.8,0,1.2-0.1v-1.9c-4.7,0-8.3-3.3-8.3-7.4S22.2,10.1,26.8,10.1z"/>
	<path fill="#434849" d="M12,16.1h-1.7c-0.9,0-1.7,0.6-1.7,1.4s0.8,1.4,1.7,1.4H12c0.9,0,1.7-0.6,1.7-1.4S12.9,16.1,12,16.1z"/>
	<path fill="#434849" d="M26.8,1.4c-0.2-0.6-0.7-0.9-1.2-0.9c-0.8,0-1.4,0.8-1.4,1.7v1.7c0,0.9,0.6,1.7,1.4,1.7c0.5,0,1-0.4,1.2-0.9
		C26.9,4.4,27,4.1,27,3.8V2.1C27,1.9,26.9,1.6,26.8,1.4z"/>
	<path fill="#434849" d="M26.8,30.4c-0.2-0.6-0.7-0.9-1.2-0.9c-0.8,0-1.4,0.8-1.4,1.7v1.7c0,0.9,0.6,1.7,1.4,1.7
		c0.5,0,1-0.4,1.2-0.9c0.1-0.2,0.1-0.5,0.1-0.8v-1.7C27,30.9,26.9,30.6,26.8,30.4z"/>
	<path fill="#434849" d="M16.4,26.7c-0.5-0.5-1.5-0.4-2.2,0.2c-0.2,0.2-1,1-1.2,1.2c-0.7,0.7-0.8,1.7-0.2,2.2
		c0.5,0.5,1.5,0.4,2.2-0.2c0.2-0.2,1-1,1.2-1.2C16.9,28.2,17,27.2,16.4,26.7z"/>
	<path fill="#434849" d="M16.2,6.1L15,4.9c-0.7-0.7-1.7-0.8-2.2-0.2c-0.5,0.5-0.4,1.5,0.2,2.2c0.2,0.2,1,1,1.2,1.2
		c0.7,0.7,1.7,0.8,2.2,0.2C17,7.8,16.9,6.8,16.2,6.1z"/>
</g>
<g>
	<path fill="#434849" d="M61.6,10.1V8.2c-0.4-0.1-0.8-0.1-1.2-0.1c-5.2,0-9.4,4.2-9.4,9.4c0,5.2,4.2,9.4,9.4,9.4
		c0.4,0,0.8,0,1.2-0.1v-1.9c-4.7,0-8.3-3.3-8.3-7.4S56.9,10.1,61.6,10.1z"/>
	<path fill="#434849" d="M46.7,16.1H45c-0.9,0-1.7,0.6-1.7,1.4s0.8,1.4,1.7,1.4h1.7c0.9,0,1.7-0.6,1.7-1.4S47.7,16.1,46.7,16.1z"/>
	<path fill="#434849" d="M61.6,1.4c-0.2-0.6-0.7-0.9-1.2-0.9c-0.8,0-1.4,0.8-1.4,1.7v1.7c0,0.9,0.6,1.7,1.4,1.7c0.5,0,1-0.4,1.2-0.9
		c0.1-0.2,0.1-0.5,0.1-0.8V2.1C61.7,1.9,61.7,1.6,61.6,1.4z"/>
	<path fill="#434849" d="M61.6,30.4c-0.2-0.6-0.7-0.9-1.2-0.9c-0.8,0-1.4,0.8-1.4,1.7v1.7c0,0.9,0.6,1.7,1.4,1.7
		c0.5,0,1-0.4,1.2-0.9c0.1-0.2,0.1-0.5,0.1-0.8v-1.7C61.7,30.9,61.7,30.6,61.6,30.4z"/>
	<path fill="#434849" d="M51.1,26.7c-0.5-0.5-1.5-0.4-2.2,0.2c-0.2,0.2-1,1-1.2,1.2c-0.7,0.7-0.8,1.7-0.2,2.2
		c0.5,0.5,1.5,0.4,2.2-0.2c0.2-0.2,1-1,1.2-1.2C51.6,28.2,51.7,27.2,51.1,26.7z"/>
	<path fill="#434849" d="M50.9,6.1l-1.2-1.2c-0.7-0.7-1.7-0.8-2.2-0.2c-0.5,0.5-0.4,1.5,0.2,2.2c0.2,0.2,1,1,1.2,1.2
		c0.7,0.7,1.7,0.8,2.2,0.2C51.7,7.8,51.6,6.8,50.9,6.1z"/>
</g>
</svg>
