<?xml version="1.0" encoding="utf-8"?>
<!-- Generator: Adobe Illustrator 16.0.0, SVG Export Plug-In . SVG Version: 6.00 Build 0)  -->
<!DOCTYPE svg PUBLIC "-//W3C//DTD SVG 1.1//EN" "http://www.w3.org/Graphics/SVG/1.1/DTD/svg11.dtd">
<svg version="1.1" id="Layer_1" xmlns="http://www.w3.org/2000/svg" xmlns:xlink="http://www.w3.org/1999/xlink" x="0px" y="0px"
	 width="30px" height="60px" viewBox="0 -15 30 60" enable-background="new 0 -15 30 60" xml:space="preserve">
<g display="none">
	<path display="inline" fill="#231F20" d="M8.258,1.191L22.479,15L8.258,28.809l-0.736-0.758L20.959,15L7.522,1.949L8.258,1.191z"/>
</g>
<g>
	<path d="M14.999,12.461c-7.295,0-13.23-5.935-13.23-13.23C1.769-8.065,7.704-14,14.999-14C22.295-14,28.23-8.065,28.23-0.769
		C28.23,6.526,22.295,12.461,14.999,12.461L14.999,12.461z M14.999-13.103C8.2-13.103,2.665-7.572,2.665-0.769
		c0,6.799,5.535,12.334,12.334,12.334c6.798,0,12.333-5.535,12.333-12.334C27.332-7.572,21.797-13.103,14.999-13.103L14.999-13.103z
		"/>
	<path d="M13.338,3.875c-0.114,0-0.231-0.044-0.319-0.132c-0.176-0.176-0.176-0.458,0-0.635l4.065-4.067l-4.065-4.072
		c-0.173-0.175-0.173-0.458,0-0.633c0.175-0.176,0.461-0.176,0.636,0l4.38,4.387c0.176,0.175,0.176,0.458,0,0.634l-4.38,4.387
		C13.568,3.831,13.451,3.875,13.338,3.875L13.338,3.875z"/>
</g>
<g>
	<path fill="#959595" d="M14.999,42.378c-7.295,0-13.23-5.934-13.23-13.229s5.935-13.231,13.23-13.231
		c7.296,0,13.231,5.936,13.231,13.231S22.295,42.378,14.999,42.378L14.999,42.378z M14.999,16.814
		c-6.799,0-12.334,5.53-12.334,12.334c0,6.8,5.535,12.335,12.334,12.335c6.798,0,12.333-5.535,12.333-12.335
		C27.332,22.345,21.797,16.814,14.999,16.814L14.999,16.814z"/>
	<path fill="#959595" d="M13.338,33.792c-0.114,0-0.231-0.043-0.319-0.131c-0.176-0.176-0.176-0.459,0-0.635l4.065-4.068
		l-4.065-4.072c-0.173-0.174-0.173-0.457,0-0.633c0.175-0.176,0.461-0.176,0.636,0l4.38,4.388c0.176,0.175,0.176,0.458,0,0.634
		l-4.38,4.387C13.568,33.749,13.451,33.792,13.338,33.792L13.338,33.792z"/>
</g>
</svg>
