<?xml version="1.0" encoding="utf-8"?>
<!-- Generator: Adobe Illustrator 16.0.0, SVG Export Plug-In . SVG Version: 6.00 Build 0)  -->
<!DOCTYPE svg PUBLIC "-//W3C//DTD SVG 1.1//EN" "http://www.w3.org/Graphics/SVG/1.1/DTD/svg11.dtd">
<svg version="1.1" id="Layer_1" xmlns="http://www.w3.org/2000/svg" xmlns:xlink="http://www.w3.org/1999/xlink" x="0px" y="0px"
	 width="30px" height="60px" viewBox="0 -15 30 60" enable-background="new 0 -15 30 60" xml:space="preserve">
<g display="none">
	<path display="inline" fill="#231F20" d="M8.258,1.191L22.479,15L8.258,28.809l-0.736-0.758L20.959,15L7.522,1.949L8.258,1.191z"/>
</g>
<g>
	<path d="M15-14c7.295,0,13.23,5.935,13.23,13.23c0,7.296-5.936,13.231-13.23,13.231c-7.296,0-13.231-5.935-13.231-13.231
		C1.769-8.065,7.705-14,15-14L15-14z M15,11.564c6.798,0,12.333-5.531,12.334-12.334c0-6.799-5.535-12.334-12.334-12.334
		c-6.798,0-12.333,5.535-12.333,12.334C2.667,6.033,8.203,11.564,15,11.564L15,11.564z"/>
	<path d="M16.662-5.414c0.113,0,0.23,0.044,0.318,0.132c0.176,0.176,0.176,0.458,0,0.635L12.916-0.58l4.065,4.072
		c0.173,0.175,0.173,0.458,0,0.633c-0.175,0.176-0.461,0.176-0.636,0l-4.38-4.387c-0.176-0.175-0.176-0.458,0-0.634l4.38-4.387
		C16.432-5.37,16.549-5.414,16.662-5.414L16.662-5.414z"/>
</g>
<g>
	<path fill="#959595" d="M15,15.917c7.294,0,13.23,5.934,13.23,13.229S22.295,42.378,15,42.378c-7.296,0-13.231-5.936-13.231-13.231
		S7.705,15.917,15,15.917L15,15.917z M15,41.48c6.798,0,12.333-5.53,12.333-12.334c0-6.8-5.535-12.335-12.333-12.335
		c-6.798,0-12.333,5.535-12.333,12.335C2.667,35.95,8.203,41.48,15,41.48L15,41.48z"/>
	<path fill="#959595" d="M16.662,24.503c0.113,0,0.23,0.043,0.318,0.131c0.176,0.176,0.176,0.459,0,0.635l-4.065,4.068l4.065,4.072
		c0.173,0.174,0.173,0.457,0,0.633c-0.175,0.176-0.461,0.176-0.637,0l-4.379-4.388c-0.176-0.175-0.176-0.458,0-0.634l4.379-4.387
		C16.432,24.546,16.549,24.503,16.662,24.503L16.662,24.503z"/>
</g>
</svg>
