<?xml version="1.0" encoding="utf-8"?>
<!-- Generator: Adobe Illustrator 17.0.0, SVG Export Plug-In . SVG Version: 6.00 Build 0)  -->
<!DOCTYPE svg PUBLIC "-//W3C//DTD SVG 1.1//EN" "http://www.w3.org/Graphics/SVG/1.1/DTD/svg11.dtd">
<svg version="1.1" id="Layer_1" xmlns="http://www.w3.org/2000/svg" xmlns:xlink="http://www.w3.org/1999/xlink" x="0px" y="0px"
	 width="25px" height="25px" viewBox="0 0 25 25" enable-background="new 0 0 25 25" xml:space="preserve">
<g>
	<path fill="#B18C53" d="M21.866,3.577h-3.004V2.194c0-0.383-0.311-0.694-0.694-0.694c-0.382,0-0.694,0.311-0.694,0.694v1.383
		h-4.153V2.194c0-0.383-0.312-0.694-0.694-0.694c-0.383,0-0.694,0.311-0.694,0.694v1.383H7.778V2.194
		c0-0.383-0.311-0.694-0.694-0.694c-0.382,0-0.689,0.311-0.689,0.694v1.383H3.391c-1.018,0-1.847,0.829-1.847,1.847v16.395
		c0,1.022,0.829,1.85,1.847,1.85h18.475c1.018,0,1.847-0.829,1.847-1.85V5.424C23.713,4.406,22.884,3.577,21.866,3.577L21.866,3.577
		z M22.326,21.819c0,0.257-0.206,0.463-0.46,0.463H3.391c-0.254,0-0.46-0.206-0.46-0.463V5.424c0-0.254,0.206-0.46,0.46-0.46h3.004
		v1.387c0,0.382,0.307,0.689,0.689,0.689c0.383,0,0.694-0.307,0.694-0.689V4.964h4.157v1.387c0,0.382,0.311,0.689,0.694,0.689
		c0.382,0,0.694-0.307,0.694-0.689V4.964h4.153v1.387c0,0.382,0.312,0.689,0.694,0.689c0.383,0,0.694-0.307,0.694-0.689V4.964h3.004
		c0.254,0,0.46,0.206,0.46,0.46V21.819z M22.326,21.819"/>
	<rect x="6.395" y="9.815" fill="#B18C53" width="2.77" height="2.076"/>
	<rect x="6.395" y="13.279" fill="#B18C53" width="2.77" height="2.076"/>
	<rect x="6.395" y="16.742" fill="#B18C53" width="2.77" height="2.076"/>
	<rect x="11.241" y="16.742" fill="#B18C53" width="2.77" height="2.076"/>
	<rect x="11.241" y="13.279" fill="#B18C53" width="2.77" height="2.076"/>
	<rect x="11.241" y="9.815" fill="#B18C53" width="2.77" height="2.076"/>
	<rect x="16.092" y="16.742" fill="#B18C53" width="2.77" height="2.076"/>
	<rect x="16.092" y="13.279" fill="#B18C53" width="2.77" height="2.076"/>
	<rect x="16.092" y="9.815" fill="#B18C53" width="2.77" height="2.076"/>
</g>
</svg>
