<?xml version="1.0" encoding="utf-8"?>
<!-- Generator: Adobe Illustrator 17.0.0, SVG Export Plug-In . SVG Version: 6.00 Build 0)  -->
<!DOCTYPE svg PUBLIC "-//W3C//DTD SVG 1.1//EN" "http://www.w3.org/Graphics/SVG/1.1/DTD/svg11.dtd">
<svg version="1.1" id="Layer_1" xmlns="http://www.w3.org/2000/svg" xmlns:xlink="http://www.w3.org/1999/xlink" x="0px" y="0px"
	 width="25px" height="25px" viewBox="0 0 25 25" enable-background="new 0 0 25 25" xml:space="preserve">
<g display="none">
	<g display="inline">
		<path fill="#BD8347" d="M9.938,14.588c1.773,1.759,3.825,3.442,4.63,2.63c1.155-1.163,1.866-2.174,4.425-0.132
			s0.605,3.417-0.513,4.544c-1.289,1.299-6.119,0.091-10.906-4.66C2.787,12.217,1.542,7.397,2.833,6.098
			C3.95,4.971,5.31,3.007,7.37,5.552c2.063,2.544,1.057,3.262-0.096,4.423C6.467,10.787,8.164,12.828,9.938,14.588L9.938,14.588z
			 M12.508,6.189c0,0-0.534-0.084-0.909,0.291c-0.385,0.386-0.402,1.05,0.005,1.457c0.24,0.238,0.58,0.291,0.58,0.291
			c0.66,0.123,1.653,0.333,2.713,1.39c1.057,1.058,1.267,2.053,1.39,2.713c0,0,0.05,0.338,0.291,0.58
			c0.407,0.407,1.071,0.39,1.455,0.005c0.375-0.375,0.293-0.91,0.293-0.91c-0.21-1.336-0.859-2.734-1.972-3.846
			C15.242,7.048,13.845,6.401,12.508,6.189L12.508,6.189z M17.527,6.989c1.939,1.939,2.767,4.142,2.498,5.926
			c0,0-0.094,0.564,0.276,0.933c0.415,0.417,1.072,0.392,1.462,0.003c0.25-0.25,0.306-0.657,0.306-0.657
			c0.222-1.541-0.059-4.643-3.081-7.667c-3.023-3.022-6.126-3.302-7.666-3.08c0,0-0.407,0.054-0.657,0.306
			c-0.39,0.388-0.413,1.045,0.002,1.462C11.035,4.584,11.6,4.491,11.6,4.491C13.384,4.222,15.587,5.05,17.527,6.989L17.527,6.989z"
			/>
	</g>
</g>
<g>
	<path fill="#BD8347" d="M16.077,9.664c0,1.977-1.602,3.579-3.577,3.579c-1.977,0-3.579-1.602-3.579-3.579
		c0-1.975,1.602-3.577,3.579-3.577C14.476,6.087,16.077,7.689,16.077,9.664L16.077,9.664z"/>
	<path fill="#BD8347" d="M12.501,23.007c0,0,7.916-8.97,7.916-13.341c0-4.373-3.544-7.918-7.916-7.918
		c-4.373,0-7.918,3.544-7.918,7.918C4.583,14.037,12.501,23.007,12.501,23.007L12.501,23.007z M12.501,4.198
		c3.018,0,5.465,2.447,5.465,5.465s-2.448,5.468-5.465,5.468c-3.019,0-5.468-2.448-5.468-5.468
		C7.033,6.645,9.481,4.198,12.501,4.198L12.501,4.198z"/>
</g>
<g display="none">
	<g display="inline">
		<defs>
			<rect id="SVGID_1_" x="0.655" y="7.023" width="22.514" height="11.874"/>
		</defs>
		<clipPath id="SVGID_2_">
			<use xlink:href="#SVGID_1_"  overflow="visible"/>
		</clipPath>
		<path clip-path="url(#SVGID_2_)" fill="#BD8347" d="M22.527,7.023H9.978c-0.397,0-0.785,0.378-0.866,0.844L7.328,18.053
			c-0.081,0.466,0.174,0.844,0.571,0.844h12.549c0.397,0,0.785-0.378,0.866-0.844l1.784-10.186
			C23.179,7.401,22.924,7.023,22.527,7.023L22.527,7.023z M21.026,10.432l-5.569,3.153c-0.24,0.136-0.514,0.136-0.706,0
			l-4.465-3.153c-0.324-0.229-0.368-0.762-0.098-1.189c0.181-0.286,0.465-0.464,0.742-0.464c0.122,0,0.238,0.036,0.334,0.104
			l4.15,2.932l5.177-2.932c0.12-0.068,0.248-0.104,0.371-0.104c0.277,0,0.498,0.178,0.579,0.464
			C21.66,9.67,21.429,10.203,21.026,10.432L21.026,10.432z M21.026,10.432"/>
	</g>
	<path display="inline" fill="#BD8347" d="M2.624,9.247h5.407c0.286,0,0.518-0.272,0.518-0.608c0-0.336-0.232-0.608-0.518-0.608
		H2.624c-0.286,0-0.518,0.272-0.518,0.608C2.106,8.975,2.338,9.247,2.624,9.247L2.624,9.247z M2.624,9.247"/>
	<path display="inline" fill="#BD8347" d="M6.581,13.565H1.174c-0.286,0-0.518,0.272-0.518,0.608c0,0.336,0.232,0.608,0.518,0.608
		h5.407c0.286,0,0.518-0.272,0.518-0.608C7.098,13.838,6.866,13.565,6.581,13.565L6.581,13.565z M6.581,13.565"/>
	<path display="inline" fill="#BD8347" d="M7.823,11.371c0-0.336-0.232-0.608-0.518-0.608H4.074c-0.286,0-0.518,0.272-0.518,0.608
		c0,0.336,0.232,0.608,0.518,0.608h3.232C7.592,11.979,7.823,11.707,7.823,11.371L7.823,11.371z M7.823,11.371"/>
	<path display="inline" fill="#BD8347" d="M5.855,16.297H4.128c-0.286,0-0.518,0.272-0.518,0.608c0,0.336,0.232,0.608,0.518,0.608
		h1.727c0.286,0,0.518-0.273,0.518-0.608C6.373,16.569,6.141,16.297,5.855,16.297L5.855,16.297z M5.855,16.297"/>
</g>
</svg>
