<?xml version="1.0" encoding="utf-8"?>
<!-- Generator: Adobe Illustrator 17.0.0, SVG Export Plug-In . SVG Version: 6.00 Build 0)  -->
<!DOCTYPE svg PUBLIC "-//W3C//DTD SVG 1.1//EN" "http://www.w3.org/Graphics/SVG/1.1/DTD/svg11.dtd">
<svg version="1.1" id="Layer_1" xmlns="http://www.w3.org/2000/svg" xmlns:xlink="http://www.w3.org/1999/xlink" x="0px" y="0px"
	 width="25px" height="25px" viewBox="0 0 25 25" enable-background="new 0 0 25 25" xml:space="preserve">
<g display="none">
	<g display="inline">
		<path fill="#BD8347" d="M9.938,14.588c1.773,1.759,3.825,3.442,4.63,2.63c1.155-1.163,1.866-2.174,4.425-0.132
			s0.605,3.417-0.513,4.544c-1.289,1.299-6.119,0.091-10.906-4.66C2.787,12.217,1.542,7.397,2.833,6.098
			C3.95,4.971,5.31,3.007,7.37,5.552c2.063,2.544,1.057,3.262-0.096,4.423C6.467,10.787,8.164,12.828,9.938,14.588L9.938,14.588z
			 M12.508,6.189c0,0-0.534-0.084-0.909,0.291c-0.385,0.386-0.402,1.05,0.005,1.457c0.24,0.238,0.58,0.291,0.58,0.291
			c0.66,0.123,1.653,0.333,2.713,1.39c1.057,1.058,1.267,2.053,1.39,2.713c0,0,0.05,0.338,0.291,0.58
			c0.407,0.407,1.071,0.39,1.455,0.005c0.375-0.375,0.293-0.91,0.293-0.91c-0.21-1.336-0.859-2.734-1.972-3.846
			C15.242,7.048,13.845,6.401,12.508,6.189L12.508,6.189z M17.527,6.989c1.939,1.939,2.767,4.142,2.498,5.926
			c0,0-0.094,0.564,0.276,0.933c0.415,0.417,1.072,0.392,1.462,0.003c0.25-0.25,0.306-0.657,0.306-0.657
			c0.222-1.541-0.059-4.643-3.081-7.667c-3.023-3.022-6.126-3.302-7.666-3.08c0,0-0.407,0.054-0.657,0.306
			c-0.39,0.388-0.413,1.045,0.002,1.462C11.035,4.584,11.6,4.491,11.6,4.491C13.384,4.222,15.587,5.05,17.527,6.989L17.527,6.989z"
			/>
	</g>
</g>
<g display="none">
	<path display="inline" fill="#BD8347" d="M16.077,9.664c0,1.977-1.602,3.579-3.577,3.579c-1.977,0-3.579-1.602-3.579-3.579
		c0-1.975,1.602-3.577,3.579-3.577C14.476,6.087,16.077,7.689,16.077,9.664L16.077,9.664z"/>
	<path display="inline" fill="#BD8347" d="M12.501,23.007c0,0,7.916-8.97,7.916-13.341c0-4.373-3.544-7.918-7.916-7.918
		c-4.373,0-7.918,3.544-7.918,7.918C4.583,14.037,12.501,23.007,12.501,23.007L12.501,23.007z M12.501,4.198
		c3.018,0,5.465,2.447,5.465,5.465s-2.448,5.468-5.465,5.468c-3.019,0-5.468-2.448-5.468-5.468
		C7.033,6.645,9.481,4.198,12.501,4.198L12.501,4.198z"/>
</g>
<g>
	<g>
		<defs>
			<rect id="SVGID_1_" x="0.54" y="6.666" width="23.92" height="12.615"/>
		</defs>
		<clipPath id="SVGID_2_">
			<use xlink:href="#SVGID_1_"  overflow="visible"/>
		</clipPath>
		<path clip-path="url(#SVGID_2_)" fill="#BD8347" d="M23.778,6.666H10.445c-0.422,0-0.834,0.401-0.92,0.896L7.629,18.385
			c-0.086,0.495,0.185,0.896,0.607,0.896h13.333c0.422,0,0.834-0.401,0.92-0.896l1.895-10.822
			C24.471,7.068,24.199,6.666,23.778,6.666L23.778,6.666z M22.182,10.288l-5.917,3.35c-0.255,0.145-0.546,0.145-0.75,0l-4.744-3.35
			c-0.344-0.243-0.391-0.81-0.104-1.263c0.192-0.304,0.494-0.493,0.788-0.493c0.13,0,0.253,0.038,0.355,0.111l4.409,3.115
			l5.501-3.115c0.128-0.072,0.264-0.111,0.394-0.111c0.294,0,0.53,0.189,0.615,0.493C22.857,9.478,22.612,10.045,22.182,10.288
			L22.182,10.288z M22.182,10.288"/>
	</g>
	<path fill="#BD8347" d="M2.632,9.03h5.744c0.304,0,0.551-0.289,0.551-0.646c0-0.357-0.246-0.646-0.551-0.646H2.632
		c-0.304,0-0.551,0.289-0.551,0.646C2.081,8.74,2.328,9.03,2.632,9.03L2.632,9.03z M2.632,9.03"/>
	<path fill="#BD8347" d="M6.835,13.617H1.091c-0.304,0-0.551,0.289-0.551,0.646c0,0.357,0.246,0.646,0.551,0.646h5.745
		c0.304,0,0.55-0.289,0.55-0.646C7.385,13.907,7.139,13.617,6.835,13.617L6.835,13.617z M6.835,13.617"/>
	<path fill="#BD8347" d="M8.156,11.286c0-0.357-0.246-0.646-0.55-0.646H4.172c-0.304,0-0.55,0.289-0.55,0.646
		c0,0.357,0.246,0.646,0.55,0.646h3.433C7.91,11.932,8.156,11.643,8.156,11.286L8.156,11.286z M8.156,11.286"/>
	<path fill="#BD8347" d="M6.065,16.52H4.23c-0.304,0-0.55,0.289-0.55,0.646c0,0.357,0.246,0.646,0.55,0.646h1.835
		c0.304,0,0.551-0.29,0.551-0.646C6.615,16.809,6.369,16.52,6.065,16.52L6.065,16.52z M6.065,16.52"/>
</g>
</svg>
