<?xml version="1.0" encoding="utf-8"?>
<!-- Generator: Adobe Illustrator 18.1.1, SVG Export Plug-In . SVG Version: 6.00 Build 0)  -->
<svg version="1.0" id="Layer_1" xmlns="http://www.w3.org/2000/svg" xmlns:xlink="http://www.w3.org/1999/xlink" x="0px" y="0px"
	 width="20px" height="40px" viewBox="0 0 20 40" enable-background="new 0 0 20 40" xml:space="preserve">
<g>
	<g>
		<path fill="#FFFFFF" d="M18.4,17.3l-4.1-4.1c1-1.2,1.6-2.8,1.6-4.6c0-4-3.2-7.2-7.2-7.2c-4,0-7.2,3.2-7.2,7.2s3.2,7.2,7.2,7.2
			c1.7,0,3.3-0.6,4.6-1.6l4.1,4.1c0.3,0.3,0.7,0.3,1,0C18.7,18,18.7,17.5,18.4,17.3L18.4,17.3z M8.7,14.3c-3.2,0-5.8-2.6-5.8-5.8
			s2.6-5.8,5.8-5.8c3.2,0,5.8,2.6,5.8,5.8S11.8,14.3,8.7,14.3L8.7,14.3z M8.7,14.3"/>
	</g>
</g>
<g>
	<g>
		<path fill="#323232" d="M18.4,37.4l-4.1-4.1c1-1.2,1.6-2.8,1.6-4.6c0-4-3.2-7.2-7.2-7.2c-4,0-7.2,3.2-7.2,7.2s3.2,7.2,7.2,7.2
			c1.7,0,3.3-0.6,4.6-1.6l4.1,4.1c0.3,0.3,0.7,0.3,1,0C18.7,38.1,18.7,37.6,18.4,37.4L18.4,37.4z M8.7,34.4c-3.2,0-5.8-2.6-5.8-5.8
			s2.6-5.8,5.8-5.8c3.2,0,5.8,2.6,5.8,5.8S11.8,34.4,8.7,34.4L8.7,34.4z M8.7,34.4"/>
	</g>
</g>
</svg>
