<?xml version="1.0" encoding="utf-8"?>
<!-- Generator: Adobe Illustrator 18.1.1, SVG Export Plug-In . SVG Version: 6.00 Build 0)  -->
<svg version="1.0" id="Layer_1" xmlns="http://www.w3.org/2000/svg" xmlns:xlink="http://www.w3.org/1999/xlink" x="0px" y="0px"
	 width="25px" height="50px" viewBox="0 0 25 50" enable-background="new 0 0 25 50" xml:space="preserve">
<g>
	<g>
		<path fill="#323232" d="M22.9,47l-5.1-5.1c1.3-1.5,2-3.5,2-5.7c0-5-4-9-9-9c-5,0-9,4-9,9s4,9,9,9c2.2,0,4.1-0.8,5.7-2l5.1,5.1
			c0.3,0.3,0.9,0.3,1.3,0C23.3,47.9,23.3,47.3,22.9,47L22.9,47z M10.8,43.4c-4,0-7.2-3.2-7.2-7.2S6.8,29,10.8,29
			c4,0,7.2,3.2,7.2,7.2S14.8,43.4,10.8,43.4L10.8,43.4z M10.8,43.4"/>
	</g>
</g>
<g>
	<g>
		<path fill="#FFFFFF" d="M22.9,21.3l-5.1-5.1c1.3-1.5,2-3.5,2-5.7c0-5-4-9-9-9c-5,0-9,4-9,9s4,9,9,9c2.2,0,4.1-0.8,5.7-2l5.1,5.1
			c0.3,0.3,0.9,0.3,1.3,0C23.3,22.2,23.3,21.7,22.9,21.3L22.9,21.3z M10.8,17.7c-4,0-7.2-3.2-7.2-7.2s3.2-7.2,7.2-7.2
			c4,0,7.2,3.2,7.2,7.2S14.8,17.7,10.8,17.7L10.8,17.7z M10.8,17.7"/>
	</g>
</g>
</svg>
