<?xml version="1.0" encoding="utf-8"?>
<!-- Generator: Adobe Illustrator 16.0.0, SVG Export Plug-In . SVG Version: 6.00 Build 0)  -->
<!DOCTYPE svg PUBLIC "-//W3C//DTD SVG 1.1//EN" "http://www.w3.org/Graphics/SVG/1.1/DTD/svg11.dtd">
<svg version="1.1" id="Layer_1" xmlns="http://www.w3.org/2000/svg" xmlns:xlink="http://www.w3.org/1999/xlink" x="0px" y="0px"
	 width="48px" height="48px" viewBox="0 0 48 48" enable-background="new 0 0 48 48" xml:space="preserve">
<g display="none">
	<path display="inline" fill="#BFA430" d="M24.148,31.124l-4.955-4.341L5.046,38.907c0.515,0.488,1.2,0.781,1.969,0.781h34.25
		c0.768,0,1.451-0.293,1.968-0.781L29.084,26.783L24.148,31.124z M24.148,31.124"/>
	<path display="inline" fill="#BFA430" d="M43.233,11.896c-0.503-0.488-1.2-0.781-1.968-0.781H7.016
		c-0.755,0-1.455,0.293-1.969,0.781l19.102,16.366L43.233,11.896z M43.233,11.896"/>
	<path display="inline" fill="#BFA430" d="M4.14,13.626V37.36l13.813-11.737L4.14,13.626z M4.14,13.626"/>
	<path display="inline" fill="#BFA430" d="M30.327,25.623L44.14,37.36V13.612L30.327,25.623z M30.327,25.623"/>
</g>
<g>
	<g>
		<path fill="#BFA430" d="M41.175,21.765l-7.767,7.764c-4.287,4.289-11.241,4.289-15.528,0c-0.675-0.673-1.203-1.432-1.667-2.215
			l3.609-3.608c0.171-0.173,0.383-0.272,0.585-0.389c0.249,0.853,0.685,1.66,1.355,2.33c2.141,2.142,5.625,2.139,7.764,0
			l7.764-7.764c2.143-2.142,2.143-5.625,0-7.765c-2.14-2.141-5.622-2.141-7.764,0l-2.761,2.764c-2.24-0.873-4.655-1.107-7.004-0.763
			l5.883-5.883c4.289-4.288,11.241-4.288,15.53,0C45.461,10.524,45.461,17.477,41.175,21.765L41.175,21.765z M20.643,34.531
			l-2.763,2.765c-2.14,2.139-5.625,2.139-7.765,0c-2.141-2.143-2.141-5.625,0-7.767l7.765-7.764c2.143-2.142,5.624-2.142,7.764,0
			c0.669,0.669,1.104,1.476,1.356,2.327c0.204-0.118,0.413-0.214,0.584-0.386l3.609-3.607c-0.462-0.786-0.992-1.542-1.668-2.216
			c-4.287-4.288-11.241-4.288-15.529,0l-7.764,7.764c-4.288,4.289-4.288,11.24,0,15.53c4.288,4.286,11.241,4.286,15.529,0
			l5.885-5.885C25.296,35.639,22.881,35.403,20.643,34.531L20.643,34.531z M20.643,34.531"/>
	</g>
</g>
</svg>
