<?xml version="1.0" encoding="utf-8"?>
<!-- Generator: Adobe Illustrator 16.0.0, SVG Export Plug-In . SVG Version: 6.00 Build 0)  -->
<!DOCTYPE svg PUBLIC "-//W3C//DTD SVG 1.1//EN" "http://www.w3.org/Graphics/SVG/1.1/DTD/svg11.dtd">
<svg version="1.1" id="Layer_1" xmlns="http://www.w3.org/2000/svg" xmlns:xlink="http://www.w3.org/1999/xlink" x="0px" y="0px"
	 width="255px" height="84px" viewBox="0 0 255 84" enable-background="new 0 0 255 84" xml:space="preserve">
<path fill="#17479E" d="M251.849,48.689c0-0.241-55.213-0.434-123.321-0.434c-68.113,0-123.329,0.192-123.329,0.434
	c0,0.243,55.216,0.436,123.329,0.436C196.636,49.125,251.849,48.933,251.849,48.689z"/>
<rect x="97.395" y="45.316" fill="#FFFFFF" width="62.263" height="9.416"/>
<g>
	<polygon fill="#BFA500" points="156.275,50.055 101.313,50.055 128.537,35.854 	"/>
	<polygon fill="#E0C000" points="156.275,50.055 173.988,13.314 128.537,35.854 	"/>
	<polygon fill="#BFA500" points="101.313,50.055 83.103,13.314 128.551,35.854 	"/>
	<polygon fill="#E0C000" points="128.637,35.854 112.08,27.624 128.637,5.777 145.161,27.535 	"/>
	<polygon fill="#BFA500" points="128.637,35.854 128.637,5.777 145.161,27.535 	"/>
</g>
<g>
	<path fill="#17479E" d="M8.464,66.238c0.777-0.752,4.187-4.337,5.716-5.917c1.504-1.554,1.604-1.805,1.604-2.105
		c0-0.2-0.125-0.401-0.326-0.477c-0.176-0.075-0.226-0.125-0.226-0.226s0.15-0.15,0.376-0.15c0.727,0,0.652,0.075,1.504,0.075
		c0.777,0,2.256-0.075,2.658-0.075c0.351,0,0.426,0.075,0.426,0.176c0,0.1-0.05,0.15-0.276,0.175
		c-0.477,0.051-0.928,0.151-1.279,0.302c-0.626,0.25-1.103,0.551-2.607,2.005c-2.206,2.131-5.064,4.964-5.716,5.691
		c1.58,1.729,6.142,6.367,7.32,7.471c2.056,1.931,2.934,2.482,4.137,2.708c0.226,0.05,0.477,0.075,0.727,0.075
		c0.201,0,0.351,0.05,0.351,0.175c0,0.126-0.1,0.176-0.376,0.176h-1.855c-2.181,0-2.757-0.275-3.936-1.203
		c-1.504-1.179-6.017-6.017-8.223-8.649v2.582c0,2.407,0,4.388,0.125,5.44c0.075,0.727,0.226,1.278,0.978,1.379
		c0.351,0.05,0.853,0.101,1.003,0.101c0.226,0,0.301,0.1,0.301,0.175c0,0.126-0.101,0.176-0.376,0.176
		c-1.379,0-2.958-0.075-3.084-0.075c-0.125,0-1.604,0.075-2.356,0.075c-0.276,0-0.401-0.025-0.401-0.176
		c0-0.075,0.05-0.175,0.276-0.175c0.15,0,0.426-0.025,0.652-0.075c0.501-0.101,0.652-0.678,0.752-1.404
		c0.125-1.053,0.125-3.033,0.125-5.44v-4.412c0-3.911,0-4.613-0.05-5.415c-0.05-0.853-0.301-1.278-0.852-1.404
		c-0.276-0.075-0.727-0.101-0.903-0.101c-0.2,0-0.275-0.05-0.275-0.15c0-0.15,0.125-0.2,0.401-0.2c0.828,0,2.507,0.075,2.632,0.075
		c0.125,0,1.705-0.075,2.457-0.075c0.276,0,0.401,0.05,0.401,0.176c0,0.1-0.05,0.15-0.275,0.175
		c-0.276,0.025-0.301,0.025-0.552,0.051c-0.677,0.075-0.877,0.576-0.928,1.454c-0.05,0.802-0.05,1.504-0.05,5.415V66.238z"/>
	<path fill="#17479E" d="M25.836,64.634c0-3.911,0-4.613-0.05-5.415c-0.05-0.853-0.301-1.278-0.853-1.404
		c-0.276-0.075-0.602-0.101-0.777-0.101c-0.1,0-0.201-0.05-0.201-0.15c0-0.15,0.125-0.2,0.401-0.2c0.827,0,2.407,0.075,2.532,0.075
		c0.125,0,1.705-0.075,2.457-0.075c0.276,0,0.401,0.05,0.401,0.2c0,0.101-0.101,0.15-0.201,0.15c-0.175,0-0.326,0.025-0.627,0.075
		c-0.677,0.126-0.877,0.552-0.927,1.43c-0.05,0.802-0.05,1.504-0.05,5.415v4.412c0,2.407,0,4.388,0.125,5.44
		c0.075,0.727,0.226,1.278,0.978,1.379c0.351,0.05,0.877,0.101,1.028,0.101c0.226,0,0.301,0.075,0.301,0.15
		c0,0.125-0.1,0.2-0.376,0.2c-1.379,0-2.983-0.075-3.108-0.075c-0.125,0-1.705,0.075-2.457,0.075c-0.276,0-0.401-0.05-0.401-0.2
		c0-0.075,0.05-0.15,0.276-0.15c0.15,0,0.426-0.025,0.652-0.075c0.501-0.101,0.652-0.678,0.752-1.404
		c0.125-1.053,0.125-3.033,0.125-5.44V64.634z"/>
	<path fill="#17479E" d="M36.039,68.921c0-9.051,0.05-5.791,0.025-10.655c0-0.978,0.075-1.253,0.276-1.253s0.627,0.551,0.877,0.802
		c0.376,0.427,4.111,4.463,7.972,8.6c2.482,2.657,5.215,5.716,6.017,6.543L50.93,60.222c-0.025-1.63-0.201-2.182-0.978-2.382
		c-0.452-0.101-0.853-0.126-1.078-0.126c-0.276,0-0.351-0.075-0.351-0.175c0-0.15,0.201-0.176,0.501-0.176
		c1.128,0,2.332,0.075,2.607,0.075c0.275,0,1.103-0.075,2.131-0.075c0.276,0,0.451,0.025,0.451,0.176c0,0.1-0.1,0.15-0.276,0.175
		c-0.2,0.025-0.351,0.051-0.652,0.101c-0.702,0.15-0.877,0.526-0.877,2.257l-0.05,14.641c0,1.654-0.05,1.78-0.226,1.78
		c-0.201,0-0.501-0.276-1.831-1.604c-0.275-0.251-3.886-3.937-6.543-6.794c-2.908-3.134-5.741-6.293-6.543-7.195l0.326,12.009
		c0.05,2.056,0.301,2.707,0.978,2.908c0.476,0.125,1.028,0.15,1.253,0.15c0.125,0,0.201,0.05,0.201,0.15c0,0.15-0.15,0.2-0.451,0.2
		c-1.429,0-2.432-0.075-2.658-0.075s-1.278,0.075-2.407,0.075c-0.25,0-0.401-0.025-0.401-0.2c0-0.101,0.075-0.15,0.2-0.15
		c0.201,0,0.652-0.025,1.028-0.15c0.626-0.176,0.752-0.903,0.752-3.185V68.921z"/>
	<path fill="#17479E" d="M74.62,74.186c0,1.128-0.025,1.178-0.326,1.354c-1.604,0.853-3.861,1.128-5.315,1.128
		c-1.905,0-5.465-0.25-8.248-2.682c-1.529-1.329-2.983-4.012-2.983-7.146c0-4.011,1.956-6.844,4.187-8.248
		c2.256-1.404,4.738-1.579,6.669-1.579c1.58,0,3.359,0.325,3.835,0.426c0.527,0.125,1.404,0.226,2.031,0.251
		c0.251,0.024,0.301,0.125,0.301,0.226c0,0.351-0.175,1.053-0.175,3.56c0,0.401-0.05,0.526-0.226,0.526
		c-0.125,0-0.15-0.15-0.176-0.376c-0.025-0.351-0.15-1.053-0.526-1.654c-0.626-0.953-2.657-2.03-5.892-2.03
		c-1.579,0-3.459,0.15-5.365,1.654c-1.454,1.153-2.482,3.435-2.482,6.368c0,3.534,1.78,6.092,2.657,6.944
		c1.98,1.93,4.262,2.683,6.568,2.683c0.903,0,2.207-0.15,2.858-0.527c0.326-0.175,0.501-0.451,0.501-0.877v-4.262
		c0-2.031-0.125-2.307-1.128-2.583c-0.201-0.05-0.627-0.075-0.853-0.075c-0.1,0-0.2-0.05-0.2-0.15c0-0.15,0.125-0.2,0.401-0.2
		c1.128,0,2.708,0.075,2.833,0.075s1.705-0.075,2.457-0.075c0.275,0,0.401,0.05,0.401,0.2c0,0.101-0.1,0.15-0.201,0.15
		c-0.175,0-0.326,0.025-0.626,0.075c-0.677,0.126-0.877,0.552-0.928,1.43c-0.05,0.802-0.05,1.554-0.05,2.607V74.186z"/>
	<path fill="#17479E" d="M80.409,75.99c-0.351-0.175-0.376-0.275-0.376-0.952c0-1.254,0.1-2.257,0.125-2.657
		c0.025-0.276,0.075-0.401,0.201-0.401c0.15,0,0.175,0.075,0.175,0.275c0,0.226,0,0.577,0.075,0.928
		c0.376,1.855,2.031,2.558,3.71,2.558c2.407,0,3.585-1.73,3.585-3.335c0-1.729-0.727-2.732-2.883-4.513l-1.128-0.928
		c-2.657-2.181-3.259-3.735-3.259-5.439c0-2.683,2.006-4.513,5.189-4.513c0.978,0,1.705,0.1,2.332,0.25
		c0.477,0.101,0.677,0.126,0.877,0.126c0.201,0,0.251,0.05,0.251,0.175c0,0.126-0.101,0.953-0.101,2.658
		c0,0.4-0.05,0.576-0.175,0.576c-0.15,0-0.175-0.125-0.201-0.326c-0.025-0.301-0.175-0.978-0.326-1.253
		c-0.15-0.276-0.827-1.329-3.134-1.329c-1.73,0-3.083,1.078-3.083,2.908c0,1.429,0.652,2.332,3.059,4.212l0.702,0.552
		c2.958,2.331,3.66,3.886,3.66,5.892c0,1.027-0.401,2.933-2.131,4.161c-1.078,0.752-2.432,1.053-3.786,1.053
		C82.59,76.667,81.437,76.492,80.409,75.99z"/>
	<path fill="#17479E" d="M101.392,69.046c0,2.407,0,4.388,0.125,5.44c0.075,0.727,0.226,1.278,0.978,1.379
		c0.351,0.05,0.902,0.101,1.128,0.101c0.15,0,0.201,0.075,0.201,0.15c0,0.125-0.125,0.2-0.401,0.2c-1.379,0-2.958-0.075-3.083-0.075
		s-1.705,0.075-2.457,0.075c-0.275,0-0.401-0.05-0.401-0.2c0-0.075,0.05-0.15,0.201-0.15c0.226,0,0.526-0.051,0.752-0.101
		c0.501-0.101,0.626-0.652,0.727-1.379c0.125-1.053,0.125-3.033,0.125-5.44V58.441c-1.229,0.025-2.482,0.025-3.71,0.05
		c-1.555,0.025-2.156,0.201-2.557,0.803c-0.276,0.426-0.351,0.602-0.426,0.777c-0.075,0.2-0.15,0.25-0.251,0.25
		c-0.075,0-0.125-0.075-0.125-0.226c0-0.25,0.501-2.406,0.551-2.607c0.05-0.15,0.15-0.476,0.251-0.476
		c0.175,0,0.426,0.25,1.103,0.301c0.727,0.075,1.68,0.125,1.98,0.125h9.401c0.802,0,1.379-0.05,1.78-0.125
		c0.376-0.051,0.602-0.126,0.702-0.126c0.125,0,0.125,0.15,0.125,0.301c0,0.753-0.076,2.482-0.076,2.758
		c0,0.226-0.075,0.326-0.175,0.326c-0.125,0-0.175-0.075-0.201-0.426c0-0.101-0.025-0.176-0.025-0.276
		c-0.075-0.752-0.677-1.328-3.083-1.379c-1.053-0.024-2.106-0.024-3.159-0.05V69.046z"/>
	<path fill="#17479E" d="M113.399,68.921c-0.125,0-0.201,0.075-0.25,0.2l-1.504,4.438c-0.226,0.627-0.351,1.229-0.351,1.68
		c0,0.502,0.477,0.728,0.902,0.728c0.076,0,0.151,0,0.226,0c0.25,0,0.326,0.05,0.326,0.15c0,0.15-0.226,0.2-0.451,0.2
		c-0.602,0-1.604-0.075-1.88-0.075s-1.655,0.075-2.833,0.075c-0.326,0-0.476-0.05-0.476-0.2c0-0.101,0.125-0.15,0.351-0.15
		c0.175,0,0.401-0.025,0.602-0.051c1.153-0.15,1.654-1.103,2.106-2.356l5.691-15.568c0.301-0.827,0.401-0.978,0.551-0.978
		s0.251,0.125,0.552,0.902c0.376,0.952,4.312,11.307,5.841,15.117c0.902,2.231,1.629,2.633,2.156,2.783
		c0.376,0.125,0.777,0.15,0.978,0.15c0.15,0,0.276,0.024,0.276,0.15c0,0.15-0.226,0.2-0.501,0.2c-0.376,0-2.206,0-3.936-0.05
		c-0.477-0.025-0.752-0.025-0.752-0.176c0-0.101,0.075-0.15,0.175-0.176c0.15-0.05,0.301-0.275,0.15-0.677l-2.332-6.167
		c-0.05-0.101-0.1-0.15-0.226-0.15H113.399z M118.463,68.019c0.125,0,0.125-0.075,0.101-0.176l-2.382-6.769
		c-0.125-0.377-0.25-0.377-0.376,0l-2.206,6.769c-0.05,0.125,0,0.176,0.075,0.176H118.463z"/>
	<path fill="#17479E" d="M129.794,64.634c0-3.911,0-4.613-0.051-5.415c-0.05-0.853-0.25-1.254-1.077-1.43
		c-0.201-0.05-0.627-0.075-0.853-0.075c-0.1,0-0.201-0.05-0.201-0.15c0-0.15,0.125-0.2,0.401-0.2c1.128,0,2.707,0.075,2.833,0.075
		c0.275,0,2.181-0.075,2.958-0.075c1.579,0,3.259,0.15,4.588,1.104c0.627,0.451,1.729,1.68,1.729,3.409
		c0,1.855-0.776,3.71-3.033,5.791c2.056,2.633,3.761,4.864,5.215,6.418c1.354,1.43,2.432,1.705,3.059,1.806
		c0.477,0.075,0.827,0.075,0.978,0.075c0.125,0,0.226,0.075,0.226,0.15c0,0.15-0.15,0.2-0.602,0.2h-1.78
		c-1.403,0-2.03-0.125-2.683-0.477c-1.078-0.576-1.955-1.805-3.384-3.686c-1.054-1.378-2.231-3.058-2.733-3.71
		c-0.1-0.101-0.175-0.15-0.325-0.15l-3.084-0.05c-0.125,0-0.176,0.075-0.176,0.2v0.602c0,2.407,0,4.388,0.126,5.44
		c0.075,0.727,0.226,1.278,0.978,1.379c0.351,0.05,0.902,0.101,1.128,0.101c0.15,0,0.201,0.075,0.201,0.15
		c0,0.125-0.126,0.2-0.401,0.2c-1.379,0-2.959-0.075-3.084-0.075c-0.025,0-1.604,0.075-2.356,0.075c-0.276,0-0.401-0.05-0.401-0.2
		c0-0.075,0.051-0.15,0.201-0.15c0.225,0,0.525-0.051,0.752-0.101c0.501-0.101,0.627-0.652,0.727-1.379
		c0.126-1.053,0.126-3.033,0.126-5.44V64.634z M131.799,66.814c0,0.126,0.051,0.226,0.176,0.301
		c0.376,0.226,1.529,0.401,2.633,0.401c0.602,0,1.304-0.075,1.88-0.477c0.878-0.602,1.529-1.955,1.529-3.86
		c0-3.134-1.654-5.014-4.337-5.014c-0.752,0-1.43,0.075-1.68,0.15c-0.126,0.05-0.201,0.15-0.201,0.301V66.814z"/>
	<path fill="#BFA500" d="M162.834,74.186c0,1.128-0.025,1.178-0.326,1.354c-1.604,0.853-3.86,1.128-5.314,1.128
		c-1.905,0-5.465-0.25-8.248-2.682c-1.529-1.329-2.983-4.012-2.983-7.146c0-4.011,1.955-6.844,4.187-8.248
		c2.257-1.404,4.738-1.579,6.669-1.579c1.579,0,3.359,0.325,3.836,0.426c0.526,0.125,1.403,0.226,2.03,0.251
		c0.251,0.024,0.301,0.125,0.301,0.226c0,0.351-0.176,1.053-0.176,3.56c0,0.401-0.05,0.526-0.226,0.526
		c-0.125,0-0.15-0.15-0.175-0.376c-0.025-0.351-0.15-1.053-0.526-1.654c-0.627-0.953-2.658-2.03-5.892-2.03
		c-1.58,0-3.46,0.15-5.365,1.654c-1.454,1.153-2.482,3.435-2.482,6.368c0,3.534,1.78,6.092,2.658,6.944
		c1.98,1.93,4.262,2.683,6.568,2.683c0.902,0,2.206-0.15,2.857-0.527c0.326-0.175,0.502-0.451,0.502-0.877v-4.262
		c0-2.031-0.126-2.307-1.129-2.583c-0.2-0.05-0.626-0.075-0.852-0.075c-0.101,0-0.201-0.05-0.201-0.15c0-0.15,0.126-0.2,0.401-0.2
		c1.128,0,2.708,0.075,2.833,0.075s1.705-0.075,2.457-0.075c0.275,0,0.401,0.05,0.401,0.2c0,0.101-0.101,0.15-0.201,0.15
		c-0.176,0-0.326,0.025-0.627,0.075c-0.677,0.126-0.877,0.552-0.927,1.43c-0.051,0.802-0.051,1.554-0.051,2.607V74.186z"/>
	<path fill="#BFA500" d="M172.535,69.097c0,3.685,0.101,5.289,0.552,5.74c0.401,0.401,1.053,0.577,3.008,0.577
		c1.329,0,2.433-0.025,3.034-0.752c0.325-0.401,0.576-1.028,0.651-1.505c0.025-0.2,0.075-0.325,0.226-0.325
		c0.126,0,0.15,0.1,0.15,0.376c0,0.275-0.175,1.779-0.376,2.507c-0.175,0.576-0.251,0.677-1.579,0.677
		c-2.156,0-4.287-0.15-6.719-0.15c-0.777,0-1.529,0.075-2.457,0.075c-0.275,0-0.401-0.05-0.401-0.2c0-0.075,0.051-0.15,0.201-0.15
		c0.226,0,0.526-0.051,0.752-0.101c0.501-0.101,0.627-0.652,0.727-1.379c0.126-1.053,0.126-3.033,0.126-5.44v-4.412
		c0-3.911,0-4.613-0.051-5.415c-0.05-0.853-0.25-1.254-1.078-1.43c-0.2-0.05-0.626-0.075-0.852-0.075
		c-0.101,0-0.201-0.05-0.201-0.15c0-0.15,0.125-0.2,0.401-0.2c1.128,0,2.707,0.075,2.833,0.075c0.125,0,1.955-0.075,2.707-0.075
		c0.276,0,0.401,0.05,0.401,0.2c0,0.101-0.101,0.15-0.2,0.15c-0.176,0-0.526,0.025-0.827,0.075c-0.728,0.126-0.928,0.552-0.979,1.43
		c-0.05,0.802-0.05,1.504-0.05,5.415V69.097z"/>
	<path fill="#BFA500" d="M182.236,66.814c0-4.061,2.958-9.802,9.878-9.802c5.641,0,9.853,3.56,9.853,9.401
		c0,5.615-3.961,10.253-10.003,10.253C185.095,76.667,182.236,71.327,182.236,66.814z M199.56,67.115c0-6.017-3.66-9.25-7.621-9.25
		c-4.187,0-7.32,2.757-7.32,8.248c0,5.841,3.51,9.602,8.022,9.602C194.896,75.715,199.56,74.411,199.56,67.115z"/>
	<path fill="#BFA500" d="M207.655,64.634c0-3.911,0-4.613-0.051-5.415c-0.05-0.853-0.25-1.254-1.078-1.43
		c-0.2-0.05-0.626-0.075-0.727-0.075c-0.226,0-0.326-0.05-0.326-0.15c0-0.15,0.126-0.2,0.401-0.2c1.128,0,2.707,0.075,2.833,0.075
		c0.602,0,1.579-0.075,2.732-0.075c4.111,0,5.014,2.507,5.014,3.761c0,2.056-1.178,3.284-2.356,4.513
		c1.855,0.576,4.338,2.356,4.338,5.29c0,2.682-2.106,5.465-6.394,5.465c-0.275,0-1.078-0.05-1.805-0.075
		c-0.728-0.05-1.429-0.075-1.529-0.075c-0.803,0-1.58,0.075-2.457,0.075c-0.275,0-0.401-0.05-0.401-0.176
		c0-0.075,0.051-0.175,0.376-0.175c0.201,0,0.376-0.025,0.602-0.075c0.502-0.101,0.603-0.678,0.702-1.404
		c0.126-1.053,0.126-3.033,0.126-5.44V64.634z M209.66,65.186c0,0.175,0.051,0.226,0.176,0.275c0.15,0.025,0.602,0.101,1.529,0.101
		c1.404,0,1.755-0.051,2.281-0.652s0.902-1.504,0.902-2.532c0-2.08-0.928-4.312-3.384-4.312c-0.276,0-0.803,0.025-1.204,0.125
		c-0.226,0.051-0.301,0.126-0.301,0.276V65.186z M209.66,67.843c0,1.931,0,5.039,0.025,5.415c0.075,1.229,0.075,1.579,0.853,1.955
		c0.677,0.326,1.755,0.377,2.206,0.377c1.354,0,3.535-0.728,3.535-3.561c0-1.504-0.502-3.686-2.432-5.014
		c-0.853-0.577-1.479-0.652-2.081-0.728c-0.326-0.05-1.58-0.05-1.956-0.05c-0.1,0-0.15,0.05-0.15,0.176V67.843z"/>
	<path fill="#BFA500" d="M225.855,68.921c-0.126,0-0.201,0.075-0.251,0.2l-1.505,4.438c-0.226,0.627-0.351,1.229-0.351,1.68
		c0,0.502,0.477,0.728,0.902,0.728c0.075,0,0.15,0,0.226,0c0.251,0,0.326,0.05,0.326,0.15c0,0.15-0.226,0.2-0.451,0.2
		c-0.602,0-1.604-0.075-1.88-0.075c-0.276,0-1.655,0.075-2.833,0.075c-0.326,0-0.477-0.05-0.477-0.2c0-0.101,0.125-0.15,0.351-0.15
		c0.176,0,0.401-0.025,0.602-0.051c1.153-0.15,1.655-1.103,2.106-2.356l5.69-15.568c0.301-0.827,0.401-0.978,0.552-0.978
		s0.251,0.125,0.552,0.902c0.376,0.952,4.312,11.307,5.841,15.117c0.903,2.231,1.63,2.633,2.156,2.783
		c0.376,0.125,0.777,0.15,0.978,0.15c0.15,0,0.276,0.024,0.276,0.15c0,0.15-0.226,0.2-0.502,0.2c-0.376,0-2.206,0-3.936-0.05
		c-0.477-0.025-0.752-0.025-0.752-0.176c0-0.101,0.075-0.15,0.175-0.176c0.15-0.05,0.302-0.275,0.15-0.677l-2.331-6.167
		c-0.05-0.101-0.101-0.15-0.226-0.15H225.855z M230.919,68.019c0.126,0,0.126-0.075,0.101-0.176l-2.382-6.769
		c-0.125-0.377-0.251-0.377-0.376,0l-2.206,6.769c-0.05,0.125,0,0.176,0.075,0.176H230.919z"/>
	<path fill="#BFA500" d="M244.355,69.097c0,3.685,0.101,5.289,0.552,5.74c0.401,0.401,1.053,0.577,3.008,0.577
		c1.329,0,2.433-0.025,3.034-0.752c0.325-0.401,0.576-1.028,0.651-1.505c0.025-0.2,0.075-0.325,0.226-0.325
		c0.126,0,0.15,0.1,0.15,0.376c0,0.275-0.175,1.779-0.376,2.507c-0.175,0.576-0.251,0.677-1.579,0.677
		c-2.156,0-4.287-0.15-6.719-0.15c-0.777,0-1.529,0.075-2.457,0.075c-0.275,0-0.401-0.05-0.401-0.2c0-0.075,0.051-0.15,0.201-0.15
		c0.226,0,0.526-0.051,0.752-0.101c0.501-0.101,0.627-0.652,0.727-1.379c0.126-1.053,0.126-3.033,0.126-5.44v-4.412
		c0-3.911,0-4.613-0.051-5.415c-0.05-0.853-0.25-1.254-1.078-1.43c-0.2-0.05-0.626-0.075-0.852-0.075
		c-0.101,0-0.201-0.05-0.201-0.15c0-0.15,0.125-0.2,0.401-0.2c1.128,0,2.707,0.075,2.833,0.075c0.125,0,1.955-0.075,2.707-0.075
		c0.276,0,0.401,0.05,0.401,0.2c0,0.101-0.101,0.15-0.2,0.15c-0.176,0-0.526,0.025-0.827,0.075c-0.728,0.126-0.928,0.552-0.979,1.43
		c-0.05,0.802-0.05,1.504-0.05,5.415V69.097z"/>
</g>
</svg>
