<?xml version="1.0" encoding="utf-8"?>
<!-- Generator: Adobe Illustrator 16.0.0, SVG Export Plug-In . SVG Version: 6.00 Build 0)  -->
<!DOCTYPE svg PUBLIC "-//W3C//DTD SVG 1.1//EN" "http://www.w3.org/Graphics/SVG/1.1/DTD/svg11.dtd">
<svg version="1.1" id="Layer_1" xmlns="http://www.w3.org/2000/svg" xmlns:xlink="http://www.w3.org/1999/xlink" x="0px" y="0px"
	 width="48px" height="48px" viewBox="0 0 48 48" enable-background="new 0 0 48 48" xml:space="preserve">
<g>
	<path fill="#BFA430" d="M24.148,31.124l-4.955-4.341L5.046,38.907c0.515,0.488,1.2,0.781,1.969,0.781h34.25
		c0.768,0,1.451-0.293,1.968-0.781L29.084,26.783L24.148,31.124z M24.148,31.124"/>
	<path fill="#BFA430" d="M43.233,11.896c-0.503-0.488-1.2-0.781-1.968-0.781H7.016c-0.755,0-1.455,0.293-1.969,0.781l19.102,16.366
		L43.233,11.896z M43.233,11.896"/>
	<path fill="#BFA430" d="M4.14,13.626V37.36l13.813-11.737L4.14,13.626z M4.14,13.626"/>
	<path fill="#BFA430" d="M30.327,25.623L44.14,37.36V13.612L30.327,25.623z M30.327,25.623"/>
</g>
</svg>
