<?xml version="1.0" encoding="utf-8"?>
<!-- Generator: Adobe Illustrator 18.1.1, SVG Export Plug-In . SVG Version: 6.00 Build 0)  -->
<svg version="1.0" id="Layer_1" xmlns="http://www.w3.org/2000/svg" xmlns:xlink="http://www.w3.org/1999/xlink" x="0px" y="0px"
	 width="20px" height="40px" viewBox="0 0 20 40" enable-background="new 0 0 20 40" xml:space="preserve">
<rect y="0.1" fill="none" width="20" height="20"/>
<rect y="20" fill="none" width="20" height="20"/>
<g>
	<g>
		<g>
			<defs>
				<rect id="SVGID_1_" x="0.7" y="1.8" width="18.5" height="16.7"/>
			</defs>
			<clipPath id="SVGID_2_">
				<use xlink:href="#SVGID_1_"  overflow="visible"/>
			</clipPath>
			<path clip-path="url(#SVGID_2_)" fill="#4AB2CB" d="M19,6c-0.6-2.5-2.7-4.2-5-4.2c-1.5,0-2.9,0.7-4,2.1C8.9,2.5,7.5,1.8,6,1.8
				c-2.3,0-4.4,1.7-5,4.2c-0.3,1.3-0.4,3.4,1.2,6c1.5,2.3,4,4.5,7.6,6.5c0.1,0,0.2,0.1,0.3,0.1c0.1,0,0.2,0,0.3-0.1
				c3.6-1.9,6.1-4.1,7.6-6.5C19.4,9.4,19.4,7.3,19,6L19,6z M10,17.2c-8.7-4.9-8.3-9.6-7.9-11C2.5,4.3,4.2,2.9,6,2.9
				c1.4,0,2.6,0.8,3.5,2.3C9.6,5.4,9.8,5.5,10,5.5c0.2,0,0.4-0.1,0.5-0.3c0.9-1.5,2.1-2.3,3.5-2.3c1.8,0,3.4,1.4,3.9,3.3
				C18.3,7.6,18.7,12.4,10,17.2L10,17.2z"/>
		</g>
	</g>
	<path fill="#4AB2CB" d="M15.6,10.2h-2.6l-1-3.5c-0.1-0.2-0.3-0.4-0.6-0.4h0c-0.3,0-0.5,0.2-0.6,0.4l-1.3,4.9L8.4,6.6
		C8.3,6.4,8.1,6.2,7.8,6.2h0c-0.3,0-0.5,0.2-0.5,0.4L6.6,8.9H4c-0.3,0-0.6,0.3-0.6,0.6C3.5,9.8,3.7,10,4,10h3c0.3,0,0.5-0.2,0.5-0.4
		l0.2-0.7l1.3,5c0.1,0.2,0.3,0.4,0.6,0.4c0.3,0,0.5-0.2,0.6-0.4L11.6,9l0.5,1.9c0.1,0.3,0.3,0.4,0.6,0.4h3c0.3,0,0.6-0.3,0.6-0.6
		S16,10.2,15.6,10.2L15.6,10.2z"/>
</g>
<g>
	<g>
		<defs>
			<rect id="SVGID_3_" x="0.7" y="21.7" width="18.5" height="16.7"/>
		</defs>
		<clipPath id="SVGID_4_">
			<use xlink:href="#SVGID_3_"  overflow="visible"/>
		</clipPath>
		<path clip-path="url(#SVGID_4_)" fill="#FFFFFF" d="M19,25.8c-0.6-2.5-2.7-4.2-5-4.2c-1.5,0-2.9,0.7-4,2.1c-1.1-1.4-2.5-2.1-4-2.1
			c-2.3,0-4.4,1.7-5,4.2c-0.3,1.3-0.4,3.4,1.2,6c1.5,2.3,4,4.5,7.6,6.5c0.1,0,0.2,0.1,0.3,0.1c0.1,0,0.2,0,0.3-0.1
			c3.6-1.9,6.1-4.1,7.6-6.5C19.4,29.2,19.4,27.1,19,25.8L19,25.8z M10,37.1c-8.7-4.9-8.3-9.6-7.9-11c0.5-1.9,2.1-3.3,3.9-3.3
			c1.4,0,2.6,0.8,3.5,2.3c0.1,0.2,0.3,0.3,0.5,0.3c0.2,0,0.4-0.1,0.5-0.3c0.9-1.5,2.1-2.3,3.5-2.3c1.8,0,3.4,1.4,3.9,3.3
			C18.3,27.5,18.7,32.2,10,37.1L10,37.1z"/>
	</g>
</g>
<path fill="#FFFFFF" d="M15.6,30h-2.6l-1-3.5c-0.1-0.2-0.3-0.4-0.6-0.4h0c-0.3,0-0.5,0.2-0.6,0.4l-1.3,4.9l-1.3-4.9
	c-0.1-0.2-0.3-0.4-0.5-0.4h0c-0.3,0-0.5,0.2-0.5,0.4l-0.7,2.3H4c-0.3,0-0.6,0.3-0.6,0.6c0,0.3,0.3,0.6,0.6,0.6h3
	c0.3,0,0.5-0.2,0.5-0.4l0.2-0.7l1.3,5c0.1,0.2,0.3,0.4,0.6,0.4c0.3,0,0.5-0.2,0.6-0.4l1.3-4.9l0.5,1.9c0.1,0.3,0.3,0.4,0.6,0.4h3
	c0.3,0,0.6-0.3,0.6-0.6S16,30,15.6,30L15.6,30z"/>
</svg>
