<?xml version="1.0" encoding="utf-8"?>
<!-- Generator: Adobe Illustrator 18.1.1, SVG Export Plug-In . SVG Version: 6.00 Build 0)  -->
<svg version="1.0" id="Layer_1" xmlns="http://www.w3.org/2000/svg" xmlns:xlink="http://www.w3.org/1999/xlink" x="0px" y="0px"
	 width="80px" height="40px" viewBox="0 0 80 40" enable-background="new 0 0 80 40" xml:space="preserve">
<g display="none">
	<rect display="inline" opacity="0.18" width="40" height="40"/>
	<rect x="40" display="inline" opacity="0.18" width="40" height="40"/>
</g>
<g display="none">
	<path display="inline" fill="#434849" d="M38.3,18.6h-1.7c-0.9,0-1.7,0.6-1.7,1.4c0,0.8,0.8,1.4,1.7,1.4h1.7c0.9,0,1.7-0.6,1.7-1.4
		C40,19.2,39.2,18.6,38.3,18.6L38.3,18.6z M22.9,10.6c-5.2,0-9.4,4.2-9.4,9.4c0,5.2,4.2,9.4,9.4,9.4c5.2,0,9.4-4.2,9.4-9.4
		C32.3,14.8,28.1,10.6,22.9,10.6L22.9,10.6z M23.1,26.8c-4,0-7-3.1-7-6.8s3.1-6.8,7-6.8V26.8z M10.9,20c0-0.8-0.7-1.4-1.7-1.4H7.5
		c-0.9,0-1.7,0.6-1.7,1.4c0,0.8,0.8,1.4,1.7,1.4h1.7C10.2,21.4,10.9,20.8,10.9,20L10.9,20z M22.9,8c0.8,0,1.4-0.8,1.4-1.7V4.6
		c0-0.9-0.6-1.7-1.4-1.7c-0.8,0-1.4,0.8-1.4,1.7v1.7C21.5,7.3,22.1,8,22.9,8L22.9,8z M22.9,32c-0.8,0-1.4,0.8-1.4,1.7v1.7
		c0,0.9,0.6,1.7,1.4,1.7c0.8,0,1.4-0.8,1.4-1.7v-1.7C24.3,32.7,23.7,32,22.9,32L22.9,32z M35.5,9.3c0.7-0.7,0.8-1.6,0.2-2.2
		c-0.5-0.5-1.5-0.4-2.2,0.2l-1.2,1.2c-0.7,0.7-0.8,1.6-0.2,2.2c0.5,0.5,1.5,0.4,2.2-0.2C34.5,10.4,35.3,9.5,35.5,9.3L35.5,9.3z
		 M11.5,29.5c-0.2,0.2-1,1-1.2,1.2c-0.7,0.7-0.8,1.6-0.2,2.2c0.5,0.5,1.5,0.4,2.2-0.2c0.2-0.2,1-1,1.2-1.2c0.7-0.7,0.8-1.6,0.2-2.2
		C13.1,28.7,12.2,28.8,11.5,29.5L11.5,29.5z M12.2,7.4c-0.7-0.7-1.6-0.8-2.2-0.2c-0.5,0.5-0.4,1.5,0.2,2.2c0.2,0.2,1,1,1.2,1.2
		c0.7,0.7,1.6,0.8,2.2,0.2c0.5-0.5,0.4-1.5-0.2-2.2L12.2,7.4z M32.4,31.4c0.2,0.2,1,1,1.2,1.2c0.7,0.7,1.6,0.8,2.2,0.2
		c0.5-0.5,0.4-1.5-0.2-2.2c-0.2-0.2-1-1-1.2-1.2c-0.7-0.7-1.6-0.8-2.2-0.2C31.6,29.8,31.7,30.7,32.4,31.4L32.4,31.4z M32.4,31.4"/>
	<path display="inline" fill="#434849" d="M72.9,18.6h-1.7c-0.9,0-1.7,0.6-1.7,1.4c0,0.8,0.8,1.4,1.7,1.4h1.7c0.9,0,1.7-0.6,1.7-1.4
		C74.6,19.2,73.8,18.6,72.9,18.6L72.9,18.6z M57.5,10.6c-5.2,0-9.4,4.2-9.4,9.4c0,5.2,4.2,9.4,9.4,9.4c5.2,0,9.4-4.2,9.4-9.4
		C66.9,14.8,62.7,10.6,57.5,10.6L57.5,10.6z M57.7,26.8c-4,0-7-3.1-7-6.8s3.1-6.8,7-6.8V26.8z M45.5,20c0-0.8-0.7-1.4-1.7-1.4h-1.7
		c-0.9,0-1.7,0.6-1.7,1.4c0,0.8,0.8,1.4,1.7,1.4h1.7C44.8,21.4,45.5,20.8,45.5,20L45.5,20z M57.5,8c0.8,0,1.4-0.8,1.4-1.7V4.6
		c0-0.9-0.6-1.7-1.4-1.7c-0.8,0-1.4,0.8-1.4,1.7v1.7C56.1,7.3,56.7,8,57.5,8L57.5,8z M57.5,32c-0.8,0-1.4,0.8-1.4,1.7v1.7
		c0,0.9,0.6,1.7,1.4,1.7c0.8,0,1.4-0.8,1.4-1.7v-1.7C58.9,32.7,58.3,32,57.5,32L57.5,32z M70.1,9.3c0.7-0.7,0.8-1.6,0.2-2.2
		s-1.5-0.4-2.2,0.2L67,8.6c-0.7,0.7-0.8,1.6-0.2,2.2c0.5,0.5,1.5,0.4,2.2-0.2C69.1,10.4,69.9,9.5,70.1,9.3L70.1,9.3z M46.1,29.5
		c-0.2,0.2-1,1-1.2,1.2c-0.7,0.7-0.8,1.6-0.2,2.2c0.5,0.5,1.5,0.4,2.2-0.2c0.2-0.2,1-1,1.2-1.2c0.7-0.7,0.8-1.6,0.2-2.2
		C47.7,28.7,46.8,28.8,46.1,29.5L46.1,29.5z M46.8,7.4c-0.7-0.7-1.6-0.8-2.2-0.2c-0.5,0.5-0.4,1.5,0.2,2.2c0.2,0.2,1,1,1.2,1.2
		c0.7,0.7,1.6,0.8,2.2,0.2c0.5-0.5,0.4-1.5-0.2-2.2L46.8,7.4z M67,31.4c0.2,0.2,1,1,1.2,1.2c0.7,0.7,1.6,0.8,2.2,0.2
		c0.5-0.5,0.4-1.5-0.2-2.2c-0.2-0.2-1-1-1.2-1.2c-0.7-0.7-1.6-0.8-2.2-0.2C66.2,29.8,66.3,30.7,67,31.4L67,31.4z M67,31.4"/>
</g>
<g>
	<g>
		<path fill="#434849" d="M11.6,9.7c-0.6,0-1.3,0-1.8,0.1c0,0-0.2,0-0.2,0v20.4c0,0,0.2,0,0.2,0c0.5,0.1,1.2,0.1,1.7,0.1
			c5.7,0,10.4-4.6,10.4-10.3C21.9,14.3,17.3,9.7,11.6,9.7z"/>
		<path fill="#434849" d="M11.5,7.4c0.9,0,2-0.7,2-1.7V2.1c0-0.9-1.1-1.7-2-1.7s-2,0.7-2,1.7v3.7C9.5,6.7,10.6,7.4,11.5,7.4z"/>
		<path fill="#434849" d="M11.5,32.6c-0.9,0-2,0.7-2,1.7v3.7c0,0.9,1.1,1.7,2,1.7s2-0.7,2-1.7v-3.7C13.5,33.3,12.4,32.6,11.5,32.6z"
			/>
		<path fill="#434849" d="M22.8,28.9c-0.7-0.7-1.7-0.7-2.3,0c-0.7,0.6-0.7,1.7,0,2.3l2.3,2.3c0.3,0.3,0.7,0.5,1.2,0.5
			c0.4,0,0.8-0.2,1.2-0.5c0.6-0.7,0.6-1.7,0-2.3L22.8,28.9z"/>
		<path fill="#434849" d="M29.4,18.5h-3.7c-0.9,0-1.7,0.6-1.7,1.5s0.7,1.5,1.7,1.5h3.7c0.9,0,1.7-0.6,1.7-1.5S30.4,18.5,29.4,18.5z"
			/>
		<path fill="#434849" d="M21.6,11.6c0.4,0,0.9-0.2,1.2-0.5l2.3-2.3c0.6-0.6,0.6-1.7,0-2.3c-0.7-0.6-1.7-0.6-2.3,0l-2.3,2.3
			c-0.7,0.7-0.7,1.7,0,2.3C20.8,11.5,21.2,11.6,21.6,11.6z"/>
	</g>
	<g>
		<path fill="#434849" d="M50.6,9.7c-0.6,0-1.3,0-1.9,0.1c0,0-0.3,0-0.3,0v20.4c0,0,0.2,0,0.3,0c0.5,0.1,1.2,0.1,1.8,0.1
			c5.7,0,10.4-4.6,10.4-10.3C60.9,14.3,56.3,9.7,50.6,9.7z"/>
		<path fill="#434849" d="M50.5,7.4c0.9,0,2-0.7,2-1.7V2.1c0-0.9-1.1-1.7-2-1.7s-2,0.7-2,1.7v3.7C48.5,6.7,49.6,7.4,50.5,7.4z"/>
		<path fill="#434849" d="M50.5,32.6c-0.9,0-2,0.7-2,1.7v3.7c0,0.9,1.1,1.7,2,1.7s2-0.7,2-1.7v-3.7C52.5,33.3,51.4,32.6,50.5,32.6z"
			/>
		<path fill="#434849" d="M61.9,28.9c-0.7-0.7-1.7-0.7-2.3,0c-0.7,0.6-0.7,1.7,0,2.3l2.3,2.3c0.3,0.3,0.7,0.5,1.2,0.5
			c0.4,0,0.8-0.2,1.2-0.5c0.6-0.7,0.6-1.7,0-2.3L61.9,28.9z"/>
		<path fill="#434849" d="M68.5,18.5h-3.7c-0.9,0-1.7,0.6-1.7,1.5s0.7,1.5,1.7,1.5h3.7c0.9,0,1.7-0.6,1.7-1.5S69.4,18.5,68.5,18.5z"
			/>
		<path fill="#434849" d="M60.7,11.6c0.4,0,0.9-0.2,1.2-0.5l2.3-2.3c0.6-0.6,0.6-1.7,0-2.3c-0.7-0.6-1.7-0.6-2.3,0l-2.3,2.3
			c-0.7,0.7-0.7,1.7,0,2.3C59.8,11.5,60.3,11.6,60.7,11.6z"/>
	</g>
</g>
<g display="none">
	<g display="inline">
		<path fill="#F26B55" d="M30.9,11.5V9.3c-0.4-0.1-0.9-0.1-1.4-0.1c-6,0-10.7,4.8-10.7,10.7c0,6,4.8,10.7,10.7,10.7
			c0.5,0,0.9,0,1.4-0.1v-2.2c-5.3,0-9.5-3.8-9.5-8.5S25.5,11.5,30.9,11.5z"/>
		<path fill="#F26B55" d="M13.9,18.4h-2c-1.1,0-2,0.7-2,1.6c0,0.9,0.9,1.6,2,1.6h2c1.1,0,1.9-0.7,1.9-1.6
			C15.8,19.1,15,18.4,13.9,18.4z"/>
		<path fill="#F26B55" d="M30.9,1.5c-0.3-0.6-0.8-1.1-1.4-1.1c-0.9,0-1.6,0.9-1.6,2v2c0,1.1,0.7,2,1.6,2c0.6,0,1.1-0.4,1.4-1.1
			C31,5,31,4.7,31,4.4v-2C31,2.1,31,1.8,30.9,1.5z"/>
		<path fill="#F26B55" d="M30.9,34.8c-0.3-0.6-0.8-1.1-1.4-1.1c-0.9,0-1.6,0.9-1.6,2v2c0,1.1,0.7,2,1.6,2c0.6,0,1.1-0.4,1.4-1.1
			c0.1-0.3,0.2-0.6,0.2-0.9v-2C31,35.3,31,35,30.9,34.8z"/>
		<path fill="#F26B55" d="M18.9,30.5c-0.6-0.6-1.7-0.5-2.5,0.3c-0.2,0.2-1.1,1.2-1.4,1.4c-0.8,0.8-0.9,1.9-0.3,2.5
			c0.6,0.6,1.7,0.5,2.5-0.3c0.2-0.2,1.1-1.2,1.4-1.4C19.4,32.2,19.6,31.1,18.9,30.5z"/>
		<path fill="#F26B55" d="M18.7,7l-1.4-1.4c-0.8-0.8-1.9-0.9-2.5-0.3c-0.6,0.6-0.5,1.7,0.3,2.5C15.3,8,16.3,9,16.5,9.2
			c0.8,0.8,1.9,0.9,2.5,0.3C19.6,8.8,19.4,7.7,18.7,7z"/>
	</g>
	<g display="inline">
		<path fill="#FFFFFF" d="M70,11.4V9.3c-0.4-0.1-0.9-0.1-1.4-0.1c-6,0-10.8,4.8-10.8,10.8c0,6,4.8,10.8,10.8,10.8c0.5,0,1,0,1.4-0.1
			v-2.2c-5.4,0-9.5-3.8-9.5-8.5S64.6,11.4,70,11.4z"/>
		<path fill="#FFFFFF" d="M52.8,18.4h-2c-1.1,0-2,0.7-2,1.6c0,0.9,0.9,1.6,2,1.6h2c1.1,0,1.9-0.7,1.9-1.6
			C54.7,19.1,53.9,18.4,52.8,18.4z"/>
		<path fill="#FFFFFF" d="M70,1.4c-0.3-0.6-0.8-1.1-1.4-1.1c-0.9,0-1.6,0.9-1.6,2v2c0,1.1,0.7,2,1.6,2c0.6,0,1.2-0.4,1.4-1.1
			c0.1-0.3,0.2-0.6,0.2-0.9v-2C70.1,1.9,70.1,1.6,70,1.4z"/>
		<path fill="#FFFFFF" d="M70,34.9c-0.3-0.6-0.8-1.1-1.4-1.1c-0.9,0-1.6,0.9-1.6,2v2c0,1.1,0.7,2,1.6,2c0.6,0,1.2-0.4,1.4-1.1
			c0.1-0.3,0.2-0.6,0.2-0.9v-2C70.1,35.5,70.1,35.2,70,34.9z"/>
		<path fill="#FFFFFF" d="M57.9,30.6c-0.6-0.6-1.7-0.5-2.5,0.3c-0.2,0.2-1.2,1.2-1.4,1.4c-0.8,0.8-0.9,1.9-0.3,2.5
			c0.6,0.6,1.7,0.5,2.5-0.3c0.2-0.2,1.2-1.2,1.4-1.4C58.4,32.3,58.5,31.2,57.9,30.6z"/>
		<path fill="#FFFFFF" d="M57.7,6.8l-1.4-1.4c-0.8-0.8-1.9-0.9-2.5-0.3c-0.6,0.6-0.5,1.7,0.3,2.5c0.2,0.2,1.2,1.2,1.4,1.4
			c0.8,0.8,1.9,0.9,2.5,0.3C58.5,8.8,58.4,7.6,57.7,6.8z"/>
	</g>
</g>
</svg>
