<?xml version="1.0" encoding="utf-8"?>
<!-- Generator: Adobe Illustrator 16.0.0, SVG Export Plug-In . SVG Version: 6.00 Build 0)  -->
<!DOCTYPE svg PUBLIC "-//W3C//DTD SVG 1.1//EN" "http://www.w3.org/Graphics/SVG/1.1/DTD/svg11.dtd">
<svg version="1.1" id="Layer_1" xmlns="http://www.w3.org/2000/svg" xmlns:xlink="http://www.w3.org/1999/xlink" x="0px" y="0px"
	 width="48px" height="48px" viewBox="0 0 48 48" enable-background="new 0 0 48 48" xml:space="preserve">
<g>
	<path fill="#454545" d="M23.997,2.301c-11.84,0-21.476,9.637-21.476,21.477c0,11.844,9.636,21.48,21.476,21.48
		c11.845,0,21.481-9.636,21.481-21.48C45.479,11.938,35.842,2.301,23.997,2.301L23.997,2.301z M29.342,24.534h-3.494v12.458h-5.179
		V24.534h-2.462v-4.401h2.462v-2.848c0-2.036,0.968-5.225,5.226-5.225l3.835,0.016v4.272h-2.783c-0.456,0-1.099,0.228-1.099,1.199
		v2.59h3.945L29.342,24.534z M29.342,24.534"/>
</g>
</svg>
