<?xml version="1.0" encoding="utf-8"?>
<!-- Generator: Adobe Illustrator 16.0.0, SVG Export Plug-In . SVG Version: 6.00 Build 0)  -->
<!DOCTYPE svg PUBLIC "-//W3C//DTD SVG 1.1//EN" "http://www.w3.org/Graphics/SVG/1.1/DTD/svg11.dtd">
<svg version="1.1" id="Layer_1" xmlns="http://www.w3.org/2000/svg" xmlns:xlink="http://www.w3.org/1999/xlink" x="0px" y="0px"
	 width="48px" height="48px" viewBox="0 0 48 48" enable-background="new 0 0 48 48" xml:space="preserve">
<g display="none">
	<path display="inline" fill="#454545" d="M23.997,2.301c-11.84,0-21.476,9.637-21.476,21.477c0,11.844,9.636,21.48,21.476,21.48
		c11.845,0,21.481-9.636,21.481-21.48C45.479,11.938,35.842,2.301,23.997,2.301L23.997,2.301z M29.342,24.534h-3.494v12.458h-5.179
		V24.534h-2.462v-4.401h2.462v-2.848c0-2.036,0.968-5.225,5.226-5.225l3.835,0.016v4.272h-2.783c-0.456,0-1.099,0.228-1.099,1.199
		v2.59h3.945L29.342,24.534z M29.342,24.534"/>
</g>
<g>
	<path fill="#454545" d="M23.993,3.305c-11.689,0-21.182,9.49-21.182,21.181c0,11.705,9.492,21.197,21.182,21.197
		c11.705,0,21.197-9.492,21.197-21.197C45.189,12.783,35.697,3.305,23.993,3.305L23.993,3.305z M18.705,34.756h-5.302V16.209h5.302
		V34.756z M16.222,15.086c-1.37,0-2.483-1.112-2.483-2.496c0-1.371,1.114-2.483,2.483-2.483c1.371,0.013,2.482,1.127,2.482,2.483
		C18.705,13.974,17.593,15.086,16.222,15.086L16.222,15.086z M37.236,34.756h-5.289V23.298c0-1.345-0.388-2.289-2.03-2.289
		c-2.743,0-3.272,2.289-3.272,2.289v11.458h-5.287V16.209h5.287v1.773c0.765-0.569,2.651-1.76,5.303-1.76
		c1.72,0,5.289,1.023,5.289,7.23V34.756z M37.236,34.756"/>
</g>
</svg>
