<?xml version="1.0" encoding="utf-8"?>
<!-- Generator: Adobe Illustrator 18.1.1, SVG Export Plug-In . SVG Version: 6.00 Build 0)  -->
<svg version="1.0" id="Layer_1" xmlns="http://www.w3.org/2000/svg" xmlns:xlink="http://www.w3.org/1999/xlink" x="0px" y="0px"
	 width="30px" height="60px" viewBox="0 0 30 60" enable-background="new 0 0 30 60" xml:space="preserve">
<rect opacity="0" width="30" height="60"/>
<g display="none">
	<path display="inline" d="M15,17.9l-8.4-2.6v4.3c0,2,3.8,3.6,8.4,3.6c4.6,0,8.4-1.6,8.4-3.6c0,0,0,0,0,0v-4.3L15,17.9z M15,17.9"/>
	<path display="inline" d="M0.9,12.3l3,1.1l0.3-0.5l1.1-0.1l0.2,0.2l-0.9,0.2l-0.1,0.4c0,0-2.1,4.5-1.8,6.7c0,0,1.3,0.8,2.7,0l0.4-6
		v-0.5l2-0.4l-0.1,0.3l-1.5,0.5l0.7,0.2l8.4,2.6l8.4-2.6l5.7-2L15,6.9L0.9,12.3z M0.9,12.3"/>
</g>
<g display="none">
	<path display="inline" fill="#FD2740" d="M15,47.8l-8.4-2.6v4.3c0,2,3.8,3.6,8.4,3.6c4.6,0,8.4-1.6,8.4-3.6c0,0,0,0,0,0v-4.3
		L15,47.8z M15,47.8"/>
	<path display="inline" fill="#FD2740" d="M0.9,42.3l3,1.1l0.3-0.5l1.1-0.1l0.2,0.2l-0.9,0.2l-0.1,0.4c0,0-2.1,4.5-1.8,6.7
		c0,0,1.3,0.8,2.7,0l0.4-6v-0.5l2-0.4l-0.1,0.3L5.9,44l0.7,0.2l8.4,2.6l8.4-2.6l5.7-2L15,36.8L0.9,42.3z M0.9,42.3"/>
</g>
<g>
	<path d="M16,17v-0.5c0-0.6-0.5-1-1-1c-0.6,0-1,0.5-1,1V17c0,0.6,0.5,1,1,1C15.6,18,16,17.5,16,17L16,17z M16,17"/>
	<g>
		<path d="M16.8,17.6c-0.2,0.8-0.9,1.3-1.8,1.3c-0.8,0-1.5-0.6-1.8-1.3H6.1c-0.5,0-0.9-0.1-1.3-0.3V22c0,0.9,0.8,1.7,1.7,1.7h17
			c0.9,0,1.7-0.8,1.7-1.7v-4.8c-0.4,0.2-0.8,0.3-1.3,0.3H16.8z M16.8,17.6"/>
		<path d="M23.9,9h-4.1c-0.2-1.5-1.6-2.7-3.2-2.7h-3.3c-1.6,0-2.9,1.2-3.2,2.7H6.1c-1,0-1.8,0.8-1.8,1.7v3.9c0,0.9,0.8,1.7,1.7,1.7
			h7.1c0-0.5,0.2-0.9,0.6-1.2c0,0,0,0,0,0c0.1-0.1,0.2-0.1,0.2-0.2c0,0,0.1,0,0.1-0.1c0.1,0,0.1-0.1,0.2-0.1c0.1,0,0.1,0,0.2-0.1
			c0.1,0,0.1,0,0.2,0c0.1,0,0.2,0,0.4,0c0.1,0,0.2,0,0.4,0c0.1,0,0.1,0,0.2,0c0.1,0,0.1,0,0.2,0.1c0.1,0,0.1,0.1,0.2,0.1
			c0,0,0.1,0,0.1,0.1c0.1,0.1,0.2,0.1,0.2,0.2c0,0,0,0,0,0c0.3,0.3,0.5,0.8,0.6,1.2h7.1c0.9,0,1.7-0.8,1.7-1.7v-3.9
			C25.6,9.7,24.8,9,23.9,9L23.9,9z M11.8,9c0.2-0.7,0.8-1.1,1.5-1.1h3.3c0.7,0,1.3,0.5,1.5,1.1H11.8z M11.8,9"/>
	</g>
</g>
<g>
	<path fill="#FD2740" d="M16,47v-0.5c0-0.6-0.5-1-1-1c-0.6,0-1,0.5-1,1V47c0,0.6,0.5,1,1,1C15.6,48,16,47.5,16,47L16,47z M16,47"/>
	<g>
		<path fill="#FD2740" d="M16.8,47.6c-0.2,0.8-0.9,1.3-1.8,1.3c-0.8,0-1.5-0.6-1.8-1.3H6.1c-0.5,0-0.9-0.1-1.3-0.3V52
			c0,0.9,0.8,1.7,1.7,1.7h17c0.9,0,1.7-0.8,1.7-1.7v-4.8c-0.4,0.2-0.8,0.3-1.3,0.3H16.8z M16.8,47.6"/>
		<path fill="#FD2740" d="M23.9,39h-4.1c-0.2-1.5-1.6-2.7-3.2-2.7h-3.3c-1.6,0-2.9,1.2-3.2,2.7H6.1c-1,0-1.8,0.8-1.8,1.7v3.9
			c0,0.9,0.8,1.7,1.7,1.7h7.1c0-0.5,0.2-0.9,0.6-1.2c0,0,0,0,0,0c0.1-0.1,0.2-0.1,0.2-0.2c0,0,0.1,0,0.1-0.1c0.1,0,0.1-0.1,0.2-0.1
			c0.1,0,0.1,0,0.2-0.1c0.1,0,0.1,0,0.2,0c0.1,0,0.2,0,0.4,0c0.1,0,0.2,0,0.4,0c0.1,0,0.1,0,0.2,0c0.1,0,0.1,0,0.2,0.1
			c0.1,0,0.1,0.1,0.2,0.1c0,0,0.1,0,0.1,0.1c0.1,0.1,0.2,0.1,0.2,0.2c0,0,0,0,0,0c0.3,0.3,0.5,0.8,0.6,1.2h7.1
			c0.9,0,1.7-0.8,1.7-1.7v-3.9C25.6,39.7,24.8,39,23.9,39L23.9,39z M11.8,39c0.2-0.7,0.8-1.1,1.5-1.1h3.3c0.7,0,1.3,0.5,1.5,1.1
			H11.8z M11.8,39"/>
	</g>
</g>
</svg>
