<?xml version="1.0" encoding="utf-8"?>
<!-- Generator: Adobe Illustrator 18.1.1, SVG Export Plug-In . SVG Version: 6.00 Build 0)  -->
<svg version="1.0" id="Layer_1" xmlns="http://www.w3.org/2000/svg" xmlns:xlink="http://www.w3.org/1999/xlink" x="0px" y="0px"
	 width="30px" height="60px" viewBox="0 0 30 60" enable-background="new 0 0 30 60" xml:space="preserve">
<rect opacity="0" width="30" height="60"/>
<g>
	<path d="M15,17.9l-8.4-2.6v4.3c0,2,3.8,3.6,8.4,3.6c4.6,0,8.4-1.6,8.4-3.6c0,0,0,0,0,0v-4.3L15,17.9z M15,17.9"/>
	<path d="M0.9,12.3l3,1.1l0.3-0.5l1.1-0.1l0.2,0.2l-0.9,0.2l-0.1,0.4c0,0-2.1,4.5-1.8,6.7c0,0,1.3,0.8,2.7,0l0.4-6v-0.5l2-0.4
		l-0.1,0.3l-1.5,0.5l0.7,0.2l8.4,2.6l8.4-2.6l5.7-2L15,6.9L0.9,12.3z M0.9,12.3"/>
</g>
<g>
	<path fill="#FD2740" d="M15,47.8l-8.4-2.6v4.3c0,2,3.8,3.6,8.4,3.6c4.6,0,8.4-1.6,8.4-3.6c0,0,0,0,0,0v-4.3L15,47.8z M15,47.8"/>
	<path fill="#FD2740" d="M0.9,42.3l3,1.1l0.3-0.5l1.1-0.1l0.2,0.2l-0.9,0.2l-0.1,0.4c0,0-2.1,4.5-1.8,6.7c0,0,1.3,0.8,2.7,0l0.4-6
		v-0.5l2-0.4l-0.1,0.3L5.9,44l0.7,0.2l8.4,2.6l8.4-2.6l5.7-2L15,36.8L0.9,42.3z M0.9,42.3"/>
</g>
</svg>
