<?xml version="1.0" encoding="utf-8"?>
<!-- Generator: Adobe Illustrator 16.0.0, SVG Export Plug-In . SVG Version: 6.00 Build 0)  -->
<!DOCTYPE svg PUBLIC "-//W3C//DTD SVG 1.1//EN" "http://www.w3.org/Graphics/SVG/1.1/DTD/svg11.dtd">
<svg version="1.1" id="Layer_1" xmlns="http://www.w3.org/2000/svg" xmlns:xlink="http://www.w3.org/1999/xlink" x="0px" y="0px"
	 width="30px" height="30px" viewBox="0 0 30 30" enable-background="new 0 0 30 30" xml:space="preserve">
<rect opacity="0" fill="#FD2740" width="30" height="30"/>
<g display="none">
	<path display="inline" d="M4.222,9.839h21.486c1.29,0,2.336-1.046,2.336-2.336s-1.046-2.335-2.336-2.335H4.222
		c-1.29,0-2.335,1.045-2.335,2.335C1.887,8.794,2.932,9.839,4.222,9.839L4.222,9.839z M25.708,12.642H4.222
		c-1.29,0-2.335,1.046-2.335,2.336c0,1.29,1.045,2.334,2.335,2.334h21.486c1.29,0,2.336-1.045,2.336-2.334
		C28.044,13.688,26.998,12.642,25.708,12.642L25.708,12.642z M25.708,20.115H4.222c-1.29,0-2.335,1.045-2.335,2.335
		s1.045,2.335,2.335,2.335h21.486c1.29,0,2.336-1.046,2.336-2.335S26.998,20.115,25.708,20.115L25.708,20.115z"/>
</g>
<g display="none">
	<g display="inline">
		<path fill="#FFFFFF" d="M4.313,9.717C3.106,9.717,2.2,8.811,2.2,7.604S3.106,5.43,4.313,5.43h21.313
			c1.208,0,2.174,0.966,2.174,2.174s-0.966,2.113-2.174,2.113H4.313z"/>
	</g>
	<g display="inline">
		<path fill="#FFFFFF" d="M4.313,17.143c-1.208,0-2.113-0.906-2.113-2.113c0-1.206,0.906-2.174,2.113-2.174h21.313
			c1.208,0,2.174,0.966,2.174,2.174c0,1.209-0.966,2.113-2.174,2.113H4.313z"/>
	</g>
	<g display="inline">
		<path fill="#FFFFFF" d="M4.313,24.57c-1.208,0-2.113-0.906-2.113-2.113c0-1.208,0.906-2.174,2.113-2.174h21.313
			c1.208,0,2.174,0.966,2.174,2.174s-0.966,2.113-2.174,2.113H4.313z"/>
	</g>
</g>
<g display="none">
	<rect x="1.607" y="5.19" display="inline" fill="#FFFFFF" width="26.785" height="2.296"/>
	<rect x="1.607" y="13.782" display="inline" fill="#FFFFFF" width="26.785" height="2.296"/>
	<rect x="1.607" y="22.512" display="inline" fill="#FFFFFF" width="26.785" height="2.298"/>
</g>
<g>
	<path fill="#FFFFFF" d="M1.871,8.031h26.262c0.59,0,1.07-0.479,1.07-1.068c0-0.592-0.48-1.074-1.07-1.074H1.871
		c-0.591,0-1.074,0.482-1.074,1.074C0.797,7.553,1.28,8.031,1.871,8.031L1.871,8.031z M1.871,8.031"/>
	<path fill="#FFFFFF" d="M1.871,16.071h26.262c0.59,0,1.07-0.479,1.07-1.069c0-0.592-0.48-1.074-1.07-1.074H1.871
		c-0.591,0-1.074,0.482-1.074,1.074C0.797,15.593,1.28,16.071,1.871,16.071L1.871,16.071z M1.871,16.071"/>
	<path fill="#FFFFFF" d="M1.871,24.111h26.262c0.59,0,1.07-0.479,1.07-1.069c0-0.593-0.48-1.074-1.07-1.074H1.871
		c-0.591,0-1.074,0.481-1.074,1.074C0.797,23.632,1.28,24.111,1.871,24.111L1.871,24.111z M1.871,24.111"/>
</g>
</svg>
