<?xml version="1.0" encoding="utf-8"?>
<!-- Generator: Adobe Illustrator 17.0.0, SVG Export Plug-In . SVG Version: 6.00 Build 0)  -->
<!DOCTYPE svg PUBLIC "-//W3C//DTD SVG 1.1//EN" "http://www.w3.org/Graphics/SVG/1.1/DTD/svg11.dtd">
<svg version="1.1" id="Layer_1" xmlns="http://www.w3.org/2000/svg" xmlns:xlink="http://www.w3.org/1999/xlink" x="0px" y="0px"
	 width="30px" height="30px" viewBox="0 0 30 30" enable-background="new 0 0 30 30" xml:space="preserve">
<g display="none">
	<g display="inline">
		<defs>
			<rect id="SVGID_1_" x="1.754" y="3.137" width="26.493" height="23.726"/>
		</defs>
		<clipPath id="SVGID_2_">
			<use xlink:href="#SVGID_1_"  overflow="visible"/>
		</clipPath>
		<path clip-path="url(#SVGID_2_)" d="M2.536,20.454c5.883,0.168,9.922,2.252,11.829,3.499c0,0,0.177,0.099,0.63,0.432
			c0.468-0.333,0.63-0.432,0.63-0.432c1.907-1.247,5.946-3.328,11.829-3.499c0.426-0.012,0.765-0.36,0.765-0.786V3.923
			c0-0.441-0.366-0.798-0.807-0.786c-6.615,0.201-10.888,2.819-12.414,3.928c-1.532-1.11-5.808-3.727-12.42-3.928
			C2.137,3.125,1.772,3.479,1.772,3.923v15.745C1.772,20.094,2.111,20.442,2.536,20.454L2.536,20.454z M15.673,8.19
			c0.525-0.39,1.514-1.056,2.93-1.712c1.274-0.594,2.645-1.067,4.066-1.406c1.367-0.327,2.789-0.528,4.237-0.606v14.696
			c-1.685,0.081-3.337,0.315-4.93,0.699c-1.604,0.39-3.151,0.933-4.594,1.613c-0.648,0.306-1.221,0.615-1.709,0.903V8.19z
			 M3.079,4.468C4.53,4.543,5.952,4.747,7.316,5.074c1.421,0.339,2.789,0.813,4.066,1.406c1.415,0.66,2.405,1.322,2.93,1.712v14.189
			c-0.492-0.288-1.061-0.597-1.709-0.903c-1.442-0.681-2.99-1.223-4.594-1.613c-1.589-0.384-3.242-0.618-4.93-0.699V4.468z
			 M3.079,4.468"/>
		<path clip-path="url(#SVGID_2_)" d="M27.599,21.441h-0.027c-1.898,0-3.76,0.219-5.535,0.648c-1.421,0.345-2.789,0.825-4.066,1.427
			c-1.322,0.624-2.363,1.415-2.981,1.943c-0.618-0.528-1.658-1.319-2.981-1.943c-1.274-0.603-2.642-1.082-4.063-1.427
			c-1.772-0.429-3.634-0.648-5.535-0.648H2.383c-0.348,0-0.63,0.282-0.63,0.63v0.051c0,0.348,0.282,0.63,0.63,0.63H2.41
			c1.781,0,3.526,0.201,5.188,0.603c1.328,0.321,2.609,0.765,3.802,1.325c0.471,0.222,0.894,0.444,1.262,0.654
			c0.561,0.321,1.415,0.977,1.919,1.376c0.24,0.192,0.579,0.192,0.819,0c0.504-0.399,1.355-1.056,1.913-1.373
			c0.369-0.213,0.795-0.435,1.268-0.657c1.193-0.558,2.471-1.004,3.802-1.325c1.661-0.399,3.407-0.603,5.188-0.603h0.027
			c0.348,0,0.63-0.282,0.63-0.63V22.07C28.228,21.722,27.946,21.441,27.599,21.441L27.599,21.441z M27.599,21.441"/>
	</g>
	<path display="inline" d="M5.457,8.175c0.033,0.003,3.337,0.456,6.594,2.126c0.093,0.048,0.189,0.069,0.285,0.069
		c0.228,0,0.447-0.126,0.561-0.342c0.159-0.309,0.036-0.687-0.273-0.846C9.166,7.407,5.763,6.948,5.619,6.93
		c-0.345-0.045-0.66,0.198-0.705,0.54C4.869,7.815,5.112,8.13,5.457,8.175L5.457,8.175z M5.457,8.175"/>
	<path display="inline" d="M12.336,13.497c0.228,0,0.447-0.126,0.561-0.342c0.156-0.309,0.036-0.687-0.273-0.846
		c-3.457-1.775-6.861-2.234-7.005-2.252c-0.345-0.045-0.66,0.198-0.705,0.54c-0.045,0.345,0.198,0.66,0.54,0.705
		c0.033,0.003,3.338,0.456,6.594,2.126C12.141,13.473,12.24,13.497,12.336,13.497L12.336,13.497z M12.336,13.497"/>
	<path display="inline" d="M17.079,10.028c0.111,0.216,0.333,0.342,0.561,0.342c0.096,0,0.195-0.021,0.285-0.069
		c3.25-1.667,6.543-2.12,6.594-2.126c0.345-0.045,0.588-0.36,0.543-0.705c-0.045-0.345-0.36-0.588-0.705-0.543
		c-0.144,0.018-3.544,0.48-7.005,2.252C17.044,9.341,16.924,9.719,17.079,10.028L17.079,10.028z M17.079,10.028"/>
	<path display="inline" d="M24.357,10.058c-0.144,0.018-3.544,0.48-7.005,2.252c-0.309,0.159-0.432,0.537-0.273,0.846
		c0.111,0.216,0.333,0.342,0.561,0.342c0.096,0,0.195-0.021,0.285-0.069c3.256-1.67,6.561-2.12,6.594-2.126
		c0.345-0.045,0.585-0.36,0.54-0.705C25.017,10.253,24.702,10.013,24.357,10.058L24.357,10.058z M24.357,10.058"/>
</g>
<g>
	<path stroke="#000000" stroke-width="0.2" stroke-miterlimit="10" d="M15,24.541c1.119,0,2.03-0.911,2.03-2.03v-0.406
		c0-1.119-0.911-2.03-2.03-2.03c-1.119,0-2.03,0.911-2.03,2.03v0.406C12.97,23.631,13.881,24.541,15,24.541L15,24.541z
		 M13.782,22.105c0-0.672,0.546-1.218,1.218-1.218c0.672,0,1.218,0.546,1.218,1.218v0.406c0,0.672-0.546,1.218-1.218,1.218
		c-0.672,0-1.218-0.546-1.218-1.218V22.105z M13.782,22.105"/>
	<path stroke="#000000" stroke-width="0.2" stroke-miterlimit="10" d="M16.628,24.555h-0.344c-0.141,0-0.272,0.073-0.346,0.193
		c-0.237,0.385-0.578,0.606-0.937,0.606c-0.359,0-0.701-0.221-0.938-0.606c-0.074-0.12-0.205-0.193-0.346-0.193h-0.345
		c-0.912,0-1.62,0.866-1.62,1.611v0.879c0,0.411,0.334,0.745,0.744,0.745h5.009c0.41,0,0.743-0.333,0.743-0.743v-0.881
		c0-0.354-0.165-0.749-0.44-1.058C17.49,24.751,17.071,24.555,16.628,24.555L16.628,24.555z M17.436,26.977h-4.872v-0.812
		c0-0.274,0.315-0.799,0.808-0.799h0.13c0.384,0.511,0.92,0.799,1.498,0.799c0.578,0,1.113-0.288,1.497-0.799h0.13
		c0.494,0,0.808,0.525,0.808,0.799V26.977z M17.436,26.977"/>
	<path stroke="#000000" stroke-width="0.2" stroke-miterlimit="10" d="M15,6.677c1.119,0,2.03-0.911,2.03-2.03V4.241
		c0-1.119-0.911-2.03-2.03-2.03c-1.119,0-2.03,0.911-2.03,2.03v0.406C12.97,5.766,13.881,6.677,15,6.677L15,6.677z M13.782,4.241
		c0-0.672,0.546-1.218,1.218-1.218c0.672,0,1.218,0.546,1.218,1.218v0.406c0,0.672-0.546,1.218-1.218,1.218
		c-0.672,0-1.218-0.546-1.218-1.218V4.241z M13.782,4.241"/>
	<path stroke="#000000" stroke-width="0.2" stroke-miterlimit="10" d="M16.628,6.69h-0.344c-0.141,0-0.272,0.073-0.346,0.193
		C15.701,7.268,15.359,7.489,15,7.489c-0.359,0-0.701-0.221-0.938-0.605c-0.074-0.12-0.205-0.193-0.346-0.193h-0.345
		c-0.912,0-1.62,0.866-1.62,1.611V9.18c0,0.411,0.334,0.745,0.744,0.745h5.009c0.41,0,0.743-0.333,0.743-0.743V8.301
		c0-0.353-0.165-0.749-0.44-1.058C17.49,6.886,17.071,6.69,16.628,6.69L16.628,6.69z M17.436,9.113h-4.872V8.301
		c0-0.274,0.315-0.799,0.808-0.799h0.13c0.384,0.51,0.92,0.799,1.498,0.799c0.578,0,1.113-0.288,1.497-0.799h0.13
		c0.494,0,0.808,0.524,0.808,0.799V9.113z M17.436,9.113"/>
	<path stroke="#000000" stroke-width="0.2" stroke-miterlimit="10" d="M22.714,13.173v0.406c0,1.119,0.911,2.03,2.03,2.03
		c1.119,0,2.03-0.911,2.03-2.03v-0.406c0-1.119-0.911-2.03-2.03-2.03C23.625,11.143,22.714,12.054,22.714,13.173L22.714,13.173z
		 M23.526,13.173c0-0.672,0.546-1.218,1.218-1.218c0.672,0,1.218,0.546,1.218,1.218v0.406c0,0.672-0.546,1.218-1.218,1.218
		c-0.672,0-1.218-0.546-1.218-1.218V13.173z M23.526,13.173"/>
	<path stroke="#000000" stroke-width="0.2" stroke-miterlimit="10" d="M27.552,16.175c-0.318-0.356-0.737-0.553-1.18-0.553h-0.345
		c-0.141,0-0.272,0.073-0.346,0.193c-0.237,0.385-0.578,0.605-0.938,0.605c-0.359,0-0.7-0.221-0.937-0.605
		c-0.074-0.12-0.205-0.193-0.346-0.193h-0.345c-0.912,0-1.62,0.866-1.62,1.611v0.879c0,0.41,0.334,0.744,0.745,0.744h5.009
		c0.409,0,0.743-0.333,0.743-0.743v-0.881C27.993,16.88,27.828,16.484,27.552,16.175L27.552,16.175z M27.181,18.045h-4.872v-0.812
		c0-0.274,0.315-0.799,0.808-0.799h0.13c0.384,0.51,0.919,0.799,1.497,0.799c0.578,0,1.113-0.288,1.498-0.799h0.13
		c0.493,0,0.808,0.524,0.808,0.799V18.045z M27.181,18.045"/>
	<path stroke="#000000" stroke-width="0.2" stroke-miterlimit="10" d="M5.256,15.609c1.119,0,2.03-0.911,2.03-2.03v-0.406
		c0-1.119-0.911-2.03-2.03-2.03c-1.119,0-2.03,0.911-2.03,2.03v0.406C3.226,14.698,4.136,15.609,5.256,15.609L5.256,15.609z
		 M4.038,13.173c0-0.672,0.546-1.218,1.218-1.218c0.672,0,1.218,0.546,1.218,1.218v0.406c0,0.672-0.546,1.218-1.218,1.218
		c-0.672,0-1.218-0.546-1.218-1.218V13.173z M4.038,13.173"/>
	<path stroke="#000000" stroke-width="0.2" stroke-miterlimit="10" d="M8.504,18.114v-0.881c0-0.353-0.165-0.749-0.44-1.058
		c-0.318-0.356-0.737-0.553-1.18-0.553H6.539c-0.141,0-0.272,0.073-0.346,0.193c-0.237,0.385-0.578,0.605-0.938,0.605
		c-0.359,0-0.701-0.221-0.937-0.605c-0.074-0.12-0.205-0.193-0.346-0.193H3.628c-0.913,0-1.62,0.866-1.62,1.611v0.879
		c0,0.41,0.334,0.744,0.745,0.744h5.009C8.17,18.857,8.504,18.524,8.504,18.114L8.504,18.114z M7.692,18.045H2.82v-0.812
		c0-0.274,0.315-0.799,0.808-0.799h0.13c0.384,0.51,0.919,0.799,1.497,0.799c0.578,0,1.113-0.288,1.497-0.799h0.13
		c0.494,0,0.808,0.524,0.808,0.799L7.692,18.045L7.692,18.045z M7.692,18.045"/>
	<path stroke="#000000" stroke-width="0.2" stroke-miterlimit="10" d="M11.176,24.168c-2.001-0.854-3.679-2.377-4.727-4.289
		c-0.108-0.197-0.354-0.269-0.551-0.161c-0.196,0.108-0.269,0.355-0.161,0.551c1.134,2.07,2.953,3.72,5.12,4.645
		c0.052,0.022,0.106,0.033,0.159,0.033c0.158,0,0.308-0.092,0.374-0.247C11.478,24.495,11.382,24.256,11.176,24.168L11.176,24.168z
		 M11.176,24.168"/>
	<path stroke="#000000" stroke-width="0.2" stroke-miterlimit="10" d="M24.102,19.719c-0.197-0.108-0.444-0.036-0.551,0.161
		c-1.047,1.911-2.726,3.433-4.726,4.288c-0.206,0.088-0.302,0.327-0.214,0.533c0.066,0.154,0.216,0.247,0.374,0.247
		c0.053,0,0.107-0.01,0.159-0.033c2.166-0.926,3.984-2.575,5.119-4.644C24.371,20.074,24.298,19.827,24.102,19.719L24.102,19.719z
		 M24.102,19.719"/>
	<path stroke="#000000" stroke-width="0.2" stroke-miterlimit="10" d="M18.119,5.969c2.163,0.73,4.012,2.21,5.206,4.168
		c0.076,0.125,0.21,0.195,0.347,0.195c0.072,0,0.145-0.019,0.211-0.06c0.191-0.117,0.252-0.367,0.135-0.558
		c-1.293-2.12-3.296-3.723-5.639-4.514c-0.212-0.072-0.443,0.042-0.514,0.255C17.793,5.666,17.907,5.897,18.119,5.969L18.119,5.969z
		 M18.119,5.969"/>
	<path stroke="#000000" stroke-width="0.2" stroke-miterlimit="10" d="M6.117,10.271c0.066,0.04,0.139,0.06,0.211,0.06
		c0.137,0,0.271-0.069,0.347-0.195c1.194-1.958,3.043-3.438,5.207-4.168c0.213-0.072,0.327-0.302,0.255-0.514
		c-0.072-0.213-0.302-0.327-0.514-0.255C9.278,5.99,7.275,7.593,5.982,9.714C5.865,9.905,5.925,10.155,6.117,10.271L6.117,10.271z
		 M6.117,10.271"/>
</g>
</svg>
