<?xml version="1.0" encoding="utf-8"?>
<!-- Generator: Adobe Illustrator 16.0.0, SVG Export Plug-In . SVG Version: 6.00 Build 0)  -->
<!DOCTYPE svg PUBLIC "-//W3C//DTD SVG 1.1//EN" "http://www.w3.org/Graphics/SVG/1.1/DTD/svg11.dtd">
<svg version="1.1" id="Layer_1" xmlns="http://www.w3.org/2000/svg" xmlns:xlink="http://www.w3.org/1999/xlink" x="0px" y="0px"
	 width="30px" height="30px" viewBox="0 0 30 30" enable-background="new 0 0 30 30" xml:space="preserve">
<g display="none">
	<g display="inline">
		<g>
			<defs>
				<rect id="SVGID_1_" x="1.754" y="3.137" width="26.493" height="23.726"/>
			</defs>
			<clipPath id="SVGID_2_">
				<use xlink:href="#SVGID_1_"  overflow="visible"/>
			</clipPath>
			<path clip-path="url(#SVGID_2_)" d="M2.536,20.454c5.883,0.168,9.922,2.252,11.829,3.499c0,0,0.177,0.099,0.63,0.432
				c0.468-0.333,0.63-0.432,0.63-0.432c1.907-1.247,5.945-3.328,11.829-3.499c0.426-0.013,0.765-0.36,0.765-0.786V3.923
				c0-0.441-0.365-0.798-0.807-0.786c-6.615,0.201-10.889,2.819-12.414,3.928c-1.532-1.11-5.808-3.727-12.42-3.928
				C2.137,3.125,1.772,3.479,1.772,3.923v15.745C1.772,20.094,2.111,20.441,2.536,20.454L2.536,20.454z M15.673,8.19
				c0.525-0.39,1.515-1.056,2.931-1.712c1.273-0.594,2.645-1.067,4.065-1.406c1.367-0.327,2.789-0.528,4.237-0.606v14.696
				c-1.686,0.081-3.338,0.314-4.93,0.699c-1.604,0.39-3.151,0.933-4.595,1.613c-0.647,0.305-1.221,0.614-1.709,0.902V8.19z
				 M3.079,4.468C4.53,4.543,5.952,4.747,7.316,5.074c1.421,0.339,2.789,0.813,4.066,1.406c1.415,0.66,2.405,1.322,2.93,1.712
				v14.189c-0.492-0.288-1.061-0.597-1.709-0.902c-1.442-0.682-2.99-1.224-4.594-1.613c-1.589-0.385-3.242-0.618-4.93-0.699V4.468z"
				/>
		</g>
		<g>
			<defs>
				<rect id="SVGID_3_" x="1.754" y="3.137" width="26.493" height="23.726"/>
			</defs>
			<clipPath id="SVGID_4_">
				<use xlink:href="#SVGID_3_"  overflow="visible"/>
			</clipPath>
			<path clip-path="url(#SVGID_4_)" d="M27.6,21.441h-0.027c-1.898,0-3.76,0.219-5.535,0.647c-1.421,0.345-2.789,0.825-4.066,1.427
				c-1.322,0.625-2.363,1.416-2.98,1.943c-0.618-0.527-1.658-1.318-2.981-1.943c-1.274-0.603-2.642-1.082-4.063-1.427
				c-1.772-0.429-3.634-0.647-5.535-0.647H2.383c-0.348,0-0.63,0.281-0.63,0.629v0.052c0,0.349,0.282,0.63,0.63,0.63H2.41
				c1.781,0,3.526,0.201,5.188,0.604c1.328,0.32,2.609,0.765,3.802,1.324c0.471,0.223,0.894,0.444,1.262,0.654
				c0.561,0.32,1.415,0.977,1.919,1.376c0.24,0.192,0.579,0.192,0.819,0c0.504-0.399,1.355-1.056,1.913-1.373
				c0.369-0.213,0.795-0.435,1.269-0.657c1.192-0.558,2.471-1.004,3.802-1.324c1.661-0.399,3.407-0.604,5.188-0.604h0.027
				c0.348,0,0.631-0.281,0.631-0.63V22.07C28.229,21.723,27.945,21.441,27.6,21.441L27.6,21.441z"/>
		</g>
	</g>
	<path display="inline" d="M5.457,8.175c0.033,0.003,3.337,0.456,6.594,2.126c0.093,0.048,0.189,0.069,0.285,0.069
		c0.228,0,0.447-0.126,0.561-0.342c0.159-0.309,0.036-0.687-0.273-0.846C9.166,7.407,5.763,6.948,5.619,6.93
		c-0.345-0.045-0.66,0.198-0.705,0.54C4.869,7.815,5.112,8.13,5.457,8.175L5.457,8.175z"/>
	<path display="inline" d="M12.336,13.497c0.228,0,0.447-0.126,0.561-0.342c0.156-0.309,0.036-0.687-0.273-0.846
		c-3.457-1.775-6.861-2.234-7.005-2.252c-0.345-0.045-0.66,0.198-0.705,0.54c-0.045,0.345,0.198,0.66,0.54,0.705
		c0.033,0.003,3.338,0.456,6.594,2.126C12.141,13.473,12.24,13.497,12.336,13.497L12.336,13.497z"/>
	<path display="inline" d="M17.079,10.028c0.11,0.216,0.333,0.342,0.562,0.342c0.096,0,0.194-0.021,0.284-0.069
		c3.25-1.667,6.543-2.12,6.595-2.126c0.345-0.045,0.588-0.36,0.543-0.705c-0.045-0.345-0.36-0.588-0.705-0.543
		c-0.145,0.018-3.545,0.48-7.006,2.252C17.044,9.341,16.924,9.719,17.079,10.028L17.079,10.028z"/>
	<path display="inline" d="M24.357,10.058c-0.145,0.018-3.545,0.48-7.006,2.252c-0.309,0.159-0.432,0.537-0.272,0.846
		c0.11,0.216,0.333,0.342,0.562,0.342c0.096,0,0.194-0.021,0.284-0.069c3.257-1.67,6.562-2.12,6.595-2.126
		c0.345-0.045,0.584-0.36,0.539-0.705C25.018,10.253,24.702,10.013,24.357,10.058L24.357,10.058z"/>
</g>
<g display="none">
	<path display="inline" stroke="#000000" stroke-width="0.2" stroke-miterlimit="10" d="M15,24.541c1.119,0,2.029-0.911,2.029-2.03
		v-0.405c0-1.119-0.91-2.03-2.029-2.03s-2.03,0.911-2.03,2.03v0.405C12.97,23.631,13.881,24.541,15,24.541L15,24.541z
		 M13.782,22.105c0-0.672,0.546-1.219,1.218-1.219s1.218,0.547,1.218,1.219v0.405c0,0.673-0.546,1.218-1.218,1.218
		s-1.218-0.545-1.218-1.218V22.105z"/>
	<path display="inline" stroke="#000000" stroke-width="0.2" stroke-miterlimit="10" d="M16.628,24.555h-0.344
		c-0.142,0-0.272,0.073-0.347,0.193c-0.236,0.385-0.578,0.605-0.937,0.605s-0.701-0.221-0.938-0.605
		c-0.074-0.12-0.205-0.193-0.346-0.193h-0.345c-0.912,0-1.62,0.866-1.62,1.611v0.879c0,0.411,0.334,0.745,0.744,0.745h5.009
		c0.41,0,0.743-0.333,0.743-0.743v-0.881c0-0.354-0.165-0.749-0.439-1.059C17.49,24.751,17.07,24.555,16.628,24.555L16.628,24.555z
		 M17.436,26.977h-4.872v-0.812c0-0.274,0.315-0.799,0.808-0.799h0.13c0.384,0.511,0.92,0.799,1.498,0.799s1.113-0.288,1.497-0.799
		h0.13c0.494,0,0.809,0.524,0.809,0.799V26.977L17.436,26.977z"/>
	<path display="inline" stroke="#000000" stroke-width="0.2" stroke-miterlimit="10" d="M15,6.677c1.119,0,2.029-0.911,2.029-2.03
		V4.241c0-1.119-0.91-2.03-2.029-2.03s-2.03,0.911-2.03,2.03v0.406C12.97,5.766,13.881,6.677,15,6.677L15,6.677z M13.782,4.241
		c0-0.672,0.546-1.218,1.218-1.218s1.218,0.546,1.218,1.218v0.406c0,0.672-0.546,1.218-1.218,1.218s-1.218-0.546-1.218-1.218V4.241z
		"/>
	<path display="inline" stroke="#000000" stroke-width="0.2" stroke-miterlimit="10" d="M16.628,6.69h-0.344
		c-0.142,0-0.272,0.073-0.347,0.193C15.701,7.268,15.359,7.489,15,7.489s-0.701-0.221-0.938-0.605
		c-0.074-0.12-0.205-0.193-0.346-0.193h-0.345c-0.912,0-1.62,0.866-1.62,1.611V9.18c0,0.411,0.334,0.745,0.744,0.745h5.009
		c0.41,0,0.743-0.333,0.743-0.743V8.301c0-0.353-0.165-0.749-0.44-1.058C17.49,6.886,17.07,6.69,16.628,6.69L16.628,6.69z
		 M17.436,9.113h-4.872V8.301c0-0.274,0.315-0.799,0.808-0.799h0.13c0.384,0.51,0.92,0.799,1.498,0.799s1.113-0.288,1.497-0.799
		h0.13c0.494,0,0.809,0.524,0.809,0.799V9.113L17.436,9.113z"/>
	<path display="inline" stroke="#000000" stroke-width="0.2" stroke-miterlimit="10" d="M22.714,13.173v0.406
		c0,1.119,0.911,2.03,2.03,2.03s2.029-0.911,2.029-2.03v-0.406c0-1.119-0.91-2.03-2.029-2.03S22.714,12.054,22.714,13.173
		L22.714,13.173z M23.525,13.173c0-0.672,0.547-1.218,1.219-1.218s1.218,0.546,1.218,1.218v0.406c0,0.672-0.546,1.218-1.218,1.218
		s-1.219-0.546-1.219-1.218V13.173z"/>
	<path display="inline" stroke="#000000" stroke-width="0.2" stroke-miterlimit="10" d="M27.552,16.175
		c-0.317-0.356-0.737-0.553-1.18-0.553h-0.345c-0.142,0-0.272,0.073-0.346,0.192c-0.238,0.386-0.578,0.605-0.938,0.605
		c-0.359,0-0.7-0.221-0.937-0.605c-0.074-0.119-0.205-0.192-0.347-0.192h-0.345c-0.912,0-1.62,0.866-1.62,1.61v0.879
		c0,0.41,0.334,0.744,0.745,0.744h5.009c0.409,0,0.743-0.332,0.743-0.742v-0.881C27.993,16.88,27.828,16.484,27.552,16.175
		L27.552,16.175z M27.182,18.045h-4.873v-0.813c0-0.273,0.315-0.799,0.809-0.799h0.13c0.384,0.51,0.919,0.799,1.497,0.799
		s1.113-0.287,1.498-0.799h0.13c0.493,0,0.808,0.524,0.808,0.799v0.813H27.182z"/>
	<path display="inline" stroke="#000000" stroke-width="0.2" stroke-miterlimit="10" d="M5.256,15.609c1.119,0,2.03-0.911,2.03-2.03
		v-0.406c0-1.119-0.911-2.03-2.03-2.03c-1.119,0-2.03,0.911-2.03,2.03v0.406C3.226,14.698,4.136,15.609,5.256,15.609L5.256,15.609z
		 M4.038,13.173c0-0.672,0.546-1.218,1.218-1.218c0.672,0,1.218,0.546,1.218,1.218v0.406c0,0.672-0.546,1.218-1.218,1.218
		c-0.672,0-1.218-0.546-1.218-1.218V13.173z"/>
	<path display="inline" stroke="#000000" stroke-width="0.2" stroke-miterlimit="10" d="M8.504,18.114v-0.882
		c0-0.353-0.165-0.748-0.44-1.058c-0.318-0.356-0.737-0.553-1.18-0.553H6.539c-0.141,0-0.272,0.073-0.346,0.192
		C5.956,16.2,5.615,16.42,5.255,16.42c-0.359,0-0.701-0.221-0.937-0.605c-0.074-0.119-0.205-0.192-0.346-0.192H3.628
		c-0.913,0-1.62,0.866-1.62,1.61v0.879c0,0.41,0.334,0.744,0.745,0.744h5.009C8.17,18.857,8.504,18.523,8.504,18.114L8.504,18.114z
		 M7.692,18.045H2.82v-0.813c0-0.273,0.315-0.799,0.808-0.799h0.13c0.384,0.51,0.919,0.799,1.497,0.799s1.113-0.287,1.497-0.799
		h0.13c0.494,0,0.808,0.524,0.808,0.799L7.692,18.045L7.692,18.045z"/>
	<path display="inline" stroke="#000000" stroke-width="0.2" stroke-miterlimit="10" d="M11.176,24.168
		c-2.001-0.854-3.679-2.377-4.727-4.289c-0.108-0.197-0.354-0.27-0.551-0.161c-0.196,0.108-0.269,0.355-0.161,0.552
		c1.134,2.069,2.953,3.72,5.12,4.645c0.052,0.021,0.106,0.033,0.159,0.033c0.158,0,0.308-0.092,0.374-0.247
		C11.478,24.495,11.382,24.256,11.176,24.168L11.176,24.168z"/>
	<path display="inline" stroke="#000000" stroke-width="0.2" stroke-miterlimit="10" d="M24.102,19.719
		c-0.197-0.107-0.443-0.035-0.551,0.161c-1.047,1.911-2.726,3.433-4.726,4.288c-0.206,0.088-0.302,0.327-0.214,0.533
		c0.065,0.154,0.216,0.247,0.373,0.247c0.054,0,0.107-0.011,0.16-0.033c2.166-0.926,3.983-2.575,5.119-4.644
		C24.371,20.074,24.298,19.827,24.102,19.719L24.102,19.719z"/>
	<path display="inline" stroke="#000000" stroke-width="0.2" stroke-miterlimit="10" d="M18.119,5.969
		c2.163,0.73,4.012,2.21,5.206,4.168c0.075,0.125,0.21,0.195,0.347,0.195c0.072,0,0.145-0.019,0.211-0.06
		c0.191-0.117,0.252-0.367,0.135-0.558c-1.293-2.12-3.295-3.723-5.639-4.514c-0.212-0.072-0.443,0.042-0.514,0.255
		C17.793,5.666,17.907,5.897,18.119,5.969L18.119,5.969z"/>
	<path display="inline" stroke="#000000" stroke-width="0.2" stroke-miterlimit="10" d="M6.117,10.271
		c0.066,0.04,0.139,0.06,0.211,0.06c0.137,0,0.271-0.069,0.347-0.195c1.194-1.958,3.043-3.438,5.207-4.168
		c0.213-0.072,0.327-0.302,0.255-0.514c-0.072-0.213-0.302-0.327-0.514-0.255C9.278,5.99,7.275,7.593,5.982,9.714
		C5.865,9.905,5.925,10.155,6.117,10.271L6.117,10.271z"/>
</g>
<g display="none">
	<g display="inline">
		<defs>
			<rect id="SVGID_5_" x="1.39" y="2.524" width="27.219" height="24.951"/>
		</defs>
		<clipPath id="SVGID_6_">
			<use xlink:href="#SVGID_5_"  overflow="visible"/>
		</clipPath>
		<path clip-path="url(#SVGID_6_)" d="M7.27,14.279c1.247,0,2.44-0.389,3.451-1.123c1.04-0.755,1.738-1.717,2.135-2.938v-0.001
			c0.198-0.612,0.288-1.172,0.288-1.815c0-3.241-2.636-5.877-5.877-5.877c-1.285,0-2.415,0.366-3.455,1.122
			c-2.622,1.905-3.205,5.588-1.301,8.21C3.613,13.373,5.392,14.279,7.27,14.279L7.27,14.279z M10.529,12.067l-1.422-1.958
			l-0.57-0.783l3.223,1.047C11.477,11.04,11.076,11.592,10.529,12.067L10.529,12.067z M12.171,8.401c0,0.375-0.034,0.707-0.11,1.047
			L7.752,8.049V3.521C10.229,3.765,12.171,5.86,12.171,8.401L12.171,8.401z M4.382,4.433C5.128,3.892,5.899,3.595,6.78,3.518v4.884
			c0,0.025,0.001,0.051,0.005,0.075v0.002C6.787,8.489,6.791,8.5,6.794,8.511c0.003,0.014,0.004,0.026,0.009,0.04
			c0,0.001,0,0.001,0,0.002c0.005,0.013,0.012,0.026,0.017,0.04c0.004,0.009,0.007,0.019,0.012,0.028c0,0.001,0,0.001,0,0.001
			c0.012,0.022,0.025,0.044,0.04,0.065l2.869,3.949c-0.75,0.439-1.595,0.67-2.472,0.67c-1.567,0-3.052-0.756-3.973-2.021
			C1.707,9.097,2.194,6.022,4.382,4.433L4.382,4.433z M4.382,4.433"/>
	</g>
	<path display="inline" d="M17.111,15.193h2.621c0.268,0,0.484-0.217,0.484-0.485V3.01c0-0.269-0.217-0.485-0.484-0.485h-2.621
		c-0.268,0-0.486,0.217-0.486,0.485v11.698C16.625,14.977,16.844,15.193,17.111,15.193L17.111,15.193z M17.598,3.496h1.648v10.726
		h-1.648V3.496z M17.598,3.496"/>
	<path display="inline" d="M21.303,15.193h2.619c0.268,0,0.486-0.217,0.486-0.485V8.921c0-0.268-0.219-0.486-0.486-0.486h-2.619
		c-0.27,0-0.486,0.219-0.486,0.486v5.787C20.816,14.977,21.033,15.193,21.303,15.193L21.303,15.193z M21.787,9.407h1.648v4.814
		h-1.648V9.407z M21.787,9.407"/>
	<path display="inline" d="M28.113,5.717h-2.621c-0.268,0-0.486,0.218-0.486,0.486v8.505c0,0.269,0.219,0.485,0.486,0.485h2.621
		c0.268,0,0.484-0.217,0.484-0.485V6.203C28.598,5.935,28.381,5.717,28.113,5.717L28.113,5.717z M27.627,14.222h-1.648V6.688h1.648
		V14.222z M27.627,14.222"/>
	<path display="inline" d="M27.73,20.046c-0.42,0-0.762,0.34-0.762,0.76c0,0.038,0.004,0.076,0.01,0.11l-4.238,5.007
		c-0.025-0.002-0.053-0.004-0.078-0.004c-0.031,0-0.063,0.002-0.092,0.006l-4.186-3.329c-0.049-0.326-0.305-0.585-0.631-0.636
		l-4.259-5.031c0-0.002,0-0.004,0-0.008c0-0.42-0.341-0.76-0.76-0.76c-0.37,0-0.679,0.266-0.746,0.615l-3.992,2.638
		c-0.088-0.036-0.186-0.058-0.289-0.058c-0.12,0-0.231,0.029-0.333,0.078l-3.854-1.522c-0.107-0.291-0.385-0.498-0.713-0.498
		c-0.42,0-0.761,0.34-0.761,0.76s0.341,0.762,0.761,0.762c0.141,0,0.274-0.04,0.387-0.108l3.781,1.496
		c0.089,0.319,0.383,0.555,0.731,0.555c0.365,0,0.668-0.257,0.743-0.599l4.01-2.648c0.084,0.032,0.177,0.052,0.273,0.052
		c0.039,0,0.078-0.004,0.115-0.01l4.064,4.8c-0.027,0.074-0.041,0.153-0.041,0.237c0,0.42,0.342,0.76,0.762,0.76
		c0.084,0,0.164-0.014,0.24-0.038l4.029,3.205c-0.002,0.013-0.004,0.028-0.004,0.041c0,0.42,0.342,0.762,0.762,0.762
		c0.418,0,0.758-0.34,0.758-0.762c0-0.017,0-0.034-0.002-0.051l4.285-5.062c0.008,0,0.018,0.002,0.025,0.002
		c0.422,0,0.762-0.341,0.762-0.762C28.49,20.386,28.15,20.046,27.73,20.046L27.73,20.046z M27.73,20.046"/>
</g>
<g display="none">
	<path display="inline" d="M16.523,8.675c1.119-0.751,1.89-2.236,1.89-3.57c0-1.886-1.529-3.416-3.411-3.416
		c-1.886,0-3.415,1.53-3.415,3.416c0,1.334,0.771,2.819,1.889,3.57C10.8,9.356,8.82,11.679,8.82,13.396
		c0,2.036,12.365,2.036,12.365,0C21.185,11.679,19.201,9.356,16.523,8.675L16.523,8.675z M14.998,14.923l-1.73-1.73l1.456-3.525
		h-0.011l-0.568-0.649c0.273,0.099,0.559,0.155,0.853,0.155c0.297,0,0.584-0.057,0.857-0.155l-0.568,0.649h-0.016l1.461,3.525
		L14.998,14.923z M14.998,14.923"/>
	<path display="inline" d="M11.99,22.934c0.364,0,0.657-0.421,0.657-0.784c0-0.362-0.293-0.653-0.657-0.653
		c-0.362,0-0.657,0.291-0.657,0.653C11.333,22.513,11.628,22.934,11.99,22.934L11.99,22.934z M11.99,22.934"/>
	<path display="inline" d="M13.276,23.391c-0.004-0.021-0.013-0.037-0.021-0.058c-0.004-0.013-0.016-0.021-0.024-0.032
		c-0.012-0.017-0.021-0.033-0.036-0.045c-0.013-0.008-0.025-0.017-0.038-0.025c-0.012-0.008-0.024-0.016-0.041-0.023
		c-0.02-0.008-0.546-0.191-1.023-0.217l-0.066,0.131h-0.003l0.174,1.359l-0.208,0.362l-0.208-0.362l0.176-1.359l-0.066-0.131
		c-0.48,0.025-1.002,0.209-1.028,0.217c-0.013,0.008-0.024,0.016-0.037,0.023c-0.017,0.009-0.028,0.018-0.041,0.025
		c-0.012,0.012-0.025,0.028-0.037,0.045c-0.008,0.012-0.016,0.02-0.025,0.032c-0.007,0.017-0.011,0.037-0.016,0.058
		c-0.004,0.012-0.013,0.02-0.013,0.032l-0.208,1.869c-0.017,0.143,0.085,0.273,0.229,0.285c0.007,0.004,0.016,0.004,0.028,0.004
		c0.13,0,0.24-0.102,0.257-0.232l0.188-1.701c0.024-0.004,0.049-0.012,0.073-0.021v1.771l-0.207,2.567
		c-0.013,0.171,0.114,0.321,0.285,0.335c0.008,0,0.016,0,0.028,0c0.16,0,0.294-0.123,0.306-0.286l0.188-2.317
		c0.041,0.016,0.081,0.024,0.126,0.024c0.045,0,0.085-0.009,0.126-0.024l0.188,2.317c0.012,0.163,0.147,0.286,0.31,0.286
		c0.009,0,0.017,0,0.024,0c0.171-0.014,0.297-0.164,0.286-0.335l-0.208-2.567v-1.771c0.028,0.009,0.052,0.017,0.073,0.021
		l0.188,1.701c0.016,0.135,0.131,0.232,0.257,0.232c0.012,0,0.02,0,0.028-0.004c0.143-0.012,0.245-0.143,0.233-0.285l-0.209-1.869
		C13.285,23.41,13.28,23.402,13.276,23.391L13.276,23.391z M13.276,23.391"/>
	<path display="inline" d="M14.998,22.934c0.363,0,0.657-0.421,0.657-0.784c0-0.362-0.294-0.653-0.657-0.653
		c-0.359,0-0.657,0.291-0.657,0.653C14.341,22.513,14.639,22.934,14.998,22.934L14.998,22.934z M14.998,22.934"/>
	<path display="inline" d="M16.283,23.391c-0.004-0.021-0.008-0.037-0.016-0.058c-0.009-0.013-0.017-0.021-0.025-0.032
		c-0.012-0.017-0.023-0.033-0.036-0.045c-0.013-0.008-0.028-0.017-0.041-0.025c-0.013-0.008-0.024-0.016-0.037-0.023
		c-0.024-0.008-0.546-0.191-1.028-0.217l-0.066,0.131l0.171,1.359l-0.208,0.362l-0.208-0.358l0.175-1.363L14.9,22.99
		c-0.482,0.025-1.004,0.209-1.028,0.221c-0.012,0.004-0.024,0.012-0.037,0.023c-0.012,0.005-0.028,0.014-0.036,0.021
		c-0.017,0.016-0.029,0.028-0.041,0.045c-0.008,0.012-0.017,0.02-0.025,0.032c-0.009,0.021-0.013,0.041-0.016,0.058
		c-0.004,0.012-0.013,0.02-0.013,0.032l-0.208,1.869c-0.017,0.143,0.086,0.273,0.228,0.285c0.013,0.004,0.021,0.004,0.029,0.004
		c0.131,0,0.245-0.102,0.261-0.232l0.187-1.701c0.021-0.004,0.045-0.012,0.07-0.021v1.771l-0.204,2.567
		c-0.017,0.171,0.114,0.321,0.286,0.335c0.008,0,0.017,0,0.024,0c0.159,0,0.298-0.123,0.31-0.286l0.188-2.317
		c0.037,0.016,0.078,0.024,0.126,0.024c0.045,0,0.086-0.009,0.123-0.024l0.188,2.317c0.013,0.163,0.151,0.286,0.31,0.286
		c0.009,0,0.017,0,0.024,0c0.176-0.014,0.303-0.164,0.286-0.335l-0.204-2.567v-1.771c0.024,0.009,0.049,0.017,0.069,0.021
		l0.188,1.701c0.016,0.135,0.13,0.232,0.26,0.232c0.009,0,0.018,0,0.029-0.004c0.143-0.012,0.244-0.143,0.229-0.285l-0.209-1.869
		C16.295,23.41,16.287,23.402,16.283,23.391L16.283,23.391z M16.283,23.391"/>
	<path display="inline" d="M18.01,22.934c0.363,0,0.657-0.421,0.657-0.784c0-0.362-0.294-0.653-0.657-0.653
		s-0.657,0.291-0.657,0.653C17.353,22.513,17.646,22.934,18.01,22.934L18.01,22.934z M18.01,22.934"/>
	<path display="inline" d="M19.295,23.391c-0.008-0.021-0.012-0.037-0.021-0.058c-0.004-0.013-0.017-0.021-0.024-0.032
		c-0.012-0.017-0.021-0.033-0.037-0.045c-0.012-0.008-0.023-0.017-0.036-0.025c-0.013-0.008-0.024-0.016-0.041-0.023
		c-0.024-0.008-0.543-0.191-1.024-0.217l-0.064,0.131h-0.004l0.175,1.359l-0.208,0.362l-0.209-0.362l0.176-1.359h-0.004
		l-0.064-0.131c-0.478,0.025-1.001,0.209-1.024,0.217c-0.017,0.008-0.029,0.016-0.041,0.023c-0.013,0.009-0.024,0.018-0.037,0.025
		c-0.017,0.012-0.024,0.028-0.036,0.045c-0.009,0.012-0.021,0.02-0.025,0.032c-0.008,0.017-0.012,0.037-0.02,0.058
		c0,0.012-0.009,0.02-0.013,0.032l-0.204,1.869c-0.016,0.143,0.085,0.27,0.229,0.285c0.008,0,0.021,0,0.028,0
		c0.131,0,0.241-0.098,0.258-0.229l0.188-1.701c0.023-0.008,0.049-0.012,0.073-0.021v1.771l-0.204,2.567
		c-0.016,0.171,0.109,0.321,0.285,0.335c0.009,0,0.012,0,0.025,0c0.159,0,0.294-0.123,0.31-0.286l0.184-2.322
		c0.041,0.021,0.082,0.029,0.127,0.029s0.09-0.009,0.127-0.029l0.188,2.322c0.012,0.163,0.15,0.286,0.31,0.286
		c0.008,0,0.016,0,0.025,0c0.17-0.018,0.297-0.164,0.284-0.335l-0.208-2.567v-1.771c0.029,0.009,0.053,0.013,0.074,0.021
		l0.188,1.701c0.017,0.131,0.131,0.229,0.257,0.229c0.013,0,0.021,0,0.033,0c0.139-0.016,0.24-0.143,0.229-0.285l-0.209-1.869
		C19.303,23.41,19.295,23.402,19.295,23.391L19.295,23.391z M19.295,23.391"/>
	<path display="inline" d="M28.492,24.998c0.013-0.367-0.049-0.738-0.188-1.093l0.571-0.352l-0.559-0.894l-0.567,0.355
		c-0.257-0.278-0.563-0.495-0.898-0.646L27,21.721l-1.024-0.236l-0.147,0.653c-0.367-0.017-0.738,0.045-1.093,0.184l-0.355-0.567
		l-0.89,0.556l0.355,0.566c-0.278,0.257-0.495,0.567-0.646,0.902l-0.649-0.151l-0.236,1.02l0.649,0.151
		c-0.013,0.367,0.049,0.738,0.188,1.094l-0.571,0.354l0.56,0.89l0.566-0.354c0.257,0.277,0.563,0.494,0.898,0.645l-0.147,0.649
		l1.02,0.236l0.151-0.653c0.366,0.017,0.738-0.045,1.094-0.184l0.351,0.567l0.89-0.555l-0.351-0.567
		c0.277-0.257,0.494-0.567,0.641-0.902l0.653,0.152l0.236-1.024L28.492,24.998z M26.727,26.495
		c-0.882,0.551-2.046,0.286-2.596-0.599c-0.551-0.882-0.281-2.046,0.595-2.596c0.886-0.551,2.05-0.285,2.6,0.599
		C27.876,24.781,27.606,25.945,26.727,26.495L26.727,26.495z M26.727,26.495"/>
	<path display="inline" d="M4.271,21.484c-1.882,0-3.412,1.531-3.412,3.412c0,1.885,1.53,3.415,3.412,3.415
		c1.884,0,3.415-1.53,3.415-3.415C7.686,23.016,6.155,21.484,4.271,21.484L4.271,21.484z M5.735,27.279L5.6,27.046l-0.13,0.078
		l0.13,0.229c-0.375,0.204-0.8,0.327-1.253,0.343v-0.273H4.196v0.273c-0.453-0.016-0.878-0.139-1.253-0.343l0.135-0.229
		l-0.135-0.078l-0.134,0.233c-0.371-0.233-0.686-0.543-0.914-0.918l0.229-0.135l-0.077-0.131l-0.225,0.131
		c-0.208-0.375-0.331-0.796-0.343-1.249h0.27v-0.155h-0.27c0.012-0.453,0.139-0.877,0.343-1.253L2.046,23.7l0.077-0.131
		l-0.229-0.134c0.229-0.371,0.539-0.686,0.914-0.919l0.134,0.233l0.131-0.074l-0.131-0.228c0.375-0.209,0.8-0.331,1.253-0.344v0.27
		h0.061l-0.416,0.829h0.277v1.607l-0.861,0.497l-0.139-0.24l-0.526,0.8l0.955-0.057l-0.139-0.241l0.939-0.539
		c0.004-0.004,0.004-0.012,0.013-0.016c0.016-0.017,0.024-0.029,0.037-0.049c0.008-0.017,0.015-0.029,0.02-0.05
		c0-0.008,0.008-0.012,0.008-0.02v-1.693h0.273l-0.413-0.829h0.062v-0.273C4.8,22.117,5.221,22.239,5.6,22.444l-0.135,0.228
		L5.6,22.75l0.131-0.233c0.375,0.233,0.689,0.544,0.918,0.919L6.42,23.569L6.494,23.7l0.228-0.131
		c0.205,0.376,0.332,0.796,0.342,1.249H6.796v0.155h0.268c-0.011,0.453-0.138,0.878-0.342,1.253l-0.228-0.131L6.42,26.227
		l0.229,0.135C6.42,26.731,6.106,27.046,5.735,27.279L5.735,27.279z M5.735,27.279"/>
	<path display="inline" d="M15.227,16.882v-0.829h-0.454v0.829H4.045v3.607h0.452V17.33h10.275v3.159h0.454V17.33h10.275v3.159
		h0.452v-3.607H15.227z M15.227,16.882"/>
</g>
<g display="none">
	<path display="inline" d="M6.565,9.155c0,1.198,0.948,2.171,2.118,2.171c1.171,0,2.119-0.973,2.119-2.171
		c0-0.909-0.546-1.687-1.318-2.008l0.133-0.18c0,0,0.512-0.742,0.55-0.796c0.091-0.125,0.214-0.698-0.635,0.071
		c-0.848,0.77-2.304-0.652-2.361-0.465c-0.058,0.188,0.836,1.19,0.836,1.19L8.1,7.071C7.214,7.332,6.565,8.165,6.565,9.155
		L6.565,9.155z M8.6,9.194C8.22,9.086,7.96,8.937,7.96,8.645c0-0.264,0.221-0.469,0.601-0.532V7.828h0.349v0.263
		C9.146,8.1,9.308,8.143,9.424,8.189L9.32,8.529C9.229,8.495,9.064,8.427,8.809,8.427c-0.229,0-0.305,0.084-0.305,0.168
		c0,0.098,0.124,0.161,0.426,0.257c0.422,0.125,0.593,0.291,0.593,0.561c0,0.266-0.225,0.493-0.631,0.554v0.305H8.543V9.987
		C8.305,9.978,8.074,9.925,7.939,9.857l0.106-0.351c0.149,0.07,0.358,0.133,0.59,0.133c0.201,0,0.341-0.065,0.341-0.186
		C8.976,9.341,8.861,9.269,8.6,9.194L8.6,9.194z M8.6,9.194"/>
	<path display="inline" d="M21.109,6.677c-1.281,0-2.323,1.042-2.323,2.323c0,1.283,1.042,2.326,2.323,2.326
		c1.282,0,2.325-1.043,2.325-2.326C23.435,7.719,22.392,6.677,21.109,6.677L21.109,6.677z M21.109,10.813
		C20.11,10.813,19.297,10,19.297,9s0.813-1.812,1.813-1.812c1,0,1.813,0.812,1.813,1.812S22.109,10.813,21.109,10.813L21.109,10.813
		z M21.109,10.813"/>
	<path display="inline" d="M22.596,8.354c-0.069-0.124-0.226-0.172-0.353-0.104l-1.075,0.588l-1.21-0.593
		c-0.13-0.062-0.286-0.009-0.348,0.12c-0.063,0.128-0.009,0.283,0.119,0.346l1.331,0.651c0.036,0.017,0.073,0.026,0.113,0.026
		c0.043,0,0.087-0.01,0.126-0.031l1.191-0.651C22.617,8.639,22.664,8.481,22.596,8.354L22.596,8.354z M22.596,8.354"/>
	<path display="inline" d="M14.8,7.638c1.411-0.027,2.548-1.179,2.548-2.598c0-1.418-1.137-2.57-2.548-2.597
		c-1.412,0.027-2.548,1.179-2.548,2.597C12.252,6.458,13.388,7.61,14.8,7.638L14.8,7.638z M14.8,7.638"/>
	<path display="inline" d="M21.421,11.921c-0.75-0.001-1.671-0.035-2.088-0.086c-0.127-0.172-0.315-0.458-0.464-0.682
		c-0.528-0.795-1.156-1.737-1.843-2.389c-0.512-0.485-0.972-0.819-1.569-0.981c-0.001,0-0.004,0-0.007,0l-0.627,0.659L14.8,8.417
		l0.656,4.31l-0.627,0.857h-0.013L14.8,13.562l-0.017,0.023H14.77l-0.626-0.857l0.656-4.31l-0.023,0.023l-0.628-0.659
		c-0.002,0-0.005,0-0.006,0c-0.599,0.163-1.058,0.496-1.569,0.981c-0.688,0.652-1.314,1.594-1.843,2.389
		c-0.148,0.224-0.337,0.51-0.464,0.682c-0.417,0.051-1.338,0.085-2.088,0.086c-0.557,0-1.009,0.452-1.008,1.01
		c0,0.557,0.451,1.007,1.009,1.007l0,0c2.452-0.001,2.875-0.199,3.033-0.274c0.319-0.15,0.546-0.426,0.903-0.954v2.997
		c0,0.432,0.191,0.943,0.235,1c-0.006,0.049-0.007,9.654-0.007,9.654c0,0.659,0.468,1.198,1.126,1.196
		c0.658,0,1.193-0.532,1.192-1.193v-8.291H14.8h0.137v8.291c-0.001,0.661,0.533,1.193,1.192,1.193
		c0.658,0.002,1.126-0.537,1.126-1.196c0,0,0-9.605-0.008-9.654c0.045-0.057,0.236-0.568,0.236-1V12.71
		c0.357,0.528,0.584,0.804,0.902,0.954c0.159,0.075,0.581,0.272,3.034,0.274l0,0c0.558,0,1.008-0.451,1.01-1.007
		C22.43,12.373,21.979,11.921,21.421,11.921L21.421,11.921z M21.421,11.921"/>
</g>
<g display="none">
	<g display="inline">
		<defs>
			<rect id="SVGID_7_" x="2.191" y="2.536" width="25.617" height="24.928"/>
		</defs>
		<clipPath id="SVGID_8_">
			<use xlink:href="#SVGID_7_"  overflow="visible"/>
		</clipPath>
		<path clip-path="url(#SVGID_8_)" d="M17.889,19.356l-2.785-1.282l-1.339-1.13l-2.141,2.13l0.923,6.17
			c0.003,0.022-0.002,0.045-0.015,0.062l-0.977,1.337c-0.015,0.022-0.04,0.035-0.066,0.035c-0.026,0-0.052-0.013-0.068-0.035
			l-0.976-1.337c-0.012-0.017-0.018-0.039-0.015-0.062l0.924-6.17l-2.141-2.13l-1.339,1.13l-2.786,1.282
			c-0.412,0.169-0.813,0.425-1.023,0.873c0,0-3.028,7.21-1.386,7.21h17.62c1.643,0-1.385-7.21-1.385-7.21
			C18.732,19.801,18.301,19.525,17.889,19.356L17.889,19.356z M17.889,19.356"/>
	</g>
	<path display="inline" d="M11.489,16.904c2.85,0,4.976-2.655,5.024-7.106c0.031-3.091-1.441-4.938-5.024-4.938
		c-3.584,0-5.056,1.848-5.025,4.938C6.513,14.249,8.64,16.904,11.489,16.904L11.489,16.904z M11.489,16.904"/>
	<path display="inline" d="M21.191,2.536c-2.105,0-3.984,0.999-5.186,2.548c0.123,0.102,0.242,0.21,0.355,0.323
		c0.223,0.225,0.42,0.473,0.594,0.741c0.934-1.34,2.482-2.218,4.236-2.218c2.848,0,5.164,2.318,5.164,5.165
		s-2.316,5.163-5.164,5.163c-1.428,0-2.719-0.582-3.654-1.521c-0.125,0.513-0.283,0.998-0.473,1.451
		c1.127,0.916,2.564,1.466,4.127,1.466c3.617,0,6.561-2.943,6.561-6.56C27.752,5.479,24.809,2.536,21.191,2.536L21.191,2.536z
		 M21.191,2.536"/>
	<path display="inline" d="M21.191,4.913c-0.289,0-0.521,0.235-0.521,0.524v3.84c0,0.288,0.232,0.522,0.521,0.522h3.043
		c0.289,0,0.525-0.234,0.525-0.522c0-0.289-0.236-0.523-0.525-0.523h-2.52V5.438C21.715,5.148,21.48,4.913,21.191,4.913
		L21.191,4.913z M21.191,4.913"/>
</g>
<g display="none">
	<g display="inline">
		<defs>
			<rect id="SVGID_9_" x="2.041" y="1.298" width="25.918" height="27.404"/>
		</defs>
		<clipPath id="SVGID_10_">
			<use xlink:href="#SVGID_9_"  overflow="visible"/>
		</clipPath>
		<path clip-path="url(#SVGID_10_)" fill="#0D0D0D" d="M18.859,15.468c0.3-0.086,1.004-0.29,1.328-1.252l0.675-1.977l0.271,0.092
			c0.124,0.041,0.26-0.025,0.3-0.148l0.361-1.062c0.043-0.125-0.024-0.259-0.147-0.3l-8.717-2.965
			c-0.124-0.042-0.259,0.025-0.302,0.148l-0.361,1.062c-0.041,0.124,0.025,0.258,0.148,0.3l0.271,0.094L12,11.473
			c-0.321,0.949-0.108,1.27,0.297,1.757l1.764,2.114l-0.197,0.577c-0.675,0.147-2.439,0.53-2.675,0.598
			c-0.299,0.087-1.002,0.29-1.329,1.252l-0.578,1.703L9.01,19.38c-0.124-0.04-0.259,0.023-0.301,0.15l-0.361,1.058
			c-0.043,0.124,0.024,0.263,0.149,0.303l8.715,2.964c0.123,0.041,0.261-0.026,0.301-0.146l0.361-1.062
			c0.043-0.127-0.024-0.261-0.147-0.301l-0.271-0.093l0.591-1.738c0.324-0.951,0.11-1.271-0.297-1.76l-1.762-2.112l0.195-0.578
			C16.859,15.919,18.622,15.534,18.859,15.468L18.859,15.468z M15.178,17.01l1.919,2.297c0.146,0.174,0.224,0.27,0.243,0.36
			c0.027,0.104-0.007,0.291-0.104,0.571l-0.59,1.74l-6.556-2.231l0.58-1.702c0.182-0.537,0.515-0.635,0.756-0.701
			c0.188-0.058,1.811-0.415,2.856-0.638c0.146-0.033,0.266-0.138,0.313-0.28l0.352-1.036c0.048-0.14,0.018-0.297-0.076-0.414
			l-1.912-2.288l-0.006-0.006c-0.147-0.178-0.226-0.273-0.246-0.362c-0.026-0.106,0.009-0.292,0.104-0.572l0.685-2.013l6.554,2.229
			l-0.671,1.978c-0.184,0.537-0.514,0.633-0.758,0.701c-0.188,0.056-1.809,0.412-2.854,0.638c-0.146,0.033-0.266,0.137-0.317,0.281
			l-0.35,1.034C15.052,16.735,15.083,16.894,15.178,17.01L15.178,17.01z M15.178,17.01"/>
		<path clip-path="url(#SVGID_10_)" fill="#0D0D0D" d="M20.355,25.17c-0.19,0.107-0.388,0.215-0.585,0.308
			c-0.034,0.013-0.063,0.033-0.094,0.053c-0.033,0.007-0.063,0.021-0.093,0.034c-0.859,0.4-1.753,0.681-2.675,0.848
			c-0.01,0-0.022,0-0.033,0.007c-0.217,0.033-0.437,0.067-0.657,0.093c0,0-0.004,0-0.007,0c-0.4,0.047-0.808,0.067-1.216,0.067
			c-4.726,0-8.756-3.032-10.251-7.253c-0.022-0.066-0.044-0.13-0.066-0.192c-0.357-1.079-0.551-2.228-0.551-3.423
			c0-1.198,0.196-2.35,0.555-3.43c0.009-0.024,0.015-0.048,0.023-0.07c0.021-0.064,0.043-0.125,0.067-0.188
			c0.01-0.029,0.021-0.059,0.032-0.087c1.24-3.34,4.08-5.911,7.582-6.777c0.003,0,0.004,0,0.006-0.001
			c0.051-0.012,0.105-0.025,0.157-0.037c0.006-0.002,0.011-0.003,0.016-0.005c0.765-0.176,1.559-0.27,2.375-0.274l0.008,1.119
			c0.004,0.347,0.222,0.447,0.486,0.222l2.36-2.001c0.267-0.224,0.263-0.587-0.008-0.806l-2.393-1.961
			c-0.267-0.22-0.484-0.117-0.48,0.23l0.008,1.115c-3.431,0.02-6.655,1.364-9.085,3.794C5.598,6.791,5.37,7.038,5.152,7.292
			C5.151,7.293,5.148,7.295,5.147,7.297C5.139,7.305,5.132,7.315,5.124,7.325c-1.911,2.243-2.989,5.04-3.074,8.005
			c-0.002,0.022-0.006,0.046-0.006,0.07c-0.001,0.099-0.003,0.201-0.003,0.3c0,0.16,0.003,0.328,0.01,0.49
			c0,0.018,0.003,0.037,0.005,0.057c0.108,2.701,1.043,5.257,2.684,7.373c0.004,0.007,0.01,0.014,0.015,0.027
			c0.16,0.2,0.328,0.407,0.501,0.607c0.012,0.013,0.024,0.02,0.036,0.033c0.176,0.2,0.357,0.394,0.544,0.581
			c1.925,1.923,4.345,3.165,6.974,3.612c0.008,0,0.015,0,0.023,0c0.007,0,0.012,0.006,0.019,0.006
			c0.701,0.114,1.419,0.174,2.144,0.174c1.911,0,3.75-0.407,5.465-1.209c0.037-0.013,0.074-0.032,0.107-0.053
			c0.04-0.014,0.077-0.034,0.114-0.054c0.236-0.113,0.47-0.233,0.7-0.367c0.501-0.28,0.674-0.915,0.391-1.415
			C21.492,25.063,20.855,24.883,20.355,25.17L20.355,25.17z M20.355,25.17"/>
	</g>
	<path display="inline" fill="#0D0D0D" d="M24.021,9.648c0.199,0.299,0.531,0.461,0.868,0.461c0.196,0,0.4-0.059,0.577-0.179
		c0.478-0.32,0.604-0.966,0.283-1.444c-0.146-0.219-0.3-0.434-0.46-0.642C24.938,7.387,24.287,7.3,23.83,7.651
		C23.373,8,23.285,8.654,23.636,9.11C23.77,9.285,23.896,9.465,24.021,9.648L24.021,9.648z M24.021,9.648"/>
	<path display="inline" fill="#0D0D0D" d="M25.342,12.383c0.067,0.21,0.13,0.424,0.185,0.637c0.119,0.471,0.544,0.784,1.007,0.784
		c0.087,0,0.175-0.009,0.262-0.033c0.557-0.141,0.895-0.708,0.75-1.265c-0.063-0.253-0.136-0.509-0.216-0.758
		c-0.178-0.548-0.762-0.85-1.313-0.674C25.469,11.25,25.169,11.835,25.342,12.383L25.342,12.383z M25.342,12.383"/>
	<g display="inline">
		<defs>
			<rect id="SVGID_11_" x="2.041" y="1.298" width="25.918" height="27.404"/>
		</defs>
		<clipPath id="SVGID_12_">
			<use xlink:href="#SVGID_11_"  overflow="visible"/>
		</clipPath>
		<path clip-path="url(#SVGID_12_)" fill="#0D0D0D" d="M24.682,22.72c-0.438-0.374-1.096-0.327-1.469,0.107
			c-0.145,0.167-0.298,0.333-0.451,0.487c-0.4,0.414-0.394,1.074,0.017,1.476c0.203,0.2,0.468,0.293,0.728,0.293
			c0.274,0,0.544-0.1,0.748-0.313c0.181-0.187,0.36-0.381,0.533-0.581C25.162,23.755,25.114,23.1,24.682,22.72L24.682,22.72z
			 M24.682,22.72"/>
		<path clip-path="url(#SVGID_12_)" fill="#0D0D0D" d="M26.935,15.034c-0.574-0.017-1.055,0.434-1.071,1.01
			c-0.007,0.222-0.021,0.442-0.04,0.662c-0.055,0.574,0.367,1.078,0.941,1.132c0.033,0.003,0.063,0.003,0.096,0.003
			c0.531,0,0.985-0.403,1.036-0.944c0.022-0.261,0.04-0.527,0.05-0.792C27.962,15.53,27.509,15.05,26.935,15.034L26.935,15.034z
			 M26.935,15.034"/>
	</g>
	<path display="inline" fill="#0D0D0D" d="M26.471,19.072c-0.534-0.21-1.139,0.054-1.349,0.592c-0.08,0.204-0.168,0.41-0.261,0.611
		c-0.244,0.521-0.017,1.136,0.508,1.383c0.14,0.061,0.29,0.093,0.437,0.093c0.395,0,0.768-0.22,0.945-0.6
		c0.109-0.24,0.214-0.486,0.311-0.73C27.271,19.888,27.008,19.283,26.471,19.072L26.471,19.072z M26.471,19.072"/>
	<path display="inline" fill="#0D0D0D" d="M22.926,6.761c0.34-0.462,0.243-1.114-0.218-1.457c-0.21-0.157-0.43-0.307-0.651-0.451
		c-0.479-0.314-1.124-0.177-1.438,0.305c-0.313,0.482-0.177,1.126,0.304,1.44c0.188,0.12,0.367,0.247,0.545,0.379
		c0.187,0.139,0.403,0.205,0.62,0.205C22.404,7.183,22.722,7.037,22.926,6.761L22.926,6.761z M22.926,6.761"/>
</g>
<g display="none">
	<g display="inline">
		<path d="M22.4,22.631l-5.19-2.01c-0.1-0.039-0.199-0.1-0.199-0.209c0-0.102,0.029-0.17,0.1-0.281c0.1-0.129,2.59-3.039,2.59-6.08
			c0-0.06,0-0.12-0.01-0.18c0-0.22-0.02-0.43-0.06-0.64c-0.261-1.9-1.45-3.51-3.11-4.35c-0.2-0.11-0.399-0.2-0.61-0.27
			c-0.63-0.24-1.31-0.37-2.02-0.37c-3.21,0-5.81,2.59-5.81,5.81c0,3.041,2.49,5.98,2.6,6.08c0.07,0.111,0.13,0.211,0.1,0.281
			c-0.03,0.068-0.1,0.139-0.21,0.209l-5.18,2.01c-0.7,0.27-1.25,1.07-1.25,1.83v0.52c0,0.791,0.66,1.451,1.45,1.451h16.53
			c0.801,0,1.45-0.66,1.45-1.451v-0.52C23.641,23.701,23.091,22.871,22.4,22.631z M22.851,24.941h-0.07
			c0,0.35-0.28,0.619-0.62,0.619H5.63c-0.35,0-0.62-0.27-0.62-0.619v-0.52c0-0.381,0.31-0.861,0.69-1l5.18-2
			c0.38-0.141,0.66-0.461,0.77-0.801c0.1-0.35,0-0.73-0.28-1.039c-0.04-0.031-2.39-2.801-2.39-5.531s2.22-4.95,4.95-4.95
			c0.78,0,1.52,0.18,2.18,0.52c0.261,0.12,0.511,0.27,0.74,0.44c0.84,0.62,1.47,1.48,1.79,2.49c0.08,0.27,0.149,0.55,0.17,0.83
			c0,0,0,0,0.01,0c0.03,0.22,0.05,0.44,0.05,0.67c0,2.73-2.35,5.5-2.38,5.531c-0.279,0.309-0.38,0.689-0.279,1.039
			c0.1,0.34,0.35,0.66,0.76,0.801l5.189,2c0.38,0.139,0.69,0.619,0.69,1V24.941z"/>
	</g>
</g>
<g display="none">
	<g display="inline">
		<path d="M22.338,6.37V3.324h-0.434V6.8h1.963V6.37H22.338z M22.124,1.361c-2.891,0-5.229,2.339-5.229,5.228
			c0,0.198,0.01,0.393,0.031,0.589c0.032,0.266,0.087,0.533,0.158,0.792c0.205,0.094,0.4,0.211,0.582,0.345
			c-0.126-0.297-0.213-0.604-0.26-0.926c-0.049-0.26-0.07-0.527-0.07-0.801c0-2.645,2.143-4.789,4.788-4.789
			c2.639,0,4.789,2.144,4.789,4.789c0,2.638-2.15,4.789-4.789,4.789c-0.824,0-1.594-0.213-2.276-0.573
			c-0.276-0.157-0.533-0.33-0.778-0.534c0.064,0.212,0.119,0.432,0.136,0.651c0,0,0,0,0.006,0c0.213,0.15,0.449,0.275,0.684,0.384
			c0.675,0.322,1.427,0.502,2.229,0.502c2.882,0,5.221-2.339,5.221-5.22C27.345,3.701,25.006,1.361,22.124,1.361z M21.904,3.324V6.8
			h1.963V6.37h-1.529V3.324H21.904z M22.338,6.37V3.324h-0.434V6.8h1.963V6.37H22.338z"/>
	</g>
	<g display="inline">
		<path d="M16.35,19.355c1.853-1.933,3.1-5.221,3.1-7.519c0-3.442-2.793-6.231-6.237-6.231c-3.448,0-6.239,2.79-6.239,6.231
			c0,2.298,1.246,5.586,3.099,7.519c-4.563,0.935-7.417,4.046-7.417,9.283h21.112C23.768,23.401,20.913,20.29,16.35,19.355
			L16.35,19.355z M7.934,11.837c0-2.907,2.366-5.274,5.279-5.274c2.91,0,5.276,2.367,5.276,5.274c0,2.313-1.453,5.77-3.334,7.331
			c-0.613,0.509-1.272,0.817-1.942,0.817c-0.671,0-1.331-0.309-1.945-0.817C9.386,17.606,7.934,14.148,7.934,11.837L7.934,11.837z
			 M11.005,20.169c0.683,0.488,1.43,0.778,2.207,0.778c0.776,0,1.521-0.29,2.207-0.778c3.968,0.58,6.993,2.83,7.352,7.512H3.65
			C4.012,22.999,7.037,20.745,11.005,20.169L11.005,20.169z M11.005,20.169"/>
	</g>
</g>
<g>
	<g>
		<path d="M14.805,26.262"/>
		<g>
			<polygon points="15.089,7.234 15.089,15.518 19.75,15.518 19.75,14.481 16.126,14.481 16.126,7.234 			"/>
			<g>
				<g>
					<path d="M15.607,2.575C8.747,2.575,3.183,8.14,3.183,15c0,1.01,0.138,1.984,0.37,2.923c0.315-0.094,0.653-0.159,1.014-0.189
						C4.349,16.855,4.22,15.944,4.22,15c0-6.279,5.109-11.388,11.388-11.388c6.281,0,11.391,5.108,11.391,11.388
						c0,6.282-5.109,11.392-11.391,11.392c-0.1,0-0.195-0.011-0.292-0.02c0.001,0.13-0.024,0.257-0.031,0.386
						c0.053,0.215,0.089,0.435,0.116,0.654c0.069,0.006,0.137,0.013,0.207,0.013c6.863,0,12.424-5.561,12.424-12.425
						C28.031,8.14,22.471,2.575,15.607,2.575z"/>
				</g>
				<polygon points="5.07,21.582 1.968,18.271 6.386,17.24 				"/>
			</g>
		</g>
	</g>
</g>
</svg>
