<?xml version="1.0" encoding="utf-8"?>
<!-- Generator: Adobe Illustrator 17.0.0, SVG Export Plug-In . SVG Version: 6.00 Build 0)  -->
<!DOCTYPE svg PUBLIC "-//W3C//DTD SVG 1.1//EN" "http://www.w3.org/Graphics/SVG/1.1/DTD/svg11.dtd">
<svg version="1.1" id="Layer_1" xmlns="http://www.w3.org/2000/svg" xmlns:xlink="http://www.w3.org/1999/xlink" x="0px" y="0px"
	 width="18px" height="18px" viewBox="0 0 18 18" enable-background="new 0 0 18 18" xml:space="preserve">
<g>
	<path fill="#59595A" d="M5.719,7.48L4.602,8.602l3.597,3.597l8-8l-1.121-1.121L8.199,9.961L5.719,7.48z M15.398,9
		c0,3.52-2.878,6.398-6.398,6.398c-3.52,0-6.398-2.878-6.398-6.398C2.602,5.48,5.48,2.602,9,2.602c0.641,0,1.199,0.078,1.762,0.238
		l1.277-1.281C11.078,1.238,10.039,1,9,1C4.602,1,1,4.602,1,9c0,4.398,3.602,8,8,8c4.398,0,8-3.602,8-8H15.398z M15.398,9"/>
</g>
</svg>
