<?xml version="1.0" encoding="utf-8"?>
<!-- Generator: Adobe Illustrator 17.0.0, SVG Export Plug-In . SVG Version: 6.00 Build 0)  -->
<!DOCTYPE svg PUBLIC "-//W3C//DTD SVG 1.1//EN" "http://www.w3.org/Graphics/SVG/1.1/DTD/svg11.dtd">
<svg version="1.1" id="Layer_1" xmlns="http://www.w3.org/2000/svg" xmlns:xlink="http://www.w3.org/1999/xlink" x="0px" y="0px"
	 width="35px" height="35px" viewBox="0 0 35 35" enable-background="new 0 0 35 35" xml:space="preserve">
<path d="M17.54,2.803c-1.142,0.012-2.5,0.148-3.089,0.409c-0.577,0.258-0.69,0.858-1.063,0.994
	c-0.397,0.136-0.962,0.081-1.313,0.249c-5.421,2.605-5.23,8.976-5.23,8.976l0.803,13.085l-0.498,5.682h10.176l0.035-1.472
	l-3.092-5.864l0.861-0.226V21.34c-3.338-1.052-5.795-4.027-6.076-7.637l2.286,0.327v1.402h6.009V14.45h1.063v0.982h5.998v-1.368
	l1.927-0.295c-0.125,3.022-1.689,7.075-6.316,7.675v3.077h0.012l1.098,0.533l-3.022,5.444v1.698h9.721l-0.655-7.154
	c0.191-1.425,0.837-3.656,0.939-5.885C28.28,15.355,28.497,2.803,17.54,2.803L17.54,2.803z M16.679,14.766h-4.674V12.39h4.674
	V14.766z M23.743,14.766h-4.662V12.39h4.662V14.766z M26.301,12.761l-1.892,0.296v-1.336h-5.998v1.394h-1.063v-1.394h-6.009v1.301
	l-2.321-0.339c0.023-0.168,0.046-0.327,0.067-0.51c2.411-0.156,5.14-2.06,5.354-4.708c3.057,2.524,7.38,2.648,10.99,2.978
	C25.881,10.646,26.211,11.562,26.301,12.761L26.301,12.761z M26.301,12.761"/>
<rect x="7" y="6.926" fill="none" width="25.92" height="23"/>
</svg>
