<?xml version="1.0" encoding="utf-8"?>
<!-- Generator: Adobe Illustrator 17.0.0, SVG Export Plug-In . SVG Version: 6.00 Build 0)  -->
<!DOCTYPE svg PUBLIC "-//W3C//DTD SVG 1.1//EN" "http://www.w3.org/Graphics/SVG/1.1/DTD/svg11.dtd">
<svg version="1.1" id="Layer_1" xmlns="http://www.w3.org/2000/svg" xmlns:xlink="http://www.w3.org/1999/xlink" x="0px" y="0px"
	 width="45px" height="45px" viewBox="0 0 45 45" enable-background="new 0 0 45 45" xml:space="preserve">
<g display="none">
	<path display="inline" fill="#02779F" d="M22.648,19.702H12.284c-0.615,0-1.118,0.503-1.118,1.119v16.773h12.576V20.798
		C23.743,20.195,23.25,19.702,22.648,19.702L22.648,19.702z M22.648,19.702"/>
	<path display="inline" fill="#02779F" d="M22.774,11.745h0.069c0.496,0,0.898-0.402,0.898-0.898c0-0.496-0.402-0.898-0.898-0.898
		h-0.069c-0.496,0-0.898,0.402-0.898,0.898C21.876,11.343,22.278,11.745,22.774,11.745L22.774,11.745z M22.774,11.745"/>
	<path display="inline" fill="#02779F" d="M25.968,9.098h-0.069C25.402,9.098,25,9.5,25,9.997c0,0.496,0.402,0.899,0.898,0.899
		h0.069c0.496,0,0.898-0.403,0.898-0.899C26.866,9.5,26.464,9.098,25.968,9.098L25.968,9.098z M25.968,9.098"/>
	<path display="inline" fill="#02779F" d="M35.166,9.091h0.069c0.496,0,0.898-0.402,0.898-0.898c0-0.496-0.402-0.898-0.898-0.898
		h-0.069c-0.496,0-0.898,0.402-0.898,0.898C34.268,8.689,34.67,9.091,35.166,9.091L35.166,9.091z M35.166,9.091"/>
	<path display="inline" fill="#02779F" d="M35.209,15.27H35.14c-0.496,0-0.898,0.402-0.898,0.898c0,0.496,0.402,0.898,0.898,0.898
		h0.069c0.496,0,0.898-0.402,0.898-0.898C36.107,15.673,35.705,15.27,35.209,15.27L35.209,15.27z M35.209,15.27"/>
	<path display="inline" fill="#02779F" d="M28.957,10.342h0.069c0.496,0,0.898-0.402,0.898-0.898c0-0.496-0.402-0.898-0.898-0.898
		h-0.069c-0.496,0-0.898,0.402-0.898,0.898C28.059,9.94,28.461,10.342,28.957,10.342L28.957,10.342z M28.957,10.342"/>
	<path display="inline" fill="#02779F" d="M32.083,9.656h0.069c0.496,0,0.898-0.403,0.898-0.899c0-0.496-0.402-0.898-0.898-0.898
		h-0.069c-0.496,0-0.898,0.402-0.898,0.898C31.185,9.254,31.587,9.656,32.083,9.656L32.083,9.656z M32.083,9.656"/>
	<path display="inline" fill="#02779F" d="M25.949,13.497H25.88c-0.496,0-0.898,0.403-0.898,0.899c0,0.496,0.402,0.898,0.898,0.898
		h0.069c0.496,0,0.898-0.402,0.898-0.898C26.847,13.9,26.445,13.497,25.949,13.497L25.949,13.497z M25.949,13.497"/>
	<path display="inline" fill="#02779F" d="M29.031,14.141h-0.069c-0.496,0-0.898,0.402-0.898,0.898c0,0.496,0.402,0.898,0.898,0.898
		h0.069c0.496,0,0.898-0.402,0.898-0.898C29.93,14.543,29.527,14.141,29.031,14.141L29.031,14.141z M29.031,14.141"/>
	<path display="inline" fill="#02779F" d="M32.256,14.563h-0.069c-0.496,0-0.898,0.402-0.898,0.898c0,0.496,0.402,0.898,0.898,0.898
		h0.069c0.496,0,0.898-0.402,0.898-0.898C33.154,14.965,32.752,14.563,32.256,14.563L32.256,14.563z M32.256,14.563"/>
	<g display="inline">
		<defs>
			<rect id="SVGID_1_" x="11.167" y="7.294" width="25.06" height="30.333"/>
		</defs>
		<clipPath id="SVGID_2_">
			<use xlink:href="#SVGID_1_"  overflow="visible"/>
		</clipPath>
		<path clip-path="url(#SVGID_2_)" fill="#02779F" d="M13.812,16.713v1.594c0,0.289,0.235,0.523,0.523,0.523h6.342
			c0.289,0,0.524-0.234,0.524-0.523v-1.594c0-0.289-0.235-0.524-0.524-0.524h-6.342C14.047,16.19,13.812,16.424,13.812,16.713
			L13.812,16.713z M13.812,16.713"/>
		<path clip-path="url(#SVGID_2_)" fill="#02779F" d="M12.647,14.82l1.025-0.939h2.23v0.692c0,0.431,0.317,0.784,0.705,0.784h2.148
			c0.388,0,0.705-0.353,0.705-0.784V10.64c0-0.431-0.317-0.784-0.705-0.784h-2.148c-0.388,0-0.705,0.353-0.705,0.784v1.027h-2.834
			l-1.809,1.61C10.898,14.015,11.983,15.223,12.647,14.82L12.647,14.82z M12.647,14.82"/>
	</g>
	<path display="inline" fill="#02779F" d="M22.857,12.596h-0.069c-0.496,0-0.898,0.403-0.898,0.899c0,0.496,0.402,0.898,0.898,0.898
		h0.069c0.496,0,0.899-0.402,0.899-0.898C23.756,12.999,23.353,12.596,22.857,12.596L22.857,12.596z M22.857,12.596"/>
</g>
<g display="none">
	<path display="inline" fill="#02779F" d="M16.538,26.852c-1.502,0-2.719,1.217-2.719,2.719c0,1.502,1.217,2.719,2.719,2.719
		c1.503,0,2.719-1.217,2.719-2.719C19.258,28.069,18.041,26.852,16.538,26.852L16.538,26.852z M16.538,30.753
		c-0.653,0-1.182-0.529-1.182-1.182c0-0.653,0.529-1.182,1.182-1.182c0.653,0,1.182,0.529,1.182,1.182
		C17.721,30.223,17.191,30.753,16.538,30.753L16.538,30.753z M16.538,30.753"/>
	<path display="inline" fill="#02779F" d="M30.876,26.852c-1.502,0-2.719,1.217-2.719,2.719c0,1.502,1.217,2.719,2.719,2.719
		c1.503,0,2.719-1.217,2.719-2.719C33.595,28.069,32.378,26.852,30.876,26.852L30.876,26.852z M30.876,30.753
		c-0.653,0-1.182-0.529-1.182-1.182c0-0.653,0.529-1.182,1.182-1.182c0.653,0,1.182,0.529,1.182,1.182
		C32.058,30.223,31.529,30.753,30.876,30.753L30.876,30.753z M30.876,30.753"/>
	<path display="inline" fill="#02779F" d="M19.597,18.498c0,0.381-0.312,0.693-0.693,0.693H9.346c-0.381,0-0.692-0.312-0.692-0.693
		v-0.416c0-0.381,0.312-0.692,0.692-0.692h9.558c0.381,0,0.693,0.312,0.693,0.692V18.498z M19.597,18.498"/>
	<path display="inline" fill="#02779F" d="M36.204,22.553c-0.997-0.259-1.568-0.422-1.959-1.178l-1.309-2.65
		c-0.392-0.756-1.409-1.375-2.26-1.375h-1.79c0,0-0.241,0.005-0.241-0.237V14.89c0-0.862-0.488-1.567-1.525-1.567H12.528
		c-1.485,0-2.19,0.705-2.19,1.567v1.393c0,0,0,0.414,0.401,0.414h8.165c0.764,0,1.385,0.621,1.385,1.385v0.416
		c0,0.764-0.621,1.385-1.385,1.385h-8.165c0,0-0.401-0.033-0.401,0.399v0.479c0,0.381,0.522,0.381,0.522,0.381h5.497
		c0.764,0,1.385,0.621,1.385,1.385v0.416c0,0.764-0.621,1.385-1.385,1.385h-5.41c0,0-0.609-0.012-0.609,0.474v3.366
		c0,0.862,0.705,1.567,1.567,1.567h0.865c0.196,0,0.225-0.109,0.225-0.164c0-1.953,1.589-3.543,3.543-3.543
		c1.954,0,3.543,1.589,3.543,3.543c0,0.055-0.016,0.164,0.134,0.164H27.2c0.139,0,0.133-0.117,0.133-0.164
		c0-1.953,1.589-3.543,3.543-3.543s3.543,1.589,3.543,3.543c0,0.055-0.001,0.164,0.085,0.164h1.761c0.852,0,1.548-0.696,1.548-1.548
		v-2.941C37.813,22.769,37.031,22.769,36.204,22.553L36.204,22.553z M33.258,22.415h-4.407c-0.182,0-0.206-0.177-0.206-0.177v-3.671
		c0,0-0.01-0.141,0.223-0.141h1.257c0.758,0,1.663,0.55,2.011,1.223l1.165,2.358c0.049,0.095,0.101,0.179,0.157,0.255
		C33.5,22.318,33.431,22.415,33.258,22.415L33.258,22.415z M33.258,22.415"/>
	<path display="inline" fill="#02779F" d="M17.049,22.944c0,0.381-0.312,0.693-0.692,0.693H7.56c-0.381,0-0.692-0.312-0.692-0.693
		v-0.416c0-0.381,0.312-0.693,0.692-0.693h8.797c0.381,0,0.692,0.312,0.692,0.693V22.944z M17.049,22.944"/>
</g>
<g>
	<g>
		<path fill="#02779F" d="M36.244,21.427c-0.044-0.393-0.497-0.689-0.889-0.689c-1.268,0-2.393-0.751-2.865-1.915
			c-0.482-1.192-0.171-2.581,0.774-3.456c0.297-0.275,0.334-0.735,0.084-1.054c-0.649-0.832-1.386-1.584-2.192-2.236
			c-0.315-0.256-0.778-0.22-1.051,0.086c-0.825,0.922-2.306,1.265-3.451,0.783c-1.191-0.506-1.942-1.726-1.869-3.034
			c0.025-0.411-0.273-0.769-0.679-0.816c-1.034-0.121-2.077-0.125-3.113-0.008c-0.4,0.045-0.698,0.394-0.685,0.8
			c0.045,1.296-0.715,2.494-1.894,2.982c-1.131,0.466-2.602,0.126-3.425-0.788c-0.272-0.302-0.727-0.338-1.044-0.089
			c-0.829,0.657-1.583,1.41-2.238,2.235c-0.255,0.321-0.217,0.786,0.082,1.062c0.964,0.881,1.274,2.282,0.774,3.487
			c-0.477,1.149-1.658,1.889-3.011,1.889c-0.439-0.014-0.751,0.283-0.799,0.686c-0.121,1.049-0.123,2.12-0.006,3.178
			c0.044,0.394,0.511,0.688,0.908,0.688c1.205-0.031,2.361,0.722,2.847,1.915c0.484,1.191,0.172,2.58-0.774,3.457
			c-0.296,0.274-0.334,0.734-0.084,1.052c0.643,0.827,1.381,1.58,2.189,2.237c0.317,0.258,0.778,0.222,1.053-0.084
			c0.828-0.924,2.309-1.267,3.449-0.783c1.194,0.505,1.945,1.724,1.872,3.033c-0.024,0.411,0.274,0.77,0.678,0.816
			c0.529,0.063,1.061,0.093,1.594,0.093c0.507,0,1.013-0.028,1.519-0.084c0.401-0.045,0.698-0.394,0.684-0.8
			c-0.046-1.296,0.716-2.493,1.894-2.981c1.138-0.469,2.603-0.126,3.427,0.787c0.273,0.3,0.725,0.337,1.044,0.089
			c0.828-0.656,1.58-1.408,2.238-2.236c0.255-0.32,0.219-0.786-0.082-1.062c-0.963-0.88-1.275-2.282-0.775-3.486
			c0.47-1.133,1.608-1.895,2.831-1.895l0.171,0.005c0.397,0.032,0.762-0.276,0.81-0.685C36.36,23.554,36.361,22.485,36.244,21.427
			L36.244,21.427z M22.495,31.036c-4.405,0-7.977-3.607-7.977-8.057c0-4.45,3.571-8.057,7.977-8.057s7.977,3.607,7.977,8.057
			c0,1.51-0.412,2.923-1.128,4.131l-3.493-3.529c0.253-0.602,0.387-1.255,0.387-1.929c0-1.319-0.509-2.56-1.433-3.492
			c-0.923-0.933-2.152-1.447-3.458-1.447c-0.436,0-0.869,0.058-1.289,0.174c-0.184,0.051-0.334,0.204-0.383,0.39
			c-0.05,0.19,0.006,0.385,0.154,0.534c0,0,1.724,1.755,2.301,2.338c0.061,0.061,0.06,0.207,0.052,0.259l-0.005,0.038
			c-0.058,0.64-0.171,1.41-0.263,1.705c-0.012,0.012-0.024,0.023-0.037,0.036c-0.013,0.013-0.026,0.026-0.038,0.04
			c-0.296,0.096-1.069,0.211-1.714,0.269l0.001-0.004L20.095,22.5c-0.005,0.001-0.015,0.001-0.027,0.001
			c-0.07,0-0.172-0.019-0.265-0.113c-0.6-0.607-2.257-2.268-2.257-2.268c-0.148-0.15-0.301-0.181-0.403-0.181
			c-0.237,0-0.449,0.173-0.515,0.421c-0.456,1.705,0.027,3.539,1.261,4.786c0.924,0.933,2.152,1.447,3.458,1.447
			c0.667,0,1.314-0.135,1.91-0.39l3.531,3.567C25.548,30.569,24.076,31.036,22.495,31.036L22.495,31.036z M22.495,31.036"/>
	</g>
</g>
<g display="none">
	<path display="inline" fill="#02779F" d="M22.685,12.273c-1.143,0.216-2.143,1-2.71,2.069l-1.217,2.286H9.912
		c-2.212,0-3.996,1.784-3.996,3.923v3.213c0,2.212,1.784,3.996,3.996,3.996h8.919l1.213,2.282c0.571,1.069,1.572,1.784,2.71,1.996
		V12.273H22.685z M22.685,12.273"/>
	<path display="inline" fill="#02779F" d="M23.824,12.203V32.11c3.07-0.143,5.494-2.641,5.494-5.779v-8.348
		C29.318,14.914,26.894,12.346,23.824,12.203L23.824,12.203z M23.824,12.203"/>
	<path display="inline" fill="#02779F" d="M36.955,21.122h-4.996c-0.571,0-1.069,0.499-1.069,1.069c0,0.572,0.428,1.069,1.069,1.069
		h4.996c0.571,0,1.069-0.498,1.069-1.069C38.025,21.621,37.597,21.122,36.955,21.122L36.955,21.122z M36.955,21.122"/>
	<path display="inline" fill="#02779F" d="M37.31,28.115l-5.136-1.498c-0.571-0.143-1.142,0.143-1.285,0.714
		c-0.143,0.572,0.143,1.139,0.714,1.282l5.136,1.572c0.073,0,0.216,0.07,0.285,0.07c0.428,0,0.857-0.282,1-0.711
		C38.167,28.829,37.813,28.257,37.31,28.115L37.31,28.115z M37.31,28.115"/>
	<path display="inline" fill="#02779F" d="M31.889,17.84c0.07,0,0.212,0,0.285-0.073l5.136-1.568
		c0.572-0.143,0.857-0.714,0.714-1.285c-0.143-0.572-0.714-0.857-1.285-0.714l-5.136,1.641c-0.572,0.143-0.857,0.714-0.714,1.286
		C31.032,17.555,31.461,17.84,31.889,17.84L31.889,17.84z M31.889,17.84"/>
</g>
<g display="none">
	<path display="inline" fill="#02779F" d="M36.436,19.851c-0.167-1.425-4.109,0-4.109,0l-0.23,2.023
		c-0.089-0.046-0.174-0.092-0.266-0.132l-0.998-4.225c-0.363-2.009-1.923-3.491-4.2-3.415h-5.843
		c-0.038,0.237-0.095,0.464-0.164,0.688h6.401c1.33,0,2.546,0.833,2.877,2.202l1.07,4.17c-0.066-0.003-0.136-0.009-0.202-0.009
		H18.378l0.003,4.066h7.677v0.909h-7.677v0.264h7.601v0.912h-7.601l0.003,3.415h8.198v2.162c0,0.878,1.118,1.593,2.498,1.593
		c1.377,0,2.495-0.712,2.495-1.593v-2.41c1.178-0.433,1.996-1.382,1.996-2.482V24.12c0-0.857-0.496-1.619-1.264-2.119l4.128-0.215
		C36.436,21.786,36.6,21.273,36.436,19.851L36.436,19.851z M31.705,27.236h-4.503v-2.082h4.503V27.236z M31.705,27.236"/>
	<rect x="18.267" y="26.392" display="inline" fill="#02779F" width="0.114" height="0.912"/>
	<rect x="18.347" y="25.219" display="inline" fill="#02779F" width="0.035" height="0.909"/>
	<path display="inline" fill="#02779F" d="M19.904,13.491c-0.003-1.748-0.982-3.27-2.435-4.081v3.768l-2.407,1.351l-2.409-1.354
		V9.411c-1.453,0.811-2.432,2.333-2.432,4.081c0,1.83,1.08,3.418,2.653,4.198v15.523c0,0.614,0.256,1.167,0.669,1.572
		c0.414,0.402,0.986,0.645,1.617,0.648c1.257,0,2.281-0.992,2.284-2.22l-0.01-15.621C18.909,16.784,19.901,15.248,19.904,13.491
		L19.904,13.491z M15.662,34.195c-0.34,0.332-0.893,0.332-1.235,0c-0.338-0.332-0.338-0.866,0.003-1.197
		c0.341-0.332,0.893-0.332,1.231-0.003C16.003,33.326,16.003,33.863,15.662,34.195L15.662,34.195z M15.662,34.195"/>
</g>
</svg>
