<?xml version="1.0" encoding="utf-8"?>
<!-- Generator: Adobe Illustrator 17.0.0, SVG Export Plug-In . SVG Version: 6.00 Build 0)  -->
<!DOCTYPE svg PUBLIC "-//W3C//DTD SVG 1.1//EN" "http://www.w3.org/Graphics/SVG/1.1/DTD/svg11.dtd">
<svg version="1.1" id="Layer_1" xmlns="http://www.w3.org/2000/svg" xmlns:xlink="http://www.w3.org/1999/xlink" x="0px" y="0px"
	 width="45px" height="45px" viewBox="0 0 45 45" enable-background="new 0 0 45 45" xml:space="preserve">
<g display="none">
	<path display="inline" fill="#02779F" d="M25.648,19.702H15.284c-0.615,0-1.118,0.503-1.118,1.119v16.773h12.576V20.798
		C26.743,20.195,26.25,19.702,25.648,19.702L25.648,19.702z M25.648,19.702"/>
	<path display="inline" fill="#02779F" d="M25.774,11.745h0.069c0.496,0,0.898-0.402,0.898-0.898c0-0.496-0.402-0.898-0.898-0.898
		h-0.069c-0.496,0-0.898,0.402-0.898,0.898C24.876,11.343,25.278,11.745,25.774,11.745L25.774,11.745z M25.774,11.745"/>
	<path display="inline" fill="#02779F" d="M28.968,9.098h-0.069C28.402,9.098,28,9.5,28,9.997c0,0.496,0.402,0.899,0.898,0.899
		h0.069c0.496,0,0.898-0.403,0.898-0.899C29.866,9.5,29.464,9.098,28.968,9.098L28.968,9.098z M28.968,9.098"/>
	<path display="inline" fill="#02779F" d="M38.166,9.091h0.069c0.496,0,0.898-0.402,0.898-0.898c0-0.496-0.402-0.898-0.898-0.898
		h-0.069c-0.496,0-0.898,0.402-0.898,0.898C37.268,8.689,37.67,9.091,38.166,9.091L38.166,9.091z M38.166,9.091"/>
	<path display="inline" fill="#02779F" d="M38.209,15.27H38.14c-0.496,0-0.898,0.402-0.898,0.898c0,0.496,0.402,0.898,0.898,0.898
		h0.069c0.496,0,0.898-0.402,0.898-0.898C39.107,15.673,38.705,15.27,38.209,15.27L38.209,15.27z M38.209,15.27"/>
	<path display="inline" fill="#02779F" d="M31.957,10.342h0.069c0.496,0,0.898-0.402,0.898-0.898c0-0.496-0.402-0.898-0.898-0.898
		h-0.069c-0.496,0-0.898,0.402-0.898,0.898C31.059,9.94,31.461,10.342,31.957,10.342L31.957,10.342z M31.957,10.342"/>
	<path display="inline" fill="#02779F" d="M35.083,9.656h0.069c0.496,0,0.898-0.403,0.898-0.899c0-0.496-0.402-0.898-0.898-0.898
		h-0.069c-0.496,0-0.898,0.402-0.898,0.898C34.185,9.254,34.587,9.656,35.083,9.656L35.083,9.656z M35.083,9.656"/>
	<path display="inline" fill="#02779F" d="M28.949,13.497H28.88c-0.496,0-0.898,0.403-0.898,0.899c0,0.496,0.402,0.898,0.898,0.898
		h0.069c0.496,0,0.898-0.402,0.898-0.898C29.847,13.9,29.445,13.497,28.949,13.497L28.949,13.497z M28.949,13.497"/>
	<path display="inline" fill="#02779F" d="M32.031,14.141h-0.069c-0.496,0-0.898,0.402-0.898,0.898c0,0.496,0.402,0.898,0.898,0.898
		h0.069c0.496,0,0.898-0.402,0.898-0.898C32.93,14.543,32.527,14.141,32.031,14.141L32.031,14.141z M32.031,14.141"/>
	<path display="inline" fill="#02779F" d="M35.256,14.563h-0.069c-0.496,0-0.898,0.402-0.898,0.898c0,0.496,0.402,0.898,0.898,0.898
		h0.069c0.496,0,0.898-0.402,0.898-0.898C36.154,14.965,35.752,14.563,35.256,14.563L35.256,14.563z M35.256,14.563"/>
	<g display="inline">
		<defs>
			<rect id="SVGID_1_" x="14.167" y="7.294" width="25.06" height="30.333"/>
		</defs>
		<clipPath id="SVGID_2_">
			<use xlink:href="#SVGID_1_"  overflow="visible"/>
		</clipPath>
		<path clip-path="url(#SVGID_2_)" fill="#02779F" d="M16.812,16.713v1.594c0,0.289,0.235,0.523,0.523,0.523h6.342
			c0.289,0,0.524-0.234,0.524-0.523v-1.594c0-0.289-0.235-0.524-0.524-0.524h-6.342C17.047,16.19,16.812,16.424,16.812,16.713
			L16.812,16.713z M16.812,16.713"/>
		<path clip-path="url(#SVGID_2_)" fill="#02779F" d="M15.647,14.82l1.025-0.939h2.23v0.692c0,0.431,0.317,0.784,0.705,0.784h2.148
			c0.388,0,0.705-0.353,0.705-0.784V10.64c0-0.431-0.317-0.784-0.705-0.784h-2.148c-0.388,0-0.705,0.353-0.705,0.784v1.027h-2.834
			l-1.809,1.61C13.898,14.015,14.983,15.223,15.647,14.82L15.647,14.82z M15.647,14.82"/>
	</g>
	<path display="inline" fill="#02779F" d="M25.857,12.596h-0.069c-0.496,0-0.898,0.403-0.898,0.899c0,0.496,0.402,0.898,0.898,0.898
		h0.069c0.496,0,0.899-0.402,0.899-0.898C26.756,12.999,26.353,12.596,25.857,12.596L25.857,12.596z M25.857,12.596"/>
</g>
<g display="none">
	<path display="inline" fill="#02779F" d="M16.538,26.852c-1.502,0-2.719,1.217-2.719,2.719c0,1.502,1.217,2.719,2.719,2.719
		c1.503,0,2.719-1.217,2.719-2.719C19.258,28.069,18.041,26.852,16.538,26.852L16.538,26.852z M16.538,30.753
		c-0.653,0-1.182-0.529-1.182-1.182c0-0.653,0.529-1.182,1.182-1.182c0.653,0,1.182,0.529,1.182,1.182
		C17.721,30.223,17.191,30.753,16.538,30.753L16.538,30.753z M16.538,30.753"/>
	<path display="inline" fill="#02779F" d="M30.876,26.852c-1.502,0-2.719,1.217-2.719,2.719c0,1.502,1.217,2.719,2.719,2.719
		c1.503,0,2.719-1.217,2.719-2.719C33.595,28.069,32.378,26.852,30.876,26.852L30.876,26.852z M30.876,30.753
		c-0.653,0-1.182-0.529-1.182-1.182c0-0.653,0.529-1.182,1.182-1.182c0.653,0,1.182,0.529,1.182,1.182
		C32.058,30.223,31.529,30.753,30.876,30.753L30.876,30.753z M30.876,30.753"/>
	<path display="inline" fill="#02779F" d="M19.597,18.498c0,0.381-0.312,0.693-0.693,0.693H9.346c-0.381,0-0.692-0.312-0.692-0.693
		v-0.416c0-0.381,0.312-0.692,0.692-0.692h9.558c0.381,0,0.693,0.312,0.693,0.692V18.498z M19.597,18.498"/>
	<path display="inline" fill="#02779F" d="M36.204,22.553c-0.997-0.259-1.568-0.422-1.959-1.178l-1.309-2.65
		c-0.392-0.756-1.409-1.375-2.26-1.375h-1.79c0,0-0.241,0.005-0.241-0.237V14.89c0-0.862-0.488-1.567-1.525-1.567H12.528
		c-1.485,0-2.19,0.705-2.19,1.567v1.393c0,0,0,0.414,0.401,0.414h8.165c0.764,0,1.385,0.621,1.385,1.385v0.416
		c0,0.764-0.621,1.385-1.385,1.385h-8.165c0,0-0.401-0.033-0.401,0.399v0.479c0,0.381,0.522,0.381,0.522,0.381h5.497
		c0.764,0,1.385,0.621,1.385,1.385v0.416c0,0.764-0.621,1.385-1.385,1.385h-5.41c0,0-0.609-0.012-0.609,0.474v3.366
		c0,0.862,0.705,1.567,1.567,1.567h0.865c0.196,0,0.225-0.109,0.225-0.164c0-1.953,1.589-3.543,3.543-3.543
		c1.954,0,3.543,1.589,3.543,3.543c0,0.055-0.016,0.164,0.134,0.164H27.2c0.139,0,0.133-0.117,0.133-0.164
		c0-1.953,1.589-3.543,3.543-3.543s3.543,1.589,3.543,3.543c0,0.055-0.001,0.164,0.085,0.164h1.761c0.852,0,1.548-0.696,1.548-1.548
		v-2.941C37.813,22.769,37.031,22.769,36.204,22.553L36.204,22.553z M33.258,22.415h-4.407c-0.182,0-0.206-0.177-0.206-0.177v-3.671
		c0,0-0.01-0.141,0.223-0.141h1.257c0.758,0,1.663,0.55,2.011,1.223l1.165,2.358c0.049,0.095,0.101,0.179,0.157,0.255
		C33.5,22.318,33.431,22.415,33.258,22.415L33.258,22.415z M33.258,22.415"/>
	<path display="inline" fill="#02779F" d="M17.049,22.944c0,0.381-0.312,0.693-0.692,0.693H7.56c-0.381,0-0.692-0.312-0.692-0.693
		v-0.416c0-0.381,0.312-0.693,0.692-0.693h8.797c0.381,0,0.692,0.312,0.692,0.693V22.944z M17.049,22.944"/>
</g>
<g display="none">
	<g>
		<path display="inline" fill="#02779F" d="M36.244,21.427c-0.044-0.393-0.497-0.689-0.889-0.689c-1.268,0-2.393-0.751-2.865-1.915
			c-0.482-1.192-0.171-2.581,0.774-3.456c0.297-0.275,0.334-0.735,0.084-1.054c-0.649-0.832-1.386-1.584-2.192-2.236
			c-0.315-0.256-0.778-0.22-1.051,0.086c-0.825,0.922-2.306,1.265-3.451,0.783c-1.191-0.506-1.942-1.726-1.869-3.034
			c0.025-0.411-0.273-0.769-0.679-0.816c-1.034-0.121-2.077-0.125-3.113-0.008c-0.4,0.045-0.698,0.394-0.685,0.8
			c0.045,1.296-0.715,2.494-1.894,2.982c-1.131,0.466-2.602,0.126-3.425-0.788c-0.272-0.302-0.727-0.338-1.044-0.089
			c-0.829,0.657-1.583,1.41-2.238,2.235c-0.255,0.321-0.217,0.786,0.082,1.062c0.964,0.881,1.274,2.282,0.774,3.487
			c-0.477,1.149-1.658,1.889-3.011,1.889c-0.439-0.014-0.751,0.283-0.799,0.686c-0.121,1.049-0.123,2.12-0.006,3.178
			c0.044,0.394,0.511,0.688,0.908,0.688c1.205-0.031,2.361,0.722,2.847,1.915c0.484,1.191,0.172,2.58-0.774,3.457
			c-0.296,0.274-0.334,0.734-0.084,1.052c0.643,0.827,1.381,1.58,2.189,2.237c0.317,0.258,0.778,0.222,1.053-0.084
			c0.828-0.924,2.309-1.267,3.449-0.783c1.194,0.505,1.945,1.724,1.872,3.033c-0.024,0.411,0.274,0.77,0.678,0.816
			c0.529,0.063,1.061,0.093,1.594,0.093c0.507,0,1.013-0.028,1.519-0.084c0.401-0.045,0.698-0.394,0.684-0.8
			c-0.046-1.296,0.716-2.493,1.894-2.981c1.138-0.469,2.603-0.126,3.427,0.787c0.273,0.3,0.725,0.337,1.044,0.089
			c0.828-0.656,1.58-1.408,2.238-2.236c0.255-0.32,0.219-0.786-0.082-1.062c-0.963-0.88-1.275-2.282-0.775-3.486
			c0.47-1.133,1.608-1.895,2.831-1.895l0.171,0.005c0.397,0.032,0.762-0.276,0.81-0.685C36.36,23.554,36.361,22.485,36.244,21.427
			L36.244,21.427z M22.495,31.036c-4.405,0-7.977-3.607-7.977-8.057c0-4.45,3.571-8.057,7.977-8.057s7.977,3.607,7.977,8.057
			c0,1.51-0.412,2.923-1.128,4.131l-3.493-3.529c0.253-0.602,0.387-1.255,0.387-1.929c0-1.319-0.509-2.56-1.433-3.492
			c-0.923-0.933-2.152-1.447-3.458-1.447c-0.436,0-0.869,0.058-1.289,0.174c-0.184,0.051-0.334,0.204-0.383,0.39
			c-0.05,0.19,0.006,0.385,0.154,0.534c0,0,1.724,1.755,2.301,2.338c0.061,0.061,0.06,0.207,0.052,0.259l-0.005,0.038
			c-0.058,0.64-0.171,1.41-0.263,1.705c-0.012,0.012-0.024,0.023-0.037,0.036c-0.013,0.013-0.026,0.026-0.038,0.04
			c-0.296,0.096-1.069,0.211-1.714,0.269l0.001-0.004L20.095,22.5c-0.005,0.001-0.015,0.001-0.027,0.001
			c-0.07,0-0.172-0.019-0.265-0.113c-0.6-0.607-2.257-2.268-2.257-2.268c-0.148-0.15-0.301-0.181-0.403-0.181
			c-0.237,0-0.449,0.173-0.515,0.421c-0.456,1.705,0.027,3.539,1.261,4.786c0.924,0.933,2.152,1.447,3.458,1.447
			c0.667,0,1.314-0.135,1.91-0.39l3.531,3.567C25.548,30.569,24.076,31.036,22.495,31.036L22.495,31.036z M22.495,31.036"/>
	</g>
</g>
<g display="none">
	<path display="inline" fill="#02779F" d="M22.685,12.273c-1.143,0.216-2.143,1-2.71,2.069l-1.217,2.286H9.912
		c-2.212,0-3.996,1.784-3.996,3.923v3.213c0,2.212,1.784,3.996,3.996,3.996h8.919l1.213,2.282c0.571,1.069,1.572,1.784,2.71,1.996
		V12.273H22.685z M22.685,12.273"/>
	<path display="inline" fill="#02779F" d="M23.824,12.203V32.11c3.07-0.143,5.494-2.641,5.494-5.779v-8.348
		C29.318,14.914,26.894,12.346,23.824,12.203L23.824,12.203z M23.824,12.203"/>
	<path display="inline" fill="#02779F" d="M36.955,21.122h-4.996c-0.571,0-1.069,0.499-1.069,1.069c0,0.572,0.428,1.069,1.069,1.069
		h4.996c0.571,0,1.069-0.498,1.069-1.069C38.025,21.621,37.597,21.122,36.955,21.122L36.955,21.122z M36.955,21.122"/>
	<path display="inline" fill="#02779F" d="M37.31,28.115l-5.136-1.498c-0.571-0.143-1.142,0.143-1.285,0.714
		c-0.143,0.572,0.143,1.139,0.714,1.282l5.136,1.572c0.073,0,0.216,0.07,0.285,0.07c0.428,0,0.857-0.282,1-0.711
		C38.167,28.829,37.813,28.257,37.31,28.115L37.31,28.115z M37.31,28.115"/>
	<path display="inline" fill="#02779F" d="M31.889,17.84c0.07,0,0.212,0,0.285-0.073l5.136-1.568
		c0.572-0.143,0.857-0.714,0.714-1.285c-0.143-0.572-0.714-0.857-1.285-0.714l-5.136,1.641c-0.572,0.143-0.857,0.714-0.714,1.286
		C31.032,17.555,31.461,17.84,31.889,17.84L31.889,17.84z M31.889,17.84"/>
</g>
<g display="none">
	<path display="inline" fill="#02779F" d="M36.436,19.851c-0.167-1.425-4.109,0-4.109,0l-0.23,2.023
		c-0.089-0.046-0.174-0.092-0.266-0.132l-0.998-4.225c-0.363-2.009-1.923-3.491-4.2-3.415h-5.843
		c-0.038,0.237-0.095,0.464-0.164,0.688h6.401c1.33,0,2.546,0.833,2.877,2.202l1.07,4.17c-0.066-0.003-0.136-0.009-0.202-0.009
		H18.378l0.003,4.066h7.677v0.909h-7.677v0.264h7.601v0.912h-7.601l0.003,3.415h8.198v2.162c0,0.878,1.118,1.593,2.498,1.593
		c1.377,0,2.495-0.712,2.495-1.593v-2.41c1.178-0.433,1.996-1.382,1.996-2.482V24.12c0-0.857-0.496-1.619-1.264-2.119l4.128-0.215
		C36.436,21.786,36.6,21.273,36.436,19.851L36.436,19.851z M31.705,27.236h-4.503v-2.082h4.503V27.236z M31.705,27.236"/>
	<rect x="18.267" y="26.392" display="inline" fill="#02779F" width="0.114" height="0.912"/>
	<rect x="18.347" y="25.219" display="inline" fill="#02779F" width="0.035" height="0.909"/>
	<path display="inline" fill="#02779F" d="M19.904,13.491c-0.003-1.748-0.982-3.27-2.435-4.081v3.768l-2.407,1.351l-2.409-1.354
		V9.411c-1.453,0.811-2.432,2.333-2.432,4.081c0,1.83,1.08,3.418,2.653,4.198v15.523c0,0.614,0.256,1.167,0.669,1.572
		c0.414,0.402,0.986,0.645,1.617,0.648c1.257,0,2.281-0.992,2.284-2.22l-0.01-15.621C18.909,16.784,19.901,15.248,19.904,13.491
		L19.904,13.491z M15.662,34.195c-0.34,0.332-0.893,0.332-1.235,0c-0.338-0.332-0.338-0.866,0.003-1.197
		c0.341-0.332,0.893-0.332,1.231-0.003C16.003,33.326,16.003,33.863,15.662,34.195L15.662,34.195z M15.662,34.195"/>
</g>
<g>
	<g>
		<path fill="#02779F" d="M-13.333,34.917c3.224,0,3.224-5,0-5S-16.558,34.917-13.333,34.917L-13.333,34.917z"/>
	</g>
</g>
<g>
	<g>
		<path fill="#FFFFFF" d="M-7.083,26.75c3.224,0,3.224-5,0-5S-10.308,26.75-7.083,26.75L-7.083,26.75z"/>
	</g>
</g>
<g>
	<g>
		<g>
			<path fill="#02779F" d="M16.992,23.267c0.301-0.301,0.301-0.788,0-1.089l-1.295-1.295c0.153-0.256,0.27-0.535,0.345-0.831h1.831
				c0.425,0,0.77-0.345,0.77-0.77c0-0.425-0.345-0.77-0.77-0.77h-1.831c-0.075-0.296-0.193-0.575-0.345-0.831l1.295-1.295
				c0.301-0.301,0.301-0.788,0-1.089c-0.301-0.3-0.788-0.3-1.089,0l-1.295,1.296c-0.256-0.153-0.535-0.27-0.831-0.345v-1.831
				c0-0.425-0.345-0.77-0.77-0.77c-0.425,0-0.77,0.345-0.77,0.77v1.831c-0.296,0.075-0.575,0.193-0.832,0.345l-1.295-1.295
				c-0.301-0.301-0.788-0.301-1.089,0c-0.301,0.301-0.301,0.788,0,1.089l1.296,1.295c-0.153,0.256-0.27,0.535-0.345,0.831H8.141
				c-0.425,0-0.77,0.344-0.77,0.77c0,0.425,0.345,0.77,0.77,0.77h1.831c0.075,0.296,0.193,0.575,0.345,0.831l-1.296,1.295
				c-0.301,0.301-0.301,0.788,0,1.089c0.301,0.301,0.788,0.301,1.089,0l1.295-1.295c0.256,0.153,0.535,0.27,0.832,0.345v1.831
				c0,0.425,0.344,0.77,0.77,0.77c0.425,0,0.77-0.345,0.77-0.77v-1.831c0.296-0.075,0.575-0.193,0.831-0.345l1.295,1.295
				C16.204,23.568,16.691,23.568,16.992,23.267L16.992,23.267z M14.598,19.322c-0.01,0.415-0.18,0.79-0.449,1.068
				c-0.006,0.005-0.012,0.011-0.017,0.017c-0.006,0.005-0.012,0.011-0.017,0.017c-0.278,0.27-0.654,0.44-1.069,0.449
				c-0.025-0.001-0.05-0.001-0.075,0c-0.415-0.01-0.791-0.179-1.07-0.449c-0.005-0.006-0.011-0.012-0.017-0.017
				c-0.006-0.006-0.011-0.011-0.017-0.017c-0.27-0.278-0.44-0.655-0.449-1.071c0-0.012,0.001-0.025,0.001-0.037
				c0-0.013,0-0.025-0.001-0.037c0.01-0.415,0.179-0.791,0.449-1.07c0.006-0.005,0.012-0.011,0.018-0.017
				c0.006-0.006,0.012-0.012,0.017-0.018c0.279-0.27,0.654-0.439,1.069-0.448c0.025,0.001,0.05,0.001,0.075,0
				c0.415,0.01,0.791,0.179,1.069,0.448c0.006,0.006,0.012,0.012,0.018,0.018c0.006,0.006,0.012,0.012,0.018,0.018
				c0.269,0.278,0.438,0.653,0.449,1.067c-0.001,0.013-0.001,0.026-0.001,0.039C14.597,19.296,14.597,19.309,14.598,19.322
				L14.598,19.322z M12.831,30.509c0,0.425-0.344,0.77-0.77,0.77h-3.92c-0.425,0-0.77-0.345-0.77-0.77c0-0.425,0.345-0.77,0.77-0.77
				h3.92C12.486,29.739,12.831,30.084,12.831,30.509L12.831,30.509z M12.831,33.274c0,0.425-0.344,0.77-0.77,0.77h-1.753
				c-0.425,0-0.77-0.345-0.77-0.77c0-0.425,0.345-0.77,0.77-0.77h1.753C12.486,32.504,12.831,32.848,12.831,33.274L12.831,33.274z
				 M18.763,28.699c0-0.425,0.344-0.77,0.77-0.77h0.866c0.425,0,0.77,0.344,0.77,0.77s-0.345,0.77-0.77,0.77h-0.866
				C19.108,29.468,18.763,29.124,18.763,28.699L18.763,28.699z M39.324,30.145c-0.049-2.174-0.545-2.614-2.39-4.248
				c-0.21-0.186-0.44-0.39-0.693-0.617c-0.168-0.151-0.337-0.312-0.515-0.483c-0.28-0.267-0.57-0.544-0.89-0.812
				c-0.248-0.208-0.482-0.405-0.705-0.593c-2.867-2.414-4.054-3.413-7.024-3.413h-6.451c-0.425,0-0.77,0.344-0.77,0.77
				c0,0.425,0.345,0.77,0.77,0.77h6.451c2.409,0,3.177,0.646,6.033,3.052c0.224,0.188,0.459,0.387,0.708,0.595
				c0.282,0.236,0.553,0.495,0.815,0.745c0.179,0.171,0.365,0.348,0.551,0.515c0.256,0.229,0.488,0.435,0.7,0.623
				c0.408,0.361,0.726,0.643,0.973,0.88H25.953c-0.165-0.058-0.773-0.426-1.916-1.563c-0.907-0.902-1.533-1.67-1.638-1.858
				c-0.168-0.381-0.61-0.56-0.997-0.4c-0.393,0.162-0.58,0.612-0.418,1.005c0.221,0.534,1.419,1.803,2.023,2.399
				c1.979,1.956,2.627,1.956,2.903,1.956h11.841c0.02,0.2,0.027,0.43,0.033,0.711c0.009,0.402,0.005,1.264,0.003,1.894l-0.002,0.438
				c-0.002,0.327-0.003,0.701-0.003,1.162c0,0.119-0.057,0.235-0.154,0.332c-0.451-1.492-1.839-2.582-3.477-2.582
				c-2.002,0-3.631,1.629-3.631,3.631c0,2.002,1.629,3.631,3.631,3.631c1.784,0,3.272-1.293,3.575-2.992
				c0.933-0.303,1.595-1.1,1.595-2.02c0-0.458,0.002-0.829,0.003-1.155l0.002-0.438C39.33,31.407,39.333,30.568,39.324,30.145
				L39.324,30.145z M36.243,35.057c-0.001,1.152-0.939,2.09-2.092,2.09c-1.153,0-2.092-0.938-2.092-2.091
				c0-1.153,0.938-2.092,2.092-2.092c1.151,0,2.088,0.934,2.092,2.083C36.243,35.05,36.243,35.054,36.243,35.057L36.243,35.057z
				 M34.922,35.055c0,0.425-0.345,0.77-0.77,0.77c-0.425,0-0.77-0.345-0.77-0.77c0-0.426,0.344-0.77,0.769-0.77h0.002
				C34.577,34.285,34.922,34.63,34.922,35.055L34.922,35.055z M28.063,34.285h-4.444c-0.354-1.634-1.811-2.861-3.549-2.861
				c-1.64,0-3.03,1.093-3.479,2.589c-0.05-0.051-0.09-0.104-0.116-0.157c-0.03-0.06-0.045-0.121-0.045-0.182v-7.169
				c0-0.425-0.344-0.77-0.77-0.77s-0.77,0.345-0.77,0.77v7.169c0,0.302,0.069,0.594,0.206,0.869
				c0.273,0.549,0.782,0.961,1.399,1.156c0.304,1.696,1.791,2.987,3.574,2.987c1.738,0,3.195-1.227,3.549-2.861h4.444
				c0.425,0,0.77-0.345,0.77-0.77C28.833,34.63,28.488,34.285,28.063,34.285L28.063,34.285z M20.07,37.147
				c-1.149,0-2.085-0.932-2.091-2.08c0-0.01,0-0.02,0-0.029c0.009-1.145,0.944-2.074,2.091-2.074c1.153,0,2.092,0.938,2.092,2.092
				C22.162,36.208,21.223,37.147,20.07,37.147L20.07,37.147z M20.841,35.055"/>
		</g>
	</g>
	<g>
		<g>
			<path fill="#02779F" d="M25.725,27.322c3.224,0,3.224-5,0-5S22.5,27.322,25.725,27.322L25.725,27.322z"/>
		</g>
	</g>
	<g>
		<g>
			<path fill="#02779F" d="M25.223,25.323c0.768,0.913,1.684,1.71,2.844,2.067c1.302,0.402,2.722-0.463,3.075-1.746
				c0.37-1.344-0.445-2.674-1.746-3.075c-0.457-0.141,0.557,0.295,0.114,0.029c-0.212-0.147-0.164-0.107,0.146,0.122
				c-0.079-0.067-0.155-0.136-0.23-0.207c-0.241-0.224-0.457-0.474-0.668-0.725c-0.878-1.044-2.634-0.901-3.536,0
				C24.198,22.813,24.346,24.282,25.223,25.323L25.223,25.323z"/>
		</g>
	</g>
	<g>
		<g>
			<path fill="#02779F" d="M32.859,24.729c-1.31-1.279-2.011-2.732-3.954-3.091c-0.111,0.818-0.222,1.637-0.332,2.455
				c1.197,0.127,2.276,0.998,3.246,1.649c1.262,0.847,2.496,1.705,3.719,2.611c0.1-0.762,0.199-1.523,0.299-2.285
				c-0.895,0.165-2.157-0.436-3.037-0.62c-0.97-0.203-1.982-0.123-2.96-0.057c-1.592,0.107-1.626,2.513,0,2.5
				c0.77-0.006,1.461,0.144,2.2,0.351c0-0.804,0-1.607,0-2.411c-2.006,0.463-4.132-0.216-6.156-0.282
				c-1.613-0.052-1.608,2.448,0,2.5c2.295,0.074,4.537,0.72,6.82,0.193c1.231-0.284,1.158-2.086,0-2.411
				c-0.957-0.268-1.868-0.448-2.864-0.44c0,0.833,0,1.667,0,2.5c1.383-0.093,2.627-0.021,3.964,0.377
				c0.935,0.279,1.739,0.388,2.698,0.211c1.183-0.218,1.07-1.713,0.299-2.285c-2.396-1.775-5.151-4.274-8.226-4.601
				c-1.401-0.149-1.711,2.201-0.332,2.455c1.367,0.252,1.924,1.543,2.851,2.448C32.245,27.623,34.014,25.857,32.859,24.729
				L32.859,24.729z"/>
		</g>
	</g>
	<g>
		<g>
			<path fill="#02779F" d="M25.645,28.05c1.612,0,1.612-2.5,0-2.5C24.033,25.55,24.033,28.05,25.645,28.05L25.645,28.05z"/>
		</g>
	</g>
	<g>
		<g>
			<path fill="#02779F" d="M23.762,24.487c-0.139-0.03-0.128-0.013,0.033,0.051c0.212,0.094,0.012-0.056,0.124,0.119
				c-0.064-0.123-0.064-0.12,0,0.009c-0.012-0.033-0.079-0.388-0.047-0.123c-0.025-0.205-0.014-0.413,0.004-0.618
				c-0.022,0.253,0.042-0.124,0.048-0.148c0.091-0.347-0.11,0.179,0.042-0.121c0.078-0.122,0.07-0.121-0.022,0.005
				c0.224-0.271-0.52,0.191-0.124,0.074c-0.119,0.003-0.094,0,0.073-0.01c0.155-0.012,0.312-0.002,0.467,0.004
				c0.444,0.02,0.899,0.117,1.348,0.24c1.557,0.427,2.217-1.985,0.665-2.411c-1.547-0.424-3.875-0.781-4.659,1.034
				c-0.585,1.354-0.547,4.034,1.383,4.304c0.674,0.094,1.34-0.153,1.538-0.873C24.798,25.433,24.438,24.581,23.762,24.487
				L23.762,24.487z"/>
		</g>
	</g>
	<g>
		<g>
			<path fill="#02779F" d="M26.199,24.094c1.612,0,1.612-2.5,0-2.5C24.587,21.594,24.587,24.094,26.199,24.094L26.199,24.094z"/>
		</g>
	</g>
	<g>
		<g>
			<path fill="#02779F" d="M20.014,21.987c0.108,0.108,0.294,0.287,0.351,0.362c0.018,0.024,0.172,0.378,0.118,0.194
				c-0.023-0.078,0.031-0.342-0.047-0.125c-0.234,0.65-0.224,1.251,0.173,1.848c0.376,0.566,1.097,0.808,1.71,0.448
				c0.562-0.329,0.826-1.142,0.448-1.71c-0.227-0.342,0.017,0.175-0.023,0.336c0.022-0.088,0.068-0.174,0.103-0.257
				c0.14-0.337,0.131-0.724,0.069-1.076c-0.125-0.715-0.639-1.29-1.135-1.788C20.643,19.076,18.876,20.844,20.014,21.987
				L20.014,21.987z"/>
		</g>
	</g>
	<g>
		<g>
			<path fill="#02779F" d="M20.107,22.511c1.612,0,1.612-2.5,0-2.5C18.495,20.011,18.495,22.511,20.107,22.511L20.107,22.511z"/>
		</g>
	</g>
	<g>
		<g>
			<path fill="#02779F" d="M18.699,21.499c0.189,1.569,1.101,2.919,2.36,3.849c0.549,0.406,1.394,0.092,1.71-0.448
				c0.372-0.636,0.098-1.306-0.448-1.71c-0.412-0.304-1.068-1.243-1.122-1.69c-0.081-0.676-0.507-1.25-1.25-1.25
				C19.329,20.249,18.617,20.82,18.699,21.499L18.699,21.499z"/>
		</g>
	</g>
	<g>
		<g>
			<path fill="#02779F" d="M21.768,25.676c1.612,0,1.612-2.5,0-2.5C20.156,23.176,20.156,25.676,21.768,25.676L21.768,25.676z"/>
		</g>
	</g>
	<g>
		<g>
			<path fill="#02779F" d="M15.834,29.086c2.585,0,5.169,0,7.754,0c0.806,0,0.806-1.25,0-1.25c-2.585,0-5.169,0-7.754,0
				C15.028,27.836,15.028,29.086,15.834,29.086L15.834,29.086z"/>
		</g>
	</g>
	<g>
		<g>
			<path fill="#02779F" d="M24.379,29.086c0.806,0,0.806-1.25,0-1.25S23.573,29.086,24.379,29.086L24.379,29.086z"/>
		</g>
	</g>
	<g>
		<g>
			<path fill="#02779F" d="M23.905,29.244c0.806,0,0.806-1.25,0-1.25S23.099,29.244,23.905,29.244L23.905,29.244z"/>
		</g>
	</g>
	<g>
		<g>
			<path fill="#02779F" d="M16.072,29.403c3.218,0,6.435,0,9.653,0c0.806,0,0.806-1.25,0-1.25c-3.218,0-6.435,0-9.653,0
				C15.266,28.153,15.266,29.403,16.072,29.403L16.072,29.403z"/>
		</g>
	</g>
	<g>
		<g>
			<path fill="#02779F" d="M15.914,29.324c3.112,0,6.224,0,9.336,0c0.806,0,0.806-1.25,0-1.25c-3.112,0-6.224,0-9.336,0
				C15.108,28.074,15.108,29.324,15.914,29.324L15.914,29.324z"/>
		</g>
	</g>
	<g>
		<g>
			<path fill="#02779F" d="M16.388,29.877c7.121,0,14.242,0,21.362,0c0.806,0,0.806-1.25,0-1.25c-7.121,0-14.242,0-21.362,0
				C15.582,28.627,15.582,29.877,16.388,29.877L16.388,29.877z"/>
		</g>
	</g>
	<g>
		<g>
			<path fill="#02779F" d="M19.553,38.082c3.224,0,3.224-5,0-5S16.329,38.082,19.553,38.082L19.553,38.082z"/>
		</g>
	</g>
	<g>
		<g>
			<path fill="#02779F" d="M21.215,37.212c3.224,0,3.224-5,0-5S17.99,37.212,21.215,37.212L21.215,37.212z"/>
		</g>
	</g>
	<g>
		<g>
			<path fill="#02779F" d="M20.344,36.895c3.224,0,3.224-5,0-5S17.12,36.895,20.344,36.895L20.344,36.895z"/>
		</g>
	</g>
	<g>
		<g>
			<path fill="#02779F" d="M34.19,37.528c3.224,0,3.224-5,0-5C30.966,32.528,30.966,37.528,34.19,37.528L34.19,37.528z"/>
		</g>
	</g>
	<g>
		<g>
			<path fill="#FFFFFF" d="M20.028,36.357c1.612,0,1.612-2.5,0-2.5C18.416,33.857,18.416,36.357,20.028,36.357L20.028,36.357z"/>
		</g>
	</g>
	<g>
		<g>
			<path fill="#FFFFFF" d="M34.19,36.515c1.612,0,1.612-2.5,0-2.5C32.578,34.015,32.578,36.515,34.19,36.515L34.19,36.515z"/>
		</g>
	</g>
</g>
</svg>
