<?xml version="1.0" encoding="utf-8"?>
<!-- Generator: Adobe Illustrator 17.0.0, SVG Export Plug-In . SVG Version: 6.00 Build 0)  -->
<!DOCTYPE svg PUBLIC "-//W3C//DTD SVG 1.1//EN" "http://www.w3.org/Graphics/SVG/1.1/DTD/svg11.dtd">
<svg version="1.1" id="Capa_1" xmlns="http://www.w3.org/2000/svg" xmlns:xlink="http://www.w3.org/1999/xlink" x="0px" y="0px"
	 width="612px" height="612px" viewBox="0 0 612 612" enable-background="new 0 0 612 612" xml:space="preserve">
<g display="none">
	<g id="Shape_28_1_" display="inline">
		<g>
			<path fill="#00A1DA" stroke="#00A1DA" stroke-width="7" stroke-miterlimit="10" d="M411.765,125.173H230.989V487.46h180.775
				c99.683,0,180.777-81.258,180.777-181.14S511.447,125.173,411.765,125.173z M333.655,468.441h-83.687v-324.25h83.687V468.441z
				 M411.765,468.441h-59.12v-324.25h59.12c89.216,0,161.798,72.733,161.798,162.131
				C573.562,395.707,500.981,468.441,411.765,468.441z M20.5,216.667h170.815v-19.018H20.5V216.667z M20.5,283.233h170.815v-19.018
				H20.5V283.233z M20.5,349.799h170.815v-19.018H20.5V349.799z M20.5,416.365h170.815v-19.018H20.5V416.365z"/>
		</g>
	</g>
</g>
<path display="none" d="M317.5,269.5c-0.003-14.954-0.57-29.754-3.856-44.399c-2.977-13.27-8.671-26.775-7.144-40.601
	c0.707-6.405-9.3-6.337-10,0c-1.496,13.555,3.475,27.162,6.746,40.116c3.729,14.765,4.251,29.73,4.254,44.884
	c0,0.834,0.17,1.559,0.462,2.177c-0.999,2.928,0.514,6.823,4.538,6.823s5.537-3.894,4.538-6.822
	C317.33,271.059,317.5,270.335,317.5,269.5z"/>
<rect x="246.096" y="133.149" display="none" fill="#00A1DA" width="100.404" height="346.351"/>
<g display="none">
	<g display="inline">
		<path fill="#00A1DA" d="M92.078,375.242l40.087,50.282c8.855,11.104,22.603,15.695,36.882,13.862l-46.513,47.299
			c0,0-4.025,15.138,20.045,25.139c24.079,10.015,48.513-44.255,48.513-44.255l-18.227-28.814c1.487-0.303,2.986-0.662,4.494-1.15
			l55.521,44.203c31.616,30.734,60.674,21.286,84.995-0.904l54.159-49.426l0.421-0.385l54.151-49.426
			c24.329-22.19,37.637-51.402,14.25-89.655l-32.02-65.628c0.679-1.514,1.249-3.04,1.762-4.566l23.715,23.795
			c0,0,53.957-17.239,48.509-44.259c-5.436-27.011-20.045-25.147-20.045-25.147l-50.991,41.682
			c3.957-14.796,1.884-30.046-6.967-41.15l-40.091-50.291c-9.978-12.517-26.124-16.746-42.318-12.911l-26.944-33.799
			c-9.113-11.441-29.684-8.67-45.98,6.196c-16.271,14.861-22.094,36.169-12.981,47.606l22.414,28.123l-58.617,53.477l-0.416,0.385
			l-58.621,53.486l-22.414-28.123c-9.122-11.437-29.713-8.644-45.984,6.209c-16.295,14.87-22.094,36.16-12.981,47.597l26.944,33.799
			C80.742,344.996,82.1,362.724,92.078,375.242z M343.115,163.03l21.578,27.063l-53.209,48.557l-21.578-27.067L343.115,163.03z
			 M305.947,348.572l0.421-0.385l97.665-89.12l24.988,53.802l0.388,0.744c7.428,13.158,3.063,35.3-9.154,46.452l-60.448,55.155
			l-0.421,0.38l-60.452,55.151c-12.213,11.151-33.342,12.262-44.314,2.34l-0.627-0.519l-45.712-34.881L305.947,348.572z
			 M182.473,309.622l21.573,27.063l-53.213,48.557l-21.573-27.063L182.473,309.622z"/>
		<rect x="57.685" y="518.163" fill="#00A1DA" width="494.76" height="32.278"/>
		<polygon fill="#00A1DA" points="431.748,398.897 434.241,411.337 459.86,405.457 440.19,430.639 460.139,452.418 433.138,451.731 
			424.377,482.841 407.794,461.922 380.822,471.915 396.559,434.418 385.712,429.208 358.695,493.56 403.991,476.8 429.452,508.918 
			441.908,464.677 489.12,465.879 456.214,429.956 491.124,385.281 		"/>
	</g>
</g>
<g>
	<g>
		<g id="Shape_28_2_">
			<g>
				<path fill="#03769E" stroke="#03769E" stroke-width="4" stroke-miterlimit="10" d="M398.206,171.217H262.912v307.886h135.293
					c74.603,0,135.295-69.057,135.295-153.94S472.809,171.217,398.206,171.217z M339.748,462.939h-62.632V187.379h62.632V462.939z
					 M398.206,462.939H353.96V187.379h44.246c66.77,0,121.091,61.812,121.091,137.786
					C519.297,401.128,464.976,462.939,398.206,462.939z M105.38,248.972h127.84v-16.163H105.38V248.972z M105.38,305.542h127.84
					V289.38H105.38V305.542z M105.38,362.113h127.84V345.95H105.38V362.113z M105.38,418.683h127.84v-16.163H105.38V418.683z"/>
			</g>
		</g>
	</g>
	<path fill="#03769E" d="M381.34,240.436c-0.115-0.49-0.322-0.994-0.643-1.503c-5.801-9.189-6.877-21.057-7.86-31.637
		c-0.559-6.015-10.015-6.069-9.451,0c1.138,12.244,2.435,25.768,9.151,36.408c0.187,0.297,0.392,0.557,0.609,0.789
		c0.456,1.866,1.927,3.442,4.416,3.442C381.876,247.934,383.133,243.203,381.34,240.436z"/>
	<path fill="#03769E" d="M394.574,277.232c-6.095,0-6.095,9.451,0,9.451C400.669,286.683,400.669,277.232,394.574,277.232z"/>
	<path fill="#03769E" d="M-29.766,167.603c-6.095,0-6.095,9.451,0,9.451S-23.671,167.603-29.766,167.603z"/>
	<path fill="#03769E" stroke="#03769E" stroke-width="64" stroke-miterlimit="10" d="M502.133,318.566
		c-0.939-17.514-3.722-36.3-11.729-52.071c-7.76-15.283-22.341-24.309-37.949-30.086c-10.644-3.94-25.343-6.985-36.136-1.729
		c0.486-6.03,1.464-11.965,3.093-17.662c1.679-5.873-7.441-8.361-9.113-2.512c-4.096,14.32-4.095,29.827-2.92,44.555
		c1.417,17.764,5.084,35.501,11.415,52.174c5.634,14.837,13.709,29.763,26.291,39.839c11.907,9.536,31.363,15.239,45.04,5.972
		C502.26,348.826,502.838,331.707,502.133,318.566z M477.382,351.916c-15.383,1.919-28.473-7.767-37.045-19.602
		c-12.318-17.009-18.345-38.333-21.742-58.793c-1.429-8.602-2.46-17.675-2.621-26.748c5.954-6.622,15.594-5.944,23.708-4.251
		c9.001,1.878,17.087,5.708,25.055,10.139c20.018,11.132,24.516,35.386,27.02,56.179
		C493.396,322.458,496.699,349.507,477.382,351.916z"/>
</g>
<g display="none">
	<g display="inline">
		<path fill="#00A1DA" d="M270.24,159.342h53.141c1.668,0,3.018-1.28,3.018-2.861v-13.296c-0.534,0.079-1.078,0.134-1.637,0.134
			h-4.226c-5.837,0-10.569-4.486-10.569-10.018v-4.002c0-5.533,4.734-10.017,10.569-10.017h4.226c0.556,0,1.103,0.054,1.637,0.133
			v-13.299c0-1.582-1.35-2.862-3.018-2.862H270.24c-1.67,0-3.02,1.281-3.02,2.862v50.362
			C267.219,158.061,268.569,159.342,270.24,159.342z"/>
		<path fill="#00A1DA" d="M373.741,186.82h-14.439c-4.094-6.7-11.722-11.218-20.478-11.218h-84.027
			c-8.759,0-16.386,4.518-20.481,11.218h-14.439c-13.074,0-23.673,10.044-23.673,22.435v4.487c0,5.681,2.244,10.853,5.919,14.804
			v275.499c-3.674,3.952-5.919,9.122-5.919,14.804v4.486c0,12.391,10.599,22.433,23.673,22.433h153.864
			c13.074,0,23.671-10.043,23.671-22.433v-4.486c0-5.683-2.244-10.855-5.917-14.804V228.546c3.672-3.951,5.917-9.124,5.917-14.804
			v-4.487C397.413,196.865,386.817,186.82,373.741,186.82z M366.112,391.91c0,7.126-6.093,12.9-13.609,12.9
			c-7.517,0-13.612-5.777-13.612-12.9v-22.808c0-7.126,6.095-12.898,13.612-12.898c7.519,0,13.609,5.776,13.609,12.898V391.91z
			 M366.112,326.477c0,7.123-6.093,12.898-13.609,12.898c-7.517,0-13.612-5.776-13.612-12.898v-76.652
			c0-7.124,6.095-12.899,13.612-12.899c7.519,0,13.609,5.776,13.609,12.899V326.477z"/>
		<path fill="#00A1DA" d="M416.836,98.696c1.411-0.573,2.503-1.634,3.074-2.986c0.569-1.351,0.552-2.833-0.054-4.169
			c-0.907-2.011-2.983-3.309-5.29-3.309c-0.778,0-1.54,0.149-2.261,0.442l-79.603,32.332l83.454-22.079
			C416.262,98.896,416.547,98.812,416.836,98.696z"/>
		<path fill="#00A1DA" d="M416.832,163.904c-0.217-0.087-0.472-0.172-0.758-0.25L332.7,141.597l79.603,32.332
			c0.722,0.293,1.485,0.442,2.263,0.442c2.308,0,4.383-1.297,5.291-3.304c0.605-1.34,0.624-2.821,0.054-4.175
			C419.332,165.522,418.267,164.487,416.832,163.904z"/>
	</g>
</g>
<g display="none">
	<g display="inline">
		<circle fill="#00A1DA" stroke="#00A1DA" stroke-width="4" stroke-miterlimit="10" cx="393.426" cy="153.949" r="44.304"/>
	</g>
	<g display="inline">
		<g>
			<path fill="#00A1DA" stroke="#00A1DA" stroke-width="4" stroke-miterlimit="10" d="M393.243,199.281
				c25.154,0,45.619-20.466,45.619-45.622c0-25.155-20.465-45.62-45.619-45.62c-25.156,0-45.621,20.466-45.621,45.62
				C347.622,178.816,368.087,199.281,393.243,199.281z M393.243,115.917c20.811,0,37.742,16.932,37.742,37.743
				c0,20.812-16.932,37.745-37.742,37.745c-20.811,0-37.744-16.932-37.744-37.745S372.432,115.917,393.243,115.917z"/>
			<path fill="#00A1DA" stroke="#00A1DA" stroke-width="4" stroke-miterlimit="10" d="M172.33,150.653H95.058
				c-8.587,0-15.574,6.986-15.574,15.572v340.891c0,8.587,6.986,15.574,15.574,15.574h77.272c8.587,0,15.574-6.986,15.574-15.574
				V166.225C187.902,157.639,180.917,150.653,172.33,150.653z M87.362,507.117V166.225c0-4.244,3.452-7.695,7.696-7.695h15.316
				v356.281H95.058C90.814,514.812,87.362,511.359,87.362,507.117z M180.025,507.117c0,4.244-3.452,7.696-7.696,7.696h-54.078
				V158.53h29.655v116.602c0,2.175,1.762,3.939,3.939,3.939c2.176,0,3.939-1.764,3.939-3.939V158.53h16.547
				c4.244,0,7.696,3.452,7.696,7.695v340.891h-0.002V507.117z"/>
			<path fill="#00A1DA" stroke="#00A1DA" stroke-width="4" stroke-miterlimit="10" d="M204.906,199.445
				c1.008,0,2.016-0.385,2.785-1.154l38.393-38.393c1.538-1.538,1.538-4.032,0-5.57c-1.537-1.538-4.034-1.538-5.57,0l-38.393,38.393
				c-1.538,1.538-1.538,4.032,0,5.57C202.889,199.06,203.897,199.445,204.906,199.445z"/>
			<path fill="#00A1DA" stroke="#00A1DA" stroke-width="4" stroke-miterlimit="10" d="M203.203,174.771
				c0.55,0.263,1.129,0.387,1.699,0.387c1.468,0,2.878-0.825,3.555-2.238l26.759-55.845c0.94-1.962,0.111-4.314-1.85-5.254
				c-1.962-0.94-4.314-0.112-5.255,1.85l-26.759,55.845C200.414,171.479,201.243,173.831,203.203,174.771z"/>
			<path fill="#00A1DA" stroke="#00A1DA" stroke-width="4" stroke-miterlimit="10" d="M207.691,220.008
				c-1.537-1.538-4.034-1.538-5.57,0c-1.538,1.538-1.538,4.032,0,5.57l38.393,38.393c0.768,0.769,1.777,1.154,2.785,1.154
				s2.016-0.385,2.785-1.154c1.538-1.538,1.538-4.032,0-5.57L207.691,220.008z"/>
			<path fill="#00A1DA" stroke="#00A1DA" stroke-width="4" stroke-miterlimit="10" d="M208.458,245.379
				c-0.94-1.962-3.293-2.791-5.255-1.85c-1.961,0.94-2.79,3.292-1.85,5.254l26.759,55.845c0.677,1.412,2.086,2.238,3.555,2.238
				c0.571,0,1.15-0.124,1.699-0.388c1.961-0.94,2.79-3.292,1.85-5.254L208.458,245.379z"/>
			<path fill="#00A1DA" stroke="#00A1DA" stroke-width="4" stroke-miterlimit="10" d="M269.722,302.688
				c0,6.662,5.421,12.082,12.083,12.082c6.662,0,12.082-5.421,12.082-12.082v-3.362l26.953,25.094
				c3.713,3.474,8.558,5.387,13.647,5.387c0,0,0.001,0,0.002,0c5.134,0,10.113-2.004,13.83-5.542v31.682l-72.033,1.455
				c-0.025,0-0.051,0-0.077,0.001c-11.726,0.246-22.111,7.441-26.461,18.335c-1.448,3.623-2.142,7.455-2.066,11.312
				c0,0.047,0.001,0.104,0.004,0.161l2.04,100.905c0.318,15.745,13.384,28.555,29.128,28.555c0.198,0,0.394-0.002,0.595-0.006
				c7.784-0.157,15.041-3.336,20.433-8.95c5.39-5.613,8.273-12.993,8.116-20.775l-1.449-71.851l64.155-1.295l-0.001,65.241
				c-0.002,11.741,6.984,22.283,17.793,26.854c3.597,1.523,7.417,2.295,11.26,2.293c0.047,0,0.105-0.001,0.163,0l100.934-0.001
				c0.084,0,0.166,0.001,0.249-0.001c15.952-0.133,28.893-13.154,28.893-29.138c0.001-7.786-3.029-15.105-8.534-20.609
				c-5.504-5.504-12.823-8.535-20.606-8.535l-71.865-0.001l-0.002-50.964c5.754-7.551,9.181-16.967,9.181-27.172V253.675
				c0-24.773-20.153-44.926-44.925-44.926c-24.772,0-44.925,20.153-44.925,44.926v12.102l-14.835,15.826l-29.1-27.164
				c-2.932-2.772-6.579-4.546-10.495-5.187v-36.149c0-6.662-5.421-12.083-12.082-12.083c-3.728,0-7.068,1.699-9.286,4.363H206.07
				c-2.176,0-3.939,1.764-3.939,3.939c0,2.175,1.762,3.939,3.939,3.939h63.653C269.722,213.261,269.722,302.688,269.722,302.688z
				 M281.806,208.898c2.319,0,4.205,1.887,4.205,4.206v36.423c-3.091,0.741-5.987,2.204-8.411,4.284v-40.707
				C277.6,210.784,279.487,208.898,281.806,208.898z M286.01,302.688c0,2.319-1.886,4.205-4.205,4.205s-4.206-1.886-4.206-4.205
				v-18.525l8.411,7.83L286.01,302.688L286.01,302.688z M334.489,321.931L334.489,321.931c-3.082,0-6.017-1.158-8.273-3.268
				l-43.906-40.875c-2.353-2.224-3.7-5.233-3.791-8.47c-0.091-3.238,1.084-6.317,3.309-8.672c2.313-2.448,5.443-3.796,8.814-3.796
				c3.109,0,6.067,1.177,8.346,3.332l31.992,29.863c1.59,1.483,4.075,1.4,5.562-0.185l43.78-46.702
				c2.313-2.448,5.443-3.795,8.814-3.795c3.108,0,6.067,1.177,8.327,3.314c4.859,4.593,5.076,12.283,0.472,17.155l-54.614,58.296
				C341.002,320.58,337.865,321.931,334.489,321.931z M356.196,315.905l47.477-50.678c7.575-8.015,7.218-20.701-0.796-28.278
				c-3.73-3.526-8.609-5.467-13.74-5.467c-5.477,0-10.776,2.282-14.549,6.273l-18.391,19.618v-3.698
				c0-20.429,16.62-37.049,37.048-37.049s37.048,16.62,37.048,37.049V371.76c0,20.212-16.274,36.684-36.404,37.029
				c8.037-5.339,13.273-14.539,13.064-24.878c-0.323-15.945-13.702-28.877-29.728-28.547l-21.027,0.424v-39.883L356.196,315.905
				L356.196,315.905z M302.45,407.294c-2.175,0.043-3.903,1.842-3.858,4.018l1.528,75.789c0.115,5.68-1.988,11.064-5.922,15.16
				c-3.885,4.046-9.098,6.348-14.697,6.516v-80.734c0-2.175-1.762-3.939-3.939-3.939c-2.176,0-3.939,1.764-3.939,3.939v79.466
				c-8.007-2.939-13.841-10.593-14.022-19.55l-2.041-100.948c-0.001-0.027-0.001-0.055-0.003-0.084
				c-0.051-2.859,0.455-5.641,1.505-8.266c3.173-7.949,10.749-13.199,19.303-13.381c0.012,0,0.023,0,0.036,0l100.98-2.04
				l0.442-0.005c11.487,0,21.019,9.348,21.252,20.836c0.235,11.724-9.112,21.454-20.837,21.693h-0.002l0,0l-0.092,0.002
				L302.45,407.294z M501.033,500.303c-0.059,0-0.121,0.001-0.181,0l-100.968,0.001c-0.022,0-0.05-0.001-0.075,0.001
				c-2.861-0.003-5.633-0.566-8.242-1.671c-7.891-3.337-12.989-11.031-12.989-19.606l0.002-64.809
				c4.715,1.632,9.637,2.465,14.666,2.465c10.521,0,20.199-3.645,27.863-9.725l0.001,46.875c0,2.175,1.764,3.939,3.939,3.94h75.805
				c5.679,0,11.022,2.211,15.037,6.228c4.016,4.016,6.227,9.357,6.226,15.039c0,0.694-0.035,1.38-0.101,2.057h-64.351
				c-2.176,0-3.939,1.764-3.939,3.939s1.762,3.939,3.939,3.939h61.981C516.099,495.657,509.095,500.235,501.033,500.303z"/>
		</g>
		<g>
			
				<rect x="81.551" y="159.475" fill="#00A1DA" stroke="#00A1DA" stroke-width="4" stroke-miterlimit="10" width="78.38" height="356.281"/>
			
				<rect x="349.542" y="230.326" transform="matrix(0.7213 0.6926 -0.6926 0.7213 294.1804 -174.9689)" fill="#00A1DA" stroke="#00A1DA" stroke-width="4" stroke-miterlimit="10" width="29.938" height="95.491"/>
			
				<rect x="298.999" y="247.927" transform="matrix(-0.6849 0.7286 -0.7286 -0.6849 736.926 262.3166)" fill="#00A1DA" stroke="#00A1DA" stroke-width="4" stroke-miterlimit="10" width="25.493" height="85.136"/>
			<g>
				
					<rect x="378.578" y="458.718" fill="#00A1DA" stroke="#00A1DA" stroke-width="4" stroke-miterlimit="10" width="143.437" height="42.53"/>
				
					<rect x="378.578" y="409.143" fill="#00A1DA" stroke="#00A1DA" stroke-width="4" stroke-miterlimit="10" width="50.412" height="92.104"/>
			</g>
		</g>
	</g>
</g>
<path fill="#03769E" d="M509.704,373.319c-0.655-3.017-4.413-4.293-6.942-2.824c-1.658,0.963-3.201,2.026-4.636,3.17
	c-1.391-0.239-2.848,0.126-3.881,1.35c-0.452,0.536-0.917,1.076-1.388,1.621c-0.197-0.537-0.404-1.074-0.641-1.61
	c-1.285-2.9-5.4-2.847-7.422-0.956c-1.445,1.35-2.84,2.795-4.167,4.316c0.024-1.063-0.043-2.123-0.221-3.175
	c-0.547-3.233-4.447-4.018-6.942-2.824c-0.711,0.34-1.407,0.709-2.09,1.101c0.573-3.646,0.557-7.242-0.42-10.563
	c-0.941-3.204-4.143-4.01-6.942-2.824c-0.697,0.296-1.378,0.622-2.05,0.964c-0.486-2.946-1.24-5.813-2.349-8.536
	c-0.905-2.221-3.189-4.265-5.813-3.3c-2.28,0.838-4.632,1.876-7.001,3.077c-0.374-0.33-0.791-0.611-1.239-0.827
	c-0.042-0.28-0.078-0.56-0.123-0.839c-0.657-4.058-6.864-4.567-8.637-1.128c-0.416,0.806-0.81,1.631-1.213,2.449
	c-1.523-5.548-3.668-10.872-6.692-15.68c-1.589-2.525-5.744-3.032-7.681-0.905c-0.116,0.057-0.225,0.129-0.337,0.194
	c-0.004-0.016-0.008-0.032-0.011-0.049c-1.222-5.279-9.261-4.005-9.282,1.256c-0.009,2.036-0.048,4.08-0.108,6.131
	c-2.771-13.275-7.174-26.332-11.402-38.574c-0.848-2.453-2.856-3.476-4.793-3.329c-1.456-6.059-3.85-11.763-7.764-16.714
	c-1.512-1.913-4.436-1.729-6.29-0.337c0.365-5.031,0.546-10.088,0.533-15.15c2.375-6.838,4.556-13.747,7.098-20.526
	c1.943-5.183,4.085-10.287,6.685-15.177c0.499-0.938,1.181-2.242,1.962-3.533c6.472,26.521,16.186,54.187,34.362,74.636
	c1.364,1.534,4.018,1.821,5.726,0.739c3.537-2.24,6.143-5.455,8.528-8.832c2.372,6.293,6.574,11.674,13.625,15.202
	c2.81,4.708,10.354,0.04,7.894-5.274c-0.054-0.117-0.116-0.228-0.171-0.344c0.695-12.699-6.305-25.135-14.554-34.91
	c0.529-5.463,1.444-10.803,2.063-15.392c2.334-17.325,5.369-37.733-4.736-52.91c0.412-2.131-0.678-4.485-3.271-5.449
	c-0.686-0.255-1.407-0.396-2.115-0.579c-1.041-0.518-2.295-0.71-3.343-0.325c-0.037,0.013-0.074,0.027-0.111,0.041
	c-2.592,0.951-3.673,3.274-3.278,5.393c-2.877,0.785-6.134,0.438-9.026,0.222c-7.316-0.546-13.576-1.48-20.809,0.363
	c-7.753,1.976-15.3,5.224-23.393,5.452c-0.646,0.018-1.311-0.019-1.978-0.084c-0.016-0.434-0.043-0.869-0.084-1.305
	c1.332-1.865,2.463-3.844,3.533-5.975c0.646-1.287,0.717-2.94,0.204-4.319c1.657,0.244,3.283,0.52,4.856,0.82
	c5.954,1.139,8.494-7.969,2.512-9.113c-11.494-2.198-25.433-3.616-36.535,0.945c-2.551,1.048-4.793,4.212-2.824,6.942
	c0.445,0.617,0.837,1.253,1.203,1.897c-1.761,6.832-2.346,13.654-1.272,20.57c-0.408,0.68-0.634,1.528-0.577,2.555
	c0.279,5.007,0.56,10.058,1.002,15.092c0.228,3.303,0.447,6.606,0.63,9.91c-0.426,0.678-0.687,1.485-0.687,2.405
	c0.002,7.581,0.073,15.142,0.945,22.682c0.13,1.127,0.541,2.048,1.119,2.762c-1.19,0.728-2.048,2.009-2.064,3.854
	c-0.073,8.077-0.888,16.069-0.663,24.08c-0.751,10.825-1.928,21.629-2.84,32.445c-0.736,0.769-1.22,1.782-1.223,3.015
	c-0.01,5.127-0.205,10.727,0.045,16.313c-0.099,3.286-0.123,6.576-0.073,9.869c-0.002,0.721,0.007,1.445,0.027,2.17
	c0.03,1.098,0.367,1.996,0.891,2.698c0.095,0.919,0.211,1.832,0.34,2.744c-1.273,0.68-2.198,1.999-2.177,4.008
	c0.055,5.205,0.544,10.376,1.187,15.531c-0.022,0.077-0.054,0.145-0.073,0.223c-2.504,10.536-2.441,21.692-1.941,32.444
	c0.205,4.409,0.525,8.88,1.03,13.335c-2.338,6.492-3.339,13.311-0.979,20.054c0.735,2.1,3.104,3.726,5.291,3.517
	c0.113,0.718,0.236,1.436,0.379,2.154c0.414,2.08,2.565,3.416,4.556,3.469c4.222,0.112,8.497,0.183,12.803,0.191
	c1.447,0.849,3.204,0.841,4.65-0.017c0.376-0.004,0.752-0.011,1.129-0.016c1.551,0.801,3.439,0.711,4.862-0.099
	c18.423-0.517,37.064-2.681,54.205-8.716c14.221,2.596,31.337-0.948,42.871-8.998c3.415-2.383,2.88-7.251-1.128-8.637
	c-1.253-0.433-2.499-0.702-3.741-0.848c0.391-0.189,0.763-0.422,1.1-0.705c3.493-2.918,5.198-6.683,6.291-10.866
	c3.787-2.508,7.45-5.208,10.745-8.292c3.92-3.67,7.046-8.646,4.495-13.976c-0.102-0.214-0.242-0.399-0.381-0.585
	c1.49,0.219,3.137-0.287,4.367-1.249C509.211,396.008,511.847,383.182,509.704,373.319z M376.529,225.942
	c0.938-0.33,1.762-1.003,2.28-2.085c1.096-2.29,2.056-4.62,2.777-6.99c8.146,1.019,16.548-1.87,24.219-4.179
	c3.673-1.106,7.664-2.605,11.541-2.54c3.926,0.065,7.85,0.734,11.756,1.082c4.948,0.439,10.137,0.268,14.417-1.767
	c8.55,14.821,3.233,36.301,1.209,51.992c-0.111,0.86-0.218,1.733-0.323,2.613c-2.338,0.173-4.549,1.98-4.465,4.657
	c0.142,4.555,1.309,8.435,3.494,11.973c0.018,0.649,0.043,1.297,0.08,1.942c-0.571,0.931-1.094,1.859-1.602,2.671
	c-1.806,2.888-3.666,6.307-6.114,8.94c-16.94-20.923-25.219-49.25-30.996-74.981c-0.513-2.287-3.508-4.258-5.813-3.3
	c-9.359,3.885-13.534,15.69-17.103,24.34c-0.6,1.454-1.173,2.917-1.731,4.384C379.302,238.362,378.106,232.093,376.529,225.942z
	 M387.418,313.734c-0.518-2.514-0.963-4.977-1.428-7.252c-0.118-0.576-0.233-1.152-0.349-1.729c0.118-0.626,0.232-1.252,0.351-1.877
	c0.756,3.441,1.147,6.974,1.448,10.261c0.025,0.266,0.04,0.532,0.062,0.799C387.472,313.871,387.448,313.798,387.418,313.734z
	 M445.473,376.161c0.643-4.278,0.967-8.588,0.964-12.873c1.834-1.163,3.725-2.217,5.656-3.147c0.548,2.376,0.856,4.81,0.971,7.274
	C450.264,370.029,447.74,373.005,445.473,376.161z"/>
</svg>
