<?xml version="1.0" encoding="utf-8"?>
<!-- Generator: Adobe Illustrator 17.0.0, SVG Export Plug-In . SVG Version: 6.00 Build 0)  -->
<!DOCTYPE svg PUBLIC "-//W3C//DTD SVG 1.1//EN" "http://www.w3.org/Graphics/SVG/1.1/DTD/svg11.dtd">
<svg version="1.1" id="Capa_1" xmlns="http://www.w3.org/2000/svg" xmlns:xlink="http://www.w3.org/1999/xlink" x="0px" y="0px"
	 width="612px" height="612px" viewBox="0 0 612 612" enable-background="new 0 0 612 612" xml:space="preserve">
<g display="none">
	<g id="Shape_28_1_" display="inline">
		<g>
			<path fill="#00A1DA" stroke="#00A1DA" stroke-width="7" stroke-miterlimit="10" d="M411.765,125.173H230.989V487.46h180.775
				c99.683,0,180.777-81.258,180.777-181.14S511.447,125.173,411.765,125.173z M333.655,468.441h-83.687v-324.25h83.687V468.441z
				 M411.765,468.441h-59.12v-324.25h59.12c89.216,0,161.798,72.733,161.798,162.131
				C573.562,395.707,500.981,468.441,411.765,468.441z M20.5,216.667h170.815v-19.018H20.5V216.667z M20.5,283.233h170.815v-19.018
				H20.5V283.233z M20.5,349.799h170.815v-19.018H20.5V349.799z M20.5,416.365h170.815v-19.018H20.5V416.365z"/>
		</g>
	</g>
</g>
<path display="none" d="M317.5,269.5c-0.003-14.954-0.57-29.754-3.856-44.399c-2.977-13.27-8.671-26.775-7.144-40.601
	c0.707-6.405-9.3-6.337-10,0c-1.496,13.555,3.475,27.162,6.746,40.116c3.729,14.765,4.251,29.73,4.254,44.884
	c0,0.834,0.17,1.559,0.462,2.177c-0.999,2.928,0.514,6.823,4.538,6.823s5.537-3.894,4.538-6.822
	C317.33,271.059,317.5,270.335,317.5,269.5z"/>
<rect x="246.096" y="133.149" display="none" fill="#00A1DA" width="100.404" height="346.351"/>
<g display="none">
	<g display="inline">
		<path fill="#00A1DA" d="M92.078,375.242l40.087,50.282c8.855,11.104,22.603,15.695,36.882,13.862l-46.513,47.299
			c0,0-4.025,15.138,20.045,25.139c24.079,10.015,48.513-44.255,48.513-44.255l-18.227-28.814c1.487-0.303,2.986-0.662,4.494-1.15
			l55.521,44.203c31.616,30.734,60.674,21.286,84.995-0.904l54.159-49.426l0.421-0.385l54.151-49.426
			c24.329-22.19,37.637-51.402,14.25-89.655l-32.02-65.628c0.679-1.514,1.249-3.04,1.762-4.566l23.715,23.795
			c0,0,53.957-17.239,48.509-44.259c-5.436-27.011-20.045-25.147-20.045-25.147l-50.991,41.682
			c3.957-14.796,1.884-30.046-6.967-41.15l-40.091-50.291c-9.978-12.517-26.124-16.746-42.318-12.911l-26.944-33.799
			c-9.113-11.441-29.684-8.67-45.98,6.196c-16.271,14.861-22.094,36.169-12.981,47.606l22.414,28.123l-58.617,53.477l-0.416,0.385
			l-58.621,53.486l-22.414-28.123c-9.122-11.437-29.713-8.644-45.984,6.209c-16.295,14.87-22.094,36.16-12.981,47.597l26.944,33.799
			C80.742,344.996,82.1,362.724,92.078,375.242z M343.115,163.03l21.578,27.063l-53.209,48.557l-21.578-27.067L343.115,163.03z
			 M305.947,348.572l0.421-0.385l97.665-89.12l24.988,53.802l0.388,0.744c7.428,13.158,3.063,35.3-9.154,46.452l-60.448,55.155
			l-0.421,0.38l-60.452,55.151c-12.213,11.151-33.342,12.262-44.314,2.34l-0.627-0.519l-45.712-34.881L305.947,348.572z
			 M182.473,309.622l21.573,27.063l-53.213,48.557l-21.573-27.063L182.473,309.622z"/>
		<rect x="57.685" y="518.163" fill="#00A1DA" width="494.76" height="32.278"/>
		<polygon fill="#00A1DA" points="431.748,398.897 434.241,411.337 459.86,405.457 440.19,430.639 460.139,452.418 433.138,451.731 
			424.377,482.841 407.794,461.922 380.822,471.915 396.559,434.418 385.712,429.208 358.695,493.56 403.991,476.8 429.452,508.918 
			441.908,464.677 489.12,465.879 456.214,429.956 491.124,385.281 		"/>
	</g>
</g>
<g display="none">
	<g display="inline">
		<g id="Shape_28_2_">
			<g>
				<path fill="#00A1DA" stroke="#00A1DA" stroke-width="7" stroke-miterlimit="10" d="M396.547,145.857H243.593v339.171h152.952
					c84.341,0,152.954-76.073,152.954-169.582S480.887,145.857,396.547,145.857z M330.458,467.222h-70.807V163.661h70.807V467.222z
					 M396.547,467.222h-50.021V163.661h50.021c75.485,0,136.896,68.092,136.896,151.786
					C533.442,399.129,472.032,467.222,396.547,467.222z M65.5,231.513h144.525v-17.805H65.5V231.513z M65.5,293.832h144.525v-17.805
					H65.5V293.832z M65.5,356.15h144.525v-17.805H65.5V356.15z M65.5,418.469h144.525v-17.805H65.5V418.469z"/>
			</g>
		</g>
	</g>
	<rect x="251.335" y="153.324" display="inline" fill="#00A1DA" width="92.944" height="324.252"/>
</g>
<g>
	<g>
		<path fill="#03769E" d="M270.24,159.342h53.141c1.668,0,3.018-1.28,3.018-2.861v-13.296c-0.534,0.079-1.078,0.134-1.637,0.134
			h-4.226c-5.837,0-10.569-4.486-10.569-10.018v-4.002c0-5.533,4.734-10.017,10.569-10.017h4.226c0.556,0,1.103,0.054,1.637,0.133
			v-13.299c0-1.582-1.35-2.862-3.018-2.862H270.24c-1.67,0-3.02,1.281-3.02,2.862v50.362
			C267.219,158.061,268.569,159.342,270.24,159.342z"/>
		<path fill="#03769E" d="M373.741,186.82h-14.439c-4.094-6.7-11.722-11.218-20.478-11.218h-84.027
			c-8.759,0-16.386,4.518-20.481,11.218h-14.439c-13.074,0-23.673,10.044-23.673,22.435v4.487c0,5.681,2.244,10.853,5.919,14.804
			v275.499c-3.674,3.952-5.919,9.122-5.919,14.804v4.486c0,12.391,10.599,22.433,23.673,22.433h153.864
			c13.074,0,23.671-10.043,23.671-22.433v-4.486c0-5.683-2.244-10.855-5.917-14.804V228.546c3.672-3.951,5.917-9.124,5.917-14.804
			v-4.487C397.413,196.865,386.817,186.82,373.741,186.82z M366.112,391.91c0,7.126-6.093,12.9-13.609,12.9
			c-7.517,0-13.612-5.777-13.612-12.9v-22.808c0-7.126,6.095-12.898,13.612-12.898c7.519,0,13.609,5.776,13.609,12.898V391.91z
			 M366.112,326.477c0,7.123-6.093,12.898-13.609,12.898c-7.517,0-13.612-5.776-13.612-12.898v-76.652
			c0-7.124,6.095-12.899,13.612-12.899c7.519,0,13.609,5.776,13.609,12.899V326.477z"/>
		<path fill="#03769E" d="M416.836,98.696c1.411-0.573,2.503-1.634,3.074-2.986c0.569-1.351,0.552-2.833-0.054-4.169
			c-0.907-2.011-2.983-3.309-5.29-3.309c-0.778,0-1.54,0.149-2.261,0.442l-79.603,32.332l83.454-22.079
			C416.262,98.896,416.547,98.812,416.836,98.696z"/>
		<path fill="#03769E" d="M416.832,163.904c-0.217-0.087-0.472-0.172-0.758-0.25L332.7,141.597l79.603,32.332
			c0.722,0.293,1.485,0.442,2.263,0.442c2.308,0,4.383-1.297,5.291-3.304c0.605-1.34,0.624-2.821,0.054-4.175
			C419.332,165.522,418.267,164.487,416.832,163.904z"/>
	</g>
</g>
<g display="none">
	<g display="inline">
		<circle fill="#00A1DA" stroke="#00A1DA" stroke-width="4" stroke-miterlimit="10" cx="393.426" cy="153.949" r="44.304"/>
	</g>
	<g display="inline">
		<g>
			<path fill="#00A1DA" stroke="#00A1DA" stroke-width="4" stroke-miterlimit="10" d="M393.243,199.281
				c25.154,0,45.619-20.466,45.619-45.622c0-25.155-20.465-45.62-45.619-45.62c-25.156,0-45.621,20.466-45.621,45.62
				C347.622,178.816,368.087,199.281,393.243,199.281z M393.243,115.917c20.811,0,37.742,16.932,37.742,37.743
				c0,20.812-16.932,37.745-37.742,37.745c-20.811,0-37.744-16.932-37.744-37.745S372.432,115.917,393.243,115.917z"/>
			<path fill="#00A1DA" stroke="#00A1DA" stroke-width="4" stroke-miterlimit="10" d="M172.33,150.653H95.058
				c-8.587,0-15.574,6.986-15.574,15.572v340.891c0,8.587,6.986,15.574,15.574,15.574h77.272c8.587,0,15.574-6.986,15.574-15.574
				V166.225C187.902,157.639,180.917,150.653,172.33,150.653z M87.362,507.117V166.225c0-4.244,3.452-7.695,7.696-7.695h15.316
				v356.281H95.058C90.814,514.812,87.362,511.359,87.362,507.117z M180.025,507.117c0,4.244-3.452,7.696-7.696,7.696h-54.078
				V158.53h29.655v116.602c0,2.175,1.762,3.939,3.939,3.939c2.176,0,3.939-1.764,3.939-3.939V158.53h16.547
				c4.244,0,7.696,3.452,7.696,7.695v340.891h-0.002L180.025,507.117L180.025,507.117z"/>
			<path fill="#00A1DA" stroke="#00A1DA" stroke-width="4" stroke-miterlimit="10" d="M204.906,199.445
				c1.008,0,2.016-0.385,2.785-1.154l38.393-38.393c1.538-1.538,1.538-4.032,0-5.57c-1.537-1.538-4.034-1.538-5.57,0l-38.393,38.393
				c-1.538,1.538-1.538,4.032,0,5.57C202.889,199.06,203.897,199.445,204.906,199.445z"/>
			<path fill="#00A1DA" stroke="#00A1DA" stroke-width="4" stroke-miterlimit="10" d="M203.203,174.771
				c0.55,0.263,1.129,0.387,1.699,0.387c1.468,0,2.878-0.825,3.555-2.238l26.759-55.845c0.94-1.962,0.111-4.314-1.85-5.254
				c-1.962-0.94-4.314-0.112-5.255,1.85l-26.759,55.845C200.414,171.479,201.243,173.831,203.203,174.771z"/>
			<path fill="#00A1DA" stroke="#00A1DA" stroke-width="4" stroke-miterlimit="10" d="M207.691,220.008
				c-1.537-1.538-4.034-1.538-5.57,0c-1.538,1.538-1.538,4.032,0,5.57l38.393,38.393c0.768,0.769,1.777,1.154,2.785,1.154
				s2.016-0.385,2.785-1.154c1.538-1.538,1.538-4.032,0-5.57L207.691,220.008z"/>
			<path fill="#00A1DA" stroke="#00A1DA" stroke-width="4" stroke-miterlimit="10" d="M208.458,245.379
				c-0.94-1.962-3.293-2.791-5.255-1.85c-1.961,0.94-2.79,3.292-1.85,5.254l26.759,55.845c0.677,1.412,2.086,2.238,3.555,2.238
				c0.571,0,1.15-0.124,1.699-0.388c1.961-0.94,2.79-3.292,1.85-5.254L208.458,245.379z"/>
			<path fill="#00A1DA" stroke="#00A1DA" stroke-width="4" stroke-miterlimit="10" d="M269.722,302.688
				c0,6.662,5.421,12.082,12.083,12.082c6.662,0,12.082-5.421,12.082-12.082v-3.362l26.953,25.094
				c3.713,3.474,8.558,5.387,13.647,5.387c0,0,0.001,0,0.002,0c5.134,0,10.113-2.004,13.83-5.542v31.682l-72.033,1.455
				c-0.025,0-0.051,0-0.077,0.001c-11.726,0.246-22.111,7.441-26.461,18.335c-1.448,3.623-2.142,7.455-2.066,11.312
				c0,0.047,0.001,0.104,0.004,0.161l2.04,100.905c0.318,15.745,13.384,28.555,29.128,28.555c0.198,0,0.394-0.002,0.595-0.006
				c7.784-0.157,15.041-3.336,20.433-8.95c5.39-5.613,8.273-12.993,8.116-20.775l-1.449-71.851l64.155-1.295l-0.001,65.241
				c-0.002,11.741,6.984,22.283,17.793,26.854c3.597,1.523,7.417,2.295,11.26,2.293c0.047,0,0.105-0.001,0.163,0l100.934-0.001
				c0.084,0,0.166,0.001,0.249-0.001c15.952-0.133,28.893-13.154,28.893-29.138c0.001-7.786-3.029-15.105-8.534-20.609
				c-5.504-5.504-12.823-8.535-20.606-8.535l-71.865-0.001l-0.002-50.964c5.754-7.551,9.181-16.967,9.181-27.172V253.675
				c0-24.773-20.153-44.926-44.925-44.926c-24.772,0-44.925,20.153-44.925,44.926v12.102l-14.835,15.826l-29.1-27.164
				c-2.932-2.772-6.579-4.546-10.495-5.187v-36.149c0-6.662-5.421-12.083-12.082-12.083c-3.728,0-7.068,1.699-9.286,4.363H206.07
				c-2.176,0-3.939,1.764-3.939,3.939c0,2.175,1.762,3.939,3.939,3.939h63.653C269.722,213.261,269.722,302.688,269.722,302.688z
				 M281.806,208.898c2.319,0,4.205,1.887,4.205,4.206v36.423c-3.091,0.741-5.987,2.204-8.411,4.284v-40.707
				C277.6,210.784,279.487,208.898,281.806,208.898z M286.01,302.688c0,2.319-1.886,4.205-4.205,4.205s-4.206-1.886-4.206-4.205
				v-18.525l8.411,7.83L286.01,302.688L286.01,302.688z M334.489,321.931L334.489,321.931c-3.082,0-6.017-1.158-8.273-3.268
				l-43.906-40.875c-2.353-2.224-3.7-5.233-3.791-8.47c-0.091-3.238,1.084-6.317,3.309-8.672c2.313-2.448,5.443-3.796,8.814-3.796
				c3.109,0,6.067,1.177,8.346,3.332l31.992,29.863c1.59,1.483,4.075,1.4,5.562-0.185l43.78-46.702
				c2.313-2.448,5.443-3.795,8.814-3.795c3.108,0,6.067,1.177,8.327,3.314c4.859,4.593,5.076,12.283,0.472,17.155l-54.614,58.296
				C341.002,320.58,337.865,321.931,334.489,321.931z M356.196,315.905l47.477-50.678c7.575-8.015,7.218-20.701-0.796-28.278
				c-3.73-3.526-8.609-5.467-13.74-5.467c-5.477,0-10.776,2.282-14.549,6.273l-18.391,19.618v-3.698
				c0-20.429,16.62-37.049,37.048-37.049s37.048,16.62,37.048,37.049V371.76c0,20.212-16.274,36.684-36.404,37.029
				c8.037-5.339,13.273-14.539,13.064-24.878c-0.323-15.945-13.702-28.877-29.728-28.547l-21.027,0.424v-39.883L356.196,315.905
				L356.196,315.905z M302.45,407.294c-2.175,0.043-3.903,1.842-3.858,4.018l1.528,75.789c0.115,5.68-1.988,11.064-5.922,15.16
				c-3.885,4.046-9.098,6.348-14.697,6.516v-80.734c0-2.175-1.762-3.939-3.939-3.939c-2.176,0-3.939,1.764-3.939,3.939v79.466
				c-8.007-2.939-13.841-10.593-14.022-19.55l-2.041-100.948c-0.001-0.027-0.001-0.055-0.003-0.084
				c-0.051-2.859,0.455-5.641,1.505-8.266c3.173-7.949,10.749-13.199,19.303-13.381c0.012,0,0.023,0,0.036,0l100.98-2.04
				l0.442-0.005c11.487,0,21.019,9.348,21.252,20.836c0.235,11.724-9.112,21.454-20.837,21.693h-0.002l0,0l-0.092,0.002
				L302.45,407.294z M501.033,500.303c-0.059,0-0.121,0.001-0.181,0l-100.968,0.001c-0.022,0-0.05-0.001-0.075,0.001
				c-2.861-0.003-5.633-0.566-8.242-1.671c-7.891-3.337-12.989-11.031-12.989-19.606l0.002-64.809
				c4.715,1.632,9.637,2.465,14.666,2.465c10.521,0,20.199-3.645,27.863-9.725l0.001,46.875c0,2.175,1.764,3.939,3.939,3.94h75.805
				c5.679,0,11.022,2.211,15.037,6.228c4.016,4.016,6.227,9.357,6.226,15.039c0,0.694-0.035,1.38-0.101,2.057h-64.351
				c-2.176,0-3.939,1.764-3.939,3.939s1.762,3.939,3.939,3.939h61.981C516.099,495.657,509.095,500.235,501.033,500.303z"/>
		</g>
		<g>
			
				<rect x="81.551" y="159.475" fill="#00A1DA" stroke="#00A1DA" stroke-width="4" stroke-miterlimit="10" width="78.38" height="356.281"/>
			
				<rect x="349.541" y="230.32" transform="matrix(-0.7213 -0.6926 0.6926 -0.7213 434.8445 731.0989)" fill="#00A1DA" stroke="#00A1DA" stroke-width="4" stroke-miterlimit="10" width="29.938" height="95.49"/>
			
				<rect x="299.011" y="247.928" transform="matrix(0.6849 -0.7286 0.7286 0.6849 -113.4311 318.6816)" fill="#00A1DA" stroke="#00A1DA" stroke-width="4" stroke-miterlimit="10" width="25.492" height="85.134"/>
			<g>
				
					<rect x="378.578" y="458.718" fill="#00A1DA" stroke="#00A1DA" stroke-width="4" stroke-miterlimit="10" width="143.437" height="42.53"/>
				
					<rect x="378.578" y="409.143" fill="#00A1DA" stroke="#00A1DA" stroke-width="4" stroke-miterlimit="10" width="50.412" height="92.104"/>
			</g>
		</g>
	</g>
</g>
</svg>
