<?xml version="1.0" encoding="utf-8"?>
<!-- Generator: Adobe Illustrator 17.0.0, SVG Export Plug-In . SVG Version: 6.00 Build 0)  -->
<!DOCTYPE svg PUBLIC "-//W3C//DTD SVG 1.1//EN" "http://www.w3.org/Graphics/SVG/1.1/DTD/svg11.dtd">
<svg version="1.1" id="Layer_1" xmlns="http://www.w3.org/2000/svg" xmlns:xlink="http://www.w3.org/1999/xlink" x="0px" y="0px"
	 width="45px" height="45px" viewBox="0 0 45 45" enable-background="new 0 0 45 45" xml:space="preserve">
<g>
	<g>
		<g>
			<g>
				<g>
					<defs>
						<rect id="SVGID_1_" x="9.094" y="9.228" width="26.871" height="28.294"/>
					</defs>
					<clipPath id="SVGID_2_">
						<use xlink:href="#SVGID_1_"  overflow="visible"/>
					</clipPath>
					<path clip-path="url(#SVGID_2_)" fill="#03769E" d="M9.585,34.997l3.321,2.348c0.459,0.328,0.911,0.124,1.31-0.451l5.617-8.846
						l6.754-0.128l2.583-3.706l-13.104-9.267l-2.585,3.706L15.731,25l-6.429,8.42C8.901,33.993,9.126,34.672,9.585,34.997
						L9.585,34.997z M11.642,33.68c0.296-0.426,0.882-0.529,1.305-0.228c0.425,0.298,0.528,0.888,0.23,1.316
						c-0.298,0.426-0.882,0.529-1.306,0.229C11.447,34.697,11.345,34.109,11.642,33.68L11.642,33.68z"/>
				</g>
			</g>
			<g>
				<g>
					<defs>
						<rect id="SVGID_3_" x="9.094" y="9.228" width="26.871" height="28.294"/>
					</defs>
					<clipPath id="SVGID_4_">
						<use xlink:href="#SVGID_3_"  overflow="visible"/>
					</clipPath>
					<path clip-path="url(#SVGID_4_)" fill="#03769E" d="M20.089,9.173l-3.45,4.948l13.107,9.267l0.897-2.003
						c-0.203-0.861-0.515-1.919-1.046-2.086l-0.254-0.078c-1.043-0.32-2.341-0.719-2.602-1.824
						c-0.102-0.426-0.614-0.671-1.317-1.013c-0.068-0.03-0.136-0.065-0.205-0.098l-0.677,0.647l0.377-0.797
						c-0.596-0.302-1.256-0.694-1.865-1.306c-0.513-0.517-0.726-1.038-0.632-1.55c0.129-0.711,0.93-1.501,1.219-1.661l-0.833-0.521
						l-2.322,2.293l1.266-3.041L20.089,9.173z"/>
				</g>
			</g>
		</g>
		<path fill="#03769E" d="M33.763,20.092c0.139-0.933-0.065-2.052-0.608-3.327c-0.327-0.77-1.81-1.432-2.988-1.567
			c-1.146-0.131-2.47-0.591-2.667-1.297c-0.081-0.283-0.435-1.262-1.692-2.062c-0.298-0.19-0.567-0.281-0.823-0.281
			c-0.471,0-0.84,0.318-1.2,0.625l-0.108,0.086l-0.105,0.081c-0.008,0.005-0.838,0.394-0.95,1.019
			c-0.062,0.34,0.105,0.711,0.494,1.103c0.557,0.561,1.158,0.918,1.725,1.208c0.161,0.084,0.32,0.16,0.474,0.236
			c0.012,0.005,0.022,0.009,0.035,0.015c0.767,0.371,1.429,0.692,1.586,1.351c0.198,0.824,1.342,1.176,2.262,1.456l0.259,0.082
			c0.677,0.215,1.037,1.113,1.278,2.02c0.083,0.318,0.154,0.635,0.215,0.926c0.064,0.293,0.12,0.546,0.173,0.711
			c0.179,0.563-0.061,1.198-0.313,1.872c-0.146,0.389-0.3,0.79-0.368,1.181c-0.091,0.52,0.038,1.048,0.347,1.42
			c0.308,0.367,0.775,0.564,1.346,0.564c0.926,0,1.376-0.643,1.376-1.964c0-0.5-0.323-1.334-0.608-2.072
			c-0.115-0.298-0.227-0.586-0.315-0.844c-0.213-0.621,0.166-1.023,0.501-1.379C33.38,20.941,33.686,20.619,33.763,20.092
			L33.763,20.092z"/>
	</g>
</g>
<g display="none">
	<g display="inline">
		<path fill="#B6A0CE" d="M37.258,23.073c-0.136-0.629-0.643-0.998-1.135-0.826l-2.942,1.038c0.447-0.181,0.711-0.777,0.584-1.36
			l-1.101-5.102l0.568-0.199c0.001-0.002,0.004-0.002,0.004-0.002c0.467-0.165,0.741-0.782,0.613-1.379
			c-0.086-0.389-0.32-0.673-0.602-0.78l-7.054-3.537c-0.362-0.182-0.771-0.036-1.011,0.357l-1.877,3.102L23.2,13.887
			c-0.128-0.596-0.611-0.947-1.077-0.782l-0.78,0.276c-0.466,0.165-0.738,0.783-0.608,1.379l0.615,2.864l-0.85,1.407
			c-0.232,0.381-0.246,0.911-0.036,1.311c0.208,0.401,0.597,0.584,0.96,0.456l0.566-0.201l1.102,5.098
			c0.123,0.573,0.575,0.908,1.023,0.787l-10.633,3.753c0.218-0.255,0.326-0.648,0.242-1.038l-0.16-0.747
			c1.412-0.748,2.154-2.226,1.754-4.086l-0.005-0.031c-0.397-1.837-1.505-2.275-3.294-2.244c-1.524,0.036-1.924-0.066-2.074-0.759
			L9.936,21.3c-0.109-0.512,0.168-1.048,0.862-1.293c0.565-0.201,1.185-0.142,1.885,0.099c0.163,0.056,0.316,0.066,0.493,0.004
			c0.471-0.164,0.749-0.767,0.619-1.37c-0.098-0.452-0.368-0.7-0.6-0.778c-0.609-0.24-1.255-0.312-1.932-0.221L11.09,16.95
			c-0.12-0.557-0.565-0.882-1.001-0.728c-0.431,0.153-0.685,0.725-0.565,1.281l0.169,0.786c-1.232,0.766-1.862,2.226-1.512,3.859
			l0.007,0.031c0.451,2.096,1.648,2.306,3.423,2.262c1.473-0.032,1.821,0.169,1.948,0.757l0.007,0.03
			c0.133,0.618-0.233,1.153-0.975,1.415c-0.8,0.283-1.56,0.161-2.312-0.205c-0.139-0.066-0.325-0.11-0.562-0.03
			c-0.469,0.167-0.747,0.766-0.616,1.37c0.077,0.362,0.29,0.645,0.531,0.753c0.762,0.359,1.566,0.475,2.347,0.392l0.178,0.83
			c0.084,0.391,0.333,0.657,0.623,0.733l-3.592,1.269c-0.491,0.174-0.779,0.824-0.644,1.454c0.136,0.63,0.642,1,1.134,0.826
			L19.81,30.46l-3.215,4.121c-0.218,0.28-0.284,0.701-0.166,1.067c0.118,0.365,0.397,0.603,0.705,0.603l8.821-0.001
			c0.309,0,0.588-0.239,0.705-0.603c0.118-0.366,0.052-0.787-0.166-1.067l-3.965-5.08l14.085-4.97
			C37.105,24.355,37.393,23.703,37.258,23.073L37.258,23.073z M25.373,20.84l1.431-0.505c0.313-0.11,0.637,0.127,0.723,0.527
			l0.395,1.834c0.085,0.402-0.098,0.816-0.412,0.927l-1.431,0.505c-0.313,0.111-0.637-0.124-0.725-0.527l-0.393-1.833
			C24.875,21.366,25.059,20.95,25.373,20.84L25.373,20.84z M30.587,19.783l0.393,1.833c0.087,0.402-0.098,0.818-0.412,0.928
			l-1.431,0.505c-0.313,0.11-0.638-0.125-0.724-0.527l-0.394-1.834c-0.085-0.401,0.097-0.816,0.412-0.928l1.431-0.505
			C30.175,19.146,30.499,19.381,30.587,19.783L30.587,19.783z M27.6,15.903l1.431-0.505c0.313-0.11,0.637,0.125,0.724,0.526
			l0.394,1.834c0.086,0.401-0.098,0.817-0.412,0.928l-1.43,0.505c-0.313,0.11-0.638-0.125-0.723-0.527l-0.394-1.835
			C27.104,16.429,27.288,16.012,27.6,15.903L27.6,15.903z M24.543,16.982l1.431-0.504c0.313-0.11,0.638,0.125,0.724,0.526
			l0.394,1.834c0.086,0.402-0.097,0.817-0.41,0.929l-1.431,0.503c-0.314,0.11-0.639-0.125-0.725-0.526l-0.394-1.834
			C24.045,17.508,24.229,17.093,24.543,16.982L24.543,16.982z"/>
	</g>
</g>
<g display="none">
	<path display="inline" fill="#B6A0CE" d="M23.147,8.853c-7.677,0-13.897,6.132-13.897,13.7c0,7.562,6.221,13.7,13.897,13.7
		c7.671,0,13.897-6.138,13.897-13.7C37.045,14.986,30.818,8.853,23.147,8.853L23.147,8.853z M23.147,12.277
		c4.521,0,8.341,2.873,9.783,6.852H13.364C14.805,15.149,18.623,12.277,23.147,12.277L23.147,12.277z M23.147,24.262
		c-0.963,0-1.739-0.764-1.739-1.709c0-0.95,0.776-1.714,1.739-1.714c0.958,0,1.734,0.765,1.734,1.714
		C24.881,23.498,24.106,24.262,23.147,24.262L23.147,24.262z M12.723,22.553c4.745,0,8.592,4.507,8.674,10.1
		C16.484,31.821,12.723,27.624,12.723,22.553L12.723,22.553z M24.899,32.652c0.08-5.593,3.923-10.1,8.668-10.1
		C33.567,27.624,29.81,31.821,24.899,32.652L24.899,32.652z"/>
</g>
<g display="none">
	<g display="inline">
		<path fill="#B6A0CE" d="M36.407,28.894l-4.89,4.619v1.659c0,0.355-0.272,0.598-0.592,0.598h-3.261
			c-0.32,0-0.592-0.254-0.592-0.598v-3.719c0-0.196,0.091-0.403,0.229-0.504l5.974-4.116l0.592-8.74
			c0-0.757,0.539-1.356,1.222-1.356s1.223,0.598,1.223,1.303l0.592,9.446C36.951,28.247,36.865,28.491,36.407,28.894L36.407,28.894z
			 M12.952,25.636v-6.532c0-0.657,0.091-1.107,0.363-1.759l2.898-6.68c0.32-0.757,1.223-1.404,1.991-1.404h8.199
			c0.812,0,1.724,0.598,2.034,1.404l2.898,6.68c0.273,0.657,0.363,1.155,0.363,1.759v6.537c0,0.254-0.23,0.504-0.454,0.504h-2.307
			c-0.272,0-0.454-0.254-0.454-0.504v-1.616H16.165v1.611c0,0.254-0.23,0.503-0.454,0.503h-2.307
			C13.181,26.139,12.952,25.885,12.952,25.636L12.952,25.636z M28.666,18.85c-0.812,0-1.451,0.757-1.451,1.611
			c0,0.852,0.635,1.611,1.451,1.611c0.811,0,1.451-0.704,1.451-1.611C30.118,19.555,29.478,18.85,28.666,18.85L28.666,18.85z
			 M15.578,17.144h13.494l-1.991-4.619c-0.406-0.9-0.769-1.107-1.585-1.107h-6.38c-0.812,0-1.175,0.196-1.538,1.107L15.578,17.144z
			 M14.537,20.455c0,0.853,0.635,1.611,1.451,1.611c0.817,0,1.451-0.704,1.451-1.611s-0.635-1.611-1.451-1.611
			C15.172,18.844,14.537,19.602,14.537,20.455L14.537,20.455z M17.345,31.002l-5.974-4.116l-0.592-8.74
			c0.043-0.805-0.539-1.404-1.223-1.404c-0.683,0-1.265,0.598-1.265,1.351l-0.592,9.45c-0.043,0.757,0.043,1.001,0.497,1.404
			l4.89,4.619v1.658c0,0.355,0.272,0.598,0.592,0.598h3.31c0.32,0,0.592-0.254,0.592-0.598v-3.718
			C17.569,31.31,17.478,31.113,17.345,31.002L17.345,31.002z"/>
	</g>
</g>
<g display="none">
	<path display="inline" d="M33.492,18.092l0.164-0.665c0.055-0.109,0.11-0.219,0.219-0.219c0.11-0.055,0.281,0,0.391,0.11
		l4.679,1.89l-5.014-0.664C33.608,18.537,33.437,18.311,33.492,18.092L33.492,18.092z M34.218,14.866l4.96,3.836l-3.788-4.96
		c-0.165-0.281-0.336-0.39-0.5-0.39c-0.11,0-0.165,0.055-0.281,0.109l-0.61,0.61C33.773,14.311,33.882,14.585,34.218,14.866
		L34.218,14.866z M44.02,14.256h-1.28c-0.555,0-0.946,0.445-0.946,0.945v16.543c0,0.555,0.446,0.945,0.946,0.945h1.281
		c0.555,0,0.946-0.445,0.946-0.945V15.201C44.966,14.633,44.52,14.256,44.02,14.256L44.02,14.256z M37.451,12.352
		c-0.055,0-0.11,0-0.164,0.055l-0.61,0.335c-0.219,0.11-0.219,0.39,0.055,0.665l3.069,4.014l-1.952-4.679
		C37.732,12.523,37.616,12.352,37.451,12.352L37.451,12.352z M39.787,23.326v4.459c0,1.055-0.836,1.5-1.726,1.5h-3.788
		c-0.164,1.891-1.671,3.391-3.624,3.391c-1.952,0-3.569-1.5-3.678-3.391H13.839c-0.109,1.891-1.726,3.391-3.623,3.391
		s-3.514-1.5-3.624-3.391H4.653c-1.391,0-1.61-0.609-1.61-1.5v-4.288c0-0.726,0.055-1.281,0.445-2.055l3.781-7.515
		c0.445-0.89,1.61-1.671,2.672-1.671l14.584,0.055c1,0,2,0.61,2.617,1.671l3.514,5.514l6.96,1.5
		C39.397,21.27,39.732,22.435,39.787,23.326L39.787,23.326z M12.229,29.059c0-1.055-0.891-1.945-1.946-1.945
		c-1.109,0-1.945,0.891-1.945,1.945c0,1.055,0.89,1.946,1.945,1.946C11.339,31.004,12.229,30.121,12.229,29.059L12.229,29.059z
		 M16.127,14.366h-5.35c-0.836,0.055-1.226,0.39-1.671,1.336L7.38,19.49h8.741v-5.124C16.121,14.366,16.127,14.366,16.127,14.366z
		 M27.71,19.482l-2.281-3.788c-0.446-0.726-1.11-1.336-2.055-1.336H18.47v5.124H27.71z M32.601,29.059
		c0-1.055-0.89-1.945-1.945-1.945s-1.945,0.891-1.945,1.945c0,1.055,0.89,1.946,1.945,1.946
		C31.772,31.011,32.601,30.121,32.601,29.059L32.601,29.059z"/>
</g>
<g display="none">
	<path display="inline" fill="#B6A0CE" d="M25.123,25.583v8.163c0,0.534-0.391,0.929-0.876,0.929h-3.182
		c-0.534,0-0.929-0.438-0.929-0.929v-8.163c-2.195-0.929-3.714-3.129-3.714-5.672c0-2.053,0.929-3.857,2.443-4.987
		c0,0,0,4.791,0.048,4.791l3.081,3.081c0.343,0.343,0.929,0.343,1.271,0l3.081-3.081V14.93c1.519,1.176,2.491,2.933,2.491,4.987
		C28.838,22.463,27.328,24.611,25.123,25.583L25.123,25.583z M37.106,24.659v9.192c0,0.391-0.296,0.733-0.686,0.733h-3.619
		c-0.391,0-0.685-0.343-0.685-0.733V31.55h-6.253v-5.572c1.615-0.876,2.882-2.348,3.42-4.105h3.81l-3.077-6.458
		c-0.638-1.271-1.176-1.567-2.491-1.567h-9.973c-1.319,0-1.805,0.296-2.443,1.567l-3.081,6.458h3.81
		c0.534,1.757,1.805,3.229,3.42,4.105v5.577H13v2.3c0,0.391-0.296,0.733-0.685,0.733h-3.62c-0.391,0-0.733-0.343-0.733-0.733v-9.196
		c0-0.828,0.143-1.519,0.581-2.443l4.514-9.386c0.534-1.076,1.91-2.005,3.129-2.005H28.89c1.224,0,2.586,0.876,3.129,2.005
		l4.496,9.387C36.953,23.092,37.106,23.778,37.106,24.659L37.106,24.659z M10.46,26.664c0,1.272,1.029,2.253,2.252,2.253
		c1.224,0,2.252-0.977,2.252-2.253c0-1.276-0.977-2.3-2.252-2.3C11.436,24.363,10.46,25.392,10.46,26.664L10.46,26.664z
		 M34.758,26.664c0-1.271-1.029-2.3-2.3-2.3s-2.252,1.029-2.252,2.3c0,1.272,0.977,2.253,2.252,2.253
		C33.734,28.917,34.758,27.93,34.758,26.664L34.758,26.664z"/>
</g>
<g display="none">
	<path display="inline" fill="#B6A0CE" d="M26.946,19.873c1.471,0,2.668,1.175,2.668,2.618s-1.197,2.618-2.668,2.618
		s-2.668-1.175-2.668-2.618C24.278,21.048,25.475,19.873,26.946,19.873L26.946,19.873z M26.946,23.676
		c0.667,0,1.207-0.532,1.207-1.187s-0.543-1.188-1.207-1.188c-0.667,0-1.21,0.533-1.21,1.188
		C25.736,23.144,26.279,23.676,26.946,23.676L26.946,23.676z"/>
	<path display="inline" fill="#B6A0CE" d="M13.274,19.873c1.471,0,2.668,1.175,2.668,2.618s-1.197,2.618-2.668,2.618
		s-2.668-1.175-2.668-2.618C10.606,21.048,11.803,19.873,13.274,19.873L13.274,19.873z M12.064,22.492
		c0,0.655,0.543,1.187,1.21,1.187s1.21-0.532,1.21-1.187s-0.543-1.187-1.21-1.187C12.607,21.304,12.064,21.837,12.064,22.492
		L12.064,22.492z"/>
	<path display="inline" fill="#B6A0CE" d="M8.557,19.82h0.329l0.005-6.632c0-0.385,0.318-0.697,0.711-0.697h13.093
		c0.227,0,0.445,0.109,0.579,0.291l2.629,3.603l4.373-0.01c0.393,0,0.711,0.312,0.711,0.697v2.745l0.519-0.005h0.008
		c0.393,0,0.711,0.312,0.711,0.697v0.761c0,0.38-0.315,0.696-0.703,0.697h-1.178c0,0-0.057-0.277-0.099-0.414
		c-0.038-0.134-0.088-0.267-0.145-0.396c-0.057-0.129-0.121-0.254-0.194-0.373c-0.072-0.122-0.152-0.236-0.237-0.348
		c-0.088-0.112-0.181-0.218-0.282-0.317c-0.067-0.068-0.14-0.132-0.212-0.193c-0.62-0.52-1.412-0.807-2.226-0.807
		c-0.817,0-1.608,0.286-2.229,0.807c-0.613,0.515-1.024,1.225-1.158,2.001l-0.008,0.053h-6.889l-0.01-0.053
		c-0.132-0.776-0.543-1.487-1.158-2.001c-0.62-0.52-1.412-0.807-2.229-0.807s-1.608,0.286-2.229,0.807
		c-0.613,0.515-1.024,1.225-1.156,2.001L9.875,21.98H8.554c-0.393,0-0.711-0.312-0.711-0.697v-0.767
		C7.846,20.132,8.164,19.82,8.557,19.82L8.557,19.82z M20.613,16.448h3.148c0.315,0,0.499-0.35,0.315-0.602l-1.455-2.004
		c-0.121-0.167-0.318-0.267-0.528-0.267h-1.486c-0.357,0-0.646,0.285-0.646,0.634v1.603C19.967,16.164,20.256,16.448,20.613,16.448
		L20.613,16.448z M18.134,14.213c0-0.152-0.059-0.297-0.171-0.403c-0.109-0.107-0.256-0.167-0.411-0.167h-6.618
		c-0.156,0-0.303,0.058-0.411,0.167s-0.171,0.251-0.171,0.403v1.603c0,0.314,0.261,0.571,0.582,0.571h6.618
		c0.32,0,0.582-0.256,0.582-0.571L18.134,14.213L18.134,14.213z"/>
	<path display="inline" fill="#B6A0CE" d="M21.249,9.933c0.499,0,0.905,0.398,0.905,0.888s-0.406,0.888-0.905,0.888H10.34
		c-0.499,0-0.905-0.398-0.905-0.888s0.406-0.888,0.905-0.888C10.34,9.933,21.249,9.933,21.249,9.933z"/>
</g>
<g display="none">
	<g display="inline">
		<g>
			<g>
				<defs>
					<rect id="SVGID_5_" x="16.108" y="23.623" width="20.184" height="11.981"/>
				</defs>
				<clipPath id="SVGID_6_">
					<use xlink:href="#SVGID_5_"  overflow="visible"/>
				</clipPath>
				<path clip-path="url(#SVGID_6_)" fill="#B6A0CE" d="M35.925,25.686c-0.18-1.484-4.398-0.559-4.398-0.559l-0.424,1.396
					L28.1,27.015c-0.388-0.681-0.829-1.268-1.31-1.608c-1.876-1.324-5.032,1.072-5.032,1.072s3.266-3.831,0.895-2.616
					c-7.496,4.235-4.491,4.944-4.491,4.944h2.108l-0.337,0.598c-0.334-0.161-0.703-0.253-1.093-0.253
					c-1.509,0-2.733,1.346-2.733,3.01c0,1.659,1.223,3.008,2.733,3.008c1.509,0,2.733-1.349,2.733-3.008
					c0-0.934-0.385-1.765-0.989-2.319l0.288-0.515l1.182,3.576h7.927c0.301,1.302,1.369,2.266,2.645,2.266
					c1.509,0,2.733-1.346,2.733-3.008c0-1.662-1.222-3.01-2.73-3.01c-1.382,0-2.518,1.127-2.703,2.589h-0.028
					c0,0-0.238-0.968-0.665-2.165C30.653,29.052,36.08,26.976,35.925,25.686L35.925,25.686z M18.842,34.051
					c-0.949,0-1.718-0.849-1.718-1.892s0.771-1.893,1.718-1.893c0.193,0,0.379,0.038,0.553,0.104l-0.878,1.568l0.647,0.44
					l0.879-1.57c0.317,0.342,0.516,0.822,0.516,1.351C20.561,33.202,19.788,34.051,18.842,34.051L18.842,34.051z M22.259,32.439
					l-1.005-3.34l0.408-0.149l1.004,3.34L22.259,32.439z M32.629,30.266c0.946,0,1.718,0.851,1.718,1.893
					c-0.002,1.043-0.771,1.892-1.718,1.892c-0.71,0-1.32-0.475-1.581-1.15h2.085v-1.164h-2.18
					C31.128,30.897,31.81,30.266,32.629,30.266L32.629,30.266z"/>
			</g>
		</g>
	</g>
</g>
<g display="none">
	<g display="inline">
		<g>
			<g>
				<defs>
					<rect id="SVGID_7_" x="3.043" y="4.206" width="38.827" height="35.929"/>
				</defs>
				<clipPath id="SVGID_8_">
					<use xlink:href="#SVGID_7_"  overflow="visible"/>
				</clipPath>
				<path clip-path="url(#SVGID_8_)" d="M34.793,27.794l-5.584-6.015c-0.625-0.674-0.537-1.678,0.194-2.246l5.996-4.668
					c0.731-0.569,1.637-0.969,2.021-0.888c0.389,0.081,1.242-0.368,1.907-1.004l1.344-1.278c0.667-0.635,0.766-1.653,0.221-2.27
					c-0.549-0.618-1.641-0.73-2.444-0.253l-1.618,0.966c-0.803,0.477-1.458,1.137-1.458,1.47s-0.591,1.067-1.322,1.64l-6.079,4.745
					c-0.731,0.569-1.827,0.488-2.452-0.182l-1.808-1.948c-0.625-0.674-0.727-1.734-0.286-2.401c0.442-0.67,1.192-1.878,1.196-2.762
					c0-1.06-0.537-2.59-2.825-4.31c-2.497-1.881-4.724-2.225-6.167-2.18c-0.959,0.031-1.207,0.836-0.597,1.516l3.049,3.404
					c0.609,0.685,0.59,1.773-0.046,2.436l-0.065,0.071c-0.632,0.659-1.808,1.572-2.626,2.035l-0.03,0.014
					c-0.819,0.463-1.995,0.298-2.626-0.362l-3.171-3.309C8.883,9.351,7.98,9.453,7.798,10.32c-0.225,1.053-0.255,2.615,0.594,4.527
					c0.362,0.814,1.142,2.064,1.747,2.748c1.166,1.327,2.311,1.801,3.198,1.931c0.944,0.137,2.304-0.341,3.019-0.607
					c0.719-0.27,1.774,0.035,2.376,0.723l1.8,2.06c0.601,0.687,0.724,1.53,0.275,1.88c-0.453,0.355-1.314,0.088-1.927-0.593
					l-0.08-0.091c-0.613-0.677-1.302-1.228-1.542-1.228s-0.415,0.715-0.392,1.597l0.011,0.499c0.023,0.881-0.711,1.466-1.644,1.309
					c-0.929-0.162-2.284,0.164-3.027,0.726l-7.823,5.917c-0.739,0.562-1.34,1.502-1.34,2.106c0,0.6,0.483,1.646,1.085,2.337
					l1.493,1.72c0.597,0.692,1.602,1.31,2.238,1.384c0.64,0.074,1.755-0.327,2.49-0.889l7.839-6.019
					c0.739-0.565,1.363-1.738,1.401-2.622l0.011-0.2c0.034-0.884,0.823-1.442,1.759-1.249l0.084,0.013
					c0.937,0.193,1.694,0.141,1.694-0.119c0-0.257-0.392-0.898-0.875-1.436c-0.483-0.537-0.515-1.253-0.069-1.597
					c0.445-0.348,1.295-0.071,1.897,0.617l5.219,5.967c0.601,0.687,1.028,1.484,0.994,1.786c-0.023,0.179-0.034,0.361-0.034,0.547
					c0,2.798,2.459,5.065,5.493,5.065c3.031,0,5.49-2.267,5.49-5.065c0-2.193-1.512-4.06-3.631-4.758
					C36.72,29.005,35.418,28.464,34.793,27.794L34.793,27.794z M35.76,36.796c-1.636,0-2.966-1.221-2.966-2.73
					s1.329-2.734,2.966-2.734s2.962,1.225,2.962,2.734C38.721,35.575,37.397,36.796,35.76,36.796L35.76,36.796z"/>
			</g>
		</g>
	</g>
</g>
<g display="none">
	<g display="inline">
		<g>
			<g>
				<defs>
					<rect id="SVGID_9_" x="3.043" y="4.162" width="38.901" height="35.005"/>
				</defs>
				<clipPath id="SVGID_10_">
					<use xlink:href="#SVGID_9_"  overflow="visible"/>
				</clipPath>
				<path clip-path="url(#SVGID_10_)" fill="#B6A0CE" d="M36.948,20.365c-0.902-2.082-2.611-3.14-5.077-3.14h-2.962
					c0.5-1.068,1.058-2.622,1.058-4.491c0-0.516-0.043-1.044-0.145-1.59c-0.387-2.171-1.952-3.328-4.181-3.097
					c-0.883,0.095-1.183,0.89-1.915,2.814c-0.608,1.597-1.441,3.779-2.643,5.535c-0.89,1.288-2.467,2.309-3.787,2.938v-0.161h-9.76
					V32.91h9.76v-0.754c1.534-0.071,2.411-0.029,2.617,0.03l1.74,0.962l1.308,0.77c1.265,0.647,6.811,0.712,9.19,0.38
					c3.063-0.426,3.8-2.8,3.832-2.901C36.22,30.606,38.325,23.538,36.948,20.365L36.948,20.365z M34.137,30.896
					c-0.012,0.047-0.463,1.354-2.26,1.597c-2.561,0.362-7.307,0.143-8.009-0.178c0,0.006-1.157-0.688-1.157-0.688l-2.197-1.169
					c-0.508-0.159-1.661-0.178-3.218-0.112v-9.049c1.571-0.606,4.006-1.899,5.396-3.91c1.327-1.936,2.204-4.231,2.842-5.911
					c0,0,0.558-1.329,0.695-1.637c0.971,0.006,1.508,0.51,1.708,1.608c0.082,0.433,0.114,0.86,0.114,1.269
					c0,2.724-1.478,4.89-1.504,4.92l-0.969,1.407h6.292c1.676,0,2.697,0.623,3.305,2.018C36.127,23.248,34.745,28.903,34.137,30.896
					L34.137,30.896z"/>
			</g>
		</g>
	</g>
</g>
<g display="none">
	<path display="inline" d="M-629.199,114.4c-7.071,0-12.801,5.73-12.801,12.801c0,7.066,5.73,12.801,12.801,12.801
		c7.066,0,12.801-5.735,12.801-12.801C-616.398,120.13-622.133,114.4-629.199,114.4L-629.199,114.4z M-629.199,117.599
		c4.164,0,7.683,2.684,9.011,6.403h-18.023C-636.883,120.283-633.367,117.599-629.199,117.599L-629.199,117.599z M-629.199,128.798
		c-0.887,0-1.602-0.714-1.602-1.597c0-0.887,0.715-1.602,1.602-1.602c0.883,0,1.597,0.715,1.597,1.602
		C-627.602,128.084-628.316,128.798-629.199,128.798L-629.199,128.798z M-638.801,127.201c4.371,0,7.914,4.211,7.989,9.437
		C-635.336,135.861-638.801,131.939-638.801,127.201L-638.801,127.201z M-627.586,136.638c0.074-5.226,3.613-9.437,7.984-9.437
		C-619.602,131.939-623.062,135.861-627.586,136.638L-627.586,136.638z"/>
</g>
<g display="none">
	<path display="inline" d="M-858.996,119.758h-29.031c-4.496,0-9.926,2.957-12.364,6.735l-21.32,33.039
		c-1.918,2.969-6.469,6.031-9.941,6.687l-25.993,4.907c-4.582,0.863-8.308,5.359-8.308,10.019v32.57c0,4.805,3.91,8.715,8.719,8.715
		h21.351c2.953,10.137,12.324,17.571,23.403,17.571c11.078,0,20.449-7.434,23.402-17.571h30.082c4.805,0,8.715-3.91,8.715-8.715
		v-85.242C-850.281,123.669-854.191,119.758-858.996,119.758L-858.996,119.758z M-912.48,227.735c-6.688,0-12.11-5.422-12.11-12.109
		c0-6.688,5.422-12.106,12.11-12.106c6.683,0,12.105,5.418,12.105,12.106C-900.375,222.313-905.797,227.735-912.48,227.735
		L-912.48,227.735z M-859.254,160.739c0,3.183-2.605,5.789-5.789,5.789h-39.434c-3.183,0-4.433-2.223-2.773-4.941l15.445-25.301
		c1.66-2.719,5.625-4.942,8.809-4.942h17.953c3.188,0,5.789,2.606,5.789,5.789V160.739z"/>
	<path display="inline" d="M-986.633,171.126l-25.996-4.907c-3.473-0.656-8.023-3.718-9.941-6.687l-21.321-33.039
		c-2.437-3.778-7.867-6.735-12.363-6.735h-29.027c-4.809,0-8.719,3.911-8.719,8.715v85.242c0,4.805,3.91,8.715,8.719,8.715h30.082
		c2.953,10.137,12.32,17.571,23.398,17.571s20.449-7.434,23.403-17.571h21.355c4.805,0,8.715-3.91,8.715-8.715v-32.57
		C-978.328,176.485-982.055,171.989-986.633,171.126L-986.633,171.126z M-1079.238,166.528c-3.188,0-5.793-2.606-5.793-5.789
		v-23.602c0-3.187,2.605-5.793,5.793-5.793h17.953c3.183,0,7.148,2.227,8.808,4.946l15.446,25.297
		c1.66,2.718,0.41,4.945-2.774,4.945h-39.433V166.528z M-1031.801,227.735c-6.683,0-12.105-5.422-12.105-12.109
		c0-6.688,5.418-12.106,12.105-12.106c6.688,0,12.11,5.418,12.11,12.106C-1019.691,222.313-1025.113,227.735-1031.801,227.735
		L-1031.801,227.735z"/>
	<path display="inline" d="M-987.066,164.837c0.039,0,0.074,0.003,0.113,0.003c1.851,0,3.379-1.472,3.437-3.336l0.594-18.605
		c0.063-1.902-1.43-3.488-3.332-3.551c-0.035,0-0.074,0-0.109,0c-1.852,0-3.383,1.469-3.442,3.332l-0.593,18.606
		C-990.457,163.188-988.965,164.778-987.066,164.837L-987.066,164.837z"/>
	<path display="inline" d="M-967.895,142.555c-1.695-0.851-3.765-0.168-4.617,1.532l-7.906,15.765
		c-0.855,1.699-0.168,3.77,1.531,4.621c0.496,0.25,1.024,0.367,1.543,0.367c1.262,0,2.477-0.695,3.078-1.902l7.907-15.766
		C-965.508,145.473-966.191,143.407-967.895,142.555L-967.895,142.555z"/>
	<path display="inline" d="M-954.512,157.587c-1.125-1.536-3.277-1.868-4.812-0.743l-13.199,9.668
		c-1.536,1.121-1.868,3.278-0.743,4.809c0.676,0.922,1.719,1.41,2.782,1.41c0.707,0,1.418-0.215,2.031-0.664l13.195-9.668
		C-953.723,161.274-953.391,159.118-954.512,157.587L-954.512,157.587z"/>
</g>
<g display="none">
	<g display="inline">
		<g>
			<g>
				<defs>
					<rect id="SVGID_11_" x="-898" y="-51.029" width="39.84" height="39.989"/>
				</defs>
				<clipPath id="SVGID_12_">
					<use xlink:href="#SVGID_11_"  overflow="visible"/>
				</clipPath>
				<path clip-path="url(#SVGID_12_)" d="M-865.422-24.775l-5.73-6.695c-0.641-0.75-0.551-1.868,0.199-2.5l6.152-5.196
					c0.75-0.633,1.68-1.078,2.074-0.988c0.399,0.09,1.274-0.41,1.957-1.117l1.379-1.422c0.684-0.707,0.786-1.84,0.227-2.527
					c-0.563-0.688-1.684-0.813-2.508-0.282l-1.66,1.075c-0.824,0.531-1.496,1.265-1.496,1.636c0,0.371-0.606,1.188-1.356,1.825
					l-6.238,5.281c-0.75,0.633-1.875,0.543-2.516-0.203l-1.855-2.168c-0.641-0.75-0.746-1.93-0.293-2.672
					c0.453-0.746,1.223-2.09,1.227-3.074c0-1.18-0.551-2.883-2.899-4.797c-2.562-2.094-4.847-2.477-6.328-2.426
					c-0.984,0.035-1.238,0.93-0.613,1.687l3.129,3.789c0.625,0.762,0.605,1.973-0.047,2.711l-0.067,0.079
					c-0.648,0.734-1.855,1.75-2.695,2.265l-0.031,0.016c-0.84,0.515-2.047,0.332-2.695-0.403l-3.254-3.683
					c-0.649-0.738-1.575-0.625-1.762,0.34c-0.231,1.172-0.262,2.91,0.609,5.039c0.371,0.906,1.172,2.297,1.793,3.058
					c1.196,1.477,2.371,2.004,3.281,2.149c0.969,0.152,2.364-0.379,3.098-0.676c0.738-0.301,1.82,0.039,2.438,0.805l1.847,2.293
					c0.617,0.765,0.743,1.703,0.282,2.093c-0.465,0.395-1.348,0.098-1.977-0.66l-0.082-0.101c-0.629-0.754-1.336-1.367-1.582-1.367
					s-0.426,0.796-0.402,1.777l0.011,0.555c0.024,0.98-0.73,1.632-1.687,1.457c-0.953-0.18-2.344,0.183-3.106,0.808l-8.027,6.586
					c-0.758,0.625-1.375,1.672-1.375,2.344c0,0.668,0.496,1.832,1.113,2.601l1.532,1.914c0.613,0.77,1.644,1.458,2.296,1.54
					c0.657,0.082,1.801-0.364,2.555-0.989l8.043-6.699c0.758-0.629,1.399-1.934,1.438-2.918l0.011-0.223
					c0.035-0.984,0.844-1.605,1.805-1.39l0.086,0.015c0.961,0.215,1.738,0.157,1.738-0.132c0-0.286-0.402-1-0.898-1.598
					c-0.496-0.598-0.528-1.395-0.071-1.777c0.457-0.387,1.329-0.079,1.946,0.687l5.355,6.641c0.617,0.765,1.055,1.652,1.02,1.988
					c-0.024,0.199-0.035,0.402-0.035,0.609c0,3.114,2.523,5.637,5.636,5.637c3.11,0,5.633-2.523,5.633-5.637
					c0-2.441-1.551-4.519-3.726-5.296C-863.445-23.427-864.781-24.029-865.422-24.775L-865.422-24.775z M-864.43-14.756
					c-1.679,0-3.043-1.359-3.043-3.039c0-1.679,1.364-3.043,3.043-3.043c1.68,0,3.039,1.364,3.039,3.043
					C-861.391-16.115-862.75-14.756-864.43-14.756L-864.43-14.756z"/>
			</g>
		</g>
	</g>
</g>
<g display="none">
	<path display="inline" fill="#B6A0CE" d="M29.344,21.69c-0.003-0.025-0.003-0.05-0.007-0.075c-0.022-0.942-0.19-1.705-0.962-2.019
		c-0.813-0.33-1.531-0.337-2.056-0.137c-0.032,0.013-0.123,0.127-0.159,0.147c-0.035,0.021-0.219-0.038-0.286-0.022
		c-1.156,0.159-1.538,1.207-1.453,2.022c0.277,0.464,0.365,1.049,0.391,1.656c0.429,0.721,1.169,1.275,2.046,1.275
		c1.179,0,2.109-0.955,2.398-1.998c0.11-0.012,0.204-0.094,0.213-0.204l0.035-0.411C29.515,21.817,29.444,21.724,29.344,21.69
		L29.344,21.69z M26.857,24.22c-1.214,0-2.121-1.239-2.121-2.35c0-0.049,0.003-0.102,0.006-0.152c0.508-0.18,1.48-0.551,1.585-0.746
		c0.44,0.442,2.002,0.69,2.687,0.771c0.003,0.043,0.01,0.088,0.01,0.127C29.02,22.957,28.075,24.22,26.857,24.22L26.857,24.22z"/>
	<path display="inline" fill="#B6A0CE" d="M13.708,21.913l0.039,0.414c0.01,0.115,0.11,0.199,0.226,0.205
		c0.284,1.042,1.201,2.004,2.361,2.004c0.91,0,1.668-0.573,2.105-1.312c-0.01-0.52,0.133-1.052,0.439-1.491
		c-0.02-0.016-0.035-0.034-0.058-0.043c0-0.025-0.003-0.05-0.003-0.071c-0.023-0.943-0.194-1.706-0.962-2.019
		c-0.814-0.333-1.531-0.337-2.057-0.14c-0.035,0.013-0.123,0.127-0.158,0.149c-0.035,0.018-0.22-0.041-0.291-0.025
		c-1.152,0.159-1.533,1.207-1.449,2.026c-0.002,0.022-0.002,0.047-0.006,0.068C13.779,21.703,13.698,21.802,13.708,21.913
		L13.708,21.913z M14.217,21.718c0.507-0.18,1.479-0.551,1.585-0.746c0.439,0.442,2.002,0.69,2.687,0.771
		c0.003,0.043,0.01,0.088,0.01,0.127c0,1.087-0.947,2.35-2.166,2.35c-1.214,0-2.122-1.239-2.122-2.35
		C14.211,21.821,14.214,21.768,14.217,21.718L14.217,21.718z"/>
	<path display="inline" fill="#B6A0CE" d="M19.913,14.487c0.171,0.634,0.727,1.22,1.433,1.22c0.717,0,1.282-0.581,1.459-1.216
		c0.067-0.007,0.123-0.056,0.129-0.124l0.022-0.25c0.007-0.066-0.039-0.121-0.1-0.144c0-0.012,0-0.028-0.003-0.043
		c-0.012-0.573-0.116-1.036-0.584-1.229c-0.493-0.202-0.93-0.205-1.249-0.085c-0.023,0.01-0.077,0.078-0.098,0.091
		c-0.022,0.012-0.136-0.022-0.177-0.013c-0.701,0.096-0.933,0.731-0.882,1.229c0,0.015-0.003,0.028-0.003,0.044
		c-0.067,0.015-0.116,0.074-0.11,0.143l0.023,0.253C19.781,14.435,19.839,14.484,19.913,14.487L19.913,14.487z M20.061,13.993
		c0.308-0.109,0.898-0.337,0.962-0.457c0.268,0.27,1.217,0.423,1.637,0.472c0,0.025,0.003,0.05,0.003,0.078
		c0,0.659-0.575,1.428-1.318,1.428c-0.739,0-1.291-0.756-1.291-1.428C20.055,14.055,20.059,14.023,20.061,13.993L20.061,13.993z"/>
	<path display="inline" fill="#B6A0CE" d="M16.704,14.44c-0.975,0.134-1.298,1.021-1.226,1.711c0,0.018-0.003,0.038-0.003,0.056
		c-0.098,0.021-0.162,0.106-0.156,0.202l0.032,0.349c0.01,0.096,0.093,0.167,0.191,0.171c0.242,0.884,1.013,1.696,1.995,1.696
		c0.994,0,1.779-0.808,2.024-1.689c0.093-0.01,0.171-0.077,0.181-0.172l0.029-0.348c0.01-0.09-0.052-0.168-0.136-0.196
		c-0.003-0.022-0.003-0.044-0.003-0.062c-0.02-0.796-0.165-1.44-0.813-1.709c-0.688-0.28-1.292-0.282-1.738-0.115
		c-0.029,0.009-0.103,0.105-0.133,0.124C16.917,14.478,16.761,14.428,16.704,14.44L16.704,14.44z M17.088,15.611
		c0.371,0.373,1.692,0.584,2.27,0.657c0.003,0.034,0.007,0.068,0.007,0.106c0,0.918-0.798,1.985-1.827,1.985
		c-1.026,0-1.792-1.048-1.792-1.985c0-0.044,0.003-0.087,0.007-0.131C16.177,16.093,16.997,15.778,17.088,15.611L17.088,15.611z"/>
	<path display="inline" fill="#B6A0CE" d="M23.181,16.932c0.239,0.881,1.013,1.692,1.992,1.692c0.994,0,1.782-0.808,2.027-1.686
		c0.064-0.01,0.11-0.049,0.142-0.099l0.049-0.007c0.012,0,0.032-0.009,0.032-0.028l0.032-0.345c0-0.025-0.023-0.034-0.026-0.034
		l-0.019-0.007c0.007-0.091-0.051-0.168-0.139-0.199c0-0.019,0-0.04-0.003-0.062c-0.019-0.796-0.161-1.438-0.813-1.706
		c-0.687-0.281-1.292-0.283-1.738-0.118c-0.029,0.012-0.104,0.108-0.133,0.127c-0.029,0.015-0.187-0.034-0.245-0.019
		c-0.975,0.134-1.295,1.018-1.223,1.709c-0.003,0.018-0.003,0.041-0.007,0.059c-0.093,0.021-0.161,0.106-0.152,0.199l0.03,0.349
		C22.996,16.855,23.08,16.926,23.181,16.932L23.181,16.932z M23.387,16.242c0.426-0.149,1.249-0.464,1.337-0.632
		c0.374,0.373,1.692,0.584,2.273,0.657c0,0.034,0.003,0.068,0.003,0.106c0,0.918-0.798,1.985-1.827,1.985
		c-1.026,0-1.792-1.048-1.792-1.985C23.381,16.329,23.384,16.285,23.387,16.242L23.387,16.242z"/>
	<path display="inline" fill="#B6A0CE" d="M19.697,17.066c-0.117,0.355-0.327,0.707-0.601,1.002h2.244v-0.003l2.296-0.003
		c-0.271-0.292-0.475-0.64-0.588-0.999c-0.123-0.046-0.213-0.158-0.223-0.292l-0.032-0.345c-0.012-0.131,0.052-0.25,0.156-0.318
		c-0.01-0.124-0.003-0.249,0.009-0.377c-0.136-0.131-0.29-0.227-0.477-0.252c-0.039-0.007-0.074,0.003-0.1,0.013l-0.591,0.771
		l-0.449-0.345h-0.003v0.003l-0.449,0.345l-0.59-0.771c-0.023-0.01-0.058-0.019-0.098-0.013c-0.168,0.025-0.31,0.103-0.435,0.214
		c0.016,0.144,0.026,0.286,0.032,0.427c0.096,0.071,0.152,0.186,0.139,0.308l-0.029,0.346
		C19.893,16.908,19.813,17.013,19.697,17.066L19.697,17.066z"/>
	<path display="inline" fill="#B6A0CE" d="M29.211,22.82c-0.174,0.426-0.462,0.824-0.823,1.12
		C28.756,23.64,29.043,23.242,29.211,22.82L29.211,22.82z"/>
	<path display="inline" fill="#B6A0CE" d="M15.535,19.44c0.013,0,0.026,0.003,0.035,0.007c0.003-0.007,0.01-0.01,0.012-0.016
		c0.062-0.062,0.1-0.103,0.152-0.121c0.297-0.112,0.633-0.156,0.991-0.137l-0.645-0.84c-0.035-0.015-0.084-0.025-0.136-0.018
		c-0.607,0.084-0.988,0.65-1.23,1.306c0.178-0.09,0.375-0.162,0.61-0.196l0.051-0.003C15.421,19.422,15.48,19.431,15.535,19.44
		L15.535,19.44z"/>
	<path display="inline" fill="#B6A0CE" d="M18.372,23.852l0.045,0.506c0.013,0.144,0.136,0.246,0.281,0.253
		c0.349,1.285,1.475,2.47,2.903,2.47c1.449,0,2.595-1.179,2.951-2.461c0.139-0.016,0.249-0.116,0.261-0.253l0.045-0.504
		c0.013-0.134-0.074-0.245-0.197-0.289c-0.003-0.028-0.003-0.059-0.007-0.09c-0.029-1.161-0.239-2.097-1.185-2.486
		c-1.001-0.408-1.886-0.414-2.531-0.172c-0.042,0.015-0.152,0.158-0.193,0.183c-0.045,0.025-0.272-0.046-0.356-0.028
		c-1.421,0.196-1.889,1.484-1.785,2.492c-0.003,0.028-0.007,0.056-0.01,0.085C18.46,23.591,18.36,23.712,18.372,23.852
		L18.372,23.852z M18.999,23.609c0.623-0.221,1.817-0.678,1.951-0.921c0.542,0.544,2.463,0.849,3.306,0.952
		c0.003,0.053,0.009,0.106,0.009,0.158c0,1.335-1.165,2.887-2.663,2.887c-1.496,0-2.612-1.524-2.612-2.887
		C18.99,23.734,18.996,23.672,18.999,23.609L18.999,23.609z"/>
	<path display="inline" fill="#B6A0CE" d="M18.15,19.397l-0.623-0.479l-0.003,0.003v0.003l-0.4,0.305
		c0.261,0.047,0.523,0.112,0.791,0.224c0.888,0.361,1.04,1.273,1.062,2.125c0.314-0.379,0.765-0.666,1.389-0.753l0.061-0.003
		c0.051,0,0.123,0.01,0.187,0.021c0.01,0,0.023,0.003,0.032,0.007c-0.161-1.01-0.561-2.408-1.54-2.539
		c-0.051-0.01-0.104,0.003-0.136,0.015L18.15,19.397z"/>
	<path display="inline" fill="#B6A0CE" d="M26.745,18.311c-0.051-0.01-0.104,0.003-0.136,0.015l-0.82,1.07l-0.623-0.479
		l-0.003,0.003v0.003H25.16l-0.623,0.479l-0.82-1.07c-0.032-0.013-0.083-0.025-0.133-0.015c-0.874,0.118-1.288,1.241-1.482,2.199
		c0.458,0.025,0.943,0.137,1.434,0.337c0.304,0.124,0.536,0.302,0.714,0.517c-0.003-0.856,0.468-1.787,1.598-1.942l0.055-0.007
		c0.045,0,0.104,0.01,0.158,0.019c0.013,0.003,0.026,0.007,0.035,0.007c0.003-0.003,0.01-0.01,0.016-0.016
		c0.058-0.062,0.096-0.099,0.148-0.121c0.452-0.168,0.995-0.184,1.563-0.053C27.581,18.762,27.235,18.377,26.745,18.311
		L26.745,18.311z"/>
	<path display="inline" fill="#B6A0CE" d="M21.589,31.848l4.705-0.003c0,0-0.142-4.919-2.403-5.224
		c-0.074-0.012-0.148,0.003-0.197,0.022L22.5,28.201l-0.908-0.697l-0.007,0.003v0.006v-0.002l-0.91,0.699l-1.195-1.562
		c-0.048-0.018-0.123-0.034-0.197-0.021c-2.259,0.305-2.402,5.224-2.402,5.224l4.707,0.003v-0.006H21.589z"/>
	<path display="inline" fill="#B6A0CE" d="M26.847,28.413l3.822-0.003c0,0-0.116-3.995-1.953-4.247
		c-0.061-0.009-0.119,0.003-0.161,0.019l-0.972,1.27l-0.737-0.57l-0.003,0.007v0.002h-0.002l-0.737,0.566l-0.972-1.269
		c-0.032-0.013-0.083-0.016-0.136-0.016l-0.019,0.212c-0.013,0.168-0.13,0.308-0.291,0.367c-0.232,0.753-0.749,1.491-1.453,1.969
		c-0.026,0.116-0.044,0.227-0.064,0.339l0.42-0.547l0.042-0.016c0.048-0.018,0.161-0.053,0.283-0.034
		c0.94,0.127,1.531,0.974,1.905,1.957h1.026L26.847,28.413L26.847,28.413z"/>
	<path display="inline" fill="#B6A0CE" d="M12.497,28.416l3.826,0.003v-0.007h1.036c0.374-0.98,0.965-1.816,1.902-1.944
		c0.113-0.016,0.232,0.015,0.281,0.034l0.041,0.015l0.413,0.535c-0.022-0.127-0.048-0.258-0.077-0.392
		c-0.652-0.479-1.134-1.188-1.353-1.913c-0.174-0.053-0.298-0.199-0.314-0.377l-0.016-0.196c-0.016-0.003-0.029-0.01-0.044-0.013
		c-0.062-0.009-0.12,0.003-0.159,0.019l-0.971,1.27l-0.74-0.57l-0.003,0.007v0.002v-0.002l-0.739,0.569l-0.972-1.269
		c-0.039-0.013-0.096-0.029-0.159-0.019C12.613,24.418,12.497,28.416,12.497,28.416L12.497,28.416z"/>
	<path display="inline" fill="#B6A0CE" d="M32.095,12.063l1.708-2.483l-6.264,0.762l1.931,5.541l1.511-2.2
		c2.435,2.246,3.958,5.397,3.958,8.898c0,6.808-5.747,12.345-12.811,12.345S9.317,29.388,9.317,22.581
		c0-5.053,3.167-9.396,7.684-11.306l-1.495-1.437c-4.841,2.346-8.172,7.174-8.172,12.743c0,7.859,6.638,14.255,14.793,14.255
		c8.159,0,14.797-6.396,14.797-14.255C36.924,18.419,35.058,14.673,32.095,12.063L32.095,12.063z"/>
</g>
<g display="none">
	<path display="inline" fill="#B6A0CE" d="M28.521,17.272c-4.128,2.42-7.102,5.48-8.31,6.838l-3.101-2.325
		c-0.085-0.056-1.784,1.388-1.739,1.432l5.646,5.496c0.04,0.044,0.099,0.065,0.163,0.065c0.009,0,0.027,0,0.04-0.005
		c0.077-0.013,0.14-0.064,0.167-0.134c0.91-2.225,3.915-6.885,7.75-10.266c0.068-0.059,0.095-0.159,0.054-0.241
		C29.192,18.13,28.58,17.237,28.521,17.272L28.521,17.272z"/>
	<path display="inline" fill="#B6A0CE" d="M32.225,12.409c-8.553,0-10-3.108-10.013-3.134c-0.062-0.154-0.215-0.254-0.391-0.259
		h-0.005c-0.172,0-0.33,0.103-0.397,0.249c-0.009,0.036-1.487,3.144-10.009,3.144c-0.239,0-0.428,0.185-0.428,0.405v13.921
		c0,5.696,10.229,10.05,10.662,10.231C21.703,36.992,21.756,37,21.82,37c0.053,0,0.117-0.008,0.17-0.034
		c0.437-0.181,10.662-4.535,10.662-10.231V12.814C32.653,12.594,32.464,12.409,32.225,12.409L32.225,12.409z M30.3,25.925
		c0,4.458-8.008,7.869-8.35,8.011c-0.04,0.021-0.09,0.025-0.135,0.025s-0.091-0.005-0.136-0.025
		c-0.334-0.142-8.345-3.553-8.345-8.011V15.03c0-0.177,0.149-0.319,0.334-0.319c6.669,0,7.827-2.436,7.841-2.458
		c0.05-0.12,0.17-0.198,0.307-0.198h0.005c0.135,0,0.256,0.082,0.305,0.202c0.014,0.022,1.145,2.454,7.841,2.454
		c0.185,0,0.334,0.143,0.334,0.319L30.3,25.925L30.3,25.925z"/>
</g>
<g display="none">
	<g display="inline">
		<path fill="#B6A0CE" d="M10.721,26.986l2.4,2.987c0.53,0.66,1.353,0.932,2.208,0.824l-2.785,2.809c0,0-0.241,0.899,1.2,1.494
			c1.442,0.595,2.904-2.628,2.904-2.628l-1.091-1.712c0.089-0.018,0.179-0.04,0.269-0.068l3.323,2.625
			c1.893,1.826,3.632,1.265,5.088-0.054l3.242-2.936l0.025-0.023l3.242-2.936c1.456-1.318,2.253-3.053,0.853-5.325l-1.917-3.898
			c0.041-0.09,0.075-0.181,0.105-0.271l1.42,1.414c0,0,3.229-1.024,2.904-2.629s-1.2-1.494-1.2-1.494l-3.052,2.476
			c0.237-0.879,0.113-1.785-0.417-2.445l-2.4-2.987c-0.597-0.744-1.564-0.994-2.533-0.767l-1.613-2.007
			c-0.546-0.679-1.777-0.515-2.752,0.368c-0.974,0.883-1.323,2.149-0.777,2.828l1.342,1.671l-3.508,3.177L17.174,17.5l-3.509,3.177
			l-1.342-1.673c-0.546-0.679-1.779-0.513-2.753,0.369c-0.975,0.883-1.323,2.148-0.777,2.827l1.613,2.007
			C10.042,25.189,10.124,26.242,10.721,26.986z M25.748,14.38l1.291,1.608l-3.185,2.885l-1.291-1.608L25.748,14.38z M23.523,25.402
			l0.025-0.023l5.846-5.294l1.496,3.196l0.023,0.044c0.445,0.782,0.183,2.097-0.548,2.76l-3.618,3.277l-0.025,0.023l-3.618,3.276
			c-0.731,0.662-1.996,0.728-2.653,0.139l-0.038-0.031l-2.736-2.072L23.523,25.402z M16.132,23.088l1.291,1.608l-3.186,2.885
			l-1.291-1.608L16.132,23.088z"/>
		<rect x="8.662" y="35.476" fill="#B6A0CE" width="29.616" height="1.917"/>
		<polygon fill="#B6A0CE" points="31.053,28.391 31.203,29.13 32.736,28.78 31.559,30.276 32.753,31.57 31.137,31.529 
			30.612,33.377 29.619,32.135 28.005,32.728 28.947,30.501 28.298,30.192 26.681,34.014 29.392,33.019 30.916,34.926 
			31.662,32.298 34.487,32.37 32.518,30.236 34.608,27.583 		"/>
	</g>
</g>
</svg>
