<?xml version="1.0" encoding="utf-8"?>
<!-- Generator: Adobe Illustrator 17.0.0, SVG Export Plug-In . SVG Version: 6.00 Build 0)  -->
<!DOCTYPE svg PUBLIC "-//W3C//DTD SVG 1.1//EN" "http://www.w3.org/Graphics/SVG/1.1/DTD/svg11.dtd">
<svg version="1.1" id="Capa_1" xmlns="http://www.w3.org/2000/svg" xmlns:xlink="http://www.w3.org/1999/xlink" x="0px" y="0px"
	 width="612px" height="612px" viewBox="0 0 612 612" enable-background="new 0 0 612 612" xml:space="preserve">
<g display="none">
	<g id="Shape_28_1_" display="inline">
		<g>
			<path fill="#00A1DA" stroke="#00A1DA" stroke-width="7" stroke-miterlimit="10" d="M411.765,125.173H230.989V487.46h180.775
				c99.683,0,180.777-81.258,180.777-181.14S511.447,125.173,411.765,125.173z M333.655,468.441h-83.687v-324.25h83.687V468.441z
				 M411.765,468.441h-59.12v-324.25h59.12c89.216,0,161.798,72.733,161.798,162.131
				C573.562,395.707,500.981,468.441,411.765,468.441z M20.5,216.667h170.815v-19.018H20.5V216.667z M20.5,283.233h170.815v-19.018
				H20.5V283.233z M20.5,349.799h170.815v-19.018H20.5V349.799z M20.5,416.365h170.815v-19.018H20.5V416.365z"/>
		</g>
	</g>
</g>
<path display="none" d="M317.5,269.5c-0.003-14.954-0.57-29.754-3.856-44.399c-2.977-13.27-8.671-26.775-7.144-40.601
	c0.707-6.405-9.3-6.337-10,0c-1.496,13.555,3.475,27.162,6.746,40.116c3.729,14.765,4.251,29.73,4.254,44.884
	c0,0.834,0.17,1.559,0.462,2.177c-0.999,2.928,0.514,6.823,4.538,6.823s5.537-3.894,4.538-6.822
	C317.33,271.059,317.5,270.335,317.5,269.5z"/>
<rect x="246.096" y="133.149" display="none" fill="#00A1DA" width="100.404" height="346.351"/>
<g>
	<g>
		<path fill="#00A1DA" d="M92.078,375.242l40.087,50.282c8.855,11.104,22.603,15.695,36.882,13.862l-46.513,47.299
			c0,0-4.025,15.138,20.045,25.139c24.079,10.015,48.513-44.255,48.513-44.255l-18.227-28.814c1.487-0.303,2.986-0.662,4.494-1.15
			l55.521,44.203c31.616,30.734,60.674,21.286,84.995-0.904l54.159-49.426l0.421-0.385l54.151-49.426
			c24.329-22.19,37.637-51.402,14.25-89.655l-32.02-65.628c0.679-1.514,1.249-3.04,1.762-4.566l23.715,23.795
			c0,0,53.957-17.239,48.509-44.259c-5.436-27.011-20.045-25.147-20.045-25.147l-50.991,41.682
			c3.957-14.796,1.884-30.046-6.967-41.15l-40.091-50.291c-9.978-12.517-26.124-16.746-42.318-12.911l-26.944-33.799
			c-9.113-11.441-29.684-8.67-45.98,6.196c-16.271,14.861-22.094,36.169-12.981,47.606l22.414,28.123l-58.617,53.477l-0.416,0.385
			l-58.621,53.486l-22.414-28.123c-9.122-11.437-29.713-8.644-45.984,6.209c-16.295,14.87-22.094,36.16-12.981,47.597l26.944,33.799
			C80.742,344.996,82.1,362.724,92.078,375.242z M343.115,163.03l21.578,27.063l-53.209,48.557l-21.578-27.067L343.115,163.03z
			 M305.947,348.572l0.421-0.385l97.665-89.12l24.988,53.802l0.388,0.744c7.428,13.158,3.063,35.3-9.154,46.452l-60.448,55.155
			l-0.421,0.38l-60.452,55.151c-12.213,11.151-33.342,12.262-44.314,2.34l-0.627-0.519l-45.712-34.881L305.947,348.572z
			 M182.473,309.622l21.573,27.063l-53.213,48.557l-21.573-27.063L182.473,309.622z"/>
		<rect x="57.685" y="518.163" fill="#00A1DA" width="494.76" height="32.278"/>
		<polygon fill="#00A1DA" points="431.748,398.897 434.241,411.337 459.86,405.457 440.19,430.639 460.139,452.418 433.138,451.731 
			424.377,482.841 407.794,461.922 380.822,471.915 396.559,434.418 385.712,429.208 358.695,493.56 403.991,476.8 429.452,508.918 
			441.908,464.677 489.12,465.879 456.214,429.956 491.124,385.281 		"/>
	</g>
</g>
<g display="none">
	<g display="inline">
		<g id="Shape_28_2_">
			<g>
				<path fill="#00A1DA" stroke="#00A1DA" stroke-width="7" stroke-miterlimit="10" d="M404.696,145.857H237.351v339.171h167.344
					c92.277,0,167.346-76.073,167.346-169.582S496.972,145.857,404.696,145.857z M332.389,467.222H254.92V163.661h77.469V467.222z
					 M404.696,467.222h-54.728V163.661h54.728c82.588,0,149.777,68.092,149.777,151.786
					C554.472,399.129,487.283,467.222,404.696,467.222z M42.5,231.513h158.124v-17.805H42.5V231.513z M42.5,293.832h158.124v-17.805
					H42.5V293.832z M42.5,356.15h158.124v-17.805H42.5V356.15z M42.5,418.469h158.124v-17.805H42.5V418.469z"/>
			</g>
		</g>
	</g>
	<rect x="251.335" y="153.324" display="inline" fill="#00A1DA" width="92.944" height="324.252"/>
</g>
</svg>
