<?xml version="1.0" encoding="utf-8"?>
<!-- Generator: Adobe Illustrator 17.0.0, SVG Export Plug-In . SVG Version: 6.00 Build 0)  -->
<!DOCTYPE svg PUBLIC "-//W3C//DTD SVG 1.1//EN" "http://www.w3.org/Graphics/SVG/1.1/DTD/svg11.dtd">
<svg version="1.1" id="Layer_1" xmlns="http://www.w3.org/2000/svg" xmlns:xlink="http://www.w3.org/1999/xlink" x="0px" y="0px"
	 width="45px" height="45px" viewBox="0 0 45 45" enable-background="new 0 0 45 45" xml:space="preserve">
<g display="none">
	<g display="inline">
		<g>
			<g>
				<g>
					<defs>
						<rect id="SVGID_1_" x="4.815" y="3.209" width="34.945" height="36.796"/>
					</defs>
					<clipPath id="SVGID_2_">
						<use xlink:href="#SVGID_1_"  overflow="visible"/>
					</clipPath>
					<path clip-path="url(#SVGID_2_)" fill="#050505" d="M5.454,36.721l4.319,3.053c0.597,0.426,1.185,0.161,1.703-0.586
						l7.305-11.504l8.783-0.167l3.359-4.819L13.881,10.646l-3.362,4.819l2.926,8.254L5.085,34.67
						C4.564,35.416,4.857,36.299,5.454,36.721L5.454,36.721z M8.129,35.009c0.385-0.554,1.147-0.688,1.697-0.297
						c0.553,0.387,0.687,1.155,0.299,1.711c-0.387,0.554-1.147,0.688-1.699,0.298C7.875,36.331,7.742,35.566,8.129,35.009
						L8.129,35.009z"/>
				</g>
			</g>
			<g>
				<g>
					<defs>
						<rect id="SVGID_3_" x="4.815" y="3.209" width="34.945" height="36.796"/>
					</defs>
					<clipPath id="SVGID_4_">
						<use xlink:href="#SVGID_3_"  overflow="visible"/>
					</clipPath>
					<path clip-path="url(#SVGID_4_)" fill="#050505" d="M19.114,3.138l-4.487,6.435l17.045,12.052l1.166-2.605
						c-0.264-1.12-0.67-2.496-1.36-2.713l-0.33-0.102c-1.357-0.416-3.044-0.935-3.384-2.372c-0.133-0.554-0.798-0.873-1.713-1.318
						c-0.089-0.039-0.177-0.084-0.267-0.128l-0.88,0.841l0.49-1.037c-0.775-0.393-1.633-0.902-2.425-1.699
						c-0.667-0.672-0.944-1.35-0.822-2.016c0.168-0.925,1.21-1.952,1.585-2.16l-1.083-0.678l-3.02,2.982l1.646-3.955L19.114,3.138z"
						/>
				</g>
			</g>
		</g>
		<path fill="#050505" d="M36.897,17.338c0.181-1.213-0.085-2.669-0.791-4.327c-0.425-1.001-2.354-1.862-3.886-2.038
			c-1.49-0.17-3.212-0.768-3.469-1.687c-0.105-0.368-0.566-1.641-2.2-2.681c-0.387-0.247-0.737-0.365-1.07-0.365
			c-0.613,0-1.093,0.413-1.56,0.813l-0.14,0.112L23.644,7.27c-0.01,0.006-1.09,0.512-1.236,1.325
			c-0.08,0.442,0.137,0.925,0.642,1.434c0.724,0.729,1.506,1.194,2.243,1.571c0.209,0.109,0.416,0.208,0.616,0.307
			c0.016,0.007,0.028,0.012,0.045,0.019c0.998,0.483,1.859,0.9,2.062,1.757c0.258,1.072,1.745,1.53,2.942,1.894l0.337,0.106
			c0.88,0.279,1.348,1.447,1.662,2.627c0.108,0.413,0.2,0.826,0.28,1.204c0.083,0.381,0.156,0.71,0.225,0.925
			c0.233,0.732-0.079,1.558-0.407,2.435c-0.19,0.506-0.39,1.027-0.479,1.536c-0.118,0.676,0.05,1.363,0.451,1.847
			c0.401,0.477,1.008,0.733,1.751,0.733c1.204,0,1.789-0.836,1.789-2.554c0-0.65-0.42-1.735-0.791-2.695
			c-0.149-0.388-0.295-0.762-0.41-1.098c-0.277-0.807,0.216-1.331,0.652-1.793C36.399,18.441,36.796,18.023,36.897,17.338
			L36.897,17.338z"/>
	</g>
	<path display="inline" fill="#050505" d="M37.245,35.926c-0.836-0.274-1.699-0.411-2.559-0.411c-1.451,0-2.415,0.399-2.425,0.404
		c-0.672,0.199-1.083,0.527-1.083,0.845c0.003,0.317,0.411,0.639,1.045,0.822c0.526,0.15,1.417,0.237,2.447,0.237
		c1.079,0,2.116-0.093,2.58-0.237c0.609-0.187,1.129-0.589,1.132-0.878C38.386,36.612,38.307,36.276,37.245,35.926L37.245,35.926z"
		/>
</g>
<g display="none">
	<g display="inline">
		<path fill="#050505" d="M41.982,20.704c-0.181-0.655-0.858-1.039-1.514-0.86l-3.925,1.081c0.596-0.188,0.948-0.809,0.779-1.416
			l-1.468-5.312l0.757-0.207c0.002-0.002,0.006-0.002,0.006-0.002c0.623-0.172,0.988-0.814,0.818-1.436
			c-0.115-0.405-0.427-0.701-0.803-0.812l-9.41-3.682c-0.483-0.189-1.029-0.037-1.348,0.372l-2.504,3.23l-0.141-0.52
			c-0.171-0.62-0.815-0.986-1.437-0.814l-1.04,0.287c-0.621,0.172-0.985,0.815-0.811,1.436l0.82,2.982l-1.134,1.465
			c-0.309,0.397-0.328,0.948-0.048,1.365c0.278,0.417,0.796,0.608,1.281,0.475l0.755-0.209l1.47,5.308
			c0.164,0.597,0.767,0.945,1.364,0.819l-14.184,3.907c0.291-0.266,0.435-0.675,0.323-1.081l-0.214-0.778
			c1.884-0.779,2.873-2.318,2.34-4.254l-0.007-0.032c-0.529-1.913-2.007-2.368-4.394-2.336c-2.033,0.037-2.567-0.069-2.767-0.79
			l-0.01-0.032c-0.145-0.533,0.224-1.091,1.15-1.346c0.754-0.209,1.581-0.148,2.514,0.103c0.217,0.058,0.421,0.069,0.657,0.004
			c0.628-0.171,0.999-0.799,0.826-1.426c-0.131-0.471-0.491-0.729-0.801-0.81c-0.812-0.25-1.674-0.325-2.577-0.23L7.074,14.33
			c-0.16-0.58-0.754-0.918-1.335-0.758c-0.575,0.159-0.914,0.755-0.754,1.334l0.225,0.818c-1.644,0.797-2.484,2.318-2.017,4.018
			l0.01,0.032c0.601,2.182,2.198,2.401,4.566,2.355c1.965-0.033,2.429,0.176,2.599,0.788l0.009,0.031
			c0.177,0.643-0.311,1.2-1.301,1.473c-1.067,0.295-2.081,0.168-3.084-0.213c-0.185-0.069-0.434-0.115-0.75-0.031
			c-0.626,0.174-0.996,0.797-0.822,1.426c0.103,0.377,0.387,0.671,0.708,0.784c1.017,0.374,2.089,0.495,3.131,0.408l0.238,0.864
			c0.112,0.407,0.444,0.684,0.831,0.763l-4.791,1.321c-0.655,0.181-1.039,0.858-0.859,1.514c0.181,0.656,0.857,1.041,1.513,0.86
			l13.516-3.723l-4.289,4.29c-0.291,0.292-0.379,0.73-0.221,1.111c0.157,0.38,0.53,0.628,0.941,0.628l11.766-0.001
			c0.412,0,0.784-0.249,0.941-0.628c0.157-0.381,0.07-0.819-0.221-1.111l-5.289-5.289l18.788-5.174
			C41.777,22.038,42.162,21.36,41.982,20.704L41.982,20.704z M26.128,18.379l1.909-0.526c0.417-0.115,0.85,0.132,0.965,0.549
			l0.527,1.909c0.114,0.419-0.131,0.85-0.549,0.965l-1.909,0.526c-0.418,0.116-0.85-0.129-0.967-0.549l-0.524-1.908
			C25.463,18.927,25.709,18.494,26.128,18.379L26.128,18.379z M33.083,17.278l0.524,1.908c0.116,0.419-0.131,0.852-0.549,0.966
			l-1.909,0.526c-0.418,0.115-0.851-0.13-0.966-0.549l-0.526-1.909c-0.114-0.417,0.13-0.85,0.549-0.966l1.909-0.526
			C32.533,16.615,32.966,16.86,33.083,17.278L33.083,17.278z M29.099,13.239l1.909-0.526c0.418-0.115,0.85,0.13,0.966,0.548
			L32.5,15.17c0.115,0.417-0.131,0.851-0.549,0.966l-1.907,0.526c-0.418,0.115-0.851-0.13-0.965-0.549l-0.526-1.91
			C28.437,13.787,28.682,13.353,29.099,13.239L29.099,13.239z M25.021,14.362l1.909-0.525c0.418-0.115,0.851,0.13,0.966,0.548
			l0.526,1.909c0.115,0.419-0.13,0.851-0.547,0.967l-1.909,0.524c-0.419,0.115-0.852-0.13-0.967-0.548l-0.526-1.909
			C24.356,14.91,24.602,14.478,25.021,14.362L25.021,14.362z"/>
	</g>
</g>
<g display="none">
	<g display="inline">
		<path fill="#050505" d="M41.327,30.164l-6.455,6.275v2.253c0,0.482-0.359,0.813-0.781,0.813h-4.305
			c-0.422,0-0.781-0.345-0.781-0.813V33.64c0-0.266,0.12-0.547,0.302-0.684l7.886-5.591l0.782-11.873
			c0-1.029,0.712-1.842,1.613-1.842c0.901,0,1.614,0.813,1.614,1.77l0.782,12.831C42.046,29.286,41.932,29.617,41.327,30.164
			L41.327,30.164z M10.364,25.739v-8.873c0-0.892,0.12-1.504,0.479-2.389l3.826-9.074c0.422-1.029,1.614-1.907,2.629-1.907h10.823
			c1.072,0,2.276,0.813,2.685,1.907l3.826,9.074c0.36,0.892,0.479,1.569,0.479,2.389v8.88c0,0.345-0.303,0.684-0.599,0.684h-3.045
			c-0.359,0-0.599-0.345-0.599-0.684v-2.195H14.606v2.188c0,0.345-0.303,0.683-0.599,0.683h-3.045
			C10.666,26.422,10.364,26.077,10.364,25.739L10.364,25.739z M31.109,16.521c-1.072,0-1.916,1.029-1.916,2.188
			c0,1.158,0.838,2.188,1.916,2.188c1.071,0,1.916-0.957,1.916-2.188C33.025,17.478,32.18,16.521,31.109,16.521L31.109,16.521z
			 M13.831,14.203h17.814l-2.629-6.275c-0.536-1.223-1.015-1.504-2.093-1.504h-8.422c-1.072,0-1.551,0.266-2.03,1.504L13.831,14.203
			z M12.457,18.701c0,1.159,0.838,2.188,1.916,2.188s1.916-0.957,1.916-2.188s-0.838-2.188-1.916-2.188S12.457,17.542,12.457,18.701
			L12.457,18.701z M16.163,33.028l-7.886-5.591L7.496,15.564c0.057-1.094-0.712-1.907-1.614-1.907c-0.901,0-1.67,0.813-1.67,1.835
			L3.43,28.329c-0.057,1.029,0.057,1.36,0.656,1.907l6.455,6.275v2.252c0,0.482,0.359,0.813,0.781,0.813h4.369
			c0.422,0,0.781-0.345,0.781-0.813v-5.051C16.459,33.446,16.339,33.179,16.163,33.028L16.163,33.028z"/>
	</g>
</g>
<g display="none">
	<path display="inline" fill="#050505" d="M22.064,4.117c-9.564,0-17.314,7.64-17.314,17.068c0,9.421,7.75,17.068,17.314,17.068
		c9.557,0,17.314-7.647,17.314-17.068C39.378,11.757,31.621,4.117,22.064,4.117L22.064,4.117z M22.064,8.382
		c5.632,0,10.392,3.579,12.188,8.537H9.875C11.671,11.961,16.427,8.382,22.064,8.382L22.064,8.382z M22.064,23.314
		c-1.2,0-2.167-0.952-2.167-2.129c0-1.183,0.967-2.136,2.167-2.136c1.194,0,2.16,0.953,2.16,2.136
		C24.224,22.362,23.258,23.314,22.064,23.314L22.064,23.314z M9.077,21.185c5.912,0,10.704,5.615,10.806,12.583
		C13.763,32.731,9.077,27.502,9.077,21.185L9.077,21.185z M24.246,33.767c0.1-6.968,4.887-12.583,10.799-12.583
		C35.045,27.502,30.365,32.731,24.246,33.767L24.246,33.767z"/>
</g>
<g display="none">
	<path display="inline" d="M33.492,18.092l0.164-0.665c0.055-0.109,0.11-0.219,0.219-0.219c0.11-0.055,0.281,0,0.391,0.11
		l4.679,1.89l-5.014-0.664C33.608,18.537,33.437,18.311,33.492,18.092L33.492,18.092z M34.218,14.866l4.96,3.836l-3.788-4.96
		c-0.165-0.281-0.336-0.39-0.5-0.39c-0.11,0-0.165,0.055-0.281,0.109l-0.61,0.61C33.773,14.311,33.882,14.585,34.218,14.866
		L34.218,14.866z M44.02,14.256h-1.28c-0.555,0-0.946,0.445-0.946,0.945v16.543c0,0.555,0.446,0.945,0.946,0.945h1.281
		c0.555,0,0.946-0.445,0.946-0.945V15.201C44.966,14.633,44.52,14.256,44.02,14.256L44.02,14.256z M37.451,12.352
		c-0.055,0-0.11,0-0.164,0.055l-0.61,0.335c-0.219,0.11-0.219,0.39,0.055,0.665l3.069,4.014l-1.952-4.679
		C37.732,12.523,37.616,12.352,37.451,12.352L37.451,12.352z M39.787,23.326v4.459c0,1.055-0.836,1.5-1.726,1.5h-3.788
		c-0.164,1.891-1.671,3.391-3.624,3.391c-1.952,0-3.569-1.5-3.678-3.391H13.839c-0.109,1.891-1.726,3.391-3.623,3.391
		s-3.514-1.5-3.624-3.391H4.653c-1.391,0-1.61-0.609-1.61-1.5v-4.288c0-0.726,0.055-1.281,0.445-2.055l3.781-7.515
		c0.445-0.89,1.61-1.671,2.672-1.671l14.584,0.055c1,0,2,0.61,2.617,1.671l3.514,5.514l6.96,1.5
		C39.397,21.27,39.732,22.435,39.787,23.326L39.787,23.326z M12.229,29.059c0-1.055-0.891-1.945-1.946-1.945
		c-1.109,0-1.945,0.891-1.945,1.945c0,1.055,0.89,1.946,1.945,1.946C11.339,31.004,12.229,30.121,12.229,29.059L12.229,29.059z
		 M16.127,14.366h-5.35c-0.836,0.055-1.226,0.39-1.671,1.336L7.38,19.49h8.741v-5.124C16.121,14.366,16.127,14.366,16.127,14.366z
		 M27.71,19.482l-2.281-3.788c-0.446-0.726-1.11-1.336-2.055-1.336H18.47v5.124H27.71z M32.601,29.059
		c0-1.055-0.89-1.945-1.945-1.945s-1.945,0.891-1.945,1.945c0,1.055,0.89,1.946,1.945,1.946
		C31.772,31.011,32.601,30.121,32.601,29.059L32.601,29.059z"/>
</g>
<g display="none">
	<path display="inline" fill="#050505" d="M25.981,25.536v10.909c0,0.713-0.522,1.241-1.171,1.241h-4.252
		c-0.713,0-1.241-0.586-1.241-1.241V25.536c-2.934-1.241-4.964-4.182-4.964-7.58c0-2.743,1.241-5.155,3.265-6.664
		c0,0,0,6.403,0.064,6.403l4.118,4.118c0.458,0.458,1.241,0.458,1.699,0l4.118-4.118v-6.396c2.03,1.572,3.329,3.92,3.329,6.664
		C30.945,21.367,28.928,24.237,25.981,25.536L25.981,25.536z M41.995,24.301v12.284c0,0.522-0.395,0.98-0.917,0.98h-4.837
		c-0.522,0-0.916-0.458-0.916-0.98V33.51h-8.357v-7.447c2.158-1.171,3.851-3.138,4.57-5.486h5.092l-4.112-8.63
		c-0.853-1.699-1.572-2.094-3.329-2.094H15.861c-1.763,0-2.412,0.395-3.265,2.094l-4.118,8.63h5.092
		c0.713,2.348,2.412,4.315,4.57,5.486v7.453H9.777v3.074c0,0.522-0.395,0.98-0.916,0.98H4.023c-0.522,0-0.98-0.458-0.98-0.98V24.3
		c0-1.107,0.191-2.03,0.777-3.265L9.853,8.491c0.713-1.438,2.552-2.679,4.181-2.679h16.981c1.636,0,3.456,1.171,4.181,2.679
		l6.008,12.545C41.791,22.207,41.995,23.124,41.995,24.301L41.995,24.301z M6.385,26.98c0,1.7,1.375,3.011,3.01,3.011
		c1.636,0,3.01-1.305,3.01-3.011c0-1.705-1.305-3.074-3.01-3.074C7.689,23.906,6.385,25.281,6.385,26.98L6.385,26.98z M38.857,26.98
		c0-1.699-1.375-3.074-3.074-3.074s-3.01,1.375-3.01,3.074c0,1.7,1.305,3.011,3.01,3.011C37.488,29.991,38.857,28.673,38.857,26.98
		L38.857,26.98z"/>
</g>
<g display="none">
	<path display="inline" d="M26.854,18.982c1.759,0,3.19,1.375,3.19,3.064s-1.431,3.064-3.19,3.064s-3.19-1.375-3.19-3.064
		C23.664,20.356,25.095,18.982,26.854,18.982L26.854,18.982z M26.854,23.432c0.798,0,1.444-0.623,1.444-1.389
		s-0.649-1.39-1.444-1.39c-0.798,0-1.447,0.624-1.447,1.39C25.407,22.809,26.057,23.432,26.854,23.432L26.854,23.432z"/>
	<path display="inline" d="M10.504,18.982c1.759,0,3.19,1.375,3.19,3.064s-1.431,3.064-3.19,3.064s-3.19-1.375-3.19-3.064
		C7.314,20.356,8.745,18.982,10.504,18.982L10.504,18.982z M9.058,22.046c0,0.766,0.649,1.389,1.447,1.389
		c0.798,0,1.447-0.623,1.447-1.389s-0.649-1.389-1.447-1.389C9.707,20.656,9.058,21.28,9.058,22.046L9.058,22.046z"/>
	<path display="inline" d="M4.863,18.919h0.393l0.006-7.761c0-0.451,0.38-0.816,0.85-0.816h15.657c0.272,0,0.532,0.128,0.693,0.341
		l3.144,4.216l5.23-0.012c0.47,0,0.85,0.365,0.85,0.816v3.212l0.621-0.006h0.009c0.47,0,0.85,0.365,0.85,0.816v0.891
		c0,0.445-0.377,0.814-0.841,0.816h-1.409c0,0-0.068-0.324-0.118-0.484c-0.046-0.157-0.105-0.312-0.173-0.463
		s-0.145-0.297-0.232-0.437c-0.086-0.143-0.182-0.276-0.284-0.407c-0.105-0.131-0.216-0.255-0.337-0.371
		c-0.08-0.08-0.167-0.154-0.253-0.226c-0.742-0.609-1.688-0.944-2.662-0.944c-0.977,0-1.923,0.335-2.665,0.944
		c-0.733,0.603-1.224,1.434-1.385,2.342l-0.009,0.062H14.56l-0.012-0.062c-0.158-0.908-0.649-1.74-1.385-2.342
		c-0.742-0.609-1.688-0.944-2.665-0.944s-1.923,0.335-2.665,0.944c-0.733,0.603-1.224,1.434-1.382,2.342l-0.009,0.062H4.86
		c-0.47,0-0.85-0.365-0.85-0.816v-0.897C4.013,19.285,4.393,18.919,4.863,18.919L4.863,18.919z M19.281,14.974h3.765
		c0.377,0,0.597-0.41,0.377-0.704l-1.74-2.345c-0.145-0.196-0.38-0.312-0.631-0.312h-1.777c-0.427,0-0.773,0.333-0.773,0.742v1.876
		C18.508,14.641,18.854,14.974,19.281,14.974L19.281,14.974z M16.316,12.358c0-0.178-0.071-0.347-0.204-0.472
		c-0.13-0.125-0.306-0.196-0.491-0.196H7.707c-0.186,0-0.362,0.068-0.492,0.196s-0.204,0.294-0.204,0.472v1.876
		c0,0.368,0.312,0.668,0.696,0.668h7.914c0.383,0,0.696-0.3,0.696-0.668L16.316,12.358L16.316,12.358z"/>
	<path display="inline" d="M20.041,7.35c0.597,0,1.082,0.466,1.082,1.039s-0.485,1.039-1.082,1.039H6.996
		c-0.597,0-1.082-0.466-1.082-1.039S6.399,7.35,6.996,7.35H20.041z"/>
</g>
<g display="none">
	<g display="inline">
		<g>
			<g>
				<defs>
					<rect id="SVGID_5_" x="19.246" y="25.51" width="22.669" height="14.029"/>
				</defs>
				<clipPath id="SVGID_6_">
					<use xlink:href="#SVGID_5_"  overflow="visible"/>
				</clipPath>
				<path clip-path="url(#SVGID_6_)" d="M41.503,27.926c-0.202-1.738-4.94-0.655-4.94-0.655l-0.476,1.634l-3.373,0.576
					c-0.436-0.797-0.931-1.485-1.471-1.883c-2.107-1.55-5.652,1.255-5.652,1.255s3.668-4.486,1.005-3.063
					c-8.419,4.959-5.044,5.789-5.044,5.789h2.368l-0.378,0.7c-0.375-0.189-0.79-0.296-1.228-0.296c-1.695,0-3.069,1.576-3.069,3.524
					c0,1.943,1.374,3.522,3.069,3.522s3.069-1.579,3.069-3.522c0-1.094-0.432-2.067-1.111-2.715l0.323-0.603l1.328,4.187h8.903
					c0.338,1.525,1.538,2.653,2.971,2.653c1.695,0,3.069-1.576,3.069-3.522s-1.372-3.524-3.066-3.524
					c-1.552,0-2.828,1.32-3.036,3.031h-0.031c0,0-0.267-1.133-0.747-2.535C35.582,31.867,41.677,29.436,41.503,27.926L41.503,27.926
					z M22.317,37.721c-1.066,0-1.929-0.994-1.929-2.215s0.866-2.217,1.929-2.217c0.217,0,0.426,0.045,0.621,0.122l-0.986,1.836
					l0.727,0.515l0.987-1.838c0.356,0.401,0.58,0.962,0.58,1.582C24.247,36.727,23.379,37.721,22.317,37.721L22.317,37.721z
					 M26.155,35.833l-1.129-3.911l0.458-0.175l1.128,3.911L26.155,35.833z M37.801,33.289c1.063,0,1.929,0.997,1.929,2.217
					c-0.002,1.221-0.866,2.215-1.929,2.215c-0.797,0-1.482-0.556-1.776-1.346h2.342v-1.363h-2.448
					C36.116,34.027,36.882,33.289,37.801,33.289L37.801,33.289z"/>
			</g>
		</g>
	</g>
</g>
<g display="none">
	<g display="inline">
		<g>
			<g>
				<defs>
					<rect id="SVGID_7_" x="3.043" y="4.206" width="38.827" height="35.929"/>
				</defs>
				<clipPath id="SVGID_8_">
					<use xlink:href="#SVGID_7_"  overflow="visible"/>
				</clipPath>
				<path clip-path="url(#SVGID_8_)" d="M34.793,27.794l-5.584-6.015c-0.625-0.674-0.537-1.678,0.194-2.246l5.996-4.668
					c0.731-0.569,1.637-0.969,2.021-0.888c0.389,0.081,1.242-0.368,1.907-1.004l1.344-1.278c0.667-0.635,0.766-1.653,0.221-2.27
					c-0.549-0.618-1.641-0.73-2.444-0.253l-1.618,0.966c-0.803,0.477-1.458,1.137-1.458,1.47s-0.591,1.067-1.322,1.64l-6.079,4.745
					c-0.731,0.569-1.827,0.488-2.452-0.182l-1.808-1.948c-0.625-0.674-0.727-1.734-0.286-2.401c0.442-0.67,1.192-1.878,1.196-2.762
					c0-1.06-0.537-2.59-2.825-4.31c-2.497-1.881-4.724-2.225-6.167-2.18c-0.959,0.031-1.207,0.836-0.597,1.516l3.049,3.404
					c0.609,0.685,0.59,1.773-0.046,2.436l-0.065,0.071c-0.632,0.659-1.808,1.572-2.626,2.035l-0.03,0.014
					c-0.819,0.463-1.995,0.298-2.626-0.362l-3.171-3.309C8.883,9.351,7.98,9.453,7.798,10.32c-0.225,1.053-0.255,2.615,0.594,4.527
					c0.362,0.814,1.142,2.064,1.747,2.748c1.166,1.327,2.311,1.801,3.198,1.931c0.944,0.137,2.304-0.341,3.019-0.607
					c0.719-0.27,1.774,0.035,2.376,0.723l1.8,2.06c0.601,0.687,0.724,1.53,0.275,1.88c-0.453,0.355-1.314,0.088-1.927-0.593
					l-0.08-0.091c-0.613-0.677-1.302-1.228-1.542-1.228s-0.415,0.715-0.392,1.597l0.011,0.499c0.023,0.881-0.711,1.466-1.644,1.309
					c-0.929-0.162-2.284,0.164-3.027,0.726l-7.823,5.917c-0.739,0.562-1.34,1.502-1.34,2.106c0,0.6,0.483,1.646,1.085,2.337
					l1.493,1.72c0.597,0.692,1.602,1.31,2.238,1.384c0.64,0.074,1.755-0.327,2.49-0.889l7.839-6.019
					c0.739-0.565,1.363-1.738,1.401-2.622l0.011-0.2c0.034-0.884,0.823-1.442,1.759-1.249l0.084,0.013
					c0.937,0.193,1.694,0.141,1.694-0.119c0-0.257-0.392-0.898-0.875-1.436c-0.483-0.537-0.515-1.253-0.069-1.597
					c0.445-0.348,1.295-0.071,1.897,0.617l5.219,5.967c0.601,0.687,1.028,1.484,0.994,1.786c-0.023,0.179-0.034,0.361-0.034,0.547
					c0,2.798,2.459,5.065,5.493,5.065c3.031,0,5.49-2.267,5.49-5.065c0-2.193-1.512-4.06-3.631-4.758
					C36.72,29.005,35.418,28.464,34.793,27.794L34.793,27.794z M35.76,36.796c-1.636,0-2.966-1.221-2.966-2.73
					s1.329-2.734,2.966-2.734s2.962,1.225,2.962,2.734C38.721,35.575,37.397,36.796,35.76,36.796L35.76,36.796z"/>
			</g>
		</g>
	</g>
</g>
<g>
	<g>
		<g>
			<g>
				<defs>
					<rect id="SVGID_9_" x="3.043" y="4.162" width="38.901" height="35.005"/>
				</defs>
				<clipPath id="SVGID_10_">
					<use xlink:href="#SVGID_9_"  overflow="visible"/>
				</clipPath>
				<path clip-path="url(#SVGID_10_)" fill="#03769E" d="M36.948,20.365c-0.902-2.082-2.611-3.14-5.077-3.14h-2.962
					c0.5-1.068,1.058-2.622,1.058-4.491c0-0.516-0.043-1.044-0.145-1.59c-0.387-2.171-1.952-3.328-4.181-3.097
					c-0.883,0.095-1.183,0.89-1.915,2.814c-0.608,1.597-1.441,3.779-2.643,5.535c-0.89,1.288-2.467,2.309-3.787,2.938v-0.161h-9.76
					V32.91h9.76v-0.754c1.534-0.071,2.411-0.029,2.617,0.03l1.74,0.962l1.308,0.77c1.265,0.647,6.811,0.712,9.19,0.38
					c3.063-0.426,3.8-2.8,3.832-2.901C36.22,30.606,38.325,23.538,36.948,20.365L36.948,20.365z M34.137,30.896
					c-0.012,0.047-0.463,1.354-2.26,1.597c-2.561,0.362-7.307,0.143-8.009-0.178c0,0.006-1.157-0.688-1.157-0.688l-2.197-1.169
					c-0.508-0.159-1.661-0.178-3.218-0.112v-9.049c1.571-0.606,4.006-1.899,5.396-3.91c1.327-1.936,2.204-4.231,2.842-5.911
					c0,0,0.558-1.329,0.695-1.637c0.971,0.006,1.508,0.51,1.708,1.608c0.082,0.433,0.114,0.86,0.114,1.269
					c0,2.724-1.478,4.89-1.504,4.92l-0.969,1.407h6.292c1.676,0,2.697,0.623,3.305,2.018C36.127,23.248,34.745,28.903,34.137,30.896
					L34.137,30.896z"/>
			</g>
		</g>
	</g>
</g>
<g display="none">
	<path display="inline" d="M-629.199,114.4c-7.071,0-12.801,5.73-12.801,12.801c0,7.066,5.73,12.801,12.801,12.801
		c7.066,0,12.801-5.735,12.801-12.801C-616.398,120.13-622.133,114.4-629.199,114.4L-629.199,114.4z M-629.199,117.599
		c4.164,0,7.683,2.684,9.011,6.403h-18.023C-636.883,120.283-633.367,117.599-629.199,117.599L-629.199,117.599z M-629.199,128.798
		c-0.887,0-1.602-0.714-1.602-1.597c0-0.887,0.715-1.602,1.602-1.602c0.883,0,1.597,0.715,1.597,1.602
		C-627.602,128.084-628.316,128.798-629.199,128.798L-629.199,128.798z M-638.801,127.201c4.371,0,7.914,4.211,7.989,9.437
		C-635.336,135.861-638.801,131.939-638.801,127.201L-638.801,127.201z M-627.586,136.638c0.074-5.226,3.613-9.437,7.984-9.437
		C-619.602,131.939-623.062,135.861-627.586,136.638L-627.586,136.638z"/>
</g>
<g display="none">
	<path display="inline" d="M-858.996,119.758h-29.031c-4.496,0-9.926,2.957-12.364,6.735l-21.32,33.039
		c-1.918,2.969-6.469,6.031-9.941,6.687l-25.993,4.907c-4.582,0.863-8.308,5.359-8.308,10.019v32.57c0,4.805,3.91,8.715,8.719,8.715
		h21.351c2.953,10.137,12.324,17.571,23.403,17.571c11.078,0,20.449-7.434,23.402-17.571h30.082c4.805,0,8.715-3.91,8.715-8.715
		v-85.242C-850.281,123.669-854.191,119.758-858.996,119.758L-858.996,119.758z M-912.48,227.735c-6.688,0-12.11-5.422-12.11-12.109
		c0-6.688,5.422-12.106,12.11-12.106c6.683,0,12.105,5.418,12.105,12.106C-900.375,222.313-905.797,227.735-912.48,227.735
		L-912.48,227.735z M-859.254,160.739c0,3.183-2.605,5.789-5.789,5.789h-39.434c-3.183,0-4.433-2.223-2.773-4.941l15.445-25.301
		c1.66-2.719,5.625-4.942,8.809-4.942h17.953c3.188,0,5.789,2.606,5.789,5.789V160.739z"/>
	<path display="inline" d="M-986.633,171.126l-25.996-4.907c-3.473-0.656-8.023-3.718-9.941-6.687l-21.321-33.039
		c-2.437-3.778-7.867-6.735-12.363-6.735h-29.027c-4.809,0-8.719,3.911-8.719,8.715v85.242c0,4.805,3.91,8.715,8.719,8.715h30.082
		c2.953,10.137,12.32,17.571,23.398,17.571s20.449-7.434,23.403-17.571h21.355c4.805,0,8.715-3.91,8.715-8.715v-32.57
		C-978.328,176.485-982.055,171.989-986.633,171.126L-986.633,171.126z M-1079.238,166.528c-3.188,0-5.793-2.606-5.793-5.789
		v-23.602c0-3.187,2.605-5.793,5.793-5.793h17.953c3.183,0,7.148,2.227,8.808,4.946l15.446,25.297
		c1.66,2.718,0.41,4.945-2.774,4.945h-39.433V166.528z M-1031.801,227.735c-6.683,0-12.105-5.422-12.105-12.109
		c0-6.688,5.418-12.106,12.105-12.106c6.688,0,12.11,5.418,12.11,12.106C-1019.691,222.313-1025.113,227.735-1031.801,227.735
		L-1031.801,227.735z"/>
	<path display="inline" d="M-987.066,164.837c0.039,0,0.074,0.003,0.113,0.003c1.851,0,3.379-1.472,3.437-3.336l0.594-18.605
		c0.063-1.902-1.43-3.488-3.332-3.551c-0.035,0-0.074,0-0.109,0c-1.852,0-3.383,1.469-3.442,3.332l-0.593,18.606
		C-990.457,163.188-988.965,164.778-987.066,164.837L-987.066,164.837z"/>
	<path display="inline" d="M-967.895,142.555c-1.695-0.851-3.765-0.168-4.617,1.532l-7.906,15.765
		c-0.855,1.699-0.168,3.77,1.531,4.621c0.496,0.25,1.024,0.367,1.543,0.367c1.262,0,2.477-0.695,3.078-1.902l7.907-15.766
		C-965.508,145.473-966.191,143.407-967.895,142.555L-967.895,142.555z"/>
	<path display="inline" d="M-954.512,157.587c-1.125-1.536-3.277-1.868-4.812-0.743l-13.199,9.668
		c-1.536,1.121-1.868,3.278-0.743,4.809c0.676,0.922,1.719,1.41,2.782,1.41c0.707,0,1.418-0.215,2.031-0.664l13.195-9.668
		C-953.723,161.274-953.391,159.118-954.512,157.587L-954.512,157.587z"/>
</g>
<g display="none">
	<g display="inline">
		<g>
			<g>
				<defs>
					<rect id="SVGID_11_" x="-898" y="-51.029" width="39.84" height="39.989"/>
				</defs>
				<clipPath id="SVGID_12_">
					<use xlink:href="#SVGID_11_"  overflow="visible"/>
				</clipPath>
				<path clip-path="url(#SVGID_12_)" d="M-865.422-24.775l-5.73-6.695c-0.641-0.75-0.551-1.868,0.199-2.5l6.152-5.196
					c0.75-0.633,1.68-1.078,2.074-0.988c0.399,0.09,1.274-0.41,1.957-1.117l1.379-1.422c0.684-0.707,0.786-1.84,0.227-2.527
					c-0.563-0.688-1.684-0.813-2.508-0.282l-1.66,1.075c-0.824,0.531-1.496,1.265-1.496,1.636c0,0.371-0.606,1.188-1.356,1.825
					l-6.238,5.281c-0.75,0.633-1.875,0.543-2.516-0.203l-1.855-2.168c-0.641-0.75-0.746-1.93-0.293-2.672
					c0.453-0.746,1.223-2.09,1.227-3.074c0-1.18-0.551-2.883-2.899-4.797c-2.562-2.094-4.847-2.477-6.328-2.426
					c-0.984,0.035-1.238,0.93-0.613,1.687l3.129,3.789c0.625,0.762,0.605,1.973-0.047,2.711l-0.067,0.079
					c-0.648,0.734-1.855,1.75-2.695,2.265l-0.031,0.016c-0.84,0.515-2.047,0.332-2.695-0.403l-3.254-3.683
					c-0.649-0.738-1.575-0.625-1.762,0.34c-0.231,1.172-0.262,2.91,0.609,5.039c0.371,0.906,1.172,2.297,1.793,3.058
					c1.196,1.477,2.371,2.004,3.281,2.149c0.969,0.152,2.364-0.379,3.098-0.676c0.738-0.301,1.82,0.039,2.438,0.805l1.847,2.293
					c0.617,0.765,0.743,1.703,0.282,2.093c-0.465,0.395-1.348,0.098-1.977-0.66l-0.082-0.101c-0.629-0.754-1.336-1.367-1.582-1.367
					s-0.426,0.796-0.402,1.777l0.011,0.555c0.024,0.98-0.73,1.632-1.687,1.457c-0.953-0.18-2.344,0.183-3.106,0.808l-8.027,6.586
					c-0.758,0.625-1.375,1.672-1.375,2.344c0,0.668,0.496,1.832,1.113,2.601l1.532,1.914c0.613,0.77,1.644,1.458,2.296,1.54
					c0.657,0.082,1.801-0.364,2.555-0.989l8.043-6.699c0.758-0.629,1.399-1.934,1.438-2.918l0.011-0.223
					c0.035-0.984,0.844-1.605,1.805-1.39l0.086,0.015c0.961,0.215,1.738,0.157,1.738-0.132c0-0.286-0.402-1-0.898-1.598
					c-0.496-0.598-0.528-1.395-0.071-1.777c0.457-0.387,1.329-0.079,1.946,0.687l5.355,6.641c0.617,0.765,1.055,1.652,1.02,1.988
					c-0.024,0.199-0.035,0.402-0.035,0.609c0,3.114,2.523,5.637,5.636,5.637c3.11,0,5.633-2.523,5.633-5.637
					c0-2.441-1.551-4.519-3.726-5.296C-863.445-23.427-864.781-24.029-865.422-24.775L-865.422-24.775z M-864.43-14.756
					c-1.679,0-3.043-1.359-3.043-3.039c0-1.679,1.364-3.043,3.043-3.043c1.68,0,3.039,1.364,3.039,3.043
					C-861.391-16.115-862.75-14.756-864.43-14.756L-864.43-14.756z"/>
			</g>
		</g>
	</g>
</g>
<g display="none">
	<path display="inline" fill="#B6A0CE" d="M29.344,21.69c-0.003-0.025-0.003-0.05-0.007-0.075c-0.022-0.942-0.19-1.705-0.962-2.019
		c-0.813-0.33-1.531-0.337-2.056-0.137c-0.032,0.013-0.123,0.127-0.159,0.147c-0.035,0.021-0.219-0.038-0.286-0.022
		c-1.156,0.159-1.538,1.207-1.453,2.022c0.277,0.464,0.365,1.049,0.391,1.656c0.429,0.721,1.169,1.275,2.046,1.275
		c1.179,0,2.109-0.955,2.398-1.998c0.11-0.012,0.204-0.094,0.213-0.204l0.035-0.411C29.515,21.817,29.444,21.724,29.344,21.69
		L29.344,21.69z M26.857,24.22c-1.214,0-2.121-1.239-2.121-2.35c0-0.049,0.003-0.102,0.006-0.152c0.508-0.18,1.48-0.551,1.585-0.746
		c0.44,0.442,2.002,0.69,2.687,0.771c0.003,0.043,0.01,0.088,0.01,0.127C29.02,22.957,28.075,24.22,26.857,24.22L26.857,24.22z"/>
	<path display="inline" fill="#B6A0CE" d="M13.708,21.913l0.039,0.414c0.01,0.115,0.11,0.199,0.226,0.205
		c0.284,1.042,1.201,2.004,2.361,2.004c0.91,0,1.668-0.573,2.105-1.312c-0.01-0.52,0.133-1.052,0.439-1.491
		c-0.02-0.016-0.035-0.034-0.058-0.043c0-0.025-0.003-0.05-0.003-0.071c-0.023-0.943-0.194-1.706-0.962-2.019
		c-0.814-0.333-1.531-0.337-2.057-0.14c-0.035,0.013-0.123,0.127-0.158,0.149c-0.035,0.018-0.22-0.041-0.291-0.025
		c-1.152,0.159-1.533,1.207-1.449,2.026c-0.002,0.022-0.002,0.047-0.006,0.068C13.779,21.703,13.698,21.802,13.708,21.913
		L13.708,21.913z M14.217,21.718c0.507-0.18,1.479-0.551,1.585-0.746c0.439,0.442,2.002,0.69,2.687,0.771
		c0.003,0.043,0.01,0.088,0.01,0.127c0,1.087-0.947,2.35-2.166,2.35c-1.214,0-2.122-1.239-2.122-2.35
		C14.211,21.821,14.214,21.768,14.217,21.718L14.217,21.718z"/>
	<path display="inline" fill="#B6A0CE" d="M19.913,14.487c0.171,0.634,0.727,1.22,1.433,1.22c0.717,0,1.282-0.581,1.459-1.216
		c0.067-0.007,0.123-0.056,0.129-0.124l0.022-0.25c0.007-0.066-0.039-0.121-0.1-0.144c0-0.012,0-0.028-0.003-0.043
		c-0.012-0.573-0.116-1.036-0.584-1.229c-0.493-0.202-0.93-0.205-1.249-0.085c-0.023,0.01-0.077,0.078-0.098,0.091
		c-0.022,0.012-0.136-0.022-0.177-0.013c-0.701,0.096-0.933,0.731-0.882,1.229c0,0.015-0.003,0.028-0.003,0.044
		c-0.067,0.015-0.116,0.074-0.11,0.143l0.023,0.253C19.781,14.435,19.839,14.484,19.913,14.487L19.913,14.487z M20.061,13.993
		c0.308-0.109,0.898-0.337,0.962-0.457c0.268,0.27,1.217,0.423,1.637,0.472c0,0.025,0.003,0.05,0.003,0.078
		c0,0.659-0.575,1.428-1.318,1.428c-0.739,0-1.291-0.756-1.291-1.428C20.055,14.055,20.059,14.023,20.061,13.993L20.061,13.993z"/>
	<path display="inline" fill="#B6A0CE" d="M16.704,14.44c-0.975,0.134-1.298,1.021-1.226,1.711c0,0.018-0.003,0.038-0.003,0.056
		c-0.098,0.021-0.162,0.106-0.156,0.202l0.032,0.349c0.01,0.096,0.093,0.167,0.191,0.171c0.242,0.884,1.013,1.696,1.995,1.696
		c0.994,0,1.779-0.808,2.024-1.689c0.093-0.01,0.171-0.077,0.181-0.172l0.029-0.348c0.01-0.09-0.052-0.168-0.136-0.196
		c-0.003-0.022-0.003-0.044-0.003-0.062c-0.02-0.796-0.165-1.44-0.813-1.709c-0.688-0.28-1.292-0.282-1.738-0.115
		c-0.029,0.009-0.103,0.105-0.133,0.124C16.917,14.478,16.761,14.428,16.704,14.44L16.704,14.44z M17.088,15.611
		c0.371,0.373,1.692,0.584,2.27,0.657c0.003,0.034,0.007,0.068,0.007,0.106c0,0.918-0.798,1.985-1.827,1.985
		c-1.026,0-1.792-1.048-1.792-1.985c0-0.044,0.003-0.087,0.007-0.131C16.177,16.093,16.997,15.778,17.088,15.611L17.088,15.611z"/>
	<path display="inline" fill="#B6A0CE" d="M23.181,16.932c0.239,0.881,1.013,1.692,1.992,1.692c0.994,0,1.782-0.808,2.027-1.686
		c0.064-0.01,0.11-0.049,0.142-0.099l0.049-0.007c0.012,0,0.032-0.009,0.032-0.028l0.032-0.345c0-0.025-0.023-0.034-0.026-0.034
		l-0.019-0.007c0.007-0.091-0.051-0.168-0.139-0.199c0-0.019,0-0.04-0.003-0.062c-0.019-0.796-0.161-1.438-0.813-1.706
		c-0.687-0.281-1.292-0.283-1.738-0.118c-0.029,0.012-0.104,0.108-0.133,0.127c-0.029,0.015-0.187-0.034-0.245-0.019
		c-0.975,0.134-1.295,1.018-1.223,1.709c-0.003,0.018-0.003,0.041-0.007,0.059c-0.093,0.021-0.161,0.106-0.152,0.199l0.03,0.349
		C22.996,16.855,23.08,16.926,23.181,16.932L23.181,16.932z M23.387,16.242c0.426-0.149,1.249-0.464,1.337-0.632
		c0.374,0.373,1.692,0.584,2.273,0.657c0,0.034,0.003,0.068,0.003,0.106c0,0.918-0.798,1.985-1.827,1.985
		c-1.026,0-1.792-1.048-1.792-1.985C23.381,16.329,23.384,16.285,23.387,16.242L23.387,16.242z"/>
	<path display="inline" fill="#B6A0CE" d="M19.697,17.066c-0.117,0.355-0.327,0.707-0.601,1.002h2.244v-0.003l2.296-0.003
		c-0.271-0.292-0.475-0.64-0.588-0.999c-0.123-0.046-0.213-0.158-0.223-0.292l-0.032-0.345c-0.012-0.131,0.052-0.25,0.156-0.318
		c-0.01-0.124-0.003-0.249,0.009-0.377c-0.136-0.131-0.29-0.227-0.477-0.252c-0.039-0.007-0.074,0.003-0.1,0.013l-0.591,0.771
		l-0.449-0.345h-0.003v0.003l-0.449,0.345l-0.59-0.771c-0.023-0.01-0.058-0.019-0.098-0.013c-0.168,0.025-0.31,0.103-0.435,0.214
		c0.016,0.144,0.026,0.286,0.032,0.427c0.096,0.071,0.152,0.186,0.139,0.308l-0.029,0.346
		C19.893,16.908,19.813,17.013,19.697,17.066L19.697,17.066z"/>
	<path display="inline" fill="#B6A0CE" d="M29.211,22.82c-0.174,0.426-0.462,0.824-0.823,1.12
		C28.756,23.64,29.043,23.242,29.211,22.82L29.211,22.82z"/>
	<path display="inline" fill="#B6A0CE" d="M15.535,19.44c0.013,0,0.026,0.003,0.035,0.007c0.003-0.007,0.01-0.01,0.012-0.016
		c0.062-0.062,0.1-0.103,0.152-0.121c0.297-0.112,0.633-0.156,0.991-0.137l-0.645-0.84c-0.035-0.015-0.084-0.025-0.136-0.018
		c-0.607,0.084-0.988,0.65-1.23,1.306c0.178-0.09,0.375-0.162,0.61-0.196l0.051-0.003C15.421,19.422,15.48,19.431,15.535,19.44
		L15.535,19.44z"/>
	<path display="inline" fill="#B6A0CE" d="M18.372,23.852l0.045,0.506c0.013,0.144,0.136,0.246,0.281,0.253
		c0.349,1.285,1.475,2.47,2.903,2.47c1.449,0,2.595-1.179,2.951-2.461c0.139-0.016,0.249-0.116,0.261-0.253l0.045-0.504
		c0.013-0.134-0.074-0.245-0.197-0.289c-0.003-0.028-0.003-0.059-0.007-0.09c-0.029-1.161-0.239-2.097-1.185-2.486
		c-1.001-0.408-1.886-0.414-2.531-0.172c-0.042,0.015-0.152,0.158-0.193,0.183c-0.045,0.025-0.272-0.046-0.356-0.028
		c-1.421,0.196-1.889,1.484-1.785,2.492c-0.003,0.028-0.007,0.056-0.01,0.085C18.46,23.591,18.36,23.712,18.372,23.852
		L18.372,23.852z M18.999,23.609c0.623-0.221,1.817-0.678,1.951-0.921c0.542,0.544,2.463,0.849,3.306,0.952
		c0.003,0.053,0.009,0.106,0.009,0.158c0,1.335-1.165,2.887-2.663,2.887c-1.496,0-2.612-1.524-2.612-2.887
		C18.99,23.734,18.996,23.672,18.999,23.609L18.999,23.609z"/>
	<path display="inline" fill="#B6A0CE" d="M18.15,19.397l-0.623-0.479l-0.003,0.003v0.003l-0.4,0.305
		c0.261,0.047,0.523,0.112,0.791,0.224c0.888,0.361,1.04,1.273,1.062,2.125c0.314-0.379,0.765-0.666,1.389-0.753l0.061-0.003
		c0.051,0,0.123,0.01,0.187,0.021c0.01,0,0.023,0.003,0.032,0.007c-0.161-1.01-0.561-2.408-1.54-2.539
		c-0.051-0.01-0.104,0.003-0.136,0.015L18.15,19.397z"/>
	<path display="inline" fill="#B6A0CE" d="M26.745,18.311c-0.051-0.01-0.104,0.003-0.136,0.015l-0.82,1.07l-0.623-0.479
		l-0.003,0.003v0.003H25.16l-0.623,0.479l-0.82-1.07c-0.032-0.013-0.083-0.025-0.133-0.015c-0.874,0.118-1.288,1.241-1.482,2.199
		c0.458,0.025,0.943,0.137,1.434,0.337c0.304,0.124,0.536,0.302,0.714,0.517c-0.003-0.856,0.468-1.787,1.598-1.942l0.055-0.007
		c0.045,0,0.104,0.01,0.158,0.019c0.013,0.003,0.026,0.007,0.035,0.007c0.003-0.003,0.01-0.01,0.016-0.016
		c0.058-0.062,0.096-0.099,0.148-0.121c0.452-0.168,0.995-0.184,1.563-0.053C27.581,18.762,27.235,18.377,26.745,18.311
		L26.745,18.311z"/>
	<path display="inline" fill="#B6A0CE" d="M21.589,31.848l4.705-0.003c0,0-0.142-4.919-2.403-5.224
		c-0.074-0.012-0.148,0.003-0.197,0.022L22.5,28.201l-0.908-0.697l-0.007,0.003v0.006v-0.002l-0.91,0.699l-1.195-1.562
		c-0.048-0.018-0.123-0.034-0.197-0.021c-2.259,0.305-2.402,5.224-2.402,5.224l4.707,0.003v-0.006H21.589z"/>
	<path display="inline" fill="#B6A0CE" d="M26.847,28.413l3.822-0.003c0,0-0.116-3.995-1.953-4.247
		c-0.061-0.009-0.119,0.003-0.161,0.019l-0.972,1.27l-0.737-0.57l-0.003,0.007v0.002h-0.002l-0.737,0.566l-0.972-1.269
		c-0.032-0.013-0.083-0.016-0.136-0.016l-0.019,0.212c-0.013,0.168-0.13,0.308-0.291,0.367c-0.232,0.753-0.749,1.491-1.453,1.969
		c-0.026,0.116-0.044,0.227-0.064,0.339l0.42-0.547l0.042-0.016c0.048-0.018,0.161-0.053,0.283-0.034
		c0.94,0.127,1.531,0.974,1.905,1.957h1.026L26.847,28.413L26.847,28.413z"/>
	<path display="inline" fill="#B6A0CE" d="M12.497,28.416l3.826,0.003v-0.007h1.036c0.374-0.98,0.965-1.816,1.902-1.944
		c0.113-0.016,0.232,0.015,0.281,0.034l0.041,0.015l0.413,0.535c-0.022-0.127-0.048-0.258-0.077-0.392
		c-0.652-0.479-1.134-1.188-1.353-1.913c-0.174-0.053-0.298-0.199-0.314-0.377l-0.016-0.196c-0.016-0.003-0.029-0.01-0.044-0.013
		c-0.062-0.009-0.12,0.003-0.159,0.019l-0.971,1.27l-0.74-0.57l-0.003,0.007v0.002v-0.002l-0.739,0.569l-0.972-1.269
		c-0.039-0.013-0.096-0.029-0.159-0.019C12.613,24.418,12.497,28.416,12.497,28.416L12.497,28.416z"/>
	<path display="inline" fill="#B6A0CE" d="M32.095,12.063l1.708-2.483l-6.264,0.762l1.931,5.541l1.511-2.2
		c2.435,2.246,3.958,5.397,3.958,8.898c0,6.808-5.747,12.345-12.811,12.345S9.317,29.388,9.317,22.581
		c0-5.053,3.167-9.396,7.684-11.306l-1.495-1.437c-4.841,2.346-8.172,7.174-8.172,12.743c0,7.859,6.638,14.255,14.793,14.255
		c8.159,0,14.797-6.396,14.797-14.255C36.924,18.419,35.058,14.673,32.095,12.063L32.095,12.063z"/>
</g>
<g display="none">
	<path display="inline" fill="#B6A0CE" d="M28.521,17.272c-4.128,2.42-7.102,5.48-8.31,6.838l-3.101-2.325
		c-0.085-0.056-1.784,1.388-1.739,1.432l5.646,5.496c0.04,0.044,0.099,0.065,0.163,0.065c0.009,0,0.027,0,0.04-0.005
		c0.077-0.013,0.14-0.064,0.167-0.134c0.91-2.225,3.915-6.885,7.75-10.266c0.068-0.059,0.095-0.159,0.054-0.241
		C29.192,18.13,28.58,17.237,28.521,17.272L28.521,17.272z"/>
	<path display="inline" fill="#B6A0CE" d="M32.225,12.409c-8.553,0-10-3.108-10.013-3.134c-0.062-0.154-0.215-0.254-0.391-0.259
		h-0.005c-0.172,0-0.33,0.103-0.397,0.249c-0.009,0.036-1.487,3.144-10.009,3.144c-0.239,0-0.428,0.185-0.428,0.405v13.921
		c0,5.696,10.229,10.05,10.662,10.231C21.703,36.992,21.756,37,21.82,37c0.053,0,0.117-0.008,0.17-0.034
		c0.437-0.181,10.662-4.535,10.662-10.231V12.814C32.653,12.594,32.464,12.409,32.225,12.409L32.225,12.409z M30.3,25.925
		c0,4.458-8.008,7.869-8.35,8.011c-0.04,0.021-0.09,0.025-0.135,0.025s-0.091-0.005-0.136-0.025
		c-0.334-0.142-8.345-3.553-8.345-8.011V15.03c0-0.177,0.149-0.319,0.334-0.319c6.669,0,7.827-2.436,7.841-2.458
		c0.05-0.12,0.17-0.198,0.307-0.198h0.005c0.135,0,0.256,0.082,0.305,0.202c0.014,0.022,1.145,2.454,7.841,2.454
		c0.185,0,0.334,0.143,0.334,0.319L30.3,25.925L30.3,25.925z"/>
</g>
<g display="none">
	<g display="inline">
		<path fill="#B6A0CE" d="M10.721,26.986l2.4,2.987c0.53,0.66,1.353,0.932,2.208,0.824l-2.785,2.809c0,0-0.241,0.899,1.2,1.494
			c1.442,0.595,2.904-2.628,2.904-2.628l-1.091-1.712c0.089-0.018,0.179-0.04,0.269-0.068l3.323,2.625
			c1.893,1.826,3.632,1.265,5.088-0.054l3.242-2.936l0.025-0.023l3.242-2.936c1.456-1.318,2.253-3.053,0.853-5.325l-1.917-3.898
			c0.041-0.09,0.075-0.181,0.105-0.271l1.42,1.414c0,0,3.229-1.024,2.904-2.629s-1.2-1.494-1.2-1.494l-3.052,2.476
			c0.237-0.879,0.113-1.785-0.417-2.445l-2.4-2.987c-0.597-0.744-1.564-0.994-2.533-0.767l-1.613-2.007
			c-0.546-0.679-1.777-0.515-2.752,0.368c-0.974,0.883-1.323,2.149-0.777,2.828l1.342,1.671l-3.508,3.177L17.174,17.5l-3.509,3.177
			l-1.342-1.673c-0.546-0.679-1.779-0.513-2.753,0.369c-0.975,0.883-1.323,2.148-0.777,2.827l1.613,2.007
			C10.042,25.189,10.124,26.242,10.721,26.986z M25.748,14.38l1.291,1.608l-3.185,2.885l-1.291-1.608L25.748,14.38z M23.523,25.402
			l0.025-0.023l5.846-5.294l1.496,3.196l0.023,0.044c0.445,0.782,0.183,2.097-0.548,2.76l-3.618,3.277l-0.025,0.023l-3.618,3.276
			c-0.731,0.662-1.996,0.728-2.653,0.139l-0.038-0.031l-2.736-2.072L23.523,25.402z M16.132,23.088l1.291,1.608l-3.186,2.885
			l-1.291-1.608L16.132,23.088z"/>
		<rect x="8.662" y="35.476" fill="#B6A0CE" width="29.616" height="1.917"/>
		<polygon fill="#B6A0CE" points="31.053,28.391 31.203,29.13 32.736,28.78 31.559,30.276 32.753,31.57 31.137,31.529 
			30.612,33.377 29.619,32.135 28.005,32.728 28.947,30.501 28.298,30.192 26.681,34.014 29.392,33.019 30.916,34.926 
			31.662,32.298 34.487,32.37 32.518,30.236 34.608,27.583 		"/>
	</g>
</g>
</svg>
