<?xml version="1.0" encoding="utf-8"?>
<!-- Generator: Adobe Illustrator 17.0.0, SVG Export Plug-In . SVG Version: 6.00 Build 0)  -->
<!DOCTYPE svg PUBLIC "-//W3C//DTD SVG 1.1//EN" "http://www.w3.org/Graphics/SVG/1.1/DTD/svg11.dtd">
<svg version="1.1" id="Layer_1" xmlns="http://www.w3.org/2000/svg" xmlns:xlink="http://www.w3.org/1999/xlink" x="0px" y="0px"
	 width="45px" height="45px" viewBox="0 0 45 45" enable-background="new 0 0 45 45" xml:space="preserve">
<g display="none">
	<g display="inline">
		<g>
			<g>
				<g>
					<defs>
						<rect id="SVGID_1_" x="4.815" y="3.209" width="34.945" height="36.796"/>
					</defs>
					<clipPath id="SVGID_2_">
						<use xlink:href="#SVGID_1_"  overflow="visible"/>
					</clipPath>
					<path clip-path="url(#SVGID_2_)" fill="#050505" d="M5.454,36.721l4.319,3.053c0.597,0.426,1.185,0.161,1.703-0.586
						l7.305-11.504l8.783-0.167l3.359-4.819L13.881,10.646l-3.362,4.819l2.926,8.254L5.085,34.67
						C4.564,35.416,4.857,36.299,5.454,36.721L5.454,36.721z M8.129,35.009c0.385-0.554,1.147-0.688,1.697-0.297
						c0.553,0.387,0.687,1.155,0.299,1.711c-0.387,0.554-1.147,0.688-1.699,0.298C7.875,36.331,7.742,35.566,8.129,35.009
						L8.129,35.009z"/>
				</g>
			</g>
			<g>
				<g>
					<defs>
						<rect id="SVGID_3_" x="4.815" y="3.209" width="34.945" height="36.796"/>
					</defs>
					<clipPath id="SVGID_4_">
						<use xlink:href="#SVGID_3_"  overflow="visible"/>
					</clipPath>
					<path clip-path="url(#SVGID_4_)" fill="#050505" d="M19.114,3.138l-4.487,6.435l17.045,12.052l1.166-2.605
						c-0.264-1.12-0.67-2.496-1.36-2.713l-0.33-0.102c-1.357-0.416-3.044-0.935-3.384-2.372c-0.133-0.554-0.798-0.873-1.713-1.318
						c-0.089-0.039-0.177-0.084-0.267-0.128l-0.88,0.841l0.49-1.037c-0.775-0.393-1.633-0.902-2.425-1.699
						c-0.667-0.672-0.944-1.35-0.822-2.016c0.168-0.925,1.21-1.952,1.585-2.16l-1.083-0.678l-3.02,2.982l1.646-3.955L19.114,3.138z"
						/>
				</g>
			</g>
		</g>
		<path fill="#050505" d="M36.897,17.338c0.181-1.213-0.085-2.669-0.791-4.327c-0.425-1.001-2.354-1.862-3.886-2.038
			c-1.49-0.17-3.212-0.768-3.469-1.687c-0.105-0.368-0.566-1.641-2.2-2.681c-0.387-0.247-0.737-0.365-1.07-0.365
			c-0.613,0-1.093,0.413-1.56,0.813l-0.14,0.112L23.644,7.27c-0.01,0.006-1.09,0.512-1.236,1.325
			c-0.08,0.442,0.137,0.925,0.642,1.434c0.724,0.729,1.506,1.194,2.243,1.571c0.209,0.109,0.416,0.208,0.616,0.307
			c0.016,0.007,0.028,0.012,0.045,0.019c0.998,0.483,1.859,0.9,2.062,1.757c0.258,1.072,1.745,1.53,2.942,1.894l0.337,0.106
			c0.88,0.279,1.348,1.447,1.662,2.627c0.108,0.413,0.2,0.826,0.28,1.204c0.083,0.381,0.156,0.71,0.225,0.925
			c0.233,0.732-0.079,1.558-0.407,2.435c-0.19,0.506-0.39,1.027-0.479,1.536c-0.118,0.676,0.05,1.363,0.451,1.847
			c0.401,0.477,1.008,0.733,1.751,0.733c1.204,0,1.789-0.836,1.789-2.554c0-0.65-0.42-1.735-0.791-2.695
			c-0.149-0.388-0.295-0.762-0.41-1.098c-0.277-0.807,0.216-1.331,0.652-1.793C36.399,18.441,36.796,18.023,36.897,17.338
			L36.897,17.338z"/>
	</g>
	<path display="inline" fill="#050505" d="M37.245,35.926c-0.836-0.274-1.699-0.411-2.559-0.411c-1.451,0-2.415,0.399-2.425,0.404
		c-0.672,0.199-1.083,0.527-1.083,0.845c0.003,0.317,0.411,0.639,1.045,0.822c0.526,0.15,1.417,0.237,2.447,0.237
		c1.079,0,2.116-0.093,2.58-0.237c0.609-0.187,1.129-0.589,1.132-0.878C38.386,36.612,38.307,36.276,37.245,35.926L37.245,35.926z"
		/>
</g>
<g display="none">
	<g display="inline">
		<path fill="#050505" d="M41.982,20.704c-0.181-0.655-0.858-1.039-1.514-0.86l-3.925,1.081c0.596-0.188,0.948-0.809,0.779-1.416
			l-1.468-5.312l0.757-0.207c0.002-0.002,0.006-0.002,0.006-0.002c0.623-0.172,0.988-0.814,0.818-1.436
			c-0.115-0.405-0.427-0.701-0.803-0.812l-9.41-3.682c-0.483-0.189-1.029-0.037-1.348,0.372l-2.504,3.23l-0.141-0.52
			c-0.171-0.62-0.815-0.986-1.437-0.814l-1.04,0.287c-0.621,0.172-0.985,0.815-0.811,1.436l0.82,2.982l-1.134,1.465
			c-0.309,0.397-0.328,0.948-0.048,1.365c0.278,0.417,0.796,0.608,1.281,0.475l0.755-0.209l1.47,5.308
			c0.164,0.597,0.767,0.945,1.364,0.819l-14.184,3.907c0.291-0.266,0.435-0.675,0.323-1.081l-0.214-0.778
			c1.884-0.779,2.873-2.318,2.34-4.254l-0.007-0.032c-0.529-1.913-2.007-2.368-4.394-2.336c-2.033,0.037-2.567-0.069-2.767-0.79
			l-0.01-0.032c-0.145-0.533,0.224-1.091,1.15-1.346c0.754-0.209,1.581-0.148,2.514,0.103c0.217,0.058,0.421,0.069,0.657,0.004
			c0.628-0.171,0.999-0.799,0.826-1.426c-0.131-0.471-0.491-0.729-0.801-0.81c-0.812-0.25-1.674-0.325-2.577-0.23L7.074,14.33
			c-0.16-0.58-0.754-0.918-1.335-0.758c-0.575,0.159-0.914,0.755-0.754,1.334l0.225,0.818c-1.644,0.797-2.484,2.318-2.017,4.018
			l0.01,0.032c0.601,2.182,2.198,2.401,4.566,2.355c1.965-0.033,2.429,0.176,2.599,0.788l0.009,0.031
			c0.177,0.643-0.311,1.2-1.301,1.473c-1.067,0.295-2.081,0.168-3.084-0.213c-0.185-0.069-0.434-0.115-0.75-0.031
			c-0.626,0.174-0.996,0.797-0.822,1.426c0.103,0.377,0.387,0.671,0.708,0.784c1.017,0.374,2.089,0.495,3.131,0.408l0.238,0.864
			c0.112,0.407,0.444,0.684,0.831,0.763l-4.791,1.321c-0.655,0.181-1.039,0.858-0.859,1.514c0.181,0.656,0.857,1.041,1.513,0.86
			l13.516-3.723l-4.289,4.29c-0.291,0.292-0.379,0.73-0.221,1.111c0.157,0.38,0.53,0.628,0.941,0.628l11.766-0.001
			c0.412,0,0.784-0.249,0.941-0.628c0.157-0.381,0.07-0.819-0.221-1.111l-5.289-5.289l18.788-5.174
			C41.777,22.038,42.162,21.36,41.982,20.704L41.982,20.704z M26.128,18.379l1.909-0.526c0.417-0.115,0.85,0.132,0.965,0.549
			l0.527,1.909c0.114,0.419-0.131,0.85-0.549,0.965l-1.909,0.526c-0.418,0.116-0.85-0.129-0.967-0.549l-0.524-1.908
			C25.463,18.927,25.709,18.494,26.128,18.379L26.128,18.379z M33.083,17.278l0.524,1.908c0.116,0.419-0.131,0.852-0.549,0.966
			l-1.909,0.526c-0.418,0.115-0.851-0.13-0.966-0.549l-0.526-1.909c-0.114-0.417,0.13-0.85,0.549-0.966l1.909-0.526
			C32.533,16.615,32.966,16.86,33.083,17.278L33.083,17.278z M29.099,13.239l1.909-0.526c0.418-0.115,0.85,0.13,0.966,0.548
			L32.5,15.17c0.115,0.417-0.131,0.851-0.549,0.966l-1.907,0.526c-0.418,0.115-0.851-0.13-0.965-0.549l-0.526-1.91
			C28.437,13.787,28.682,13.353,29.099,13.239L29.099,13.239z M25.021,14.362l1.909-0.525c0.418-0.115,0.851,0.13,0.966,0.548
			l0.526,1.909c0.115,0.419-0.13,0.851-0.547,0.967l-1.909,0.524c-0.419,0.115-0.852-0.13-0.967-0.548l-0.526-1.909
			C24.356,14.91,24.602,14.478,25.021,14.362L25.021,14.362z"/>
	</g>
</g>
<g display="none">
	<g display="inline">
		<path fill="#050505" d="M41.327,30.164l-6.455,6.275v2.253c0,0.482-0.359,0.813-0.781,0.813h-4.305
			c-0.422,0-0.781-0.345-0.781-0.813V33.64c0-0.266,0.12-0.547,0.302-0.684l7.886-5.591l0.782-11.873
			c0-1.029,0.712-1.842,1.613-1.842c0.901,0,1.614,0.813,1.614,1.77l0.782,12.831C42.046,29.286,41.932,29.617,41.327,30.164
			L41.327,30.164z M10.364,25.739v-8.873c0-0.892,0.12-1.504,0.479-2.389l3.826-9.074c0.422-1.029,1.614-1.907,2.629-1.907h10.823
			c1.072,0,2.276,0.813,2.685,1.907l3.826,9.074c0.36,0.892,0.479,1.569,0.479,2.389v8.88c0,0.345-0.303,0.684-0.599,0.684h-3.045
			c-0.359,0-0.599-0.345-0.599-0.684v-2.195H14.606v2.188c0,0.345-0.303,0.683-0.599,0.683h-3.045
			C10.666,26.422,10.364,26.077,10.364,25.739L10.364,25.739z M31.109,16.521c-1.072,0-1.916,1.029-1.916,2.188
			c0,1.158,0.838,2.188,1.916,2.188c1.071,0,1.916-0.957,1.916-2.188C33.025,17.478,32.18,16.521,31.109,16.521L31.109,16.521z
			 M13.831,14.203h17.814l-2.629-6.275c-0.536-1.223-1.015-1.504-2.093-1.504h-8.422c-1.072,0-1.551,0.266-2.03,1.504L13.831,14.203
			z M12.457,18.701c0,1.159,0.838,2.188,1.916,2.188s1.916-0.957,1.916-2.188s-0.838-2.188-1.916-2.188S12.457,17.542,12.457,18.701
			L12.457,18.701z M16.163,33.028l-7.886-5.591L7.496,15.564c0.057-1.094-0.712-1.907-1.614-1.907c-0.901,0-1.67,0.813-1.67,1.835
			L3.43,28.329c-0.057,1.029,0.057,1.36,0.656,1.907l6.455,6.275v2.252c0,0.482,0.359,0.813,0.781,0.813h4.369
			c0.422,0,0.781-0.345,0.781-0.813v-5.051C16.459,33.446,16.339,33.179,16.163,33.028L16.163,33.028z"/>
	</g>
</g>
<g display="none">
	<path display="inline" fill="#050505" d="M22.064,4.117c-9.564,0-17.314,7.64-17.314,17.068c0,9.421,7.75,17.068,17.314,17.068
		c9.557,0,17.314-7.647,17.314-17.068C39.378,11.757,31.621,4.117,22.064,4.117L22.064,4.117z M22.064,8.382
		c5.632,0,10.392,3.579,12.188,8.537H9.875C11.671,11.961,16.427,8.382,22.064,8.382L22.064,8.382z M22.064,23.314
		c-1.2,0-2.167-0.952-2.167-2.129c0-1.183,0.967-2.136,2.167-2.136c1.194,0,2.16,0.953,2.16,2.136
		C24.224,22.362,23.258,23.314,22.064,23.314L22.064,23.314z M9.077,21.185c5.912,0,10.704,5.615,10.806,12.583
		C13.763,32.731,9.077,27.502,9.077,21.185L9.077,21.185z M24.246,33.767c0.1-6.968,4.887-12.583,10.799-12.583
		C35.045,27.502,30.365,32.731,24.246,33.767L24.246,33.767z"/>
</g>
<g display="none">
	<path display="inline" d="M33.492,18.092l0.164-0.665c0.055-0.109,0.11-0.219,0.219-0.219c0.11-0.055,0.281,0,0.391,0.11
		l4.679,1.89l-5.014-0.664C33.608,18.537,33.437,18.311,33.492,18.092L33.492,18.092z M34.218,14.866l4.96,3.836l-3.788-4.96
		c-0.165-0.281-0.336-0.39-0.5-0.39c-0.11,0-0.165,0.055-0.281,0.109l-0.61,0.61C33.773,14.311,33.882,14.585,34.218,14.866
		L34.218,14.866z M44.02,14.256h-1.28c-0.555,0-0.946,0.445-0.946,0.945v16.543c0,0.555,0.446,0.945,0.946,0.945h1.281
		c0.555,0,0.946-0.445,0.946-0.945V15.201C44.966,14.633,44.52,14.256,44.02,14.256L44.02,14.256z M37.451,12.352
		c-0.055,0-0.11,0-0.164,0.055l-0.61,0.335c-0.219,0.11-0.219,0.39,0.055,0.665l3.069,4.014l-1.952-4.679
		C37.732,12.523,37.616,12.352,37.451,12.352L37.451,12.352z M39.787,23.326v4.459c0,1.055-0.836,1.5-1.726,1.5h-3.788
		c-0.164,1.891-1.671,3.391-3.624,3.391c-1.952,0-3.569-1.5-3.678-3.391H13.839c-0.109,1.891-1.726,3.391-3.623,3.391
		s-3.514-1.5-3.624-3.391H4.653c-1.391,0-1.61-0.609-1.61-1.5v-4.288c0-0.726,0.055-1.281,0.445-2.055l3.781-7.515
		c0.445-0.89,1.61-1.671,2.672-1.671l14.584,0.055c1,0,2,0.61,2.617,1.671l3.514,5.514l6.96,1.5
		C39.397,21.27,39.732,22.435,39.787,23.326L39.787,23.326z M12.229,29.059c0-1.055-0.891-1.945-1.946-1.945
		c-1.109,0-1.945,0.891-1.945,1.945c0,1.055,0.89,1.946,1.945,1.946C11.339,31.004,12.229,30.121,12.229,29.059L12.229,29.059z
		 M16.127,14.366h-5.35c-0.836,0.055-1.226,0.39-1.671,1.336L7.38,19.49h8.741v-5.124C16.121,14.366,16.127,14.366,16.127,14.366z
		 M27.71,19.482l-2.281-3.788c-0.446-0.726-1.11-1.336-2.055-1.336H18.47v5.124H27.71z M32.601,29.059
		c0-1.055-0.89-1.945-1.945-1.945s-1.945,0.891-1.945,1.945c0,1.055,0.89,1.946,1.945,1.946
		C31.772,31.011,32.601,30.121,32.601,29.059L32.601,29.059z"/>
</g>
<g display="none">
	<path display="inline" fill="#050505" d="M25.981,25.536v10.909c0,0.713-0.522,1.241-1.171,1.241h-4.252
		c-0.713,0-1.241-0.586-1.241-1.241V25.536c-2.934-1.241-4.964-4.182-4.964-7.58c0-2.743,1.241-5.155,3.265-6.664
		c0,0,0,6.403,0.064,6.403l4.118,4.118c0.458,0.458,1.241,0.458,1.699,0l4.118-4.118v-6.396c2.03,1.572,3.329,3.92,3.329,6.664
		C30.945,21.367,28.928,24.237,25.981,25.536L25.981,25.536z M41.995,24.301v12.284c0,0.522-0.395,0.98-0.917,0.98h-4.837
		c-0.522,0-0.916-0.458-0.916-0.98V33.51h-8.357v-7.447c2.158-1.171,3.851-3.138,4.57-5.486h5.092l-4.112-8.63
		c-0.853-1.699-1.572-2.094-3.329-2.094H15.861c-1.763,0-2.412,0.395-3.265,2.094l-4.118,8.63h5.092
		c0.713,2.348,2.412,4.315,4.57,5.486v7.453H9.777v3.074c0,0.522-0.395,0.98-0.916,0.98H4.023c-0.522,0-0.98-0.458-0.98-0.98V24.3
		c0-1.107,0.191-2.03,0.777-3.265L9.853,8.491c0.713-1.438,2.552-2.679,4.181-2.679h16.981c1.636,0,3.456,1.171,4.181,2.679
		l6.008,12.545C41.791,22.207,41.995,23.124,41.995,24.301L41.995,24.301z M6.385,26.98c0,1.7,1.375,3.011,3.01,3.011
		c1.636,0,3.01-1.305,3.01-3.011c0-1.705-1.305-3.074-3.01-3.074C7.689,23.906,6.385,25.281,6.385,26.98L6.385,26.98z M38.857,26.98
		c0-1.699-1.375-3.074-3.074-3.074s-3.01,1.375-3.01,3.074c0,1.7,1.305,3.011,3.01,3.011C37.488,29.991,38.857,28.673,38.857,26.98
		L38.857,26.98z"/>
</g>
<g display="none">
	<path display="inline" d="M26.854,18.982c1.759,0,3.19,1.375,3.19,3.064s-1.431,3.064-3.19,3.064s-3.19-1.375-3.19-3.064
		C23.664,20.356,25.095,18.982,26.854,18.982L26.854,18.982z M26.854,23.432c0.798,0,1.444-0.623,1.444-1.389
		s-0.649-1.39-1.444-1.39c-0.798,0-1.447,0.624-1.447,1.39C25.407,22.809,26.057,23.432,26.854,23.432L26.854,23.432z"/>
	<path display="inline" d="M10.504,18.982c1.759,0,3.19,1.375,3.19,3.064s-1.431,3.064-3.19,3.064s-3.19-1.375-3.19-3.064
		C7.314,20.356,8.745,18.982,10.504,18.982L10.504,18.982z M9.058,22.046c0,0.766,0.649,1.389,1.447,1.389
		c0.798,0,1.447-0.623,1.447-1.389s-0.649-1.389-1.447-1.389C9.707,20.656,9.058,21.28,9.058,22.046L9.058,22.046z"/>
	<path display="inline" d="M4.863,18.919h0.393l0.006-7.761c0-0.451,0.38-0.816,0.85-0.816h15.657c0.272,0,0.532,0.128,0.693,0.341
		l3.144,4.216l5.23-0.012c0.47,0,0.85,0.365,0.85,0.816v3.212l0.621-0.006h0.009c0.47,0,0.85,0.365,0.85,0.816v0.891
		c0,0.445-0.377,0.814-0.841,0.816h-1.409c0,0-0.068-0.324-0.118-0.484c-0.046-0.157-0.105-0.312-0.173-0.463
		s-0.145-0.297-0.232-0.437c-0.086-0.143-0.182-0.276-0.284-0.407c-0.105-0.131-0.216-0.255-0.337-0.371
		c-0.08-0.08-0.167-0.154-0.253-0.226c-0.742-0.609-1.688-0.944-2.662-0.944c-0.977,0-1.923,0.335-2.665,0.944
		c-0.733,0.603-1.224,1.434-1.385,2.342l-0.009,0.062H14.56l-0.012-0.062c-0.158-0.908-0.649-1.74-1.385-2.342
		c-0.742-0.609-1.688-0.944-2.665-0.944s-1.923,0.335-2.665,0.944c-0.733,0.603-1.224,1.434-1.382,2.342l-0.009,0.062H4.86
		c-0.47,0-0.85-0.365-0.85-0.816v-0.897C4.013,19.285,4.393,18.919,4.863,18.919L4.863,18.919z M19.281,14.974h3.765
		c0.377,0,0.597-0.41,0.377-0.704l-1.74-2.345c-0.145-0.196-0.38-0.312-0.631-0.312h-1.777c-0.427,0-0.773,0.333-0.773,0.742v1.876
		C18.508,14.641,18.854,14.974,19.281,14.974L19.281,14.974z M16.316,12.358c0-0.178-0.071-0.347-0.204-0.472
		c-0.13-0.125-0.306-0.196-0.491-0.196H7.707c-0.186,0-0.362,0.068-0.492,0.196s-0.204,0.294-0.204,0.472v1.876
		c0,0.368,0.312,0.668,0.696,0.668h7.914c0.383,0,0.696-0.3,0.696-0.668L16.316,12.358L16.316,12.358z"/>
	<path display="inline" d="M20.041,7.35c0.597,0,1.082,0.466,1.082,1.039s-0.485,1.039-1.082,1.039H6.996
		c-0.597,0-1.082-0.466-1.082-1.039S6.399,7.35,6.996,7.35H20.041z"/>
</g>
<g display="none">
	<g display="inline">
		<g>
			<g>
				<defs>
					<rect id="SVGID_5_" x="19.246" y="25.51" width="22.669" height="14.029"/>
				</defs>
				<clipPath id="SVGID_6_">
					<use xlink:href="#SVGID_5_"  overflow="visible"/>
				</clipPath>
				<path clip-path="url(#SVGID_6_)" d="M41.503,27.926c-0.202-1.738-4.94-0.655-4.94-0.655l-0.476,1.634l-3.373,0.576
					c-0.436-0.797-0.931-1.485-1.471-1.883c-2.107-1.55-5.652,1.255-5.652,1.255s3.668-4.486,1.005-3.063
					c-8.419,4.959-5.044,5.789-5.044,5.789h2.368l-0.378,0.7c-0.375-0.189-0.79-0.296-1.228-0.296c-1.695,0-3.069,1.576-3.069,3.524
					c0,1.943,1.374,3.522,3.069,3.522s3.069-1.579,3.069-3.522c0-1.094-0.432-2.067-1.111-2.715l0.323-0.603l1.328,4.187h8.903
					c0.338,1.525,1.538,2.653,2.971,2.653c1.695,0,3.069-1.576,3.069-3.522s-1.372-3.524-3.066-3.524
					c-1.552,0-2.828,1.32-3.036,3.031h-0.031c0,0-0.267-1.133-0.747-2.535C35.582,31.867,41.677,29.436,41.503,27.926L41.503,27.926
					z M22.317,37.721c-1.066,0-1.929-0.994-1.929-2.215s0.866-2.217,1.929-2.217c0.217,0,0.426,0.045,0.621,0.122l-0.986,1.836
					l0.727,0.515l0.987-1.838c0.356,0.401,0.58,0.962,0.58,1.582C24.247,36.727,23.379,37.721,22.317,37.721L22.317,37.721z
					 M26.155,35.833l-1.129-3.911l0.458-0.175l1.128,3.911L26.155,35.833z M37.801,33.289c1.063,0,1.929,0.997,1.929,2.217
					c-0.002,1.221-0.866,2.215-1.929,2.215c-0.797,0-1.482-0.556-1.776-1.346h2.342v-1.363h-2.448
					C36.116,34.027,36.882,33.289,37.801,33.289L37.801,33.289z"/>
			</g>
		</g>
	</g>
</g>
<g display="none">
	<g display="inline">
		<g>
			<g>
				<defs>
					<rect id="SVGID_7_" x="3.043" y="4.206" width="38.827" height="35.929"/>
				</defs>
				<clipPath id="SVGID_8_">
					<use xlink:href="#SVGID_7_"  overflow="visible"/>
				</clipPath>
				<path clip-path="url(#SVGID_8_)" d="M34.793,27.794l-5.584-6.015c-0.625-0.674-0.537-1.678,0.194-2.246l5.996-4.668
					c0.731-0.569,1.637-0.969,2.021-0.888c0.389,0.081,1.242-0.368,1.907-1.004l1.344-1.278c0.667-0.635,0.766-1.653,0.221-2.27
					c-0.549-0.618-1.641-0.73-2.444-0.253l-1.618,0.966c-0.803,0.477-1.458,1.137-1.458,1.47s-0.591,1.067-1.322,1.64l-6.079,4.745
					c-0.731,0.569-1.827,0.488-2.452-0.182l-1.808-1.948c-0.625-0.674-0.727-1.734-0.286-2.401c0.442-0.67,1.192-1.878,1.196-2.762
					c0-1.06-0.537-2.59-2.825-4.31c-2.497-1.881-4.724-2.225-6.167-2.18c-0.959,0.031-1.207,0.836-0.597,1.516l3.049,3.404
					c0.609,0.685,0.59,1.773-0.046,2.436l-0.065,0.071c-0.632,0.659-1.808,1.572-2.626,2.035l-0.03,0.014
					c-0.819,0.463-1.995,0.298-2.626-0.362l-3.171-3.309C8.883,9.351,7.98,9.453,7.798,10.32c-0.225,1.053-0.255,2.615,0.594,4.527
					c0.362,0.814,1.142,2.064,1.747,2.748c1.166,1.327,2.311,1.801,3.198,1.931c0.944,0.137,2.304-0.341,3.019-0.607
					c0.719-0.27,1.774,0.035,2.376,0.723l1.8,2.06c0.601,0.687,0.724,1.53,0.275,1.88c-0.453,0.355-1.314,0.088-1.927-0.593
					l-0.08-0.091c-0.613-0.677-1.302-1.228-1.542-1.228s-0.415,0.715-0.392,1.597l0.011,0.499c0.023,0.881-0.711,1.466-1.644,1.309
					c-0.929-0.162-2.284,0.164-3.027,0.726l-7.823,5.917c-0.739,0.562-1.34,1.502-1.34,2.106c0,0.6,0.483,1.646,1.085,2.337
					l1.493,1.72c0.597,0.692,1.602,1.31,2.238,1.384c0.64,0.074,1.755-0.327,2.49-0.889l7.839-6.019
					c0.739-0.565,1.363-1.738,1.401-2.622l0.011-0.2c0.034-0.884,0.823-1.442,1.759-1.249l0.084,0.013
					c0.937,0.193,1.694,0.141,1.694-0.119c0-0.257-0.392-0.898-0.875-1.436c-0.483-0.537-0.515-1.253-0.069-1.597
					c0.445-0.348,1.295-0.071,1.897,0.617l5.219,5.967c0.601,0.687,1.028,1.484,0.994,1.786c-0.023,0.179-0.034,0.361-0.034,0.547
					c0,2.798,2.459,5.065,5.493,5.065c3.031,0,5.49-2.267,5.49-5.065c0-2.193-1.512-4.06-3.631-4.758
					C36.72,29.005,35.418,28.464,34.793,27.794L34.793,27.794z M35.76,36.796c-1.636,0-2.966-1.221-2.966-2.73
					s1.329-2.734,2.966-2.734s2.962,1.225,2.962,2.734C38.721,35.575,37.397,36.796,35.76,36.796L35.76,36.796z"/>
			</g>
		</g>
	</g>
</g>
<g display="none">
	<g display="inline">
		<g>
			<g>
				<defs>
					<rect id="SVGID_9_" x="3.043" y="4.162" width="38.901" height="35.005"/>
				</defs>
				<clipPath id="SVGID_10_">
					<use xlink:href="#SVGID_9_"  overflow="visible"/>
				</clipPath>
				<path clip-path="url(#SVGID_10_)" fill="#050505" d="M40.697,19.971c-1.155-2.666-3.342-4.02-6.5-4.02h-3.792
					c0.64-1.367,1.354-3.357,1.354-5.75c0-0.661-0.055-1.336-0.185-2.036c-0.496-2.779-2.499-4.261-5.353-3.965
					c-1.13,0.122-1.514,1.14-2.452,3.602c-0.778,2.044-1.845,4.838-3.383,7.086c-1.139,1.649-3.158,2.956-4.848,3.761v-0.206H3.043
					v17.586h12.495v-0.965c1.964-0.091,3.086-0.037,3.35,0.039l2.228,1.231l1.674,0.986c1.619,0.828,8.72,0.912,11.765,0.486
					c3.921-0.546,4.865-3.584,4.906-3.714C39.765,33.082,42.459,24.033,40.697,19.971L40.697,19.971z M37.098,33.453
					c-0.016,0.06-0.593,1.733-2.893,2.044c-3.279,0.463-9.354,0.183-10.253-0.228c0,0.008-1.481-0.881-1.481-0.881l-2.813-1.497
					c-0.65-0.204-2.126-0.228-4.12-0.144V21.163c2.011-0.776,5.129-2.431,6.908-5.006c1.699-2.478,2.821-5.416,3.638-7.567
					c0,0,0.714-1.702,0.89-2.096c1.243,0.008,1.931,0.653,2.187,2.059c0.105,0.554,0.146,1.101,0.146,1.624
					c0,3.487-1.892,6.26-1.925,6.299l-1.241,1.801h8.055c2.146,0,3.453,0.797,4.231,2.583
					C39.646,23.662,37.876,30.902,37.098,33.453L37.098,33.453z"/>
			</g>
		</g>
	</g>
</g>
<g display="none">
	<path display="inline" d="M-629.199,114.4c-7.071,0-12.801,5.73-12.801,12.801c0,7.066,5.73,12.801,12.801,12.801
		c7.066,0,12.801-5.735,12.801-12.801C-616.398,120.13-622.133,114.4-629.199,114.4L-629.199,114.4z M-629.199,117.599
		c4.164,0,7.683,2.684,9.011,6.403h-18.023C-636.883,120.283-633.367,117.599-629.199,117.599L-629.199,117.599z M-629.199,128.798
		c-0.887,0-1.602-0.714-1.602-1.597c0-0.887,0.715-1.602,1.602-1.602c0.883,0,1.597,0.715,1.597,1.602
		C-627.602,128.084-628.316,128.798-629.199,128.798L-629.199,128.798z M-638.801,127.201c4.371,0,7.914,4.211,7.989,9.437
		C-635.336,135.861-638.801,131.939-638.801,127.201L-638.801,127.201z M-627.586,136.638c0.074-5.226,3.613-9.437,7.984-9.437
		C-619.602,131.939-623.062,135.861-627.586,136.638L-627.586,136.638z"/>
</g>
<g display="none">
	<path display="inline" d="M-858.996,119.758h-29.031c-4.496,0-9.926,2.957-12.364,6.735l-21.32,33.039
		c-1.918,2.969-6.469,6.031-9.941,6.687l-25.993,4.907c-4.582,0.863-8.308,5.359-8.308,10.019v32.57c0,4.805,3.91,8.715,8.719,8.715
		h21.351c2.953,10.137,12.324,17.571,23.403,17.571c11.078,0,20.449-7.434,23.402-17.571h30.082c4.805,0,8.715-3.91,8.715-8.715
		v-85.242C-850.281,123.669-854.191,119.758-858.996,119.758L-858.996,119.758z M-912.48,227.735c-6.688,0-12.11-5.422-12.11-12.109
		c0-6.688,5.422-12.106,12.11-12.106c6.683,0,12.105,5.418,12.105,12.106C-900.375,222.313-905.797,227.735-912.48,227.735
		L-912.48,227.735z M-859.254,160.739c0,3.183-2.605,5.789-5.789,5.789h-39.434c-3.183,0-4.433-2.223-2.773-4.941l15.445-25.301
		c1.66-2.719,5.625-4.942,8.809-4.942h17.953c3.188,0,5.789,2.606,5.789,5.789V160.739z"/>
	<path display="inline" d="M-986.633,171.126l-25.996-4.907c-3.473-0.656-8.023-3.718-9.941-6.687l-21.321-33.039
		c-2.437-3.778-7.867-6.735-12.363-6.735h-29.027c-4.809,0-8.719,3.911-8.719,8.715v85.242c0,4.805,3.91,8.715,8.719,8.715h30.082
		c2.953,10.137,12.32,17.571,23.398,17.571s20.449-7.434,23.403-17.571h21.355c4.805,0,8.715-3.91,8.715-8.715v-32.57
		C-978.328,176.485-982.055,171.989-986.633,171.126L-986.633,171.126z M-1079.238,166.528c-3.188,0-5.793-2.606-5.793-5.789
		v-23.602c0-3.187,2.605-5.793,5.793-5.793h17.953c3.183,0,7.148,2.227,8.808,4.946l15.446,25.297
		c1.66,2.718,0.41,4.945-2.774,4.945h-39.433V166.528z M-1031.801,227.735c-6.683,0-12.105-5.422-12.105-12.109
		c0-6.688,5.418-12.106,12.105-12.106c6.688,0,12.11,5.418,12.11,12.106C-1019.691,222.313-1025.113,227.735-1031.801,227.735
		L-1031.801,227.735z"/>
	<path display="inline" d="M-987.066,164.837c0.039,0,0.074,0.003,0.113,0.003c1.851,0,3.379-1.472,3.437-3.336l0.594-18.605
		c0.063-1.902-1.43-3.488-3.332-3.551c-0.035,0-0.074,0-0.109,0c-1.852,0-3.383,1.469-3.442,3.332l-0.593,18.606
		C-990.457,163.188-988.965,164.778-987.066,164.837L-987.066,164.837z"/>
	<path display="inline" d="M-967.895,142.555c-1.695-0.851-3.765-0.168-4.617,1.532l-7.906,15.765
		c-0.855,1.699-0.168,3.77,1.531,4.621c0.496,0.25,1.024,0.367,1.543,0.367c1.262,0,2.477-0.695,3.078-1.902l7.907-15.766
		C-965.508,145.473-966.191,143.407-967.895,142.555L-967.895,142.555z"/>
	<path display="inline" d="M-954.512,157.587c-1.125-1.536-3.277-1.868-4.812-0.743l-13.199,9.668
		c-1.536,1.121-1.868,3.278-0.743,4.809c0.676,0.922,1.719,1.41,2.782,1.41c0.707,0,1.418-0.215,2.031-0.664l13.195-9.668
		C-953.723,161.274-953.391,159.118-954.512,157.587L-954.512,157.587z"/>
</g>
<g display="none">
	<g display="inline">
		<g>
			<g>
				<defs>
					<rect id="SVGID_11_" x="-898" y="-51.029" width="39.84" height="39.989"/>
				</defs>
				<clipPath id="SVGID_12_">
					<use xlink:href="#SVGID_11_"  overflow="visible"/>
				</clipPath>
				<path clip-path="url(#SVGID_12_)" d="M-865.422-24.775l-5.73-6.695c-0.641-0.75-0.551-1.868,0.199-2.5l6.152-5.196
					c0.75-0.633,1.68-1.078,2.074-0.988c0.399,0.09,1.274-0.41,1.957-1.117l1.379-1.422c0.684-0.707,0.786-1.84,0.227-2.527
					c-0.563-0.688-1.684-0.813-2.508-0.282l-1.66,1.075c-0.824,0.531-1.496,1.265-1.496,1.636c0,0.371-0.606,1.188-1.356,1.825
					l-6.238,5.281c-0.75,0.633-1.875,0.543-2.516-0.203l-1.855-2.168c-0.641-0.75-0.746-1.93-0.293-2.672
					c0.453-0.746,1.223-2.09,1.227-3.074c0-1.18-0.551-2.883-2.899-4.797c-2.562-2.094-4.847-2.477-6.328-2.426
					c-0.984,0.035-1.238,0.93-0.613,1.687l3.129,3.789c0.625,0.762,0.605,1.973-0.047,2.711l-0.067,0.079
					c-0.648,0.734-1.855,1.75-2.695,2.265l-0.031,0.016c-0.84,0.515-2.047,0.332-2.695-0.403l-3.254-3.683
					c-0.649-0.738-1.575-0.625-1.762,0.34c-0.231,1.172-0.262,2.91,0.609,5.039c0.371,0.906,1.172,2.297,1.793,3.058
					c1.196,1.477,2.371,2.004,3.281,2.149c0.969,0.152,2.364-0.379,3.098-0.676c0.738-0.301,1.82,0.039,2.438,0.805l1.847,2.293
					c0.617,0.765,0.743,1.703,0.282,2.093c-0.465,0.395-1.348,0.098-1.977-0.66l-0.082-0.101c-0.629-0.754-1.336-1.367-1.582-1.367
					s-0.426,0.796-0.402,1.777l0.011,0.555c0.024,0.98-0.73,1.632-1.687,1.457c-0.953-0.18-2.344,0.183-3.106,0.808l-8.027,6.586
					c-0.758,0.625-1.375,1.672-1.375,2.344c0,0.668,0.496,1.832,1.113,2.601l1.532,1.914c0.613,0.77,1.644,1.458,2.296,1.54
					c0.657,0.082,1.801-0.364,2.555-0.989l8.043-6.699c0.758-0.629,1.399-1.934,1.438-2.918l0.011-0.223
					c0.035-0.984,0.844-1.605,1.805-1.39l0.086,0.015c0.961,0.215,1.738,0.157,1.738-0.132c0-0.286-0.402-1-0.898-1.598
					c-0.496-0.598-0.528-1.395-0.071-1.777c0.457-0.387,1.329-0.079,1.946,0.687l5.355,6.641c0.617,0.765,1.055,1.652,1.02,1.988
					c-0.024,0.199-0.035,0.402-0.035,0.609c0,3.114,2.523,5.637,5.636,5.637c3.11,0,5.633-2.523,5.633-5.637
					c0-2.441-1.551-4.519-3.726-5.296C-863.445-23.427-864.781-24.029-865.422-24.775L-865.422-24.775z M-864.43-14.756
					c-1.679,0-3.043-1.359-3.043-3.039c0-1.679,1.364-3.043,3.043-3.043c1.68,0,3.039,1.364,3.039,3.043
					C-861.391-16.115-862.75-14.756-864.43-14.756L-864.43-14.756z"/>
			</g>
		</g>
	</g>
</g>
<g display="none">
	<path display="inline" fill="#050505" d="M30.972,20.961c-0.004-0.03-0.004-0.061-0.008-0.091c-0.027-1.148-0.231-2.077-1.169-2.46
		c-0.988-0.402-1.86-0.41-2.498-0.167c-0.039,0.016-0.15,0.155-0.193,0.179c-0.043,0.026-0.266-0.046-0.348-0.027
		c-1.405,0.194-1.868,1.471-1.765,2.464c0.337,0.565,0.443,1.278,0.475,2.017c0.521,0.879,1.42,1.554,2.486,1.554
		c1.432,0,2.562-1.164,2.914-2.434c0.134-0.015,0.248-0.114,0.259-0.249l0.043-0.501C31.18,21.116,31.094,21.002,30.972,20.961
		L30.972,20.961z M27.951,24.043c-1.475,0-2.577-1.509-2.577-2.863c0-0.06,0.004-0.124,0.007-0.185
		c0.617-0.219,1.798-0.671,1.926-0.909c0.534,0.538,2.432,0.841,3.264,0.939c0.004,0.053,0.012,0.107,0.012,0.155
		C30.579,22.504,29.431,24.043,27.951,24.043L27.951,24.043z"/>
	<path display="inline" fill="#050505" d="M11.975,21.233l0.047,0.505c0.012,0.14,0.134,0.243,0.274,0.25
		c0.345,1.269,1.459,2.441,2.868,2.441c1.106,0,2.027-0.698,2.558-1.599c-0.012-0.634,0.161-1.282,0.533-1.816
		c-0.024-0.019-0.043-0.042-0.07-0.053c0-0.03-0.004-0.061-0.004-0.087c-0.028-1.149-0.236-2.078-1.169-2.46
		c-0.989-0.406-1.86-0.41-2.499-0.171c-0.043,0.016-0.149,0.155-0.192,0.182c-0.043,0.022-0.267-0.05-0.353-0.031
		c-1.4,0.194-1.863,1.471-1.761,2.468c-0.003,0.027-0.003,0.057-0.007,0.083C12.061,20.976,11.963,21.097,11.975,21.233
		L11.975,21.233z M12.594,20.995c0.616-0.219,1.797-0.671,1.926-0.909c0.533,0.538,2.432,0.841,3.264,0.939
		c0.004,0.053,0.012,0.107,0.012,0.155c0,1.324-1.15,2.863-2.632,2.863c-1.475,0-2.578-1.509-2.578-2.863
		C12.586,21.12,12.59,21.056,12.594,20.995L12.594,20.995z"/>
	<path display="inline" fill="#050505" d="M19.514,12.185c0.208,0.773,0.883,1.486,1.741,1.486c0.871,0,1.558-0.708,1.773-1.482
		c0.082-0.008,0.149-0.068,0.157-0.151l0.027-0.304c0.008-0.08-0.047-0.148-0.122-0.175c0-0.015,0-0.034-0.004-0.052
		c-0.015-0.698-0.141-1.262-0.71-1.497c-0.599-0.246-1.13-0.25-1.517-0.103c-0.028,0.012-0.094,0.095-0.119,0.111
		c-0.027,0.015-0.165-0.027-0.215-0.016c-0.852,0.117-1.134,0.891-1.071,1.497c0,0.018-0.004,0.034-0.004,0.053
		c-0.082,0.018-0.141,0.09-0.134,0.174l0.028,0.308C19.354,12.121,19.424,12.181,19.514,12.185L19.514,12.185z M19.694,11.583
		c0.374-0.133,1.091-0.41,1.169-0.557c0.326,0.329,1.479,0.515,1.989,0.575c0,0.031,0.004,0.061,0.004,0.095
		c0,0.803-0.698,1.74-1.601,1.74c-0.898,0-1.569-0.921-1.569-1.74C19.687,11.658,19.691,11.62,19.694,11.583L19.694,11.583z"/>
	<path display="inline" fill="#050505" d="M15.615,12.128c-1.185,0.163-1.577,1.244-1.49,2.085c0,0.022-0.004,0.046-0.004,0.068
		c-0.119,0.026-0.197,0.129-0.189,0.246l0.039,0.425c0.012,0.117,0.113,0.204,0.232,0.208c0.294,1.077,1.231,2.066,2.424,2.066
		c1.208,0,2.161-0.985,2.459-2.058c0.113-0.012,0.208-0.094,0.22-0.209l0.035-0.424c0.012-0.11-0.063-0.205-0.165-0.239
		c-0.004-0.027-0.004-0.053-0.004-0.076c-0.024-0.97-0.2-1.755-0.988-2.082c-0.836-0.341-1.57-0.344-2.111-0.14
		c-0.035,0.011-0.125,0.128-0.161,0.151C15.874,12.174,15.685,12.113,15.615,12.128L15.615,12.128z M16.082,13.554
		c0.451,0.455,2.056,0.712,2.758,0.8c0.004,0.042,0.008,0.083,0.008,0.129c0,1.118-0.969,2.418-2.22,2.418
		c-1.247,0-2.177-1.277-2.177-2.418c0-0.053,0.004-0.106,0.008-0.159C14.975,14.142,15.971,13.758,16.082,13.554L16.082,13.554z"/>
	<path display="inline" fill="#050505" d="M23.484,15.164c0.29,1.073,1.231,2.062,2.42,2.062c1.208,0,2.165-0.985,2.463-2.054
		c0.078-0.012,0.134-0.06,0.173-0.121l0.059-0.008c0.015,0,0.039-0.011,0.039-0.034l0.039-0.42c0-0.031-0.028-0.042-0.032-0.042
		l-0.023-0.008c0.008-0.111-0.062-0.205-0.169-0.243c0-0.023,0-0.049-0.004-0.076c-0.023-0.97-0.196-1.752-0.988-2.078
		c-0.835-0.342-1.57-0.345-2.111-0.144c-0.035,0.015-0.126,0.132-0.161,0.155c-0.035,0.018-0.227-0.042-0.298-0.023
		c-1.184,0.163-1.573,1.24-1.486,2.082c-0.004,0.022-0.004,0.05-0.008,0.072c-0.113,0.026-0.196,0.129-0.185,0.243l0.036,0.425
		C23.26,15.07,23.362,15.157,23.484,15.164L23.484,15.164z M23.735,14.323c0.518-0.181,1.518-0.565,1.624-0.77
		c0.455,0.455,2.056,0.712,2.762,0.8c0,0.042,0.004,0.083,0.004,0.129c0,1.118-0.969,2.418-2.22,2.418
		c-1.247,0-2.177-1.277-2.177-2.418C23.727,14.429,23.731,14.376,23.735,14.323L23.735,14.323z"/>
	<path display="inline" fill="#050505" d="M19.251,15.327c-0.142,0.433-0.397,0.861-0.73,1.221h2.726v-0.004l2.79-0.004
		c-0.329-0.356-0.577-0.78-0.714-1.217c-0.15-0.056-0.259-0.193-0.271-0.356l-0.039-0.42c-0.015-0.16,0.063-0.304,0.189-0.387
		c-0.012-0.151-0.004-0.303,0.011-0.459c-0.165-0.159-0.352-0.277-0.58-0.307c-0.047-0.008-0.09,0.004-0.122,0.016l-0.718,0.939
		l-0.545-0.42h-0.004v0.004l-0.545,0.42l-0.717-0.939c-0.028-0.012-0.071-0.023-0.119-0.016c-0.204,0.03-0.377,0.125-0.529,0.261
		c0.02,0.175,0.031,0.349,0.039,0.52c0.117,0.086,0.185,0.227,0.169,0.375l-0.035,0.421C19.49,15.134,19.393,15.263,19.251,15.327
		L19.251,15.327z"/>
	<path display="inline" fill="#050505" d="M30.811,22.337c-0.212,0.519-0.561,1.004-1,1.364
		C30.258,23.337,30.607,22.852,30.811,22.337L30.811,22.337z"/>
	<path display="inline" fill="#050505" d="M14.195,18.22c0.016,0,0.031,0.004,0.043,0.008c0.004-0.008,0.012-0.012,0.015-0.019
		c0.075-0.076,0.122-0.125,0.185-0.147c0.361-0.137,0.769-0.19,1.204-0.167l-0.784-1.024c-0.043-0.018-0.102-0.03-0.165-0.022
		c-0.737,0.102-1.2,0.792-1.494,1.591c0.216-0.11,0.455-0.197,0.741-0.239l0.062-0.004C14.057,18.197,14.128,18.209,14.195,18.22
		L14.195,18.22z"/>
	<path display="inline" fill="#050505" d="M17.642,23.595l0.055,0.617c0.016,0.175,0.165,0.3,0.341,0.308
		c0.424,1.565,1.792,3.009,3.527,3.009c1.761,0,3.153-1.436,3.585-2.998c0.169-0.019,0.302-0.141,0.317-0.308l0.055-0.614
		c0.016-0.163-0.09-0.299-0.239-0.352c-0.004-0.034-0.004-0.072-0.008-0.11c-0.035-1.414-0.29-2.555-1.44-3.029
		c-1.216-0.497-2.291-0.505-3.075-0.209c-0.051,0.018-0.185,0.193-0.235,0.223c-0.055,0.031-0.33-0.056-0.432-0.034
		c-1.726,0.239-2.295,1.808-2.169,3.036c-0.004,0.034-0.008,0.068-0.012,0.103C17.749,23.277,17.627,23.424,17.642,23.595
		L17.642,23.595z M18.404,23.299c0.757-0.269,2.208-0.826,2.37-1.122c0.659,0.663,2.992,1.034,4.017,1.16
		c0.004,0.065,0.011,0.129,0.011,0.193c0,1.626-1.416,3.518-3.235,3.518c-1.817,0-3.173-1.857-3.173-3.518
		C18.393,23.451,18.4,23.375,18.404,23.299L18.404,23.299z"/>
	<path display="inline" fill="#050505" d="M17.372,18.167l-0.757-0.584l-0.004,0.004v0.004l-0.486,0.372
		c0.317,0.057,0.636,0.137,0.961,0.273c1.079,0.44,1.263,1.551,1.29,2.589c0.381-0.462,0.93-0.811,1.687-0.917l0.074-0.004
		c0.062,0,0.149,0.012,0.227,0.026c0.012,0,0.028,0.004,0.039,0.008c-0.196-1.231-0.682-2.934-1.871-3.093
		c-0.062-0.012-0.126,0.004-0.165,0.018L17.372,18.167z"/>
	<path display="inline" fill="#050505" d="M27.814,16.844c-0.062-0.012-0.126,0.004-0.165,0.018l-0.996,1.304l-0.757-0.584
		l-0.004,0.004v0.004h-0.004l-0.757,0.584l-0.996-1.304c-0.039-0.016-0.101-0.03-0.161-0.018c-1.062,0.144-1.565,1.512-1.801,2.679
		c0.557,0.031,1.146,0.167,1.742,0.41c0.369,0.151,0.651,0.368,0.867,0.63c-0.004-1.043,0.568-2.177,1.941-2.366l0.067-0.008
		c0.055,0,0.126,0.012,0.192,0.023c0.016,0.004,0.032,0.008,0.043,0.008c0.004-0.004,0.012-0.012,0.02-0.019
		c0.07-0.076,0.117-0.121,0.18-0.147c0.549-0.205,1.209-0.224,1.899-0.065C28.83,17.393,28.41,16.924,27.814,16.844L27.814,16.844z"
		/>
	<path display="inline" fill="#050505" d="M21.55,33.337l5.716-0.004c0,0-0.173-5.993-2.919-6.365
		c-0.09-0.015-0.18,0.004-0.239,0.027l-1.451,1.899l-1.103-0.849l-0.008,0.004v0.007v-0.003l-1.106,0.852l-1.452-1.903
		c-0.058-0.022-0.149-0.041-0.239-0.026c-2.745,0.372-2.918,6.365-2.918,6.365l5.719,0.004V33.337z"/>
	<path display="inline" fill="#050505" d="M27.939,29.152l4.644-0.004c0,0-0.141-4.867-2.373-5.174
		c-0.074-0.011-0.145,0.004-0.196,0.023l-1.181,1.547l-0.895-0.694l-0.004,0.008v0.003h-0.003l-0.895,0.69l-1.181-1.546
		c-0.039-0.016-0.101-0.019-0.165-0.019l-0.023,0.258c-0.016,0.205-0.158,0.375-0.353,0.447c-0.282,0.917-0.91,1.816-1.765,2.399
		c-0.031,0.141-0.054,0.277-0.078,0.413l0.51-0.667l0.051-0.019c0.058-0.022,0.196-0.064,0.344-0.042
		c1.142,0.155,1.86,1.187,2.315,2.384h1.247L27.939,29.152L27.939,29.152z"/>
	<path display="inline" fill="#050505" d="M10.504,29.156l4.648,0.004v-0.008h1.259c0.455-1.194,1.173-2.213,2.311-2.369
		c0.137-0.019,0.282,0.018,0.341,0.042l0.05,0.018l0.502,0.652c-0.027-0.155-0.058-0.314-0.093-0.477
		c-0.792-0.583-1.378-1.448-1.644-2.331c-0.212-0.065-0.362-0.243-0.381-0.459l-0.02-0.239c-0.019-0.004-0.035-0.012-0.054-0.016
		c-0.075-0.011-0.146,0.004-0.193,0.023l-1.18,1.547l-0.899-0.694l-0.004,0.008v0.003v-0.003l-0.898,0.693l-1.181-1.546
		c-0.047-0.016-0.117-0.035-0.193-0.023C10.645,24.285,10.504,29.156,10.504,29.156L10.504,29.156z"/>
	<path display="inline" fill="#050505" d="M34.314,9.232l2.075-3.025l-7.61,0.929l2.346,6.751l1.836-2.68
		c2.958,2.737,4.809,6.576,4.809,10.841c0,8.294-6.982,15.041-15.565,15.041c-8.582,0-15.565-6.747-15.565-15.041
		c0-6.156,3.848-11.448,9.336-13.775L14.16,6.522C8.279,9.38,4.231,15.263,4.231,22.048c0,9.575,8.065,17.368,17.973,17.368
		c9.913,0,17.978-7.793,17.978-17.368C40.182,16.976,37.915,12.412,34.314,9.232L34.314,9.232z"/>
</g>
<g>
	<path fill="#03769E" d="M28.521,17.272c-4.128,2.42-7.102,5.48-8.31,6.838l-3.101-2.325c-0.085-0.056-1.784,1.388-1.739,1.432
		l5.646,5.496c0.04,0.044,0.099,0.065,0.163,0.065c0.009,0,0.027,0,0.04-0.005c0.077-0.013,0.14-0.064,0.167-0.134
		c0.91-2.225,3.915-6.885,7.75-10.266c0.068-0.059,0.095-0.159,0.054-0.241C29.192,18.13,28.58,17.237,28.521,17.272L28.521,17.272z
		"/>
	<path fill="#03769E" d="M32.225,12.409c-8.553,0-10-3.108-10.013-3.134c-0.062-0.154-0.215-0.254-0.391-0.259h-0.005
		c-0.172,0-0.33,0.103-0.397,0.249c-0.009,0.036-1.487,3.144-10.009,3.144c-0.239,0-0.428,0.185-0.428,0.405v13.921
		c0,5.696,10.229,10.05,10.662,10.231C21.703,36.992,21.756,37,21.82,37c0.053,0,0.117-0.008,0.17-0.034
		c0.437-0.181,10.662-4.535,10.662-10.231V12.814C32.653,12.594,32.464,12.409,32.225,12.409L32.225,12.409z M30.3,25.925
		c0,4.458-8.008,7.869-8.35,8.011c-0.04,0.021-0.09,0.025-0.135,0.025s-0.091-0.005-0.136-0.025
		c-0.334-0.142-8.345-3.553-8.345-8.011V15.03c0-0.177,0.149-0.319,0.334-0.319c6.669,0,7.827-2.436,7.841-2.458
		c0.05-0.12,0.17-0.198,0.307-0.198h0.005c0.135,0,0.256,0.082,0.305,0.202c0.014,0.022,1.145,2.454,7.841,2.454
		c0.185,0,0.334,0.143,0.334,0.319L30.3,25.925L30.3,25.925z"/>
</g>
<g display="none">
	<g display="inline">
		<path fill="#03769E" d="M10.721,26.986l2.4,2.987c0.53,0.66,1.353,0.932,2.208,0.824l-2.785,2.809c0,0-0.241,0.899,1.2,1.494
			c1.442,0.595,2.904-2.628,2.904-2.628l-1.091-1.712c0.089-0.018,0.179-0.04,0.269-0.068l3.323,2.625
			c1.893,1.826,3.632,1.265,5.088-0.054l3.242-2.936l0.025-0.023l3.242-2.936c1.456-1.318,2.253-3.053,0.853-5.325l-1.917-3.898
			c0.041-0.09,0.075-0.181,0.105-0.271l1.42,1.414c0,0,3.229-1.024,2.904-2.629s-1.2-1.494-1.2-1.494l-3.052,2.476
			c0.237-0.879,0.113-1.785-0.417-2.445l-2.4-2.987c-0.597-0.744-1.564-0.994-2.533-0.767l-1.613-2.007
			c-0.546-0.679-1.777-0.515-2.752,0.368c-0.974,0.883-1.323,2.149-0.777,2.828l1.342,1.671l-3.508,3.177L17.174,17.5l-3.509,3.177
			l-1.342-1.673c-0.546-0.679-1.779-0.513-2.753,0.369c-0.975,0.883-1.323,2.148-0.777,2.827l1.613,2.007
			C10.042,25.189,10.124,26.242,10.721,26.986z M25.748,14.38l1.291,1.608l-3.185,2.885l-1.291-1.608L25.748,14.38z M23.523,25.402
			l0.025-0.023l5.846-5.294l1.496,3.196l0.023,0.044c0.445,0.782,0.183,2.097-0.548,2.76l-3.618,3.277l-0.025,0.023l-3.618,3.276
			c-0.731,0.662-1.996,0.728-2.653,0.139l-0.038-0.031l-2.736-2.072L23.523,25.402z M16.132,23.088l1.291,1.608l-3.186,2.885
			l-1.291-1.608L16.132,23.088z"/>
		<rect x="8.662" y="35.476" fill="#03769E" width="29.616" height="1.917"/>
		<polygon fill="#03769E" points="31.053,28.391 31.203,29.13 32.736,28.78 31.559,30.276 32.753,31.57 31.137,31.529 
			30.612,33.377 29.619,32.135 28.005,32.728 28.947,30.501 28.298,30.192 26.681,34.014 29.392,33.019 30.916,34.926 
			31.662,32.298 34.487,32.37 32.518,30.236 34.608,27.583 		"/>
	</g>
</g>
</svg>
