<?xml version="1.0" encoding="utf-8"?>
<!-- Generator: Adobe Illustrator 17.0.0, SVG Export Plug-In . SVG Version: 6.00 Build 0)  -->
<!DOCTYPE svg PUBLIC "-//W3C//DTD SVG 1.1//EN" "http://www.w3.org/Graphics/SVG/1.1/DTD/svg11.dtd">
<svg version="1.1" id="Capa_1" xmlns="http://www.w3.org/2000/svg" xmlns:xlink="http://www.w3.org/1999/xlink" x="0px" y="0px"
	 width="612px" height="612px" viewBox="0 0 612 612" enable-background="new 0 0 612 612" xml:space="preserve">
<g display="none">
	<g id="Shape_28_1_" display="inline">
		<g>
			<path fill="#00A1DA" stroke="#00A1DA" stroke-width="7" stroke-miterlimit="10" d="M411.765,125.173H230.989V487.46h180.775
				c99.683,0,180.777-81.258,180.777-181.14S511.447,125.173,411.765,125.173z M333.655,468.441h-83.687v-324.25h83.687V468.441z
				 M411.765,468.441h-59.12v-324.25h59.12c89.216,0,161.798,72.733,161.798,162.131
				C573.562,395.707,500.981,468.441,411.765,468.441z M20.5,216.667h170.815v-19.018H20.5V216.667z M20.5,283.233h170.815v-19.018
				H20.5V283.233z M20.5,349.799h170.815v-19.018H20.5V349.799z M20.5,416.365h170.815v-19.018H20.5V416.365z"/>
		</g>
	</g>
</g>
<path display="none" d="M317.5,269.5c-0.003-14.954-0.57-29.754-3.856-44.399c-2.977-13.27-8.671-26.775-7.144-40.601
	c0.707-6.405-9.3-6.337-10,0c-1.496,13.555,3.475,27.162,6.746,40.116c3.729,14.765,4.251,29.73,4.254,44.884
	c0,0.834,0.17,1.559,0.462,2.177c-0.999,2.928,0.514,6.823,4.538,6.823s5.537-3.894,4.538-6.822
	C317.33,271.059,317.5,270.335,317.5,269.5z"/>
<rect x="246.096" y="133.149" display="none" fill="#00A1DA" width="100.404" height="346.351"/>
<g display="none">
	<g display="inline">
		<path fill="#00A1DA" d="M92.078,375.242l40.087,50.282c8.855,11.104,22.603,15.695,36.882,13.862l-46.513,47.299
			c0,0-4.025,15.138,20.045,25.139c24.079,10.015,48.513-44.255,48.513-44.255l-18.227-28.814c1.487-0.303,2.986-0.662,4.494-1.15
			l55.521,44.203c31.616,30.734,60.674,21.286,84.995-0.904l54.159-49.426l0.421-0.385l54.151-49.426
			c24.329-22.19,37.637-51.402,14.25-89.655l-32.02-65.628c0.679-1.514,1.249-3.04,1.762-4.566l23.715,23.795
			c0,0,53.957-17.239,48.509-44.259c-5.436-27.011-20.045-25.147-20.045-25.147l-50.991,41.682
			c3.957-14.796,1.884-30.046-6.967-41.15l-40.091-50.291c-9.978-12.517-26.124-16.746-42.318-12.911l-26.944-33.799
			c-9.113-11.441-29.684-8.67-45.98,6.196c-16.271,14.861-22.094,36.169-12.981,47.606l22.414,28.123l-58.617,53.477l-0.416,0.385
			l-58.621,53.486l-22.414-28.123c-9.122-11.437-29.713-8.644-45.984,6.209c-16.295,14.87-22.094,36.16-12.981,47.597l26.944,33.799
			C80.742,344.996,82.1,362.724,92.078,375.242z M343.115,163.03l21.578,27.063l-53.209,48.557l-21.578-27.067L343.115,163.03z
			 M305.947,348.572l0.421-0.385l97.665-89.12l24.988,53.802l0.388,0.744c7.428,13.158,3.063,35.3-9.154,46.452l-60.448,55.155
			l-0.421,0.38l-60.452,55.151c-12.213,11.151-33.342,12.262-44.314,2.34l-0.627-0.519l-45.712-34.881L305.947,348.572z
			 M182.473,309.622l21.573,27.063l-53.213,48.557l-21.573-27.063L182.473,309.622z"/>
		<rect x="57.685" y="518.163" fill="#00A1DA" width="494.76" height="32.278"/>
		<polygon fill="#00A1DA" points="431.748,398.897 434.241,411.337 459.86,405.457 440.19,430.639 460.139,452.418 433.138,451.731 
			424.377,482.841 407.794,461.922 380.822,471.915 396.559,434.418 385.712,429.208 358.695,493.56 403.991,476.8 429.452,508.918 
			441.908,464.677 489.12,465.879 456.214,429.956 491.124,385.281 		"/>
	</g>
</g>
<g display="none">
	<g display="inline">
		<g id="Shape_28_2_">
			<g>
				<path fill="#00A1DA" stroke="#00A1DA" stroke-width="7" stroke-miterlimit="10" d="M396.547,145.857H243.593v339.171h152.952
					c84.341,0,152.954-76.073,152.954-169.582S480.887,145.857,396.547,145.857z M330.458,467.222h-70.807V163.661h70.807V467.222z
					 M396.547,467.222h-50.021V163.661h50.021c75.485,0,136.896,68.092,136.896,151.786
					C533.442,399.129,472.032,467.222,396.547,467.222z M65.5,231.513h144.525v-17.805H65.5V231.513z M65.5,293.832h144.525v-17.805
					H65.5V293.832z M65.5,356.15h144.525v-17.805H65.5V356.15z M65.5,418.469h144.525v-17.805H65.5V418.469z"/>
			</g>
		</g>
	</g>
	<rect x="251.335" y="153.324" display="inline" fill="#00A1DA" width="92.944" height="324.252"/>
</g>
<g display="none">
	<g display="inline">
		<path fill="#00A1DA" d="M270.24,159.342h53.141c1.668,0,3.018-1.28,3.018-2.861v-13.296c-0.534,0.079-1.078,0.134-1.637,0.134
			h-4.226c-5.837,0-10.569-4.486-10.569-10.018v-4.002c0-5.533,4.734-10.017,10.569-10.017h4.226c0.556,0,1.103,0.054,1.637,0.133
			v-13.299c0-1.582-1.35-2.862-3.018-2.862H270.24c-1.67,0-3.02,1.281-3.02,2.862v50.362
			C267.219,158.061,268.569,159.342,270.24,159.342z"/>
		<path fill="#00A1DA" d="M373.741,186.82h-14.439c-4.094-6.7-11.722-11.218-20.478-11.218h-84.027
			c-8.759,0-16.386,4.518-20.481,11.218h-14.439c-13.074,0-23.673,10.044-23.673,22.435v4.487c0,5.681,2.244,10.853,5.919,14.804
			v275.499c-3.674,3.952-5.919,9.122-5.919,14.804v4.486c0,12.391,10.599,22.433,23.673,22.433h153.864
			c13.074,0,23.671-10.043,23.671-22.433v-4.486c0-5.683-2.244-10.855-5.917-14.804V228.546c3.672-3.951,5.917-9.124,5.917-14.804
			v-4.487C397.413,196.865,386.817,186.82,373.741,186.82z M366.112,391.91c0,7.126-6.093,12.9-13.609,12.9
			c-7.517,0-13.612-5.777-13.612-12.9v-22.808c0-7.126,6.095-12.898,13.612-12.898c7.519,0,13.609,5.776,13.609,12.898V391.91z
			 M366.112,326.477c0,7.123-6.093,12.898-13.609,12.898c-7.517,0-13.612-5.776-13.612-12.898v-76.652
			c0-7.124,6.095-12.899,13.612-12.899c7.519,0,13.609,5.776,13.609,12.899V326.477z"/>
		<path fill="#00A1DA" d="M416.836,98.696c1.411-0.573,2.503-1.634,3.074-2.986c0.569-1.351,0.552-2.833-0.054-4.169
			c-0.907-2.011-2.983-3.309-5.29-3.309c-0.778,0-1.54,0.149-2.261,0.442l-79.603,32.332l83.454-22.079
			C416.262,98.896,416.547,98.812,416.836,98.696z"/>
		<path fill="#00A1DA" d="M416.832,163.904c-0.217-0.087-0.472-0.172-0.758-0.25L332.7,141.597l79.603,32.332
			c0.722,0.293,1.485,0.442,2.263,0.442c2.308,0,4.383-1.297,5.291-3.304c0.605-1.34,0.624-2.821,0.054-4.175
			C419.332,165.522,418.267,164.487,416.832,163.904z"/>
	</g>
</g>
<g>
	<g>
		<circle fill="#03769E" stroke="#03769E" stroke-width="4" stroke-miterlimit="10" cx="397.367" cy="164.589" r="43.026"/>
	</g>
	<g>
		<g>
			<path fill="#03769E" stroke="#03769E" stroke-width="4" stroke-miterlimit="10" d="M397.189,208.613
				c24.428,0,44.303-19.875,44.303-44.306c0-24.429-19.874-44.304-44.303-44.304c-24.43,0-44.305,19.875-44.305,44.304
				C352.885,188.739,372.759,208.613,397.189,208.613z M397.189,127.655c20.21,0,36.653,16.443,36.653,36.654
				c0,20.211-16.443,36.656-36.653,36.656c-20.21,0-36.655-16.443-36.655-36.656S376.979,127.655,397.189,127.655z"/>
			<path fill="#03769E" stroke="#03769E" stroke-width="4" stroke-miterlimit="10" d="M182.651,161.389h-75.042
				c-8.339,0-15.125,6.784-15.125,15.123v331.054c0,8.339,6.784,15.125,15.125,15.125h75.042c8.339,0,15.125-6.784,15.125-15.125
				V176.511C197.773,168.173,190.99,161.389,182.651,161.389z M100.135,507.566V176.511c0-4.122,3.352-7.473,7.474-7.473h14.874v346
				h-14.874C103.487,515.039,100.135,511.686,100.135,507.566z M190.124,507.566c0,4.122-3.352,7.474-7.474,7.474h-52.518V169.038
				h28.799v113.237c0,2.112,1.711,3.825,3.825,3.825c2.113,0,3.825-1.713,3.825-3.825V169.038h16.07
				c4.122,0,7.474,3.352,7.474,7.473v331.054L190.124,507.566L190.124,507.566z"/>
			<path fill="#03769E" stroke="#03769E" stroke-width="4" stroke-miterlimit="10" d="M214.287,208.773
				c0.979,0,1.958-0.374,2.705-1.121l37.285-37.285c1.494-1.494,1.494-3.916,0-5.409c-1.493-1.494-3.918-1.494-5.409,0
				l-37.285,37.285c-1.494,1.494-1.494,3.916,0,5.409C212.328,208.399,213.307,208.773,214.287,208.773z"/>
			<path fill="#03769E" stroke="#03769E" stroke-width="4" stroke-miterlimit="10" d="M212.633,184.811
				c0.534,0.255,1.096,0.376,1.65,0.376c1.426,0,2.795-0.801,3.452-2.173l25.987-54.234c0.913-1.905,0.108-4.19-1.797-5.102
				c-1.905-0.913-4.189-0.109-5.103,1.797l-25.987,54.234C209.924,181.614,210.73,183.898,212.633,184.811z"/>
			<path fill="#03769E" stroke="#03769E" stroke-width="4" stroke-miterlimit="10" d="M216.991,228.742
				c-1.493-1.494-3.918-1.494-5.409,0c-1.494,1.494-1.494,3.916,0,5.409l37.285,37.285c0.746,0.747,1.726,1.121,2.705,1.121
				s1.958-0.374,2.705-1.121c1.494-1.494,1.494-3.916,0-5.409L216.991,228.742z"/>
			<path fill="#03769E" stroke="#03769E" stroke-width="4" stroke-miterlimit="10" d="M217.736,253.381
				c-0.913-1.905-3.198-2.71-5.103-1.797c-1.904,0.913-2.709,3.197-1.797,5.102l25.987,54.234c0.657,1.371,2.026,2.173,3.452,2.173
				c0.555,0,1.117-0.12,1.65-0.377c1.904-0.913,2.709-3.197,1.797-5.102L217.736,253.381z"/>
			<path fill="#03769E" stroke="#03769E" stroke-width="4" stroke-miterlimit="10" d="M277.232,309.036
				c0,6.47,5.265,11.733,11.734,11.733c6.47,0,11.733-5.265,11.733-11.733v-3.265l26.175,24.37
				c3.606,3.374,8.311,5.232,13.253,5.232c0,0,0.001,0,0.002,0c4.986,0,9.821-1.946,13.431-5.382v30.768l-69.954,1.413
				c-0.024,0-0.049,0-0.075,0.001c-11.388,0.239-21.473,7.226-25.697,17.806c-1.406,3.518-2.08,7.24-2.006,10.986
				c0,0.046,0.001,0.101,0.004,0.156l1.981,97.993c0.309,15.291,12.998,27.731,28.287,27.731c0.192,0,0.383-0.002,0.578-0.006
				c7.559-0.152,14.607-3.24,19.843-8.692c5.234-5.451,8.034-12.618,7.882-20.176l-1.407-69.778l62.304-1.258l-0.001,63.358
				c-0.002,11.402,6.782,21.64,17.28,26.079c3.493,1.479,7.203,2.229,10.935,2.227c0.046,0,0.102-0.001,0.158,0l98.021-0.001
				c0.082,0,0.161,0.001,0.242-0.001c15.492-0.129,28.059-12.774,28.059-28.297c0.001-7.561-2.942-14.669-8.288-20.014
				c-5.345-5.345-12.453-8.289-20.011-8.289l-69.791-0.001l-0.002-49.493c5.588-7.333,8.916-16.477,8.916-26.388V261.438
				c0-24.058-19.571-43.63-43.629-43.63c-24.057,0-43.629,19.571-43.629,43.63v11.753l-14.407,15.369l-28.26-26.38
				c-2.847-2.692-6.389-4.415-10.192-5.037v-35.106c0-6.47-5.265-11.734-11.733-11.734c-3.62,0-6.864,1.65-9.018,4.237h-64.533
				c-2.113,0-3.825,1.713-3.825,3.825c0,2.112,1.711,3.825,3.825,3.825h61.816C277.232,222.19,277.232,309.036,277.232,309.036z
				 M288.968,217.953c2.252,0,4.084,1.833,4.084,4.085v35.372c-3.002,0.72-5.814,2.14-8.168,4.16v-39.532
				C284.883,219.784,286.716,217.953,288.968,217.953z M293.05,309.036c0,2.252-1.832,4.084-4.084,4.084s-4.085-1.832-4.085-4.084
				v-17.99l8.168,7.604L293.05,309.036L293.05,309.036z M340.131,327.724L340.131,327.724c-2.993,0-5.843-1.125-8.034-3.174
				l-42.639-39.695c-2.285-2.16-3.593-5.082-3.682-8.226c-0.088-3.145,1.053-6.135,3.214-8.422c2.246-2.377,5.286-3.686,8.56-3.686
				c3.019,0,5.892,1.143,8.105,3.236l31.069,29.001c1.544,1.44,3.957,1.36,5.402-0.18l42.517-45.354
				c2.246-2.377,5.286-3.685,8.56-3.685c3.018,0,5.892,1.143,8.087,3.218c4.719,4.46,4.93,11.929,0.458,16.66l-53.038,56.614
				C346.456,326.412,343.409,327.724,340.131,327.724z M361.211,321.872l46.107-49.216c7.356-7.784,7.01-20.104-0.773-27.462
				c-3.622-3.424-8.361-5.309-13.344-5.309c-5.319,0-10.465,2.216-14.129,6.092l-17.86,19.052v-3.591
				c0-19.839,16.14-35.98,35.979-35.98s35.979,16.14,35.979,35.98v114.678c0,19.629-15.804,35.625-35.354,35.96
				c7.805-5.185,12.89-14.119,12.687-24.16c-0.314-15.485-13.307-28.044-28.87-27.723l-20.42,0.412v-38.732L361.211,321.872
				L361.211,321.872z M309.016,410.624c-2.112,0.042-3.79,1.789-3.747,3.902l1.484,73.602c0.112,5.516-1.931,10.745-5.751,14.723
				c-3.773,3.929-8.835,6.165-14.273,6.328v-78.404c0-2.112-1.711-3.825-3.825-3.825c-2.113,0-3.825,1.713-3.825,3.825v77.173
				c-7.776-2.854-13.442-10.287-13.617-18.986l-1.982-98.035c-0.001-0.026-0.001-0.053-0.003-0.082
				c-0.05-2.777,0.442-5.478,1.462-8.027c3.081-7.72,10.439-12.818,18.746-12.995c0.012,0,0.022,0,0.035,0l98.066-1.981l0.429-0.005
				c11.156,0,20.413,9.078,20.639,20.235c0.228,11.386-8.849,20.835-20.236,21.067h-0.002l0,0l-0.089,0.002L309.016,410.624z
				 M501.869,500.949c-0.057,0-0.117,0.001-0.176,0l-98.054,0.001c-0.021,0-0.049-0.001-0.073,0.001
				c-2.778-0.003-5.47-0.55-8.004-1.623c-7.663-3.241-12.614-10.713-12.614-19.04l0.002-62.939
				c4.579,1.585,9.359,2.394,14.243,2.394c10.217,0,19.616-3.54,27.059-9.444l0.001,45.522c0,2.112,1.713,3.825,3.825,3.826h73.618
				c5.515,0,10.704,2.147,14.603,6.048c3.9,3.9,6.047,9.087,6.046,14.605c0,0.674-0.034,1.34-0.098,1.998h-62.494
				c-2.113,0-3.825,1.713-3.825,3.825s1.711,3.825,3.825,3.825h60.193C516.5,496.437,509.698,500.883,501.869,500.949z"/>
		</g>
		<g>
			
				<rect x="94.491" y="169.956" fill="#03769E" stroke="#03769E" stroke-width="4" stroke-miterlimit="10" width="76.118" height="346"/>
			
				<rect x="354.749" y="238.762" transform="matrix(0.7213 0.6926 -0.6926 0.7213 300.4001 -176.3091)" fill="#03769E" stroke="#03769E" stroke-width="4" stroke-miterlimit="10" width="29.074" height="92.736"/>
			
				<rect x="305.664" y="255.856" transform="matrix(-0.6849 0.7286 -0.7286 -0.6849 752.4193 269.0172)" fill="#03769E" stroke="#03769E" stroke-width="4" stroke-miterlimit="10" width="24.758" height="82.679"/>
			<g>
				
					<rect x="382.947" y="460.564" fill="#03769E" stroke="#03769E" stroke-width="4" stroke-miterlimit="10" width="139.298" height="41.303"/>
				
					<rect x="382.947" y="412.42" fill="#03769E" stroke="#03769E" stroke-width="4" stroke-miterlimit="10" width="48.957" height="89.446"/>
			</g>
		</g>
	</g>
</g>
</svg>
