<?xml version="1.0" encoding="utf-8"?>
<!-- Generator: Adobe Illustrator 16.0.0, SVG Export Plug-In . SVG Version: 6.00 Build 0)  -->
<!DOCTYPE svg PUBLIC "-//W3C//DTD SVG 1.1//EN" "http://www.w3.org/Graphics/SVG/1.1/DTD/svg11.dtd">
<svg version="1.1" id="Layer_1" xmlns="http://www.w3.org/2000/svg" xmlns:xlink="http://www.w3.org/1999/xlink" x="0px" y="0px"
	 width="32px" height="32px" viewBox="0 0 32 32" enable-background="new 0 0 32 32" xml:space="preserve">
<g display="none">
	<g display="inline">
		<defs>
			<rect id="SVGID_1_" x="-0.362" y="37.964" width="33.888" height="19.848"/>
		</defs>
		<clipPath id="SVGID_2_">
			<use xlink:href="#SVGID_1_"  overflow="visible"/>
		</clipPath>
		<path clip-path="url(#SVGID_2_)" d="M16.57,57.269c-0.606,0-1.214-0.232-1.675-0.693L0.334,42.013
			c-0.929-0.928-0.929-2.43,0-3.355c0.925-0.924,2.428-0.924,3.354,0L16.57,51.543L29.456,38.66c0.926-0.926,2.428-0.926,3.354,0
			c0.926,0.925,0.926,2.428,0,3.354L18.247,56.575C17.786,57.038,17.177,57.269,16.57,57.269L16.57,57.269z M16.57,57.269"/>
	</g>
</g>
<g>
	<path fill="#231F20" stroke="#221F1F" stroke-miterlimit="10" d="M29.279,11.561L16,25.236L2.721,11.561l0.729-0.708L16,23.775
		l12.551-12.922L29.279,11.561z M29.279,11.561"/>
</g>
<g display="none">
	<path display="inline" fill-rule="evenodd" clip-rule="evenodd" fill="#231F20" d="M26.211,7.749l-1.18-1.181l-9.029,9.011
		L6.973,6.568L5.789,7.749l9.026,9.012l-9.026,9.015l1.184,1.179l9.029-9.012l9.029,9.012l1.18-1.179l-9.025-9.015L26.211,7.749z
		 M26.211,7.749"/>
</g>
</svg>
