<?xml version="1.0" encoding="utf-8"?>
<!-- Generator: Adobe Illustrator 16.0.0, SVG Export Plug-In . SVG Version: 6.00 Build 0)  -->
<!DOCTYPE svg PUBLIC "-//W3C//DTD SVG 1.1//EN" "http://www.w3.org/Graphics/SVG/1.1/DTD/svg11.dtd">
<svg version="1.1" id="Layer_1" xmlns="http://www.w3.org/2000/svg" xmlns:xlink="http://www.w3.org/1999/xlink" x="0px" y="0px"
	 width="25px" height="25px" viewBox="0 0 25 25" enable-background="new 0 0 25 25" xml:space="preserve">
<g display="none">
	<g display="inline">
		<defs>
			<rect id="SVGID_1_" x="1.073" y="5.601" width="22.85" height="15.45"/>
		</defs>
		<clipPath id="SVGID_2_">
			<use xlink:href="#SVGID_1_"  overflow="visible"/>
		</clipPath>
		<path clip-path="url(#SVGID_2_)" fill="#F15D31" d="M23.461,21.016H1.539c-0.257,0-0.466-0.209-0.466-0.466V6.067
			c0-0.257,0.209-0.466,0.466-0.466h21.922c0.258,0,0.467,0.209,0.467,0.466v14.482C23.928,20.807,23.719,21.016,23.461,21.016
			L23.461,21.016z M2.005,20.083h20.989V6.534H2.005V20.083z M2.005,20.083"/>
	</g>
	<path display="inline" fill="#F15D31" d="M12.5,15.227c-0.097,0-0.194-0.03-0.277-0.091L3.341,8.594
		C3.134,8.441,3.09,8.149,3.243,7.942S3.687,7.69,3.895,7.843l8.605,6.337l8.605-6.337c0.207-0.153,0.499-0.109,0.652,0.099
		c0.152,0.208,0.108,0.5-0.099,0.652l-8.882,6.542C12.694,15.196,12.597,15.227,12.5,15.227L12.5,15.227z M12.5,15.227"/>
</g>
<g display="none">
	<g display="inline">
		<defs>
			<rect id="SVGID_3_" x="4.666" y="0.962" width="16.421" height="22.948"/>
		</defs>
		<clipPath id="SVGID_4_">
			<use xlink:href="#SVGID_3_"  overflow="visible"/>
		</clipPath>
		<path clip-path="url(#SVGID_4_)" fill="#F15D31" d="M12.825,23.903l-0.405-0.524c-0.259-0.335-6.335-8.236-7.296-11.624
			C4.26,8.707,4.63,5.813,6.141,3.815c1.424-1.884,3.728-2.879,6.66-2.879c3.171,0,5.479,0.924,6.858,2.75
			c1.453,1.918,1.743,4.784,0.816,8.069c-0.954,3.38-6.99,11.288-7.247,11.623L12.825,23.903z M12.801,1.956
			c-2.601,0-4.623,0.855-5.847,2.474C5.639,6.17,5.33,8.739,6.106,11.477c0.771,2.718,5.322,8.894,6.717,10.744
			c1.385-1.854,5.906-8.032,6.671-10.743c0.838-2.97,0.607-5.518-0.647-7.176C17.669,2.745,15.635,1.956,12.801,1.956L12.801,1.956z
			 M12.801,1.956"/>
	</g>
	<path display="inline" fill="#F15D31" d="M12.838,12.579c-2.194,0-3.979-1.785-3.979-3.979c0-2.193,1.785-3.978,3.979-3.978
		c2.193,0,3.978,1.785,3.978,3.978C16.815,10.794,15.031,12.579,12.838,12.579L12.838,12.579z M12.838,5.643
		c-1.632,0-2.959,1.327-2.959,2.958c0,1.631,1.327,2.958,2.959,2.958c1.631,0,2.958-1.327,2.958-2.958
		C15.796,6.97,14.469,5.643,12.838,5.643L12.838,5.643z M12.838,5.643"/>
</g>
<g display="none">
	<g display="inline">
		<path fill="#F15D31" d="M2.308,6.346c0-0.254,0.017-0.407,0.021-0.447c0.007-0.066,0.037-0.131,0.086-0.183
			C2.417,5.713,2.42,5.711,2.422,5.709l1.551-1.551c0.586-0.586,1.541-0.586,2.127,0l2.943,2.943
			c0.284,0.284,0.441,0.662,0.441,1.064c0,0.402-0.157,0.78-0.441,1.064l-1.454,1.453c0.033,0.452,0.291,2.165,2.272,4.145
			c1.995,1.996,3.649,2.201,4.083,2.22l1.459-1.458c0.586-0.587,1.54-0.587,2.128,0l2.942,2.942c0.586,0.587,0.586,1.542,0,2.129
			l-1.551,1.551c-0.002,0.002-0.004,0.003-0.007,0.005c0,0,0,0,0,0.001c-0.051,0.049-0.115,0.077-0.18,0.086
			c-0.252,0.033-4.948,0.571-10.935-5.415C2.765,11.851,2.308,7.69,2.308,6.346L2.308,6.346z M6.949,10.69L2.968,6.709
			c0.104,1.53,0.852,5.292,5.286,9.727c4.437,4.437,8.166,5.148,9.678,5.237l-3.987-3.986c-0.533-0.017-2.373-0.243-4.535-2.406
			C7.237,13.108,6.977,11.223,6.949,10.69L6.949,10.69z M8.844,8.166c0-0.222-0.084-0.444-0.253-0.612L5.648,4.611
			c-0.164-0.164-0.38-0.253-0.611-0.253S4.588,4.447,4.424,4.611L3.099,5.937l4.167,4.166l1.326-1.326
			C8.759,8.608,8.844,8.387,8.844,8.166L8.844,8.166z M20.275,19.596c0-0.231-0.091-0.448-0.254-0.611l-2.942-2.942
			c-0.164-0.164-0.381-0.254-0.612-0.254s-0.448,0.09-0.611,0.254l-1.325,1.325l4.165,4.166l1.326-1.325
			C20.185,20.045,20.275,19.826,20.275,19.596L20.275,19.596z M12.44,7.709c0-0.177,0.144-0.32,0.32-0.32
			c2.874,0,5.213,2.338,5.213,5.213c0,0.176-0.144,0.318-0.319,0.318c-0.178,0-0.32-0.143-0.32-0.318
			c0-2.522-2.052-4.574-4.573-4.574C12.584,8.029,12.44,7.885,12.44,7.709L12.44,7.709z M12.44,5.321
			c0-0.176,0.144-0.319,0.32-0.319c4.19,0,7.601,3.409,7.601,7.601c0,0.176-0.144,0.318-0.32,0.318
			c-0.176,0-0.319-0.143-0.319-0.318c0-3.839-3.122-6.962-6.961-6.962C12.584,5.641,12.44,5.498,12.44,5.321L12.44,5.321z
			 M12.44,2.99c0-0.176,0.144-0.319,0.32-0.319c5.476,0,9.931,4.455,9.931,9.932c0,0.176-0.143,0.318-0.319,0.318
			c-0.178,0-0.32-0.143-0.32-0.318c0-5.125-4.168-9.292-9.291-9.292C12.584,3.311,12.44,3.167,12.44,2.99L12.44,2.99z M12.44,2.99"
			/>
	</g>
</g>
<g>
	<path fill="#F15D31" d="M15.673,19.604h-4.836c-0.18,0-0.326,0.146-0.326,0.326s0.146,0.326,0.326,0.326h4.836
		c0.18,0,0.326-0.146,0.326-0.326S15.853,19.604,15.673,19.604L15.673,19.604z M15.673,19.604"/>
	<path fill="#F15D31" d="M15.673,18.301h-4.836c-0.18,0-0.326,0.146-0.326,0.325s0.146,0.327,0.326,0.327h4.836
		c0.18,0,0.326-0.147,0.326-0.327S15.853,18.301,15.673,18.301L15.673,18.301z M15.673,18.301"/>
	<path fill="#F15D31" d="M15.673,16.997h-4.836c-0.18,0-0.326,0.145-0.326,0.326c0,0.179,0.146,0.325,0.326,0.325h4.836
		c0.18,0,0.326-0.146,0.326-0.325C15.999,17.142,15.853,16.997,15.673,16.997L15.673,16.997z M15.673,16.997"/>
	<path fill="#F15D31" d="M15.673,13.489h-4.836c-0.18,0-0.326,0.146-0.326,0.326v1.639c0,0.18,0.146,0.326,0.326,0.326h0.869
		c0.18,0,0.326-0.146,0.326-0.326s-0.146-0.325-0.326-0.325h-0.543v-0.988h4.184v0.988H13.01c-0.181,0-0.327,0.146-0.327,0.325
		s0.146,0.326,0.327,0.326h2.663c0.18,0,0.326-0.146,0.326-0.326v-1.639C15.999,13.635,15.853,13.489,15.673,13.489L15.673,13.489z
		 M15.673,13.489"/>
	<path fill="#F15D31" d="M19.149,13.489c-0.985,0-1.787,0.802-1.787,1.786c0,0.985,0.802,1.785,1.787,1.785
		c0.984,0,1.785-0.8,1.785-1.785C20.935,14.291,20.134,13.489,19.149,13.489L19.149,13.489z M19.149,16.41
		c-0.627,0-1.135-0.509-1.135-1.135s0.508-1.135,1.135-1.135c0.625,0,1.135,0.509,1.135,1.135S19.774,16.41,19.149,16.41
		L19.149,16.41z M19.149,16.41"/>
	<path fill="#F15D31" d="M21.696,11.467h-0.63V7.42c0-0.18-0.146-0.326-0.325-0.326h-1.068V3.048c0-0.18-0.146-0.326-0.326-0.326
		h-7.348c-0.18,0-0.326,0.146-0.326,0.326v4.046h-1.068c-0.18,0-0.326,0.146-0.326,0.326v4.047h-1.14
		C9.105,9.633,9.048,8.329,9.047,8.311c0-0.002,0-0.003,0-0.006C9.026,7.968,8.793,7.648,8.485,7.51
		C8.343,7.373,7.994,7.288,6.75,7.288c-1.244,0-1.593,0.085-1.735,0.223C4.706,7.648,4.474,7.968,4.453,8.305
		c0,0.002,0,0.004,0,0.006c-0.001,0.018-0.058,1.323-0.091,3.157H3.707c-0.611,0-1.108,0.497-1.108,1.108v8.595
		c0,0.61,0.497,1.107,1.108,1.107h17.989c0.612,0,1.109-0.497,1.109-1.107v-8.595C22.806,11.964,22.309,11.467,21.696,11.467
		L21.696,11.467z M20.415,7.747v3.721h-0.742V7.747H20.415z M12.324,3.374h6.697v8.093h-6.697V3.374z M10.93,7.747h0.743v3.721
		H10.93V7.747z M5.104,8.342C5.111,8.244,5.214,8.12,5.31,8.095c0.057-0.014,0.108-0.044,0.148-0.083
		C5.566,7.987,5.886,7.939,6.75,7.939c0.864,0,1.184,0.048,1.292,0.072c0.04,0.04,0.091,0.069,0.148,0.083
		C8.285,8.12,8.389,8.244,8.396,8.342C8.4,8.451,8.508,10.971,8.51,13.914c-0.002,2.941-0.11,5.463-0.114,5.571
		c-0.008,0.099-0.111,0.223-0.207,0.247c-0.057,0.014-0.108,0.043-0.148,0.083c-0.108,0.024-0.428,0.072-1.292,0.072
		c-0.863,0-1.184-0.048-1.292-0.072c-0.04-0.04-0.091-0.069-0.148-0.083c-0.096-0.024-0.199-0.148-0.207-0.247
		c-0.005-0.108-0.113-2.629-0.114-5.571C4.991,10.971,5.099,8.451,5.104,8.342L5.104,8.342z M22.153,21.17
		c0,0.251-0.205,0.456-0.457,0.456H3.707c-0.251,0-0.457-0.205-0.457-0.456v-8.595c0-0.252,0.205-0.456,0.457-0.456h0.644
		c-0.008,0.567-0.013,1.171-0.013,1.795c0.001,3.007,0.114,5.577,0.115,5.604c0,0.001,0,0.003,0,0.005
		c0.021,0.336,0.253,0.656,0.562,0.794c0.142,0.138,0.491,0.224,1.735,0.224c1.245,0,1.593-0.086,1.736-0.224
		c0.308-0.138,0.541-0.458,0.562-0.794c0-0.002,0-0.004,0-0.005c0.001-0.026,0.114-2.597,0.115-5.604
		c0-0.624-0.005-1.228-0.014-1.795h12.548c0.252,0,0.457,0.204,0.457,0.456V21.17z M22.153,21.17"/>
	<path fill="#F15D31" d="M13.991,9.933h1.682c0.18,0,0.325-0.146,0.325-0.326c0-0.18-0.146-0.326-0.325-0.326h-1.682
		c-0.18,0-0.325,0.146-0.325,0.326C13.666,9.787,13.812,9.933,13.991,9.933L13.991,9.933z M13.991,9.933"/>
	<path fill="#F15D31" d="M13.991,7.747h3.362c0.181,0,0.327-0.146,0.327-0.326s-0.146-0.326-0.327-0.326h-3.362
		c-0.18,0-0.325,0.146-0.325,0.326S13.812,7.747,13.991,7.747L13.991,7.747z M13.991,7.747"/>
	<path fill="#F15D31" d="M13.991,5.561h3.362c0.181,0,0.327-0.146,0.327-0.327c0-0.179-0.146-0.326-0.327-0.326h-3.362
		c-0.18,0-0.325,0.146-0.325,0.326C13.666,5.414,13.812,5.561,13.991,5.561L13.991,5.561z M13.991,5.561"/>
</g>
</svg>
