<?xml version="1.0" encoding="utf-8"?>
<!-- Generator: Adobe Illustrator 16.0.0, SVG Export Plug-In . SVG Version: 6.00 Build 0)  -->
<!DOCTYPE svg PUBLIC "-//W3C//DTD SVG 1.1//EN" "http://www.w3.org/Graphics/SVG/1.1/DTD/svg11.dtd">
<svg version="1.1" id="Layer_1" xmlns="http://www.w3.org/2000/svg" xmlns:xlink="http://www.w3.org/1999/xlink" x="0px" y="0px"
	 width="30.389px" height="16.457px" viewBox="0 0 30.389 16.457" enable-background="new 0 0 30.389 16.457" xml:space="preserve">
<g display="none">
	<g display="inline">
		<defs>
			<rect id="SVGID_1_" x="-1.337" y="-22.695" width="33.888" height="19.848"/>
		</defs>
		<clipPath id="SVGID_2_">
			<use xlink:href="#SVGID_1_"  overflow="visible"/>
		</clipPath>
		<path clip-path="url(#SVGID_2_)" d="M15.595-3.391c-0.606,0-1.214-0.232-1.675-0.693L-0.642-18.646
			c-0.929-0.928-0.929-2.43,0-3.355c0.925-0.924,2.428-0.924,3.354,0L15.595-9.116L28.48-22c0.926-0.926,2.428-0.926,3.354,0
			c0.926,0.925,0.926,2.428,0,3.354L17.271-4.084C16.811-3.621,16.201-3.391,15.595-3.391L15.595-3.391z M15.595-3.391"/>
	</g>
</g>
<g>
	<path fill="#231F20" d="M30.389-45.042L15.193-29.394L-0.001-45.042l0.834-0.81l14.36,14.786l14.361-14.786L30.389-45.042z
		 M30.389-45.042"/>
</g>
<g>
	<path fill="#231F20" d="M0,12.779L15.195-2.869L30.39,12.779l-0.834,0.81L15.195-1.197L0.834,13.589L0,12.779z M0,12.779"/>
</g>
</svg>
