<?xml version="1.0" encoding="utf-8"?>
<!-- Generator: Adobe Illustrator 16.0.0, SVG Export Plug-In . SVG Version: 6.00 Build 0)  -->
<!DOCTYPE svg PUBLIC "-//W3C//DTD SVG 1.1//EN" "http://www.w3.org/Graphics/SVG/1.1/DTD/svg11.dtd">
<svg version="1.1" id="Layer_1" xmlns="http://www.w3.org/2000/svg" xmlns:xlink="http://www.w3.org/1999/xlink" x="0px" y="0px"
	 width="25px" height="25px" viewBox="0 0 25 25" enable-background="new 0 0 25 25" xml:space="preserve">
<g display="none">
	<g display="inline">
		<defs>
			<rect id="SVGID_1_" x="1.073" y="5.601" width="22.85" height="15.45"/>
		</defs>
		<clipPath id="SVGID_2_">
			<use xlink:href="#SVGID_1_"  overflow="visible"/>
		</clipPath>
		<path clip-path="url(#SVGID_2_)" fill="#F15D31" d="M23.461,21.016H1.539c-0.257,0-0.466-0.209-0.466-0.466V6.067
			c0-0.257,0.209-0.466,0.466-0.466h21.922c0.258,0,0.467,0.209,0.467,0.466v14.482C23.928,20.807,23.719,21.016,23.461,21.016
			L23.461,21.016z M2.005,20.083h20.989V6.534H2.005V20.083z M2.005,20.083"/>
	</g>
	<path display="inline" fill="#F15D31" d="M12.5,15.227c-0.097,0-0.194-0.03-0.277-0.091L3.341,8.594
		C3.134,8.441,3.09,8.149,3.243,7.942S3.687,7.69,3.895,7.843l8.605,6.337l8.605-6.337c0.207-0.153,0.499-0.109,0.652,0.099
		c0.152,0.208,0.108,0.5-0.099,0.652l-8.882,6.542C12.694,15.196,12.597,15.227,12.5,15.227L12.5,15.227z M12.5,15.227"/>
</g>
<g display="none">
	<g display="inline">
		<defs>
			<rect id="SVGID_3_" x="4.666" y="0.962" width="16.421" height="22.948"/>
		</defs>
		<clipPath id="SVGID_4_">
			<use xlink:href="#SVGID_3_"  overflow="visible"/>
		</clipPath>
		<path clip-path="url(#SVGID_4_)" fill="#F15D31" d="M12.825,23.903l-0.405-0.524c-0.259-0.335-6.335-8.236-7.296-11.624
			C4.26,8.707,4.63,5.813,6.141,3.815c1.424-1.884,3.728-2.879,6.66-2.879c3.171,0,5.479,0.924,6.858,2.75
			c1.453,1.918,1.743,4.784,0.816,8.069c-0.954,3.38-6.99,11.288-7.247,11.623L12.825,23.903z M12.801,1.956
			c-2.601,0-4.623,0.855-5.847,2.474C5.639,6.17,5.33,8.739,6.106,11.477c0.771,2.718,5.322,8.894,6.717,10.744
			c1.385-1.854,5.906-8.032,6.671-10.743c0.838-2.97,0.607-5.518-0.647-7.176C17.669,2.745,15.635,1.956,12.801,1.956L12.801,1.956z
			 M12.801,1.956"/>
	</g>
	<path display="inline" fill="#F15D31" d="M12.838,12.579c-2.194,0-3.979-1.785-3.979-3.979c0-2.193,1.785-3.978,3.979-3.978
		c2.193,0,3.978,1.785,3.978,3.978C16.815,10.794,15.031,12.579,12.838,12.579L12.838,12.579z M12.838,5.643
		c-1.632,0-2.959,1.327-2.959,2.958c0,1.631,1.327,2.958,2.959,2.958c1.631,0,2.958-1.327,2.958-2.958
		C15.796,6.97,14.469,5.643,12.838,5.643L12.838,5.643z M12.838,5.643"/>
</g>
<g>
	<g>
		<path fill="#F15D31" d="M2.308,6.346c0-0.254,0.017-0.407,0.021-0.447c0.007-0.066,0.037-0.131,0.086-0.183
			C2.417,5.713,2.42,5.711,2.422,5.709l1.551-1.551c0.586-0.586,1.541-0.586,2.127,0l2.943,2.943
			c0.284,0.284,0.441,0.662,0.441,1.064c0,0.402-0.157,0.78-0.441,1.064l-1.454,1.453c0.033,0.452,0.291,2.165,2.272,4.145
			c1.995,1.996,3.649,2.201,4.083,2.22l1.459-1.458c0.586-0.587,1.54-0.587,2.128,0l2.942,2.942c0.586,0.587,0.586,1.542,0,2.129
			l-1.551,1.551c-0.002,0.002-0.004,0.003-0.007,0.005c0,0,0,0,0,0.001c-0.051,0.049-0.115,0.077-0.18,0.086
			c-0.252,0.033-4.948,0.571-10.935-5.415C2.765,11.851,2.308,7.69,2.308,6.346L2.308,6.346z M6.949,10.69L2.968,6.709
			c0.104,1.53,0.852,5.292,5.286,9.727c4.437,4.437,8.166,5.148,9.678,5.237l-3.987-3.986c-0.533-0.017-2.373-0.243-4.535-2.406
			C7.237,13.108,6.977,11.223,6.949,10.69L6.949,10.69z M8.844,8.166c0-0.222-0.084-0.444-0.253-0.612L5.648,4.611
			c-0.164-0.164-0.38-0.253-0.611-0.253S4.588,4.447,4.424,4.611L3.099,5.937l4.167,4.166l1.326-1.326
			C8.759,8.608,8.844,8.387,8.844,8.166L8.844,8.166z M20.275,19.596c0-0.231-0.091-0.448-0.254-0.611l-2.942-2.942
			c-0.164-0.164-0.381-0.254-0.612-0.254s-0.448,0.09-0.611,0.254l-1.325,1.325l4.165,4.166l1.326-1.325
			C20.185,20.045,20.275,19.826,20.275,19.596L20.275,19.596z M12.44,7.709c0-0.177,0.144-0.32,0.32-0.32
			c2.874,0,5.213,2.338,5.213,5.213c0,0.176-0.144,0.318-0.319,0.318c-0.178,0-0.32-0.143-0.32-0.318
			c0-2.522-2.052-4.574-4.573-4.574C12.584,8.029,12.44,7.885,12.44,7.709L12.44,7.709z M12.44,5.321
			c0-0.176,0.144-0.319,0.32-0.319c4.19,0,7.601,3.409,7.601,7.601c0,0.176-0.144,0.318-0.32,0.318
			c-0.176,0-0.319-0.143-0.319-0.318c0-3.839-3.122-6.962-6.961-6.962C12.584,5.641,12.44,5.498,12.44,5.321L12.44,5.321z
			 M12.44,2.99c0-0.176,0.144-0.319,0.32-0.319c5.476,0,9.931,4.455,9.931,9.932c0,0.176-0.143,0.318-0.319,0.318
			c-0.178,0-0.32-0.143-0.32-0.318c0-5.125-4.168-9.292-9.291-9.292C12.584,3.311,12.44,3.167,12.44,2.99L12.44,2.99z M12.44,2.99"
			/>
	</g>
</g>
<g display="none">
	<path display="inline" fill="#F15D31" d="M16.004,20.878H10.3c-0.212,0-0.385,0.172-0.385,0.384c0,0.213,0.172,0.385,0.385,0.385
		h5.704c0.212,0,0.385-0.172,0.385-0.385C16.389,21.05,16.216,20.878,16.004,20.878L16.004,20.878z M16.004,20.878"/>
	<path display="inline" fill="#F15D31" d="M16.004,19.341H10.3c-0.212,0-0.385,0.171-0.385,0.384c0,0.212,0.172,0.385,0.385,0.385
		h5.704c0.212,0,0.385-0.173,0.385-0.385C16.389,19.512,16.216,19.341,16.004,19.341L16.004,19.341z M16.004,19.341"/>
	<path display="inline" fill="#F15D31" d="M16.004,17.803H10.3c-0.212,0-0.385,0.172-0.385,0.385c0,0.212,0.172,0.384,0.385,0.384
		h5.704c0.212,0,0.385-0.172,0.385-0.384C16.389,17.975,16.216,17.803,16.004,17.803L16.004,17.803z M16.004,17.803"/>
	<path display="inline" fill="#F15D31" d="M16.004,13.666H10.3c-0.212,0-0.385,0.172-0.385,0.385v1.933
		c0,0.212,0.172,0.385,0.385,0.385h1.025c0.212,0,0.384-0.173,0.384-0.385S11.537,15.6,11.325,15.6h-0.641v-1.165h4.935V15.6h-2.757
		c-0.212,0-0.385,0.172-0.385,0.384s0.172,0.385,0.385,0.385h3.142c0.212,0,0.385-0.173,0.385-0.385v-1.933
		C16.389,13.838,16.216,13.666,16.004,13.666L16.004,13.666z M16.004,13.666"/>
	<path display="inline" fill="#F15D31" d="M20.104,13.666c-1.162,0-2.107,0.945-2.107,2.106c0,1.162,0.945,2.106,2.107,2.106
		c1.161,0,2.106-0.944,2.106-2.106C22.21,14.611,21.265,13.666,20.104,13.666L20.104,13.666z M20.104,17.11
		c-0.738,0-1.338-0.6-1.338-1.338c0-0.737,0.6-1.338,1.338-1.338c0.737,0,1.338,0.601,1.338,1.338
		C21.441,16.511,20.841,17.11,20.104,17.11L20.104,17.11z M20.104,17.11"/>
	<path display="inline" fill="#F15D31" d="M23.108,11.281h-0.743V6.509c0-0.212-0.172-0.384-0.384-0.384h-1.26V1.352
		c0-0.212-0.173-0.384-0.385-0.384H11.67c-0.212,0-0.384,0.172-0.384,0.384v4.772h-1.26c-0.212,0-0.384,0.172-0.384,0.384v4.772
		H8.297C8.257,9.119,8.19,7.58,8.189,7.559c0-0.002,0-0.004,0-0.007C8.164,7.154,7.89,6.778,7.526,6.615
		C7.359,6.453,6.947,6.352,5.479,6.352c-1.467,0-1.879,0.101-2.046,0.263c-0.364,0.163-0.638,0.54-0.662,0.937
		c0,0.002,0,0.004,0,0.007C2.77,7.58,2.702,9.119,2.663,11.281H1.891c-0.72,0-1.307,0.586-1.307,1.307v10.137
		c0,0.721,0.586,1.307,1.307,1.307h21.217c0.721,0,1.308-0.586,1.308-1.307V12.588C24.416,11.867,23.829,11.281,23.108,11.281
		L23.108,11.281z M21.597,6.893v4.388h-0.875V6.893H21.597z M12.055,1.736h7.898v9.545h-7.898V1.736z M10.411,6.893h0.875v4.388
		h-0.875V6.893z M3.538,7.596C3.547,7.48,3.669,7.333,3.782,7.304c0.067-0.017,0.127-0.051,0.174-0.098
		c0.127-0.029,0.505-0.085,1.523-0.085c1.019,0,1.396,0.056,1.523,0.085c0.048,0.047,0.108,0.082,0.175,0.098
		C7.291,7.333,7.413,7.48,7.421,7.596c0.005,0.128,0.133,3.101,0.135,6.571c-0.002,3.47-0.129,6.442-0.135,6.57
		C7.413,20.854,7.291,21,7.178,21.029c-0.067,0.017-0.127,0.051-0.175,0.098c-0.127,0.029-0.504,0.086-1.523,0.086
		c-1.019,0-1.396-0.057-1.523-0.086c-0.047-0.047-0.107-0.081-0.174-0.098C3.669,21,3.547,20.854,3.538,20.737
		c-0.005-0.128-0.133-3.1-0.135-6.57C3.405,10.697,3.533,7.724,3.538,7.596L3.538,7.596z M23.646,22.725
		c0,0.297-0.241,0.538-0.538,0.538H1.891c-0.296,0-0.538-0.241-0.538-0.538V12.588c0-0.297,0.242-0.538,0.538-0.538H2.65
		c-0.009,0.669-0.016,1.382-0.016,2.117c0.002,3.547,0.135,6.578,0.136,6.608c0,0.002,0,0.004,0,0.006
		c0.024,0.397,0.298,0.774,0.662,0.938c0.167,0.162,0.579,0.263,2.046,0.263c1.468,0,1.879-0.101,2.047-0.263
		c0.363-0.163,0.637-0.54,0.662-0.938c0-0.002,0-0.004,0-0.006c0.001-0.03,0.134-3.062,0.136-6.608c0-0.735-0.007-1.448-0.016-2.117
		h14.799c0.297,0,0.538,0.241,0.538,0.538V22.725z M23.646,22.725"/>
	<path display="inline" fill="#F15D31" d="M14.021,9.472h1.983c0.212,0,0.384-0.172,0.384-0.385c0-0.212-0.172-0.384-0.384-0.384
		h-1.983c-0.212,0-0.384,0.172-0.384,0.384C13.637,9.299,13.809,9.472,14.021,9.472L14.021,9.472z M14.021,9.472"/>
	<path display="inline" fill="#F15D31" d="M14.021,6.893h3.966c0.213,0,0.385-0.172,0.385-0.384s-0.172-0.384-0.385-0.384h-3.966
		c-0.212,0-0.384,0.172-0.384,0.384S13.809,6.893,14.021,6.893L14.021,6.893z M14.021,6.893"/>
	<path display="inline" fill="#F15D31" d="M14.021,4.315h3.966c0.213,0,0.385-0.172,0.385-0.385c0-0.212-0.172-0.384-0.385-0.384
		h-3.966c-0.212,0-0.384,0.172-0.384,0.384C13.637,4.143,13.809,4.315,14.021,4.315L14.021,4.315z M14.021,4.315"/>
</g>
</svg>
