<?xml version="1.0" encoding="utf-8"?>
<!-- Generator: Adobe Illustrator 18.1.1, SVG Export Plug-In . SVG Version: 6.00 Build 0)  -->
<svg version="1.0" id="Layer_1" xmlns="http://www.w3.org/2000/svg" xmlns:xlink="http://www.w3.org/1999/xlink" x="0px" y="0px"
	 width="20px" height="40px" viewBox="0 0 20 40" enable-background="new 0 0 20 40" xml:space="preserve">
<g>
	<g>
		<g>
			<defs>
				<rect id="SVGID_1_" x="0.7" y="22" width="18.5" height="16.7"/>
			</defs>
			<clipPath id="SVGID_2_">
				<use xlink:href="#SVGID_1_"  overflow="visible"/>
			</clipPath>
			<path clip-path="url(#SVGID_2_)" fill="#4AB2CB" d="M19,26.2c-0.6-2.5-2.7-4.2-5-4.2c-1.5,0-2.9,0.7-4,2.1C8.9,22.7,7.5,22,6,22
				c-2.3,0-4.4,1.7-5,4.2c-0.3,1.3-0.4,3.4,1.2,6c1.5,2.3,4,4.5,7.6,6.5c0.1,0,0.2,0.1,0.3,0.1c0.1,0,0.2,0,0.3-0.1
				c3.6-1.9,6.1-4.1,7.6-6.5C19.4,29.6,19.4,27.5,19,26.2L19,26.2z M10,37.4c-8.7-4.9-8.3-9.6-7.9-11c0.5-1.9,2.1-3.3,3.9-3.3
				c1.4,0,2.6,0.8,3.5,2.3c0.1,0.2,0.3,0.3,0.5,0.3c0.2,0,0.4-0.1,0.5-0.3c0.9-1.5,2.1-2.3,3.5-2.3c1.8,0,3.4,1.4,3.9,3.3
				C18.3,27.8,18.7,32.6,10,37.4L10,37.4z"/>
		</g>
	</g>
	<path fill="#4AB2CB" d="M15.6,30.4h-2.6l-1-3.5c-0.1-0.2-0.3-0.4-0.6-0.4h0c-0.3,0-0.5,0.2-0.6,0.4l-1.3,4.9l-1.3-4.9
		c-0.1-0.2-0.3-0.4-0.5-0.4h0c-0.3,0-0.5,0.2-0.5,0.4l-0.7,2.3H4c-0.3,0-0.6,0.3-0.6,0.6c0,0.3,0.3,0.6,0.6,0.6h3
		c0.3,0,0.5-0.2,0.5-0.4l0.2-0.7l1.3,5c0.1,0.2,0.3,0.4,0.6,0.4c0.3,0,0.5-0.2,0.6-0.4l1.3-4.9l0.5,1.9c0.1,0.3,0.3,0.4,0.6,0.4h3
		c0.3,0,0.6-0.3,0.6-0.6S16,30.4,15.6,30.4L15.6,30.4z"/>
</g>
<g>
	<g>
		<g>
			<defs>
				<rect id="SVGID_3_" x="0.7" y="2" width="18.5" height="16.7"/>
			</defs>
			<clipPath id="SVGID_4_">
				<use xlink:href="#SVGID_3_"  overflow="visible"/>
			</clipPath>
			<path clip-path="url(#SVGID_4_)" fill="#FFFFFF" d="M19,6.2C18.4,3.7,16.3,2,14,2c-1.5,0-2.9,0.7-4,2.1C8.9,2.7,7.5,2,6,2
				c-2.3,0-4.4,1.7-5,4.2c-0.3,1.3-0.4,3.4,1.2,6c1.5,2.3,4,4.5,7.6,6.5c0.1,0,0.2,0.1,0.3,0.1c0.1,0,0.2,0,0.3-0.1
				c3.6-1.9,6.1-4.1,7.6-6.5C19.4,9.6,19.4,7.5,19,6.2L19,6.2z M10,17.4c-8.7-4.9-8.3-9.6-7.9-11C2.5,4.5,4.2,3.1,6,3.1
				c1.4,0,2.6,0.8,3.5,2.3C9.6,5.6,9.8,5.7,10,5.7c0.2,0,0.4-0.1,0.5-0.3C11.4,4,12.6,3.1,14,3.1c1.8,0,3.4,1.4,3.9,3.3
				C18.3,7.8,18.7,12.6,10,17.4L10,17.4z"/>
		</g>
	</g>
	<path fill="#FFFFFF" d="M15.6,10.4h-2.6l-1-3.5c-0.1-0.2-0.3-0.4-0.6-0.4h0c-0.3,0-0.5,0.2-0.6,0.4l-1.3,4.9L8.4,6.9
		C8.3,6.6,8.1,6.4,7.8,6.4h0c-0.3,0-0.5,0.2-0.5,0.4L6.6,9.1H4c-0.3,0-0.6,0.3-0.6,0.6c0,0.3,0.3,0.6,0.6,0.6h3
		c0.3,0,0.5-0.2,0.5-0.4l0.2-0.7l1.3,5c0.1,0.2,0.3,0.4,0.6,0.4c0.3,0,0.5-0.2,0.6-0.4l1.3-4.9l0.5,1.9c0.1,0.3,0.3,0.4,0.6,0.4h3
		c0.3,0,0.6-0.3,0.6-0.6C16.2,10.7,16,10.4,15.6,10.4L15.6,10.4z"/>
</g>
<g display="none">
	<rect y="0.1" display="inline" fill="none" width="20" height="20"/>
	<rect y="20" display="inline" fill="none" width="20" height="20"/>
	<g display="inline">
		<path fill="#4AB2CB" d="M19,14.4c0-2.4-1.6-4.4-3.8-5c1-0.5,1.6-1.6,1.6-2.8c0-1.7-1.4-3.1-3.1-3.1c-1.7,0-3.1,1.4-3.1,3.1
			c0,1.2,0.7,2.2,1.6,2.8c-0.2,0-0.3,0.1-0.5,0.2c-0.4-0.6-1-0.9-1.8-0.9C9.3,8.6,8.6,9,8.2,9.5C8.1,9.5,7.9,9.4,7.8,9.4
			c1-0.5,1.6-1.6,1.6-2.8c0-1.7-1.4-3.1-3.1-3.1S3.1,4.9,3.1,6.6c0,1.2,0.7,2.2,1.6,2.8C2.6,10,1,12,1,14.4C1,14.8,1.3,15,1.6,15h5
			c-0.1,0.3-0.1,0.6-0.1,0.9c0,0.3,0.3,0.6,0.6,0.6h5.8c0,0,0,0,0,0c0.3,0,0.6-0.3,0.6-0.6c0,0,0,0,0,0c0-0.3,0-0.6-0.1-0.8h5
			C18.7,15,19,14.8,19,14.4C19,14.4,19,14.4,19,14.4L19,14.4z M13.7,4.7c1.1,0,1.9,0.9,1.9,1.9c0,1.1-0.9,1.9-1.9,1.9
			s-1.9-0.9-1.9-1.9C11.8,5.5,12.7,4.7,13.7,4.7L13.7,4.7z M10,9.8c0.5,0,1,0.4,1,1c0,0.5-0.4,1-1,1c-0.5,0-1-0.4-1-1
			C9,10.2,9.5,9.8,10,9.8L10,9.8z M6.3,4.7c1.1,0,1.9,0.9,1.9,1.9c0,1.1-0.9,1.9-1.9,1.9S4.4,7.7,4.4,6.6C4.4,5.5,5.2,4.7,6.3,4.7
			L6.3,4.7z M2.3,13.8c0.3-2,2-3.5,4-3.5c0.6,0,1.1,0.1,1.6,0.3c0,0,0,0.1,0,0.1c0,0.8,0.4,1.5,1,1.8c-0.7,0.2-1.2,0.7-1.7,1.2
			C7.2,13.8,2.3,13.8,2.3,13.8z M7.8,15.3c0.3-1,1.2-1.7,2.2-1.7s1.9,0.7,2.2,1.7H7.8z M12.8,13.8c-0.4-0.6-1-1-1.7-1.2
			c0.6-0.4,1-1.1,1-1.8c0,0,0-0.1,0-0.1c0.5-0.2,1-0.3,1.6-0.3c2,0,3.7,1.5,4,3.5C17.7,13.8,12.8,13.8,12.8,13.8z"/>
	</g>
	<g display="inline">
		<path fill="#FFFFFF" d="M19,34.4c0-2.4-1.6-4.4-3.8-5c1-0.5,1.6-1.6,1.6-2.8c0-1.7-1.4-3.1-3.1-3.1c-1.7,0-3.1,1.4-3.1,3.1
			c0,1.2,0.7,2.2,1.6,2.8c-0.2,0-0.3,0.1-0.5,0.2c-0.4-0.6-1-0.9-1.8-0.9c-0.7,0-1.4,0.4-1.8,0.9c-0.2-0.1-0.3-0.1-0.5-0.2
			c1-0.5,1.6-1.6,1.6-2.8c0-1.7-1.4-3.1-3.1-3.1s-3.1,1.4-3.1,3.1c0,1.2,0.7,2.2,1.6,2.8C2.6,30,1,32,1,34.4C1,34.8,1.3,35,1.6,35h5
			c-0.1,0.3-0.1,0.6-0.1,0.9c0,0.3,0.3,0.6,0.6,0.6h5.8c0,0,0,0,0,0c0.3,0,0.6-0.3,0.6-0.6c0,0,0,0,0,0c0-0.3,0-0.6-0.1-0.8h5
			C18.7,35,19,34.8,19,34.4C19,34.4,19,34.4,19,34.4L19,34.4z M13.7,24.7c1.1,0,1.9,0.9,1.9,1.9c0,1.1-0.9,1.9-1.9,1.9
			s-1.9-0.9-1.9-1.9C11.8,25.5,12.7,24.7,13.7,24.7L13.7,24.7z M10,29.8c0.5,0,1,0.4,1,1s-0.4,1-1,1c-0.5,0-1-0.4-1-1
			C9,30.2,9.5,29.8,10,29.8L10,29.8z M6.3,24.7c1.1,0,1.9,0.9,1.9,1.9c0,1.1-0.9,1.9-1.9,1.9s-1.9-0.9-1.9-1.9
			C4.4,25.5,5.2,24.7,6.3,24.7L6.3,24.7z M2.3,33.8c0.3-2,2-3.5,4-3.5c0.6,0,1.1,0.1,1.6,0.3c0,0,0,0.1,0,0.1c0,0.8,0.4,1.5,1,1.8
			c-0.7,0.2-1.2,0.7-1.7,1.2C7.2,33.8,2.3,33.8,2.3,33.8z M7.8,35.3c0.3-1,1.2-1.7,2.2-1.7s1.9,0.7,2.2,1.7H7.8z M12.8,33.8
			c-0.4-0.6-1-1-1.7-1.2c0.6-0.4,1-1.1,1-1.8c0,0,0-0.1,0-0.1c0.5-0.2,1-0.3,1.6-0.3c2,0,3.7,1.5,4,3.5
			C17.7,33.8,12.8,33.8,12.8,33.8z"/>
	</g>
</g>
</svg>
