<?xml version="1.0" encoding="utf-8"?>
<!-- Generator: Adobe Illustrator 18.1.1, SVG Export Plug-In . SVG Version: 6.00 Build 0)  -->
<svg version="1.0" id="Layer_1" xmlns="http://www.w3.org/2000/svg" xmlns:xlink="http://www.w3.org/1999/xlink" x="0px" y="0px"
	 width="20px" height="40px" viewBox="0 0 20 40" enable-background="new 0 0 20 40" xml:space="preserve">
<g display="none">
	<g display="inline">
		<g>
			<g>
				<defs>
					<rect id="SVGID_1_" x="0.7" y="22" width="18.5" height="16.7"/>
				</defs>
				<clipPath id="SVGID_2_">
					<use xlink:href="#SVGID_1_"  overflow="visible"/>
				</clipPath>
				<path clip-path="url(#SVGID_2_)" fill="#4AB2CB" d="M19,26.2c-0.6-2.5-2.7-4.2-5-4.2c-1.5,0-2.9,0.7-4,2.1C8.9,22.7,7.5,22,6,22
					c-2.3,0-4.4,1.7-5,4.2c-0.3,1.3-0.4,3.4,1.2,6c1.5,2.3,4,4.5,7.6,6.5c0.1,0,0.2,0.1,0.3,0.1c0.1,0,0.2,0,0.3-0.1
					c3.6-1.9,6.1-4.1,7.6-6.5C19.4,29.6,19.4,27.5,19,26.2L19,26.2z M10,37.4c-8.7-4.9-8.3-9.6-7.9-11c0.5-1.9,2.1-3.3,3.9-3.3
					c1.4,0,2.6,0.8,3.5,2.3c0.1,0.2,0.3,0.3,0.5,0.3c0.2,0,0.4-0.1,0.5-0.3c0.9-1.5,2.1-2.3,3.5-2.3c1.8,0,3.4,1.4,3.9,3.3
					C18.3,27.8,18.7,32.6,10,37.4L10,37.4z"/>
			</g>
		</g>
		<path fill="#4AB2CB" d="M15.6,30.4h-2.6l-1-3.5c-0.1-0.2-0.3-0.4-0.6-0.4h0c-0.3,0-0.5,0.2-0.6,0.4l-1.3,4.9l-1.3-4.9
			c-0.1-0.2-0.3-0.4-0.5-0.4h0c-0.3,0-0.5,0.2-0.5,0.4l-0.7,2.3H4c-0.3,0-0.6,0.3-0.6,0.6c0,0.3,0.3,0.6,0.6,0.6h3
			c0.3,0,0.5-0.2,0.5-0.4l0.2-0.7l1.3,5c0.1,0.2,0.3,0.4,0.6,0.4c0.3,0,0.5-0.2,0.6-0.4l1.3-4.9l0.5,1.9c0.1,0.3,0.3,0.4,0.6,0.4h3
			c0.3,0,0.6-0.3,0.6-0.6S16,30.4,15.6,30.4L15.6,30.4z"/>
	</g>
	<g display="inline">
		<g>
			<g>
				<defs>
					<rect id="SVGID_3_" x="0.7" y="2" width="18.5" height="16.7"/>
				</defs>
				<clipPath id="SVGID_4_">
					<use xlink:href="#SVGID_3_"  overflow="visible"/>
				</clipPath>
				<path clip-path="url(#SVGID_4_)" fill="#FFFFFF" d="M19,6.2C18.4,3.7,16.3,2,14,2c-1.5,0-2.9,0.7-4,2.1C8.9,2.7,7.5,2,6,2
					c-2.3,0-4.4,1.7-5,4.2c-0.3,1.3-0.4,3.4,1.2,6c1.5,2.3,4,4.5,7.6,6.5c0.1,0,0.2,0.1,0.3,0.1c0.1,0,0.2,0,0.3-0.1
					c3.6-1.9,6.1-4.1,7.6-6.5C19.4,9.6,19.4,7.5,19,6.2L19,6.2z M10,17.4c-8.7-4.9-8.3-9.6-7.9-11C2.5,4.5,4.2,3.1,6,3.1
					c1.4,0,2.6,0.8,3.5,2.3C9.6,5.6,9.8,5.7,10,5.7c0.2,0,0.4-0.1,0.5-0.3C11.4,4,12.6,3.1,14,3.1c1.8,0,3.4,1.4,3.9,3.3
					C18.3,7.8,18.7,12.6,10,17.4L10,17.4z"/>
			</g>
		</g>
		<path fill="#FFFFFF" d="M15.6,10.4h-2.6l-1-3.5c-0.1-0.2-0.3-0.4-0.6-0.4h0c-0.3,0-0.5,0.2-0.6,0.4l-1.3,4.9L8.4,6.9
			C8.3,6.6,8.1,6.4,7.8,6.4h0c-0.3,0-0.5,0.2-0.5,0.4L6.6,9.1H4c-0.3,0-0.6,0.3-0.6,0.6c0,0.3,0.3,0.6,0.6,0.6h3
			c0.3,0,0.5-0.2,0.5-0.4l0.2-0.7l1.3,5c0.1,0.2,0.3,0.4,0.6,0.4c0.3,0,0.5-0.2,0.6-0.4l1.3-4.9l0.5,1.9c0.1,0.3,0.3,0.4,0.6,0.4h3
			c0.3,0,0.6-0.3,0.6-0.6C16.2,10.7,16,10.4,15.6,10.4L15.6,10.4z"/>
	</g>
</g>
<rect y="0.1" fill="none" width="20" height="20"/>
<rect y="20" fill="none" width="20" height="20"/>
<g>
	<g>
		<path fill="#4AB2CB" d="M19,34.9c0-2.4-1.6-4.4-3.8-5c1-0.5,1.6-1.6,1.6-2.8c0-1.7-1.4-3.1-3.1-3.1c-1.7,0-3.1,1.4-3.1,3.1
			c0,1.2,0.7,2.2,1.6,2.8c-0.2,0-0.3,0.1-0.5,0.2c-0.4-0.6-1-0.9-1.8-0.9c-0.7,0-1.4,0.4-1.8,0.9c-0.2-0.1-0.3-0.1-0.5-0.2
			c1-0.5,1.6-1.6,1.6-2.8c0-1.7-1.4-3.1-3.1-3.1s-3.1,1.4-3.1,3.1c0,1.2,0.7,2.2,1.6,2.8C2.6,30.5,1,32.5,1,34.9
			c0,0.3,0.3,0.6,0.6,0.6h5c-0.1,0.3-0.1,0.6-0.1,0.9c0,0.3,0.3,0.6,0.6,0.6h5.8c0,0,0,0,0,0c0.3,0,0.6-0.3,0.6-0.6c0,0,0,0,0,0
			c0-0.3,0-0.6-0.1-0.8h5C18.7,35.5,19,35.2,19,34.9C19,34.9,19,34.9,19,34.9L19,34.9z M13.7,25.1c1.1,0,1.9,0.9,1.9,1.9
			c0,1.1-0.9,1.9-1.9,1.9s-1.9-0.9-1.9-1.9C11.8,26,12.7,25.1,13.7,25.1L13.7,25.1z M10,30.3c0.5,0,1,0.4,1,1c0,0.5-0.4,1-1,1
			c-0.5,0-1-0.4-1-1S9.5,30.3,10,30.3L10,30.3z M6.3,25.1c1.1,0,1.9,0.9,1.9,1.9c0,1.1-0.9,1.9-1.9,1.9s-1.9-0.9-1.9-1.9
			C4.4,26,5.2,25.1,6.3,25.1L6.3,25.1z M2.3,34.3c0.3-2,2-3.5,4-3.5c0.6,0,1.1,0.1,1.6,0.3c0,0,0,0.1,0,0.1c0,0.8,0.4,1.5,1,1.8
			c-0.7,0.2-1.2,0.7-1.7,1.2H2.3z M7.8,35.8c0.3-1,1.2-1.7,2.2-1.7s1.9,0.7,2.2,1.7H7.8z M12.8,34.3c-0.4-0.6-1-1-1.7-1.2
			c0.6-0.4,1-1.1,1-1.8c0,0,0-0.1,0-0.1c0.5-0.2,1-0.3,1.6-0.3c2,0,3.7,1.5,4,3.5H12.8z"/>
	</g>
	<g>
		<path fill="#FFFFFF" d="M19,14.9c0-2.4-1.6-4.4-3.8-5c1-0.5,1.6-1.6,1.6-2.8c0-1.7-1.4-3.1-3.1-3.1c-1.7,0-3.1,1.4-3.1,3.1
			c0,1.2,0.7,2.2,1.6,2.8c-0.2,0-0.3,0.1-0.5,0.2c-0.4-0.6-1-0.9-1.8-0.9c-0.7,0-1.4,0.4-1.8,0.9C8.1,9.9,7.9,9.9,7.8,9.8
			c1-0.5,1.6-1.6,1.6-2.8c0-1.7-1.4-3.1-3.1-3.1S3.1,5.3,3.1,7.1c0,1.2,0.7,2.2,1.6,2.8C2.6,10.5,1,12.5,1,14.9
			c0,0.3,0.3,0.6,0.6,0.6h5c-0.1,0.3-0.1,0.6-0.1,0.9c0,0.3,0.3,0.6,0.6,0.6h5.8c0,0,0,0,0,0c0.3,0,0.6-0.3,0.6-0.6c0,0,0,0,0,0
			c0-0.3,0-0.6-0.1-0.8h5C18.7,15.5,19,15.2,19,14.9C19,14.9,19,14.9,19,14.9L19,14.9z M13.7,5.1c1.1,0,1.9,0.9,1.9,1.9
			c0,1.1-0.9,1.9-1.9,1.9s-1.9-0.9-1.9-1.9C11.8,6,12.7,5.1,13.7,5.1L13.7,5.1z M10,10.3c0.5,0,1,0.4,1,1c0,0.5-0.4,1-1,1
			c-0.5,0-1-0.4-1-1C9,10.7,9.5,10.3,10,10.3L10,10.3z M6.3,5.1c1.1,0,1.9,0.9,1.9,1.9C8.2,8.1,7.3,9,6.3,9S4.4,8.1,4.4,7.1
			C4.4,6,5.2,5.1,6.3,5.1L6.3,5.1z M2.3,14.3c0.3-2,2-3.5,4-3.5c0.6,0,1.1,0.1,1.6,0.3c0,0,0,0.1,0,0.1c0,0.8,0.4,1.5,1,1.8
			c-0.7,0.2-1.2,0.7-1.7,1.2L2.3,14.3z M7.8,15.8c0.3-1,1.2-1.7,2.2-1.7s1.9,0.7,2.2,1.7H7.8z M12.8,14.3c-0.4-0.6-1-1-1.7-1.2
			c0.6-0.4,1-1.1,1-1.8c0,0,0-0.1,0-0.1c0.5-0.2,1-0.3,1.6-0.3c2,0,3.7,1.5,4,3.5L12.8,14.3z"/>
	</g>
</g>
</svg>
