<?xml version="1.0" encoding="utf-8"?>
<!-- Generator: Adobe Illustrator 18.1.1, SVG Export Plug-In . SVG Version: 6.00 Build 0)  -->
<svg version="1.0" id="Layer_1" xmlns="http://www.w3.org/2000/svg" xmlns:xlink="http://www.w3.org/1999/xlink" x="0px" y="0px"
	 width="50px" height="50px" viewBox="0 0 50 50" enable-background="new 0 0 50 50" xml:space="preserve">
<g>
	<path fill="#F26B55" d="M12.9,47.1c0,1.1,1,2.1,2.1,2.1h20c1.1,0,2.1-0.9,2.1-2.1L38.6,17H11.4L12.9,47.1z M29.5,24.5
		c0-0.5,0.4-0.9,0.9-0.9h1.4c0.5,0,0.9,0.4,0.9,0.9v17.2c0,0.5-0.4,0.9-0.9,0.9h-1.4c-0.5,0-0.9-0.4-0.9-0.9V24.5z M23.4,24.5
		c0-0.5,0.4-0.9,0.9-0.9h1.4c0.5,0,0.9,0.4,0.9,0.9v17.2c0,0.5-0.4,0.9-0.9,0.9h-1.4c-0.5,0-0.9-0.4-0.9-0.9V24.5z M17.3,24.5
		c0-0.5,0.4-0.9,0.9-0.9h1.4c0.5,0,0.9,0.4,0.9,0.9v17.2c0,0.5-0.4,0.9-0.9,0.9h-1.4c-0.5,0-0.9-0.4-0.9-0.9V24.5z M17.3,24.5"/>
	<path fill="#F26B55" d="M39.5,9.2h-9.2V7.4c0-0.2-0.2-0.4-0.4-0.4h-9.7c-0.2,0-0.4,0.2-0.4,0.4v1.7h-9.2c-0.7,0-1.3,0.6-1.3,1.3
		v4.2h31.7v-4.2C40.9,9.8,40.3,9.2,39.5,9.2L39.5,9.2z M39.5,9.2"/>
</g>
</svg>
