<?xml version="1.0" encoding="utf-8"?>
<!-- Generator: Adobe Illustrator 18.1.1, SVG Export Plug-In . SVG Version: 6.00 Build 0)  -->
<svg version="1.0" id="Layer_1" xmlns="http://www.w3.org/2000/svg" xmlns:xlink="http://www.w3.org/1999/xlink" x="0px" y="0px"
	 width="50px" height="50px" viewBox="0 0 50 50" enable-background="new 0 0 50 50" xml:space="preserve">
<path fill="#F26B55" d="M12.9,47.1c0,1.1,1,2.1,2.1,2.1h20c1.1,0,2.1-0.9,2.1-2.1L38.6,17H11.4L12.9,47.1z M29.5,24.5
	c0-0.5,0.4-0.9,0.9-0.9h1.4c0.5,0,0.9,0.4,0.9,0.9v17.2c0,0.5-0.4,0.9-0.9,0.9h-1.4c-0.5,0-0.9-0.4-0.9-0.9V24.5z M23.4,24.5
	c0-0.5,0.4-0.9,0.9-0.9h1.4c0.5,0,0.9,0.4,0.9,0.9v17.2c0,0.5-0.4,0.9-0.9,0.9h-1.4c-0.5,0-0.9-0.4-0.9-0.9V24.5z M17.3,24.5
	c0-0.5,0.4-0.9,0.9-0.9h1.4c0.5,0,0.9,0.4,0.9,0.9v17.2c0,0.5-0.4,0.9-0.9,0.9h-1.4c-0.5,0-0.9-0.4-0.9-0.9V24.5z M17.3,24.5"/>
<path fill="#F26B55" d="M39.5,9.9l-8.9-2.3L31,5.9c0.1-0.2-0.1-0.5-0.3-0.5l-9.4-2.5c-0.2-0.1-0.5,0.1-0.5,0.3l-0.4,1.7l-8.9-2.3
	c-0.7-0.2-1.5,0.2-1.6,1L8.7,7.6l30.7,8.1l1.1-4.1C40.6,10.9,40.2,10.1,39.5,9.9L39.5,9.9z M39.5,9.9"/>
</svg>
