<?xml version="1.0" encoding="utf-8"?>
<!-- Generator: Adobe Illustrator 16.0.0, SVG Export Plug-In . SVG Version: 6.00 Build 0)  -->
<!DOCTYPE svg PUBLIC "-//W3C//DTD SVG 1.1//EN" "http://www.w3.org/Graphics/SVG/1.1/DTD/svg11.dtd">
<svg version="1.1" id="Layer_1" xmlns="http://www.w3.org/2000/svg" xmlns:xlink="http://www.w3.org/1999/xlink" x="0px" y="0px"
	 width="40px" height="40px" viewBox="0 0 40 40" enable-background="new 0 0 40 40" xml:space="preserve">
<g display="none">
	<g display="inline">
		<path fill="#439CDA" d="M32.765,37.97H30.58c-0.082,0-0.162-0.027-0.227-0.075L20,29.911L9.646,37.895
			C9.583,37.942,9.502,37.97,9.42,37.97H7.236c-0.158,0-0.298-0.101-0.35-0.251c-0.054-0.15-0.002-0.317,0.123-0.414L18.3,28.603
			l-9.005-6.945H8.473c-0.887,0-1.607-0.721-1.607-1.606v-0.138c0-0.888,0.721-1.608,1.607-1.608h0.577v-7.05
			C7.812,11.061,6.865,9.99,6.865,8.699V4.618c0-1.426,1.161-2.587,2.587-2.587h21.095c1.426,0,2.587,1.161,2.587,2.587v4.082
			c0,1.291-0.948,2.361-2.185,2.557v7.05h0.576c0.886,0,1.608,0.72,1.608,1.608v0.138c0,0.885-0.723,1.606-1.608,1.606h-0.82
			l-9.008,6.945l11.292,8.702c0.125,0.097,0.175,0.264,0.124,0.414C33.063,37.869,32.922,37.97,32.765,37.97L32.765,37.97z
			 M30.706,37.227h0.97l-10.812-8.332c-0.09-0.069-0.144-0.18-0.144-0.292c0-0.115,0.053-0.225,0.144-0.295l8.627-6.65h-0.97
			l-8.296,6.396c-0.133,0.103-0.32,0.103-0.453,0l-8.294-6.396h-0.97l8.626,6.65c0.092,0.07,0.145,0.18,0.145,0.295
			c0,0.112-0.053,0.223-0.145,0.292l-10.81,8.332h0.97l10.479-8.076c0.134-0.104,0.32-0.104,0.453,0L30.706,37.227z M12.692,21.657
			L20,27.291l7.308-5.634H12.692z M30.58,20.916h0.946c0.478,0,0.865-0.39,0.865-0.865v-0.138c0-0.478-0.388-0.866-0.865-0.866
			H8.473c-0.478,0-0.867,0.389-0.867,0.866v0.138c0,0.475,0.389,0.865,0.867,0.865H30.58z M29.515,18.306h0.693v-7.019h-0.693
			V18.306z M11.227,18.306h17.545v-7.019H11.227V18.306z M9.79,18.306h0.696v-7.019H9.79V18.306z M29.144,10.545h1.404
			c1.016,0,1.844-0.829,1.844-1.846V4.618c0-1.019-0.828-1.847-1.844-1.847H9.453c-1.017,0-1.847,0.828-1.847,1.847v4.082
			c0,1.017,0.83,1.846,1.847,1.846H29.144z M18.271,9.691c-0.079,0-0.155-0.024-0.218-0.069c-0.115-0.085-0.173-0.225-0.148-0.365
			l0.296-1.733l-1.26-1.229c-0.101-0.099-0.139-0.245-0.095-0.378c0.045-0.136,0.16-0.232,0.3-0.253l1.741-0.253l0.779-1.579
			C19.728,3.706,19.858,3.625,20,3.625c0.14,0,0.27,0.08,0.331,0.206l0.78,1.579l1.739,0.253c0.143,0.021,0.258,0.118,0.302,0.253
			c0.043,0.134,0.008,0.28-0.095,0.378l-1.261,1.229l0.298,1.733c0.025,0.14-0.035,0.28-0.147,0.365
			c-0.113,0.082-0.266,0.092-0.391,0.026L20,8.829l-1.559,0.819C18.388,9.677,18.329,9.691,18.271,9.691L18.271,9.691z M20,8.041
			c0.058,0,0.117,0.014,0.173,0.043l1.063,0.558l-0.203-1.186c-0.021-0.119,0.019-0.243,0.107-0.327l0.86-0.84l-1.19-0.172
			c-0.121-0.019-0.225-0.095-0.28-0.204L20,4.833l-0.533,1.079c-0.054,0.109-0.158,0.185-0.278,0.204l-1.192,0.172l0.861,0.84
			c0.088,0.084,0.127,0.208,0.106,0.327l-0.204,1.186l1.066-0.558C19.88,8.055,19.94,8.041,20,8.041L20,8.041z M20,8.041"/>
	</g>
</g>
<g>
	<g>
		<path fill="#439CDA" d="M31.786,12.369c-0.443-0.103-0.888,0.167-0.99,0.61l-2.133,8.998V9.237c0-4.772-3.886-8.657-8.659-8.657
			c-4.772,0-8.657,3.885-8.657,8.657v12.748l-2.133-8.998c-0.103-0.444-0.555-0.721-0.991-0.61c-0.444,0.103-0.721,0.547-0.61,0.991
			l2.973,12.519v0.023c0.087,0.365,0.412,0.635,0.801,0.635h7.786v7.785h-6.564c-0.46,0-0.825,0.373-0.825,0.824v3.441
			c0,0.459,0.373,0.824,0.825,0.824c0.452,0,0.824-0.373,0.824-0.824v-2.617h13.129v2.617c0,0.459,0.373,0.824,0.824,0.824
			c0.46,0,0.825-0.373,0.825-0.824v-3.441c0-0.46-0.373-0.824-0.825-0.824h-6.564v-7.785h7.786c0.389,0,0.713-0.27,0.801-0.635
			v-0.023l2.973-12.519C32.508,12.924,32.23,12.479,31.786,12.369L31.786,12.369z M13.004,9.237c0-3.861,3.14-7.001,7-7.001
			c3.862,0,7.001,3.14,7.001,7.001v11.377c-0.523-0.325-2.03-1.578-7.001-1.578c-4.868,0-6.295,1.205-7,1.578V9.237z M27.743,24.888
			H12.267c0.27-3.132,3.639-4.202,6.184-4.202h3.117C24.104,20.693,27.474,21.764,27.743,24.888L27.743,24.888z M27.743,24.888"/>
	</g>
</g>
</svg>
