<?xml version="1.0" encoding="utf-8"?>
<!-- Generator: Adobe Illustrator 18.1.1, SVG Export Plug-In . SVG Version: 6.00 Build 0)  -->
<svg version="1.0" id="Layer_1" xmlns="http://www.w3.org/2000/svg" xmlns:xlink="http://www.w3.org/1999/xlink" x="0px" y="0px"
	 width="20px" height="20px" viewBox="0 0 20 20" enable-background="new 0 0 20 20" xml:space="preserve">
<g>
	<path fill="#69C292" d="M15.2,0.3H1.3C0.9,0.3,0.6,0.6,0.6,1V19c0,0.4,0.3,0.8,0.7,0.8h17.3c0.4,0,0.8-0.3,0.8-0.8V5.3
		c0-0.1-0.1-0.3-0.1-0.4L16,0.5C15.7,0.4,15.5,0.3,15.2,0.3L15.2,0.3z M6.2,1.8H14v7.3H6.2V1.8z M17.8,18.2H2V1.8h2.7v8
		c0,0.4,0.3,0.7,0.7,0.7h9.4c0.4,0,0.7-0.3,0.7-0.7V2.6l2.4,3L17.8,18.2L17.8,18.2z"/>
	<path fill="#69C292" d="M12.3,3.9c0-0.4-0.3-0.8-0.8-0.8h-0.8c-0.4,0-0.8,0.3-0.8,0.8v3c0,0.4,0.3,0.8,0.8,0.8h0.9
		c0.4,0,0.8-0.3,0.8-0.8L12.3,3.9L12.3,3.9z"/>
</g>
</svg>
